<?xml version="1.0" encoding="utf-8"?>
<!-- Generator: Adobe Illustrator 23.0.1, SVG Export Plug-In . SVG Version: 6.00 Build 0)  -->
<svg version="1.1" id="Layer_1" xmlns="http://www.w3.org/2000/svg" xmlns:xlink="http://www.w3.org/1999/xlink" x="0px" y="0px"
	 viewBox="0 0 324 324" style="enable-background:new 0 0 324 324;" xml:space="preserve">
<style type="text/css">
	.st0{fill:#00AEEF;}
</style>
<g>
	<path d="M125.1,173.4c0.1,0.1,0.2,0.1,0.3,0.2C125.2,173.5,125.2,173.5,125.1,173.4L125.1,173.4z"/>
	<path d="M54.9,14.5c0,11.1,0.7,22,2.2,32.6c0.8,5.9,1.8,11.8,3,17.5c0.6,2.9,1.3,5.8,2.1,8.7c2.1,1.2,4,2.6,5.6,4.4L80.4,91
		c0.3,0.3,0.6,0.6,0.8,0.9l10.6-36.5c2.8-9.9,12-16.8,22.3-16.8c2.1,0,4.2,0.3,6.3,0.9h0.1h0.1l17.7,5.1c6,1.7,10.9,5.7,13.9,11.1
		c2.4,4.4,3.3,9.5,2.6,14.4c0.2,0,0.4,0,0.6,0c5.9,0,11.5,2.2,15.9,6.3l41.8,39.2c4.7,4.3,7.4,10.5,7.4,16.9c0,6.4-2.7,12.6-7.4,17
		l-41.7,39.1l-0.1,0.1l-0.1,0.1c-4.2,3.9-9.6,6-15.3,6.1v102.9c0,10.3,11.5,16.1,19.8,10.3l42-29.4c3.4-2.4,5.4-6.2,5.4-10.3v-78.7
		c46.1-16,82.6-63.9,95.7-125.3c1.2-5.7,2.2-11.5,3-17.5c1.4-10.6,2.2-21.5,2.2-32.6H54.9V14.5z"/>
	<path class="st0" d="M71.7,158c-0.1-2.2-1.1-4.3-2.8-5.7l-22.3-19.6l22.3-19.6c1.7-1.5,2.7-3.6,2.8-5.8c0.1-2.2-0.7-4.3-2.2-5.9
		L56.9,87.9c-1.5-1.6-3.7-2.6-6-2.6c-2.1,0-4.1,0.8-5.6,2.2L3.6,126.7c-1.7,1.5-2.6,3.7-2.6,6s1,4.5,2.6,6l41.8,39.2
		c1.5,1.4,3.5,2.2,5.6,2.2l0,0c2.3,0,4.4-1,5.9-2.6L69.5,164C71,162.4,71.8,160.2,71.7,158z"/>
	<path class="st0" d="M202.8,138.7c1.7-1.5,2.6-3.7,2.6-6s-1-4.5-2.6-6l-41.8-39.2c-1.5-1.4-3.5-2.2-5.6-2.2c-2.2,0-4.4,0.9-6,2.6
		l-12.6,13.5c-1.5,1.6-2.3,3.8-2.2,6s1.1,4.3,2.8,5.7l22.3,19.6l-22.3,19.6c-1.7,1.5-2.7,3.6-2.8,5.8s0.7,4.3,2.2,5.9l12.6,13.4
		c1.5,1.7,3.7,2.6,6,2.6c2.1,0,4-0.8,5.6-2.2L202.8,138.7z"/>
	<path class="st0" d="M138.9,63.1c-1.1-1.9-2.8-3.3-4.9-3.9L116.4,54c-0.7-0.2-1.5-0.3-2.2-0.3c-3.7,0-6.9,2.4-7.9,5.9l-20.4,70.3
		L66.7,196c-1.2,4.4,1.3,8.9,5.6,10.1l17.7,5.1c0.8,0.2,1.5,0.3,2.3,0.3c3.6,0,6.8-2.4,7.8-5.9l12.4-42.8l27.2-93.7
		C140.2,67.2,139.9,65,138.9,63.1z"/>
</g>
</svg>
