<?xml version="1.0" encoding="utf-8"?>
<!-- Generator: Adobe Illustrator 19.1.0, SVG Export Plug-In . SVG Version: 6.00 Build 0)  -->
<svg version="1.1" xmlns="http://www.w3.org/2000/svg" xmlns:xlink="http://www.w3.org/1999/xlink" x="0px" y="0px"
	 viewBox="0 0 300 300" style="enable-background:new 0 0 300 300;" xml:space="preserve">
<style type="text/css">
	.st0{fill:#832EAB;}
	.st1{fill:#FECD00;}
	.st2{fill:#00AEEF;}
	.st3{fill:none;}
	.st4{fill:#8DC63F;}
	.st5{fill:#0F9BD7;}
	.st6{fill:#FFFFFF;}
	.st7{fill-rule:evenodd;clip-rule:evenodd;fill:#FFFFFF;}
	.st8{fill:#1DA1F2;}
	.st9{fill:#3D5A98;}
	.st10{fill:#231F20;}
	.st11{fill:#007BB5;}
	.st12{fill:#DC4E41;}
	.st13{fill-rule:evenodd;clip-rule:evenodd;fill:#181616;}
	.st14{fill:#181616;}
	.st15{fill:#F2F2F2;}
	.st16{fill:#E3E3E3;}
	.st17{fill:#D54B3D;}
	.st18{fill:#D72B27;}
	.st19{opacity:0.56;fill:url(#SVGID_1_);}
	.st20{fill:#BABABA;}
	.st21{fill:#92D400;}
	.st22{fill:#00B9E4;}
	.st23{fill:#2B3990;}
	.st24{fill:#3F9C35;}
	.st25{fill:#8FCED8;}
	.st26{fill:#D21F21;}
	.st27{fill:#FFF8DA;}
	.st28{fill:#C32265;}
	.st29{fill:#D6D6D6;}
	.st30{fill:#F1F1F1;}
	.st31{fill:#8C3123;}
	.st32{fill:#E05243;}
	.st33{fill:#5E1F18;}
	.st34{fill:#F2B0A9;}
	.st35{fill:#CACCCE;}
	.st36{fill:#A1AFDB;}
	.st37{fill:#002087;}
	.st38{fill:#6C4199;}
	.st39{fill:#C7C7C7;}
	.st40{fill:#1976D2;}
	.st41{fill:#1E88E5;}
	.st42{fill:#FAFAFA;}
	.st43{fill:#E0E0E0;}
	.st44{fill:#F6A11F;}
	.st45{fill:#0A6DAE;}
	.st46{fill:#0BA25E;}
	.st47{fill:#089156;}
	.st48{fill:#10985B;}
	.st49{fill:#F9C941;}
	.st50{fill:#E8B835;}
	.st51{fill:#296AD9;}
	.st52{fill:#2A71E9;}
	.st53{fill:#286EE6;}
	.st54{fill:#009444;}
	.st55{fill:#006838;}
	.st56{fill:#BCBEC0;}
	.st57{fill:#2BB673;}
	.st58{fill:#F7941E;}
	.st59{fill:#EF4136;}
	.st60{fill:#FFFFFF;stroke:#231F20;stroke-width:10;stroke-linecap:round;stroke-linejoin:round;stroke-miterlimit:10;}
	.st61{fill:#D1D3D4;stroke:#231F20;stroke-width:10;stroke-linecap:round;stroke-linejoin:round;stroke-miterlimit:10;}
	.st62{fill:#231F20;stroke:#231F20;stroke-width:10;stroke-linecap:round;stroke-linejoin:round;stroke-miterlimit:10;}
	.st63{fill:none;stroke:#231F20;stroke-width:10;stroke-miterlimit:10;}
	.st64{fill:none;stroke:#231F20;stroke-width:10;stroke-linejoin:round;stroke-miterlimit:10;}
	.st65{fill:#E1DFE4;}
	.st66{fill:#35474F;}
	.st67{fill:#FC002F;}
	.st68{fill:#FDD518;}
	.st69{fill:#00E769;}
	.st70{fill:#D1D3D4;}
	.st71{fill:#27AAE1;}
	.st72{fill:#231F20;stroke:#27AAE1;stroke-miterlimit:10;}
	.st73{fill:url(#SVGID_2_);}
	.st74{fill:url(#SVGID_3_);}
	.st75{fill:url(#SVGID_4_);}
	.st76{fill:url(#SVGID_5_);}
	.st77{fill:url(#SVGID_6_);}
	.st78{fill:url(#SVGID_7_);}
</style>
<g id="Layer_1">
	<circle class="st71" cx="150" cy="150" r="150"/>
	<path class="st72" d="M149.9,83.1c23.2,0,46.5-0.1,69.7,0.1c4.8,0.1,9.8,0.8,14.3,2.5c9.4,3.6,13.5,13.2,9.1,22.3
		c-2.2,4.7-5.8,9.1-9.6,12.7C216.3,137,199,153,181.7,169c-2.6,2.4-3.6,4.8-3.5,8.3c0.2,15.6,0,31.3,0.1,47c0,4-1.1,7-4.1,9.8
		c-12.3,11.5-24.5,23.1-36.6,34.7c-3.2,3-6.7,4.5-11,2.8c-4.4-1.8-4.8-5.6-4.8-9.7c0-28.1,0-56.2,0.1-84.3c0-3.6-0.9-6.2-3.7-8.7
		c-17.2-15.8-34.4-31.7-51.3-47.9c-3.7-3.5-7.2-7.7-9.5-12.2c-4.8-9.6-0.6-19.8,9.6-23.3c4.7-1.6,9.9-2.2,14.8-2.2
		C104.4,83,127.2,83.1,149.9,83.1z M225.6,104.4c-0.5-0.6-1.1-1.3-1.6-1.9c-49.3,0-98.6,0-148,0c-0.3,0.6-0.7,1.1-1,1.7
		c1.5,1,3.2,1.9,4.5,3.2c18.1,17.1,36.1,34.4,54.3,51.3c4.2,3.9,5.8,8,5.8,13.7c-0.3,21-0.1,42.1-0.1,63.1c0,1.4,0,2.8,0,5.4
		c6.5-6.1,12-11.5,17.7-16.6c2.4-2.2,3.5-4.5,3.4-7.8c-0.2-15.3,0-30.6-0.1-45.9c0-4.4,1.4-7.7,4.6-10.6
		c18.5-17.4,36.8-35,55.3-52.4C221.8,106.1,223.8,105.4,225.6,104.4z"/>
	<g>
		<path class="st6" d="M139.5,243.4c-0.3,0-0.7-0.1-1-0.2c-0.9-0.4-1.5-1.3-1.5-2.3v-5.4c0-5.8,0-11.5,0-17.3
			c0-15-0.1-30.6,0.1-45.9c0.1-5.1-1.4-8.5-5-11.9c-11.8-11-23.7-22.3-35.2-33.2c-6.4-6-12.7-12.1-19.1-18.1c-0.6-0.5-1-1-1.3-1.4
			c-0.6-0.6-0.9-1-1.6-1.5c-0.7-0.5-1.1-1.3-1.1-2c-0.5-1.1-0.5-2.1,0.1-3c0.5-0.8,1.3-1.2,2.2-1.2h148c0.7,0,1.4,0.3,1.9,0.9
			c0.5,0.6,1.1,1.8,0.3,3.5c0,0.2,0,0.3,0,0.5c-0.1,0.7-0.6,1.4-1.2,1.7c-0.8,0.5-1.1,0.7-1.6,1.3c-0.3,0.4-0.7,0.8-1.3,1.3
			c-8.8,8.3-17.6,16.6-26.4,25c-9.5,9-19.3,18.3-29,27.5c-2.7,2.5-3.8,5.2-3.8,8.8c0.1,7.4,0.1,14.9,0.1,22.2c0,7.8,0,15.8,0.1,23.7
			c0,4-1.3,7-4.2,9.7c-4,3.6-7.9,7.3-12.1,11.3c-1.8,1.7-3.7,3.5-5.6,5.3C140.7,243.1,140.1,243.4,139.5,243.4z"/>
		<path class="st6" d="M224,102.5c0.5,0.6-0.8,1.3-0.3,1.9c-1.8,1-1.9,1.7-3.4,3c-18.5,17.4-36.8,35-55.3,52.4
			c-3.2,3-4.6,6.3-4.6,10.6c0.2,15.3,0,30.6,0.1,45.9c0,3.3-1,5.6-3.4,7.8c-5.7,5.1-11.2,10.5-17.7,16.6c0-2.6,0-4,0-5.4
			c0-21-0.2-42.1,0.1-63.1c0.1-5.7-1.6-9.8-5.8-13.7c-18.2-17-36.2-34.2-54.3-51.3c-1.3-1.3-1.8-2.1-3.3-3.2
			c0.3-0.6-0.6-1.1-0.3-1.7C125.3,102.5,174.6,102.5,224,102.5 M224,97.5H76c-1.8,0-3.4,0.9-4.3,2.5c-0.5,0.9-1.2,2.6-0.4,4.8
			c0.2,1.4,0.9,2.7,2.1,3.5c0.5,0.3,0.7,0.6,1.2,1.1c0.4,0.4,0.8,0.9,1.5,1.5c6.4,6,12.9,12.2,19.1,18.1
			c11.5,10.9,23.4,22.2,35.2,33.2c3.1,2.9,4.2,5.7,4.2,10c-0.2,15.3-0.2,30.9-0.1,45.9c0,5.7,0,11.5,0,17.2v5.4c0,2,1.2,3.8,3,4.6
			c0.6,0.3,1.3,0.4,2,0.4c1.3,0,2.5-0.5,3.4-1.4c1.9-1.8,3.8-3.6,5.6-5.3c4.2-4,8.1-7.7,12-11.2c3.5-3.2,5.1-6.8,5.1-11.6
			c-0.1-7.9-0.1-15.9-0.1-23.7c0-7.3,0-14.8-0.1-22.3c0-3,0.8-4.9,3-7c9.7-9.1,19.5-18.5,29-27.5c8.6-8.2,17.5-16.7,26.3-25
			c0.6-0.6,1.1-1.1,1.4-1.5c0.5-0.5,0.5-0.6,1-0.8c1.3-0.7,2.2-2,2.5-3.5c0-0.1,0-0.2,0.1-0.4c1.2-2.9-0.3-5-0.8-5.7
			C226.9,98.1,225.4,97.5,224,97.5L224,97.5z"/>
	</g>
</g>
<g id="Layer_2">
</g>
</svg>
