<svg width="46" height="39" xmlns="http://www.w3.org/2000/svg" xmlns:xlink="http://www.w3.org/1999/xlink"><defs><path id="a" d="M.041.112h11.693v11.692H.04z"/><path id="c" d="M0 .112h11.693v11.692H0z"/></defs><g fill="none" fill-rule="evenodd"><g transform="rotate(-90 23.086 -10.9)"><mask id="b" fill="#fff"><use xlink:href="#a"/></mask><path d="M1.743 11.804h8.289c.94 0 1.702-.762 1.702-1.702V1.814c0-.94-.763-1.702-1.702-1.702H1.743C.803.112.041.874.041 1.814v8.288c0 .94.762 1.702 1.702 1.702" fill="#00AEEF" mask="url(#b)"/></g><g transform="rotate(-90 36.046 2.06)"><mask id="d" fill="#fff"><use xlink:href="#c"/></mask><path d="M.205 10.913a1.709 1.709 0 0 0 1.497.891H9.99a1.7 1.7 0 0 0 1.703-1.702V1.814a1.696 1.696 0 0 0-1.176-1.62A1.7 1.7 0 0 0 9.99.113H1.702C.762.112 0 .874 0 1.814v8.288c0 .294.074.57.205.811" fill="#00AEEF" mask="url(#d)"/></g><path d="M28.145 24.026l2.772-2.772 1.18-1.18a1.148 1.148 0 0 0 0-1.623l-1.18-1.18-2.772-2.771a1.147 1.147 0 0 0-1.623 0l-2.772 2.772-1.18 1.18a1.148 1.148 0 0 0 0 1.622l1.18 1.18 2.772 2.772a1.147 1.147 0 0 0 1.623 0M16.506 25.073V13.452a2.386 2.386 0 0 0-2.387-2.386H2.498a2.386 2.386 0 0 0-2.386 2.386v11.621a2.386 2.386 0 0 0 2.386 2.387H14.12a2.386 2.386 0 0 0 2.387-2.387M21.267 18.072l.84-.84h-4.02v4.061h4.02l-.84-.84a1.687 1.687 0 0 1 0-2.381M33.456 4.365H25.787v9.186l.477-.476a1.687 1.687 0 0 1 2.382 0l.545.545.005-5.837h4.902V4.365h-.642zM33.456 30.684h-4.279l.005-5.77-.536.536a1.673 1.673 0 0 1-1.191.494c-.45 0-.873-.175-1.191-.494l-.476-.475v.103l-.03-.007.029 9.031h8.311v-3.418h-.642z" fill="#000"/><path fill-rule="nonzero" d="M0 42V-4h46v46z"/></g></svg>
