<?xml version="1.0" encoding="UTF-8" standalone="no"?>
<!-- Generator: Adobe Illustrator 19.1.0, SVG Export Plug-In . SVG Version: 6.00 Build 0)  -->

<svg
   xmlns:dc="http://purl.org/dc/elements/1.1/"
   xmlns:cc="http://creativecommons.org/ns#"
   xmlns:rdf="http://www.w3.org/1999/02/22-rdf-syntax-ns#"
   xmlns:svg="http://www.w3.org/2000/svg"
   xmlns="http://www.w3.org/2000/svg"
   xmlns:sodipodi="http://sodipodi.sourceforge.net/DTD/sodipodi-0.dtd"
   xmlns:inkscape="http://www.inkscape.org/namespaces/inkscape"
   version="1.1"
   id="Layer_1"
   x="0px"
   y="0px"
   viewBox="0 0 282.08 22"
   xml:space="preserve"
   sodipodi:docname="FuseIgniteLogo_Black.svg"
   width="300.88748"
   height="23.4688"
   inkscape:version="0.92.1 r15371"><metadata
     id="metadata67"><rdf:RDF><cc:Work
         rdf:about=""><dc:format>image/svg+xml</dc:format><dc:type
           rdf:resource="http://purl.org/dc/dcmitype/StillImage" /><dc:title></dc:title></cc:Work></rdf:RDF></metadata><defs
     id="defs65" /><sodipodi:namedview
     pagecolor="#ffffff"
     bordercolor="#666666"
     borderopacity="1"
     objecttolerance="10"
     gridtolerance="10"
     guidetolerance="10"
     inkscape:pageopacity="0"
     inkscape:pageshadow="2"
     inkscape:window-width="640"
     inkscape:window-height="480"
     id="namedview63"
     showgrid="false"
     inkscape:pagecheckerboard="true"
     inkscape:current-layer="Layer_1" /><style
     type="text/css"
     id="style2">
	.st0{fill:#FFFFFF;}
</style><g
     id="g60"
     transform="matrix(1.4275298,0,0,1.4275298,2.2841034,2.0779387)"><g
       id="g14"><path
         d="m 92.4,9.5 c -0.2,0.6 -0.5,1.2 -0.9,1.6 -0.4,0.4 -0.9,0.8 -1.6,1 -0.6,0.2 -1.4,0.4 -2.2,0.4 -0.8,0 -1.5,-0.1 -2.1,-0.3 C 85,12 84.5,11.7 84.1,11.4 83.7,11 83.3,10.6 83.1,10.1 82.8,9.6 82.6,9 82.5,8.4 l 3.3,-0.9 c 0.2,0.7 0.5,1.2 0.7,1.6 0.3,0.3 0.7,0.5 1.3,0.5 0.5,0 0.9,-0.2 1.2,-0.5 0.3,-0.3 0.4,-0.8 0.4,-1.4 V 0.3 h 3.4 v 7.1 c -0.1,0.8 -0.2,1.5 -0.4,2.1 z"
         id="path4"
         inkscape:connector-curvature="0" /><path
         d="m 104.3,11.3 c -0.7,0.7 -1.9,1 -3.4,1 h -5.8 v -12 h 5.8 c 1.5,0 2.6,0.3 3.2,0.8 0.7,0.5 1,1.3 1,2.3 0,0.7 -0.1,1.2 -0.4,1.5 -0.3,0.3 -0.6,0.6 -1,0.9 0.6,0.2 1,0.6 1.3,1 0.3,0.4 0.4,1 0.4,1.7 0,1.2 -0.4,2.1 -1.1,2.8 z M 101.6,3.2 C 101.5,3 101.2,2.9 100.8,2.9 h -2.5 v 1.9 h 2.5 c 0.4,0 0.7,-0.1 0.8,-0.3 0.2,-0.2 0.2,-0.4 0.2,-0.7 0,-0.2 0,-0.4 -0.2,-0.6 z m 0.2,4.4 c -0.2,-0.2 -0.5,-0.3 -0.9,-0.3 h -2.6 v 2.3 h 2.6 c 0.4,0 0.7,-0.1 0.9,-0.3 0.2,-0.2 0.3,-0.5 0.3,-0.9 0,-0.3 -0.1,-0.5 -0.3,-0.8 z"
         id="path6"
         inkscape:connector-curvature="0" /><path
         d="m 117.5,8.9 c -0.3,0.8 -0.7,1.4 -1.2,1.9 -0.5,0.5 -1.1,0.9 -1.8,1.2 -0.7,0.3 -1.4,0.4 -2.2,0.4 -0.8,0 -1.6,-0.1 -2.2,-0.4 -0.7,-0.3 -1.3,-0.7 -1.8,-1.2 -0.5,-0.5 -0.9,-1.2 -1.1,-1.9 -0.3,-0.8 -0.4,-1.7 -0.4,-2.7 0,-1 0.1,-1.9 0.4,-2.7 0.3,-0.8 0.7,-1.4 1.1,-1.9 0.5,-0.5 1.1,-0.9 1.8,-1.2 0.7,-0.3 1.4,-0.4 2.2,-0.4 0.8,0 1.6,0.1 2.2,0.4 0.7,0.3 1.3,0.7 1.7,1.2 0.5,0.5 0.9,1.2 1.1,1.9 0.3,0.8 0.4,1.7 0.4,2.7 0.2,1.1 0.1,2 -0.2,2.7 z M 113.9,3.8 C 113.5,3.3 113,3 112.3,3 c -0.7,0 -1.2,0.3 -1.6,0.8 -0.4,0.5 -0.5,1.4 -0.5,2.5 0,1.1 0.2,1.9 0.6,2.5 0.4,0.6 0.9,0.8 1.6,0.8 0.7,0 1.2,-0.3 1.6,-0.8 0.4,-0.5 0.5,-1.4 0.5,-2.5 0,-1.1 -0.2,-1.9 -0.6,-2.5 z"
         id="path8"
         inkscape:connector-curvature="0" /><path
         d="m 128.8,10.4 c -0.2,0.5 -0.6,0.9 -1,1.2 -0.4,0.3 -1,0.5 -1.6,0.7 -0.6,0.2 -1.3,0.2 -2,0.2 -1,0 -1.9,-0.1 -2.8,-0.4 -0.9,-0.3 -1.6,-0.6 -2.3,-1 l 1.6,-2.6 c 0.2,0.1 0.5,0.3 0.8,0.4 0.3,0.1 0.6,0.3 0.9,0.4 0.3,0.1 0.6,0.2 1,0.3 0.3,0.1 0.6,0.1 0.9,0.1 0.6,0 1,-0.1 1.2,-0.2 0.2,-0.1 0.3,-0.3 0.3,-0.6 0,-0.1 0,-0.2 -0.1,-0.3 C 125.6,8.5 125.5,8.4 125.4,8.3 125.2,8.2 125,8.1 124.8,8 124.5,7.9 124.2,7.8 123.8,7.7 123.1,7.5 122.5,7.3 121.9,7.2 121.4,7 120.9,6.8 120.6,6.5 120.2,6.2 120,5.9 119.8,5.4 119.6,5 119.5,4.5 119.5,3.9 c 0,-0.6 0.1,-1.1 0.3,-1.5 0.2,-0.5 0.5,-0.9 1,-1.2 0.4,-0.3 0.9,-0.6 1.5,-0.8 0.6,-0.2 1.2,-0.3 2,-0.3 1,0 1.9,0.1 2.7,0.4 0.8,0.2 1.5,0.6 2.1,1 l -1.6,2.6 C 127,3.7 126.4,3.5 125.9,3.3 125.4,3.1 124.8,3 124.2,3 c -0.5,0 -0.8,0.1 -1,0.2 -0.2,0.1 -0.2,0.3 -0.2,0.5 0,0.1 0,0.2 0.1,0.3 0.1,0.1 0.2,0.2 0.3,0.2 0.1,0.1 0.3,0.1 0.6,0.2 0.3,0.1 0.6,0.2 1,0.2 0.8,0.2 1.4,0.4 2,0.6 0.6,0.2 1,0.5 1.4,0.8 0.4,0.3 0.6,0.7 0.8,1.1 0.2,0.4 0.3,0.9 0.3,1.5 -0.3,0.7 -0.5,1.3 -0.7,1.8 z"
         id="path10"
         inkscape:connector-curvature="0" /><path
         d="m 140.2,10.4 c -0.2,0.5 -0.6,0.9 -1,1.2 -0.4,0.3 -1,0.5 -1.6,0.7 -0.6,0.2 -1.3,0.2 -2,0.2 -1,0 -1.9,-0.1 -2.8,-0.4 -0.9,-0.3 -1.6,-0.6 -2.3,-1 l 1.6,-2.6 c 0.2,0.1 0.5,0.3 0.8,0.4 0.3,0.1 0.6,0.3 0.9,0.4 0.3,0.1 0.6,0.2 1,0.3 0.3,0.1 0.6,0.1 0.9,0.1 0.6,0 1,-0.1 1.2,-0.2 0.2,-0.1 0.3,-0.3 0.3,-0.6 0,-0.1 0,-0.2 -0.1,-0.3 C 137,8.5 136.9,8.4 136.8,8.3 136.6,8.2 136.4,8.1 136.2,8 135.9,7.9 135.6,7.8 135.2,7.7 134.5,7.5 133.8,7.3 133.3,7.2 132.8,7 132.3,6.8 132,6.5 131.6,6.2 131.4,5.9 131.2,5.4 131,5 130.9,4.5 130.9,3.9 c 0,-0.6 0.1,-1.1 0.3,-1.5 0.2,-0.5 0.5,-0.9 1,-1.2 0.4,-0.3 0.9,-0.6 1.5,-0.8 0.6,-0.2 1.2,-0.3 2,-0.3 1,0 1.9,0.1 2.7,0.4 0.8,0.2 1.5,0.6 2.1,1 l -1.6,2.6 C 138.4,3.7 137.8,3.5 137.3,3.3 136.8,3.1 136.2,3 135.6,3 c -0.5,0 -0.8,0.1 -1,0.2 -0.2,0.1 -0.2,0.3 -0.2,0.5 0,0.1 0,0.2 0.1,0.3 0.1,0.1 0.2,0.2 0.3,0.2 0.1,0.1 0.4,0.1 0.6,0.2 0.3,0.1 0.6,0.2 1,0.2 0.8,0.2 1.4,0.4 2,0.6 0.5,0.2 1,0.5 1.4,0.8 0.4,0.3 0.6,0.7 0.8,1.1 0.2,0.4 0.3,0.9 0.3,1.5 -0.3,0.7 -0.5,1.3 -0.7,1.8 z"
         id="path12"
         inkscape:connector-curvature="0" /></g><g
       id="g40"><g
         id="g18"><path
           d="m 6.5,12.3 -2,-4 H 3.2 v 4 H 0 V 0.3 H 5.3 C 6,0.3 6.6,0.4 7.2,0.5 7.8,0.6 8.3,0.9 8.7,1.2 9.1,1.5 9.4,1.9 9.6,2.4 9.9,2.9 10,3.5 10,4.2 10,5.1 9.8,5.8 9.4,6.4 9,7 8.5,7.4 7.8,7.7 l 2.4,4.6 z M 6.4,3.4 C 6.2,3.1 5.8,3 5.2,3 h -2 v 2.6 h 2 C 5.7,5.6 6.1,5.5 6.4,5.3 6.6,5.1 6.7,4.7 6.7,4.3 6.7,3.9 6.6,3.6 6.4,3.4 Z"
           id="path16"
           inkscape:connector-curvature="0" /></g><g
         id="g22"><path
           d="m 12.2,12.3 v -12 h 9.1 V 3.1 H 15.4 V 4.7 H 19 v 2.7 h -3.5 v 2 h 6 v 2.8 h -9.3 z"
           id="path20"
           inkscape:connector-curvature="0" /></g><g
         id="g26"><path
           d="m 33.5,9.1 c -0.3,0.8 -0.7,1.4 -1.2,1.9 -0.5,0.5 -1.2,0.8 -2,1 -0.8,0.2 -1.7,0.3 -2.8,0.3 h -3.9 v -12 h 4.2 c 0.9,0 1.8,0.1 2.5,0.3 0.8,0.2 1.4,0.5 1.9,1 0.5,0.5 0.9,1.1 1.2,1.8 0.3,0.7 0.4,1.7 0.4,2.8 0.1,1.1 0,2.1 -0.3,2.9 z M 30.4,4.9 C 30.3,4.5 30.1,4.2 29.9,3.9 29.7,3.7 29.4,3.5 29,3.3 28.6,3.2 28.2,3.1 27.7,3.1 h -0.8 v 6.3 h 0.7 c 0.5,0 0.9,-0.1 1.3,-0.2 0.4,-0.1 0.7,-0.3 0.9,-0.5 0.2,-0.2 0.4,-0.6 0.5,-1 0.1,-0.4 0.2,-0.9 0.2,-1.5 0,-0.5 0,-0.9 -0.1,-1.3 z"
           id="path24"
           inkscape:connector-curvature="0" /></g><g
         id="g30"><path
           d="M 48,12.3 V 7.6 h -3.7 v 4.7 h -3.4 v -12 h 3.4 V 4.7 H 48 V 0.3 h 3.4 V 12.2 H 48 Z"
           id="path28"
           inkscape:connector-curvature="0" /></g><g
         id="g34"><path
           d="m 61.5,12.3 -0.6,-2.1 h -3.6 l -0.6,2.1 H 53.2 L 57.5,0.4 h 3.3 l 4.3,11.9 z M 59.8,6.7 C 59.7,6.3 59.6,6 59.5,5.7 59.4,5.4 59.3,5.2 59.3,4.9 59.2,4.7 59.2,4.5 59.1,4.3 59.1,4.1 59,3.9 59,3.7 c 0,0.3 0,0.5 -0.1,0.7 0,0.2 -0.1,0.4 -0.2,0.6 -0.1,0.2 -0.1,0.5 -0.2,0.8 -0.1,0.3 -0.2,0.6 -0.3,1 L 58,7.6 h 2 z"
           id="path32"
           inkscape:connector-curvature="0" /></g><g
         id="g38"><path
           d="m 71.3,3.2 v 9.1 H 68 V 3.2 H 64.7 V 0.3 h 10 v 2.9 z"
           id="path36"
           inkscape:connector-curvature="0" /></g></g><g
       id="g44"><path
         d="m 78.6,2 c -0.1,0.1 -0.1,0.3 -0.3,0.4 -0.1,0.1 -0.2,0.2 -0.4,0.3 -0.1,0.1 -0.3,0.1 -0.5,0.1 -0.2,0 -0.3,0 -0.5,-0.1 C 76.8,2.6 76.6,2.6 76.5,2.4 76.4,2.3 76.3,2.2 76.2,2 76.1,1.9 76.1,1.7 76.1,1.5 c 0,-0.2 0,-0.3 0.1,-0.5 0.1,-0.1 0.1,-0.3 0.3,-0.4 0.1,-0.1 0.2,-0.2 0.4,-0.3 0.1,-0.1 0.3,-0.1 0.5,-0.1 0.2,0 0.3,0 0.5,0.1 0.1,0.1 0.3,0.1 0.4,0.3 0.1,0.1 0.2,0.2 0.3,0.4 0.1,0.1 0.1,0.3 0.1,0.5 0,0.2 -0.1,0.3 -0.1,0.5 z M 78.4,1.1 C 78.4,1 78.3,0.9 78.2,0.8 78.1,0.7 78,0.6 77.9,0.6 c -0.1,0 -0.3,-0.1 -0.4,-0.1 -0.1,0 -0.3,0 -0.4,0.1 -0.1,0.1 -0.2,0.1 -0.3,0.2 -0.1,0.1 -0.2,0.2 -0.2,0.3 -0.1,0.1 -0.1,0.3 -0.1,0.4 0,0.1 0,0.3 0.1,0.4 0.1,0.1 0.1,0.2 0.2,0.3 0.1,0.1 0.2,0.2 0.3,0.2 0.1,0 0.3,0.1 0.4,0.1 0.1,0 0.3,0 0.4,-0.1 C 78,2.3 78.1,2.3 78.2,2.2 78.3,2.1 78.4,2 78.4,1.9 78.4,1.8 78.5,1.6 78.5,1.5 78.5,1.4 78.4,1.2 78.4,1.1 Z M 77.9,1.5 C 77.8,1.6 77.8,1.6 77.7,1.6 L 78,2.1 H 77.7 L 77.4,1.6 H 77.1 V 2.1 H 77 V 0.8 h 0.6 c 0.1,0 0.1,0 0.2,0 0.1,0 0.1,0 0.1,0.1 0,0.1 0,0.1 0.1,0.1 0,0 0,0.1 0,0.2 0,0.1 0,0.2 -0.1,0.3 z M 77.7,1.1 c 0,0 -0.1,0 -0.1,0 h -0.3 v 0.4 h 0.3 c 0.1,0 0.1,0 0.1,0 0,0 0.1,-0.1 0.1,-0.1 0,-0.2 0,-0.3 -0.1,-0.3 z"
         id="path42"
         inkscape:connector-curvature="0" /></g><g
       id="g48"><path
         d="m 145.1,2 c -0.1,0.1 -0.1,0.3 -0.3,0.4 -0.1,0.1 -0.2,0.2 -0.4,0.3 -0.1,0.1 -0.3,0.1 -0.5,0.1 -0.2,0 -0.3,0 -0.5,-0.1 -0.1,-0.1 -0.3,-0.1 -0.4,-0.3 -0.1,-0.1 -0.2,-0.2 -0.3,-0.4 -0.1,-0.1 -0.1,-0.3 -0.1,-0.5 0,-0.2 0,-0.3 0.1,-0.5 0.1,-0.1 0.1,-0.3 0.3,-0.4 0.1,-0.1 0.2,-0.2 0.4,-0.3 0.1,-0.1 0.3,-0.1 0.5,-0.1 0.2,0 0.3,0 0.5,0.1 0.1,0.1 0.3,0.1 0.4,0.3 0.1,0.1 0.2,0.2 0.3,0.4 0.1,0.1 0.1,0.3 0.1,0.5 0,0.2 0,0.3 -0.1,0.5 z m -0.2,-0.9 c 0,-0.1 -0.1,-0.2 -0.2,-0.3 -0.1,-0.1 -0.2,-0.2 -0.3,-0.2 -0.1,0 -0.3,-0.1 -0.4,-0.1 -0.1,0 -0.3,0 -0.4,0.1 -0.1,0.1 -0.2,0.1 -0.3,0.2 -0.1,0.1 -0.2,0.2 -0.2,0.3 0,0.1 -0.1,0.3 -0.1,0.4 0,0.1 0,0.3 0.1,0.4 0.1,0.1 0.1,0.2 0.2,0.3 0.1,0.1 0.2,0.2 0.3,0.2 0.1,0 0.3,0.1 0.4,0.1 0.1,0 0.3,0 0.4,-0.1 0.1,-0.1 0.2,-0.1 0.3,-0.2 0.1,-0.1 0.2,-0.2 0.2,-0.3 0,-0.1 0.1,-0.3 0.1,-0.4 0,-0.1 0,-0.3 -0.1,-0.4 z m -0.4,0.4 c 0,0.1 -0.1,0.1 -0.2,0.1 l 0.3,0.5 h -0.3 L 144,1.6 h -0.3 v 0.5 h -0.2 V 0.8 h 0.6 c 0.1,0 0.1,0 0.2,0 0.1,0 0.1,0 0.1,0.1 0,0 0.1,0.1 0.1,0.1 0,0 0,0.1 0,0.2 0,0.1 0,0.2 0,0.3 z m -0.2,-0.4 c 0,0 -0.1,0 -0.1,0 h -0.3 v 0.4 h 0.3 c 0.1,0 0.1,0 0.1,0 0,0 0.1,-0.1 0.1,-0.1 -0.1,-0.2 -0.1,-0.3 -0.1,-0.3 z"
         id="path46"
         inkscape:connector-curvature="0" /></g><g
       id="g58"><path
         d="m 153.3,2.6 v 2.3 h 3.6 v 2.4 h -3.6 v 5.1 h -2.4 V 0.2 h 8.6 v 2.4 z"
         id="path50"
         inkscape:connector-curvature="0" /><path
         d="m 170.1,11 c -0.9,1 -2.1,1.4 -3.6,1.4 -0.7,0 -1.4,-0.1 -2,-0.4 -0.6,-0.3 -1.1,-0.6 -1.5,-1.1 -0.4,-0.5 -0.8,-1 -1,-1.7 -0.2,-0.7 -0.4,-1.5 -0.4,-2.3 V 0.2 h 2.4 v 6.7 c 0,1 0.2,1.7 0.7,2.3 0.4,0.6 1,0.8 1.8,0.8 0.8,0 1.4,-0.3 1.8,-0.8 C 168.8,8.7 169,8 169,7 V 0.2 h 2.4 v 6.7 c 0,1.8 -0.4,3.2 -1.3,4.1 z"
         id="path52"
         inkscape:connector-curvature="0" /><path
         d="m 183,10.2 c -0.2,0.5 -0.5,0.9 -0.9,1.2 -0.4,0.3 -0.9,0.6 -1.5,0.8 -0.6,0.2 -1.3,0.3 -2.1,0.3 -1,0 -1.9,-0.2 -2.8,-0.6 -0.8,-0.4 -1.5,-0.9 -1.9,-1.6 l 1.7,-1.6 c 0.4,0.5 0.9,0.8 1.4,1.1 0.5,0.3 1.1,0.3 1.7,0.3 0.7,0 1.3,-0.1 1.6,-0.3 0.3,-0.2 0.5,-0.5 0.5,-1 0,-0.2 0,-0.4 -0.1,-0.5 C 180.5,8.2 180.4,8 180.2,7.9 180,7.8 179.7,7.7 179.4,7.5 179,7.4 178.6,7.3 178,7.1 177.4,7 176.9,6.8 176.5,6.7 176,6.5 175.6,6.3 175.3,6 175,5.7 174.7,5.4 174.5,5 c -0.2,-0.4 -0.3,-0.9 -0.3,-1.5 0,-0.6 0.1,-1 0.3,-1.5 0.2,-0.4 0.5,-0.8 0.9,-1.1 0.4,-0.3 0.8,-0.5 1.4,-0.7 0.5,-0.2 1.1,-0.2 1.7,-0.2 0.9,0 1.8,0.2 2.5,0.5 0.7,0.3 1.3,0.8 1.9,1.4 l -1.7,1.7 c -0.4,-0.4 -0.8,-0.7 -1.3,-0.9 -0.5,-0.2 -0.9,-0.3 -1.5,-0.3 -0.3,0 -0.6,0 -0.8,0.1 -0.2,0.1 -0.4,0.1 -0.5,0.2 -0.1,0.1 -0.2,0.2 -0.3,0.3 -0.1,0.1 -0.1,0.3 -0.1,0.4 0,0.2 0,0.4 0.1,0.5 0.1,0.1 0.2,0.2 0.4,0.4 0.2,0.1 0.4,0.2 0.7,0.3 0.3,0.1 0.7,0.2 1.2,0.3 0.5,0.1 1,0.2 1.4,0.4 0.5,0.2 0.9,0.4 1.3,0.6 0.4,0.3 0.7,0.6 0.9,1.1 0.2,0.4 0.4,1 0.4,1.6 0.2,0.6 0.1,1.1 -0.1,1.6 z"
         id="path54"
         inkscape:connector-curvature="0" /><path
         d="M 185.8,12.3 V 0.2 h 8.4 v 2.4 h -6 v 2.1 h 3.5 V 7 h -3.5 v 2.9 h 6.2 v 2.4 z"
         id="path56"
         inkscape:connector-curvature="0" /></g></g></svg>