<?xml version="1.0" encoding="utf-8"?>
<!-- Generator: Adobe Illustrator 19.2.1, SVG Export Plug-In . SVG Version: 6.00 Build 0)  -->
<svg version="1.1" id="Layer_1" xmlns="http://www.w3.org/2000/svg" xmlns:xlink="http://www.w3.org/1999/xlink" x="0px" y="0px"
	 width="44.3px" height="10.9px" viewBox="0 0 44.3 10.9" style="enable-background:new 0 0 44.3 10.9;" xml:space="preserve">
<style type="text/css">
	.st0{fill:#FFFFFF;}
</style>
<g>
	<g>
		<path class="st0" d="M0,10.8V0.2h2.1v10.6H0z"/>
		<path class="st0" d="M13,5.1c-0.2,0.4-0.5,0.8-0.8,1.1c-0.3,0.3-0.8,0.5-1.2,0.6C10.5,6.9,10,7,9.4,7H7.1v3.8H5V0.2h4.6
			c0.5,0,1,0.1,1.4,0.2c0.4,0.1,0.8,0.3,1.2,0.6c0.3,0.3,0.6,0.6,0.8,1.1s0.3,0.9,0.3,1.5C13.3,4.1,13.2,4.7,13,5.1z M10.7,2.6
			C10.4,2.3,10,2.2,9.6,2.2H7.1v2.7h2.5c1,0,1.5-0.5,1.5-1.4C11.1,3.1,11,2.8,10.7,2.6z"/>
		<path class="st0" d="M21.2,10.8l-0.8-2.4h-3.9l-0.8,2.4h-2.3l4.1-10.6h2.1l4,10.6H21.2z M19,4.5c-0.1-0.3-0.2-0.6-0.3-0.9
			c-0.1-0.3-0.2-0.5-0.2-0.7c-0.1,0.2-0.1,0.4-0.2,0.7c-0.1,0.3-0.2,0.6-0.3,0.9l-0.7,1.9h2.4L19,4.5z"/>
		<path class="st0" d="M32.6,10.8l-0.8-2.4h-3.9L27,10.8h-2.3l4.1-10.6h2.1l4,10.6H32.6z M30.4,4.5c-0.1-0.3-0.2-0.6-0.3-0.9
			c-0.1-0.3-0.2-0.5-0.2-0.7c-0.1,0.2-0.1,0.4-0.2,0.7c-0.1,0.3-0.2,0.6-0.3,0.9l-0.7,1.9H31L30.4,4.5z"/>
		<path class="st0" d="M44,8.9c-0.2,0.4-0.4,0.8-0.8,1.1c-0.3,0.3-0.8,0.5-1.3,0.7s-1.1,0.2-1.9,0.2c-0.9,0-1.7-0.2-2.4-0.5
			C37,10.1,36.4,9.6,36,9l1.5-1.4c0.4,0.4,0.8,0.7,1.2,0.9c0.5,0.2,0.9,0.3,1.5,0.3c0.6,0,1.1-0.1,1.4-0.3c0.3-0.2,0.4-0.5,0.4-0.9
			c0-0.2,0-0.3-0.1-0.4c-0.1-0.1-0.2-0.2-0.3-0.4c-0.2-0.1-0.4-0.2-0.7-0.3s-0.7-0.2-1.2-0.3c-0.5-0.1-0.9-0.2-1.3-0.4
			s-0.8-0.3-1.1-0.6s-0.5-0.5-0.7-0.9c-0.2-0.4-0.2-0.8-0.2-1.3c0-0.5,0.1-0.9,0.3-1.3s0.5-0.7,0.8-1c0.3-0.3,0.7-0.5,1.2-0.6
			s1-0.2,1.5-0.2c0.8,0,1.6,0.1,2.2,0.4c0.6,0.3,1.2,0.7,1.7,1.2l-1.5,1.5c-0.3-0.4-0.7-0.6-1.1-0.8c-0.4-0.2-0.8-0.3-1.3-0.3
			c-0.3,0-0.5,0-0.7,0.1c-0.2,0.1-0.3,0.1-0.5,0.2s-0.2,0.2-0.3,0.3c-0.1,0.1-0.1,0.2-0.1,0.3c0,0.2,0,0.3,0.1,0.4
			c0.1,0.1,0.2,0.2,0.3,0.3c0.2,0.1,0.4,0.2,0.7,0.3c0.3,0.1,0.6,0.2,1,0.3c0.4,0.1,0.8,0.2,1.3,0.4c0.4,0.1,0.8,0.3,1.1,0.6
			c0.3,0.2,0.6,0.5,0.8,0.9c0.2,0.4,0.3,0.8,0.3,1.4C44.3,8.1,44.2,8.5,44,8.9z"/>
	</g>
</g>
</svg>
