<?xml version="1.0" encoding="utf-8"?>
<!-- Generator: Adobe Illustrator 19.2.1, SVG Export Plug-In . SVG Version: 6.00 Build 0)  -->
<svg version="1.1" id="Layer_1" xmlns="http://www.w3.org/2000/svg" xmlns:xlink="http://www.w3.org/1999/xlink" x="0px" y="0px"
	 width="72.5px" height="17.9px" viewBox="0 0 72.5 17.9" style="enable-background:new 0 0 72.5 17.9;" xml:space="preserve">
<style type="text/css">
	.st0{fill:#FFFFFF;}
</style>
<g>
	<g>
		<path class="st0" d="M0,17.6V0.3h3.4v17.3H0z"/>
		<path class="st0" d="M21.3,8.4c-0.3,0.7-0.8,1.3-1.3,1.8c-0.6,0.5-1.2,0.8-2,1c-0.8,0.2-1.6,0.3-2.5,0.3h-3.8v6.1H8.2V0.3h7.6
			c0.8,0,1.6,0.1,2.3,0.3c0.7,0.2,1.4,0.6,1.9,1c0.5,0.5,1,1,1.3,1.7c0.3,0.7,0.5,1.5,0.5,2.4C21.7,6.8,21.6,7.6,21.3,8.4z
			 M17.5,4.2c-0.5-0.4-1.1-0.5-1.9-0.5h-4v4.4h4.1c1.7,0,2.5-0.7,2.5-2.2C18.2,5.1,17.9,4.5,17.5,4.2z"/>
		<path class="st0" d="M34.7,17.6l-1.4-3.9H27l-1.4,3.9H22l6.6-17.3H32l6.6,17.3H34.7z M31.1,7.3c-0.2-0.5-0.4-1-0.5-1.5
			c-0.2-0.5-0.3-0.9-0.4-1.2c-0.1,0.3-0.2,0.7-0.4,1.2c-0.2,0.5-0.3,1-0.5,1.5l-1.1,3.1h4L31.1,7.3z"/>
		<path class="st0" d="M53.3,17.6L52,13.8h-6.3l-1.4,3.9h-3.7l6.6-17.3h3.4l6.6,17.3H53.3z M49.7,7.3c-0.2-0.5-0.4-1-0.5-1.5
			c-0.2-0.5-0.3-0.9-0.4-1.2c-0.1,0.3-0.2,0.7-0.4,1.2c-0.2,0.5-0.3,1-0.5,1.5l-1.1,3.1h4L49.7,7.3z"/>
		<path class="st0" d="M72.1,14.6c-0.3,0.7-0.7,1.3-1.2,1.7s-1.3,0.9-2.1,1.1c-0.9,0.3-1.9,0.4-3.1,0.4c-1.5,0-2.8-0.3-4-0.8
			s-2.1-1.3-2.8-2.3l2.5-2.2c0.6,0.7,1.3,1.2,2,1.5s1.5,0.5,2.4,0.5c1,0,1.8-0.1,2.3-0.4c0.5-0.3,0.7-0.8,0.7-1.4
			c0-0.3,0-0.5-0.1-0.7c-0.1-0.2-0.3-0.4-0.6-0.6c-0.3-0.2-0.7-0.4-1.2-0.5c-0.5-0.2-1.2-0.3-2-0.5c-0.8-0.2-1.5-0.4-2.2-0.6
			c-0.7-0.2-1.2-0.6-1.7-0.9c-0.5-0.4-0.9-0.9-1.1-1.4c-0.3-0.6-0.4-1.3-0.4-2.2c0-0.8,0.2-1.5,0.5-2.1c0.3-0.6,0.8-1.2,1.3-1.6
			c0.6-0.4,1.2-0.8,2-1S64.9,0,65.8,0c1.4,0,2.5,0.2,3.6,0.7s1.9,1.2,2.8,2l-2.5,2.4c-0.6-0.6-1.2-1-1.8-1.3
			c-0.6-0.3-1.4-0.5-2.1-0.5c-0.5,0-0.9,0-1.2,0.1c-0.3,0.1-0.6,0.2-0.8,0.4s-0.3,0.3-0.4,0.5S63.2,4.8,63.2,5
			c0,0.3,0.1,0.5,0.2,0.7c0.1,0.2,0.3,0.4,0.6,0.5c0.3,0.1,0.6,0.3,1.1,0.4s1,0.3,1.7,0.4s1.4,0.4,2.1,0.6s1.3,0.5,1.9,0.9
			c0.6,0.4,1,0.9,1.4,1.5c0.3,0.6,0.5,1.4,0.5,2.3C72.5,13.2,72.3,14,72.1,14.6z"/>
	</g>
</g>
</svg>
