<?xml version="1.0" encoding="utf-8"?>
<!-- Generator: Adobe Illustrator 19.2.1, SVG Export Plug-In . SVG Version: 6.00 Build 0)  -->
<svg version="1.1" id="Layer_1" xmlns="http://www.w3.org/2000/svg" xmlns:xlink="http://www.w3.org/1999/xlink" x="0px" y="0px"
	 width="191.6px" height="17.9px" viewBox="0 0 191.6 17.9" style="enable-background:new 0 0 191.6 17.9;" xml:space="preserve">
<style type="text/css">
	.st0{fill:#FFFFFF;}
</style>
<g>
	<g>
		<g>
			<path class="st0" d="M9.4,17.6l-2.8-5.8H4.7v5.8H0V0.5h7.7c1,0,1.9,0.1,2.7,0.3c0.8,0.2,1.5,0.5,2.1,1c0.6,0.4,1,1,1.4,1.7
				C14.2,4.2,14.4,5,14.4,6c0,1.3-0.3,2.3-0.8,3.2c-0.6,0.8-1.3,1.4-2.3,1.9l3.4,6.5H9.4z M9.2,4.8C8.8,4.5,8.3,4.3,7.5,4.3H4.7v3.8
				h2.8c0.8,0,1.3-0.2,1.7-0.5c0.3-0.3,0.5-0.8,0.5-1.4C9.6,5.6,9.5,5.2,9.2,4.8z"/>
		</g>
		<g>
			<path class="st0" d="M17.5,17.6V0.5h13.1v4h-8.4v2.3h5.1v3.9h-5.1v2.9h8.6v4H17.5z"/>
		</g>
		<g>
			<path class="st0" d="M48.1,13c-0.4,1.1-1,2-1.8,2.7c-0.8,0.7-1.8,1.2-2.9,1.5c-1.2,0.3-2.5,0.5-4,0.5h-5.6V0.5h6
				c1.3,0,2.6,0.1,3.7,0.4c1.1,0.3,2,0.7,2.8,1.4c0.8,0.7,1.3,1.5,1.8,2.6c0.4,1.1,0.6,2.4,0.6,4C48.7,10.6,48.5,11.9,48.1,13z
				 M43.6,7c-0.1-0.6-0.4-1-0.7-1.4c-0.3-0.4-0.7-0.6-1.2-0.8c-0.5-0.2-1.1-0.3-1.9-0.3h-1.2v9h1c0.7,0,1.4-0.1,1.9-0.2
				c0.5-0.2,1-0.4,1.3-0.8c0.3-0.4,0.6-0.8,0.7-1.4c0.1-0.6,0.2-1.3,0.2-2.1C43.8,8.2,43.8,7.5,43.6,7z"/>
		</g>
		<g>
			<path class="st0" d="M68.9,17.6v-6.8h-5.3v6.8h-4.9V0.5h4.9v6.3h5.3V0.5h4.9v17.2H68.9z"/>
		</g>
		<g>
			<path class="st0" d="M88.3,17.6l-0.9-3h-5.1l-0.9,3h-5.1l6.2-17.2h4.8l6.2,17.2H88.3z M85.9,9.7c-0.2-0.6-0.3-1-0.4-1.4
				c-0.1-0.4-0.2-0.8-0.3-1.1C85.1,6.8,85,6.5,85,6.3c-0.1-0.3-0.1-0.5-0.2-0.8c0,0.3-0.1,0.6-0.2,0.9c-0.1,0.3-0.1,0.6-0.2,0.9
				c-0.1,0.3-0.2,0.7-0.3,1.1c-0.1,0.4-0.2,0.9-0.4,1.4l-0.3,1.1h2.8L85.9,9.7z"/>
		</g>
		<g>
			<path class="st0" d="M102.4,4.6v13h-4.8v-13h-4.8V0.5h14.4v4.1H102.4z"/>
		</g>
	</g>
	<g>
		<path class="st0" d="M112.8,2.8c-0.1,0.2-0.2,0.4-0.4,0.5c-0.2,0.2-0.3,0.3-0.5,0.4c-0.2,0.1-0.4,0.1-0.7,0.1
			c-0.2,0-0.5,0-0.7-0.1c-0.2-0.1-0.4-0.2-0.5-0.4c-0.2-0.2-0.3-0.3-0.4-0.5c-0.1-0.2-0.1-0.4-0.1-0.7c0-0.2,0-0.5,0.1-0.7
			c0.1-0.2,0.2-0.4,0.4-0.5c0.2-0.2,0.3-0.3,0.5-0.4c0.2-0.1,0.4-0.1,0.7-0.1c0.2,0,0.5,0,0.7,0.1c0.2,0.1,0.4,0.2,0.5,0.4
			c0.2,0.2,0.3,0.3,0.4,0.5c0.1,0.2,0.1,0.4,0.1,0.7C113,2.4,112.9,2.6,112.8,2.8z M112.6,1.6c-0.1-0.2-0.2-0.3-0.3-0.5
			c-0.1-0.1-0.3-0.2-0.5-0.3c-0.2-0.1-0.4-0.1-0.6-0.1c-0.2,0-0.4,0-0.6,0.1c-0.2,0.1-0.3,0.2-0.5,0.3c-0.1,0.1-0.2,0.3-0.3,0.5
			c-0.1,0.2-0.1,0.4-0.1,0.6c0,0.2,0,0.4,0.1,0.6c0.1,0.2,0.2,0.3,0.3,0.5c0.1,0.1,0.3,0.2,0.5,0.3c0.2,0.1,0.4,0.1,0.6,0.1
			c0.2,0,0.4,0,0.6-0.1c0.2-0.1,0.3-0.2,0.5-0.3c0.1-0.1,0.2-0.3,0.3-0.5c0.1-0.2,0.1-0.4,0.1-0.6C112.7,2,112.6,1.8,112.6,1.6z
			 M111.9,2.1c-0.1,0.1-0.2,0.2-0.3,0.2l0.4,0.8h-0.4l-0.4-0.7h-0.4v0.7h-0.3V1.2h0.8c0.1,0,0.2,0,0.2,0c0.1,0,0.1,0.1,0.2,0.1
			c0.1,0,0.1,0.1,0.1,0.2c0,0.1,0,0.2,0,0.3C112,1.9,112,2,111.9,2.1z M111.6,1.6c-0.1,0-0.1-0.1-0.2-0.1h-0.5V2h0.5
			c0.1,0,0.2,0,0.2-0.1c0.1,0,0.1-0.1,0.1-0.2C111.7,1.7,111.7,1.6,111.6,1.6z"/>
	</g>
	<g>
		<path class="st0" d="M119.1,17.6V0.3h3.4v17.3H119.1z"/>
		<path class="st0" d="M140.4,8.4c-0.3,0.7-0.8,1.3-1.3,1.8c-0.6,0.5-1.2,0.8-2,1c-0.8,0.2-1.6,0.3-2.5,0.3h-3.8v6.1h-3.4V0.3h7.6
			c0.8,0,1.6,0.1,2.3,0.3s1.4,0.6,1.9,1c0.5,0.5,1,1,1.3,1.7c0.3,0.7,0.5,1.5,0.5,2.4C140.9,6.8,140.7,7.6,140.4,8.4z M136.6,4.2
			c-0.5-0.4-1.1-0.5-1.9-0.5h-4v4.4h4.1c1.7,0,2.5-0.7,2.5-2.2C137.3,5.1,137.1,4.5,136.6,4.2z"/>
		<path class="st0" d="M153.9,17.6l-1.4-3.9h-6.3l-1.4,3.9h-3.7l6.6-17.3h3.4l6.6,17.3H153.9z M150.2,7.3c-0.2-0.5-0.4-1-0.5-1.5
			c-0.2-0.5-0.3-0.9-0.4-1.2c-0.1,0.3-0.2,0.7-0.4,1.2c-0.2,0.5-0.3,1-0.5,1.5l-1.1,3.1h4L150.2,7.3z"/>
		<path class="st0" d="M172.5,17.6l-1.4-3.9h-6.3l-1.4,3.9h-3.7l6.6-17.3h3.4l6.6,17.3H172.5z M168.8,7.3c-0.2-0.5-0.4-1-0.5-1.5
			c-0.2-0.5-0.3-0.9-0.4-1.2c-0.1,0.3-0.2,0.7-0.4,1.2c-0.2,0.5-0.3,1-0.5,1.5l-1.1,3.1h4L168.8,7.3z"/>
		<path class="st0" d="M191.2,14.6c-0.3,0.7-0.7,1.3-1.2,1.7s-1.3,0.9-2.1,1.1c-0.9,0.3-1.9,0.4-3.1,0.4c-1.5,0-2.8-0.3-4-0.8
			s-2.1-1.3-2.8-2.3l2.5-2.2c0.6,0.7,1.3,1.2,2,1.5s1.5,0.5,2.4,0.5c1,0,1.8-0.1,2.3-0.4s0.7-0.8,0.7-1.4c0-0.3,0-0.5-0.1-0.7
			s-0.3-0.4-0.6-0.6c-0.3-0.2-0.7-0.4-1.2-0.5c-0.5-0.2-1.2-0.3-2-0.5c-0.8-0.2-1.5-0.4-2.2-0.6c-0.7-0.2-1.2-0.6-1.7-0.9
			c-0.5-0.4-0.9-0.9-1.1-1.4c-0.3-0.6-0.4-1.3-0.4-2.2c0-0.8,0.2-1.5,0.5-2.1c0.3-0.6,0.8-1.2,1.3-1.6c0.6-0.4,1.2-0.8,2-1
			c0.8-0.2,1.6-0.3,2.4-0.3c1.4,0,2.5,0.2,3.6,0.7c1,0.5,1.9,1.2,2.8,2l-2.5,2.4c-0.6-0.6-1.2-1-1.8-1.3c-0.6-0.3-1.4-0.5-2.1-0.5
			c-0.5,0-0.9,0-1.2,0.1c-0.3,0.1-0.6,0.2-0.8,0.4s-0.3,0.3-0.4,0.5c-0.1,0.2-0.1,0.4-0.1,0.6c0,0.3,0.1,0.5,0.2,0.7
			c0.1,0.2,0.3,0.4,0.6,0.5c0.3,0.1,0.6,0.3,1.1,0.4s1,0.3,1.7,0.4s1.4,0.4,2.1,0.6s1.3,0.5,1.9,0.9c0.6,0.4,1,0.9,1.4,1.5
			c0.3,0.6,0.5,1.4,0.5,2.3C191.6,13.2,191.5,14,191.2,14.6z"/>
	</g>
</g>
</svg>
