<svg id="Layer_1" data-name="Layer 1" xmlns="http://www.w3.org/2000/svg" viewBox="0 0 250 84"><defs><style>.cls-1{fill:#fff;}</style></defs><title>RH_Logo_FuseOnlineTechPreview_RGB_White</title><path class="cls-1" d="M23.86 27.18l-2.74-5.66h-1.87v5.66h-4.58v-16.8h7.51c3.94 0 6.55 1.49 6.55 5.47a5 5 0 0 1-3 4.92l3.36 6.41zm-1.8-13h-2.81v3.67H22c1.51 0 2.11-.67 2.11-1.87s-.59-1.81-2.05-1.81zM32.57 27.18v-16.8h12.87v3.91h-8.26v2.23h5v3.86h-5v2.88h8.42v3.91zM54.75 27.18H49.3v-16.8h5.88c5.28 0 8.64 2 8.64 8.3s-3.12 8.5-9.07 8.5zm.41-12.82H54v8.84h1c2.9 0 4-1.1 4-4.44 0-3.1-.94-4.39-3.85-4.39zM86 27.18v-6.62h-5.26v6.62H76v-16.8h4.75v6.12H86v-6.12h4.75v16.8zM105.7 27.18l-.91-3h-5l-.91 3h-5l6.1-16.8h4.7l6.1 16.8zm-2.35-7.75c-.6-2.16-.86-3.07-1.08-4.2-.22 1.13-.48 2.06-1.08 4.2l-.31 1.1h2.78zM120.24 14.44v12.74h-4.66V14.44h-4.71v-4.06h14.07v4.06zM129.18 14.6a2.16 2.16 0 1 1 2.17-2.16 2.12 2.12 0 0 1-2.17 2.16zm0-4a1.82 1.82 0 1 0 1.82 1.83 1.78 1.78 0 0 0-1.82-1.81zm.49 2l.49 1h-.47l-.46-.91h-.46v.91h-.4v-2.39h1a.69.69 0 0 1 .77.71.67.67 0 0 1-.47.7zm-.28-1h-.62v.67h.62c.22 0 .38-.1.38-.34a.33.33 0 0 0-.39-.33zM17.47 34.54v8.35h6.91v2.56h-6.91v11.73h-2.8V32h14.79v2.56zM43.32 57.58c-6 0-9.11-3.64-9.11-10.62V32H37v14.9c0 5.42 2.11 8.1 6.46 8.1s6.09-2.6 6.09-8V32h2.81v14.9c0 6.97-2.99 10.68-9.04 10.68zM65.93 57.58a12 12 0 0 1-8.46-3.49L59.34 52A9.57 9.57 0 0 0 66 55c3.35 0 5.43-1.66 5.43-4.32 0-2.34-1.4-3.67-6-5.33-5.43-1.92-7.24-3.68-7.24-7.35 0-4 3.17-6.44 7.88-6.44a11.28 11.28 0 0 1 7.67 2.7l-1.8 2.2a8.77 8.77 0 0 0-6-2.34c-3.46 0-4.9 1.73-4.9 3.71s.94 3.28 6 5.08c5.58 2 7.31 3.89 7.31 7.63-.07 3.98-3.17 7.04-8.42 7.04zM80.11 57.18V32h15.23v2.56H82.92v7.92h7.2V45h-7.2v9.61h13v2.56zM119.93 57.58c-6.26 0-10.4-5.36-10.4-13s4.21-13 10.47-13 10.44 5.36 10.44 13-4.25 13-10.51 13zm0-23.43c-4.36 0-7.56 4.07-7.56 10.4S115.64 55 120 55s7.6-4.07 7.6-10.4-3.32-10.45-7.71-10.45zM151.5 57.18l-11-17.24c-.54-.86-1.48-2.52-1.8-3.17v20.41H136V32h2.74l10.91 17.57c.54.86 1.48 2.52 1.8 3.17V32h2.7v25.2zM160.75 57.18V32h2.81v22.63H176v2.56zM181.63 57.18V32h2.81v25.2zM206.76 57.18l-11-17.24c-.54-.86-1.48-2.52-1.8-3.17v20.41h-2.7V32H194l10.91 17.57c.54.86 1.48 2.52 1.8 3.17V32h2.7v25.2zM216 57.18V32h15.23v2.56h-12.41v7.92H226V45h-7.2v9.61h13v2.56zM19.44 64.43v10.75h-1.89V64.43h-3.67v-1.85h9.24v1.85zM30.78 71.11h-6.25c.2 1.82 1.22 2.59 2.38 2.59A3.31 3.31 0 0 0 29 73l1.1 1.19a4.4 4.4 0 0 1-3.26 1.24c-2.21 0-4.09-1.78-4.09-4.92s1.69-4.93 4.14-4.93c2.68 0 4 2.18 4 4.74-.06.29-.1.6-.11.79zm-4.05-3.91c-1.24 0-2 .86-2.16 2.38H29c-.13-1.29-.74-2.37-2.27-2.37zM39.07 68.45a3.11 3.11 0 0 0-2.3-1.15c-1.35 0-2.21 1.21-2.21 3.13s.79 3.19 2.27 3.19A2.78 2.78 0 0 0 39 72.45l1.19 1.17a4 4 0 0 1-3.38 1.76c-2.3 0-4.09-1.94-4.09-4.9 0-3.13 1.84-5 4.14-5a4.18 4.18 0 0 1 3.35 1.6zM48.27 75.18v-5.35c0-1.91-.72-2.59-1.95-2.59s-1.94.88-1.94 2.41v5.53h-1.85V63l1.85-1v4.57a2.9 2.9 0 0 1 2.38-1.1c2.2 0 3.37 1.44 3.37 4.23v5.42zM58.53 75.18v-5.35c0-1.91-.72-2.59-1.95-2.59s-1.94.88-1.94 2.41v5.53h-1.85v-9.45h1.85v.9a2.9 2.9 0 0 1 2.36-1.1c2.2 0 3.37 1.44 3.37 4.23v5.42zM64.07 64.51a1.2 1.2 0 1 1 1.19-1.19 1.2 1.2 0 0 1-1.19 1.19zm-.94 10.68v-9.46H65v9.45zM73.76 68.45a3.11 3.11 0 0 0-2.3-1.15c-1.35 0-2.21 1.21-2.21 3.13s.79 3.19 2.27 3.19a2.78 2.78 0 0 0 2.14-1.17l1.19 1.17a4 4 0 0 1-3.38 1.76c-2.3 0-4.09-1.94-4.09-4.9 0-3.13 1.84-5 4.14-5a4.18 4.18 0 0 1 3.35 1.6zM82.33 75.18v-.94a3.72 3.72 0 0 1-2.59 1.13 3 3 0 0 1-3.28-3.19c0-2.11 1.62-3.06 3.76-3.06a5.21 5.21 0 0 1 2.11.36v-.7c0-1-.63-1.6-1.78-1.6a4.77 4.77 0 0 0-2.47.59l-.72-1.4a5.87 5.87 0 0 1 3.24-.85c2.11 0 3.55 1 3.55 3.17v6.48zm0-4a4.67 4.67 0 0 0-2.16-.41c-1.19 0-1.94.54-1.94 1.4s.59 1.57 1.82 1.57a3 3 0 0 0 2.29-1.21zM86.9 75.18V63l1.86-1v13.18zM101.85 70.48h-3.29v4.7h-1.85v-12.6H102a3.71 3.71 0 0 1 4 3.94c0 2.6-1.7 3.96-4.15 3.96zm.09-6.12h-3.38v4.34h3.38a2 2 0 0 0 2.16-2.18 2 2 0 0 0-2.16-2.16zM113.32 67.69a2.77 2.77 0 0 0-1.42-.34c-1.17 0-1.85.83-1.85 2.43v5.4h-1.85v-9.45h1.8v.9a2.62 2.62 0 0 1 2.16-1.1 2.72 2.72 0 0 1 1.6.4zM122.88 71.11h-6.25c.2 1.82 1.22 2.59 2.38 2.59a3.32 3.32 0 0 0 2.05-.76l1.1 1.19a4.4 4.4 0 0 1-3.26 1.24c-2.21 0-4.09-1.78-4.09-4.92s1.69-4.93 4.14-4.93c2.68 0 4 2.18 4 4.74a8.47 8.47 0 0 1-.07.85zm-4.05-3.91c-1.24 0-2 .86-2.16 2.38h4.39c-.06-1.29-.7-2.37-2.23-2.37zM129.31 75.18h-1.85l-3.39-9.45H126l1.69 5.13c.31.92.58 1.8.7 2.32.11-.52.36-1.4.65-2.32l1.62-5.13h2zM135.62 64.51a1.2 1.2 0 1 1 1.19-1.19 1.2 1.2 0 0 1-1.19 1.19zm-.94 10.68v-9.46h1.86v9.45zM147 71.11h-6.25c.2 1.82 1.22 2.59 2.38 2.59a3.32 3.32 0 0 0 2.05-.76l1.1 1.19a4.4 4.4 0 0 1-3.28 1.25c-2.21 0-4.09-1.78-4.09-4.92s1.69-4.93 4.14-4.93c2.68 0 4 2.18 4 4.74a8.47 8.47 0 0 1-.05.84zm-4.05-3.91c-1.24 0-2 .86-2.16 2.38h4.39c-.11-1.29-.72-2.37-2.25-2.37zM157.6 75.18H156l-1.28-4.77c-.2-.72-.4-1.57-.49-2-.09.45-.29 1.31-.49 2l-1.26 4.75h-1.58l-2.59-9.45h1.84l1.12 4.59c.18.72.38 1.62.47 2.07.11-.47.32-1.33.52-2.07l1.26-4.59H155l1.28 4.61c.2.74.4 1.58.5 2.05.11-.47.29-1.35.47-2.07l1.12-4.59h1.84z"/></svg>