<?xml version="1.0" encoding="utf-8"?>
<!-- Generator: Adobe Illustrator 19.1.0, SVG Export Plug-In . SVG Version: 6.00 Build 0)  -->
<svg version="1.1" xmlns="http://www.w3.org/2000/svg" xmlns:xlink="http://www.w3.org/1999/xlink" x="0px" y="0px"
	 viewBox="0 0 246 300" style="enable-background:new 0 0 246 300;" xml:space="preserve">
<style type="text/css">
	.st0{fill:#832EAB;}
	.st1{fill:#C32265;}
	.st2{fill:#00AEEF;}
	.st3{fill:none;}
	.st4{fill:#8DC63F;}
	.st5{fill:#0F9BD7;}
	.st6{fill:#FFFFFF;}
	.st7{fill-rule:evenodd;clip-rule:evenodd;fill:#FFFFFF;}
	.st8{fill:#1DA1F2;}
	.st9{fill:#3D5A98;}
	.st10{fill:#231F20;}
	.st11{fill:#007BB5;}
	.st12{fill:#DC4E41;}
	.st13{fill-rule:evenodd;clip-rule:evenodd;fill:#181616;}
	.st14{fill:#181616;}
	.st15{fill:#F2F2F2;}
	.st16{fill:#E3E3E3;}
	.st17{fill:#D54B3D;}
	.st18{fill:#D72B27;}
	.st19{opacity:0.56;fill:url(#SVGID_1_);}
	.st20{fill:#BABABA;}
	.st21{fill:#92D400;}
	.st22{fill:#00B9E4;}
	.st23{fill:#2B3990;}
	.st24{fill:#3F9C35;}
	.st25{fill:#8FCED8;}
	.st26{fill:#D21F21;}
	.st27{fill:#009444;}
	.st28{fill:#4FE89C;}
	.st29{fill:#D6D6D6;}
	.st30{fill:#F1F1F1;}
	.st31{fill:#8C3123;}
	.st32{fill:#E05243;}
	.st33{fill:#5E1F18;}
	.st34{fill:#F2B0A9;}
	.st35{fill:#CACCCE;}
	.st36{fill:#A1AFDB;}
	.st37{fill:#002087;}
	.st38{fill:#6C4199;}
	.st39{fill:#C7C7C7;}
	.st40{fill:#1976D2;}
	.st41{fill:#1E88E5;}
	.st42{fill:#FAFAFA;}
	.st43{fill:#E0E0E0;}
	.st44{fill:#F6A11F;}
	.st45{fill:#0A6DAE;}
	.st46{fill:#0BA25E;}
	.st47{fill:#089156;}
	.st48{fill:#10985B;}
	.st49{fill:#F9C941;}
	.st50{fill:#E8B835;}
	.st51{fill:#296AD9;}
	.st52{fill:#2A71E9;}
	.st53{fill:#286EE6;}
	.st54{fill:#BCBEC0;}
	.st55{fill:#FFFFFF;stroke:#231F20;stroke-width:10;stroke-linecap:round;stroke-linejoin:round;stroke-miterlimit:10;}
	.st56{fill:#00AEEF;stroke:#231F20;stroke-width:10;stroke-linecap:round;stroke-linejoin:round;stroke-miterlimit:10;}
	.st57{fill:#231F20;stroke:#231F20;stroke-width:10;stroke-linecap:round;stroke-linejoin:round;stroke-miterlimit:10;}
	.st58{fill:none;stroke:#231F20;stroke-width:10;stroke-miterlimit:10;}
	.st59{fill:none;stroke:#231F20;stroke-width:10;stroke-linejoin:round;stroke-miterlimit:10;}
	.st60{fill:none;stroke:#231F20;stroke-width:9.5201;stroke-linecap:round;stroke-linejoin:round;stroke-miterlimit:10;}
	.st61{fill:none;stroke:#231F20;stroke-width:7.8079;stroke-linecap:round;stroke-linejoin:round;stroke-miterlimit:10;}
	.st62{fill:#D1D3D4;}
	.st63{fill:url(#SVGID_2_);}
	.st64{fill:url(#SVGID_3_);}
	.st65{fill:url(#SVGID_4_);}
	.st66{fill:url(#SVGID_5_);}
	.st67{fill:url(#SVGID_6_);}
	.st68{fill:url(#SVGID_7_);}
	.st69{fill:#00A79D;}
	.st70{fill:#4E376B;}
	.st71{fill:#004981;}
	.st72{fill:#106599;}
	.st73{fill:#1E78AF;}
	.st74{fill:#4396C9;}
	.st75{fill:#63AAD6;}
	.st76{fill:#B8DDF4;}
	.st77{fill:#1F8893;}
	.st78{fill:none;stroke:#000000;stroke-width:6.3625;stroke-linecap:round;stroke-linejoin:round;stroke-miterlimit:10;}
	.st79{fill:#FFFFFF;stroke:#000000;stroke-width:5.3826;stroke-linejoin:round;stroke-miterlimit:10;}
	.st80{fill:#42BCBC;stroke:#000000;stroke-width:6.2798;stroke-linejoin:round;stroke-miterlimit:10;}
	.st81{fill:none;stroke:#000000;stroke-width:5.3826;stroke-linecap:round;stroke-linejoin:round;stroke-miterlimit:10;}
	.st82{fill:none;stroke:#000000;stroke-width:3.1813;stroke-linecap:round;stroke-linejoin:round;stroke-miterlimit:10;}
</style>
<g id="Layer_1">
	<g>
		<path class="st10" d="M152.1,166.2H24.7c-2.1,0-3.7-1.7-3.7-3.7c0-2.1,1.7-3.7,3.7-3.7h127.4c2.1,0,3.7,1.7,3.7,3.7
			C155.8,164.5,154.1,166.2,152.1,166.2z"/>
		<path class="st10" d="M152.7,194.1h-128c-2.1,0-3.7-1.7-3.7-3.7c0-2.1,1.7-3.7,3.7-3.7h128c2.1,0,3.7,1.7,3.7,3.7
			C156.4,192.4,154.8,194.1,152.7,194.1z"/>
		<g>
			<path class="st2" d="M31.1,16.2c0.9,7.1,4.6,14,5.6,15.8c0.9,1.6,2.6,2.5,4.3,2.5c0.8,0,1.7-0.2,2.4-0.7c2.4-1.4,3.2-4.4,1.9-6.8
				c-1.6-2.8-3.4-7.2-4.2-10.8h113c0.9,7.1,4.6,14,5.6,15.8c0.9,1.6,2.6,2.5,4.3,2.5c0.8,0,1.7-0.2,2.4-0.7c2.4-1.4,3.2-4.4,1.9-6.8
				c-1.6-2.8-3.4-7.2-4.2-10.8h33.5V44H7.4V16.2H31.1z"/>
			<path class="st10" d="M36.8,40.6c1.4,0.5,2.8,0.8,4.2,0.8c1.7,0,3.3-0.4,4.9-1.1c2.9-1.3,5.1-3.7,6.2-6.7c1.1-3,1-6.2-0.3-9.1
				c-0.8-1.7-2-3.2-3.6-4.5c-1.1-0.8-2.6-0.7-3.5,0.4c-0.8,1.1-0.7,2.6,0.4,3.5c1,0.8,1.7,1.6,2.1,2.6c0.8,1.7,0.8,3.6,0.2,5.3
				c-0.7,1.7-2,3.1-3.6,3.9c-1.7,0.8-3.6,0.8-5.3,0.2c-1.7-0.7-3.1-2-3.9-3.7c-0.5-1-0.6-2.1-0.6-3.3c0.1-1.4-1-2.5-2.3-2.6
				c-1.4-0.1-2.5,1-2.6,2.3c-0.1,2,0.2,3.9,1,5.6C31.4,37.3,33.8,39.5,36.8,40.6z"/>
			<path class="st10" d="M159.8,40.6c1.4,0.5,2.8,0.8,4.2,0.8c1.7,0,3.3-0.4,4.9-1.1c2.9-1.3,5.1-3.7,6.2-6.7c1.1-3,1-6.2-0.3-9.1
				c-0.8-1.7-2-3.2-3.6-4.5c-1.1-0.8-2.6-0.7-3.5,0.4c-0.8,1.1-0.6,2.6,0.4,3.5c1,0.7,1.7,1.6,2.1,2.6c0.8,1.7,0.8,3.6,0.2,5.3
				c-0.7,1.7-2,3.1-3.6,3.9c-1.7,0.8-3.6,0.8-5.3,0.2c-1.7-0.7-3.1-2-3.9-3.7c-0.5-1-0.6-2.1-0.6-3.3c0.1-1.4-1-2.5-2.3-2.6
				c-1.4-0.1-2.5,1-2.6,2.3c-0.1,2,0.2,3.9,1,5.7C154.5,37.3,156.9,39.5,159.8,40.6z"/>
			<path class="st10" d="M244.5,18.1L218.3,6.8c-0.6-0.3-1.3-0.3-1.9,0c-0.6,0.2-1.1,0.7-1.4,1.3l-3.9,9L204,9.8
				c-0.3-0.3-0.8-0.6-1.2-0.8c-0.5-0.2-0.9-0.3-1.4-0.3h-26.9c-0.6-2.2-2-5.8-5.1-7.6c-2.1-1.2-4.5-1.4-6.9-0.7
				c-3.6,1.2-6.3,3.7-7.6,7.2c-0.1,0.4-0.2,0.7-0.3,1.1H51.4c-0.6-2.2-2-5.8-5.1-7.6c-2.1-1.2-4.5-1.4-6.9-0.7
				c-3.6,1.2-6.3,3.7-7.6,7.2c-0.1,0.4-0.2,0.7-0.3,1.1H3.7C1.7,8.7,0,10.4,0,12.4v272.8c0,0,0,0,0,0c0,0.5,0.1,0.9,0.3,1.4
				c0.2,0.5,0.5,0.9,0.8,1.2l11,11c0.7,0.7,1.6,1.1,2.6,1.1h197.6c0.5,0,1-0.1,1.4-0.3c0.4-0.2,0.7-0.4,1-0.7c0.1,0,0.1-0.1,0.2-0.1
				c0,0,0.1-0.1,0.1-0.2c0.3-0.3,0.5-0.7,0.7-1.1c0.2-0.5,0.3-0.9,0.3-1.4l0,0V90.4l29.7-69.1C246.3,20.1,245.8,18.6,244.5,18.1z
				 M172.1,107.9H24.7c-2.1,0-3.7,1.7-3.7,3.7c0,2.1,1.7,3.7,3.7,3.7h144.2l-7.6,17.6c-0.3-0.1-0.7-0.2-1-0.2H24.7
				c-2.1,0-3.7,1.7-3.7,3.7c0,2.1,1.7,3.7,3.7,3.7h133.6l-8.8,20.5c-0.2,0.3-0.2,0.7-0.2,1.1c0,0,0,0,0,0.1l1.8,30
				c0.1,0.9,0.6,1.7,1.4,2.1c0.3,0.2,0.7,0.2,1,0.2c0.5,0,1.1-0.2,1.5-0.5l24.4-18.8c0,0,0-0.1,0.1-0.1c0.3-0.2,0.5-0.5,0.7-0.9l0,0
				c0,0,0,0,0,0l17.4-40.5V253c-0.5,0.6-1,1.2-1.7,1.7c-4.6,3.2-14.3,3.3-22.9,0.2c-0.8-0.3-1.6-0.2-2.3,0.3c-0.7,0.5-1.1,1.2-1.1,2
				c0,10-7.8,21.4-18.5,24.3H7.4V51.5h189L172.1,107.9z M154.4,165.5l17.1,7.4l1.5,0.6l-7,5.4l-10.8,0.9L154.4,165.5z M197.6,264.4
				v17.2H170L197.6,264.4z M165.6,278.5c4.8-5,8-11.5,8.9-17.9c6,1.7,13,2.3,18.7,0.8L165.6,278.5z M205.1,21.4l3,3l-3,6.9V21.4z
				 M31.1,16.2c0.9,7.1,4.6,14,5.6,15.8c0.9,1.6,2.6,2.5,4.3,2.5c0.8,0,1.7-0.2,2.4-0.7c2.4-1.4,3.2-4.4,1.9-6.8
				c-1.6-2.8-3.4-7.2-4.2-10.8h113c0.9,7.1,4.6,14,5.6,15.8c0.9,1.6,2.6,2.5,4.3,2.5c0.8,0,1.7-0.2,2.4-0.7c2.4-1.4,3.2-4.4,1.9-6.8
				c-1.6-2.8-3.4-7.2-4.2-10.8h33.5V44H7.4V16.2H31.1z M12.7,289h187.1l3.6,3.6H16.3L12.7,289z M208.7,287.3l-3.6-3.6V116l3.6-8.3
				V287.3z M176.6,169.6l-13.1-5.6l-8.5-3.7l19.8-46c0.6-0.6,1-1.5,1.1-2.5L215,20.9l0,0l0,0l3.7-8.5l21.6,9.3L176.6,169.6z"/>
		</g>
	</g>
	<path class="st10" d="M176.6,169.6l-13.1-5.6l-8.5-3.7l19.8-46c0.6-0.6,1-1.5,1.1-2.5L215,20.9l0,0l0,0l3.7-8.5l21.6,9.3
		L176.6,169.6z"/>
	<polygon class="st62" points="12.7,289 199.8,289 203.4,292.6 16.3,292.6 	"/>
	<polygon class="st62" points="208.7,287.3 205.1,283.7 205.1,116 208.7,107.7 	"/>
</g>
<g id="Layer_2">
</g>
</svg>
