<?xml version="1.0" encoding="utf-8"?>
<!-- Generator: Adobe Illustrator 19.1.0, SVG Export Plug-In . SVG Version: 6.00 Build 0)  -->
<svg version="1.1" id="Layer_1" xmlns="http://www.w3.org/2000/svg" xmlns:xlink="http://www.w3.org/1999/xlink" x="0px" y="0px"
	 viewBox="0 0 144.9 300" style="enable-background:new 0 0 144.9 300;" xml:space="preserve">
<style type="text/css">
	.st0{fill:#832EAB;}
	.st1{fill:#BABABA;}
	.st2{fill:none;}
	.st3{fill:#8DC63F;}
	.st4{fill:#0F9BD7;}
	.st5{fill:#FFFFFF;}
	.st6{fill-rule:evenodd;clip-rule:evenodd;fill:#FFFFFF;}
	.st7{fill:#1DA1F2;}
	.st8{fill:#3D5A98;}
	.st9{fill:#231F20;}
	.st10{fill:#007BB5;}
	.st11{fill:#DC4E41;}
	.st12{fill-rule:evenodd;clip-rule:evenodd;fill:#181616;}
	.st13{fill:#181616;}
	.st14{fill:#F2F2F2;}
	.st15{fill:#E3E3E3;}
	.st16{fill:#D54B3D;}
	.st17{fill:#D72B27;}
	.st18{opacity:0.56;fill:url(#SVGID_1_);}
	.st19{fill:#92D400;}
	.st20{fill:#00B9E4;}
	.st21{fill:#2B3990;}
	.st22{fill:#3F9C35;}
	.st23{fill:#8FCED8;}
	.st24{fill:#D21F21;}
	.st25{fill:#D6D6D6;}
	.st26{fill:#F1F1F1;}
	.st27{fill:#C32265;}
	.st28{fill:#8C3123;}
	.st29{fill:#E05243;}
	.st30{fill:#5E1F18;}
	.st31{fill:#F2B0A9;}
	.st32{fill:#CACCCE;}
	.st33{fill:#A1AFDB;}
	.st34{fill:#002087;}
</style>
<g>
	<path class="st22" d="M63.2,195.3c-1.3-0.4-2.5-0.8-3.7-1.2v99.3h20.7v-92.6C75.5,199.1,69.9,197.3,63.2,195.3z"/>
	<path class="st9" d="M86.7,171.6c-2.1-0.7-4.3-1.4-6.6-2.1c-2-0.6-4-1.2-6.1-1.9c-5.3-1.6-10.2-3.2-14.6-4.8
		c-2.3-0.8-4.5-1.7-6.6-2.6c-16-6.7-24.1-14.4-24.1-27.4c0-15.4,8.1-25.2,24.1-29.1V82.2c-30.3,5.4-46.3,23.5-46.3,52.6
		c0,27.3,15.6,39.5,46.3,50.2c2.1,0.7,4.3,1.5,6.6,2.2c1.8,0.6,3.7,1.2,5.6,1.8c5.6,1.7,10.6,3.3,15,4.8c2.4,0.8,4.5,1.7,6.6,2.5
		c15.2,6.3,22.3,13.3,22.3,25.4c0,12.8-8.3,22.2-22.3,25.6v21.4c27.1-5.1,44.5-23.7,44.5-48.3C131.2,193.3,119.2,182.5,86.7,171.6z"
		/>
	<path class="st9" d="M86.7,81.4v22.4c12.8,3.2,25.2,10.2,34.7,19.7l15.6-15.4C123.9,93.7,106.3,84.3,86.7,81.4z"/>
	<path class="st9" d="M52.9,245.6c-8.5-2.7-16.2-7.3-23.3-13.9l-15.4,15.7c11.8,10.8,24.6,17.6,38.7,20.7V245.6z"/>
	<path class="st22" d="M35.9,49.4l18.9-8.3c1-0.5,2.2-0.4,3.1,0.3c0.9,0.6,1.5,1.6,1.5,2.8v111.7c4.7,1.8,10.1,3.6,16.5,5.5
		c1.4,0.4,2.8,0.8,4.2,1.3V44.1c0-1.1,0.6-2.1,1.5-2.8c0.9-0.6,2.1-0.7,3.1-0.3l18.9,8.3l-33.9-41L35.9,49.4z"/>
</g>
</svg>
