<?xml version="1.0" encoding="utf-8"?>
<!-- Generator: Adobe Illustrator 19.1.0, SVG Export Plug-In . SVG Version: 6.00 Build 0)  -->
<svg version="1.1" xmlns="http://www.w3.org/2000/svg" xmlns:xlink="http://www.w3.org/1999/xlink" x="0px" y="0px"
	 viewBox="0 0 300 299.4" style="enable-background:new 0 0 300 299.4;" xml:space="preserve">
<style type="text/css">
	.st0{fill:#832EAB;}
	.st1{fill:#C32265;}
	.st2{fill:#00AEEF;}
	.st3{fill:none;}
	.st4{fill:#8DC63F;}
	.st5{fill:#0F9BD7;}
	.st6{fill:#FFFFFF;}
	.st7{fill-rule:evenodd;clip-rule:evenodd;fill:#FFFFFF;}
	.st8{fill:#1DA1F2;}
	.st9{fill:#3D5A98;}
	.st10{fill:#231F20;}
	.st11{fill:#007BB5;}
	.st12{fill:#DC4E41;}
	.st13{fill-rule:evenodd;clip-rule:evenodd;fill:#181616;}
	.st14{fill:#181616;}
	.st15{fill:#F2F2F2;}
	.st16{fill:#E3E3E3;}
	.st17{fill:#D54B3D;}
	.st18{fill:#D72B27;}
	.st19{opacity:0.56;fill:url(#SVGID_1_);}
	.st20{fill:#BABABA;}
	.st21{fill:#92D400;}
	.st22{fill:#00B9E4;}
	.st23{fill:#2B3990;}
	.st24{fill:#3F9C35;}
	.st25{fill:#8FCED8;}
	.st26{fill:#D21F21;}
	.st27{fill:#009444;}
	.st28{fill:#4FE89C;}
	.st29{fill:#D6D6D6;}
	.st30{fill:#F1F1F1;}
	.st31{fill:#8C3123;}
	.st32{fill:#E05243;}
	.st33{fill:#5E1F18;}
	.st34{fill:#F2B0A9;}
	.st35{fill:#CACCCE;}
	.st36{fill:#A1AFDB;}
	.st37{fill:#002087;}
	.st38{fill:#6C4199;}
	.st39{fill:#C7C7C7;}
	.st40{fill:#1976D2;}
	.st41{fill:#1E88E5;}
	.st42{fill:#FAFAFA;}
	.st43{fill:#E0E0E0;}
	.st44{fill:#F6A11F;}
	.st45{fill:#0A6DAE;}
	.st46{fill:#0BA25E;}
	.st47{fill:#089156;}
	.st48{fill:#10985B;}
	.st49{fill:#F9C941;}
	.st50{fill:#E8B835;}
	.st51{fill:#296AD9;}
	.st52{fill:#2A71E9;}
	.st53{fill:#286EE6;}
	.st54{fill:#BCBEC0;}
	.st55{fill:#FFFFFF;stroke:#231F20;stroke-width:10;stroke-linecap:round;stroke-linejoin:round;stroke-miterlimit:10;}
	.st56{fill:#00AEEF;stroke:#231F20;stroke-width:10;stroke-linecap:round;stroke-linejoin:round;stroke-miterlimit:10;}
	.st57{fill:#231F20;stroke:#231F20;stroke-width:10;stroke-linecap:round;stroke-linejoin:round;stroke-miterlimit:10;}
	.st58{fill:none;stroke:#231F20;stroke-width:10;stroke-miterlimit:10;}
	.st59{fill:none;stroke:#231F20;stroke-width:10;stroke-linejoin:round;stroke-miterlimit:10;}
	.st60{fill:none;stroke:#231F20;stroke-width:9.5201;stroke-linecap:round;stroke-linejoin:round;stroke-miterlimit:10;}
	.st61{fill:none;stroke:#231F20;stroke-width:7.8079;stroke-linecap:round;stroke-linejoin:round;stroke-miterlimit:10;}
	.st62{fill:#D1D3D4;}
	.st63{fill:url(#SVGID_2_);}
	.st64{fill:url(#SVGID_3_);}
	.st65{fill:url(#SVGID_4_);}
	.st66{fill:url(#SVGID_5_);}
	.st67{fill:url(#SVGID_6_);}
	.st68{fill:url(#SVGID_7_);}
	.st69{fill:#00A79D;}
	.st70{fill:#4E376B;}
	.st71{fill:#004981;}
	.st72{fill:#106599;}
	.st73{fill:#1E78AF;}
	.st74{fill:#4396C9;}
	.st75{fill:#63AAD6;}
	.st76{fill:#B8DDF4;}
	.st77{fill:#1F8893;}
	.st78{fill:none;stroke:#000000;stroke-width:6.3625;stroke-linecap:round;stroke-linejoin:round;stroke-miterlimit:10;}
	.st79{fill:#FFFFFF;stroke:#000000;stroke-width:5.3826;stroke-linejoin:round;stroke-miterlimit:10;}
	.st80{fill:#42BCBC;stroke:#000000;stroke-width:6.2798;stroke-linejoin:round;stroke-miterlimit:10;}
	.st81{fill:none;stroke:#000000;stroke-width:5.3826;stroke-linecap:round;stroke-linejoin:round;stroke-miterlimit:10;}
	.st82{fill:none;stroke:#000000;stroke-width:3.1813;stroke-linecap:round;stroke-linejoin:round;stroke-miterlimit:10;}
</style>
<g id="Layer_1">
	<g>
		<path class="st1" d="M212.4,222.7L212.4,222.7c-15.9,16-37.8,26-61.9,26c-24.1,0-46.2-10-61.9-26c-15.9-16.1-25.7-38.2-25.7-62.7
			c0-24.6,9.7-46.8,25.7-62.8c0.5-0.6,0.9-1.1,1.5-1.5c8.5-7.3,5.7-4.9,8.5-7.3c14-10.5,31.2-16.8,49.8-17.3c4.3,0,2.8,0,4.3,0
			c23.3,0.5,44.4,10.4,59.8,26c15.7,16.1,25.6,38.3,25.6,62.8C238,184.4,228.2,206.5,212.4,222.7L212.4,222.7z"/>
		<g>
			<path d="M161.4,64.7L161.4,64.7c0-6.8,0-4.5,0-6.8c10.8,0,7.2,0,10.8,0c1,0,1.8-0.4,2.3-1.1c0.6-0.7,0.9-1.6,0.9-2.6
				c0-14.1,0-9.4,0-14.1c0-1-0.3-1.8-0.9-2.5c-0.6-0.7-1.4-1.1-2.3-1.1c-43.7,0-29.1,0-43.7,0c-1,0-1.6,0.4-2.3,1.1
				c-0.7,0.7-0.9,1.5-0.9,2.5c0,14.1,0,9.4,0,14.1c0,1,0.2,1.9,0.9,2.6c0.7,0.7,1.4,1.1,2.3,1.1c10.8,0,7.2,0,10.8,0
				c0,6.8,0,4.6,0,6.8c-15.1,1.8-28.6,7.1-40.4,14.9c-4.5-5.2-3-3.4-4.5-5.2c2.7-2.3,1.8-1.6,2.7-2.3c0.7-0.6,1.2-1.5,1.2-2.4
				c0.2-0.9-0.1-1.9-0.8-2.6c-11.9-14.4-7.9-9.5-11.9-14.4c-1.2-1.5-3.3-1.6-4.8-0.4C56.4,73.2,64.5,66.3,56.4,73.2
				c-0.7,0.6-1.1,1.4-1.2,2.3c-0.1,1,0.3,1.8,0.8,2.6c11.8,14.4,7.9,9.5,11.8,14.4c1.2,1.3,3.4,1.6,4.9,0.4c4.6-4,3.1-2.6,4.6-4
				c4.4,5.3,2.9,3.6,4.4,5.3c-15.9,17.1-25.6,40.2-25.6,65.6c0,52.7,42.2,95.7,94.4,95.7c52.2,0,94.4-43,94.4-95.7
				C244.9,110.9,208.4,70.4,161.4,64.7L161.4,64.7z M131.8,43.7L131.8,43.7c37.2,0,24.8,0,37.2,0c0,7.1,0,4.7,0,7.1
				c-10.3,0-6.9,0-10.3,0c-0.1,0-0.4,0-0.6,0c-15.5,0-10.3,0-15.5,0c-0.2,0-0.4,0-0.6,0c-10.3,0-6.9,0-10.3,0
				C131.8,48.4,131.8,46.1,131.8,43.7L131.8,43.7z M146.3,63.9L146.3,63.9c0-6,0-4,0-6c8.6,0,5.7,0,8.6,0c0,6,0,4,0,6
				c-2.4,0-1.6,0-2.4,0c-0.6,0-1.3,0-2,0c-0.7,0-1.4,0-2,0C147.7,63.9,147.1,63.9,146.3,63.9L146.3,63.9z M89.1,78.9L89.1,78.9
				c4.1,4.9,2.7,3.3,4.1,4.9c-2.3,1.8-4.5,3.7-6.6,5.6c-4-4.9-2.7-3.3-4-4.9C84.8,82.6,87,80.7,89.1,78.9L89.1,78.9z M212.4,222.7
				L212.4,222.7c-15.9,16-37.8,26-61.9,26c-24.1,0-46.2-10-61.9-26c-15.9-16.1-25.7-38.2-25.7-62.7c0-24.6,9.7-46.8,25.7-62.8
				c0.5-0.6,0.9-1.1,1.5-1.5c8.5-7.3,5.7-4.9,8.5-7.3c14-10.5,31.2-16.8,49.8-17.3c4.3,0,2.8,0,4.3,0c23.3,0.5,44.4,10.4,59.8,26
				c15.7,16.1,25.6,38.3,25.6,62.8C238,184.4,228.2,206.5,212.4,222.7L212.4,222.7z"/>
			<path d="M150.4,87.2L150.4,87.2c1,0,1.9-0.9,1.9-1.8c0-7.2,0-4.8,0-7.2c0-1-1-1.7-1.9-1.7c-1,0-1.9,0.7-1.9,1.7
				c0,7.2,0,4.8,0,7.2C148.5,86.3,149.4,87.2,150.4,87.2L150.4,87.2z"/>
			<path d="M111.6,88.3L111.6,88.3c-0.5-0.8-1.5-1.1-2.3-0.7c-0.8,0.6-1.1,1.7-0.7,2.5c3.6,6.1,2.4,4.1,3.6,6.1
				c0.5,0.9,1.5,1.1,2.3,0.7c0.8-0.5,1.1-1.5,0.7-2.5C113.9,92.4,112.7,90.4,111.6,88.3L111.6,88.3z"/>
			<path d="M87.5,121.1L87.5,121.1c-6.1-3.6-4-2.4-6.1-3.6c-0.8-0.4-1.9-0.1-2.4,0.7c-0.4,0.9-0.1,1.9,0.7,2.4
				c6.1,3.7,4.1,2.5,6.1,3.7c1,0.4,1.9,0.1,2.4-0.7C88.6,122.8,88.4,121.7,87.5,121.1L87.5,121.1z"/>
			<path d="M76.9,158.3L76.9,158.3c-7.1,0-4.8,0-7.1,0c-1,0-1.6,0.7-1.6,1.7c0,0.9,0.7,1.7,1.6,1.7c7.1,0,4.8,0,7.1,0
				c0.9,0,1.6-0.8,1.6-1.7C78.5,159,77.8,158.3,76.9,158.3L76.9,158.3z"/>
			<path d="M85.8,195.7L85.8,195.7c-6.1,3.6-4,2.4-6.1,3.6c-0.8,0.6-1.1,1.7-0.7,2.5c0.6,0.8,1.6,1.1,2.4,0.6c6.1-3.6,4-2.4,6.1-3.6
				c0.9-0.4,1.1-1.6,0.7-2.4C87.7,195.6,86.6,195.3,85.8,195.7L85.8,195.7z"/>
			<path d="M114.5,223.1L114.5,223.1c-0.8-0.6-1.9-0.3-2.4,0.7c-3.5,6.1-2.3,4.1-3.5,6.1c-0.4,0.8-0.1,1.9,0.7,2.3
				c0.9,0.6,1.9,0.3,2.3-0.5c3.5-6.3,2.3-4.2,3.5-6.3C115.6,224.6,115.3,223.5,114.5,223.1L114.5,223.1z"/>
			<path d="M150.5,232.9L150.5,232.9c-1,0-1.8,0.8-1.8,1.8c0,7.1,0,4.7,0,7.1c0,0.9,0.8,1.8,1.8,1.8c1,0,1.8-0.9,1.8-1.8
				c0-7.1,0-4.8,0-7.1C152.3,233.7,151.5,232.9,150.5,232.9L150.5,232.9z"/>
			<path d="M188.6,223.8L188.6,223.8c-0.5-0.8-1.5-1.1-2.3-0.7c-1,0.6-1.2,1.6-0.7,2.4c3.5,6.3,2.3,4.2,3.5,6.3
				c0.5,0.9,1.5,1.1,2.4,0.6c0.8-0.4,1.1-1.5,0.5-2.4C191,227.9,189.8,225.8,188.6,223.8L188.6,223.8z"/>
			<path d="M221,199.5L221,199.5c-6.1-3.7-4.1-2.5-6.1-3.7c-0.8-0.4-1.9-0.1-2.3,0.7c-0.6,0.8-0.3,2,0.5,2.4
				c6.2,3.7,4.2,2.5,6.2,3.7c0.8,0.4,1.9,0.1,2.3-0.7C222.2,201,222,199.9,221,199.5L221,199.5z"/>
			<path d="M231,158L231,158c-7,0-4.7,0-7,0c-1,0-1.8,1-1.8,1.9c0,1,0.8,1.8,1.8,1.8c7,0,4.7,0,7,0c0.9,0,1.8-0.8,1.8-1.8
				C232.8,159,231.9,158,231,158L231,158z"/>
			<path d="M219.4,117.7L219.4,117.7c-6.1,3.6-4,2.4-6.1,3.6c-1,0.4-1.2,1.5-0.7,2.3c0.4,0.9,1.5,1.1,2.3,0.7
				c6.2-3.6,4.1-2.4,6.2-3.6c0.8-0.5,1.1-1.6,0.5-2.5C221.3,117.4,220.2,117.1,219.4,117.7L219.4,117.7z"/>
			<path d="M191.6,87.7L191.6,87.7c-0.8-0.6-1.9-0.3-2.4,0.5c-3.5,6.3-2.3,4.2-3.5,6.3c-0.4,0.8-0.1,1.8,0.7,2.3
				c0.8,0.6,1.9,0.2,2.3-0.7c3.5-6.1,2.3-4.1,3.5-6.1C192.7,89.2,192.4,88.1,191.6,87.7L191.6,87.7z"/>
			<path d="M154.9,138.6L154.9,138.6c-1-43.8-0.6-29.2-1-43.8c0-1.9-1.6-3.4-3.3-3.4c-0.7,0-0.5,0-0.7,0c-1.8,0-3.3,1.5-3.3,3.4
				c-1,43.9-0.6,29.3-1,43.9c-9.5,2.2-16.6,10.8-16.6,21.2c0,12,9.6,21.7,21.5,21.7c11.8,0,21.4-9.7,21.4-21.7
				C171.9,149.4,164.7,140.7,154.9,138.6L154.9,138.6z M160.8,170.4L160.8,170.4c-2.6,2.7-6.2,4.4-10.3,4.4c-4.1,0-7.7-1.7-10.4-4.4
				c-2.6-2.6-4.1-6.3-4.1-10.4c0-4.1,1.6-7.8,4.1-10.6c2.7-2.6,6.3-4.2,10.4-4.4c4,0.2,7.6,1.8,10.3,4.4c2.7,2.8,4.3,6.4,4.3,10.6
				C165.1,164,163.4,167.7,160.8,170.4L160.8,170.4z"/>
			<path d="M206.2,156.1L206.2,156.1c-34.8-0.8-23.2-0.6-34.8-0.8c-2-9.9-10.6-17.1-20.9-17.1c-11.9,0-21.5,9.7-21.5,21.8
				c0,12,9.6,21.7,21.5,21.7c10.3,0,18.9-7.4,20.9-17.1c34.8-1,23.2-0.6,34.8-1c1.9,0,3.2-1.7,3.2-3.4c0-0.7,0-0.5,0-0.7
				C209.4,157.8,208.1,156.2,206.2,156.1L206.2,156.1z"/>
		</g>
		<g>
			<g>
				<g>
					<path d="M167,291.2c-4.4,0.6-8.9,1-13.4,1.3c-1.9,0.1-3.4,1.7-3.3,3.6c0.1,1.8,1.6,3.3,3.4,3.3c0.1,0,0.1,0,0.2,0
						c4.7-0.2,9.4-0.7,14-1.3c1.9-0.3,3.2-2,2.9-3.9C170.7,292.3,169,291,167,291.2z"/>
					<path d="M217.8,274.1c-1.8,1-3.6,1.9-5.4,2.9c-2.2,1.1-4.4,2.2-6.7,3.2c-1.7,0.8-2.5,2.8-1.8,4.6c0.6,1.3,1.8,2.1,3.2,2.1
						c0.5,0,0.9-0.1,1.4-0.3c2.3-1,4.7-2.1,7-3.3c1.9-1,3.8-2,5.7-3c1.7-0.9,2.3-3,1.3-4.7C221.6,273.8,219.5,273.2,217.8,274.1z"/>
					<path d="M193.2,285c-4.3,1.4-8.6,2.7-13,3.7c-1.9,0.4-3,2.3-2.6,4.2c0.4,1.6,1.8,2.7,3.4,2.7c0.3,0,0.5,0,0.8-0.1
						c4.5-1.1,9.1-2.4,13.6-3.9c1.8-0.6,2.8-2.6,2.2-4.4C197,285.4,195,284.4,193.2,285z"/>
					<path d="M140.1,292.5c-4.5-0.2-9-0.6-13.4-1.2c-1.9-0.3-3.6,1.1-3.9,2.9c-0.3,1.9,1.1,3.6,2.9,3.9c4.6,0.6,9.4,1.1,14.1,1.3
						c0.1,0,0.1,0,0.2,0c1.8,0,3.4-1.4,3.4-3.3C143.5,294.2,142,292.6,140.1,292.5z"/>
					<path d="M87.9,280.4c-4.1-1.8-8.2-3.8-12.1-6c-1.7-0.9-3.8-0.3-4.7,1.4c-0.9,1.7-0.3,3.8,1.4,4.7c4.1,2.3,8.4,4.4,12.7,6.2
						c0.4,0.2,0.9,0.3,1.4,0.3c1.3,0,2.6-0.8,3.2-2.1C90.5,283.2,89.7,281.2,87.9,280.4z"/>
					<path d="M34.4,240.4c-1.2-1.5-3.4-1.6-4.9-0.4c-1.5,1.2-1.6,3.4-0.4,4.9c3,3.6,6.2,7.1,9.6,10.4c0.7,0.7,1.5,1,2.4,1
						c0.9,0,1.8-0.3,2.5-1c1.3-1.4,1.3-3.5,0-4.9C40.3,247.2,37.2,243.8,34.4,240.4z"/>
					<path d="M53.5,259.4c-1.5-1.2-3.6-1-4.9,0.5c-1.2,1.5-1,3.6,0.5,4.9c3.6,3,7.4,5.8,11.3,8.4c0.6,0.4,1.3,0.6,1.9,0.6
						c1.1,0,2.2-0.5,2.9-1.5c1.1-1.6,0.7-3.7-0.9-4.8C60.6,264.9,57,262.2,53.5,259.4z"/>
					<path d="M113.5,288.9c-4.4-1-8.7-2.2-13-3.6c-1.8-0.6-3.8,0.4-4.4,2.2c-0.6,1.8,0.4,3.8,2.2,4.4c4.5,1.5,9,2.8,13.6,3.8
						c0.3,0.1,0.5,0.1,0.8,0.1c1.6,0,3-1.1,3.4-2.7C116.5,291.1,115.3,289.3,113.5,288.9z"/>
					<path d="M295.5,164c-1.9-0.3-3.6,1-3.9,2.9c-0.6,4.4-1.5,8.9-2.5,13.2c-0.4,1.9,0.7,3.7,2.6,4.2c0.3,0.1,0.5,0.1,0.8,0.1
						c1.6,0,3-1.1,3.4-2.6c1.1-4.5,2-9.2,2.7-13.9C298.7,166.1,297.4,164.3,295.5,164z"/>
					<path d="M259.2,239.9c-2.9,3.4-5.9,6.8-9.1,9.9c-1.3,1.3-1.4,3.5,0,4.9c0.7,0.7,1.6,1,2.4,1c0.9,0,1.8-0.3,2.4-1
						c3.3-3.3,6.5-6.8,9.5-10.4c1.2-1.5,1-3.6-0.4-4.9C262.6,238.3,260.4,238.5,259.2,239.9z"/>
					<path d="M289.7,191c-1.8-0.6-3.8,0.4-4.4,2.2c-1.4,4.3-3.1,8.5-4.9,12.6c-0.8,1.7,0,3.8,1.8,4.6c0.5,0.2,0.9,0.3,1.4,0.3
						c1.3,0,2.6-0.8,3.2-2c1.9-4.3,3.6-8.7,5.1-13.1C292.5,193.5,291.5,191.6,289.7,191z"/>
					<path d="M296.6,144.6c-1.9,0-3.5,1.5-3.5,3.4c0,1.9-0.1,3.7-0.2,5.6c-0.1,1.9,1.4,3.5,3.3,3.6c0.1,0,0.1,0,0.2,0
						c1.8,0,3.3-1.4,3.4-3.3c0.1-1.9,0.2-3.9,0.2-5.8C300,146.2,298.5,144.6,296.6,144.6z"/>
					<path d="M279.1,216.4c-1.7-0.9-3.8-0.3-4.7,1.3c-2.2,3.9-4.6,7.7-7.1,11.4c-1.1,1.6-0.7,3.7,0.9,4.8c0.6,0.4,1.3,0.6,2,0.6
						c1.1,0,2.2-0.5,2.8-1.5c2.7-3.9,5.2-7.9,7.4-12C281.4,219.4,280.8,217.3,279.1,216.4z"/>
					<path d="M240.1,258.9c-3.4,2.8-7.1,5.6-10.8,8.1c-1.6,1.1-2,3.2-0.9,4.8c0.7,1,1.8,1.5,2.9,1.5c0.7,0,1.3-0.2,1.9-0.6
						c3.9-2.7,7.7-5.5,11.3-8.5c1.5-1.2,1.7-3.4,0.5-4.9C243.7,257.9,241.5,257.7,240.1,258.9z"/>
					<path d="M46.4,53.2C90.7,6,160.3-6.4,217.8,21.9l-8.2,11.3c-0.4,0.6-0.5,1.4-0.3,2.1c0.3,0.7,0.9,1.2,1.6,1.4l42.5,8.8
						c0.8,0.2,1.7-0.2,2.2-0.9l0,0c0.5-0.7,0.6-1.6,0.1-2.4L234.6,4.1c-0.4-0.7-1-1.1-1.8-1.1c-0.8,0-1.5,0.3-1.9,0.9l-9,12.4
						C161.5-14,88.1-1.2,41.4,48.5C-4.9,97.8-13.3,172.9,20.9,231.2c0.6,1.1,1.8,1.7,3,1.7c0.6,0,1.2-0.2,1.7-0.5
						c1.6-1,2.2-3.1,1.2-4.7C-5.8,172.1,2.2,100.3,46.4,53.2z"/>
				</g>
			</g>
		</g>
	</g>
</g>
<g id="Layer_2">
</g>
</svg>
