<?xml version="1.0" encoding="utf-8"?>
<!-- Generator: Adobe Illustrator 19.1.0, SVG Export Plug-In . SVG Version: 6.00 Build 0)  -->
<svg version="1.1" xmlns="http://www.w3.org/2000/svg" xmlns:xlink="http://www.w3.org/1999/xlink" x="0px" y="0px"
	 viewBox="0 0 300 260" style="enable-background:new 0 0 300 260;" xml:space="preserve">
<style type="text/css">
	.st0{fill:#832EAB;}
	.st1{fill:#FECD00;}
	.st2{fill:#00AEEF;}
	.st3{fill:none;}
	.st4{fill:#8DC63F;}
	.st5{fill:#0F9BD7;}
	.st6{fill:#FFFFFF;}
	.st7{fill-rule:evenodd;clip-rule:evenodd;fill:#FFFFFF;}
	.st8{fill:#1DA1F2;}
	.st9{fill:#3D5A98;}
	.st10{fill:#231F20;}
	.st11{fill:#007BB5;}
	.st12{fill:#DC4E41;}
	.st13{fill-rule:evenodd;clip-rule:evenodd;fill:#181616;}
	.st14{fill:#181616;}
	.st15{fill:#F2F2F2;}
	.st16{fill:#E3E3E3;}
	.st17{fill:#D54B3D;}
	.st18{fill:#D72B27;}
	.st19{opacity:0.56;fill:url(#SVGID_1_);}
	.st20{fill:#BABABA;}
	.st21{fill:#92D400;}
	.st22{fill:#00B9E4;}
	.st23{fill:#2B3990;}
	.st24{fill:#3F9C35;}
	.st25{fill:#8FCED8;}
	.st26{fill:#D21F21;}
	.st27{fill:#FFF8DA;}
	.st28{fill:#C32265;}
	.st29{fill:#D6D6D6;}
	.st30{fill:#F1F1F1;}
	.st31{fill:#8C3123;}
	.st32{fill:#E05243;}
	.st33{fill:#5E1F18;}
	.st34{fill:#F2B0A9;}
	.st35{fill:#CACCCE;}
	.st36{fill:#A1AFDB;}
	.st37{fill:#002087;}
	.st38{fill:#6C4199;}
	.st39{fill:#C7C7C7;}
	.st40{fill:#1976D2;}
	.st41{fill:#1E88E5;}
	.st42{fill:#FAFAFA;}
	.st43{fill:#E0E0E0;}
	.st44{fill:#F6A11F;}
	.st45{fill:#0A6DAE;}
	.st46{fill:#0BA25E;}
	.st47{fill:#089156;}
	.st48{fill:#10985B;}
	.st49{fill:#F9C941;}
	.st50{fill:#E8B835;}
	.st51{fill:#296AD9;}
	.st52{fill:#2A71E9;}
	.st53{fill:#286EE6;}
	.st54{fill:#009444;}
	.st55{fill:#006838;}
	.st56{fill:#BCBEC0;}
	.st57{fill:#2BB673;}
	.st58{fill:#F7941E;}
	.st59{fill:#EF4136;}
	.st60{fill:#FFFFFF;stroke:#231F20;stroke-width:10;stroke-linecap:round;stroke-linejoin:round;stroke-miterlimit:10;}
	.st61{fill:#D1D3D4;stroke:#231F20;stroke-width:10;stroke-linecap:round;stroke-linejoin:round;stroke-miterlimit:10;}
	.st62{fill:#231F20;stroke:#231F20;stroke-width:10;stroke-linecap:round;stroke-linejoin:round;stroke-miterlimit:10;}
	.st63{fill:none;stroke:#231F20;stroke-width:10;stroke-miterlimit:10;}
	.st64{fill:none;stroke:#231F20;stroke-width:10;stroke-linejoin:round;stroke-miterlimit:10;}
	.st65{fill:#E1DFE4;}
	.st66{fill:#35474F;}
	.st67{fill:#FC002F;}
	.st68{fill:#FDD518;}
	.st69{fill:#00E769;}
	.st70{fill:#D1D3D4;}
	.st71{fill:#27AAE1;}
	.st72{fill:#231F20;stroke:#27AAE1;stroke-miterlimit:10;}
	.st73{fill:url(#SVGID_2_);}
	.st74{fill:url(#SVGID_3_);}
	.st75{fill:url(#SVGID_4_);}
	.st76{fill:url(#SVGID_5_);}
	.st77{fill:url(#SVGID_6_);}
	.st78{fill:url(#SVGID_7_);}
</style>
<g id="Layer_1">
	<g id="XMLID_1_">
		<g id="_x23_0ba25eff">
			<path id="XMLID_170_" class="st46" d="M97.6,0l0.3,0l0,0.3l-0.3,0L97.6,0z"/>
			<path id="XMLID_169_" class="st46" d="M96.6,2c0.2-0.3,0.7-1,0.9-1.3l0.4-0.1c0.3,3.7,1.4,7.3,2.2,10.9
				c3.5,15.7,7.1,31.5,10.8,47.1c2.4,10.8,5.2,21.5,7.4,32.3c1.9,6.7,3,13.6,4.8,20.3c1.2,6.2,3.1,12.3,4.1,18.6
				c-0.4,0.7-0.8,1.4-1.2,2.1c-0.1,0.2-0.3,0.5-0.4,0.7l-0.2,0.3c0,0-0.1,0.1-0.1,0.2c-0.2,0.4-0.7,1.3-0.9,1.7
				c0,0.1-0.1,0.2-0.2,0.3l-0.4,0.7c-0.1,0.1-0.2,0.3-0.2,0.3l-0.5,0.9c0,0-0.1,0.1-0.1,0.2l-0.6,1.1c-0.1,0.1-0.2,0.3-0.2,0.4
				c-0.1,0.1-0.2,0.3-0.2,0.4l-0.6,1c0,0.1-0.1,0.2-0.2,0.3l-0.4,0.6c-0.1,0.1-0.2,0.3-0.2,0.4c-0.2,0.4-0.7,1.2-0.9,1.6
				c0,0.1-0.1,0.2-0.2,0.3l-0.4,0.6c-0.1,0.1-0.2,0.3-0.3,0.4c-0.2,0.4-0.7,1.1-0.9,1.5c-0.1,0.1-0.2,0.3-0.2,0.4l-0.4,0.8
				c0,0.1-0.1,0.2-0.2,0.3l-0.5,0.8c0,0.1-0.1,0.2-0.2,0.3c-0.2,0.4-0.7,1.2-0.9,1.6c-0.1,0.1-0.2,0.3-0.2,0.4L115,151
				c0,0.1-0.1,0.2-0.2,0.3l-0.5,0.8c0,0.1-0.1,0.2-0.2,0.3c-0.2,0.4-0.7,1.3-1,1.7c0,0.1-0.1,0.2-0.2,0.3l-0.4,0.6
				c-0.1,0.1-0.2,0.3-0.2,0.4c-0.2,0.4-0.7,1.2-0.9,1.5c0,0.1-0.1,0.2-0.2,0.3l-0.5,0.9c0,0.1-0.1,0.2-0.1,0.3l-0.5,0.9
				c0,0.1-0.1,0.2-0.2,0.3c-0.2,0.4-0.7,1.2-0.9,1.5c-0.1,0.1-0.2,0.3-0.2,0.4l-0.3,0.6c0,0.1-0.1,0.2-0.2,0.3l-0.6,1
				c0,0.1-0.2,0.3-0.2,0.4c-0.1,0.1-0.1,0.3-0.2,0.3c-1,1.7-1.9,3.4-3,5c-6.3,10.2-12,20.7-18.1,31c-9.8,17-19.6,34-29.5,51
				c-1.5,2.6-3.2,5.2-4.4,7.9c-0.1,0.1-0.2,0.3-0.3,0.4c-2.4-3.4-4.2-7.1-6.3-10.7c-9.8-17-19.7-34-29.5-51
				c-5.5-9.6-11.1-19-16.5-28.7c21-36.3,42-72.7,63-109c0,0,0.1-0.1,0.1-0.1l0.6-1c0,0,0.1-0.1,0.1-0.2l0.6-1
				c0.1-0.1,0.2-0.3,0.2-0.4c0.1-0.1,0.2-0.3,0.2-0.4l0.6-1c0-0.1,0.1-0.2,0.2-0.3l0.4-0.7c0.1-0.1,0.2-0.3,0.3-0.5
				c0.2-0.3,0.6-1,0.9-1.3c0-0.1,0.1-0.3,0.1-0.4l0.5-1c0,0,0.1-0.1,0.1-0.2l0.6-1c0.1-0.1,0.2-0.3,0.2-0.4c0.1-0.1,0.2-0.3,0.3-0.5
				l0.5-0.9c0.1-0.1,0.2-0.3,0.2-0.4L70,48c0-0.1,0.1-0.2,0.2-0.3c0.2-0.4,0.7-1.2,0.9-1.6c0-0.1,0.1-0.2,0.2-0.3l0.4-0.8
				c0-0.1,0.1-0.2,0.1-0.2l0.6-1c0.1-0.1,0.2-0.4,0.3-0.5l0.4-0.6c0.1-0.1,0.2-0.3,0.3-0.5c0.1-0.1,0.2-0.4,0.3-0.5l0.3-0.6
				c0.1-0.2,0.3-0.7,0.4-0.9l0.3-0.5c0.1-0.1,0.2-0.2,0.2-0.3c0.2-0.2,0.7-0.6,0.9-0.7l0-0.7c0-0.1,0.1-0.2,0.2-0.3l0.5-1
				c0-0.1,0.1-0.2,0.2-0.3l0.4-0.7c0.1-0.1,0.2-0.4,0.3-0.5c0.2-0.3,0.6-1,0.8-1.3c0.1-0.1,0.2-0.3,0.2-0.5l0.3-0.7
				c0.1-0.2,0.3-0.5,0.4-0.7l0.4-0.6c0.1-0.1,0.2-0.3,0.3-0.4c0.1-0.1,0.2-0.4,0.3-0.5l0.3-0.6c0.1-0.1,0.2-0.4,0.3-0.5l0.5-1
				c0.1-0.1,0.2-0.4,0.3-0.5l0.4-0.6c0.1-0.1,0.2-0.3,0.3-0.5c0.1-0.1,0.2-0.4,0.3-0.5l0.3-0.6c0.1-0.2,0.3-0.5,0.3-0.7l0.4-0.7
				c0.1-0.1,0.2-0.3,0.3-0.4c0.2-0.3,0.6-1,0.9-1.3c0-0.1,0.1-0.3,0.1-0.4l0.5-1c0,0,0.1-0.1,0.1-0.2l0.6-1c0.1-0.1,0.2-0.3,0.2-0.4
				c0.1-0.1,0.2-0.3,0.2-0.4l0.6-1c0,0,0.1-0.1,0.1-0.2l0.6-1c0,0,0.1-0.1,0.1-0.2l0.6-1c0.1-0.1,0.2-0.3,0.2-0.4
				c0.1-0.1,0.2-0.3,0.2-0.4l0.6-1c0-0.1,0.1-0.2,0.1-0.2l0.5-0.8c0.1-0.1,0.2-0.3,0.3-0.5c0.2-0.3,0.6-1,0.9-1.3
				c0-0.1,0.1-0.3,0.1-0.4l0.5-1c0-0.1,0.1-0.2,0.2-0.3l0.4-0.7c0.1-0.1,0.2-0.3,0.3-0.5c0.2-0.3,0.6-1,0.8-1.3
				c0-0.1,0.1-0.3,0.1-0.4l0.5-1c0,0,0.1-0.1,0.1-0.2l0.6-1c0-0.1,0.2-0.3,0.2-0.4c0.1-0.1,0.2-0.3,0.2-0.4l0.6-1
				c0,0,0.1-0.1,0.1-0.2l0.6-0.9C96.5,2.1,96.5,2,96.6,2z"/>
		</g>
		<g id="_x23_089156ff">
			<path id="XMLID_166_" class="st47" d="M97.9,0.6c1.3,1.6,2.2,3.5,3.2,5.2C117.4,34,133.7,62.3,150,90.5
				c-7.5,13.1-15.1,26.2-22.7,39.3c-1-6.3-2.9-12.4-4.1-18.6c-1.9-6.7-2.9-13.6-4.8-20.3c-2.2-10.8-4.9-21.5-7.4-32.3
				c-3.7-15.7-7.3-31.4-10.8-47.1C99.3,7.9,98.2,4.3,97.9,0.6z"/>
		</g>
		<g id="_x23_10985bff">
			<path id="XMLID_82_" class="st48" d="M203.3,1.9c0,0.1,0.1,0.2,0.2,0.3C203.5,2.1,203.4,1.9,203.3,1.9z"/>
			<path id="XMLID_81_" class="st48" d="M208.1,10.2c0,0,0.1,0.1,0.1,0.2C208.2,10.3,208.1,10.2,208.1,10.2z"/>
			<path id="XMLID_80_" class="st48" d="M216.9,25.4c0,0,0.1,0.1,0.1,0.2C217,25.6,216.9,25.5,216.9,25.4z"/>
			<path id="XMLID_79_" class="st48" d="M218.6,28.3c0,0.1,0.1,0.2,0.2,0.3C218.7,28.5,218.6,28.4,218.6,28.3z"/>
			<path id="XMLID_78_" class="st48" d="M221,32.5c0,0,0.1,0.1,0.1,0.2C221.1,32.6,221,32.5,221,32.5z"/>
			<path id="XMLID_77_" class="st48" d="M223.3,36.5c0,0.1,0.1,0.2,0.2,0.3C223.5,36.7,223.4,36.6,223.3,36.5z"/>
			<path id="XMLID_76_" class="st48" d="M225.7,40.6c0,0.1,0.1,0.2,0.2,0.3C225.8,40.8,225.7,40.7,225.7,40.6z"/>
		</g>
		<g id="XMLID_171_">
			<path id="XMLID_172_" class="st49" d="M298.7,167c0,0-0.1-0.1-0.1-0.2l-0.6-1c-0.1-0.1-0.2-0.3-0.2-0.4c-0.1-0.1-0.2-0.3-0.2-0.4
				l-0.6-1c0,0-0.1-0.1-0.1-0.2l-0.6-1c0,0-0.1-0.1-0.1-0.2l-0.6-1c-0.1-0.1-0.2-0.3-0.2-0.4s-0.2-0.3-0.2-0.4l-0.6-1
				c-0.1-0.1-0.2-0.3-0.3-0.5l-0.4-0.6c-0.1-0.1-0.3-0.3-0.3-0.5c-0.1-0.1-0.2-0.4-0.3-0.5l-0.3-0.6c-0.1-0.1-0.2-0.4-0.2-0.5
				c-0.4-0.8-0.8-1.5-1.2-2.2c-0.1-0.1-0.2-0.3-0.2-0.4c-0.1-0.1-0.2-0.3-0.3-0.4l-0.5-0.9c0-0.1-0.1-0.2-0.1-0.2l-0.5-0.9
				c0,0-0.1-0.1-0.1-0.2l-0.6-1c-0.1-0.1-0.2-0.3-0.2-0.4s-0.2-0.3-0.2-0.4l-0.6-1c-0.1-0.1-0.2-0.3-0.2-0.4l-0.4-0.6
				c-0.1-0.1-0.2-0.3-0.3-0.4c-0.3-0.4-0.8-1.2-1-1.5l-0.1-0.1l-0.1-0.1l-0.2-0.3c-0.1-0.3-0.4-0.8-0.5-1.1l-0.4-0.6
				c-0.1-0.1-0.2-0.4-0.3-0.5c-0.1-0.2-0.4-0.6-0.5-0.8l-0.3-0.5l-0.1-0.2l-0.1-0.2l-0.2-0.3c-0.1-0.2-0.2-0.6-0.3-0.8l-0.6-1
				c-0.1-0.1-0.2-0.3-0.2-0.4c-0.1-0.1-0.2-0.3-0.2-0.4l-0.6-1c0,0-0.1-0.1-0.1-0.2l-0.6-1c0,0-0.1-0.1-0.1-0.2l-0.6-1
				c-0.1-0.1-0.2-0.3-0.2-0.4c-0.1-0.1-0.2-0.3-0.2-0.4l-0.6-1c0-0.1-0.1-0.2-0.1-0.2l-0.5-0.8c0-0.1-0.1-0.2-0.2-0.3
				c-0.2-0.4-0.7-1.2-0.9-1.5c0-0.1-0.1-0.2-0.2-0.3c-10.1-17.7-20.4-35.4-30.6-53.1c-7-12.1-14-24.2-21-36.3c0-0.1-0.1-0.2-0.2-0.3
				c-0.7-1.3-1.4-2.5-2.2-3.8c0-0.1-0.1-0.2-0.2-0.3c-0.7-1.3-1.5-2.6-2.2-3.9c0,0-0.1-0.1-0.1-0.2c-0.7-1.3-1.5-2.6-2.2-3.9
				c0-0.1-0.1-0.2-0.2-0.3c-0.5-0.9-1.1-1.8-1.6-2.7c0,0-0.1-0.1-0.1-0.2c-2.9-5-5.8-10.1-8.7-15.1c0,0-0.1-0.1-0.1-0.2
				c-1.5-2.7-3.1-5.3-4.6-8c0-0.1-0.1-0.2-0.2-0.3c-0.3-0.6-0.7-1.2-1-1.8c-15.8-0.2-31.6,0-47.3-0.1C136,0,116.9,0,97.8,0l0,0.3
				l0,0.3c1.3,1.6,2.2,3.5,3.2,5.2C117.4,34,133.7,62.3,150,90.5c0.4,0.6,0.7,1.2,1.1,1.8c0,0.1,0.1,0.2,0.2,0.3
				c0.2,0.4,0.7,1.2,0.9,1.6c0,0.1,0.1,0.2,0.2,0.3l0.5,0.9c0,0,0.1,0.1,0.1,0.2l0.6,1c0.1,0.1,0.2,0.3,0.2,0.4
				c0.1,0.1,0.2,0.3,0.2,0.4l0.6,1c0,0.1,0.1,0.2,0.1,0.2c0.4,0.7,0.8,1.3,1.2,2c0.1,0.1,0.2,0.3,0.2,0.4c0.2,0.4,0.7,1.2,0.9,1.6
				c0.1,0.1,0.2,0.3,0.2,0.3l0.5,0.9c0.1,0.2,0.3,0.6,0.5,0.8l0.2,0.3c0,0.1,0.1,0.2,0.1,0.2c0.3,0.5,0.8,1.4,1,1.9
				c0.1,0.2,0.3,0.5,0.4,0.6l0.2,0.3c0,0,0.1,0.1,0.1,0.2c0.5,1,1.1,2,1.6,3c0.1,0.2,0.3,0.5,0.4,0.7l0.2,0.3c0,0,0.1,0.1,0.1,0.2
				c0.2,0.4,0.7,1.3,0.9,1.7c0.1,0.1,0.2,0.3,0.2,0.4l0.4,0.7c0.1,0.1,0.2,0.3,0.2,0.4l0.5,0.9c0.1,0.1,0.2,0.3,0.2,0.4
				c0.1,0.1,0.2,0.3,0.2,0.4l0.6,1c0,0,0.1,0.1,0.1,0.2l0.6,1c0,0.1,0.1,0.2,0.2,0.3l0.4,0.6c0.1,0.1,0.2,0.3,0.3,0.4
				c0.3,0.4,0.8,1.3,1,1.7c0.1,0.2,0.3,0.5,0.4,0.7l0.2,0.3c0,0.1,0.1,0.1,0.1,0.2c0.3,0.4,0.8,1.2,1,1.6l0,0.1l0,0.1
				c0.3,0.8,0.7,1.5,1.1,2.3c0.1,0.1,0.1,0.3,0.2,0.3c0.1,0.1,0.2,0.3,0.2,0.4l0.6,0.9c0,0.1,0.1,0.2,0.1,0.2l0.4,0.7
				c6.8,2.5,13.8,4.3,20.6,6.5c7.3,2.2,14.6,4.5,22,6.6c13.4,4.3,26.9,8.2,40.2,12.5c14.7,4.1,29.2,9.1,43.9,13.3l0-0.5L298.7,167z"
				/>
			<polygon id="XMLID_173_" class="st49" points="299.6,168.7 299.3,168.7 299.4,169.2 299.8,169.1 			"/>
		</g>
		<g id="XMLID_74_">
			<path id="XMLID_175_" class="st50" d="M255.4,155.4c-13.4-4.3-26.9-8.2-40.2-12.5c-7.4-2.1-14.7-4.5-22-6.6
				c-6.8-2.3-13.8-4-20.6-6.5c7.6,13.2,15.3,26.3,22.8,39.6l0.4,0c18.1,0.1,36.1,0,54.2,0c16.5-0.1,33,0.2,49.5-0.2l-0.1-0.5
				C284.6,164.5,270.2,159.4,255.4,155.4z"/>
			<path id="XMLID_176_" class="st50" d="M299.3,168.1l0,0.5l0.3,0C299.5,168.6,299.4,168.3,299.3,168.1z"/>
		</g>
		<g id="_x23_296ad9ff">
			<path id="XMLID_9_" class="st51" d="M86.4,200.2c6.1-10.3,11.8-20.8,18.1-31c30.3,0.1,60.6-0.2,90.9,0.1l0.4,0
				c-15.3,0.5-30.7-0.1-46,0.3c-2.9,1.9-4.9,4.9-7.7,7c-2.6,1.9-4.5,4.5-7,6.6c-3.5,2.6-6.1,6.1-9.6,8.6c-4.1,4.3-8.8,8-12.9,12.3
				c-3.1,2.4-5.7,5.3-8.5,7.9c-3.2,2.3-5.6,5.4-8.5,7.9c-0.1,0.1-0.2,0.2-0.3,0.3c-0.2,0.1-0.5,0.4-0.6,0.5
				c-0.1,0.1-0.2,0.2-0.3,0.2c-2.3,1.8-4.1,4.2-6.4,6c-0.1,0.1-0.2,0.2-0.3,0.2c-0.1,0.1-0.2,0.2-0.3,0.2c-3.3,2.7-6,6.2-9.5,8.8
				c-3.5,3.5-7.5,6.5-10.9,10.2c-5,4.1-9.2,8.9-14.3,12.8c1.3-2.8,2.9-5.3,4.4-7.9C66.8,234.2,76.6,217.2,86.4,200.2z"/>
			<path id="XMLID_8_" class="st51" d="M52.3,259.5c0.1-0.1,0.2-0.3,0.3-0.4l0,0.4L52.3,259.5z"/>
		</g>
		<g id="_x23_2a71e9ff">
			<path id="XMLID_7_" class="st52" d="M195.8,169.3c18.1,0.1,36.1,0,54.2,0c16.5-0.1,33,0.2,49.5-0.2l0.3,0l0.2,0.1v0
				c-17.4,30.1-34.8,60.2-52.2,90.3c-65.1,0-130.2,0.1-195.3,0l0-0.4c5.1-3.9,9.4-8.7,14.3-12.8c3.4-3.7,7.3-6.7,10.9-10.2
				c3.5-2.6,6.2-6,9.5-8.8c0.1-0.1,0.2-0.2,0.3-0.2c0.1-0.1,0.2-0.2,0.3-0.2c2.3-1.8,4.1-4.2,6.4-6c0.1-0.1,0.2-0.2,0.3-0.2
				c0.2-0.1,0.5-0.4,0.6-0.5c0.1-0.1,0.2-0.2,0.3-0.3c3-2.5,5.4-5.6,8.5-7.9c2.9-2.6,5.5-5.5,8.5-7.9c4.1-4.3,8.8-7.9,12.9-12.3
				c3.5-2.5,6.1-6.1,9.6-8.6c2.5-2,4.4-4.7,7-6.6c2.8-2.1,4.7-5.1,7.7-7C165.1,169.2,180.4,169.8,195.8,169.3z"/>
		</g>
		<g id="_x23_286ee6ff">
			<path id="XMLID_6_" class="st53" d="M95.2,220.1c0.1-0.1,0.2-0.2,0.3-0.3C95.4,219.9,95.2,220.1,95.2,220.1z"/>
			<path id="XMLID_5_" class="st53" d="M94.5,220.6c0.2-0.1,0.5-0.4,0.6-0.5C95,220.3,94.7,220.5,94.5,220.6z"/>
			<path id="XMLID_4_" class="st53" d="M94.2,220.9c0.1-0.1,0.2-0.2,0.3-0.2C94.5,220.7,94.3,220.8,94.2,220.9z"/>
			<path id="XMLID_3_" class="st53" d="M87.5,227.2c0.1-0.1,0.2-0.2,0.3-0.2C87.8,227,87.6,227.1,87.5,227.2z"/>
			<path id="XMLID_2_" class="st53" d="M87.2,227.4c0.1-0.1,0.2-0.2,0.3-0.2C87.5,227.2,87.3,227.3,87.2,227.4z"/>
		</g>
	</g>
</g>
<g id="Layer_2">
</g>
</svg>
