<?xml version="1.0" encoding="utf-8"?>
<!-- Generator: Adobe Illustrator 19.1.0, SVG Export Plug-In . SVG Version: 6.00 Build 0)  -->
<svg version="1.1" id="Layer_1" xmlns="http://www.w3.org/2000/svg" xmlns:xlink="http://www.w3.org/1999/xlink" x="0px" y="0px"
	 viewBox="0 0 300 243.8" style="enable-background:new 0 0 300 243.8;" xml:space="preserve">
<style type="text/css">
	.st0{fill:#832EAB;}
	.st1{fill:#BABABA;}
	.st2{fill:none;}
	.st3{fill:#8DC63F;}
	.st4{fill:#0F9BD7;}
	.st5{fill:#FFFFFF;}
	.st6{fill-rule:evenodd;clip-rule:evenodd;fill:#FFFFFF;}
	.st7{fill:#1DA1F2;}
	.st8{fill:#3D5A98;}
	.st9{fill:#231F20;}
	.st10{fill:#007BB5;}
	.st11{fill:#DC4E41;}
	.st12{fill-rule:evenodd;clip-rule:evenodd;fill:#181616;}
	.st13{fill:#181616;}
	.st14{fill:#F2F2F2;}
	.st15{fill:#E3E3E3;}
	.st16{fill:#D54B3D;}
	.st17{fill:#D72B27;}
	.st18{opacity:0.56;fill:url(#SVGID_1_);}
	.st19{fill:#92D400;}
	.st20{fill:#00B9E4;}
	.st21{fill:#2B3990;}
	.st22{fill:#3F9C35;}
	.st23{fill:#8FCED8;}
	.st24{fill:#D21F21;}
	.st25{fill:#D6D6D6;}
	.st26{fill:#F1F1F1;}
	.st27{fill:#C32265;}
	.st28{fill:#8C3123;}
	.st29{fill:#E05243;}
	.st30{fill:#5E1F18;}
	.st31{fill:#F2B0A9;}
	.st32{fill:#CACCCE;}
	.st33{fill:#A1AFDB;}
	.st34{fill:#002087;}
</style>
<path class="st7" d="M94.3,243.8c113.2,0,175.1-93.8,175.1-175.1c0-2.7-0.1-5.3-0.2-8c12-8.7,22.5-19.5,30.7-31.9
	c-11,4.9-22.9,8.2-35.3,9.7c12.7-7.6,22.5-19.7,27.1-34c-11.9,7.1-25.1,12.2-39.1,14.9C241.4,7.5,225.4,0,207.7,0
	c-34,0-61.6,27.6-61.6,61.5c0,4.8,0.5,9.5,1.6,14C96.6,73,51.2,48.5,20.9,11.3c-5.3,9.1-8.3,19.7-8.3,30.9
	c0,21.4,10.9,40.2,27.4,51.2c-10.1-0.3-19.6-3.1-27.9-7.7c0,0.3,0,0.5,0,0.8c0,29.8,21.2,54.7,49.4,60.3c-5.2,1.4-10.6,2.2-16.2,2.2
	c-4,0-7.8-0.4-11.6-1.1c7.8,24.5,30.6,42.2,57.5,42.7C70.1,207.2,43.5,217,14.7,217c-5,0-9.9-0.3-14.7-0.9
	C27.2,233.6,59.6,243.8,94.3,243.8"/>
</svg>
