<?xml version="1.0" encoding="UTF-8" standalone="no"?>
<svg
   xmlns:dc="http://purl.org/dc/elements/1.1/"
   xmlns:cc="http://creativecommons.org/ns#"
   xmlns:rdf="http://www.w3.org/1999/02/22-rdf-syntax-ns#"
   xmlns:svg="http://www.w3.org/2000/svg"
   xmlns="http://www.w3.org/2000/svg"
   xmlns:xlink="http://www.w3.org/1999/xlink"
   version="1.1"
   width="86.289108"
   height="117.99319"
   id="svg13"
   viewBox="0 0 86.289107 117.99318">
  <metadata
     id="metadata19">
    <rdf:RDF>
      <cc:Work
         rdf:about="">
        <dc:format>image/svg+xml</dc:format>
        <dc:type
           rdf:resource="http://purl.org/dc/dcmitype/StillImage" />
        <dc:title></dc:title>
        <cc:license
           rdf:resource="" />
      </cc:Work>
    </rdf:RDF>
  </metadata>
  <defs
     id="defs17">
    <linearGradient
       id="linearGradient4561">
      <stop
         style="stop-color:#0a4124;stop-opacity:1"
         offset="0"
         id="stop4565" />
      <stop
         style="stop-color:#23a565;stop-opacity:1"
         offset="1"
         id="stop4567" />
    </linearGradient>
    <linearGradient
       gradientTransform="translate(-128.5,10.5)"
       gradientUnits="userSpaceOnUse"
       y2="92.293022"
       x2="175.62439"
       y1="5.2422252"
       x1="168.91252"
       id="linearGradient4563"
       xlink:href="#linearGradient4561" />
  </defs>
  <g
     transform="translate(27.88424,-41.8617)"
     id="g4587">
    <path
       d="m -21.89372,41.8617 h 47.53814 l 32.76045,32.642284 -0.28763,79.179946 c -0.0123,3.39391 -2.69578,6.17096 -5.99052,6.17096 h -74.02044 c -3.29473,0 -5.99052,-2.77702 -5.99052,-6.17096 V 48.032576 c 0,-3.393941 2.69579,-6.170876 5.99052,-6.170876 z"
       style="fill:#23a565;fill-rule:evenodd;stroke-width:0.80732274"
       id="path2" />
    <path
       d="M 58.40487,74.503984 25.64442,41.8617 l 0.0668,26.465742 c 0.008,3.35083 2.66135,6.082062 5.91415,6.092295 z"
       style="fill:#8bd1b5;fill-rule:evenodd;stroke-width:0.80732274"
       id="path4" />
    <path
       d="M -5.7238996,100.15429 H 35.83894 v 37.69772 H -5.7238996 Z m 4.28407,26.83419 H 13.27063 v 6.51587 H -1.4398296 Z M 16.84441,104.50174 h 14.71047 v 6.51587 H 16.84441 Z m 0,22.48674 h 14.71047 v 6.51587 H 16.84441 Z m 0,-11.24341 h 14.71047 v 6.51588 H 16.84441 Z M -1.4398296,104.50174 H 13.27063 v 6.51587 H -1.4398296 Z m 0,11.24333 H 13.27063 v 6.51588 H -1.4398296 Z"
       style="fill:#ffffff;fill-rule:evenodd;stroke-width:0.69347739"
       id="path10" />
    <path
       style="fill:url(#linearGradient4563);fill-opacity:1;fill-rule:evenodd;stroke-width:0.80732274"
       d="M 28.88477,73.712891 C 37.81006,83.984484 47.75821,93.4047 57.90625,103.55273 L 58.30078,103.1582 58.4043,74.503906 31.625,74.419922 c -0.98878,-0.0031 -1.9197,-0.260093 -2.74023,-0.707031 z"
       id="path4536" />
  </g>
</svg>
