<?xml version="1.0" encoding="utf-8"?>
<!-- Generator: Adobe Illustrator 19.1.0, SVG Export Plug-In . SVG Version: 6.00 Build 0)  -->
<svg version="1.1" id="Layer_1" xmlns="http://www.w3.org/2000/svg" xmlns:xlink="http://www.w3.org/1999/xlink" x="0px" y="0px"
	 viewBox="0 0 300 228.7" style="enable-background:new 0 0 300 228.7;" xml:space="preserve">
<style type="text/css">
	.st0{fill:#832EAB;}
	.st1{fill:#BABABA;}
	.st2{fill:none;}
	.st3{fill:#8DC63F;}
	.st4{fill:#0F9BD7;}
	.st5{fill:#FFFFFF;}
	.st6{fill-rule:evenodd;clip-rule:evenodd;fill:#FFFFFF;}
	.st7{fill:#1DA1F2;}
	.st8{fill:#3D5A98;}
	.st9{fill:#231F20;}
	.st10{fill:#007BB5;}
	.st11{fill:#DC4E41;}
	.st12{fill-rule:evenodd;clip-rule:evenodd;fill:#181616;}
	.st13{fill:#181616;}
	.st14{fill:#F2F2F2;}
	.st15{fill:#E3E3E3;}
	.st16{fill:#D54B3D;}
	.st17{fill:#D72B27;}
	.st18{opacity:0.56;fill:url(#SVGID_1_);}
	.st19{fill:#92D400;}
	.st20{fill:#00B9E4;}
	.st21{fill:#2B3990;}
	.st22{fill:#3F9C35;}
	.st23{fill:#8FCED8;}
	.st24{fill:#D21F21;}
	.st25{fill:#D6D6D6;}
	.st26{fill:#F1F1F1;}
	.st27{fill:#C32265;}
	.st28{fill:#8C3123;}
	.st29{fill:#E05243;}
	.st30{fill:#5E1F18;}
	.st31{fill:#F2B0A9;}
	.st32{fill:#CACCCE;}
	.st33{fill:#A1AFDB;}
	.st34{fill:#002087;}
</style>
<g>
	<path class="st14" d="M280.9,228.4H18.8C8.6,228.4,0,220.1,0,209.7V20.3C0,10.2,8.3,1.6,18.8,1.6h262.1c10.2,0,18.7,8.3,18.7,18.7
		v189.4C299.6,220.1,291.3,228.4,280.9,228.4L280.9,228.4z"/>
	<path class="st15" d="M37.5,228.4l112.1-90.1l0.8-4.8L34.8,50.3l-0.3,174.1L37.5,228.4z"/>
	<path class="st16" d="M18.8,228.4C8.3,228.4,0,220.1,0,209.7V20.1C0,9.6,8.3,7.8,18.8,7.8s18.7,2.1,18.7,12.3v208.4H18.8
		L18.8,228.4z"/>
	<path class="st17" d="M18.8,10.4c13.4,0,16,4,16,9.6v205.7h-16c-8.8,0-16-7.2-16-16V20.1C2.7,14.2,5.4,10.4,18.8,10.4L18.8,10.4z
		 M18.8,7.8C8.3,7.8,0,9.9,0,20.1v189.6c0,10.4,8.3,18.7,18.7,18.7h18.7V20.1C37.5,9.6,29.2,7.8,18.8,7.8L18.8,7.8L18.8,7.8z"/>
	<path class="st16" d="M280.9,228.4h-18.7V19.5c0-10.4,8.3-11.8,18.7-11.8c10.4,0,18.7,1.3,18.7,11.8V210
		C299.6,220.1,291.3,228.4,280.9,228.4L280.9,228.4z"/>
	<path class="st17" d="M280.9,10.4c12,0,16,2.4,16,9.1V210c0,8.8-7.2,16-16,16h-16V19.5C264.8,12.6,268.8,10.4,280.9,10.4
		L280.9,10.4z M280.9,7.8c-10.4,0-18.7,1.3-18.7,11.8v209.2h18.7c10.4,0,18.7-8.3,18.7-18.7V19.5C299.6,9.1,291.3,7.8,280.9,7.8
		L280.9,7.8L280.9,7.8z"/>
	
		<linearGradient id="SVGID_1_" gradientUnits="userSpaceOnUse" x1="-2509.2834" y1="719.1258" x2="-2508.1064" y2="719.1258" gradientTransform="matrix(253.1598 0 0 -174.8345 635251.375 125853.5547)">
		<stop  offset="0" style="stop-color:#000000;stop-opacity:0.1"/>
		<stop  offset="1" style="stop-color:#000000;stop-opacity:0.2"/>
	</linearGradient>
	<path class="st18" d="M200.6,228.4L1.6,27.9l10.5,4.3l138.5,99.8l149-109.2l0,187.3c0,10.2-8.3,18.5-18.7,18.5H200.6z"/>
	<path class="st16" d="M149.5,138.3L8.1,35.6C-0.2,29.4-2.6,17.7,3.5,9.4s18.2-10.2,26.7-4l119.6,86.9l120.4-88
		c8.3-6.2,20.1-4.3,26.2,4.3c6.2,8.3,4.3,20.1-4.3,26.2L149.5,138.3L149.5,138.3z"/>
	<path class="st17" d="M280.9,3.2L280.9,3.2c5.1,0,9.9,2.4,13.1,6.7c5.1,7.2,3.5,17.1-3.5,22.5l-141,102.7L9.7,33.5
		c-7.2-5.3-9.1-15.5-4-22.5c2.9-4,8-6.7,13.4-6.7c3.5,0,7,1.1,9.6,3.2l119.3,86.7l1.6,1.1l1.6-1.1l120.1-88
		C274.2,4.3,277.4,3.2,280.9,3.2L280.9,3.2z M280.9,0.6c-3.7,0-7.8,1.1-11,3.5L149.5,92L30,5.1c-3.2-2.4-7.2-3.5-11.2-3.5
		C12.9,1.6,7,4.3,3.2,9.4c-5.9,8.3-3.5,20.1,4.8,26.2l141.5,103L291.8,34.8c8.3-6.2,10.2-17.7,4.3-26.2
		C292.4,3.2,286.8,0.6,280.9,0.6L280.9,0.6L280.9,0.6z"/>
</g>
</svg>
