<?xml version="1.0" encoding="utf-8"?>
<!-- Generator: Adobe Illustrator 19.1.0, SVG Export Plug-In . SVG Version: 6.00 Build 0)  -->
<svg version="1.1" id="Layer_1" xmlns="http://www.w3.org/2000/svg" xmlns:xlink="http://www.w3.org/1999/xlink" x="0px" y="0px"
	 viewBox="0 0 300 284.9" style="enable-background:new 0 0 300 284.9;" xml:space="preserve">
<style type="text/css">
	.st0{fill:#832EAB;}
	.st1{fill:#BABABA;}
	.st2{fill:none;}
	.st3{fill:#8DC63F;}
	.st4{fill:#0F9BD7;}
	.st5{fill:#FFFFFF;}
	.st6{fill-rule:evenodd;clip-rule:evenodd;fill:#FFFFFF;}
	.st7{fill:#1DA1F2;}
	.st8{fill:#3D5A98;}
	.st9{fill:#231F20;}
	.st10{fill:#007BB5;}
	.st11{fill:#DC4E41;}
	.st12{fill-rule:evenodd;clip-rule:evenodd;fill:#181616;}
	.st13{fill:#181616;}
	.st14{fill:#F2F2F2;}
	.st15{fill:#E3E3E3;}
	.st16{fill:#D54B3D;}
	.st17{fill:#D72B27;}
	.st18{opacity:0.56;fill:url(#SVGID_1_);}
	.st19{fill:#92D400;}
	.st20{fill:#00B9E4;}
	.st21{fill:#2B3990;}
	.st22{fill:#3F9C35;}
	.st23{fill:#8FCED8;}
	.st24{fill:#D21F21;}
	.st25{fill:#D6D6D6;}
	.st26{fill:#F1F1F1;}
	.st27{fill:#C32265;}
	.st28{fill:#8C3123;}
	.st29{fill:#E05243;}
	.st30{fill:#5E1F18;}
	.st31{fill:#F2B0A9;}
	.st32{fill:#CACCCE;}
	.st33{fill:#A1AFDB;}
	.st34{fill:#002087;}
	.st35{fill:#6C4199;}
	.st36{fill:#C7C7C7;}
	.st37{fill:#1976D2;}
	.st38{fill:#1E88E5;}
	.st39{fill:#FAFAFA;}
	.st40{fill:#E0E0E0;}
</style>
<g id="Layer_3">
	<path class="st36" d="M255,0C207.7,0,92.3,0,45.1,0c-8.3,0-15,6.7-15,15c0,22.8,0,22.5,0,22.5H270c0,0,0,0.4,0-22.5
		C270,6.7,263.3,0,255,0z M75,22.5c-4.1,0-7.5-3.4-7.5-7.5s3.4-7.5,7.5-7.5s7.5,3.4,7.5,7.5S79.2,22.5,75,22.5z M225,22.5
		c-4.1,0-7.5-3.4-7.5-7.5s3.4-7.5,7.5-7.5s7.5,3.4,7.5,7.5S229.1,22.5,225,22.5z"/>
	<path class="st37" d="M300,45c0.8-4.4-10.6-15-15-15c-53.3,0-216.6,0-269.9,0c-7.5,0-15.8,10.6-15,15c6.2,35,22.5,112.5,22.5,112.5
		h254.9C277.5,157.4,293.8,79.9,300,45z"/>
	<path class="st38" d="M277.5,157.4H22.6c0,0-16.3,77.5-22.5,112.5c0,8.6,5.9,15,15,15c53.3,0,216.6,0,269.9,0c4.4,0,15-3.7,15-15
		C293.8,234.9,277.5,157.4,277.5,157.4z"/>
	<path class="st39" d="M124,157.4c7.4,2.4,12.6,6.4,15.8,11.7c3.2,5.5,4.9,11.6,4.9,18.4c0,11.9-3.9,21.2-11.7,28
		c-7.8,6.8-17.7,10.2-29.8,10.2c-11.9,0-21.7-3.2-29.5-9.6C66,209.7,62.2,201,62.5,190l0.3-0.5h16.8c0,6.9,2.1,12.3,6.3,16.4
		c4.2,4.1,10,6.1,17.3,6.1c7.5,0,13.3-2,17.5-6.1c4.2-4.1,6.4-10,6.4-18c0-8-1.9-14-5.6-17.8c-3.8-3.8-9.7-5.7-17.8-5.7H88.3v-6.9
		H124z"/>
	<rect x="207.3" y="157.4" class="st39" width="17.6" height="66.4"/>
	<path class="st40" d="M80.5,127.7H63.6l-0.2-0.5c-0.3-9.8,3.3-18.2,10.7-25.1c7.4-6.9,17.1-10.3,29.1-10.3c12,0,21.6,3.2,28.8,9.6
		c7.2,6.4,10.7,15.5,10.7,27.4c0,5.4-1.6,10.7-4.9,16.1c-3.2,5.3-8.1,9.4-14.6,12.2l0.8,0.4H88.3v-6.8h15.4c7.8,0,13.3-1.9,16.6-5.9
		c3.2-3.9,4.9-9.3,4.9-16.3c0-7.5-1.8-13.1-5.5-17c-3.7-3.9-9.1-5.8-16.4-5.8c-6.9,0-12.4,2-16.5,6
		C82.7,115.6,80.6,120.7,80.5,127.7z"/>
	<polygon class="st40" points="224.9,157.4 207.3,157.4 207.3,110.8 180.6,111.2 180.6,98.5 224.9,93.7 	"/>
	<path class="st37" d="M15.1,30C4.3,30-0.7,40.6,0.1,45c6.2,35,22.5,112.5,22.5,112.5"/>
	<path class="st37" d="M277.5,157.4c0,0,16.3-77.5,22.5-112.5c0-12.2-10.6-15-15-15"/>
</g>
</svg>
