<?xml version="1.0" ?><!DOCTYPE svg  PUBLIC '-//W3C//DTD SVG 1.1//EN'  'http://www.w3.org/Graphics/SVG/1.1/DTD/svg11.dtd'><svg enable-background="new 0 0 100 100" height="100px" version="1.1" viewBox="0 0 100 100" width="100px" xml:space="preserve" xmlns="http://www.w3.org/2000/svg" xmlns:xlink="http://www.w3.org/1999/xlink"><g id="Amazon_CloudSearch"><g><polygon fill="#B8852E" points="43.174,74.325 36.979,72.589 31.119,65.907 37.652,66.448   "/><polygon fill="#D9A741" points="43.174,74.325 47.612,65.034 43.465,64.45 37.652,66.448   "/><polygon fill="#B8852E" points="28.848,69.919 25.361,68.942 22.066,65.185 25.596,65.2   "/><polygon fill="#D9A741" points="28.848,69.919 31.342,64.694 29.01,64.364 25.596,65.2   "/><polygon fill="#876929" points="20,64.712 23.563,65.437 23.563,33.054 20,35.083   "/><polygon fill="#D9A741" points="37.328,36.28 37.328,64.157 23.564,65.437 23.564,33.054   "/><polygon fill="#876929" points="27.959,66.38 34.067,67.61 34.067,27.858 27.959,30.954   "/><polygon fill="#D9A741" points="68.922,39.048 68.922,63.126 34.067,67.611 34.067,27.858   "/><polygon fill="#B8852E" points="62.617,80.058 53.812,77.591 45.49,68.099 54.771,68.869   "/><polygon fill="#D9A741" points="62.617,80.058 68.922,66.86 63.029,66.026 54.771,68.869   "/><polygon fill="#876929" points="40.998,68.915 49.981,70.653 49.981,19.942 40.998,24.433   "/><polygon fill="#D9A741" points="49.982,70.653 80,64.64 80,34.95 49.982,19.942   "/></g></g></svg>