<?xml version="1.0" encoding="utf-8"?>
<!-- Generator: Adobe Illustrator 19.1.0, SVG Export Plug-In . SVG Version: 6.00 Build 0)  -->
<svg version="1.1" xmlns="http://www.w3.org/2000/svg" xmlns:xlink="http://www.w3.org/1999/xlink" x="0px" y="0px"
	 viewBox="0 0 195.2 300" style="enable-background:new 0 0 195.2 300;" xml:space="preserve">
<style type="text/css">
	.st0{fill:#832EAB;}
	.st1{fill:#FECD00;}
	.st2{fill:#00AEEF;}
	.st3{fill:none;}
	.st4{fill:#8DC63F;}
	.st5{fill:#0F9BD7;}
	.st6{fill:#FFFFFF;}
	.st7{fill-rule:evenodd;clip-rule:evenodd;fill:#FFFFFF;}
	.st8{fill:#1DA1F2;}
	.st9{fill:#3D5A98;}
	.st10{fill:#231F20;}
	.st11{fill:#007BB5;}
	.st12{fill:#DC4E41;}
	.st13{fill-rule:evenodd;clip-rule:evenodd;fill:#181616;}
	.st14{fill:#181616;}
	.st15{fill:#F2F2F2;}
	.st16{fill:#E3E3E3;}
	.st17{fill:#D54B3D;}
	.st18{fill:#D72B27;}
	.st19{opacity:0.56;fill:url(#SVGID_1_);}
	.st20{fill:#BABABA;}
	.st21{fill:#92D400;}
	.st22{fill:#00B9E4;}
	.st23{fill:#2B3990;}
	.st24{fill:#3F9C35;}
	.st25{fill:#8FCED8;}
	.st26{fill:#D21F21;}
	.st27{fill:#FFF8DA;}
	.st28{fill:#C32265;}
	.st29{fill:#D6D6D6;}
	.st30{fill:#F1F1F1;}
	.st31{fill:#8C3123;}
	.st32{fill:#E05243;}
	.st33{fill:#5E1F18;}
	.st34{fill:#F2B0A9;}
	.st35{fill:#CACCCE;}
	.st36{fill:#A1AFDB;}
	.st37{fill:#002087;}
	.st38{fill:#6C4199;}
	.st39{fill:#C7C7C7;}
	.st40{fill:#1976D2;}
	.st41{fill:#1E88E5;}
	.st42{fill:#FAFAFA;}
	.st43{fill:#E0E0E0;}
	.st44{fill:#F6A11F;}
	.st45{fill:#0A6DAE;}
	.st46{fill:#0BA25E;}
	.st47{fill:#089156;}
	.st48{fill:#10985B;}
	.st49{fill:#F9C941;}
	.st50{fill:#E8B835;}
	.st51{fill:#296AD9;}
	.st52{fill:#2A71E9;}
	.st53{fill:#286EE6;}
	.st54{fill:#009444;}
	.st55{fill:#006838;}
	.st56{fill:#BCBEC0;}
	.st57{fill:#2BB673;}
	.st58{fill:#F7941E;}
	.st59{fill:#EF4136;}
	.st60{fill:#FFFFFF;stroke:#231F20;stroke-width:10;stroke-linecap:round;stroke-linejoin:round;stroke-miterlimit:10;}
	.st61{fill:#D1D3D4;stroke:#231F20;stroke-width:10;stroke-linecap:round;stroke-linejoin:round;stroke-miterlimit:10;}
	.st62{fill:#231F20;stroke:#231F20;stroke-width:10;stroke-linecap:round;stroke-linejoin:round;stroke-miterlimit:10;}
	.st63{fill:none;stroke:#231F20;stroke-width:10;stroke-miterlimit:10;}
	.st64{fill:none;stroke:#231F20;stroke-width:10;stroke-linejoin:round;stroke-miterlimit:10;}
	.st65{fill:#E1DFE4;}
	.st66{fill:#35474F;}
	.st67{fill:#FC002F;}
	.st68{fill:#FDD518;}
	.st69{fill:#00E769;}
	.st70{fill:#D1D3D4;}
	.st71{fill:#27AAE1;}
	.st72{fill:#231F20;stroke:#27AAE1;stroke-miterlimit:10;}
	.st73{fill:url(#SVGID_2_);}
	.st74{fill:url(#SVGID_3_);}
	.st75{fill:url(#SVGID_4_);}
	.st76{fill:url(#SVGID_5_);}
	.st77{fill:url(#SVGID_6_);}
	.st78{fill:url(#SVGID_7_);}
</style>
<g id="Layer_1">
</g>
<g id="Layer_2">
	<g>
		<linearGradient id="SVGID_1_" gradientUnits="userSpaceOnUse" x1="62.6441" y1="268.2014" x2="30.7208" y2="87.1553">
			<stop  offset="0.1539" style="stop-color:#FFE40E"/>
			<stop  offset="0.9105" style="stop-color:#E10E19"/>
		</linearGradient>
		<path style="fill:url(#SVGID_1_);" d="M79.6,78.5l-44,38.5c0,0-43.6,34.7-34.3,88.9c0,0,2.9,29.2,43.3,65.5c0,0-33-41.1-26.6-90.2
			S79.3,83.7,79.6,78.5z"/>
		<linearGradient id="SVGID_2_" gradientUnits="userSpaceOnUse" x1="84.2718" y1="298.1672" x2="84.2718" y2="-1.291482e-09">
			<stop  offset="0.1539" style="stop-color:#FFE40E"/>
			<stop  offset="0.1969" style="stop-color:#FEDB0E"/>
			<stop  offset="0.267" style="stop-color:#FAC310"/>
			<stop  offset="0.3555" style="stop-color:#F59B12"/>
			<stop  offset="0.4589" style="stop-color:#ED6415"/>
			<stop  offset="0.5735" style="stop-color:#E31F18"/>
			<stop  offset="0.5995" style="stop-color:#E10E19"/>
		</linearGradient>
		<path class="st73" d="M113,0c0,0,12.5,43.8-18.3,79.9s-130.4,139.3-4.6,218.3c0,0-38-44.8,7.2-111.7C138.5,125.8,161.7,84,113,0z"
			/>
		<linearGradient id="SVGID_3_" gradientUnits="userSpaceOnUse" x1="140.5353" y1="300" x2="140.5353" y2="85.276">
			<stop  offset="0.1539" style="stop-color:#FFE40E"/>
			<stop  offset="0.2096" style="stop-color:#FEDB0E"/>
			<stop  offset="0.3005" style="stop-color:#FAC310"/>
			<stop  offset="0.4151" style="stop-color:#F59B12"/>
			<stop  offset="0.5489" style="stop-color:#ED6415"/>
			<stop  offset="0.6974" style="stop-color:#E31F18"/>
			<stop  offset="0.7311" style="stop-color:#E10E19"/>
		</linearGradient>
		<path class="st74" d="M149.7,85.3c0,0,6.1,32.7-25.3,84.1s-54.9,61.9-24.1,130.6c0,0,83.1,5.8,95-93.4c0,0-9.3,21.5-31.1,34.7
			C164.1,241.2,204.9,171.9,149.7,85.3z"/>
		<linearGradient id="SVGID_4_" gradientUnits="userSpaceOnUse" x1="123.5156" y1="293.8406" x2="123.5156" y2="171.2688">
			<stop  offset="7.259855e-02" style="stop-color:#FFF8DA"/>
			<stop  offset="0.5363" style="stop-color:#FFEE6F"/>
			<stop  offset="1" style="stop-color:#FFE400"/>
		</linearGradient>
		<path class="st75" d="M103.3,293.8c0,0-18.9-35.3,6.1-67.7s27.3-25.7,39.8-54.9c0,0,10.3,50.7-23.1,100.1c0,0,11.3-1.6,24.6-9.9
			C150.6,261.4,137.3,291,103.3,293.8z"/>
		<linearGradient id="SVGID_5_" gradientUnits="userSpaceOnUse" x1="85.8268" y1="284.2145" x2="85.8268" y2="60.5691">
			<stop  offset="0.125" style="stop-color:#FFF8DA"/>
			<stop  offset="0.5106" style="stop-color:#FFE400"/>
			<stop  offset="0.5929" style="stop-color:#FBCE03"/>
			<stop  offset="0.7645" style="stop-color:#F2950C"/>
			<stop  offset="1" style="stop-color:#E33E19"/>
		</linearGradient>
		<path class="st76" d="M79.3,284.2c0,0-21.8-22.1-9.3-73.8s56.6-46.2,53.3-149.8c0,0-9,46.2-37.6,68.3
			C57.2,151.1,20.9,223.9,79.3,284.2z"/>
		<linearGradient id="SVGID_6_" gradientUnits="userSpaceOnUse" x1="93.6931" y1="269.2292" x2="93.6931" y2="2.9476">
			<stop  offset="7.259855e-02" style="stop-color:#FFF8DA"/>
			<stop  offset="0.2481" style="stop-color:#FFF3A0"/>
			<stop  offset="0.4403" style="stop-color:#FFED67"/>
			<stop  offset="0.6185" style="stop-color:#FFE93B"/>
			<stop  offset="0.7768" style="stop-color:#FFE61B"/>
			<stop  offset="0.9094" style="stop-color:#FFE507"/>
			<stop  offset="1" style="stop-color:#FFE400"/>
		</linearGradient>
		<path class="st77" d="M137.7,2.9c0,0,13.8,38.2-21.8,93.1s-84,92-48.1,173.2c0,0-35.4-45.5-13.9-97.5
			C80.6,107.6,150.1,74.2,137.7,2.9z"/>
	</g>
</g>
</svg>
