<?xml version="1.0" encoding="utf-8"?>
<!-- Generator: Adobe Illustrator 19.1.0, SVG Export Plug-In . SVG Version: 6.00 Build 0)  -->
<svg version="1.1" xmlns="http://www.w3.org/2000/svg" xmlns:xlink="http://www.w3.org/1999/xlink" x="0px" y="0px"
	 viewBox="0 0 300 300" style="enable-background:new 0 0 300 300;" xml:space="preserve">
<style type="text/css">
	.st0{fill:#832EAB;}
	.st1{fill:#C32265;}
	.st2{fill:#00AEEF;}
	.st3{fill:none;}
	.st4{fill:#8DC63F;}
	.st5{fill:#0F9BD7;}
	.st6{fill:#FFFFFF;}
	.st7{fill-rule:evenodd;clip-rule:evenodd;fill:#FFFFFF;}
	.st8{fill:#1DA1F2;}
	.st9{fill:#3D5A98;}
	.st10{fill:#231F20;}
	.st11{fill:#007BB5;}
	.st12{fill:#DC4E41;}
	.st13{fill-rule:evenodd;clip-rule:evenodd;fill:#181616;}
	.st14{fill:#181616;}
	.st15{fill:#F2F2F2;}
	.st16{fill:#E3E3E3;}
	.st17{fill:#D54B3D;}
	.st18{fill:#D72B27;}
	.st19{opacity:0.56;fill:url(#SVGID_1_);}
	.st20{fill:#BABABA;}
	.st21{fill:#92D400;}
	.st22{fill:#00B9E4;}
	.st23{fill:#2B3990;}
	.st24{fill:#3F9C35;}
	.st25{fill:#8FCED8;}
	.st26{fill:#D21F21;}
	.st27{fill:#009444;}
	.st28{fill:#4FE89C;}
	.st29{fill:#D6D6D6;}
	.st30{fill:#F1F1F1;}
	.st31{fill:#8C3123;}
	.st32{fill:#E05243;}
	.st33{fill:#5E1F18;}
	.st34{fill:#F2B0A9;}
	.st35{fill:#CACCCE;}
	.st36{fill:#A1AFDB;}
	.st37{fill:#002087;}
	.st38{fill:#6C4199;}
	.st39{fill:#C7C7C7;}
	.st40{fill:#1976D2;}
	.st41{fill:#1E88E5;}
	.st42{fill:#FAFAFA;}
	.st43{fill:#E0E0E0;}
	.st44{fill:#F6A11F;}
	.st45{fill:#0A6DAE;}
	.st46{fill:#0BA25E;}
	.st47{fill:#089156;}
	.st48{fill:#10985B;}
	.st49{fill:#F9C941;}
	.st50{fill:#E8B835;}
	.st51{fill:#296AD9;}
	.st52{fill:#2A71E9;}
	.st53{fill:#286EE6;}
	.st54{fill:#BCBEC0;}
	.st55{fill:#FFFFFF;stroke:#231F20;stroke-width:10;stroke-linecap:round;stroke-linejoin:round;stroke-miterlimit:10;}
	.st56{fill:#00AEEF;stroke:#231F20;stroke-width:10;stroke-linecap:round;stroke-linejoin:round;stroke-miterlimit:10;}
	.st57{fill:#231F20;stroke:#231F20;stroke-width:10;stroke-linecap:round;stroke-linejoin:round;stroke-miterlimit:10;}
	.st58{fill:none;stroke:#231F20;stroke-width:10;stroke-miterlimit:10;}
	.st59{fill:none;stroke:#231F20;stroke-width:10;stroke-linejoin:round;stroke-miterlimit:10;}
	.st60{fill:none;stroke:#231F20;stroke-width:9.5201;stroke-linecap:round;stroke-linejoin:round;stroke-miterlimit:10;}
	.st61{fill:none;stroke:#231F20;stroke-width:7.8079;stroke-linecap:round;stroke-linejoin:round;stroke-miterlimit:10;}
	.st62{fill:#D1D3D4;}
	.st63{fill:url(#SVGID_2_);}
	.st64{fill:url(#SVGID_3_);}
	.st65{fill:url(#SVGID_4_);}
	.st66{fill:url(#SVGID_5_);}
	.st67{fill:url(#SVGID_6_);}
	.st68{fill:url(#SVGID_7_);}
	.st69{fill:#00A79D;}
	.st70{fill:#4E376B;}
	.st71{fill:#004981;}
	.st72{fill:#106599;}
	.st73{fill:#1E78AF;}
	.st74{fill:#4396C9;}
	.st75{fill:#63AAD6;}
	.st76{fill:#B8DDF4;}
	.st77{fill:#1F8893;}
	.st78{fill:none;stroke:#000000;stroke-width:6.3625;stroke-linecap:round;stroke-linejoin:round;stroke-miterlimit:10;}
	.st79{fill:#FFFFFF;stroke:#000000;stroke-width:5.3826;stroke-linejoin:round;stroke-miterlimit:10;}
	.st80{fill:#42BCBC;stroke:#000000;stroke-width:6.2798;stroke-linejoin:round;stroke-miterlimit:10;}
	.st81{fill:none;stroke:#000000;stroke-width:5.3826;stroke-linecap:round;stroke-linejoin:round;stroke-miterlimit:10;}
	.st82{fill:none;stroke:#000000;stroke-width:3.1813;stroke-linecap:round;stroke-linejoin:round;stroke-miterlimit:10;}
</style>
<g id="Layer_1">
	<g>
		<path class="st10" d="M269.3,43.4c-0.9-1-1.7-2-2.6-3.1c-78.1,0-156.3,0-234.4,0c-0.5,0.9-1,1.8-1.6,2.7c2.4,1.7,5.1,3,7.2,5
			c28.7,27.1,57.1,54.4,86,81.3c6.6,6.2,9.2,12.7,9.1,21.7c-0.4,33.3-0.2,66.6-0.2,100c0,2.2,0,4.5,0,8.6c10.3-9.7,19-18.2,28-26.3
			c3.9-3.5,5.5-7.1,5.4-12.4c-0.3-24.3,0-48.5-0.2-72.8c-0.1-6.9,2.2-12.1,7.2-16.9c29.3-27.6,58.4-55.4,87.7-83.1
			C263.2,46.1,266.5,45,269.3,43.4z"/>
		<g>
			<path class="st2" d="M132.9,264.6c-0.7,0-1.3-0.1-2-0.4c-1.8-0.8-3-2.6-3-4.6v-8.6c0-9.1,0-18.2,0-27.3
				c-0.1-23.8-0.1-48.5,0.2-72.7c0.1-7.7-2.1-12.9-7.5-18C101.8,115.6,83,97.7,64.8,80.4c-10.1-9.6-20.2-19.2-30.3-28.7
				c-0.9-0.9-1.6-1.6-2.2-2.3c-0.9-1-1.4-1.5-2.4-2.2c-1.3-0.9-2.1-2.4-2.2-3.9c-0.8-1.9-0.7-3.8,0.3-5.5c0.9-1.5,2.5-2.5,4.3-2.5
				h234.4c1.5,0,2.9,0.7,3.8,1.8c2.9,3.5,1.1,7.9-6.2,14.7c-14,13.2-28.1,26.6-41.8,39.6c-15,14.3-30.5,29-45.9,43.4
				c-4.1,3.8-5.7,7.6-5.6,13.2c0.1,11.7,0.1,23.7,0.1,35.2c0,12.3,0,25.1,0.1,37.6c0.1,6.7-2.1,11.7-7.1,16.2
				c-6.3,5.7-12.6,11.6-19.2,17.9c-2.8,2.7-5.7,5.5-8.8,8.3C135.3,264.2,134.1,264.6,132.9,264.6z"/>
			<g>
				<path class="st10" d="M266.7,40.4c0.9,1-3.5,5.7-5.8,7.9c-29.3,27.6-58.4,55.5-87.7,83.1c-5,4.7-7.3,9.9-7.2,16.9
					c0.3,24.3-0.1,48.5,0.2,72.8c0.1,5.3-1.5,8.9-5.4,12.4c-9.1,8.1-17.8,16.6-28,26.3c0-4.1,0-6.3,0-8.6c0-33.3-0.3-66.7,0.2-100
					c0.1-9-2.5-15.6-9.1-21.7C95,102.5,66.6,75.1,37.9,48c-2.1-2-2.8-3.3-5.2-5c0.5-0.9-1-1.8-0.4-2.7
					C110.4,40.4,188.6,40.4,266.7,40.4 M266.7,30.4H32.3c-3.5,0-6.8,1.9-8.6,4.9c-1,1.7-2.3,5-0.9,9.2c0.4,2.7,1.9,5.2,4.2,6.8
					c0.5,0.4,0.7,0.6,1.5,1.4c0.6,0.7,1.4,1.6,2.5,2.6C41.1,64.8,51.4,74.6,61.3,84c18.2,17.3,37,35.2,55.8,52.7
					c4.4,4.1,6,8,5.9,14.3c-0.3,24.3-0.3,49-0.2,72.8c0,9.1,0,18.2,0,27.3l0,4.6l0,3.9c0,4,2.4,7.6,6,9.2c1.3,0.6,2.6,0.8,4,0.8
					c2.5,0,5-0.9,6.9-2.7c3.1-2.9,6-5.7,8.8-8.4c6.6-6.3,12.8-12.2,19-17.8c6.1-5.4,8.8-11.8,8.7-20c-0.2-12.5-0.1-25.2-0.1-37.5
					c0-11.6,0-23.5-0.1-35.3c0-4.1,1-6.6,4.1-9.5c15.4-14.5,30.9-29.2,45.9-43.5c13.7-13,27.8-26.4,41.8-39.6c1.3-1.3,3.4-3.3,5-5.4
					c1.1-1.4,2-2.6,2.6-3.8c3.4-6.4,0.1-11.1-0.9-12.4C272.5,31.7,269.7,30.4,266.7,30.4L266.7,30.4z"/>
			</g>
		</g>
	</g>
</g>
<g id="Layer_2">
</g>
</svg>
