<?xml version="1.0" encoding="utf-8"?>
<!-- Generator: Adobe Illustrator 19.1.0, SVG Export Plug-In . SVG Version: 6.00 Build 0)  -->
<svg version="1.1" xmlns="http://www.w3.org/2000/svg" xmlns:xlink="http://www.w3.org/1999/xlink" x="0px" y="0px"
	 viewBox="0 0 300 284.3" style="enable-background:new 0 0 300 284.3;" xml:space="preserve">
<style type="text/css">
	.st0{fill:#832EAB;}
	.st1{fill:#FECD00;}
	.st2{fill:#00AEEF;}
	.st3{fill:none;}
	.st4{fill:#8DC63F;}
	.st5{fill:#0F9BD7;}
	.st6{fill:#FFFFFF;}
	.st7{fill-rule:evenodd;clip-rule:evenodd;fill:#FFFFFF;}
	.st8{fill:#1DA1F2;}
	.st9{fill:#3D5A98;}
	.st10{fill:#231F20;}
	.st11{fill:#007BB5;}
	.st12{fill:#DC4E41;}
	.st13{fill-rule:evenodd;clip-rule:evenodd;fill:#181616;}
	.st14{fill:#181616;}
	.st15{fill:#F2F2F2;}
	.st16{fill:#E3E3E3;}
	.st17{fill:#D54B3D;}
	.st18{fill:#D72B27;}
	.st19{opacity:0.56;fill:url(#SVGID_1_);}
	.st20{fill:#BABABA;}
	.st21{fill:#92D400;}
	.st22{fill:#00B9E4;}
	.st23{fill:#2B3990;}
	.st24{fill:#3F9C35;}
	.st25{fill:#8FCED8;}
	.st26{fill:#D21F21;}
	.st27{fill:#FFF8DA;}
	.st28{fill:#C32265;}
	.st29{fill:#D6D6D6;}
	.st30{fill:#F1F1F1;}
	.st31{fill:#8C3123;}
	.st32{fill:#E05243;}
	.st33{fill:#5E1F18;}
	.st34{fill:#F2B0A9;}
	.st35{fill:#CACCCE;}
	.st36{fill:#A1AFDB;}
	.st37{fill:#002087;}
	.st38{fill:#6C4199;}
	.st39{fill:#C7C7C7;}
	.st40{fill:#1976D2;}
	.st41{fill:#1E88E5;}
	.st42{fill:#FAFAFA;}
	.st43{fill:#E0E0E0;}
	.st44{fill:#F6A11F;}
	.st45{fill:#0A6DAE;}
	.st46{fill:#0BA25E;}
	.st47{fill:#089156;}
	.st48{fill:#10985B;}
	.st49{fill:#F9C941;}
	.st50{fill:#E8B835;}
	.st51{fill:#296AD9;}
	.st52{fill:#2A71E9;}
	.st53{fill:#286EE6;}
	.st54{fill:#009444;}
	.st55{fill:#006838;}
	.st56{fill:#BCBEC0;}
	.st57{fill:#2BB673;}
	.st58{fill:#F7941E;}
	.st59{fill:#EF4136;}
	.st60{fill:#FFFFFF;stroke:#231F20;stroke-width:10;stroke-linecap:round;stroke-linejoin:round;stroke-miterlimit:10;}
	.st61{fill:#D1D3D4;stroke:#231F20;stroke-width:10;stroke-linecap:round;stroke-linejoin:round;stroke-miterlimit:10;}
	.st62{fill:#231F20;stroke:#231F20;stroke-width:10;stroke-linecap:round;stroke-linejoin:round;stroke-miterlimit:10;}
	.st63{fill:none;stroke:#231F20;stroke-width:10;stroke-miterlimit:10;}
	.st64{fill:none;stroke:#231F20;stroke-width:10;stroke-linejoin:round;stroke-miterlimit:10;}
	.st65{fill:#E1DFE4;}
	.st66{fill:#35474F;}
	.st67{fill:#FC002F;}
	.st68{fill:#FDD518;}
	.st69{fill:#00E769;}
	.st70{fill:#D1D3D4;}
	.st71{fill:#27AAE1;}
	.st72{fill:#231F20;stroke:#27AAE1;stroke-miterlimit:10;}
	.st73{fill:url(#SVGID_2_);}
	.st74{fill:url(#SVGID_3_);}
	.st75{fill:url(#SVGID_4_);}
	.st76{fill:url(#SVGID_5_);}
	.st77{fill:url(#SVGID_6_);}
	.st78{fill:url(#SVGID_7_);}
</style>
<g id="Layer_1">
	<g>
		<path class="st2" d="M115.7,25.1c0,0-21.7,21-28.9,32s-10.3,9.4-14.2,7c-3.9-2.4-10.1-6.6-10.1-6.6s-6.9-3.7,3.2-11.1
			C76.1,38.8,111.9,19,115.7,25.1z"/>
		<path class="st2" d="M136.3,23.9v52.3c0,0,0.7,6.8-6.4,5.7s-28.3-5.1-34.6-7.7c-6.3-2.7-3.4-5.7-2.1-7.7
			C94.4,64.5,113.5,35.8,136.3,23.9z"/>
		<path class="st2" d="M46.3,67.1c0,0,2.8-4.5,7.3-2.2s16.7,9.2,16.7,9.2s5.4,2.3,2.5,8c-2.8,5.7-10.6,31.3-11,41.2
			s-6.7,11.2-10.4,11.2c-3.7,0-21.3,0-21.3,0s-9.7,1.2-7.7-7.9S28.2,91.2,46.3,67.1z"/>
		<path class="st2" d="M82.2,86.7c0,0,1.3-5.8,7.4-3.6c6,2.2,24.6,8.2,38,8.9c10.9,0.6,8.7,10,8.7,10v24.4c0,0,1.6,8-6.6,7.9
			s-47.5,0-47.5,0s-12.2,2.2-9.8-9.1S78.4,95.4,82.2,86.7z"/>
		<path class="st2" d="M165.5,25.1c0,0,21.7,21,28.9,32s10.3,9.4,14.2,7c3.9-2.4,10.1-6.6,10.1-6.6s6.9-3.7-3.2-11.1
			C205.1,38.8,169.4,19,165.5,25.1z"/>
		<path class="st2" d="M144.9,23.9v52.3c0,0-0.7,6.8,6.4,5.7c7.1-1,28.3-5.1,34.6-7.7c6.3-2.7,3.4-5.7,2.1-7.7
			C186.8,64.5,167.7,35.8,144.9,23.9z"/>
		<path class="st2" d="M234.9,67.1c0,0-2.8-4.5-7.3-2.2s-16.7,9.2-16.7,9.2s-5.4,2.3-2.5,8c2.8,5.7,10.6,31.3,11,41.2
			s6.7,11.2,10.4,11.2c3.7,0,21.3,0,21.3,0s9.7,1.2,7.7-7.9C257,117.4,253.1,91.2,234.9,67.1z"/>
		<path class="st2" d="M199,86.7c0,0-1.3-5.8-7.4-3.6s-24.6,8.2-38,8.9c-10.9,0.6-8.7,10-8.7,10v24.4c0,0-1.6,8,6.6,7.9
			c8.2-0.1,47.5,0,47.5,0s12.2,2.2,9.8-9.1C206.5,114,202.9,95.4,199,86.7z"/>
		<path class="st2" d="M115.8,255.8c0,0-21.7-21-28.9-32s-10.3-9.4-14.2-7c-3.9,2.4-10.1,6.6-10.1,6.6s-6.9,3.7,3.2,11.1
			C76.2,242.1,111.9,262,115.8,255.8z"/>
		<path class="st2" d="M136.3,257v-52.3c0,0,0.7-6.8-6.4-5.7c-7.1,1-28.3,5.1-34.6,7.7c-6.3,2.7-3.4,5.7-2.1,7.7
			S113.5,245.1,136.3,257z"/>
		<path class="st2" d="M46.4,213.8c0,0,2.8,4.5,7.3,2.2s16.7-9.2,16.7-9.2s5.4-2.3,2.5-8c-2.8-5.7-10.6-31.3-11-41.2
			c-0.4-9.8-6.7-11.2-10.4-11.2c-3.7,0-21.3,0-21.3,0s-9.7-1.2-7.7,7.9S28.2,189.7,46.4,213.8z"/>
		<path class="st2" d="M82.3,194.2c0,0,1.3,5.8,7.4,3.6c6-2.2,24.6-8.2,38-8.9c10.9-0.6,8.7-10,8.7-10v-24.4c0,0,1.6-8-6.6-7.9
			s-47.5,0-47.5,0s-12.2-2.2-9.8,9.1S78.4,185.5,82.3,194.2z"/>
		<polygon points="296.7,216.3 174.5,168.7 235.2,284.3 250.2,248.5 288.4,281.6 300,268.5 262.2,234.8 		"/>
		<path class="st3" d="M165.5,255.8c0,0,20.6-19.9,28.3-31.1l-5.5-10.6c-0.1,0.1-0.1,0.2-0.2,0.3c-1.3,2-20.3,30.7-43.1,42.6v-52.3
			c0,0-0.7-6.8,6.4-5.7c6.5,1,24.7,4.4,32.6,7l-6.7-12.7c-7.5-2.1-16.3-4-23.6-4.4c-10.9-0.6-8.7-10-8.7-10v-24.4c0,0-1.6-8,6.6-7.9
			c8.2,0.1,47.5,0,47.5,0s12.2-2.2,9.8,9.1c-0.9,4.4-2,10-3.3,15.6l10.5,4.1c1.8-6.9,3.2-13.6,3.4-17.6c0.4-9.8,6.7-11.2,10.4-11.2
			s21.3,0,21.3,0s9.7-1.2,7.7,7.9c-1.3,5.9-3.3,18.9-9.5,33.9l12.1,4.7c7-16.1,10.9-33.8,10.9-52.3C272.4,68,213.3,8.9,140.7,8.9
			C68,8.9,8.9,68,8.9,140.7c0,72.6,59.1,131.7,131.7,131.7c24.9,0,48.3-7,68.2-19.1l-5.8-11C188.5,250.7,168.4,260.3,165.5,255.8z"
			/>
		<path d="M140.7,272.4C68,272.4,8.9,213.3,8.9,140.7C8.9,68,68,8.9,140.7,8.9c72.6,0,131.7,59.1,131.7,131.7
			c0,18.6-3.9,36.3-10.9,52.3l8.3,3.3c7.4-17.1,11.5-35.9,11.5-55.6C281.3,63.1,218.2,0,140.7,0C63.1,0,0,63.1,0,140.7
			c0,77.6,63.1,140.7,140.7,140.7c26.4,0,51.2-7.3,72.3-20.1l-4.2-7.9C188.9,265.4,165.6,272.4,140.7,272.4z"/>
		<path class="st2" d="M165.5,255.8c2.9,4.5,23-5.1,37.5-13.5l-9.2-17.6C186.2,235.9,165.5,255.8,165.5,255.8z"/>
		<path class="st2" d="M151.4,198.9c-7.1-1-6.4,5.7-6.4,5.7V257c22.8-11.9,41.9-40.5,43.1-42.6c0.1-0.1,0.1-0.2,0.2-0.3l-4.3-8.2
			C176,203.3,157.9,199.9,151.4,198.9z"/>
		<path class="st2" d="M258.9,154.4c1.9-9.1-7.7-7.9-7.7-7.9s-17.6,0-21.3,0s-10,1.3-10.4,11.2c-0.2,4-1.6,10.7-3.4,17.6l33.3,13
			C255.6,173.3,257.7,160.3,258.9,154.4z"/>
		<path class="st2" d="M167.9,162.7c1.7-1.9,4.2-3,6.7-3c1.1,0,2.2,0.2,3.2,0.6l27.8,10.9c1.2-5.6,2.4-11.2,3.3-15.6
			c2.4-11.3-9.8-9.1-9.8-9.1s-39.3,0.1-47.5,0c-8.2-0.1-6.6,7.9-6.6,7.9v24.4c0,0-2.2,9.4,8.7,10c7.3,0.4,16.1,2.4,23.6,4.4
			l-10.7-20.4C164.9,169.5,165.4,165.5,167.9,162.7z"/>
	</g>
</g>
<g id="Layer_2">
</g>
</svg>
