<?xml version="1.0" encoding="utf-8"?>
<!-- Generator: Adobe Illustrator 19.1.0, SVG Export Plug-In . SVG Version: 6.00 Build 0)  -->
<svg version="1.1" id="Layer_1" xmlns="http://www.w3.org/2000/svg" xmlns:xlink="http://www.w3.org/1999/xlink" x="0px" y="0px"
	 viewBox="0 0 300 300" style="enable-background:new 0 0 300 300;" xml:space="preserve">
<style type="text/css">
	.st0{fill:#832EAB;}
	.st1{fill:#BABABA;}
	.st2{fill:none;}
	.st3{fill:#8DC63F;}
	.st4{fill:#0F9BD7;}
	.st5{fill:#FFFFFF;}
	.st6{fill-rule:evenodd;clip-rule:evenodd;fill:#FFFFFF;}
	.st7{fill:#1DA1F2;}
	.st8{fill:#3D5A98;}
	.st9{fill:#231F20;}
	.st10{fill:#007BB5;}
	.st11{fill:#DC4E41;}
	.st12{fill-rule:evenodd;clip-rule:evenodd;fill:#181616;}
	.st13{fill:#181616;}
	.st14{fill:#F2F2F2;}
	.st15{fill:#E3E3E3;}
	.st16{fill:#D54B3D;}
	.st17{fill:#D72B27;}
	.st18{opacity:0.56;fill:url(#SVGID_1_);}
	.st19{fill:#92D400;}
	.st20{fill:#00B9E4;}
	.st21{fill:#2B3990;}
	.st22{fill:#3F9C35;}
	.st23{fill:#8FCED8;}
	.st24{fill:#D21F21;}
	.st25{fill:#D6D6D6;}
	.st26{fill:#F1F1F1;}
	.st27{fill:#C32265;}
	.st28{fill:#8C3123;}
	.st29{fill:#E05243;}
	.st30{fill:#5E1F18;}
	.st31{fill:#F2B0A9;}
	.st32{fill:#CACCCE;}
	.st33{fill:#A1AFDB;}
	.st34{fill:#002087;}
</style>
<path d="M193.6,161.2c-0.4,0-0.8,0.1-1.1,0.1c-0.5-1.9-1-3.8-1.4-5.6c-2.2-9.3-4.3-18.6-6.7-27.8c-1.2-4.9-4.5-6.5-9.4-5.1
	c-5.1,1.4-4.6,5-3.6,8.9c3.9,14.1,7.9,28.1,11.6,42.3c1.2,4.5,3.5,7,8.5,7.1c5.2,0.1,7.7-2.3,9.1-7.1c2.4-8,5.3-15.8,8-23.7
	c4.1,8.4,7,16.6,9.6,24.9c1.4,4.5,4.4,5.9,8.9,5.8c4.4,0,7-1.9,8.1-6.1c4-14.8,8.1-29.7,12.2-44.5c1-3.5,0.5-6.1-3.3-7.5
	c-3.8-1.4-7.1-0.8-8.9,3c-1.1,2.2-1.7,4.8-2.2,7.2c-2.1,9.2-4.1,18.3-6.2,27.5c-3.5-7.1-5.8-14.3-7.9-21.5c-1.4-4.6-3.3-8.5-8.9-8.6
	c-5.8-0.1-8.1,3.6-9.6,8.5C198.3,146.4,195.9,153.8,193.6,161.2z M67.9,127.7c-1.9-1.1-3.9-2.7-6.1-3.4c-5.4-1.7-7.4-0.3-7.5,5.2
	c-0.2,14.6-0.1,29.2-0.1,43.9c0,4.8,1.8,7.7,7.3,7.5c5.5-0.2,6.3-3.7,6.3-7.9c0.1-8.8-0.3-17.6,0.4-26.3c0.3-3.4,2.4-7.7,5-9.8
	c8.3-6.6,18.6-2,19.5,8.6c0.8,9.3,0.5,18.7,0.5,28c0,4.6,1.5,7.4,6.7,7.3c5.3,0,6.7-3.1,6.6-7.6c-0.2-10.5-0.2-21.1-0.8-31.6
	c-0.8-14.2-12.6-22.7-26.5-19.1C75.5,123.7,71.9,125.9,67.9,127.7z M141.9,180.9c0.3,0,1.3,0,2.3-0.1c11.3-1.1,19.4-6.8,23.9-17.2
	c4.6-10.8,2.9-21-3.9-30.4c-2.4-3.3-5.5-3.3-8.8-1.3c-3.5,2.1-3.1,4.7-1.3,8c1.6,2.8,2.9,6,3.4,9.2c1.7,10.7-5.5,19.8-15.9,20.5
	c-9.5,0.7-17.9-8-17.2-18.7c0.3-3.9,2.5-7.7,3.3-11.6c0.4-2.1,0.4-6.1-0.5-6.5c-2.5-1-6-1.5-8.4-0.5c-2.1,0.9-3.9,3.9-4.8,6.3
	C105.6,161,118.9,181.1,141.9,180.9z M146.7,139.8c0-4.3,0.5-8.7-0.2-12.8c-0.4-2-3.1-5.1-4.7-5c-2.2,0-6,2.5-6.1,4.1
	c-0.6,9.1-0.7,18.2-0.1,27.3c0.1,1.8,3.9,4.6,5.9,4.5c1.8-0.1,4.7-3.2,5.1-5.4C147.2,148.5,146.7,144.1,146.7,139.8z"/>
<path class="st5" d="M73.8,1.2c-7.2,1.1-14.6,1.9-21.7,3.5C26.3,10.2,7.6,30.4,3.6,56.6C2.8,62.3,2,68.1,1.2,73.8
	c0-24.2,0-48.4,0-72.7C25.4,1.2,49.6,1.2,73.8,1.2z"/>
<path class="st5" d="M193.6,161.2c2.3-7.4,4.7-14.8,6.9-22.2c1.5-4.9,3.8-8.6,9.6-8.5c5.6,0.1,7.5,4,8.9,8.6
	c2.1,7.2,4.4,14.4,7.9,21.5c2.1-9.2,4.1-18.4,6.2-27.5c0.6-2.5,1.1-5,2.2-7.2c1.9-3.8,5.1-4.4,8.9-3c3.8,1.4,4.3,3.9,3.3,7.5
	c-4.1,14.8-8.1,29.7-12.2,44.5c-1.1,4.2-3.7,6-8.1,6.1c-4.5,0-7.4-1.4-8.9-5.8c-2.7-8.3-5.6-16.6-9.6-24.9c-2.7,7.9-5.6,15.7-8,23.7
	c-1.4,4.8-3.9,7.2-9.1,7.1c-5.1-0.1-7.3-2.6-8.5-7.1c-3.8-14.1-7.8-28.2-11.6-42.3c-1.1-3.9-1.5-7.4,3.6-8.9
	c4.9-1.4,8.1,0.3,9.4,5.1c2.3,9.3,4.4,18.6,6.7,27.8c0.4,1.9,0.9,3.8,1.4,5.6C192.9,161.3,193.2,161.2,193.6,161.2z"/>
<path class="st5" d="M67.9,127.7c4-1.8,7.6-4,11.4-5c13.9-3.6,25.7,4.9,26.5,19.1c0.6,10.5,0.6,21,0.8,31.6c0.1,4.4-1.3,7.5-6.6,7.6
	c-5.3,0-6.7-2.7-6.7-7.3c0-9.4,0.3-18.7-0.5-28c-0.9-10.6-11.2-15.2-19.5-8.6c-2.7,2.1-4.7,6.3-5,9.8c-0.8,8.7-0.3,17.5-0.4,26.3
	c-0.1,4.2-0.8,7.7-6.3,7.9c-5.5,0.2-7.3-2.8-7.3-7.5c0-14.6-0.1-29.2,0.1-43.9c0.1-5.5,2.1-6.9,7.5-5.2
	C64,124.9,66,126.5,67.9,127.7z"/>
<path class="st5" d="M141.9,180.9c-23,0.3-36.3-19.9-27.9-42.3c0.9-2.4,2.7-5.4,4.8-6.3c2.4-1,5.9-0.6,8.4,0.5
	c0.9,0.4,0.9,4.3,0.5,6.5c-0.8,3.9-3.1,7.7-3.3,11.6c-0.7,10.7,7.6,19.4,17.2,18.7c10.4-0.7,17.6-9.8,15.9-20.5
	c-0.5-3.2-1.8-6.4-3.4-9.2c-1.8-3.3-2.2-5.8,1.3-8c3.3-2,6.4-2,8.8,1.3c6.7,9.4,8.5,19.6,3.9,30.4c-4.4,10.4-12.6,16.1-23.9,17.2
	C143.2,180.8,142.2,180.8,141.9,180.9z"/>
<path class="st5" d="M146.7,139.8c0,4.3,0.6,8.7-0.2,12.8c-0.4,2.2-3.2,5.3-5.1,5.4c-2,0.1-5.8-2.8-5.9-4.5
	c-0.6-9.1-0.5-18.2,0.1-27.3c0.1-1.6,4-4.1,6.1-4.1c1.6,0,4.4,3,4.7,5C147.2,131.2,146.7,135.6,146.7,139.8z"/>
<path class="st24" d="M0,227.4c0-51.6,0-103.1,0-154.7C0.9,67,1.7,61.2,2.5,55.5C6.5,29.3,25.1,9.1,51,3.6C58.1,2,65.5,1.2,72.7,0.1
	c51.6,0,103.1,0,154.7,0c5.6,0.8,11.1,1.6,16.7,2.4c26.8,4,47.2,22.3,52.4,48.9c2.4,12.5,3.1,25.6,3.2,38.4
	c0.4,40.2,0.3,80.4,0,120.6c-0.1,11.3-0.7,22.6-2.2,33.8c-3.6,26.9-22.3,47.1-48.8,52.4c-10.8,2.2-22,3-33.1,3.1
	c-41.8,0.4-83.5,0.3-125.3,0.1c-11.7-0.1-23.4-0.7-35-2.3c-26.1-3.6-46.2-22.6-51.8-48.2C2,242,1.2,234.7,0,227.4z"/>
<g>
	<path class="st6" d="M83.2,121c-6.9,0-13,2.7-17.2,7.8c-1.1-5.7-4.7-7-7.7-7c-1.7,0-5.1,0.7-5.1,2.3v49.4c0,4.2,2.1,6.3,6,6.3h1.2
		c3.9,0,6-2.2,6-6.3l0-31.9c2.7-5.5,7.8-8.6,14.1-8.6c7.1,0,11.4,5.1,11.4,13.6v26.9c0,4.2,2.1,6.3,6,6.3l1.2,0c3.9,0,6-2.2,6-6.3
		v-28.3C105.1,130,96.9,121,83.2,121z"/>
	<path class="st6" d="M246.4,124.3c-0.9-1.1-3.9-3.2-7-3.2c-1.3,0-5.7,0.5-6.8,6.8l-7.8,35l-8.8-28.5c-0.9-3.2-3.3-4.7-7.8-4.7
		c-4.5,0-6.9,1.4-7.9,4.7l-9.1,28.8l-7.9-35.2c-1.2-6.2-5.2-6.8-6.9-6.8c-3,0-6.4,1.9-7.3,3.3c-0.4,0.6-0.4,1.1-0.3,1.3l13.8,49.7
		c1.1,3.8,4.4,4.4,7.9,4.4c4.6,0,6.5-1.1,7.8-4.7l9.7-29.5l9.4,29.5c1.2,3.6,3,4.7,7.9,4.7c3.5,0,6.8-0.5,7.8-4.4l13.7-49.8
		C246.9,125,246.5,124.4,246.4,124.3z"/>
	<path class="st6" d="M166,136.9c-0.5-1.2-2.7-5.2-5.2-6.5c-4-2.4-8.2,0.9-9.6,3.2c-0.5,0.9-0.6,1.6-0.1,2.3
		c1.2,1.6,2.8,4.3,3.3,5.3c1.2,2.7,2.1,5.8,2.1,9.2c0,10.5-7.1,18.1-16.9,18.1c-9.7,0-17-7.9-17-18.3c0-3.3,0.7-6.4,2-9
		c0.8-1.6,1.8-3.2,3.4-5.2c0.4-0.7,0.4-1.4-0.1-2.3c-1.4-2.3-5.5-5.6-9.6-3.2c-2.4,1.4-4.4,4.5-5.3,6.4c-1.8,3.9-2.8,8.4-2.8,13.3
		c0,17.4,12.1,29.6,29.4,29.6c17,0,29.4-12.3,29.4-29.4C168.9,145.4,167.9,140.9,166,136.9z"/>
	<path class="st6" d="M140,120.5h-0.9c-3.5,0-5.5,2.5-5.5,6.9v23.1c0,4.3,2,6.8,5.5,6.8l0.9,0c3.5,0,5.4-2.4,5.4-6.8v-23.1
		C145.4,122.9,143.5,120.5,140,120.5z"/>
</g>
</svg>
