<svg id="Layer_1" data-name="Layer 1" xmlns="http://www.w3.org/2000/svg" viewBox="0 0 256 308.23401"><title>aws-kinesis</title><path d="M0,172.087l127.754,58.81,127.752-58.81-127.752-5.293Z" transform="translate(0 0.00005)" fill="#fcbf92"/><path d="M128.147,0,.059,63.881v90.136H153.648V12.751Z" transform="translate(0 0.00005)" fill="#9d5025"/><path d="M.059,217.559l128.162,90.675L256,217.559,127.945,198.926Z" transform="translate(0 0.00005)" fill="#fcbf92"/><path d="M128.146,154.017h67.577V57.836L175.99,49.943,128.146,63.898Z" transform="translate(0 0.00005)" fill="#9d5025"/><path d="M175.99,154.017h52.233V91.632l-14.94-4.481-37.293,6.33Z" transform="translate(0 0.00005)" fill="#9d5025"/><path d="M213.282,82.26v71.757h42.224L256,81.941l-12.826-5.124Z" transform="translate(0 0.00005)" fill="#9d5025"/><path d="M128.147,0V154.017h25.5V12.751Z" transform="translate(0 0.00005)" fill="#f68534"/><path d="M195.724,57.836l-19.733-7.894V154.017h19.732Z" transform="translate(0 0.00005)" fill="#f68534"/><path d="M228.224,91.632l-14.941-4.48v66.865h14.94Z" transform="translate(0 0.00005)" fill="#f68534"/><path d="M243.174,154.017H256V81.941l-12.826-5.124Z" transform="translate(0 0.00005)" fill="#f68534"/><path d="M127.754,184.863v46.033l127.752-31.844V172.087Z" transform="translate(0 0.00005)" fill="#f68534"/><path d="M127.754,262.781v45.453L256,244.114V217.56Z" transform="translate(0 0.00005)" fill="#f68534"/><path d="M.059,244.39l127.695,63.844V262.448L.058,217.558Z" transform="translate(0 0.00005)" fill="#9d5025"/><path d="M0,199.051l127.754,31.845V184.862L0,172.086Z" transform="translate(0 0.00005)" fill="#9d5025"/></svg>