<?xml version="1.0" encoding="utf-8"?>
<!-- Generator: Adobe Illustrator 19.1.0, SVG Export Plug-In . SVG Version: 6.00 Build 0)  -->
<svg version="1.1" id="Layer_1" xmlns="http://www.w3.org/2000/svg" xmlns:xlink="http://www.w3.org/1999/xlink" x="0px" y="0px"
	 viewBox="0 0 248.2 300" style="enable-background:new 0 0 248.2 300;" xml:space="preserve">
<style type="text/css">
	.st0{fill:#832EAB;}
	.st1{fill:#BABABA;}
	.st2{fill:none;}
	.st3{fill:#8DC63F;}
	.st4{fill:#0F9BD7;}
	.st5{fill:#FFFFFF;}
	.st6{fill-rule:evenodd;clip-rule:evenodd;fill:#FFFFFF;}
	.st7{fill:#1DA1F2;}
	.st8{fill:#3D5A98;}
	.st9{fill:#231F20;}
	.st10{fill:#007BB5;}
	.st11{fill:#DC4E41;}
	.st12{fill-rule:evenodd;clip-rule:evenodd;fill:#181616;}
	.st13{fill:#181616;}
	.st14{fill:#F2F2F2;}
	.st15{fill:#E3E3E3;}
	.st16{fill:#D54B3D;}
	.st17{fill:#D72B27;}
	.st18{opacity:0.56;fill:url(#SVGID_1_);}
	.st19{fill:#92D400;}
	.st20{fill:#00B9E4;}
	.st21{fill:#2B3990;}
	.st22{fill:#3F9C35;}
	.st23{fill:#8FCED8;}
	.st24{fill:#D21F21;}
	.st25{fill:#D6D6D6;}
	.st26{fill:#F1F1F1;}
	.st27{fill:#C32265;}
	.st28{fill:#8C3123;}
	.st29{fill:#E05243;}
	.st30{fill:#5E1F18;}
	.st31{fill:#F2B0A9;}
	.st32{fill:#CACCCE;}
	.st33{fill:#A1AFDB;}
	.st34{fill:#002087;}
</style>
<g>
	<path class="st28" d="M20,52.1L0,62v175.5l20,9.9l0.1-0.1V52.2L20,52.1"/>
	<path class="st29" d="M127,222L20,247.5V52.1L127,77V222"/>
	<path class="st28" d="M78.7,182.1l45.4,5.8l0.3-0.7l0.3-74.4l-0.5-0.6l-45.4,5.7L78.7,182.1"/>
	<path class="st28" d="M124.1,222.3l104.1,25.2l0.2-0.3l0-195.1l-0.2-0.2L124.1,77.3L124.1,222.3"/>
	<path class="st29" d="M169.5,182.1l-45.4,5.8v-75.7l45.4,5.7V182.1"/>
	<path class="st30" d="M169.5,86.9l-45.4,8.3l-45.4-8.3L124,75L169.5,86.9"/>
	<path class="st31" d="M169.5,213.1l-45.4-8.3l-45.4,8.3l45.3,12.7L169.5,213.1"/>
	<path class="st28" d="M78.7,86.9l45.4-11.2l0.4-0.1V0.3L124.1,0L78.7,22.7V86.9"/>
	<path class="st29" d="M169.5,86.9l-45.4-11.2V0l45.4,22.7V86.9"/>
	<path class="st28" d="M124.1,300l-45.4-22.7v-64.2l45.4,11.2l0.7,0.8l-0.2,73.6L124.1,300"/>
	<path class="st29" d="M124.1,300l45.4-22.7v-64.2l-45.4,11.2V300 M228.2,52.1l20,10v175.5l-20,10V52.1"/>
</g>
</svg>
