<?xml version="1.0" encoding="utf-8"?>
<!-- Generator: Adobe Illustrator 19.1.0, SVG Export Plug-In . SVG Version: 6.00 Build 0)  -->
<svg version="1.1" id="Layer_1" xmlns="http://www.w3.org/2000/svg" xmlns:xlink="http://www.w3.org/1999/xlink" x="0px" y="0px"
	 viewBox="0 0 300 300" style="enable-background:new 0 0 300 300;" xml:space="preserve">
<style type="text/css">
	.st0{fill:#832EAB;}
	.st1{fill:#BABABA;}
	.st2{fill:none;}
	.st3{fill:#8DC63F;}
	.st4{fill:#0F9BD7;}
	.st5{fill:#FFFFFF;}
	.st6{fill-rule:evenodd;clip-rule:evenodd;fill:#FFFFFF;}
	.st7{fill:#1DA1F2;}
	.st8{fill:#3D5A98;}
	.st9{fill:#231F20;}
	.st10{fill:#007BB5;}
	.st11{fill:#DC4E41;}
	.st12{fill-rule:evenodd;clip-rule:evenodd;fill:#181616;}
	.st13{fill:#181616;}
	.st14{fill:#F2F2F2;}
	.st15{fill:#E3E3E3;}
	.st16{fill:#D54B3D;}
	.st17{fill:#D72B27;}
	.st18{opacity:0.56;fill:url(#SVGID_1_);}
	.st19{fill:#92D400;}
	.st20{fill:#00B9E4;}
	.st21{fill:#2B3990;}
	.st22{fill:#3F9C35;}
	.st23{fill:#8FCED8;}
	.st24{fill:#D21F21;}
	.st25{fill:#D6D6D6;}
	.st26{fill:#F1F1F1;}
	.st27{fill:#C32265;}
	.st28{fill:#8C3123;}
	.st29{fill:#E05243;}
	.st30{fill:#5E1F18;}
	.st31{fill:#F2B0A9;}
	.st32{fill:#CACCCE;}
	.st33{fill:#A1AFDB;}
	.st34{fill:#002087;}
</style>
<g>
	<g>
		<g>
			<path class="st11" d="M8.8,1.4c3.6-1.4,7.5-1.2,11.3-1.4c87.5,0.1,174.9,0,262.4,0c9.7-1.2,18.5,7.6,17.3,17.3
				c0.2,88.3,0.1,176.6,0.1,264.9c1.1,9.8-7.6,18.5-17.4,17.6c-88.3,0-176.6,0-264.9,0c-9.8,0.9-18.5-7.8-17.4-17.6
				C0.1,194,0,105.7,0.2,17.4C-0.3,10.9,3.1,4.7,8.8,1.4z M67.9,149.9c-0.4,21.8,14.6,42.6,35.2,49.4c19.5,6.5,43.4,1.6,56.4-15
				c9.5-11.7,11.6-27.3,10.6-41.8c-16.7-0.1-33.3-0.1-50-0.1c0,5.9,0,11.9,0,17.8c10,0.3,20,0.1,30,0.3c-2.5,8.6-8.3,16.7-17,19.8
				c-16.8,7.4-38.3-2.3-43.6-19.9c-6.4-16.9,4.1-37.3,21.3-42.2c10.7-3.8,21.7,0.5,30.9,6c4.6-4.3,9-9,13.3-13.7
				c-10.4-8.7-23.8-14.1-37.5-12.9C90.4,98,66.8,122.9,67.9,149.9z M202.5,127.4c0,5-0.1,10-0.1,14.9c-5,0-10,0.1-14.9,0.1
				c0,5,0,9.9,0,14.9c5,0,10,0,14.9,0.1c0,5,0,9.9,0.1,14.9c4.9,0,9.9,0,14.9,0c0-5,0-10,0.1-15c5,0,10,0,14.9-0.1c0-5,0-9.9,0-14.9
				c-5,0-10,0-14.9-0.1c0-5-0.1-10-0.1-14.9C212.4,127.4,207.4,127.4,202.5,127.4z"/>
		</g>
	</g>
	<g>
		<path class="st5" d="M67.9,149.9c-1-27,22.6-51.9,49.6-52.2c13.8-1.2,27.1,4.2,37.5,12.9c-4.3,4.7-8.6,9.3-13.3,13.7
			c-9.2-5.6-20.2-9.8-30.9-6c-17.3,4.9-27.7,25.3-21.3,42.2c5.3,17.6,26.8,27.3,43.6,19.9c8.7-3.1,14.5-11.2,17-19.8
			c-10-0.2-20-0.1-30-0.3c0-5.9,0-11.9,0-17.8c16.6,0,33.3-0.1,50,0.1c1,14.6-1.1,30.1-10.6,41.8c-13,16.7-36.9,21.6-56.4,15
			C82.4,192.5,67.4,171.7,67.9,149.9z"/>
		<path class="st5" d="M202.5,127.4c4.9,0,9.9,0,14.9,0c0,5,0.1,10,0.1,14.9c5,0,10,0.1,14.9,0.1c0,5,0,9.9,0,14.9
			c-5,0-10,0-14.9,0.1c0,5-0.1,10-0.1,15c-5,0-9.9,0-14.9,0c0-5,0-10-0.1-14.9c-5,0-10-0.1-14.9-0.1c0-5,0-9.9,0-14.9
			c5,0,9.9,0,14.9-0.1C202.4,137.4,202.4,132.4,202.5,127.4z"/>
	</g>
</g>
</svg>
