<?xml version="1.0" encoding="utf-8"?>
<!-- Generator: Adobe Illustrator 19.1.0, SVG Export Plug-In . SVG Version: 6.00 Build 0)  -->
<svg version="1.1" id="Layer_1" xmlns="http://www.w3.org/2000/svg" xmlns:xlink="http://www.w3.org/1999/xlink" x="0px" y="0px"
	 viewBox="0 0 300 300" style="enable-background:new 0 0 300 300;" xml:space="preserve">
<style type="text/css">
	.st0{fill:#832EAB;}
	.st1{fill:#BABABA;}
	.st2{fill:none;}
	.st3{fill:#8DC63F;}
	.st4{fill:#0F9BD7;}
	.st5{fill:#FFFFFF;}
	.st6{fill-rule:evenodd;clip-rule:evenodd;fill:#FFFFFF;}
	.st7{fill:#1DA1F2;}
	.st8{fill:#3D5A98;}
	.st9{fill:#231F20;}
	.st10{fill:#007BB5;}
	.st11{fill:#DC4E41;}
	.st12{fill-rule:evenodd;clip-rule:evenodd;fill:#181616;}
	.st13{fill:#181616;}
	.st14{fill:#F2F2F2;}
	.st15{fill:#E3E3E3;}
	.st16{fill:#D54B3D;}
	.st17{fill:#D72B27;}
	.st18{opacity:0.56;fill:url(#SVGID_1_);}
	.st19{fill:#92D400;}
	.st20{fill:#00B9E4;}
	.st21{fill:#2B3990;}
	.st22{fill:#3F9C35;}
	.st23{fill:#8FCED8;}
	.st24{fill:#D21F21;}
	.st25{fill:#D6D6D6;}
	.st26{fill:#F1F1F1;}
	.st27{fill:#C32265;}
	.st28{fill:#8C3123;}
	.st29{fill:#E05243;}
	.st30{fill:#5E1F18;}
	.st31{fill:#F2B0A9;}
	.st32{fill:#CACCCE;}
	.st33{fill:#A1AFDB;}
	.st34{fill:#002087;}
	.st35{fill:#6C4199;}
</style>
<g>
	<path class="st35" d="M155.2,1.1c-173-7.5-232.9,216.7-4.3,238.7l-21,59.2c0,0,121.4-65,151.7-112C318.2,130.4,303.8,7.6,155.2,1.1
		z M219,140.8c5.6,0,10.2,4.5,10.2,10.2s-4.5,10.2-10.2,10.2h-30.3v31.2c0,5.6-4.5,10.2-10.2,10.2c-5.6,0-10.2-4.5-10.2-10.2v-31.2
		h-36.7v31.2c0,5.6-4.5,10.2-10.2,10.2c-5.6,0-10.2-4.5-10.2-10.2v-31.2H81c-5.6,0-10.2-4.5-10.2-10.2s4.5-10.2,10.2-10.2h30.3v-35
		H81c-5.6,0-10.2-4.5-10.2-10.2c0-5.6,4.5-10.2,10.2-10.2h30.3V54.4c0-5.6,4.5-10.2,10.2-10.2c5.6,0,10.2,4.5,10.2,10.2v31.2h36.7
		V54.4c0-5.6,4.5-10.2,10.2-10.2c5.6,0,10.2,4.5,10.2,10.2v31.2H219c5.6,0,10.2,4.5,10.2,10.2c0,5.6-4.5,10.2-10.2,10.2h-30.3v35
		H219z"/>
	<rect x="131.7" y="105.9" class="st35" width="36.7" height="35"/>
</g>
</svg>
