<svg xmlns="http://www.w3.org/2000/svg" xmlns:xlink="http://www.w3.org/1999/xlink" viewBox="0 0 85 85" fill="#fff" fill-rule="evenodd" stroke="#000" stroke-linecap="round" stroke-linejoin="round"><use xlink:href="#A" x="2.5" y="2.5"/><symbol id="A" overflow="visible"><g stroke="none"><path d="M13.766 3.12h52.468c3.65 0 7.152 1.363 9.734 3.788S80 12.624 80 16.054v21.698c-2.717-1.32-8.664-2.723-17.464-2.723-3.37-.013-6.737.224-10.068.71-5.932.922-9.057 2.5-9.057 3.49V76.1c0 .6.89 1.418 2.58 2.212H13.766C6.163 78.313 0 72.522 0 65.38V16.054C0 8.91 6.163 3.12 13.766 3.12z" fill="#9d5025"/><path d="M13.766 0h52.468c3.65 0 7.152 1.363 9.734 3.788S80 9.504 80 12.934v21.67c-2.717-1.32-8.664-2.723-17.464-2.723a67.94 67.94 0 0 0-10.068.709c-5.932.922-9.057 2.5-9.057 3.49v36.816c0 .6.89 1.418 2.58 2.212H13.766c-3.65 0-7.152-1.363-9.734-3.788S0 65.604 0 62.174v-49.24C0 5.79 6.163 0 13.766 0z" fill="#f58534"/><path d="M63.924 41.808c-2.83-.01-5.656.188-8.453.596a26.44 26.44 0 0 1-7.547-.624v3.546c0 .823 2.64 2.156 7.547 2.907a54.47 54.47 0 0 0 8.453.596C74.34 48.828 80 46.517 80 45.326V41.78zm-16.377 10.4v24.25c0 1.22 4.528 3.517 15.32 3.517 4.47.102 8.936-.375 13.268-1.418 2.143-.652 3.668-1.418 3.834-1.943v-24.1c-3.14 1.83-9.615 2.836-16.045 2.836h-2.67l-1.63-.27h-.815l-1.268-.1-.68-.1-1.358-.17a22.49 22.49 0 0 1-7.955-2.496z" fill="#9d5025"/><path d="M63.924 38.277a57.01 57.01 0 0 0-8.453.596c-4.98.78-7.547 2.113-7.547 2.922s2.64 2.156 7.547 2.907a54.46 54.46 0 0 0 8.453.596C74.34 45.298 80 42.986 80 41.795s-5.66-3.517-16.076-3.517zM47.547 48.673v24.223c0 1.234 4.528 3.503 15.275 3.503 4.47.102 8.936-.375 13.268-1.418 2.143-.652 3.668-1.418 3.834-1.943v-24.1c-3.14 1.83-9.615 2.836-16.045 2.836h-2.672l-1.585-.227h-.815l-1.268-.1-.68-.1-1.358-.17a22.49 22.49 0 0 1-7.955-2.496z" fill="#f58534"/><path d="M13.766 75.165h32.196v3.12H13.766C6.163 78.285 0 72.494 0 65.35v-3.12c0 7.143 6.163 12.934 13.766 12.934z" fill="#9d5025"/><path d="M65.177 16.168L53.102 4.822v5.673H34.25V30.35h18.823v2.184l4.256-.44 12.39-11.672zm-57.57-.001V30.35h20.83V10.452H7.608v5.715zM13.42 49.68v14.18h20.83V43.964H13.42v5.715z"/></g></symbol></svg>