<?xml version="1.0" encoding="utf-8"?>
<!-- Generator: Adobe Illustrator 19.1.0, SVG Export Plug-In . SVG Version: 6.00 Build 0)  -->
<svg version="1.1" id="Layer_1" xmlns="http://www.w3.org/2000/svg" xmlns:xlink="http://www.w3.org/1999/xlink" x="0px" y="0px"
	 viewBox="0 0 300 210" style="enable-background:new 0 0 300 210;" xml:space="preserve">
<style type="text/css">
	.st0{fill:#832EAB;}
	.st1{fill:#BABABA;}
	.st2{fill:none;}
	.st3{fill:#8DC63F;}
	.st4{fill:#0F9BD7;}
	.st5{fill:#FFFFFF;}
	.st6{fill-rule:evenodd;clip-rule:evenodd;fill:#FFFFFF;}
	.st7{fill:#1DA1F2;}
	.st8{fill:#3D5A98;}
	.st9{fill:#231F20;}
	.st10{fill:#007BB5;}
	.st11{fill:#DC4E41;}
	.st12{fill-rule:evenodd;clip-rule:evenodd;fill:#181616;}
	.st13{fill:#181616;}
	.st14{fill:#F2F2F2;}
	.st15{fill:#E3E3E3;}
	.st16{fill:#D54B3D;}
	.st17{fill:#D72B27;}
	.st18{opacity:0.56;fill:url(#SVGID_1_);}
	.st19{fill:#92D400;}
	.st20{fill:#00B9E4;}
	.st21{fill:#2B3990;}
	.st22{fill:#3F9C35;}
	.st23{fill:#8FCED8;}
	.st24{fill:#D21F21;}
	.st25{fill:#D6D6D6;}
	.st26{fill:#F1F1F1;}
	.st27{fill:#C32265;}
	.st28{fill:#8C3123;}
	.st29{fill:#E05243;}
	.st30{fill:#5E1F18;}
	.st31{fill:#F2B0A9;}
	.st32{fill:#CACCCE;}
	.st33{fill:#A1AFDB;}
	.st34{fill:#002087;}
</style>
<g>
	<path class="st4" d="M124.8,22.9c9.7-10.1,23.1-16.3,38-16.3c19.8,0,37.1,11,46.3,27.4c8-3.6,16.8-5.6,26.2-5.6
		c35.7,0,64.7,29.2,64.7,65.2c0,36-29,65.2-64.7,65.2c-4.4,0-8.6-0.4-12.7-1.3c-8.1,14.4-23.5,24.2-41.3,24.2
		c-7.4,0-14.4-1.7-20.7-4.8c-8.2,19.3-27.3,32.9-49.7,32.9c-23.2,0-43-14.7-50.6-35.3c-3.3,0.7-6.8,1.1-10.3,1.1
		C22.4,175.7,0,153.1,0,125.2c0-18.7,10.1-35.1,25-43.8c-3.1-7.1-4.8-14.9-4.8-23.1C20.2,26.1,46.3,0,78.5,0
		C97.4,0,114.2,9,124.8,22.9"/>
	<path class="st5" d="M43.4,108.9c-0.2,0.5,0.1,0.6,0.1,0.7c0.6,0.4,1.1,0.7,1.7,1c3.1,1.6,6,2.1,9,2.1c6.2,0,10-3.3,10-8.5v-0.1
		c0-4.9-4.3-6.6-8.4-7.9L55.3,96c-3.1-1-5.7-1.8-5.7-3.9V92c0-1.7,1.5-3,3.9-3c2.6,0,5.8,0.9,7.8,2c0,0,0.6,0.4,0.8-0.2
		c0.1-0.3,1.1-3.1,1.3-3.4c0.1-0.3-0.1-0.6-0.3-0.7c-2.3-1.4-5.5-2.4-8.8-2.4l-0.6,0c-5.6,0-9.6,3.4-9.6,8.3v0.1
		c0,5.1,4.3,6.8,8.4,8l0.7,0.2c3,0.9,5.5,1.7,5.5,3.8v0.1c0,1.9-1.7,3.3-4.3,3.3c-1,0-4.4,0-7.9-2.3c-0.4-0.3-0.7-0.4-1-0.6
		c-0.2-0.1-0.6-0.3-0.8,0.3L43.4,108.9z"/>
	<path class="st5" d="M133.5,108.9c-0.2,0.5,0.1,0.6,0.1,0.7c0.6,0.4,1.1,0.7,1.7,1c3.1,1.6,6,2.1,9,2.1c6.2,0,10-3.3,10-8.5v-0.1
		c0-4.9-4.3-6.6-8.4-7.9l-0.5-0.2c-3.1-1-5.7-1.8-5.7-3.9V92c0-1.7,1.5-3,3.9-3c2.6,0,5.8,0.9,7.8,2c0,0,0.6,0.4,0.8-0.2
		c0.1-0.3,1.1-3.1,1.3-3.4c0.1-0.3-0.1-0.6-0.3-0.7c-2.3-1.4-5.5-2.4-8.8-2.4l-0.6,0c-5.6,0-9.6,3.4-9.6,8.3v0.1
		c0,5.1,4.3,6.8,8.4,8l0.7,0.2c3,0.9,5.5,1.7,5.5,3.8v0.1c0,1.9-1.7,3.3-4.3,3.3c-1,0-4.3,0-7.9-2.3c-0.4-0.3-0.7-0.4-1-0.6
		c-0.1-0.1-0.6-0.3-0.8,0.3L133.5,108.9z"/>
	<path class="st5" d="M200.2,93c-0.5-1.7-1.3-3.2-2.3-4.5c-1-1.3-2.4-2.3-3.9-3c-1.6-0.7-3.4-1.1-5.5-1.1c-2.1,0-3.9,0.4-5.5,1.1
		c-1.6,0.7-2.9,1.7-3.9,3c-1,1.3-1.8,2.8-2.3,4.5c-0.5,1.7-0.8,3.6-0.8,5.5c0,2,0.3,3.8,0.8,5.5c0.5,1.7,1.3,3.2,2.3,4.5
		c1,1.3,2.4,2.3,3.9,3s3.4,1.1,5.5,1.1c2.1,0,3.9-0.4,5.5-1.1c1.6-0.7,2.9-1.7,3.9-3c1-1.3,1.8-2.8,2.3-4.5c0.5-1.7,0.8-3.6,0.8-5.5
		C200.9,96.6,200.7,94.7,200.2,93 M195,98.6c0,3-0.6,5.3-1.6,7c-1.1,1.6-2.7,2.4-5,2.4c-2.3,0-3.9-0.8-5-2.4c-1.1-1.7-1.6-4-1.6-7
		c0-3,0.5-5.3,1.6-7c1.1-1.6,2.7-2.4,5-2.4c2.3,0,3.9,0.8,5,2.4C194.5,93.3,195,95.6,195,98.6"/>
	<path class="st6" d="M242.4,107.2c-0.2-0.5-0.7-0.3-0.7-0.3c-0.7,0.3-1.5,0.5-2.4,0.7c-0.9,0.1-1.8,0.2-2.8,0.2
		c-2.5,0-4.5-0.7-5.9-2.2c-1.4-1.5-2.2-3.8-2.2-7c0-2.9,0.7-5.1,2-6.8c1.3-1.7,3.2-2.5,5.7-2.5c2.1,0,3.7,0.2,5.4,0.8
		c0,0,0.4,0.2,0.6-0.4c0.5-1.3,0.8-2.1,1.3-3.5c0.1-0.4-0.2-0.6-0.3-0.6c-0.7-0.3-2.2-0.7-3.4-0.9c-1.1-0.2-2.4-0.3-3.9-0.3
		c-2.2,0-4.1,0.4-5.7,1.1c-1.6,0.7-3,1.7-4.1,3c-1.1,1.3-1.9,2.8-2.5,4.5c-0.6,1.7-0.8,3.6-0.8,5.5c0,4.3,1.1,7.7,3.4,10.2
		c2.3,2.5,5.7,3.8,10.1,3.8c2.6,0,5.3-0.5,7.3-1.3c0,0,0.4-0.2,0.2-0.6L242.4,107.2z"/>
	<path class="st6" d="M268.6,92.1c-0.4-1.6-1.5-3.3-2.2-4.1c-1.1-1.2-2.2-2.1-3.3-2.5c-1.4-0.6-3.1-1-5-1c-2.2,0-4.1,0.4-5.7,1.1
		c-1.6,0.7-2.9,1.8-4,3.1c-1.1,1.3-1.8,2.8-2.4,4.5c-0.5,1.7-0.8,3.6-0.8,5.5c0,2,0.3,3.9,0.8,5.6c0.5,1.7,1.4,3.2,2.5,4.4
		c1.1,1.2,2.6,2.2,4.4,2.9c1.8,0.7,3.9,1,6.3,1c5,0,7.7-1.1,8.8-1.7c0.2-0.1,0.4-0.3,0.1-0.8l-1.1-3.2c-0.2-0.5-0.7-0.3-0.7-0.3
		c-1.2,0.5-3,1.3-7.1,1.3c-2.7,0-4.7-0.8-5.9-2c-1.3-1.3-1.9-3.1-2-5.8l17.4,0c0,0,0.5,0,0.5-0.5C269.2,99.4,269.8,96,268.6,92.1
		 M251.3,95.7c0.2-1.7,0.7-3,1.4-4.1c1.1-1.6,2.7-2.5,5-2.5c2.3,0,3.8,0.9,4.9,2.5c0.7,1.1,1,2.5,1.2,4.1L251.3,95.7z"/>
	<path class="st6" d="M129.4,92.1c-0.4-1.6-1.5-3.3-2.2-4.1c-1.1-1.2-2.2-2.1-3.3-2.5c-1.4-0.6-3.1-1-5-1c-2.2,0-4.1,0.4-5.7,1.1
		c-1.6,0.7-2.9,1.8-4,3.1c-1.1,1.3-1.8,2.8-2.4,4.5c-0.5,1.7-0.8,3.6-0.8,5.5c0,2,0.3,3.9,0.8,5.6c0.5,1.7,1.4,3.2,2.5,4.4
		c1.1,1.2,2.6,2.2,4.4,2.9c1.8,0.7,3.9,1,6.3,1c5,0,7.7-1.1,8.8-1.7c0.2-0.1,0.4-0.3,0.1-0.8l-1.1-3.2c-0.2-0.5-0.7-0.3-0.7-0.3
		c-1.2,0.5-3,1.3-7.1,1.3c-2.7,0-4.7-0.8-5.9-2c-1.3-1.3-1.9-3.1-2-5.8l17.4,0c0,0,0.5,0,0.5-0.5C129.9,99.4,130.5,96,129.4,92.1
		 M112.1,95.7c0.2-1.7,0.7-3,1.4-4.1c1.1-1.6,2.7-2.5,5-2.5c2.3,0,3.8,0.9,4.9,2.5c0.7,1.1,1,2.5,1.2,4.1L112.1,95.7z"/>
	<path class="st5" d="M81.4,94.9c-0.7-0.1-1.6-0.1-2.7-0.1c-1.5,0-2.9,0.2-4.3,0.6c-1.4,0.4-2.6,0.9-3.6,1.7
		c-1.1,0.8-1.9,1.7-2.5,2.9c-0.6,1.1-0.9,2.5-0.9,4c0,1.5,0.3,2.9,0.8,4c0.5,1.1,1.3,2,2.3,2.7c1,0.7,2.2,1.2,3.5,1.5
		c1.4,0.3,2.9,0.5,4.6,0.5c1.8,0,3.6-0.1,5.3-0.4c1.7-0.3,3.8-0.7,4.4-0.9c0.6-0.1,1.2-0.3,1.2-0.3c0.4-0.1,0.4-0.6,0.4-0.6l0-15.9
		c0-3.5-0.9-6.1-2.8-7.7c-1.8-1.6-4.5-2.4-8-2.4c-1.3,0-3.4,0.2-4.7,0.4c0,0-3.8,0.7-5.4,2c0,0-0.3,0.2-0.2,0.7l1.2,3.3
		c0.2,0.4,0.6,0.3,0.6,0.3s0.1-0.1,0.3-0.1c3.3-1.8,7.6-1.8,7.6-1.8c1.9,0,3.3,0.4,4.3,1.1c0.9,0.7,1.4,1.8,1.4,4.1v0.7
		C82.8,95,81.4,94.9,81.4,94.9 M74.5,107.1c-0.7-0.5-0.8-0.7-1-1c-0.3-0.5-0.5-1.3-0.5-2.3c0-1.5,0.5-2.6,1.6-3.4c0,0,1.5-1.3,5-1.3
		c2.5,0,4.7,0.4,4.7,0.4v7.9c0,0-2.2,0.5-4.7,0.6C76.1,108.3,74.5,107.1,74.5,107.1"/>
	<path class="st6" d="M221.7,85.9c0.1-0.4-0.1-0.6-0.3-0.6c-0.3-0.1-1.8-0.4-2.9-0.5c-2.2-0.1-3.4,0.2-4.5,0.7
		c-1.1,0.5-2.3,1.3-2.9,2.2l0-2.1c0-0.3-0.2-0.5-0.5-0.5h-4.5c-0.3,0-0.5,0.2-0.5,0.5v25.9c0,0.3,0.2,0.5,0.5,0.5h4.6
		c0.3,0,0.5-0.2,0.5-0.5v-13c0-1.7,0.2-3.5,0.6-4.6c0.4-1.1,0.9-1.9,1.5-2.6c0.6-0.6,1.4-1,2.2-1.3c0.8-0.2,1.7-0.3,2.3-0.3
		c0.9,0,1.9,0.2,1.9,0.2c0.3,0,0.5-0.2,0.6-0.5C220.7,88.8,221.5,86.4,221.7,85.9"/>
	<path class="st6" d="M178.8,73.9c-0.6-0.2-1.1-0.3-1.7-0.4c-0.7-0.1-1.5-0.2-2.4-0.2c-3.1,0-5.6,0.9-7.4,2.6
		c-1.7,1.7-2.9,4.4-3.5,7.9l-0.2,1.2h-3.9c0,0-0.5,0-0.6,0.5l-0.6,3.6c0,0.3,0.1,0.6,0.6,0.6h3.8l-3.9,21.8c-0.3,1.8-0.7,3.2-1,4.3
		c-0.4,1.1-0.8,1.9-1.2,2.5c-0.4,0.6-0.9,1-1.6,1.2c-0.6,0.2-1.3,0.3-2,0.3c-0.4,0-1-0.1-1.4-0.2c-0.4-0.1-0.6-0.2-0.9-0.3
		c0,0-0.4-0.2-0.6,0.3c-0.1,0.4-1.2,3.2-1.3,3.5c-0.1,0.3,0,0.6,0.3,0.7c0.5,0.2,0.9,0.3,1.6,0.5c1,0.2,1.8,0.2,2.5,0.2
		c1.6,0,3.1-0.2,4.3-0.7c1.2-0.4,2.3-1.2,3.2-2.2c1-1.1,1.6-2.3,2.3-3.9c0.6-1.6,1.1-3.5,1.5-5.8l3.9-22.2h5.7c0,0,0.5,0,0.6-0.5
		l0.6-3.6c0-0.3-0.1-0.6-0.6-0.6h-5.6c0-0.1,0.3-2.1,0.9-3.9c0.3-0.8,0.8-1.4,1.2-1.9c0.4-0.4,0.9-0.7,1.5-0.9
		c0.6-0.2,1.2-0.3,1.9-0.3c0.5,0,1,0.1,1.4,0.1c0.5,0.1,0.7,0.2,0.9,0.2c0.6,0.2,0.6,0,0.8-0.3l1.3-3.7
		C179.2,74.1,178.9,74,178.8,73.9"/>
	<path class="st6" d="M101.1,111.5c0,0.3-0.2,0.5-0.5,0.5H96c-0.3,0-0.5-0.2-0.5-0.5V74.4c0-0.3,0.2-0.5,0.5-0.5h4.6
		c0.3,0,0.5,0.2,0.5,0.5V111.5z"/>
</g>
</svg>
