<?xml version="1.0" encoding="utf-8"?>
<!-- Generator: Adobe Illustrator 19.1.0, SVG Export Plug-In . SVG Version: 6.00 Build 0)  -->
<svg version="1.1" xmlns="http://www.w3.org/2000/svg" xmlns:xlink="http://www.w3.org/1999/xlink" x="0px" y="0px"
	 viewBox="0 0 300 294.3" style="enable-background:new 0 0 300 294.3;" xml:space="preserve">
<style type="text/css">
	.st0{fill:#832EAB;}
	.st1{fill:#C32265;}
	.st2{fill:#00AEEF;}
	.st3{fill:none;}
	.st4{fill:#8DC63F;}
	.st5{fill:#0F9BD7;}
	.st6{fill:#FFFFFF;}
	.st7{fill-rule:evenodd;clip-rule:evenodd;fill:#FFFFFF;}
	.st8{fill:#1DA1F2;}
	.st9{fill:#3D5A98;}
	.st10{fill:#231F20;}
	.st11{fill:#007BB5;}
	.st12{fill:#DC4E41;}
	.st13{fill-rule:evenodd;clip-rule:evenodd;fill:#181616;}
	.st14{fill:#181616;}
	.st15{fill:#F2F2F2;}
	.st16{fill:#E3E3E3;}
	.st17{fill:#D54B3D;}
	.st18{fill:#D72B27;}
	.st19{opacity:0.56;fill:url(#SVGID_1_);}
	.st20{fill:#BABABA;}
	.st21{fill:#92D400;}
	.st22{fill:#00B9E4;}
	.st23{fill:#2B3990;}
	.st24{fill:#3F9C35;}
	.st25{fill:#8FCED8;}
	.st26{fill:#D21F21;}
	.st27{fill:#009444;}
	.st28{fill:#4FE89C;}
	.st29{fill:#D6D6D6;}
	.st30{fill:#F1F1F1;}
	.st31{fill:#8C3123;}
	.st32{fill:#E05243;}
	.st33{fill:#5E1F18;}
	.st34{fill:#F2B0A9;}
	.st35{fill:#CACCCE;}
	.st36{fill:#A1AFDB;}
	.st37{fill:#002087;}
	.st38{fill:#6C4199;}
	.st39{fill:#C7C7C7;}
	.st40{fill:#1976D2;}
	.st41{fill:#1E88E5;}
	.st42{fill:#FAFAFA;}
	.st43{fill:#E0E0E0;}
	.st44{fill:#F6A11F;}
	.st45{fill:#0A6DAE;}
	.st46{fill:#0BA25E;}
	.st47{fill:#089156;}
	.st48{fill:#10985B;}
	.st49{fill:#F9C941;}
	.st50{fill:#E8B835;}
	.st51{fill:#296AD9;}
	.st52{fill:#2A71E9;}
	.st53{fill:#286EE6;}
	.st54{fill:#BCBEC0;}
	.st55{fill:#FFFFFF;stroke:#231F20;stroke-width:10;stroke-linecap:round;stroke-linejoin:round;stroke-miterlimit:10;}
	.st56{fill:#00AEEF;stroke:#231F20;stroke-width:10;stroke-linecap:round;stroke-linejoin:round;stroke-miterlimit:10;}
	.st57{fill:#231F20;stroke:#231F20;stroke-width:10;stroke-linecap:round;stroke-linejoin:round;stroke-miterlimit:10;}
	.st58{fill:none;stroke:#231F20;stroke-width:10;stroke-miterlimit:10;}
	.st59{fill:none;stroke:#231F20;stroke-width:10;stroke-linejoin:round;stroke-miterlimit:10;}
	.st60{fill:none;stroke:#231F20;stroke-width:9.5201;stroke-linecap:round;stroke-linejoin:round;stroke-miterlimit:10;}
	.st61{fill:none;stroke:#231F20;stroke-width:7.8079;stroke-linecap:round;stroke-linejoin:round;stroke-miterlimit:10;}
	.st62{fill:#D1D3D4;}
	.st63{fill:url(#SVGID_2_);}
	.st64{fill:url(#SVGID_3_);}
	.st65{fill:url(#SVGID_4_);}
	.st66{fill:url(#SVGID_5_);}
	.st67{fill:url(#SVGID_6_);}
	.st68{fill:url(#SVGID_7_);}
	.st69{fill:#00A79D;}
	.st70{fill:#4E376B;}
	.st71{fill:#004981;}
	.st72{fill:#106599;}
	.st73{fill:#1E78AF;}
	.st74{fill:#4396C9;}
	.st75{fill:#63AAD6;}
	.st76{fill:#B8DDF4;}
	.st77{fill:#1F8893;}
	.st78{fill:none;stroke:#000000;stroke-width:6.3625;stroke-linecap:round;stroke-linejoin:round;stroke-miterlimit:10;}
	.st79{fill:#FFFFFF;stroke:#000000;stroke-width:5.3826;stroke-linejoin:round;stroke-miterlimit:10;}
	.st80{fill:#42BCBC;stroke:#000000;stroke-width:6.2798;stroke-linejoin:round;stroke-miterlimit:10;}
	.st81{fill:none;stroke:#000000;stroke-width:5.3826;stroke-linecap:round;stroke-linejoin:round;stroke-miterlimit:10;}
	.st82{fill:none;stroke:#000000;stroke-width:3.1813;stroke-linecap:round;stroke-linejoin:round;stroke-miterlimit:10;}
</style>
<g id="Layer_1">
	<g>
		<g>
			<path class="st10" d="M288.3,10c0.9,0,1.7,0.7,1.7,1.7v271c0,0.9-0.7,1.7-1.7,1.7H11.7c-0.9,0-1.7-0.7-1.7-1.7v-271
				c0-0.9,0.7-1.7,1.7-1.7H288.3 M288.3,0H11.7C5.2,0,0,5.2,0,11.7v271c0,6.4,5.2,11.7,11.7,11.7h276.7c6.4,0,11.7-5.2,11.7-11.7
				v-271C300,5.2,294.8,0,288.3,0L288.3,0z"/>
		</g>
		<path class="st10" d="M289.9,0H10.1C4.5,0,0,4.5,0,10.1v34.5c0,5.6,4.5,10.1,10.1,10.1h279.8c5.6,0,10.1-4.5,10.1-10.1V10.1
			C300,4.5,295.5,0,289.9,0z"/>
		<rect x="30.6" y="71.5" class="st2" width="48.8" height="197.3"/>
		<rect x="95.4" y="71.5" class="st2" width="171.8" height="61.7"/>
		<circle class="st6" cx="39.9" cy="26.2" r="15.1"/>
		<circle class="st6" cx="80.3" cy="26.2" r="15.1"/>
		<circle class="st6" cx="120.9" cy="26.2" r="15.1"/>
		<line class="st60" x1="102.4" y1="159" x2="258" y2="159"/>
		<line class="st60" x1="102.4" y1="185.5" x2="258" y2="185.5"/>
		<line class="st60" x1="102.4" y1="211.4" x2="258" y2="211.4"/>
		<line class="st60" x1="102.4" y1="237.4" x2="258" y2="237.4"/>
		<line class="st61" x1="102.4" y1="262.6" x2="207.1" y2="262.6"/>
	</g>
</g>
<g id="Layer_2">
</g>
</svg>
