<?xml version="1.0" encoding="utf-8"?>
<!-- Generator: Adobe Illustrator 19.1.0, SVG Export Plug-In . SVG Version: 6.00 Build 0)  -->
<svg version="1.1" xmlns="http://www.w3.org/2000/svg" xmlns:xlink="http://www.w3.org/1999/xlink" x="0px" y="0px"
	 viewBox="0 0 300 300" style="enable-background:new 0 0 300 300;" xml:space="preserve">
<style type="text/css">
	.st0{fill:#832EAB;}
	.st1{fill:#C32265;}
	.st2{fill:#00AEEF;}
	.st3{fill:none;}
	.st4{fill:#8DC63F;}
	.st5{fill:#0F9BD7;}
	.st6{fill:#FFFFFF;}
	.st7{fill-rule:evenodd;clip-rule:evenodd;fill:#FFFFFF;}
	.st8{fill:#1DA1F2;}
	.st9{fill:#3D5A98;}
	.st10{fill:#231F20;}
	.st11{fill:#007BB5;}
	.st12{fill:#DC4E41;}
	.st13{fill-rule:evenodd;clip-rule:evenodd;fill:#181616;}
	.st14{fill:#181616;}
	.st15{fill:#F2F2F2;}
	.st16{fill:#E3E3E3;}
	.st17{fill:#D54B3D;}
	.st18{fill:#D72B27;}
	.st19{opacity:0.56;fill:url(#SVGID_1_);}
	.st20{fill:#BABABA;}
	.st21{fill:#92D400;}
	.st22{fill:#00B9E4;}
	.st23{fill:#2B3990;}
	.st24{fill:#3F9C35;}
	.st25{fill:#8FCED8;}
	.st26{fill:#D21F21;}
	.st27{fill:#009444;}
	.st28{fill:#4FE89C;}
	.st29{fill:#D6D6D6;}
	.st30{fill:#F1F1F1;}
	.st31{fill:#8C3123;}
	.st32{fill:#E05243;}
	.st33{fill:#5E1F18;}
	.st34{fill:#F2B0A9;}
	.st35{fill:#CACCCE;}
	.st36{fill:#A1AFDB;}
	.st37{fill:#002087;}
	.st38{fill:#6C4199;}
	.st39{fill:#C7C7C7;}
	.st40{fill:#1976D2;}
	.st41{fill:#1E88E5;}
	.st42{fill:#FAFAFA;}
	.st43{fill:#E0E0E0;}
	.st44{fill:#F6A11F;}
	.st45{fill:#0A6DAE;}
	.st46{fill:#0BA25E;}
	.st47{fill:#089156;}
	.st48{fill:#10985B;}
	.st49{fill:#F9C941;}
	.st50{fill:#E8B835;}
	.st51{fill:#296AD9;}
	.st52{fill:#2A71E9;}
	.st53{fill:#286EE6;}
	.st54{fill:#BCBEC0;}
	.st55{fill:#FFFFFF;stroke:#231F20;stroke-width:10;stroke-linecap:round;stroke-linejoin:round;stroke-miterlimit:10;}
	.st56{fill:#00AEEF;stroke:#231F20;stroke-width:10;stroke-linecap:round;stroke-linejoin:round;stroke-miterlimit:10;}
	.st57{fill:#231F20;stroke:#231F20;stroke-width:10;stroke-linecap:round;stroke-linejoin:round;stroke-miterlimit:10;}
	.st58{fill:none;stroke:#231F20;stroke-width:10;stroke-miterlimit:10;}
	.st59{fill:none;stroke:#231F20;stroke-width:10;stroke-linejoin:round;stroke-miterlimit:10;}
	.st60{fill:none;stroke:#231F20;stroke-width:9.5201;stroke-linecap:round;stroke-linejoin:round;stroke-miterlimit:10;}
	.st61{fill:none;stroke:#231F20;stroke-width:7.8079;stroke-linecap:round;stroke-linejoin:round;stroke-miterlimit:10;}
	.st62{fill:#D1D3D4;}
	.st63{fill:url(#SVGID_2_);}
	.st64{fill:url(#SVGID_3_);}
	.st65{fill:url(#SVGID_4_);}
	.st66{fill:url(#SVGID_5_);}
	.st67{fill:url(#SVGID_6_);}
	.st68{fill:url(#SVGID_7_);}
	.st69{fill:#00A79D;}
	.st70{fill:#4E376B;}
	.st71{fill:#004981;}
	.st72{fill:#106599;}
	.st73{fill:#1E78AF;}
	.st74{fill:#4396C9;}
	.st75{fill:#63AAD6;}
	.st76{fill:#B8DDF4;}
	.st77{fill:#1F8893;}
	.st78{fill:none;stroke:#000000;stroke-width:6.3625;stroke-linecap:round;stroke-linejoin:round;stroke-miterlimit:10;}
	.st79{fill:#FFFFFF;stroke:#000000;stroke-width:5.3826;stroke-linejoin:round;stroke-miterlimit:10;}
	.st80{fill:#42BCBC;stroke:#000000;stroke-width:6.2798;stroke-linejoin:round;stroke-miterlimit:10;}
	.st81{fill:none;stroke:#000000;stroke-width:5.3826;stroke-linecap:round;stroke-linejoin:round;stroke-miterlimit:10;}
	.st82{fill:none;stroke:#000000;stroke-width:3.1813;stroke-linecap:round;stroke-linejoin:round;stroke-miterlimit:10;}
</style>
<g id="Layer_1">
</g>
<g id="Layer_2">
	<g>
		<path class="st2" d="M84.8,239.4c-2.6,0-5.2-0.7-7.5-2L18,203.1c-4.7-2.7-7.5-7.6-7.5-13s2.8-10.3,7.5-13l59.3-34.2
			c2.3-1.3,4.9-2,7.5-2c8.3,0,15.1,6.8,15.1,15.1v21.5h123.4c21,0,40.7,0,40.7-45.5c0-17.5-4.2-30.1-12.6-37.6
			c-8-7.1-18.4-8.2-23.8-8.2c-1.7,0-2.7,0.1-2.8,0.1l-0.2,0l-1.2,0.1H103c-7,0-12.7-5.7-12.7-12.7c0-7,5.7-12.7,12.7-12.7h119.6
			c1.1-0.1,2.8-0.2,5-0.2c9,0,26.2,1.9,40.5,14.4c14.2,12.5,21.4,31.6,21.4,56.8c0,71-44.7,71-66.2,71H99.9v21.5
			C99.9,232.6,93.1,239.4,84.8,239.4z"/>
		<path class="st10" d="M227.6,65.1c8.2,0,24.3,1.7,37.5,13.3C278.3,90,285,107.9,285,131.8c0,66.5-40.1,66.5-61.7,66.5H95.4v26
			c0,6.2-5.1,10.6-10.6,10.6c-1.8,0-3.6-0.4-5.3-1.4l-59.3-34.2c-7-4.1-7-14.2,0-18.3l59.3-34.2c1.7-1,3.5-1.4,5.3-1.4
			c5.5,0,10.6,4.4,10.6,10.6v26h127.9c21.2,0,45.2,0,45.2-50c0-18.8-4.8-32.6-14.1-40.9c-9.3-8.2-21.2-9.3-26.8-9.3
			c-2,0-3.2,0.1-3.3,0.1l-1,0.1H103c-4.5,0-8.2-3.7-8.2-8.2s3.7-8.2,8.2-8.2h119.9C223.7,65.2,225.4,65.1,227.6,65.1 M227.6,56.1
			c-2.2,0-4,0.1-5.2,0.2H103c-9.5,0-17.2,7.7-17.2,17.2c0,9.5,7.7,17.2,17.2,17.2h120.3h0.3l0.3,0l1-0.1l0.2,0l0.2,0
			c0,0,0.9-0.1,2.3-0.1c3.9,0,13.7,0.7,20.8,7c7.4,6.5,11.1,18,11.1,34.2c0,19-3.7,31.2-10.9,36.5c-6.3,4.6-15.5,4.6-25.3,4.6H104.4
			v-17c0-10.8-8.8-19.6-19.6-19.6c-3.4,0-6.8,0.9-9.8,2.6l-59.3,34.2C9.7,176.7,6,183,6,190.1c0,7.1,3.7,13.4,9.8,16.9l59.3,34.2
			c3,1.7,6.4,2.6,9.8,2.6c10.8,0,19.6-8.8,19.6-19.6v-17h118.9c11.5,0,28.9,0,43.9-9.8c17.8-11.6,26.8-33.7,26.8-65.7
			c0-26.6-7.7-46.8-22.9-60.2C255.7,58.1,237.3,56.1,227.6,56.1L227.6,56.1z"/>
	</g>
</g>
</svg>
