<?xml version="1.0" ?><!DOCTYPE svg  PUBLIC '-//W3C//DTD SVG 1.1//EN'  'http://www.w3.org/Graphics/SVG/1.1/DTD/svg11.dtd'><svg enable-background="new 0 0 100 100" height="100px" version="1.1" viewBox="0 0 100 100" width="100px" xml:space="preserve" xmlns="http://www.w3.org/2000/svg" xmlns:xlink="http://www.w3.org/1999/xlink"><g id="Layer_1"><g><polygon fill="#2D72B8" points="74.174,31.807 81.611,37.174 81.611,29.572 74.131,20.807 74.131,31.764 74.174,31.779   "/><g><polygon fill="#5294CF" points="59.838,85.666 74.131,78.52 74.131,20.791 59.828,13.667    "/><polygon fill="#205B98" points="39.496,85.666 25.203,78.52 25.203,20.791 39.506,13.667    "/><rect fill="#2D72B8" height="71.999" width="20.321" x="39.506" y="13.667"/><polygon fill="#2D72B8" points="74.131,67.564 74.131,78.52 81.611,69.756 81.611,62.154 74.174,67.551    "/><polygon fill="#2D72B8" points="74.131,62.936 74.174,62.926 81.611,58.926 81.611,51.277 74.131,51.965    "/><polygon fill="#2D72B8" points="74.174,36.429 74.131,36.419 74.131,47.35 81.611,48.049 81.611,40.404    "/><polygon fill="#1A476F" points="81.611,48.049 74.131,47.35 59.828,46.778 49.666,46.778 39.506,46.778 25.203,47.35      25.203,36.443 25.188,36.451 25.203,36.419 39.506,33.105 49.666,33.105 59.828,33.105 74.131,36.419 79.389,39.214      79.389,37.417 81.611,37.174 74.131,31.764 59.828,27.332 49.666,27.332 39.506,27.332 25.203,31.764 25.203,20.807      17.723,29.57 17.723,37.223 17.781,37.181 19.945,37.417 19.945,39.251 17.723,40.44 17.723,48.055 17.781,48.049 19.945,48.081      19.945,51.277 18.078,51.305 17.723,51.271 17.723,58.889 19.945,60.084 19.945,61.939 17.816,62.174 17.723,62.104      17.723,69.756 25.203,78.52 25.203,67.564 39.506,71.996 49.666,71.996 59.828,71.996 74.173,67.551 81.611,62.184      79.389,61.939 79.389,60.121 74.173,62.926 59.828,66.221 59.828,66.225 49.666,66.225 39.506,66.225 39.506,66.221      25.158,62.926 25.133,62.875 25.203,62.912 25.203,51.965 39.506,52.535 39.506,52.549 49.666,52.549 59.828,52.549      59.828,52.535 74.131,51.965 81.611,51.309 79.389,51.277 79.389,48.081    "/></g></g></g></svg>