<?xml version="1.0" encoding="utf-8"?>
<!-- Generator: Adobe Illustrator 19.1.0, SVG Export Plug-In . SVG Version: 6.00 Build 0)  -->
<svg version="1.1" id="Layer_1" xmlns="http://www.w3.org/2000/svg" xmlns:xlink="http://www.w3.org/1999/xlink" x="0px" y="0px"
	 viewBox="0 0 300 300" style="enable-background:new 0 0 300 300;" xml:space="preserve">
<style type="text/css">
	.st0{fill:#832EAB;}
	.st1{fill:#BABABA;}
	.st2{fill:none;}
	.st3{fill:#8DC63F;}
	.st4{fill:#0F9BD7;}
	.st5{fill:#FFFFFF;}
	.st6{fill-rule:evenodd;clip-rule:evenodd;fill:#FFFFFF;}
	.st7{fill:#1DA1F2;}
	.st8{fill:#3D5A98;}
	.st9{fill:#231F20;}
	.st10{fill:#007BB5;}
	.st11{fill:#DC4E41;}
	.st12{fill-rule:evenodd;clip-rule:evenodd;fill:#181616;}
	.st13{fill:#181616;}
	.st14{fill:#F2F2F2;}
	.st15{fill:#E3E3E3;}
	.st16{fill:#D54B3D;}
	.st17{fill:#D72B27;}
	.st18{opacity:0.56;fill:url(#SVGID_1_);}
	.st19{fill:#92D400;}
	.st20{fill:#00B9E4;}
	.st21{fill:#2B3990;}
	.st22{fill:#3F9C35;}
	.st23{fill:#8FCED8;}
	.st24{fill:#D21F21;}
	.st25{fill:#D6D6D6;}
	.st26{fill:#F1F1F1;}
	.st27{fill:#C32265;}
	.st28{fill:#8C3123;}
	.st29{fill:#E05243;}
	.st30{fill:#5E1F18;}
	.st31{fill:#F2B0A9;}
	.st32{fill:#CACCCE;}
	.st33{fill:#A1AFDB;}
	.st34{fill:#002087;}
</style>
<g>
	<path class="st0" d="M275.1,300H24.9C11.1,300,0,288.9,0,275.1V24.9C0,11.1,11.1,0,24.9,0h250.2C288.9,0,300,11.1,300,24.9v250.2
		C300,288.9,288.9,300,275.1,300z"/>
</g>
<g>
	
		<image style="overflow:visible;opacity:0.75;" width="953" height="953" xlink:href="AB94EA5020717A1A.png"  transform="matrix(0.24 0 0 0.24 42.715 42.715)">
	</image>
	<g>
		<g>
			<g>
				<path class="st5" d="M139.4,185.5c12.9,18.7,20.9,42.2,23.8,69.7h32.9c-2.4-34.6-11.8-64.4-27.8-88.7c-13-19.7-30.5-35.9-52-48
					c-31.9-18-63.4-21.8-71.6-22.5v39.3c6.7,0.1,29.5,1.5,53.7,14.1C115.1,158.1,128.8,170.2,139.4,185.5z"/>
			</g>
			<g>
				<path class="st5" d="M255.3,91.5v-29c0-9.8-8-17.8-17.8-17.8H207C221.4,54.4,241.3,70.3,255.3,91.5z"/>
			</g>
			<g>
				<path class="st5" d="M186.5,44.7h-75.7c11.9,4.6,25.5,11,39.7,19.8c25.4,15.8,47.6,36.1,66,60.5c15.9,21.2,28.9,45.4,38.9,72.4
					v-83.3C239.7,76.1,197.2,50.6,186.5,44.7z"/>
			</g>
			<g>
				<path class="st5" d="M130.7,191.9c-9.5-13.9-21.9-24.9-36.8-32.7c-22-11.5-43.2-12.9-49.2-13.1v91.4c0,9.8,8,17.8,17.8,17.8
					h89.9C149.6,230.1,142.3,208.8,130.7,191.9z"/>
			</g>
			<g>
				<path class="st5" d="M208.1,131.8c-17.5-23.3-38.6-42.8-62.8-57.9c-32.3-20.1-61.7-27.1-73.2-29.2h-9.6c-9.8,0-17.8,8-17.8,17.8
					v22.8c7.6,0.5,41.3,4,76.4,23.7c23.1,13,41.9,30.3,55.9,51.4c17.3,26,27.3,57.9,29.7,94.8h30.7c9.8,0,17.8-8,17.8-17.8v-4
					C245.2,194.4,229.3,160.1,208.1,131.8z"/>
			</g>
		</g>
	</g>
</g>
</svg>
