<svg id="Layer_1" data-name="Layer 1" xmlns="http://www.w3.org/2000/svg" viewBox="0 0 296.53847 259.01487"><title>Azure Storage Queue Service</title><g id="Page-1"><path d="M150.7274,2.2369c23.72527,0,47.4508.05162,71.17545-.06795A5.72758,5.72758,0,0,1,227.642,5.51858c22.627,39.55408,45.18821,79.14755,68.19952,118.47864,3.44376,5.88613,3.21165,9.92412-.13686,15.66516-23.00762,39.4469-45.61725,79.125-68.29546,118.76264a4.8978,4.8978,0,0,1-4.908,2.75863q-71.46975-.09949-142.93972-.02425c-1.97863.00136-3.47783-.224-4.62329-2.20437q-36.13327-62.4699-72.427-124.84721a4.21555,4.21555,0,0,1,.06478-4.82435Q38.498,66.86,74.3279,4.38377c1.05651-1.84309,2.4258-2.17984,4.34142-2.17626Q114.69827,2.27486,150.7274,2.2369Zm-1.83563,185.43962c32.548,0,65.09827-.20265,97.642.168,6.64994.07575,11.04386-2.097,14.37148-7.40736.3628-.579.84361-1.08481,1.20162-1.66628,7.63674-12.4032,15.17946-24.86534,22.95583-37.18064,1.79272-2.83914,1.53193-5.14438.02989-7.82163-4.44868-7.92928-8.58419-16.042-13.25926-23.8338-4.46961-7.44936-9.39078-14.63448-14.26406-21.83425-1.72288-2.54537-4.24943-3.6826-7.5463-3.67918q-100.732.10475-201.4641.05915c-8.4936.00151-13.50722,4.99962-13.51689,13.516q-.04334,38.1481.00052,76.29628c.01011,8.5442,4.96516,13.38167,13.55833,13.38242Q98.7463,187.67967,148.89177,187.67652Z" transform="translate(-1.78357 -2.1688)" fill="#0379dd"/><path d="M148.04562,94.28673q49.39317-.001,98.78622-.0573c2.66669-.007,4.39119.74,5.73075,3.054,7.49027,12.93882,15.09394,25.81235,22.5568,38.76672a4.08721,4.08721,0,0,1,.26627,3.44269c-7.61264,12.41065-15.37852,24.72765-23.08493,37.08123-1.16771,1.87183-2.76866,2.4-4.94239,2.39844q-98.93332-.07209-197.86671-.041c-4.2225-.00018-5.66985-1.36464-5.67358-5.56354q-.03307-37.25495-.00031-74.51c.00295-3.662,1.05269-4.56479,5.14751-4.56585Q98.50544,94.27946,148.04562,94.28673ZM102.482,105.02036c-12.64192,0-25.2839-.022-37.92571.01378-3.66232.01038-4.80675,1.04909-4.81115,4.34567q-.03818,28.60033.00837,57.20075c.00833,3.94862,1.40886,5.24317,5.34857,5.24448q37.33776.01236,74.67552-.00066c5.23406-.00226,7.49377-2.2609,7.498-7.5q.02121-26.547.00189-53.09408c-.00208-4.201-1.19284-5.55186-5.40569-6.09039a28.00241,28.00241,0,0,0-3.522-.11984Q120.41589,105.00855,102.482,105.02036Zm99.31383-.005q-17.77783,0-35.55569.00135c-6.58129.00266-7.50109.895-7.50695,7.3838q-.0189,20.963-.003,41.92592c.00077,3.61588-.11446,7.238.058,10.84615.25,5.2301,1.86439,6.6558,7.08686,6.65628q35.70261.00327,71.40522.00059c6.03066-.00025,7.58742-1.52634,7.59383-7.60792q.02774-26.3869.00133-52.77385c-.00419-5.26306-1.13578-6.41427-6.34854-6.42368Q220.16145,104.99086,201.79584,105.01532Z" transform="translate(-1.78357 -2.1688)" fill="#0379dd"/><path d="M137.90067,124.30669c.11518,1.39869.23045,2.15229.23129,2.906.01174,10.45555-.06852,20.912.05977,31.366.03327,2.71084-.86164,3.50176-3.5439,3.48937q-30.55526-.14138-61.11135-.00181c-2.575.0113-3.37161-.75716-3.34225-3.33753.1254-11.02021.05339-22.04265.05339-33.741,2.34409,1.81784,4.23642,3.26918,6.11151,4.74235q10.73043,8.43045,21.44783,16.87737c3.88569,3.0723,5.41394,3.18031,9.36552.28534q13.61109-9.97165,27.17681-20.005C135.36,126.14361,136.37972,125.41153,137.90067,124.30669Z" transform="translate(-1.78357 -2.1688)" fill="#0379dd"/><path d="M70.08651,113.865H133.5453c-7.14262,5.44146-13.8648,10.5652-20.59,15.685-3.26737,2.48738-6.48733,5.04312-9.85338,7.38994a3.22525,3.22525,0,0,1-2.92783.23745C90.23382,129.59478,80.38991,121.88638,70.08651,113.865Z" transform="translate(-1.78357 -2.1688)" fill="#0379dd"/><path d="M235.47178,124.58859c.09776,1.05873.22455,1.79773.22545,2.53689.01278,10.56354-.04535,21.12759.04992,31.6903.02135,2.36681-.66157,3.2546-3.15281,3.245-20.5862-.07965-41.17286-.05407-61.75934-.02976-1.76456.00207-3.00982-.1607-2.99377-2.46356.07692-11.05206.03644-22.10492.04974-33.15749a6.39738,6.39738,0,0,1,.3346-1.20461c4.09557,3.12352,8.03176,6.11422,11.95571,9.12086,5.51769,4.22786,11.00938,8.48968,16.54493,12.69407,3.439,2.612,5.22443,2.56544,8.66367-.0245Q219.46681,136.395,233.55256,125.806C234.06782,125.4188,234.6429,125.11087,235.47178,124.58859Z" transform="translate(-1.78357 -2.1688)" fill="#0379dd"/><path d="M232.67082,113.92464c-5.33963,4.17293-10.15627,7.9435-14.98,11.7051-4.8545,3.78565-9.67833,7.61282-14.6178,11.285a3.16764,3.16764,0,0,1-2.90575.25752c-9.93674-7.58-19.77748-15.28523-30.00534-23.24759Z" transform="translate(-1.78357 -2.1688)" fill="#0379dd"/></g></svg>