<?xml version="1.0" encoding="utf-8"?>
<!-- Generator: Adobe Illustrator 19.1.0, SVG Export Plug-In . SVG Version: 6.00 Build 0)  -->
<svg version="1.1" id="Layer_1" xmlns="http://www.w3.org/2000/svg" xmlns:xlink="http://www.w3.org/1999/xlink" x="0px" y="0px"
	 viewBox="0 0 300 231" style="enable-background:new 0 0 300 231;" xml:space="preserve">
<style type="text/css">
	.st0{fill:#832EAB;}
	.st1{fill:#BABABA;}
	.st2{fill:none;}
	.st3{fill:#8DC63F;}
	.st4{fill:#0F9BD7;}
	.st5{fill:#FFFFFF;}
	.st6{fill-rule:evenodd;clip-rule:evenodd;fill:#FFFFFF;}
	.st7{fill:#1DA1F2;}
	.st8{fill:#3D5A98;}
	.st9{fill:#231F20;}
	.st10{fill:#007BB5;}
	.st11{fill:#DC4E41;}
	.st12{fill-rule:evenodd;clip-rule:evenodd;fill:#181616;}
	.st13{fill:#181616;}
	.st14{fill:#F2F2F2;}
	.st15{fill:#E3E3E3;}
	.st16{fill:#D54B3D;}
	.st17{fill:#D72B27;}
	.st18{opacity:0.56;fill:url(#SVGID_1_);}
	.st19{fill:#92D400;}
	.st20{fill:#00B9E4;}
	.st21{fill:#2B3990;}
	.st22{fill:#3F9C35;}
	.st23{fill:#8FCED8;}
	.st24{fill:#D21F21;}
	.st25{fill:#D6D6D6;}
	.st26{fill:#F1F1F1;}
	.st27{fill:#C32265;}
	.st28{fill:#8C3123;}
	.st29{fill:#E05243;}
	.st30{fill:#5E1F18;}
	.st31{fill:#F2B0A9;}
	.st32{fill:#CACCCE;}
	.st33{fill:#A1AFDB;}
	.st34{fill:#002087;}
</style>
<path class="st23" d="M238.2,3.1H53.8c-12.6,0-22.9,7.5-22.9,16.6v191.5c0,9.2,10.3,16.6,22.9,16.6h184.5c12.6,0,22.9-7.5,22.9-16.6
	V19.7C261.1,10.6,250.9,3.1,238.2,3.1z"/>
<path class="st9" d="M299.6,10.4c-0.4-0.4-0.9-0.5-1.5-0.4c0,0-0.1,0-0.1,0l-28.3,10.4c-0.5,0.2-0.9,0.6-1,1.1c-0.1,0.5,0,1,0.4,1.4
	l4.6,4.6L260.3,41V7.1c0-3.9-3.2-7.1-7.1-7.1H36.4c-3.9,0-7.1,3.2-7.1,7.1v159.1L1.7,193.8c-2.3,2.3-2.3,6,0,8.3
	c1.2,1.2,2.7,1.7,4.2,1.7c1.5,0,3-0.6,4.2-1.7l19.2-19.2v41c0,3.9,3.2,7.1,7.1,7.1h216.7c3.9,0,7.1-3.2,7.1-7.1V57.6L282,35.9
	l4.8,4.8c0.4,0.4,0.9,0.5,1.4,0.4c0.6,0,0.9-0.5,1.1-0.9L299.9,12C300.1,11.4,300,10.8,299.6,10.4z M203.5,61.2H240l-36.6,36.6V61.2
	z M37.1,116.9h41.5l-41.5,41.5V116.9z M87,223.1H37.1V175l2.5-2.5H87V223.1z M87,167.6H44.5L87,125.2V167.6z M87,108.5l-3.4,3.4
	H37.1V61.2H87V108.5z M87,56.3H37.1V7.9H87V56.3z M142.8,223.1H91.9v-50.6h50.9V223.1z M142.8,167.6H91.9v-47.4l3.4-3.4h42.1
	l5.3,5.3V167.6z M100.2,112l16.2-16.2l16.2,16.2H100.2z M142.8,105.5l-22.2-22.2c-2.3-2.3-6-2.3-8.3,0l-20.3,20.3V61.2h50.9V105.5z
	 M142.8,56.3H91.9V7.9h50.9V56.3z M198.6,223.1h-50.9v-50.6h50.9V223.1z M198.6,167.6h-50.9v-40.5l17.4,17.4c2.3,2.3,6,2.3,8.3,0
	l25.2-25.2V167.6z M154.1,116.9h30.3L169.2,132L154.1,116.9z M198.6,102.7l-9.3,9.3h-40.1l-1.5-1.5V61.2h50.9V102.7z M198.6,56.3
	h-50.9V7.9h50.9V56.3z M252.4,223.1h-49v-50.6h49V223.1z M252.4,167.6h-49v-50.8h49V167.6z M252.4,112h-46.5l46.5-46.5V112z
	 M252.4,48.8l-7.5,7.5h-41.5V7.9h49V48.8z"/>
</svg>
