<?xml version="1.0" encoding="utf-8"?>
<!-- Generator: Adobe Illustrator 19.1.0, SVG Export Plug-In . SVG Version: 6.00 Build 0)  -->
<svg version="1.1" xmlns="http://www.w3.org/2000/svg" xmlns:xlink="http://www.w3.org/1999/xlink" x="0px" y="0px"
	 viewBox="0 0 300 300" style="enable-background:new 0 0 300 300;" xml:space="preserve">
<style type="text/css">
	.st0{fill:#832EAB;}
	.st1{fill:#C32265;}
	.st2{fill:#00AEEF;}
	.st3{fill:none;}
	.st4{fill:#8DC63F;}
	.st5{fill:#0F9BD7;}
	.st6{fill:#FFFFFF;}
	.st7{fill-rule:evenodd;clip-rule:evenodd;fill:#FFFFFF;}
	.st8{fill:#1DA1F2;}
	.st9{fill:#3D5A98;}
	.st10{fill:#231F20;}
	.st11{fill:#007BB5;}
	.st12{fill:#DC4E41;}
	.st13{fill-rule:evenodd;clip-rule:evenodd;fill:#181616;}
	.st14{fill:#181616;}
	.st15{fill:#F2F2F2;}
	.st16{fill:#E3E3E3;}
	.st17{fill:#D54B3D;}
	.st18{fill:#D72B27;}
	.st19{opacity:0.56;fill:url(#SVGID_1_);}
	.st20{fill:#BABABA;}
	.st21{fill:#92D400;}
	.st22{fill:#00B9E4;}
	.st23{fill:#2B3990;}
	.st24{fill:#3F9C35;}
	.st25{fill:#8FCED8;}
	.st26{fill:#D21F21;}
	.st27{fill:#009444;}
	.st28{fill:#4FE89C;}
	.st29{fill:#D6D6D6;}
	.st30{fill:#F1F1F1;}
	.st31{fill:#8C3123;}
	.st32{fill:#E05243;}
	.st33{fill:#5E1F18;}
	.st34{fill:#F2B0A9;}
	.st35{fill:#CACCCE;}
	.st36{fill:#A1AFDB;}
	.st37{fill:#002087;}
	.st38{fill:#6C4199;}
	.st39{fill:#C7C7C7;}
	.st40{fill:#1976D2;}
	.st41{fill:#1E88E5;}
	.st42{fill:#FAFAFA;}
	.st43{fill:#E0E0E0;}
	.st44{fill:#F6A11F;}
	.st45{fill:#0A6DAE;}
	.st46{fill:#0BA25E;}
	.st47{fill:#089156;}
	.st48{fill:#10985B;}
	.st49{fill:#F9C941;}
	.st50{fill:#E8B835;}
	.st51{fill:#296AD9;}
	.st52{fill:#2A71E9;}
	.st53{fill:#286EE6;}
	.st54{fill:#BCBEC0;}
	.st55{fill:#FFFFFF;stroke:#231F20;stroke-width:13.75;stroke-linecap:round;stroke-linejoin:round;stroke-miterlimit:10;}
	.st56{fill:#00AEEF;stroke:#231F20;stroke-width:13.75;stroke-linecap:round;stroke-linejoin:round;stroke-miterlimit:10;}
	.st57{fill:#231F20;stroke:#231F20;stroke-width:13.75;stroke-linecap:round;stroke-linejoin:round;stroke-miterlimit:10;}
	.st58{fill:none;stroke:#231F20;stroke-width:13.75;stroke-miterlimit:10;}
	.st59{fill:none;stroke:#231F20;stroke-width:13.75;stroke-linejoin:round;stroke-miterlimit:10;}
	.st60{fill:none;stroke:#231F20;stroke-width:9.5201;stroke-linecap:round;stroke-linejoin:round;stroke-miterlimit:10;}
	.st61{fill:none;stroke:#231F20;stroke-width:7.8079;stroke-linecap:round;stroke-linejoin:round;stroke-miterlimit:10;}
	.st62{fill:#D1D3D4;}
	.st63{fill:url(#SVGID_2_);}
	.st64{fill:url(#SVGID_3_);}
	.st65{fill:url(#SVGID_4_);}
	.st66{fill:url(#SVGID_5_);}
	.st67{fill:url(#SVGID_6_);}
	.st68{fill:url(#SVGID_7_);}
	.st69{fill:#00A79D;}
	.st70{fill:#4E376B;}
	.st71{fill:#004981;}
	.st72{fill:#106599;}
	.st73{fill:#1E78AF;}
	.st74{fill:#4396C9;}
	.st75{fill:#63AAD6;}
	.st76{fill:#B8DDF4;}
	.st77{fill:#1F8893;}
	.st78{fill:none;stroke:#000000;stroke-width:6.3625;stroke-linecap:round;stroke-linejoin:round;stroke-miterlimit:10;}
	.st79{fill:#FFFFFF;stroke:#000000;stroke-width:5.3826;stroke-linejoin:round;stroke-miterlimit:10;}
	.st80{fill:#42BCBC;stroke:#000000;stroke-width:6.2798;stroke-linejoin:round;stroke-miterlimit:10;}
	.st81{fill:none;stroke:#000000;stroke-width:5.3826;stroke-linecap:round;stroke-linejoin:round;stroke-miterlimit:10;}
	.st82{fill:none;stroke:#000000;stroke-width:3.1813;stroke-linecap:round;stroke-linejoin:round;stroke-miterlimit:10;}
	.st83{fill:#42BCBC;}
</style>
<g id="Layer_1">
</g>
<g id="Layer_2">
	<g>
		<g>
			<path class="st10" d="M82.8,238.3H50.2c-4.5,0-8.6-0.7-12.3-2.1c-3.7-1.4-6.9-3.5-9.5-6.1c-2.7-2.6-4.7-5.9-6.1-9.7
				c-1.3-3.7-2-7.8-2-12.3v-29.1c0-3.3-0.4-6-1.2-8.2c-0.7-2-1.8-3.6-3.1-4.8c-1.4-1.2-3-2.1-5-2.6c-2.2-0.6-4.7-1-7.5-1L0,162.3
				v-24.4l3.5-0.1c2.8-0.1,5.4-0.5,7.6-1.1c2-0.6,3.6-1.5,4.9-2.7c1.3-1.2,2.3-2.8,3.1-4.8c0.8-2.2,1.2-4.9,1.2-8.2V91.9
				c0-9.6,2.7-17.2,8.1-22.4c5.3-5.2,12.7-7.8,21.8-7.8h32.7v24.2H62.5c-4.2,0-7.1,1-8.8,3.2c-1.9,2.4-2.8,6.3-2.8,11.7v26.7
				c0,3.5-0.6,6.7-1.7,9.6c-1.1,2.9-2.7,5.5-4.6,7.7c-1.8,2.1-3.9,3.8-6.3,5.2c2.4,1.4,4.6,3.2,6.4,5.3c1.9,2.2,3.5,4.8,4.5,7.6
				c1.1,2.9,1.7,6.1,1.7,9.5v26.7c0,5.4,0.9,9.3,2.8,11.7c1.7,2.1,4.5,3.2,8.8,3.2h20.4V238.3z"/>
			<path class="st10" d="M82.8,238.3H50.2c-4.5,0-8.6-0.7-12.3-2.1c-3.7-1.4-6.9-3.5-9.5-6.1c-2.7-2.6-4.7-5.9-6.1-9.7
				c-1.3-3.7-2-7.8-2-12.3v-29.1c0-3.3-0.4-6-1.2-8.2c-0.7-2-1.8-3.6-3.1-4.8c-1.4-1.2-3-2.1-5-2.6c-2.2-0.6-4.7-1-7.5-1L0,162.3
				v-24.4l3.5-0.1c2.8-0.1,5.4-0.5,7.6-1.1c2-0.6,3.6-1.5,4.9-2.7c1.3-1.2,2.3-2.8,3.1-4.8c0.8-2.2,1.2-4.9,1.2-8.2V91.9
				c0-9.6,2.7-17.2,8.1-22.4c5.3-5.2,12.7-7.8,21.8-7.8h32.7v24.2H62.5c-4.2,0-7.1,1-8.8,3.2c-1.9,2.4-2.8,6.3-2.8,11.7v26.7
				c0,3.5-0.6,6.7-1.7,9.6c-1.1,2.9-2.7,5.5-4.6,7.7c-1.8,2.1-3.9,3.8-6.3,5.2c2.4,1.4,4.6,3.2,6.4,5.3c1.9,2.2,3.5,4.8,4.5,7.6
				c1.1,2.9,1.7,6.1,1.7,9.5v26.7c0,5.4,0.9,9.3,2.8,11.7c1.7,2.1,4.5,3.2,8.8,3.2h20.4V238.3z"/>
			<path class="st69" d="M7.4,155.3c2,0.2,3.9,0.6,5.7,1.1c3,0.9,5.7,2.3,7.9,4.3c2.2,2,3.9,4.6,5.1,7.7c1.1,3,1.6,6.6,1.6,10.7
				v29.1c0,3.6,0.5,6.9,1.6,9.8c1,2.8,2.4,5.1,4.3,7c1.9,1.9,4.3,3.4,7,4.4c2.8,1.1,6,1.6,9.6,1.6h25.3v-9.6h-13
				c-6.5,0-11.4-2-14.6-6c-2.9-3.7-4.4-9.1-4.4-16.2v-26.7c0-2.5-0.4-4.9-1.2-6.9c-0.8-2-1.9-3.9-3.3-5.5c-1.4-1.6-3-2.9-4.9-4
				c-1.9-1.1-4-1.9-6.2-2.4l-2.8-0.7v-5.9l2.9-1c2.1-0.5,4.1-1.2,6.1-2.3c1.9-1.1,3.5-2.4,4.9-4c1.4-1.6,2.5-3.4,3.3-5.5
				c0.8-2.1,1.2-4.4,1.2-7v-26.7c0-7.1,1.4-12.4,4.4-16.2c3.1-4,8-6,14.6-6h13V69H50.2c-7.2,0-12.7,1.9-16.6,5.7
				c-3.9,3.8-5.9,9.4-5.9,17.1v29.1c0,4.1-0.6,7.7-1.6,10.7c-1.1,3.1-2.8,5.7-5,7.7c-2.2,2-4.8,3.4-7.8,4.3
				c-1.8,0.5-3.8,0.9-5.8,1.2V155.3z"/>
		</g>
		<g>
			<path class="st70" d="M249.8,238.3h-32.7v-24.3h20.4c4.2,0,7.1-1,8.8-3.2c1.9-2.4,2.8-6.3,2.8-11.7v-26.7c0-3.5,0.6-6.7,1.7-9.5
				c1.1-2.8,2.6-5.4,4.5-7.6c1.8-2.1,4-3.9,6.4-5.3c-2.4-1.4-4.5-3.2-6.3-5.2c-1.9-2.2-3.5-4.8-4.6-7.7c-1.1-2.9-1.7-6.2-1.7-9.6
				v-26.7c0-5.3-0.9-9.3-2.8-11.7c-1.7-2.2-4.5-3.2-8.8-3.2h-20.4V61.7h32.7c9.1,0,16.4,2.6,21.8,7.8c5.4,5.2,8.1,12.7,8.1,22.4
				v29.1c0,3.3,0.4,6,1.2,8.2c0.7,2,1.8,3.6,3.1,4.8c1.3,1.2,3,2.1,4.9,2.7c2.2,0.7,4.8,1,7.6,1.1l3.5,0.1v24.4l-3.6,0.1
				c-2.8,0.1-5.3,0.4-7.5,1c-2,0.6-3.6,1.4-5,2.7c-1.3,1.2-2.3,2.8-3.1,4.8c-0.8,2.2-1.2,4.9-1.2,8.2v29.1c0,4.5-0.7,8.6-2,12.3
				c-1.4,3.8-3.4,7-6,9.7c-2.6,2.6-5.8,4.7-9.5,6.1C258.5,237.6,254.4,238.3,249.8,238.3z"/>
			<path d="M249.8,238.3h-32.7v-24.3h20.4c4.2,0,7.1-1,8.8-3.2c1.9-2.4,2.8-6.3,2.8-11.7v-26.7c0-3.5,0.6-6.7,1.7-9.5
				c1.1-2.8,2.6-5.4,4.5-7.6c1.8-2.1,4-3.9,6.4-5.3c-2.4-1.4-4.5-3.2-6.3-5.2c-1.9-2.2-3.5-4.8-4.6-7.7c-1.1-2.9-1.7-6.2-1.7-9.6
				v-26.7c0-5.3-0.9-9.3-2.8-11.7c-1.7-2.2-4.5-3.2-8.8-3.2h-20.4V61.7h32.7c9.1,0,16.4,2.6,21.8,7.8c5.4,5.2,8.1,12.7,8.1,22.4
				v29.1c0,3.3,0.4,6,1.2,8.2c0.7,2,1.8,3.6,3.1,4.8c1.3,1.2,3,2.1,4.9,2.7c2.2,0.7,4.8,1,7.6,1.1l3.5,0.1v24.4l-3.6,0.1
				c-2.8,0.1-5.3,0.4-7.5,1c-2,0.6-3.6,1.4-5,2.7c-1.3,1.2-2.3,2.8-3.1,4.8c-0.8,2.2-1.2,4.9-1.2,8.2v29.1c0,4.5-0.7,8.6-2,12.3
				c-1.4,3.8-3.4,7-6,9.7c-2.6,2.6-5.8,4.7-9.5,6.1C258.5,237.6,254.4,238.3,249.8,238.3z"/>
			<path class="st69" d="M224.5,231h25.3c3.6,0,6.8-0.5,9.6-1.6c2.7-1,5.1-2.5,7-4.4c1.9-1.9,3.3-4.2,4.3-7c1-2.9,1.6-6.2,1.6-9.8
				v-29.1c0-4.1,0.6-7.8,1.6-10.7c1.1-3.1,2.9-5.7,5.1-7.7c2.2-2,4.8-3.4,7.9-4.3c1.8-0.5,3.7-0.9,5.7-1.1v-10.4
				c-2.1-0.2-4-0.6-5.8-1.2c-3-0.9-5.7-2.3-7.8-4.3c-2.2-2-3.9-4.6-5-7.7c-1.1-3-1.6-6.6-1.6-10.7V91.9c0-7.6-2-13.3-5.9-17.1
				c-4-3.9-9.4-5.7-16.6-5.7h-25.3v9.5h13c6.5,0,11.4,2,14.6,6c2.9,3.8,4.4,9.1,4.4,16.2v26.7c0,2.5,0.4,4.9,1.2,7
				c0.8,2.1,1.9,4,3.3,5.5c1.4,1.6,3,2.9,4.9,4c1.9,1.1,3.9,1.9,6.1,2.3l2.9,0.6v5.9l-2.8,1c-2.2,0.5-4.3,1.3-6.2,2.4
				c-1.9,1.1-3.5,2.4-4.9,4c-1.4,1.6-2.5,3.4-3.3,5.5c-0.8,2-1.2,4.3-1.2,6.9v26.7c0,7.2-1.4,12.5-4.4,16.2c-3.1,4-8,6-14.6,6h-13
				V231z"/>
		</g>
		<g>
			<path class="st10" d="M131,170.6l-1.6-4.1h-0.2c-1.4,1.7-2.8,2.9-4.3,3.6c-1.5,0.7-3.4,1-5.7,1c-2.9,0-5.2-0.8-6.8-2.5
				c-1.7-1.6-2.5-4-2.5-7c0-3.2,1.1-5.5,3.3-7c2.2-1.5,5.6-2.3,10.1-2.5l5.2-0.2v-1.3c0-3-1.6-4.6-4.7-4.6c-2.4,0-5.2,0.7-8.5,2.2
				l-2.7-5.5c3.5-1.8,7.3-2.7,11.5-2.7c4,0,7.1,0.9,9.3,2.6c2.1,1.8,3.2,4.4,3.2,8v20H131z M128.5,156.7l-3.2,0.1
				c-2.4,0.1-4.2,0.5-5.3,1.3c-1.2,0.8-1.7,2-1.7,3.6c0,2.3,1.3,3.5,4,3.5c1.9,0,3.4-0.5,4.6-1.6c1.1-1.1,1.7-2.5,1.7-4.4V156.7z"/>
			<path class="st10" d="M161.6,171.1c-3.5,0-6.3-1.3-8.3-3.8h-0.4c0.3,2.5,0.4,4,0.4,4.3v12.2h-8.2v-43.2h6.7l1.2,3.9h0.4
				c1.9-3,4.8-4.5,8.5-4.5c3.5,0,6.3,1.4,8.3,4.1c2,2.7,3,6.5,3,11.4c0,3.2-0.5,6-1.4,8.4c-0.9,2.4-2.3,4.2-4,5.4
				C166,170.5,163.9,171.1,161.6,171.1z M159.2,146.6c-2,0-3.5,0.6-4.4,1.9c-0.9,1.2-1.4,3.3-1.5,6.2v0.9c0,3.2,0.5,5.5,1.4,6.9
				c1,1.4,2.5,2.1,4.6,2.1c3.7,0,5.5-3,5.5-9.1c0-3-0.5-5.2-1.4-6.6C162.5,147.3,161.1,146.6,159.2,146.6z"/>
			<path class="st10" d="M179.6,132.8c0-2.7,1.5-4,4.5-4c3,0,4.5,1.3,4.5,4c0,1.3-0.4,2.3-1.1,3c-0.7,0.7-1.9,1.1-3.3,1.1
				C181.1,136.8,179.6,135.5,179.6,132.8z M188.1,170.6h-8.2v-30h8.2V170.6z"/>
		</g>
	</g>
</g>
</svg>
