<?xml version="1.0" encoding="utf-8"?>
<!-- Generator: Adobe Illustrator 19.1.0, SVG Export Plug-In . SVG Version: 6.00 Build 0)  -->
<svg version="1.1" id="Layer_1" xmlns="http://www.w3.org/2000/svg" xmlns:xlink="http://www.w3.org/1999/xlink" x="0px" y="0px"
	 viewBox="944 -771 2500 2334" style="enable-background:new 944 -771 2500 2334;" xml:space="preserve">
<style type="text/css">
	.st0{fill:#C73A63;}
	.st1{fill:#4B4B4B;}
	.st2{fill:#4A4A4A;}
</style>
<g>
	<path class="st0" d="M2111.4,210.5c-103.6,174.2-202.9,342.9-304.2,510.3c-26,43-38.9,78-18.1,132.6
		c57.4,150.9-23.6,297.8-175.8,337.6c-143.5,37.6-283.4-56.7-311.8-210.4c-25.2-136,80.3-269.3,230.3-290.6
		c12.6-1.8,25.4-2,46.5-3.6l228.1-382.5c-143.5-142.7-228.9-309.4-210-516c13.4-146.1,70.8-272.3,175.8-375.8
		C1973.2-786,2280-818.1,2516.7-666c227.4,146.1,331.5,430.6,242.8,674.1c-66.9-18.1-134.3-36.4-208.4-56.5
		c27.9-135.4,7.3-257-84.1-361.1c-60.3-68.8-137.8-104.8-225.8-118.1c-176.5-26.7-349.8,86.7-401.2,259.9
		C1781.7-71.1,1870,89.5,2111.4,210.5L2111.4,210.5z"/>
	<path class="st1" d="M2407.3,4.5c73,128.8,147.1,259.5,220.6,389c371.3-114.9,651.2,90.7,751.7,310.7
		c121.3,265.8,38.4,580.6-199.9,744.6c-244.5,168.3-553.8,139.6-770.4-76.7c55.2-46.2,110.7-92.6,170-142.2
		c214,138.6,401.1,132.1,540.1-32.1c118.5-140,115.9-348.8-6-485.8c-140.7-158.2-329.2-163-557-11.2
		c-94.5-167.7-190.6-334-282.2-502.8c-30.9-56.9-64.9-89.9-134.5-102c-116.1-20.1-191.1-119.9-195.6-231.6
		c-4.4-110.5,60.7-210.4,162.4-249.3c100.8-38.6,219.1-7.4,286.9,78.3c55.4,70,73,148.8,43.9,235.2
		C2429.2-47.3,2418.7-24,2407.3,4.5L2407.3,4.5z"/>
	<path class="st2" d="M2581.8,1057.2h-447c-42.8,176.2-135.4,318.5-294.8,408.9c-124,70.3-257.5,94.2-399.7,71.2
		c-261.8-42.2-475.9-277.9-494.7-543.3c-21.3-300.6,185.3-567.8,460.7-627.9c19,69.1,38.2,138.8,57.2,207.7
		c-252.7,128.9-340.2,291.4-269.4,494.5c62.3,178.8,239.1,276.7,431.1,238.8c196.1-38.7,295-201.7,282.9-463.2
		c185.9,0,372-1.9,557.9,0.9c72.6,1.1,128.6-6.4,183.3-70.4c90-105.3,255.8-95.8,352.7,3.7c99.1,101.7,94.4,265.2-10.5,362.6
		c-101.2,93.9-261,88.9-355.7-12.3C2616.3,1107.6,2601,1082.9,2581.8,1057.2L2581.8,1057.2z"/>
</g>
</svg>
