<?xml version="1.0" encoding="utf-8"?>
<!-- Generator: Adobe Illustrator 19.1.0, SVG Export Plug-In . SVG Version: 6.00 Build 0)  -->
<svg version="1.1" xmlns="http://www.w3.org/2000/svg" xmlns:xlink="http://www.w3.org/1999/xlink" x="0px" y="0px"
	 viewBox="0 0 300 120.1" style="enable-background:new 0 0 300 120.1;" xml:space="preserve">
<style type="text/css">
	.st0{fill:#832EAB;}
	.st1{fill:#FECD00;}
	.st2{fill:#00AEEF;}
	.st3{fill:none;}
	.st4{fill:#8DC63F;}
	.st5{fill:#0F9BD7;}
	.st6{fill:#FFFFFF;}
	.st7{fill-rule:evenodd;clip-rule:evenodd;fill:#FFFFFF;}
	.st8{fill:#1DA1F2;}
	.st9{fill:#3D5A98;}
	.st10{fill:#231F20;}
	.st11{fill:#007BB5;}
	.st12{fill:#DC4E41;}
	.st13{fill-rule:evenodd;clip-rule:evenodd;fill:#181616;}
	.st14{fill:#181616;}
	.st15{fill:#F2F2F2;}
	.st16{fill:#E3E3E3;}
	.st17{fill:#D54B3D;}
	.st18{fill:#D72B27;}
	.st19{opacity:0.56;fill:url(#SVGID_1_);}
	.st20{fill:#BABABA;}
	.st21{fill:#92D400;}
	.st22{fill:#00B9E4;}
	.st23{fill:#2B3990;}
	.st24{fill:#3F9C35;}
	.st25{fill:#8FCED8;}
	.st26{fill:#D21F21;}
	.st27{fill:#FFF8DA;}
	.st28{fill:#C32265;}
	.st29{fill:#D6D6D6;}
	.st30{fill:#F1F1F1;}
	.st31{fill:#8C3123;}
	.st32{fill:#E05243;}
	.st33{fill:#5E1F18;}
	.st34{fill:#F2B0A9;}
	.st35{fill:#CACCCE;}
	.st36{fill:#A1AFDB;}
	.st37{fill:#002087;}
	.st38{fill:#6C4199;}
	.st39{fill:#C7C7C7;}
	.st40{fill:#1976D2;}
	.st41{fill:#1E88E5;}
	.st42{fill:#FAFAFA;}
	.st43{fill:#E0E0E0;}
	.st44{fill:#F6A11F;}
	.st45{fill:#0A6DAE;}
	.st46{fill:#0BA25E;}
	.st47{fill:#089156;}
	.st48{fill:#10985B;}
	.st49{fill:#F9C941;}
	.st50{fill:#E8B835;}
	.st51{fill:#296AD9;}
	.st52{fill:#2A71E9;}
	.st53{fill:#286EE6;}
	.st54{fill:#009444;}
	.st55{fill:#006838;}
	.st56{fill:#BCBEC0;}
	.st57{fill:#2BB673;}
	.st58{fill:#F7941E;}
	.st59{fill:#EF4136;}
	.st60{fill:#FFFFFF;stroke:#231F20;stroke-width:10;stroke-linecap:round;stroke-linejoin:round;stroke-miterlimit:10;}
	.st61{fill:#D1D3D4;stroke:#231F20;stroke-width:10;stroke-linecap:round;stroke-linejoin:round;stroke-miterlimit:10;}
	.st62{fill:#231F20;stroke:#231F20;stroke-width:10;stroke-linecap:round;stroke-linejoin:round;stroke-miterlimit:10;}
	.st63{fill:none;stroke:#231F20;stroke-width:10;stroke-miterlimit:10;}
	.st64{fill:none;stroke:#231F20;stroke-width:10;stroke-linejoin:round;stroke-miterlimit:10;}
	.st65{fill:#E1DFE4;}
	.st66{fill:#35474F;}
	.st67{fill:#FC002F;}
	.st68{fill:#FDD518;}
	.st69{fill:#00E769;}
	.st70{fill:#D1D3D4;}
	.st71{fill:#27AAE1;}
	.st72{fill:#231F20;stroke:#27AAE1;stroke-miterlimit:10;}
	.st73{fill:url(#SVGID_2_);}
	.st74{fill:url(#SVGID_3_);}
	.st75{fill:url(#SVGID_4_);}
	.st76{fill:url(#SVGID_5_);}
	.st77{fill:url(#SVGID_6_);}
	.st78{fill:url(#SVGID_7_);}
</style>
<g id="Layer_1">
	<g>
		<path class="st44" d="M153.5,0.1c10.7-0.4,21.5,1.2,31.6,4.8c15.2,5.3,28.8,15.1,38.8,27.8c4.4,5.6,8,11.7,10.9,18.2
			c0.5,1.1,0.9,2.3,0.6,3.5c-0.3,2-2.1,3.7-4.1,3.9c-2.1,0.3-4.3-1-5-3c-5.7-13.5-15.5-25.1-27.6-33.2c-7.5-5-16-8.7-24.8-10.7
			c-11.4-2.7-23.3-2.7-34.7,0c-16.2,3.7-31.1,13.1-41.6,26c-4.4,5.5-8.1,11.5-10.9,18c-0.6,1.5-2,2.7-3.6,2.9
			c-1.5,0.3-3.2-0.2-4.3-1.4c-1.3-1.3-1.7-3.3-1-5c7.6-18,21.7-33.1,39.1-42.1C128.1,3.8,140.8,0.5,153.5,0.1L153.5,0.1z"/>
		<path class="st45" d="M139.3,55.5c-0.1-0.9,0.8-1.6,1.7-1.7c1.1,0,2.3,0,3.4,0c0.8,0,1.7,0.6,1.7,1.4c0,10.5,0,20.9,0,31.4
			c4.2-4.7,8.5-9.4,12.8-14.1c0.8-0.8,1.5-2.1,2.8-2.2c1.8-0.1,3.5,0,5.3,0c0.7-0.1,1.4,0.6,1.2,1.3c-0.3,0.6-0.8,0.9-1.2,1.4
			c-4.6,4.6-9.2,9.2-13.8,13.8c4.4,5,8.8,10.1,13.2,15.2c0.6,0.7,1.3,1.3,1.7,2.1c0.3,0.6-0.2,1.4-0.9,1.4c-1.5,0.1-2.9,0-4.4,0
			c-0.8,0-1.6,0.1-2.3-0.3c-0.7-0.4-1.2-1.2-1.7-1.8c-4.2-5.3-8.5-10.7-12.7-16c0,5.3,0,10.5,0,15.8c0,0.6,0.1,1.3-0.4,1.8
			c-0.8,0.8-2.1,0.5-3.1,0.6c-0.9,0-2,0.2-2.8-0.5c-0.4-0.3-0.5-0.9-0.5-1.4C139.3,87.6,139.3,71.5,139.3,55.5L139.3,55.5z"/>
		<path class="st45" d="M120,70.3c2.1-0.7,4.5-0.8,6.6,0.1c0.7,0.3,1.6,1.1,1.3,2c-0.3,1.1-0.6,2.3-1,3.4c-0.3,0.8-1.2,1.1-2,0.9
			c-1.8-0.3-3.5-0.9-5.3-0.8c-1.3,0-2.4,0.6-3.3,1.5c-1.4,1.4-2.1,3.3-2.4,5.1c-0.3,1.4-0.2,2.7-0.2,4.1c0,5.8,0,11.5,0,17.3
			c0.1,0.9-0.9,1.6-1.8,1.6c-1.2,0-2.4,0-3.5,0c-0.8,0-1.8-0.7-1.7-1.6c0-10.7,0-21.4,0-32.1c-0.1-1.1,1.1-1.6,2-1.5
			c1.2,0.1,2.7-0.4,3.5,0.8c0.6,1.4,0.8,2.8,1.4,4.2C115.2,73.1,117.3,71.1,120,70.3L120,70.3z"/>
		<path class="st45" d="M0,71.1c0.3-0.4,0.7-0.8,1.3-0.7c1.6,0,3.2,0,4.8,0c0.8,0,1.4,0.7,1.5,1.5c1.6,6.4,3.1,12.8,4.7,19.2
			c0.5,2,1,3.9,1.3,5.9c0.3,1.8,0.4,3.6,0.7,5.4c0.4-2.6,0.8-5.2,1.5-7.7c2-7.6,4.1-15.2,6.1-22.9c0.2-0.9,1-1.5,1.8-1.5
			c1.8,0,3.6,0,5.3,0c1,0,2,0.5,2.2,1.5c1.5,5.6,3,11.1,4.6,16.7c0.9,3.6,2.1,7.1,2.7,10.8c0.1,1,0.3,2,0.5,3
			c0.6-5.8,2.1-11.4,3.3-17.1c1-4.5,2-9,3-13.6c0.2-0.9,1.1-1.4,2-1.3c1.4,0,2.9,0,4.3,0c0.9,0,1.3,1,1,1.7
			c-2.9,10.6-5.8,21.3-8.6,31.9c-0.2,0.9-0.9,1.5-1.8,1.5c-2.2,0.1-4.5,0-6.7,0c-0.8,0-1.6-0.4-1.8-1.2c-2-7.3-3.9-14.6-5.9-22
			c-0.7-2.5-1-5.2-1.3-7.8c-0.4,2.3-0.5,4.7-1.2,7c-2,7.5-4.1,15.1-6.1,22.6c-0.2,1.2-1.6,1.5-2.7,1.4c-2.1,0-4.1,0-6.2,0
			c-0.7,0-1.3-0.6-1.4-1.3C5.9,93.7,3,83.1,0.1,72.5C0,72,0,71.5,0,71.1L0,71.1z"/>
		<path class="st45" d="M261.1,70.4c1.5,0,3,0,4.5,0c0.9,0,1.8,0.6,2.1,1.5c2.6,6.8,5.2,13.7,7.8,20.5c0.5,1.4,0.9,2.8,1.2,4.3
			c1.1-4,2.5-8,3.8-12c1.4-4.3,2.8-8.6,4.2-13c0.2-0.8,0.9-1.3,1.7-1.3c1.2-0.1,2.5,0,3.7,0c0.7,0,1.6-0.1,2.1,0.5
			c0.4,0.3,0.3,0.8,0.1,1.2c-4.2,11.9-8.3,23.8-12.5,35.7c-0.7,2-1.3,4.1-2.4,5.8c-1.7,2.7-4.4,4.7-7.4,5.7c-1,0.3-2.1,1-3.2,0.6
			c-0.8-0.2-1.1-1-1.5-1.6c-0.3-0.6-0.9-1.1-0.8-1.7c0.1-0.7,0.6-1.2,1.2-1.4c1.3-0.4,2.5-0.9,3.6-1.8c2.5-2.1,4-5.2,4.6-8.3
			c-0.4-1.4-1.1-2.7-1.7-4c-4-9.2-8-18.5-11.9-27.7c-0.2-0.6-0.6-1.2-0.7-1.8C259.7,70.7,260.5,70.4,261.1,70.4L261.1,70.4z"/>
		<path class="st45" d="M76.6,69.8c3.9-0.2,8,0.6,11.3,2.9c2.9,2.1,4.9,5.2,5.8,8.6c1.1,4.1,1.1,8.4,0.1,12.5
			c-0.9,3.8-3.1,7.3-6.4,9.5c-3.5,2.3-7.9,2.9-12.1,2.4c-3.5-0.4-7-2-9.4-4.6c-2.9-3-4.3-7.2-4.6-11.3c-0.4-4.6,0.3-9.4,2.9-13.3
			c1.9-2.9,4.9-5.1,8.2-6.1C73.7,70.1,75.1,69.9,76.6,69.8L76.6,69.8z M75.6,74.8c-2.2,0.4-4.1,1.8-5.3,3.7c-1.8,3.1-2.1,6.9-2,10.4
			c0.1,3.2,0.6,6.6,2.7,9.2c1.5,1.9,4,2.9,6.5,2.9c2.3,0.1,4.8-0.7,6.4-2.5c2-2.2,2.7-5.3,3-8.2c0.1-2.9,0.2-5.8-0.6-8.5
			c-0.6-2.4-1.8-4.7-4-6C80.4,74.6,77.9,74.5,75.6,74.8L75.6,74.8z"/>
		<path class="st45" d="M201.7,55c0-0.8,0.8-1.3,1.5-1.4c1.2-0.1,2.3,0,3.5,0c0.9,0,1.9,0.7,1.8,1.6c0,16.1,0,32.3,0,48.4
			c0.1,0.8-0.8,1.5-1.5,1.5c-0.9,0-1.9,0-2.8,0c-0.7,0-1.3-0.5-1.5-1.1c-0.3-1-0.5-2.1-0.8-3.2c-1.3,1.7-3,3.3-5,4.1
			c-2.9,1.1-6.2,1.1-9.2,0.4c-3-0.7-5.7-2.8-7.2-5.6c-2.3-4.2-2.6-9.1-2.4-13.8c0.1-4,0.8-8.2,3.5-11.4c2-2.7,5.2-4.2,8.4-4.6
			c3-0.4,6.3,0.1,8.8,1.9c1.2,0.8,2.1,2,3,3.1C201.6,68.3,201.6,61.7,201.7,55L201.7,55z M192.4,74.6c-2.2,0.1-4.2,1.4-5.2,3.3
			c-1.9,3.6-1.9,7.9-1.8,11.9c0.1,2.6,0.4,5.3,1.6,7.7c0.8,1.6,2.3,2.8,4.1,3.2c2.7,0.7,5.9,0.1,7.8-2c1.9-2.1,2.5-5,2.7-7.7
			c0.2-3.1,0.2-6.2-0.6-9.3c-0.5-2-1.4-4-3-5.5C196.5,74.9,194.4,74.4,192.4,74.6L192.4,74.6z"/>
		<path class="st45" d="M231.2,70.4c3.1-0.9,6.4-0.9,9.6-0.2c2.9,0.7,5.7,2.3,7.4,4.7c1.9,2.5,2.9,5.6,3.3,8.6
			c0.3,2.4,0.2,4.8,0.2,7.2c0,4.3,0,8.6,0,12.9c0,0.5-0.3,1-0.7,1.3c-0.7,0.4-1.6,0.2-2.4,0.3c-0.9,0-2.1,0.1-2.6-0.9
			c-0.5-1.1-0.6-2.3-0.9-3.5c-1.2,1.5-2.5,3-4.2,3.8c-2.7,1.3-5.8,1.2-8.7,0.7c-3.5-0.7-6.7-2.8-8.7-5.7c-2.4-3.5-3.2-7.8-3.2-11.9
			c0-4,0.8-8.2,3-11.6C225.2,73.3,228.1,71.3,231.2,70.4L231.2,70.4z M234.2,74.8c-1.1,0.2-2.1,0.7-3,1.3c-1.7,1.4-2.6,3.5-3.1,5.6
			c-0.7,3.3-0.7,6.8-0.3,10.1c0.3,2.5,0.9,5.1,2.8,6.9c1.5,1.5,3.7,2.1,5.8,2c2.2,0.1,4.6-0.8,6-2.5c1.8-2.2,2.3-5.1,2.6-7.8
			c0.2-3.2,0.2-6.5-0.7-9.6c-0.6-1.9-1.6-3.9-3.4-5C238.9,74.6,236.5,74.5,234.2,74.8L234.2,74.8z"/>
		<path class="st45" d="M294.1,96c1.1-0.2,2.2-0.2,3.2,0.3c1.7,0.8,2.9,2.5,2.7,4.4c0.1,2.2-1.7,4.2-3.9,4.6c-2.4,0.5-5-1.2-5.5-3.6
			C290,99.2,291.7,96.5,294.1,96L294.1,96z M293.9,96.9c-1.8,0.7-2.9,2.7-2.4,4.6c0.5,2.2,3,3.7,5.1,2.9c1.9-0.6,3.2-2.8,2.6-4.8
			C298.6,97.3,296,96,293.9,96.9L293.9,96.9z"/>
		<path class="st45" d="M293.3,97.8c1.3,0.1,2.7-0.3,3.9,0.4c0.9,0.7,0.5,2.2-0.6,2.5c0.3,0.8,0.7,1.5,1.1,2.3c-0.5,0-1,0-1.4,0
			c-0.3-0.7-0.7-1.4-1-2.1c-0.2,0-0.4,0-0.6,0c0,0.7,0,1.4,0,2.1c-0.5,0-0.9,0-1.3,0C293.3,101.3,293.3,99.6,293.3,97.8L293.3,97.8z
			 M294.6,98.7c0,0.5,0,1,0,1.5c0.4,0,0.9,0,1.3-0.1c0.4-0.2,0.4-0.7,0.3-1C295.8,98.6,295.2,98.7,294.6,98.7L294.6,98.7z"/>
	</g>
</g>
<g id="Layer_2">
</g>
</svg>
