<?xml version="1.0" encoding="utf-8"?>
<!-- Generator: Adobe Illustrator 19.1.0, SVG Export Plug-In . SVG Version: 6.00 Build 0)  -->
<svg version="1.1" id="Layer_1" xmlns="http://www.w3.org/2000/svg" xmlns:xlink="http://www.w3.org/1999/xlink" x="0px" y="0px"
	 viewBox="0 0 300 300" style="enable-background:new 0 0 300 300;" xml:space="preserve">
<style type="text/css">
	.st0{fill:#832EAB;}
	.st1{fill:#BABABA;}
	.st2{fill:none;}
	.st3{fill:#8DC63F;}
	.st4{fill:#0F9BD7;}
	.st5{fill:#FFFFFF;}
	.st6{fill-rule:evenodd;clip-rule:evenodd;fill:#FFFFFF;}
	.st7{fill:#1DA1F2;}
	.st8{fill:#3D5A98;}
	.st9{fill:#231F20;}
	.st10{fill:#007BB5;}
	.st11{fill:#DC4E41;}
	.st12{fill-rule:evenodd;clip-rule:evenodd;fill:#181616;}
	.st13{fill:#181616;}
	.st14{fill:#F2F2F2;}
	.st15{fill:#E3E3E3;}
	.st16{fill:#D54B3D;}
	.st17{fill:#D72B27;}
	.st18{opacity:0.56;fill:url(#SVGID_1_);}
	.st19{fill:#92D400;}
	.st20{fill:#00B9E4;}
	.st21{fill:#2B3990;}
	.st22{fill:#3F9C35;}
	.st23{fill:#8FCED8;}
	.st24{fill:#D21F21;}
	.st25{fill:#D6D6D6;}
	.st26{fill:#F1F1F1;}
	.st27{fill:#C32265;}
	.st28{fill:#8C3123;}
	.st29{fill:#E05243;}
	.st30{fill:#5E1F18;}
	.st31{fill:#F2B0A9;}
	.st32{fill:#CACCCE;}
	.st33{fill:#A1AFDB;}
	.st34{fill:#002087;}
</style>
<g>
	<path class="st12" d="M150,3.7C67.2,3.7,0,70.9,0,153.7C0,220,43,276.2,102.6,296c7.5,1.4,10.2-3.3,10.2-7.2
		c0-3.6-0.1-15.4-0.2-27.9c-41.7,9.1-50.5-17.7-50.5-17.7c-6.8-17.3-16.7-21.9-16.7-21.9c-13.6-9.3,1-9.1,1-9.1
		c15.1,1.1,23,15.5,23,15.5c13.4,22.9,35.1,16.3,43.7,12.5c1.3-9.7,5.2-16.3,9.5-20.1c-33.3-3.8-68.3-16.7-68.3-74.1
		c0-16.4,5.9-29.8,15.5-40.3c-1.6-3.8-6.7-19,1.5-39.7c0,0,12.6-4,41.3,15.4c12-3.3,24.8-5,37.5-5c12.7,0.1,25.6,1.7,37.6,5
		c28.6-19.4,41.2-15.4,41.2-15.4c8.2,20.7,3,35.9,1.5,39.7c9.6,10.5,15.4,23.9,15.4,40.3c0,57.6-35.1,70.3-68.5,74
		c5.4,4.7,10.2,13.8,10.2,27.8c0,20.1-0.2,36.2-0.2,41.2c0,4,2.7,8.7,10.3,7.2C257.1,276.2,300,220,300,153.7
		C300,70.9,232.8,3.7,150,3.7z"/>
	<path class="st13" d="M56.8,219.1c-0.3,0.7-1.5,1-2.6,0.5c-1.1-0.5-1.7-1.5-1.3-2.3c0.3-0.8,1.5-1,2.6-0.5
		C56.6,217.3,57.2,218.3,56.8,219.1L56.8,219.1z M55,217.7"/>
	<path class="st13" d="M62.9,225.8c-0.7,0.7-2.1,0.4-3.1-0.7c-1-1-1.2-2.4-0.4-3.1c0.7-0.7,2.1-0.4,3.1,0.7
		C63.4,223.8,63.6,225.2,62.9,225.8L62.9,225.8z M61.5,224.3"/>
	<path class="st13" d="M68.8,234.5c-0.9,0.6-2.4,0-3.4-1.3c-0.9-1.3-0.9-2.9,0-3.6c0.9-0.6,2.4-0.1,3.4,1.3
		C69.7,232.2,69.7,233.8,68.8,234.5L68.8,234.5z M68.8,234.5"/>
	<path class="st13" d="M76.9,242.8c-0.8,0.9-2.6,0.7-3.9-0.6c-1.3-1.2-1.7-2.9-0.9-3.8c0.8-0.9,2.6-0.7,3.9,0.6
		C77.4,240.2,77.8,241.9,76.9,242.8L76.9,242.8z M76.9,242.8"/>
	<path class="st13" d="M88.1,247.7c-0.4,1.2-2,1.7-3.7,1.2c-1.7-0.5-2.8-1.9-2.5-3.1c0.4-1.2,2-1.7,3.8-1.2
		C87.3,245.1,88.4,246.5,88.1,247.7L88.1,247.7z M88.1,247.7"/>
	<path class="st13" d="M100.4,248.6c0,1.2-1.4,2.3-3.2,2.3c-1.8,0-3.2-1-3.3-2.2c0-1.2,1.4-2.3,3.2-2.3
		C98.9,246.4,100.4,247.3,100.4,248.6L100.4,248.6z M100.4,248.6"/>
	<path class="st13" d="M111.8,246.6c0.2,1.2-1,2.4-2.8,2.8c-1.7,0.3-3.4-0.4-3.6-1.6c-0.2-1.2,1-2.5,2.8-2.8
		C110,244.7,111.6,245.4,111.8,246.6L111.8,246.6z M111.8,246.6"/>
</g>
</svg>
