<svg id="Layer_1" data-name="Layer 1" xmlns="http://www.w3.org/2000/svg" viewBox="0 0 299.02126 259.33936"><title>Azure Storage Blob Service</title><g id="Page-1" style="isolation:isolate"><path d="M75.88235,1.5869H225.29412q32.06511,55.39989,64.14208,110.79292c3.67015,6.33143,7.137,12.78407,11.152,18.91363v.58691c-1.551,1.03152-2.066,2.79056-2.9282,4.27859q-35.298,60.92026-70.50688,121.89178c-1.14064,1.97648-2.34062,2.87982-4.78253,2.87552q-71.73953-.12565-143.47925-.00117a4.83788,4.83788,0,0,1-4.79519-2.85956Q38.39079,196.19471,2.53344,134.4114a5.29353,5.29353,0,0,1,.024-6.1322Q20.97061,96.73645,39.19193,65.08225,57.54718,33.34036,75.88235,1.5869Zm-.7872,129.69932q0,18.92478.00433,37.84957c.00871,7.13891-.07806,14.282.13727,21.41537a19.06939,19.06939,0,0,0,7.15169,14.25031c4.32559,3.715,9.42687,4.85513,15.004,4.84793q53.22682-.0687,106.45379-.02889c1.17444-.00023,2.34942-.076,3.5232-.13534a18.85559,18.85559,0,0,0,10.80416-4.103c5.88614-4.56734,8.03888-10.70823,8.02043-18.00535q-.12648-50.02564.0177-100.05174a7.461,7.461,0,0,0-2.55488-5.86q-13.28016-12.88641-26.35306-25.984A7.56494,7.56494,0,0,0,191.386,53.0493c-27.93656.0783-55.87341.04862-83.81019.05086-4.11688.00033-8.235-.04271-12.3503.04132a19.87351,19.87351,0,0,0-12.23632,4.33613c-5.63654,4.46683-7.95154,10.374-7.92,17.47478C75.15256,93.73,75.09743,112.50823,75.09515,131.28622Z" transform="translate(-1.56698 -1.5869)" fill="#0379dd"/><path d="M86.55483,131.597c-.00027-18.77089.17247-37.54415-.08852-56.31142-.09913-7.12826,4.59461-10.91652,10.80691-10.88171,29.68878.16636,59.37888.09788,89.0685.12156,3.35253.00268,3.3703.028,3.37858,3.46875.01528,6.35469-.01524,12.70956.01994,19.06409.015,2.712.11132,2.80832,2.824,2.82375,6.27093.03567,12.54222-.00029,18.81326.02273,3.23694.01187,3.279.05466,3.2797,3.29473.00677,31.67586-.06765,63.352.07519,95.02725.02288,5.07661-3.26309,10.05878-10.03869,10.04017-36.05864-.099-72.11771-.02305-108.17655-.06806-6.68666-.00834-9.95214-3.48978-9.95719-10.289Q86.539,159.75347,86.55483,131.597Zm62.36026,29.778a46.65436,46.65436,0,0,0-1.2792-11.90461c-.9465-3.81108-2.82755-7.0652-6.41776-9.055A15.56657,15.56657,0,0,0,118.7504,149.148a45.4078,45.4078,0,0,0-.67184,23.72385c1.69958,7.74873,5.73636,11.21825,13.64423,11.59572,6.27739.29965,11.50694-1.71114,14.53426-8.2309C148.45318,171.507,148.80716,166.46581,148.91509,161.375Zm35.32755-61.36168a38.69009,38.69009,0,0,0-1.24781-11.19308c-.98837-3.8329-2.96677-7.03289-6.55456-8.95533A15.63346,15.63346,0,0,0,154.0872,88.9302a46.2154,46.2154,0,0,0-.60656,23.45909c1.62947,7.63609,5.48,11.054,13.31065,11.64776,6.52608.49486,11.92748-1.87274,14.86461-8.17067C183.89986,111.05479,184.28144,105.91729,184.24264,100.01333Zm-45.28038-2.3575h-.00681c0-5.37825.01032-10.75653-.00892-16.13471-.00372-1.04068.22783-2.35814-1.27006-2.56906-2.705-.38088-5.42825-.8446-7.94669.88869-2.41809,1.66426-4.84939,3.335-7.41186,4.75725-2.28857,1.27021-2.53328,3.38019-2.11315,5.85332.26252,1.54529,1.17737,1.93835,2.54737,1.23265,1.56611-.80673,3.10193-1.672,4.66774-2.47937,2.04511-1.05446,2.27749-.94459,2.29062,1.39419.03677,6.55148.01393,13.1033.01407,19.655.00012,5.69671-.00018,5.69676-5.80245,5.81092-.196.00385-.39228-.001-.58794.00843-2.59213.12435-3.21678.87053-3.17274,3.78661.04084,2.70364.65148,3.45591,3.15774,3.47075q10.58442.06269,21.16939-.00312c2.48442-.0164,3.09174-.78964,3.11269-3.5089.02223-2.88619-.61124-3.63409-3.22126-3.74115a24.50713,24.50713,0,0,0-2.93872-.0104c-1.92214.153-2.55007-.67237-2.51392-2.57037C139.02789,108.218,138.96226,102.93629,138.96226,97.65583Zm35.42518,60.2446c0-5.27253.01587-10.54516-.01276-15.81753-.00609-1.12022.26058-2.45167-1.43347-2.752-2.75069-.48769-5.42771-.63141-7.90879,1.04755-2.34721,1.58838-4.69455,3.19224-7.15117,4.59934-2.12359,1.21636-2.65456,2.97563-2.36882,5.18779.30007,2.32327.98281,2.74649,3.08048,1.77722,1.32816-.61369,2.58148-1.38777,3.873-2.08131,2.65205-1.42411,2.67882-1.42157,2.68664,1.47479.01689,6.24888.04982,12.49836-.02019,18.74651-.02253,2.00939.87919,4.486-.538,5.91143-1.31795,1.32566-3.73948.403-5.67089.51514-2.74728.15944-3.25827.69749-3.23524,3.6535.02346,3.01207.4925,3.60676,3.22467,3.6218q10.42182.05739,20.84412-.00215c2.55809-.015,3.06707-.57211,3.24662-3.07883.237-3.308-.53239-4.131-3.91607-4.18744-.29351-.00491-.58716-.00111-.88072-.00362-3.78759-.03226-3.8008-.03231-3.81021-3.6733C174.38378,167.8597,174.39344,162.88007,174.38744,157.90043Z" transform="translate(-1.56698 -1.5869)" fill="#0379dd"/><path d="M126.595,161.48724c.00784-3.20466-.28-6.44037.563-9.59654a12.00793,12.00793,0,0,1,1.24013-3.26436,5.05743,5.05743,0,0,1,4.95113-2.49509,4.87617,4.87617,0,0,1,4.39574,2.91055,13.87011,13.87011,0,0,1,1.1971,4.4951,63.1241,63.1241,0,0,1-.15509,16.89362,13.74917,13.74917,0,0,1-.977,3.3517,5.0128,5.0128,0,0,1-5.06509,3.23079,4.86579,4.86579,0,0,1-4.91962-3.40069,18.53908,18.53908,0,0,1-1.21348-5.986C126.53506,165.58264,126.595,163.53382,126.595,161.48724Z" transform="translate(-1.56698 -1.5869)" fill="#0379dd"/><path d="M174.58236,101.20757a38.29059,38.29059,0,0,1-.48151,9.60249,11.72059,11.72059,0,0,1-1.2174,3.26671c-1.09616,1.92727-2.85306,2.50086-4.94874,2.48085a4.64252,4.64252,0,0,1-4.413-2.8137,14.67832,14.67832,0,0,1-1.28122-5.06786,62.26442,62.26442,0,0,1,.25821-16.88937,9.51666,9.51666,0,0,1,1.1633-3.28663,5.264,5.264,0,0,1,5.08074-2.82372,4.9175,4.9175,0,0,1,4.64932,3.413,16.49542,16.49542,0,0,1,1.17062,5.39923C174.6458,96.72542,174.58236,98.96766,174.58236,101.20757Z" transform="translate(-1.56698 -1.5869)" fill="#0379dd"/></g></svg>