<svg xmlns="http://www.w3.org/2000/svg" viewBox="0 0 128.302 127.976" height="483.687" width="484.92"><g fill="#fcb913" transform="translate(134.015 -63.901)"><path d="M-134.015 63.901v127.976H-5.713V63.901zm14.401 14.365h99.5v99.247h-99.5z"/><path d="M-72.734 94.242a34.213 34.213 0 0 0-34.213 34.213 34.213 34.213 0 0 0 34.213 34.212A34.213 34.213 0 0 0-48.307 152.4l-10.572-10.572a19.277 19.277 0 0 1-13.855 5.904 19.277 19.277 0 0 1-19.277-19.276 19.277 19.277 0 0 1 19.277-19.277 19.277 19.277 0 0 1 13.752 5.775l10.545-10.546a34.213 34.213 0 0 0-24.297-10.165z"/><circle cx="-44.402" cy="128.55" r="8.83"/></g></svg>
