<?xml version="1.0" encoding="UTF-8"?>
<svg width="46px" height="39px" viewBox="0 0 46 39" version="1.1" xmlns="http://www.w3.org/2000/svg" xmlns:xlink="http://www.w3.org/1999/xlink">
    <!-- Generator: Sketch 52.5 (67469) - http://www.bohemiancoding.com/sketch -->
    <title>Group 9 Copy</title>
    <desc>Created with Sketch.</desc>
    <defs>
        <polygon id="path-1" points="0.0410227513 0.111775132 11.7335413 0.111775132 11.7335413 11.8042328 0.0410227513 11.8042328"></polygon>
        <polygon id="path-3" points="4.86772487e-05 0.111738624 11.6925672 0.111738624 11.6925672 11.8042328 4.86772487e-05 11.8042328"></polygon>
    </defs>
    <g id="FINAL-EXPORT" stroke="none" stroke-width="1" fill="none" fill-rule="evenodd">
        <g id="Group-9-Copy" transform="translate(23.000000, 19.000000) rotate(-90.000000) translate(-23.000000, -19.000000) translate(0.000000, -4.000000)">
            <g id="Group-17" transform="translate(3.833333, 0.000000)">
                <g id="Group-25" transform="translate(25.981481, 33.985847)">
                    <mask id="mask-2" fill="white">
                        <use xlink:href="#path-1"></use>
                    </mask>
                    <g id="Clip-24"></g>
                    <path d="M1.74302275,11.8042937 L4.32766296,11.8042937 L7.74577937,11.8042937 L10.0315413,11.8042937 C10.9714989,11.8042937 11.7335413,11.0422513 11.7335413,10.1022937 L11.7335413,7.62839418 L11.7335413,1.81377513 C11.7335413,0.87381746 10.9714989,0.111775132 10.0315413,0.111775132 L4.21692222,0.111775132 L1.74302275,0.111775132 C0.802943386,0.111775132 0.0410227513,0.87381746 0.0410227513,1.81377513 L0.0410227513,4.28755291 L0.0410227513,10.1022937 C0.0410227513,11.0422513 0.802943386,11.8042937 1.74302275,11.8042937" id="Fill-23" fill="#00AEEF" mask="url(#mask-2)"></path>
                </g>
                <g id="Group-28" transform="translate(0.060847, 33.985847)">
                    <mask id="mask-4" fill="white">
                        <use xlink:href="#path-3"></use>
                    </mask>
                    <g id="Clip-27"></g>
                    <path d="M0.205466667,10.9134635 C0.257916402,11.0099661 0.319371429,11.1007492 0.388736508,11.1848392 C0.423297354,11.226945 0.460048677,11.2672254 0.498503704,11.3058021 C0.806508995,11.6136857 1.23206984,11.8042571 1.70204868,11.8042571 L3.9291545,11.8042571 L4.28668889,11.8042571 L7.3472709,11.8042571 L7.51654603,11.8042571 L7.7046836,11.8042571 L9.9904455,11.8042571 C10.1740804,11.8042571 10.3509005,11.7751725 10.5165249,11.7213841 C10.5828476,11.6998444 10.647345,11.6744106 10.7096519,11.6453259 C10.740927,11.6307228 10.7715937,11.6152677 10.8017735,11.5988392 C10.8982762,11.5463894 10.9890593,11.4849344 11.0731492,11.4155693 C11.1203661,11.3766275 11.1655143,11.3351302 11.2083503,11.2911989 C11.5079587,10.9844106 11.6925672,10.5649344 11.6925672,10.1022571 L11.6925672,7.62835767 L11.6925672,1.81386032 C11.6925672,1.35106138 11.5079587,0.931585185 11.2083503,0.624796825 C11.1655143,0.580987302 11.1203661,0.539489947 11.0731492,0.500426455 C10.9890593,0.430939683 10.8982762,0.369606349 10.8017735,0.317156614 C10.7715937,0.300849735 10.740927,0.285273016 10.7096519,0.270791534 C10.647345,0.241585185 10.5828476,0.216151323 10.5165249,0.19461164 C10.3509005,0.14082328 10.1740804,0.111738624 9.9904455,0.111738624 L4.17594815,0.111738624 L1.70204868,0.111738624 C0.761969312,0.111738624 4.86772487e-05,0.873780952 4.86772487e-05,1.81386032 L4.86772487e-05,4.2876381 L4.86772487e-05,10.1022571 C4.86772487e-05,10.3960243 0.0744031746,10.6723894 0.205466667,10.9134635" id="Fill-26" fill="#00AEEF" mask="url(#mask-4)"></path>
                </g>
                <path d="M14.1409841,28.1445159 L16.9130317,30.9166852 L18.0926032,32.0961349 C18.5406772,32.544209 19.2671852,32.544209 19.715381,32.0961349 L20.8948307,30.9166852 L23.6668783,28.1445159 C24.1150741,27.6963201 24.1150741,26.9698122 23.6668783,26.5217381 L20.8948307,23.7496905 L19.715381,22.570119 C19.2671852,22.122045 18.5406772,22.122045 18.0926032,22.570119 L16.9130317,23.7496905 L14.1409841,26.5217381 C13.6927884,26.9698122 13.6927884,27.6963201 14.1409841,28.1445159" id="Fill-29" fill="#000000"></path>
                <path d="M13.0934011,16.505591 L16.8736762,16.505591 L20.9342106,16.505591 L21.2458667,16.505591 L24.7144857,16.505591 C26.0324222,16.505591 27.1007661,15.4372471 27.1007661,14.1193106 L27.1007661,10.6506915 L27.1007661,2.49810423 C27.1007661,1.18016772 26.0324222,0.111702116 24.7144857,0.111702116 L16.5620201,0.111702116 L13.0934011,0.111702116 C11.7754646,0.111702116 10.7071206,1.18016772 10.7071206,2.49810423 L10.7071206,5.96672328 L10.7071206,14.1193106 C10.7071206,15.4372471 11.7754646,16.505591 13.0934011,16.505591" id="Fill-31" fill="#000000"></path>
                <path d="M20.0951608,21.2670778 L20.9342349,22.1061519 L20.9342349,18.0876016 L16.8737005,18.0876016 L16.8737005,22.1062735 L17.7128963,21.2670778 C18.3697958,20.6104217 19.4382614,20.6104217 20.0951608,21.2670778" id="Fill-33" fill="#000000"></path>
                <path d="M33.8019074,33.4556418 L33.8019074,32.4820968 L33.8019074,25.787028 L24.6156587,25.7876365 L25.0917222,26.2638217 C25.7483783,26.9205995 25.7483783,27.9891868 25.0917222,28.6459646 L24.546172,29.1913931 L30.383791,29.1963825 L30.383791,32.4820968 L30.383791,33.4556418 L30.383791,34.097573 L33.8019074,34.097573 L33.8019074,33.4556418 Z" id="Fill-35" fill="#000000"></path>
                <path d="M7.48269101,33.4556418 L7.48269101,32.4820968 L7.48269101,29.1766683 L13.2519185,29.1816577 L12.7163471,28.6459646 C12.3981196,28.3276153 12.2228815,27.9048534 12.2228815,27.4548323 C12.2228815,27.0049328 12.3981196,26.5819275 12.7163471,26.2638217 L13.1916804,25.7884884 L13.0882413,25.7884884 C13.0909185,25.7786312 13.0926222,25.768409 13.0951778,25.7585519 L4.0645746,25.787028 L4.0645746,32.4820968 L4.0645746,33.4556418 L4.0645746,34.097573 L7.48269101,34.097573 L7.48269101,33.4556418 Z" id="Fill-37" fill="#000000"></path>
            </g>
            <rect id="Rectangle-Copy-5" fill-rule="nonzero" x="0" y="0" width="46" height="46"></rect>
        </g>
    </g>
</svg>
