<?xml version="1.0" encoding="UTF-8"?>
<svg width="46px" height="39px" viewBox="0 0 46 39" version="1.1" xmlns="http://www.w3.org/2000/svg" xmlns:xlink="http://www.w3.org/1999/xlink">
    <!-- Generator: Sketch 52.5 (67469) - http://www.bohemiancoding.com/sketch -->
    <title>Group 8 Copy</title>
    <desc>Created with Sketch.</desc>
    <defs>
        <polygon id="path-1" points="0.118782493 0.0884615385 13.3289576 0.0884615385 13.3289576 20.2515427 0.118782493 20.2515427"></polygon>
    </defs>
    <g id="FINAL-EXPORT" stroke="none" stroke-width="1" fill="none" fill-rule="evenodd">
        <g id="Group-8-Copy" transform="translate(23.000000, 19.000000) rotate(-90.000000) translate(-23.000000, -19.000000) translate(0.000000, -4.000000)">
            <g id="Group-13" transform="translate(3.833333, 0.000000)">
                <path d="M14.1404854,19.5200573 L16.9198859,22.2994578 L18.1024642,23.4821581 C18.5517268,23.9312987 19.2802838,23.9312987 19.7296684,23.4821581 L20.9121247,22.2994578 L23.6916472,19.5200573 C24.1409098,19.0706727 24.1409098,18.3422377 23.6916472,17.8928531 L20.9121247,15.1134525 L19.7296684,13.9308743 C19.2802838,13.4816117 18.5517268,13.4816117 18.1024642,13.9308743 L16.9198859,15.1134525 L14.1404854,17.8928531 C13.6911008,18.3422377 13.6911008,19.0706727 14.1404854,19.5200573" id="Fill-1" fill="#000000"></path>
                <path d="M13.0900016,46.0000122 L21.2642138,46.0000122 L24.7420334,46.0000122 C26.0634658,46.0000122 27.1346435,44.9288345 27.1346435,43.6074021 L27.1346435,40.1295825 L27.1346435,31.9553703 C27.1346435,30.6338159 26.0634658,29.5626382 24.7420334,29.5626382 L20.951731,29.5626382 L16.880304,29.5626382 L16.5678212,29.5626382 L13.0900016,29.5626382 C11.7685692,29.5626382 10.6973915,30.6338159 10.6973915,31.9553703 L10.6973915,35.4330679 L10.6973915,43.6074021 C10.6973915,44.9288345 11.7685692,46.0000122 13.0900016,46.0000122" id="Fill-3" fill="#00AEEF"></path>
                <path d="M17.7217257,24.7886679 L16.880304,23.9472462 L16.880304,27.9764557 L20.951731,27.9764557 L20.951731,23.9472462 L20.1103093,24.7886679 C19.4516674,25.4470658 18.3803676,25.4470658 17.7217257,24.7886679" id="Fill-5" fill="#000000"></path>
                <path d="M1.74549867,11.8455613 L3.97863395,11.8455613 L3.97863395,12.5676515 L3.97863395,13.5437788 L3.97863395,20.2566064 L13.1892493,20.2559963 L12.7119231,19.77867 C12.0534032,19.1201501 12.0534032,18.0487284 12.7119231,17.3900865 L13.2586764,16.8433332 L7.40581698,16.8383305 L7.40581698,13.5437788 L7.40581698,12.5676515 L7.40581698,11.8455613 L7.57554111,11.8455613 L10.0560027,11.8455613 C10.9984536,11.8455613 11.7625172,11.0814976 11.7625172,10.1390467 L11.7625172,7.65858515 L11.7625172,1.82854271 C11.7625172,0.886091777 10.9984536,0.122028117 10.0560027,0.122028117 L4.22596021,0.122028117 L1.74549867,0.122028117 C0.803047745,0.122028117 0.0391061008,0.886091777 0.0391061008,1.82854271 L0.0391061008,4.30888223 L0.0391061008,10.1390467 C0.0391061008,11.0814976 0.803047745,11.8455613 1.74549867,11.8455613" id="Fill-7" fill="#000000"></path>
                <g id="Group-11" transform="translate(24.464191, 0.033554)">
                    <mask id="mask-2" fill="white">
                        <use xlink:href="#path-1"></use>
                    </mask>
                    <g id="Clip-10"></g>
                    <path d="M1.15067109,18.5508849 C1.15067109,19.0019777 0.975090186,19.426105 0.655896552,19.7450546 L0.179302387,20.2216488 L0.282893899,20.2216488 C0.280331565,20.2315321 0.278623342,20.2416594 0.275938992,20.2515427 L9.33049602,20.222991 L9.33049602,13.5101634 L9.33049602,12.5340361 L9.33049602,11.8120679 L11.622321,11.8120679 C12.5648939,11.8120679 13.3289576,11.0480042 13.3289576,10.1054313 L13.3289576,7.62496976 L13.3289576,1.79504934 C13.3289576,0.852476393 12.5648939,0.0884127321 11.622321,0.0884127321 L5.79227851,0.0884127321 L3.31181698,0.0884127321 C2.36936605,0.0884127321 1.6054244,0.852476393 1.6054244,1.79504934 L1.6054244,4.27538886 L1.6054244,10.1054313 C1.6054244,11.0480042 2.36936605,11.8120679 3.31181698,11.8120679 L5.903313,11.8120679 L5.903313,12.5340361 L5.903313,13.5101634 L5.903313,16.8244817 L0.118782493,16.819479 L0.655896552,17.3565931 C0.975090186,17.6756647 1.15067109,18.099792 1.15067109,18.5508849" id="Fill-9" fill="#000000" mask="url(#mask-2)"></path>
                </g>
            </g>
            <rect id="Rectangle" fill-rule="nonzero" x="0" y="0" width="46" height="46"></rect>
        </g>
    </g>
</svg>
