<?xml version="1.0" encoding="UTF-8" standalone="no"?>
<!DOCTYPE svg PUBLIC "-//W3C//DTD SVG 1.1//EN"
 "http://www.w3.org/Graphics/SVG/1.1/DTD/svg11.dtd">
<!-- Generated by graphviz version 2.40.1 (20161225.0304)
 -->
<!-- Title: dependencies Pages: 1 -->
<svg width="710pt" height="284pt"
 viewBox="0.00 0.00 710.00 284.00" xmlns="http://www.w3.org/2000/svg" xmlns:xlink="http://www.w3.org/1999/xlink">
<g id="graph0" class="graph" transform="scale(1 1) rotate(0) translate(4 280)">
<title>dependencies</title>
<polygon fill="#ffffff" stroke="transparent" points="-4,4 -4,-280 706,-280 706,4 -4,4"/>
<text text-anchor="start" x="330.0091" y="-42.4" font-family="sans-serif" font-weight="bold" font-size="14.00" fill="#000000">Legend</text>
<polygon fill="#ffffb3" stroke="transparent" points="117,-10 117,-30 137,-30 137,-10 117,-10"/>
<text text-anchor="start" x="140.629" y="-15.4" font-family="sans-serif" font-size="14.00" fill="#000000"> &#160;Declarations</text>
<polygon fill="#8dd3c7" stroke="transparent" points="230,-10 230,-30 250,-30 250,-10 230,-10"/>
<text text-anchor="start" x="253.7251" y="-15.4" font-family="sans-serif" font-size="14.00" fill="#000000"> &#160;Module</text>
<polygon fill="#80b1d3" stroke="transparent" points="316,-10 316,-30 336,-30 336,-10 316,-10"/>
<text text-anchor="start" x="339.7812" y="-15.4" font-family="sans-serif" font-size="14.00" fill="#000000"> &#160;Bootstrap</text>
<polygon fill="#fdb462" stroke="transparent" points="413,-10 413,-30 433,-30 433,-10 413,-10"/>
<text text-anchor="start" x="436.6732" y="-15.4" font-family="sans-serif" font-size="14.00" fill="#000000"> &#160;Providers</text>
<polygon fill="#fb8072" stroke="transparent" points="509,-10 509,-30 529,-30 529,-10 509,-10"/>
<text text-anchor="start" x="532.7258" y="-15.4" font-family="sans-serif" font-size="14.00" fill="#000000"> &#160;Exports</text>
<g id="clust1" class="cluster">
<title>cluster_TemplatesModule</title>
<polygon fill="none" stroke="#000000" stroke-dasharray="1,5" points="8,-70 8,-268 694,-268 694,-70 8,-70"/>
</g>
<g id="clust2" class="cluster">
<title>cluster_TemplatesModule_declarations</title>
<polygon fill="none" stroke="#000000" points="202,-78 202,-130 686,-130 686,-78 202,-78"/>
</g>
<g id="clust6" class="cluster">
<title>cluster_TemplatesModule_imports</title>
<polygon fill="none" stroke="#000000" points="16,-78 16,-130 194,-130 194,-78 16,-78"/>
</g>
<g id="clust7" class="cluster">
<title>cluster_TemplatesModule_exports</title>
<polygon fill="none" stroke="#000000" points="280,-208 280,-260 460,-260 460,-208 280,-208"/>
</g>
<!-- TemplatesListPage -->
<g id="node1" class="node">
<title>TemplatesListPage</title>
<polygon fill="#ffffb3" stroke="#000000" points="677.8034,-122 554.1966,-122 554.1966,-86 677.8034,-86 677.8034,-122"/>
<text text-anchor="middle" x="616" y="-99.8" font-family="Times,serif" font-size="14.00" fill="#000000">TemplatesListPage</text>
</g>
<!-- TemplatesModule -->
<g id="node4" class="node">
<title>TemplatesModule</title>
<polygon fill="#8dd3c7" stroke="#000000" points="428.8627,-187 425.8627,-191 404.8627,-191 401.8627,-187 311.1373,-187 311.1373,-151 428.8627,-151 428.8627,-187"/>
<text text-anchor="middle" x="370" y="-164.8" font-family="Times,serif" font-size="14.00" fill="#000000">TemplatesModule</text>
</g>
<!-- TemplatesListPage&#45;&gt;TemplatesModule -->
<g id="edge1" class="edge">
<title>TemplatesListPage&#45;&gt;TemplatesModule</title>
<path fill="none" stroke="#000000" d="M616,-122.1061C616,-141.3391 616,-169 616,-169 616,-169 438.9231,-169 438.9231,-169"/>
<polygon fill="#000000" stroke="#000000" points="438.9232,-165.5001 428.9231,-169 438.9231,-172.5001 438.9232,-165.5001"/>
</g>
<!-- TemplatesListComponent -->
<g id="node2" class="node">
<title>TemplatesListComponent</title>
<polygon fill="#ffffb3" stroke="#000000" points="536.9242,-122 375.0758,-122 375.0758,-86 536.9242,-86 536.9242,-122"/>
<text text-anchor="middle" x="456" y="-99.8" font-family="Times,serif" font-size="14.00" fill="#000000">TemplatesListComponent</text>
</g>
<!-- TemplatesListComponent&#45;&gt;TemplatesModule -->
<g id="edge2" class="edge">
<title>TemplatesListComponent&#45;&gt;TemplatesModule</title>
<path fill="none" stroke="#000000" d="M402.1098,-122.1061C402.1098,-122.1061 402.1098,-140.991 402.1098,-140.991"/>
<polygon fill="#000000" stroke="#000000" points="398.6098,-140.9909 402.1098,-150.991 405.6098,-140.991 398.6098,-140.9909"/>
</g>
<!-- ListToolbarComponent -->
<g id="node3" class="node">
<title>ListToolbarComponent</title>
<polygon fill="#ffffb3" stroke="#000000" points="357.9298,-122 210.0702,-122 210.0702,-86 357.9298,-86 357.9298,-122"/>
<text text-anchor="middle" x="284" y="-99.8" font-family="Times,serif" font-size="14.00" fill="#000000">ListToolbarComponent</text>
</g>
<!-- ListToolbarComponent&#45;&gt;TemplatesModule -->
<g id="edge3" class="edge">
<title>ListToolbarComponent&#45;&gt;TemplatesModule</title>
<path fill="none" stroke="#000000" d="M334.3917,-122.1061C334.3917,-122.1061 334.3917,-140.991 334.3917,-140.991"/>
<polygon fill="#000000" stroke="#000000" points="330.8917,-140.9909 334.3917,-150.991 337.8917,-140.991 330.8917,-140.9909"/>
</g>
<!-- TemplatesListComponent  -->
<g id="node6" class="node">
<title>TemplatesListComponent </title>
<polygon fill="#fb8072" stroke="#000000" points="452.4236,-252 287.5764,-252 287.5764,-216 452.4236,-216 452.4236,-252"/>
<text text-anchor="middle" x="370" y="-229.8" font-family="Times,serif" font-size="14.00" fill="#000000">TemplatesListComponent </text>
</g>
<!-- TemplatesModule&#45;&gt;TemplatesListComponent  -->
<g id="edge5" class="edge">
<title>TemplatesModule&#45;&gt;TemplatesListComponent </title>
<path fill="none" stroke="#000000" stroke-dasharray="5,2" d="M370,-187.1061C370,-187.1061 370,-205.991 370,-205.991"/>
<polygon fill="#000000" stroke="#000000" points="366.5001,-205.9909 370,-215.991 373.5001,-205.991 366.5001,-205.9909"/>
</g>
<!-- SyndesisCommonModule -->
<g id="node5" class="node">
<title>SyndesisCommonModule</title>
<polygon fill="#8dd3c7" stroke="#000000" points="185.9452,-122 182.9452,-126 161.9452,-126 158.9452,-122 24.0548,-122 24.0548,-86 185.9452,-86 185.9452,-122"/>
<text text-anchor="middle" x="105" y="-99.8" font-family="Times,serif" font-size="14.00" fill="#000000">SyndesisCommonModule</text>
</g>
<!-- SyndesisCommonModule&#45;&gt;TemplatesModule -->
<g id="edge4" class="edge">
<title>SyndesisCommonModule&#45;&gt;TemplatesModule</title>
<path fill="none" stroke="#000000" d="M105,-122.1061C105,-141.3391 105,-169 105,-169 105,-169 300.8587,-169 300.8587,-169"/>
<polygon fill="#000000" stroke="#000000" points="300.8587,-172.5001 310.8587,-169 300.8586,-165.5001 300.8587,-172.5001"/>
</g>
</g>
</svg>
