<?xml version="1.0" encoding="utf-8"?>
<!-- Generator: Adobe Illustrator 23.0.1, SVG Export Plug-In . SVG Version: 6.00 Build 0)  -->
<svg version="1.1" id="Layer_1" xmlns="http://www.w3.org/2000/svg" xmlns:xlink="http://www.w3.org/1999/xlink" x="0px" y="0px"
	 viewBox="0 0 228 228" style="enable-background:new 0 0 228 228;" xml:space="preserve">
<style type="text/css">
	.st0{fill:#EE0000;}
</style>
<g>
	<g>
		<path d="M187.9,100.6c0.3,1.3,0.4,2.7,0.4,4.1c0,17.7-21.5,20.7-36.3,20.7c-57.8,0-100.8-35.9-100.8-46.8c0-0.7,0-1.5,0.3-2.3
			L47,87c-1,2.3-1.8,5.4-1.8,8.7c0,21.5,48.6,54,104.2,54c24.6,0,43.3-9.2,43.3-25.9c0-1.3,0-2.3-2-12L187.9,100.6z"/>
		<path class="st0" d="M151.9,125.4c14.8,0,36.3-3.1,36.3-20.7c0-1.4,0-2.7-0.4-4.1l-8.8-38.4c-2.1-8.4-3.8-12.3-18.7-19.7
			c-11.5-5.9-36.6-15.6-44-15.6c-6.9,0-9,9-17.1,9c-7.9,0-13.8-6.7-21.2-6.7c-7.2,0-11.8,4.9-15.4,14.8c0,0-10,28.2-11.3,32.2
			c-0.3,0.8-0.3,1.6-0.3,2.3C51.1,89.5,94.2,125.4,151.9,125.4 M190.6,111.9c2,9.7,2,10.7,2,12c0,16.6-18.7,25.9-43.3,25.9
			c-55.5,0-104.2-32.5-104.2-54c0-3.3,0.8-6.4,1.8-8.7c-20,1-45.8,4.6-45.8,27.4c0,37.4,88.6,83.4,158.7,83.4
			c53.8,0,67.3-24.3,67.3-43.5C227.2,139.3,214.1,122.1,190.6,111.9"/>
	</g>
</g>
</svg>
