<?xml version="1.0" encoding="UTF-8" standalone="no"?>
<!DOCTYPE svg PUBLIC "-//W3C//DTD SVG 1.1//EN"
 "http://www.w3.org/Graphics/SVG/1.1/DTD/svg11.dtd">
<!-- Generated by graphviz version 2.40.1 (20161225.0304)
 -->
<!-- Title: dependencies Pages: 1 -->
<svg width="1099pt" height="211pt"
 viewBox="0.00 0.00 1099.00 211.00" xmlns="http://www.w3.org/2000/svg" xmlns:xlink="http://www.w3.org/1999/xlink">
<g id="graph0" class="graph" transform="scale(1 1) rotate(0) translate(4 207)">
<title>dependencies</title>
<polygon fill="#ffffff" stroke="transparent" points="-4,4 -4,-207 1095,-207 1095,4 -4,4"/>
<text text-anchor="start" x="524.5091" y="-42.4" font-family="sans-serif" font-weight="bold" font-size="14.00" fill="#000000">Legend</text>
<polygon fill="#ffffb3" stroke="transparent" points="311.5,-10 311.5,-30 331.5,-30 331.5,-10 311.5,-10"/>
<text text-anchor="start" x="335.129" y="-15.4" font-family="sans-serif" font-size="14.00" fill="#000000"> &#160;Declarations</text>
<polygon fill="#8dd3c7" stroke="transparent" points="424.5,-10 424.5,-30 444.5,-30 444.5,-10 424.5,-10"/>
<text text-anchor="start" x="448.2251" y="-15.4" font-family="sans-serif" font-size="14.00" fill="#000000"> &#160;Module</text>
<polygon fill="#80b1d3" stroke="transparent" points="510.5,-10 510.5,-30 530.5,-30 530.5,-10 510.5,-10"/>
<text text-anchor="start" x="534.2812" y="-15.4" font-family="sans-serif" font-size="14.00" fill="#000000"> &#160;Bootstrap</text>
<polygon fill="#fdb462" stroke="transparent" points="607.5,-10 607.5,-30 627.5,-30 627.5,-10 607.5,-10"/>
<text text-anchor="start" x="631.1732" y="-15.4" font-family="sans-serif" font-size="14.00" fill="#000000"> &#160;Providers</text>
<polygon fill="#fb8072" stroke="transparent" points="703.5,-10 703.5,-30 723.5,-30 723.5,-10 703.5,-10"/>
<text text-anchor="start" x="727.2258" y="-15.4" font-family="sans-serif" font-size="14.00" fill="#000000"> &#160;Exports</text>
<g id="clust1" class="cluster">
<title>cluster_SettingsModule</title>
<polygon fill="none" stroke="#000000" stroke-dasharray="1,5" points="8,-70 8,-195 1083,-195 1083,-70 8,-70"/>
</g>
<g id="clust2" class="cluster">
<title>cluster_SettingsModule_declarations</title>
<polygon fill="none" stroke="#000000" points="349,-78 349,-130 1075,-130 1075,-78 349,-78"/>
</g>
<g id="clust7" class="cluster">
<title>cluster_SettingsModule_imports</title>
<polygon fill="none" stroke="#000000" points="16,-78 16,-130 341,-130 341,-78 16,-78"/>
</g>
<!-- SettingsRootComponent -->
<g id="node1" class="node">
<title>SettingsRootComponent</title>
<polygon fill="#ffffb3" stroke="#000000" points="1066.6735,-122 913.3265,-122 913.3265,-86 1066.6735,-86 1066.6735,-122"/>
<text text-anchor="middle" x="990" y="-99.8" font-family="Times,serif" font-size="14.00" fill="#000000">SettingsRootComponent</text>
</g>
<!-- SettingsModule -->
<g id="node5" class="node">
<title>SettingsModule</title>
<polygon fill="#8dd3c7" stroke="#000000" points="596.1639,-187 593.1639,-191 572.1639,-191 569.1639,-187 491.8361,-187 491.8361,-151 596.1639,-151 596.1639,-187"/>
<text text-anchor="middle" x="544" y="-164.8" font-family="Times,serif" font-size="14.00" fill="#000000">SettingsModule</text>
</g>
<!-- SettingsRootComponent&#45;&gt;SettingsModule -->
<g id="edge1" class="edge">
<title>SettingsRootComponent&#45;&gt;SettingsModule</title>
<path fill="none" stroke="#000000" d="M990,-122.2843C990,-143.3211 990,-175 990,-175 990,-175 606.4734,-175 606.4734,-175"/>
<polygon fill="#000000" stroke="#000000" points="606.4734,-171.5001 596.4734,-175 606.4733,-178.5001 606.4734,-171.5001"/>
</g>
<!-- OAuthAppsComponent -->
<g id="node2" class="node">
<title>OAuthAppsComponent</title>
<polygon fill="#ffffb3" stroke="#000000" points="895.4874,-122 746.5126,-122 746.5126,-86 895.4874,-86 895.4874,-122"/>
<text text-anchor="middle" x="821" y="-99.8" font-family="Times,serif" font-size="14.00" fill="#000000">OAuthAppsComponent</text>
</g>
<!-- OAuthAppsComponent&#45;&gt;SettingsModule -->
<g id="edge2" class="edge">
<title>OAuthAppsComponent&#45;&gt;SettingsModule</title>
<path fill="none" stroke="#000000" d="M821,-122.0225C821,-139.3734 821,-163 821,-163 821,-163 606.4272,-163 606.4272,-163"/>
<polygon fill="#000000" stroke="#000000" points="606.4273,-159.5001 596.4272,-163 606.4272,-166.5001 606.4273,-159.5001"/>
</g>
<!-- OAuthAppFormComponent -->
<g id="node3" class="node">
<title>OAuthAppFormComponent</title>
<polygon fill="#ffffb3" stroke="#000000" points="728.8766,-122 555.1234,-122 555.1234,-86 728.8766,-86 728.8766,-122"/>
<text text-anchor="middle" x="642" y="-99.8" font-family="Times,serif" font-size="14.00" fill="#000000">OAuthAppFormComponent</text>
</g>
<!-- OAuthAppFormComponent&#45;&gt;SettingsModule -->
<g id="edge3" class="edge">
<title>OAuthAppFormComponent&#45;&gt;SettingsModule</title>
<path fill="none" stroke="#000000" d="M575.6967,-122.1061C575.6967,-122.1061 575.6967,-140.991 575.6967,-140.991"/>
<polygon fill="#000000" stroke="#000000" points="572.1968,-140.9909 575.6967,-150.991 579.1968,-140.991 572.1968,-140.9909"/>
</g>
<!-- OAuthAppModalComponent -->
<g id="node4" class="node">
<title>OAuthAppModalComponent</title>
<polygon fill="#ffffb3" stroke="#000000" points="537.0926,-122 356.9074,-122 356.9074,-86 537.0926,-86 537.0926,-122"/>
<text text-anchor="middle" x="447" y="-99.8" font-family="Times,serif" font-size="14.00" fill="#000000">OAuthAppModalComponent</text>
</g>
<!-- OAuthAppModalComponent&#45;&gt;SettingsModule -->
<g id="edge4" class="edge">
<title>OAuthAppModalComponent&#45;&gt;SettingsModule</title>
<path fill="none" stroke="#000000" d="M514.3573,-122.1061C514.3573,-122.1061 514.3573,-140.991 514.3573,-140.991"/>
<polygon fill="#000000" stroke="#000000" points="510.8574,-140.9909 514.3573,-150.991 517.8574,-140.991 510.8574,-140.9909"/>
</g>
<!-- PatternflyUIModule -->
<g id="node6" class="node">
<title>PatternflyUIModule</title>
<polygon fill="#8dd3c7" stroke="#000000" points="332.5227,-122 329.5227,-126 308.5227,-126 305.5227,-122 203.4773,-122 203.4773,-86 332.5227,-86 332.5227,-122"/>
<text text-anchor="middle" x="268" y="-99.8" font-family="Times,serif" font-size="14.00" fill="#000000">PatternflyUIModule</text>
</g>
<!-- PatternflyUIModule&#45;&gt;SettingsModule -->
<g id="edge5" class="edge">
<title>PatternflyUIModule&#45;&gt;SettingsModule</title>
<path fill="none" stroke="#000000" d="M268,-122.0225C268,-139.3734 268,-163 268,-163 268,-163 481.762,-163 481.762,-163"/>
<polygon fill="#000000" stroke="#000000" points="481.7621,-166.5001 491.762,-163 481.762,-159.5001 481.7621,-166.5001"/>
</g>
<!-- SyndesisCommonModule -->
<g id="node7" class="node">
<title>SyndesisCommonModule</title>
<polygon fill="#8dd3c7" stroke="#000000" points="185.9452,-122 182.9452,-126 161.9452,-126 158.9452,-122 24.0548,-122 24.0548,-86 185.9452,-86 185.9452,-122"/>
<text text-anchor="middle" x="105" y="-99.8" font-family="Times,serif" font-size="14.00" fill="#000000">SyndesisCommonModule</text>
</g>
<!-- SyndesisCommonModule&#45;&gt;SettingsModule -->
<g id="edge6" class="edge">
<title>SyndesisCommonModule&#45;&gt;SettingsModule</title>
<path fill="none" stroke="#000000" d="M105,-122.2843C105,-143.3211 105,-175 105,-175 105,-175 481.4824,-175 481.4824,-175"/>
<polygon fill="#000000" stroke="#000000" points="481.4824,-178.5001 491.4824,-175 481.4824,-171.5001 481.4824,-178.5001"/>
</g>
</g>
</svg>
