<?xml version="1.0" encoding="UTF-8" standalone="no"?>
<!DOCTYPE svg PUBLIC "-//W3C//DTD SVG 1.1//EN"
 "http://www.w3.org/Graphics/SVG/1.1/DTD/svg11.dtd">
<!-- Generated by graphviz version 2.40.1 (20161225.0304)
 -->
<!-- Title: dependencies Pages: 1 -->
<svg width="1509pt" height="211pt"
 viewBox="0.00 0.00 1509.00 211.00" xmlns="http://www.w3.org/2000/svg" xmlns:xlink="http://www.w3.org/1999/xlink">
<g id="graph0" class="graph" transform="scale(1 1) rotate(0) translate(4 207)">
<title>dependencies</title>
<polygon fill="#ffffff" stroke="transparent" points="-4,4 -4,-207 1505,-207 1505,4 -4,4"/>
<text text-anchor="start" x="729.5091" y="-42.4" font-family="sans-serif" font-weight="bold" font-size="14.00" fill="#000000">Legend</text>
<polygon fill="#ffffb3" stroke="transparent" points="516.5,-10 516.5,-30 536.5,-30 536.5,-10 516.5,-10"/>
<text text-anchor="start" x="540.129" y="-15.4" font-family="sans-serif" font-size="14.00" fill="#000000"> &#160;Declarations</text>
<polygon fill="#8dd3c7" stroke="transparent" points="629.5,-10 629.5,-30 649.5,-30 649.5,-10 629.5,-10"/>
<text text-anchor="start" x="653.2251" y="-15.4" font-family="sans-serif" font-size="14.00" fill="#000000"> &#160;Module</text>
<polygon fill="#80b1d3" stroke="transparent" points="715.5,-10 715.5,-30 735.5,-30 735.5,-10 715.5,-10"/>
<text text-anchor="start" x="739.2812" y="-15.4" font-family="sans-serif" font-size="14.00" fill="#000000"> &#160;Bootstrap</text>
<polygon fill="#fdb462" stroke="transparent" points="812.5,-10 812.5,-30 832.5,-30 832.5,-10 812.5,-10"/>
<text text-anchor="start" x="836.1732" y="-15.4" font-family="sans-serif" font-size="14.00" fill="#000000"> &#160;Providers</text>
<polygon fill="#fb8072" stroke="transparent" points="908.5,-10 908.5,-30 928.5,-30 928.5,-10 908.5,-10"/>
<text text-anchor="start" x="932.2258" y="-15.4" font-family="sans-serif" font-size="14.00" fill="#000000"> &#160;Exports</text>
<g id="clust1" class="cluster">
<title>cluster_DashboardModule</title>
<polygon fill="none" stroke="#000000" stroke-dasharray="1,5" points="8,-70 8,-195 1493,-195 1493,-70 8,-70"/>
</g>
<g id="clust2" class="cluster">
<title>cluster_DashboardModule_declarations</title>
<polygon fill="none" stroke="#000000" points="504,-78 504,-130 1485,-130 1485,-78 504,-78"/>
</g>
<g id="clust8" class="cluster">
<title>cluster_DashboardModule_imports</title>
<polygon fill="none" stroke="#000000" points="16,-78 16,-130 496,-130 496,-78 16,-78"/>
</g>
<!-- DashboardComponent -->
<g id="node1" class="node">
<title>DashboardComponent</title>
<polygon fill="#ffffb3" stroke="#000000" points="1476.9734,-122 1335.0266,-122 1335.0266,-86 1476.9734,-86 1476.9734,-122"/>
<text text-anchor="middle" x="1406" y="-99.8" font-family="Times,serif" font-size="14.00" fill="#000000">DashboardComponent</text>
</g>
<!-- DashboardModule -->
<g id="node6" class="node">
<title>DashboardModule</title>
<polygon fill="#8dd3c7" stroke="#000000" points="755.191,-187 752.191,-191 731.191,-191 728.191,-187 634.809,-187 634.809,-151 755.191,-151 755.191,-187"/>
<text text-anchor="middle" x="695" y="-164.8" font-family="Times,serif" font-size="14.00" fill="#000000">DashboardModule</text>
</g>
<!-- DashboardComponent&#45;&gt;DashboardModule -->
<g id="edge1" class="edge">
<title>DashboardComponent&#45;&gt;DashboardModule</title>
<path fill="none" stroke="#000000" d="M1406,-122.2921C1406,-144.2057 1406,-178 1406,-178 1406,-178 765.3128,-178 765.3128,-178"/>
<polygon fill="#000000" stroke="#000000" points="765.3128,-174.5001 755.3128,-178 765.3127,-181.5001 765.3128,-174.5001"/>
</g>
<!-- DashboardConnectionsComponent -->
<g id="node2" class="node">
<title>DashboardConnectionsComponent</title>
<polygon fill="#ffffb3" stroke="#000000" points="1316.965,-122 1105.035,-122 1105.035,-86 1316.965,-86 1316.965,-122"/>
<text text-anchor="middle" x="1211" y="-99.8" font-family="Times,serif" font-size="14.00" fill="#000000">DashboardConnectionsComponent</text>
</g>
<!-- DashboardConnectionsComponent&#45;&gt;DashboardModule -->
<g id="edge2" class="edge">
<title>DashboardConnectionsComponent&#45;&gt;DashboardModule</title>
<path fill="none" stroke="#000000" d="M1211,-122.1061C1211,-141.3391 1211,-169 1211,-169 1211,-169 765.2016,-169 765.2016,-169"/>
<polygon fill="#000000" stroke="#000000" points="765.2017,-165.5001 755.2016,-169 765.2016,-172.5001 765.2017,-165.5001"/>
</g>
<!-- DashboardIntegrationsComponent -->
<g id="node3" class="node">
<title>DashboardIntegrationsComponent</title>
<polygon fill="#ffffb3" stroke="#000000" points="1087.3403,-122 878.6597,-122 878.6597,-86 1087.3403,-86 1087.3403,-122"/>
<text text-anchor="middle" x="983" y="-99.8" font-family="Times,serif" font-size="14.00" fill="#000000">DashboardIntegrationsComponent</text>
</g>
<!-- DashboardIntegrationsComponent&#45;&gt;DashboardModule -->
<g id="edge3" class="edge">
<title>DashboardIntegrationsComponent&#45;&gt;DashboardModule</title>
<path fill="none" stroke="#000000" d="M983,-122.027C983,-138.3976 983,-160 983,-160 983,-160 765.3742,-160 765.3742,-160"/>
<polygon fill="#000000" stroke="#000000" points="765.3743,-156.5001 755.3742,-160 765.3742,-163.5001 765.3743,-156.5001"/>
</g>
<!-- EmptyStateComponent -->
<g id="node4" class="node">
<title>EmptyStateComponent</title>
<polygon fill="#ffffb3" stroke="#000000" points="860.1596,-122 713.8404,-122 713.8404,-86 860.1596,-86 860.1596,-122"/>
<text text-anchor="middle" x="787" y="-99.8" font-family="Times,serif" font-size="14.00" fill="#000000">EmptyStateComponent</text>
</g>
<!-- EmptyStateComponent&#45;&gt;DashboardModule -->
<g id="edge4" class="edge">
<title>EmptyStateComponent&#45;&gt;DashboardModule</title>
<path fill="none" stroke="#000000" d="M734.3829,-122.1061C734.3829,-122.1061 734.3829,-140.991 734.3829,-140.991"/>
<polygon fill="#000000" stroke="#000000" points="730.883,-140.9909 734.3829,-150.991 737.883,-140.991 730.883,-140.9909"/>
</g>
<!-- PopularTemplatesComponent -->
<g id="node5" class="node">
<title>PopularTemplatesComponent</title>
<polygon fill="#ffffb3" stroke="#000000" points="695.6937,-122 512.3063,-122 512.3063,-86 695.6937,-86 695.6937,-122"/>
<text text-anchor="middle" x="604" y="-99.8" font-family="Times,serif" font-size="14.00" fill="#000000">PopularTemplatesComponent</text>
</g>
<!-- PopularTemplatesComponent&#45;&gt;DashboardModule -->
<g id="edge5" class="edge">
<title>PopularTemplatesComponent&#45;&gt;DashboardModule</title>
<path fill="none" stroke="#000000" d="M665.2507,-122.1061C665.2507,-122.1061 665.2507,-140.991 665.2507,-140.991"/>
<polygon fill="#000000" stroke="#000000" points="661.7508,-140.9909 665.2507,-150.991 668.7508,-140.991 661.7508,-140.9909"/>
</g>
<!-- IntegrationsListModule -->
<g id="node7" class="node">
<title>IntegrationsListModule</title>
<polygon fill="#8dd3c7" stroke="#000000" points="488.1951,-122 485.1951,-126 464.1951,-126 461.1951,-122 339.8049,-122 339.8049,-86 488.1951,-86 488.1951,-122"/>
<text text-anchor="middle" x="414" y="-99.8" font-family="Times,serif" font-size="14.00" fill="#000000">IntegrationsListModule</text>
</g>
<!-- IntegrationsListModule&#45;&gt;DashboardModule -->
<g id="edge6" class="edge">
<title>IntegrationsListModule&#45;&gt;DashboardModule</title>
<path fill="none" stroke="#000000" d="M414,-122.027C414,-138.3976 414,-160 414,-160 414,-160 624.7185,-160 624.7185,-160"/>
<polygon fill="#000000" stroke="#000000" points="624.7185,-163.5001 634.7185,-160 624.7184,-156.5001 624.7185,-163.5001"/>
</g>
<!-- TemplatesModule -->
<g id="node8" class="node">
<title>TemplatesModule</title>
<polygon fill="#8dd3c7" stroke="#000000" points="321.8627,-122 318.8627,-126 297.8627,-126 294.8627,-122 204.1373,-122 204.1373,-86 321.8627,-86 321.8627,-122"/>
<text text-anchor="middle" x="263" y="-99.8" font-family="Times,serif" font-size="14.00" fill="#000000">TemplatesModule</text>
</g>
<!-- TemplatesModule&#45;&gt;DashboardModule -->
<g id="edge7" class="edge">
<title>TemplatesModule&#45;&gt;DashboardModule</title>
<path fill="none" stroke="#000000" d="M263,-122.1061C263,-141.3391 263,-169 263,-169 263,-169 624.4774,-169 624.4774,-169"/>
<polygon fill="#000000" stroke="#000000" points="624.4774,-172.5001 634.4774,-169 624.4773,-165.5001 624.4774,-172.5001"/>
</g>
<!-- SyndesisCommonModule -->
<g id="node9" class="node">
<title>SyndesisCommonModule</title>
<polygon fill="#8dd3c7" stroke="#000000" points="185.9452,-122 182.9452,-126 161.9452,-126 158.9452,-122 24.0548,-122 24.0548,-86 185.9452,-86 185.9452,-122"/>
<text text-anchor="middle" x="105" y="-99.8" font-family="Times,serif" font-size="14.00" fill="#000000">SyndesisCommonModule</text>
</g>
<!-- SyndesisCommonModule&#45;&gt;DashboardModule -->
<g id="edge8" class="edge">
<title>SyndesisCommonModule&#45;&gt;DashboardModule</title>
<path fill="none" stroke="#000000" d="M105,-122.2921C105,-144.2057 105,-178 105,-178 105,-178 624.6323,-178 624.6323,-178"/>
<polygon fill="#000000" stroke="#000000" points="624.6324,-181.5001 634.6323,-178 624.6323,-174.5001 624.6324,-181.5001"/>
</g>
</g>
</svg>
