<svg xmlns="http://www.w3.org/2000/svg" xmlns:xlink="http://www.w3.org/1999/xlink" xmlns:lucid="lucid" width="740" height="380"><g transform="translate(-200 -340)" lucid:page-tab-id="0_0"><path d="M220 360h160v120H220z" stroke="#000" stroke-width="2" fill="#99d5ca"/><use xlink:href="#a" transform="matrix(1,0,0,1,228,368) translate(30.549999999999997 14.4)"/><use xlink:href="#b" transform="matrix(1,0,0,1,228,368) translate(72 36)"/><use xlink:href="#c" transform="matrix(1,0,0,1,228,368) translate(2.125 57.6)"/><use xlink:href="#d" transform="matrix(1,0,0,1,228,368) translate(13.075 57.6)"/><use xlink:href="#e" transform="matrix(1,0,0,1,228,368) translate(62.025000000000006 57.6)"/><path d="M220 580h160v120H220z" stroke="#000" stroke-width="2" fill="#99d5ca"/><use xlink:href="#f" transform="matrix(1,0,0,1,228,588) translate(26.549999999999997 14.4)"/><use xlink:href="#b" transform="matrix(1,0,0,1,228,588) translate(72 36)"/><use xlink:href="#c" transform="matrix(1,0,0,1,228,588) translate(21.574999999999996 57.6)"/><use xlink:href="#d" transform="matrix(1,0,0,1,228,588) translate(32.52499999999999 57.6)"/><use xlink:href="#g" transform="matrix(1,0,0,1,228,588) translate(81.475 57.6)"/><use xlink:href="#e" transform="matrix(1,0,0,1,228,588) translate(32.074999999999996 79.20000000000002)"/><path d="M760 360h160v120H760z" stroke="#000" stroke-width="2" fill="#99d5ca"/><use xlink:href="#h" transform="matrix(1,0,0,1,768,368) translate(47.025 14.4)"/><use xlink:href="#b" transform="matrix(1,0,0,1,768,368) translate(72 36)"/><use xlink:href="#c" transform="matrix(1,0,0,1,768,368) translate(1.6453703703703582 57.6)"/><use xlink:href="#i" transform="matrix(1,0,0,1,768,368) translate(12.595370370370357 57.6)"/><use xlink:href="#j" transform="matrix(1,0,0,1,768,368) translate(54.3537037037037 78.66666666666669)"/><path d="M490 580h160v120H490z" stroke="#000" stroke-width="2" fill="#99d5ca"/><use xlink:href="#k" transform="matrix(1,0,0,1,498,588) translate(53.5 14.4)"/><use xlink:href="#b" transform="matrix(1,0,0,1,498,588) translate(72 36)"/><use xlink:href="#c" transform="matrix(1,0,0,1,498,588) translate(5.074999999999989 57.6)"/><use xlink:href="#l" transform="matrix(1,0,0,1,498,588) translate(16.024999999999988 57.6)"/><use xlink:href="#m" transform="matrix(1,0,0,1,498,588) translate(58.974999999999994 57.6)"/><use xlink:href="#n" transform="matrix(1,0,0,1,498,588) translate(11.599999999999994 79.20000000000002)"/><path d="M380 420h379" stroke="#000" stroke-width="2" fill="none"/><path d="M410 420l-15.15 14.85L380 420l14.85-14.85z"/><path d="M411.43 420l-16.6 16.26L380 421.4v-2.8l14.84-14.86zm-30.02 0l13.46 13.44 13.7-13.44-13.7-13.44zM760 421h-1v-2h1z"/><use xlink:href="#o" transform="matrix(1,0,0,1,725.3861061419202,394.4) translate(0 14.4)"/><use xlink:href="#p" transform="matrix(1,0,0,1,415,394.4) translate(0 14.4)"/><path d="M300 480v99" stroke="#000" stroke-width="2" fill="none"/><path/><path d="M301 580h-2v-1h2z"/><use xlink:href="#p" transform="matrix(1,0,0,1,308,484.5333333333333) translate(0 14.4)"/><use xlink:href="#q" transform="matrix(1,0,0,1,308,558.2) translate(0 14.4)"/><path d="M760 660h160v40H760z" stroke="#000" stroke-width="2" fill="#e5e5e5"/><use xlink:href="#r" transform="matrix(1,0,0,1,765,665) translate(5.125 19.1)"/><use xlink:href="#s" transform="matrix(1,0,0,1,765,665) translate(61.97500000000001 19.1)"/><path d="M840 480v180" stroke="#000" stroke-width="2" fill="none"/><path/><path d="M851.04 643.3l-9.88 16.7h-2.32l-9.88-16.7 1.72-1.02 9.32 15.76 9.32-15.76z"/><g><use xlink:href="#q" transform="matrix(1,0,0,1,848,484.5333333333333) translate(0 14.4)"/></g><g><use xlink:href="#p" transform="matrix(1,0,0,1,848,619.2) translate(0 14.4)"/></g><path d="M650 640h152.67V481" stroke="#000" stroke-width="2" fill="none"/><path d="M680 640l-15.15 14.85L650 640l14.85-14.85z" fill="#fff"/><path d="M681.43 640l-16.6 16.26L650 641.4v-2.8l14.84-14.86zm-30.02 0l13.46 13.44 13.7-13.44-13.7-13.44zM803.67 481h-2v-1h2z"/><g><use xlink:href="#o" transform="matrix(1,0,0,1,767.6666666666665,487.7821672779967) translate(0 14.4)"/></g><g><use xlink:href="#t" transform="matrix(1,0,0,1,685.9101512666302,614.4000000000001) translate(0 14.4)"/></g><path d="M490 640H381" stroke="#000" stroke-width="2" fill="none"/><path d="M490 640l-14.85 14.85L460 640l15.15-14.85z" fill="#fff"/><path d="M490 638.6v2.8l-14.84 14.86-16.6-16.26 16.6-16.26zm-28.57 1.4l13.7 13.44L488.6 640l-13.46-13.44zM381 641h-1v-2h1z"/><g><use xlink:href="#o" transform="matrix(1,0,0,1,383.44484412470024,614.4000000000001) translate(0 14.4)"/></g><g><use xlink:href="#o" transform="matrix(1,0,0,1,446.17865707434055,614.4000000000001) translate(0 14.4)"/></g><defs><path d="M212-179c-10-28-35-45-73-45-59 0-87 40-87 99 0 60 29 101 89 101 43 0 62-24 78-52l27 14C228-24 195 4 139 4 59 4 22-46 18-125c-6-104 99-153 187-111 19 9 31 26 39 46" id="u"/><path d="M100-194c62-1 85 37 85 99 1 63-27 99-86 99S16-35 15-95c0-66 28-99 85-99zM99-20c44 1 53-31 53-75 0-43-8-75-51-75s-53 32-53 75 10 74 51 75" id="v"/><path d="M117-194c89-4 53 116 60 194h-32v-121c0-31-8-49-39-48C34-167 62-67 57 0H25l-1-190h30c1 10-1 24 2 32 11-22 29-35 61-36" id="w"/><path d="M100-194c63 0 86 42 84 106H49c0 40 14 67 53 68 26 1 43-12 49-29l28 8c-11 28-37 45-77 45C44 4 14-33 15-96c1-61 26-98 85-98zm52 81c6-60-76-77-97-28-3 7-6 17-6 28h103" id="x"/><path d="M96-169c-40 0-48 33-48 73s9 75 48 75c24 0 41-14 43-38l32 2c-6 37-31 61-74 61-59 0-76-41-82-99-10-93 101-131 147-64 4 7 5 14 7 22l-32 3c-4-21-16-35-41-35" id="y"/><path d="M59-47c-2 24 18 29 38 22v24C64 9 27 4 27-40v-127H5v-23h24l9-43h21v43h35v23H59v120" id="z"/><path d="M114-163C36-179 61-72 57 0H25l-1-190h30c1 12-1 29 2 39 6-27 23-49 58-41v29" id="A"/><g id="a"><use transform="matrix(0.05,0,0,0.05,0,0)" xlink:href="#u"/><use transform="matrix(0.05,0,0,0.05,12.950000000000001,0)" xlink:href="#v"/><use transform="matrix(0.05,0,0,0.05,22.950000000000003,0)" xlink:href="#w"/><use transform="matrix(0.05,0,0,0.05,32.95,0)" xlink:href="#w"/><use transform="matrix(0.05,0,0,0.05,42.95,0)" xlink:href="#x"/><use transform="matrix(0.05,0,0,0.05,52.95,0)" xlink:href="#y"/><use transform="matrix(0.05,0,0,0.05,61.95,0)" xlink:href="#z"/><use transform="matrix(0.05,0,0,0.05,66.95,0)" xlink:href="#v"/><use transform="matrix(0.05,0,0,0.05,76.95,0)" xlink:href="#A"/></g><path d="M16-82v-28h88v28H16" id="B"/><use transform="matrix(0.05,0,0,0.05,0,0)" xlink:href="#B" id="c"/><path d="M135-143c-3-34-86-38-87 0 15 53 115 12 119 90S17 21 10-45l28-5c4 36 97 45 98 0-10-56-113-15-118-90-4-57 82-63 122-42 12 7 21 19 24 35" id="C"/><path d="M210-169c-67 3-38 105-44 169h-31v-121c0-29-5-50-35-48C34-165 62-65 56 0H25l-1-190h30c1 10-1 24 2 32 10-44 99-50 107 0 11-21 27-35 58-36 85-2 47 119 55 194h-31v-121c0-29-5-49-35-48" id="D"/><g id="d"><use transform="matrix(0.05,0,0,0.05,0,0)" xlink:href="#C"/><use transform="matrix(0.05,0,0,0.05,9,0)" xlink:href="#v"/><use transform="matrix(0.05,0,0,0.05,19,0)" xlink:href="#D"/><use transform="matrix(0.05,0,0,0.05,33.95,0)" xlink:href="#x"/></g><path d="M115-194c55 1 70 41 70 98S169 2 115 4C84 4 66-9 55-30l1 105H24l-1-265h31l2 30c10-21 28-34 59-34zm-8 174c40 0 45-34 45-75s-6-73-45-74c-42 0-51 32-51 76 0 43 10 73 51 73" id="E"/><path d="M24-231v-30h32v30H24zM24 0v-190h32V0H24" id="F"/><g id="e"><use transform="matrix(0.05,0,0,0.05,0,0)" xlink:href="#E"/><use transform="matrix(0.05,0,0,0.05,10,0)" xlink:href="#A"/><use transform="matrix(0.05,0,0,0.05,15.949999999999998,0)" xlink:href="#v"/><use transform="matrix(0.05,0,0,0.05,25.950000000000003,0)" xlink:href="#E"/><use transform="matrix(0.05,0,0,0.05,35.95,0)" xlink:href="#x"/><use transform="matrix(0.05,0,0,0.05,45.95,0)" xlink:href="#A"/><use transform="matrix(0.05,0,0,0.05,51.900000000000006,0)" xlink:href="#z"/><use transform="matrix(0.05,0,0,0.05,56.900000000000006,0)" xlink:href="#F"/><use transform="matrix(0.05,0,0,0.05,60.85,0)" xlink:href="#x"/><use transform="matrix(0.05,0,0,0.05,70.85000000000001,0)" xlink:href="#C"/></g><g id="f"><use transform="matrix(0.05,0,0,0.05,0,0)" xlink:href="#u"/><use transform="matrix(0.05,0,0,0.05,12.950000000000001,0)" xlink:href="#v"/><use transform="matrix(0.05,0,0,0.05,22.950000000000003,0)" xlink:href="#w"/><use transform="matrix(0.05,0,0,0.05,32.95,0)" xlink:href="#w"/><use transform="matrix(0.05,0,0,0.05,42.95,0)" xlink:href="#x"/><use transform="matrix(0.05,0,0,0.05,52.95,0)" xlink:href="#y"/><use transform="matrix(0.05,0,0,0.05,61.95,0)" xlink:href="#z"/><use transform="matrix(0.05,0,0,0.05,66.95,0)" xlink:href="#F"/><use transform="matrix(0.05,0,0,0.05,70.9,0)" xlink:href="#v"/><use transform="matrix(0.05,0,0,0.05,80.9,0)" xlink:href="#w"/></g><path d="M106-169C34-169 62-67 57 0H25v-261h32l-1 103c12-21 28-36 61-36 89 0 53 116 60 194h-32v-121c2-32-8-49-39-48" id="G"/><g id="g"><use transform="matrix(0.05,0,0,0.05,0,0)" xlink:href="#v"/><use transform="matrix(0.05,0,0,0.05,10,0)" xlink:href="#z"/><use transform="matrix(0.05,0,0,0.05,15,0)" xlink:href="#G"/><use transform="matrix(0.05,0,0,0.05,25,0)" xlink:href="#x"/><use transform="matrix(0.05,0,0,0.05,35,0)" xlink:href="#A"/></g><path d="M205 0l-28-72H64L36 0H1l101-248h38L239 0h-34zm-38-99l-47-123c-12 45-31 82-46 123h93" id="H"/><g id="h"><use transform="matrix(0.05,0,0,0.05,0,0)" xlink:href="#H"/><use transform="matrix(0.05,0,0,0.05,12,0)" xlink:href="#y"/><use transform="matrix(0.05,0,0,0.05,21,0)" xlink:href="#z"/><use transform="matrix(0.05,0,0,0.05,26,0)" xlink:href="#F"/><use transform="matrix(0.05,0,0,0.05,29.950000000000003,0)" xlink:href="#v"/><use transform="matrix(0.05,0,0,0.05,39.95,0)" xlink:href="#w"/></g><path d="M141-36C126-15 110 5 73 4 37 3 15-17 15-53c-1-64 63-63 125-63 3-35-9-54-41-54-24 1-41 7-42 31l-33-3c5-37 33-52 76-52 45 0 72 20 72 64v82c-1 20 7 32 28 27v20c-31 9-61-2-59-35zM48-53c0 20 12 33 32 33 41-3 63-29 60-74-43 2-92-5-92 41" id="I"/><path d="M24 0v-261h32V0H24" id="J"/><g id="i"><use transform="matrix(0.048148148148148155,0,0,0.048148148148148155,0,0)" xlink:href="#u"/><use transform="matrix(0.048148148148148155,0,0,0.048148148148148155,12.470370370370372,0)" xlink:href="#I"/><use transform="matrix(0.048148148148148155,0,0,0.048148148148148155,22.1,0)" xlink:href="#D"/><use transform="matrix(0.048148148148148155,0,0,0.048148148148148155,36.4962962962963,0)" xlink:href="#x"/><use transform="matrix(0.048148148148148155,0,0,0.048148148148148155,46.125925925925934,0)" xlink:href="#J"/><use transform="matrix(0.048148148148148155,0,0,0.048148148148148155,49.92962962962964,0)" xlink:href="#u"/><use transform="matrix(0.048148148148148155,0,0,0.048148148148148155,62.400000000000006,0)" xlink:href="#v"/><use transform="matrix(0.048148148148148155,0,0,0.048148148148148155,72.02962962962964,0)" xlink:href="#w"/><use transform="matrix(0.048148148148148155,0,0,0.048148148148148155,81.65925925925927,0)" xlink:href="#w"/><use transform="matrix(0.048148148148148155,0,0,0.048148148148148155,91.2888888888889,0)" xlink:href="#x"/><use transform="matrix(0.048148148148148155,0,0,0.048148148148148155,100.91851851851854,0)" xlink:href="#y"/><use transform="matrix(0.048148148148148155,0,0,0.048148148148148155,109.5851851851852,0)" xlink:href="#z"/><use transform="matrix(0.048148148148148155,0,0,0.048148148148148155,114.40000000000002,0)" xlink:href="#v"/><use transform="matrix(0.048148148148148155,0,0,0.048148148148148155,124.02962962962965,0)" xlink:href="#A"/></g><path d="M143 4C61 4 22-44 18-125c-5-107 100-154 193-111 17 8 29 25 37 43l-32 9c-13-25-37-40-76-40-61 0-88 39-88 99 0 61 29 100 91 101 35 0 62-11 79-27v-45h-74v-28h105v86C228-13 192 4 143 4" id="K"/><path d="M137 0h-34L2-248h35l83 218 83-218h36" id="L"/><g id="j"><use transform="matrix(0.048148148148148155,0,0,0.048148148148148155,0,0)" xlink:href="#K"/><use transform="matrix(0.048148148148148155,0,0,0.048148148148148155,13.481481481481483,0)" xlink:href="#H"/><use transform="matrix(0.048148148148148155,0,0,0.048148148148148155,23.73703703703704,0)" xlink:href="#L"/></g><path d="M185-189c-5-48-123-54-124 2 14 75 158 14 163 119 3 78-121 87-175 55-17-10-28-26-33-46l33-7c5 56 141 63 141-1 0-78-155-14-162-118-5-82 145-84 179-34 5 7 8 16 11 25" id="M"/><g id="k"><use transform="matrix(0.05,0,0,0.05,0,0)" xlink:href="#M"/><use transform="matrix(0.05,0,0,0.05,12,0)" xlink:href="#z"/><use transform="matrix(0.05,0,0,0.05,17,0)" xlink:href="#x"/><use transform="matrix(0.05,0,0,0.05,27,0)" xlink:href="#E"/></g><path d="M143 0L79-87 56-68V0H24v-261h32v163l83-92h37l-77 82L181 0h-38" id="N"/><path d="M85-194c31 0 48 13 60 33l-1-100h32l1 261h-30c-2-10 0-23-3-31C134-8 116 4 85 4 32 4 16-35 15-94c0-66 23-100 70-100zm9 24c-40 0-46 34-46 75 0 40 6 74 45 74 42 0 51-32 51-76 0-42-9-74-50-73" id="O"/><path d="M33-154v-36h34v36H33zM33 0v-36h34V0H33" id="P"/><g id="l"><use transform="matrix(0.05,0,0,0.05,0,0)" xlink:href="#N"/><use transform="matrix(0.05,0,0,0.05,9,0)" xlink:href="#F"/><use transform="matrix(0.05,0,0,0.05,12.949999999999998,0)" xlink:href="#w"/><use transform="matrix(0.05,0,0,0.05,22.95,0)" xlink:href="#O"/><use transform="matrix(0.05,0,0,0.05,32.95,0)" xlink:href="#P"/></g><path d="M39-94c74 12-11 154 75 146v23c-44 4-70-10-70-52C44-23 55-84 6-82v-22c81 4-7-162 84-157h24v23c-82-15-2 131-75 144" id="Q"/><path d="M68-38c1 34 0 65-14 84H32c9-13 17-26 17-46H33v-38h35" id="R"/><g id="m"><use transform="matrix(0.05,0,0,0.05,0,0)" xlink:href="#Q"/><use transform="matrix(0.05,0,0,0.05,6,0)" xlink:href="#x"/><use transform="matrix(0.05,0,0,0.05,16,0)" xlink:href="#w"/><use transform="matrix(0.05,0,0,0.05,26,0)" xlink:href="#O"/><use transform="matrix(0.05,0,0,0.05,36,0)" xlink:href="#E"/><use transform="matrix(0.05,0,0,0.05,46,0)" xlink:href="#v"/><use transform="matrix(0.05,0,0,0.05,56,0)" xlink:href="#F"/><use transform="matrix(0.05,0,0,0.05,59.95,0)" xlink:href="#w"/><use transform="matrix(0.05,0,0,0.05,69.95,0)" xlink:href="#z"/><use transform="matrix(0.05,0,0,0.05,74.95,0)" xlink:href="#R"/></g><path d="M101-234c-31-9-42 10-38 44h38v23H63V0H32v-167H5v-23h27c-7-52 17-82 69-68v24" id="S"/><path d="M76-40C78 24 84 88 6 75V52C86 64 9-79 80-94c-40-6-34-59-34-106 1-29-11-41-40-38v-23c44-4 70 10 70 52 0 47-12 108 38 105v22c-26 1-39 14-38 42" id="T"/><g id="n"><use transform="matrix(0.05,0,0,0.05,0,0)" xlink:href="#z"/><use transform="matrix(0.05,0,0,0.05,5,0)" xlink:href="#A"/><use transform="matrix(0.05,0,0,0.05,10.95,0)" xlink:href="#I"/><use transform="matrix(0.05,0,0,0.05,20.95,0)" xlink:href="#w"/><use transform="matrix(0.05,0,0,0.05,30.950000000000003,0)" xlink:href="#C"/><use transform="matrix(0.05,0,0,0.05,39.95,0)" xlink:href="#S"/><use transform="matrix(0.05,0,0,0.05,44.95,0)" xlink:href="#v"/><use transform="matrix(0.05,0,0,0.05,54.95,0)" xlink:href="#A"/><use transform="matrix(0.05,0,0,0.05,60.900000000000006,0)" xlink:href="#D"/><use transform="matrix(0.05,0,0,0.05,75.85000000000001,0)" xlink:href="#I"/><use transform="matrix(0.05,0,0,0.05,85.85000000000001,0)" xlink:href="#z"/><use transform="matrix(0.05,0,0,0.05,90.85000000000001,0)" xlink:href="#F"/><use transform="matrix(0.05,0,0,0.05,94.80000000000001,0)" xlink:href="#v"/><use transform="matrix(0.05,0,0,0.05,104.80000000000001,0)" xlink:href="#w"/><use transform="matrix(0.05,0,0,0.05,114.80000000000001,0)" xlink:href="#T"/></g><path d="M101-251c68 0 85 55 85 127S166 4 100 4C33 4 14-52 14-124c0-73 17-127 87-127zm-1 229c47 0 54-49 54-102s-4-102-53-102c-51 0-55 48-55 102 0 53 5 102 54 102" id="U"/><path d="M33 0v-38h34V0H33" id="V"/><path d="M80-196l47-18 7 23-49 13 32 44-20 13-27-46-27 45-21-12 33-44-49-13 8-23 47 19-2-53h23" id="W"/><g id="o"><use transform="matrix(0.05,0,0,0.05,0,0)" xlink:href="#U"/><use transform="matrix(0.05,0,0,0.05,10,0)" xlink:href="#V"/><use transform="matrix(0.05,0,0,0.05,15,0)" xlink:href="#V"/><use transform="matrix(0.05,0,0,0.05,20,0)" xlink:href="#W"/></g><path d="M27 0v-27h64v-190l-56 39v-29l58-41h29v221h61V0H27" id="X"/><use transform="matrix(0.05,0,0,0.05,0,0)" xlink:href="#X" id="p"/><use transform="matrix(0.05,0,0,0.05,0,0)" xlink:href="#W" id="q"/><g id="r"><use transform="matrix(0.05,0,0,0.05,0,0)" xlink:href="#u"/><use transform="matrix(0.05,0,0,0.05,12.950000000000001,0)" xlink:href="#I"/><use transform="matrix(0.05,0,0,0.05,22.950000000000003,0)" xlink:href="#D"/><use transform="matrix(0.05,0,0,0.05,37.900000000000006,0)" xlink:href="#x"/><use transform="matrix(0.05,0,0,0.05,47.900000000000006,0)" xlink:href="#J"/></g><g id="s"><use transform="matrix(0.05,0,0,0.05,0,0)" xlink:href="#u"/><use transform="matrix(0.05,0,0,0.05,12.950000000000001,0)" xlink:href="#v"/><use transform="matrix(0.05,0,0,0.05,22.950000000000003,0)" xlink:href="#w"/><use transform="matrix(0.05,0,0,0.05,32.95,0)" xlink:href="#w"/><use transform="matrix(0.05,0,0,0.05,42.95,0)" xlink:href="#x"/><use transform="matrix(0.05,0,0,0.05,52.95,0)" xlink:href="#y"/><use transform="matrix(0.05,0,0,0.05,61.95,0)" xlink:href="#z"/><use transform="matrix(0.05,0,0,0.05,66.95,0)" xlink:href="#v"/><use transform="matrix(0.05,0,0,0.05,76.95,0)" xlink:href="#A"/></g><g id="t"><use transform="matrix(0.05,0,0,0.05,0,0)" xlink:href="#U"/><use transform="matrix(0.05,0,0,0.05,10,0)" xlink:href="#V"/><use transform="matrix(0.05,0,0,0.05,15,0)" xlink:href="#V"/><use transform="matrix(0.05,0,0,0.05,20,0)" xlink:href="#X"/></g></defs></g></svg>
