<?xml version="1.0" standalone="no"?>
<!DOCTYPE svg PUBLIC "-//W3C//DTD SVG 20010904//EN"
 "http://www.w3.org/TR/2001/REC-SVG-20010904/DTD/svg10.dtd">
<svg version="1.0" xmlns="http://www.w3.org/2000/svg"
 width="1632.000000pt" height="1632.000000pt" viewBox="0 0 1632.000000 1632.000000"
 preserveAspectRatio="xMidYMid meet">
<metadata>
Created by potrace 1.11, written by Peter Selinger 2001-2013
</metadata>
<g transform="translate(0.000000,1632.000000) scale(0.100000,-0.100000)"
fill="#000000" stroke="none">
<path d="M3298 11675 c-2 -2 -42 -6 -90 -10 -49 -3 -97 -8 -109 -10 -12 -2
-47 -7 -78 -11 -31 -3 -65 -8 -76 -10 -11 -2 -54 -10 -95 -18 -41 -8 -82 -18
-92 -21 -9 -4 -29 -8 -45 -9 -15 -2 -35 -6 -43 -9 -8 -3 -60 -18 -114 -33
-171 -45 -452 -153 -586 -223 -19 -11 -74 -39 -121 -64 -92 -48 -295 -172
-317 -194 -7 -7 -17 -13 -22 -13 -5 0 -15 -6 -22 -12 -7 -7 -49 -40 -93 -73
-44 -33 -85 -64 -91 -70 -6 -5 -35 -30 -64 -55 -169 -141 -334 -312 -483 -500
-50 -62 -197 -268 -197 -275 0 -2 -13 -23 -29 -47 -16 -24 -39 -61 -51 -83
-84 -149 -111 -201 -116 -222 -4 -12 -10 -23 -15 -23 -5 0 -9 -4 -9 -9 0 -5
-10 -30 -22 -57 -12 -27 -23 -51 -23 -54 -1 -3 -10 -23 -20 -45 -23 -52 -115
-303 -120 -330 -2 -11 -4 -20 -5 -20 -1 0 -3 -7 -5 -15 -2 -8 -13 -48 -24 -88
-12 -40 -24 -89 -27 -110 -3 -20 -8 -40 -11 -45 -2 -4 -6 -20 -9 -35 -2 -15
-9 -49 -14 -77 -18 -89 -19 -96 -25 -158 -3 -34 -8 -69 -11 -79 -11 -36 -17
-184 -17 -403 -1 -240 4 -331 28 -500 14 -106 68 -362 93 -445 9 -30 17 -57
17 -60 23 -94 113 -335 169 -449 11 -25 21 -47 21 -50 1 -17 130 -258 151
-282 8 -9 11 -19 7 -22 -3 -4 -1 -7 5 -7 7 0 12 -5 12 -10 0 -6 8 -23 19 -38
10 -15 42 -63 71 -107 63 -94 201 -276 247 -322 17 -18 29 -33 27 -33 -5 0 3
-8 129 -138 226 -233 464 -418 752 -588 55 -32 106 -59 113 -60 8 -2 21 -8 30
-16 29 -23 189 -96 337 -154 49 -20 99 -39 110 -44 25 -10 213 -69 240 -75 11
-2 49 -12 85 -20 98 -25 97 -25 215 -46 142 -26 168 -30 330 -46 150 -14 630
-6 727 12 11 3 46 7 77 11 31 3 65 8 76 10 122 24 175 35 200 42 17 4 37 8 45
7 8 -1 20 2 25 6 6 3 35 12 65 19 30 7 60 16 66 21 6 5 13 7 16 4 3 -4 259 80
308 102 8 3 17 7 20 8 8 3 102 44 135 60 71 33 203 99 233 117 17 11 32 17 32
13 0 -3 10 3 22 15 12 11 26 20 30 20 5 0 36 18 69 40 33 22 62 40 64 40 11 0
268 187 311 225 6 6 31 26 55 46 213 177 447 434 619 680 36 51 67 97 70 103
3 6 22 37 42 69 21 31 38 61 38 65 0 5 8 17 18 28 9 11 18 24 19 29 1 6 27 57
57 115 31 57 56 109 56 115 0 6 6 19 13 30 23 33 171 416 167 433 0 1 0 3 1 5
0 1 2 9 4 17 2 8 16 58 30 110 15 52 28 106 29 120 2 14 6 35 10 47 13 39 28
134 30 181 1 12 3 22 6 22 3 0 6 8 6 18 1 16 12 116 18 157 2 17 56 43 56 27
0 -4 54 -7 120 -7 66 0 120 2 120 5 0 7 89 4 96 -3 4 -3 17 -2 30 3 13 5 26 6
29 0 3 -5 18 -5 35 0 17 5 30 6 30 2 0 -4 14 -7 30 -7 17 0 30 4 30 8 0 5 5 5
10 2 14 -9 103 -10 116 -2 6 3 16 2 24 -3 7 -4 24 -4 37 1 12 5 23 5 23 0 0
-5 18 -5 40 -1 22 4 43 4 46 -1 2 -4 16 -4 29 1 14 5 25 6 25 1 0 -4 20 -5 45
-1 25 4 45 4 45 1 0 -3 54 -6 120 -6 66 0 120 3 120 6 0 4 18 3 40 -1 22 -4
43 -3 46 1 3 5 12 5 22 0 9 -5 26 -5 39 0 13 5 23 5 23 0 0 -5 18 -5 40 -1 22
4 43 4 46 -1 2 -4 16 -4 29 1 14 5 25 6 25 1 0 -4 20 -5 45 -1 25 4 45 4 45 1
0 -3 54 -6 120 -6 66 0 120 2 120 5 0 3 18 4 40 3 22 -2 58 -4 80 -5 22 -2 40
-1 40 2 0 3 17 4 37 3 21 -1 38 -2 38 -3 0 -1 17 -2 38 -3 20 -1 37 1 37 5 0
4 11 3 25 -2 14 -5 25 -6 25 -3 0 4 4 3 9 -2 5 -6 12 -41 16 -80 9 -92 11
-104 19 -145 3 -19 8 -46 10 -60 3 -14 5 -27 6 -30 2 -3 2 -9 1 -13 -1 -4 8
-47 20 -95 11 -48 23 -98 25 -112 3 -14 9 -40 15 -58 6 -18 12 -40 13 -47 1
-8 5 -18 9 -21 4 -4 7 -18 7 -31 0 -13 4 -31 10 -41 5 -9 19 -46 31 -82 26
-81 79 -216 115 -295 15 -33 28 -62 29 -65 4 -20 108 -213 166 -308 104 -171
194 -297 334 -468 75 -91 263 -283 349 -356 22 -18 49 -42 60 -53 66 -65 343
-262 486 -345 41 -25 78 -49 82 -55 4 -5 8 -7 8 -3 0 4 19 -3 43 -16 103 -58
232 -118 372 -172 49 -20 99 -39 110 -44 11 -4 67 -22 125 -40 147 -45 162
-49 190 -54 14 -2 45 -9 70 -16 25 -7 55 -14 68 -16 12 -2 34 -6 50 -9 29 -6
111 -20 177 -29 22 -4 54 -8 70 -11 85 -13 232 -20 430 -19 238 0 373 9 495
30 14 3 39 6 55 8 40 5 86 14 170 32 39 8 81 17 95 20 44 9 202 55 280 81 41
14 80 26 85 28 18 4 65 22 125 48 19 9 55 23 80 33 25 10 54 23 65 31 11 7 24
13 30 13 6 0 58 25 115 56 58 31 111 56 118 57 6 0 12 3 12 7 0 3 19 17 43 30
60 33 200 122 215 137 7 7 17 13 22 13 5 0 15 6 22 13 7 6 49 39 93 72 44 33
85 64 91 70 6 5 35 30 64 55 106 88 270 248 340 330 12 14 31 36 43 50 61 70
157 189 157 194 0 5 19 31 45 60 47 52 279 445 291 492 3 13 10 24 15 24 5 0
9 4 9 10 0 5 11 33 24 62 70 151 188 481 185 518 0 3 5 18 11 34 10 28 48 186
55 236 2 14 7 36 10 50 3 14 7 41 10 60 2 19 6 46 9 60 21 116 31 268 30 505
-1 237 -6 325 -29 495 -13 99 -67 354 -92 440 -9 30 -18 60 -19 65 -9 51 -114
331 -165 443 -99 216 -264 499 -376 642 -78 100 -120 152 -152 190 -22 25 -49
56 -61 70 -56 65 -203 209 -331 324 -51 47 -257 202 -324 246 -39 25 -71 48
-73 52 -2 5 -7 8 -11 8 -5 0 -48 24 -97 53 -152 92 -317 172 -499 243 -49 20
-99 39 -110 44 -25 10 -213 69 -240 75 -11 2 -49 12 -85 20 -133 33 -228 52
-300 60 -19 2 -35 4 -35 5 0 5 -70 13 -225 27 -155 15 -615 6 -712 -12 -11 -3
-46 -7 -77 -11 -31 -3 -65 -8 -76 -10 -11 -2 -54 -10 -95 -18 -41 -8 -82 -18
-92 -21 -9 -4 -29 -8 -45 -9 -15 -2 -35 -6 -43 -9 -8 -3 -51 -15 -95 -27 -44
-12 -114 -33 -155 -47 -41 -14 -79 -26 -85 -28 -18 -4 -65 -22 -125 -48 -19
-9 -55 -23 -80 -33 -25 -10 -54 -23 -65 -31 -11 -7 -24 -13 -30 -13 -6 0 -58
-25 -115 -56 -58 -30 -109 -56 -115 -57 -5 -1 -18 -10 -29 -19 -11 -10 -24
-18 -28 -18 -5 0 -36 -18 -69 -40 -33 -22 -62 -40 -64 -40 -8 0 -100 -65 -103
-72 -2 -5 -8 -8 -13 -8 -5 0 -17 -6 -26 -14 -10 -8 -65 -51 -122 -97 -176
-138 -344 -294 -451 -419 -98 -114 -193 -231 -230 -285 -14 -20 -30 -42 -35
-48 -49 -56 -285 -463 -300 -517 0 -3 -14 -32 -29 -65 -39 -84 -154 -385 -156
-410 0 -3 0 -6 -1 -7 0 -2 -2 -10 -4 -18 -2 -8 -16 -58 -30 -110 -15 -52 -28
-106 -29 -120 -2 -14 -6 -35 -10 -47 -13 -39 -28 -134 -30 -180 -1 -13 -3 -23
-6 -23 -3 0 -6 -8 -6 -17 -1 -17 -12 -117 -18 -156 -3 -22 -26 -38 -40 -30
-12 8 -175 8 -182 0 -3 -3 -16 -2 -28 3 -12 4 -29 4 -38 -1 -10 -6 -19 -6 -23
0 -3 7 -15 7 -29 1 -13 -5 -26 -6 -29 -3 -7 7 -87 10 -87 3 0 -3 -16 -5 -35
-5 -19 0 -35 2 -35 5 0 3 -13 5 -30 5 -16 0 -30 -4 -30 -8 0 -5 -5 -5 -10 -2
-14 9 -93 10 -106 3 -5 -4 -16 -3 -24 2 -7 4 -24 4 -37 -1 -12 -5 -23 -5 -23
0 0 5 -18 5 -40 1 -22 -4 -43 -4 -46 1 -2 4 -16 4 -29 -1 -14 -5 -25 -6 -25
-1 0 5 -16 5 -34 1 -19 -4 -37 -5 -40 -2 -8 7 -175 6 -182 -1 -3 -3 -16 -2
-28 3 -12 4 -29 4 -38 -1 -10 -6 -19 -6 -23 0 -3 7 -15 7 -29 1 -13 -5 -26 -6
-29 -3 -7 7 -87 10 -87 3 0 -3 -17 -4 -37 -3 -21 1 -38 2 -38 3 0 1 -17 2 -38
3 -20 1 -37 -1 -37 -5 0 -4 -10 -4 -22 1 -13 4 -35 5 -50 0 -15 -4 -30 -4 -33
1 -3 5 -16 5 -30 0 -14 -5 -27 -5 -30 0 -3 5 -18 5 -35 0 -17 -5 -30 -6 -30
-2 0 4 -13 7 -30 7 -16 0 -30 -3 -30 -7 0 -4 -10 -4 -21 1 -12 4 -41 4 -66 1
-24 -4 -46 -3 -49 1 -2 5 -16 4 -29 -1 -14 -5 -27 -5 -30 0 -3 5 -18 5 -35 0
-17 -5 -30 -6 -30 -2 0 4 -13 7 -30 7 -16 0 -30 -3 -30 -7 0 -4 -7 -5 -16 -1
-9 3 -30 6 -47 7 -33 1 -33 2 -42 96 -6 53 -12 95 -15 95 -1 0 -3 16 -5 35 -4
42 -10 77 -25 150 -6 30 -14 66 -16 80 -12 59 -95 348 -114 395 -5 11 -25 63
-45 115 -50 128 -115 268 -171 368 -13 23 -21 42 -18 42 3 0 0 6 -6 13 -26 31
-58 86 -52 91 3 3 0 6 -6 6 -7 0 -12 5 -12 10 0 6 -8 23 -19 38 -10 15 -42 63
-71 107 -148 224 -399 510 -584 667 -22 18 -49 43 -61 54 -73 72 -494 364
-525 364 -5 0 -10 4 -10 9 0 5 -6 11 -12 13 -7 2 -60 28 -118 58 -58 29 -107
55 -110 55 -3 1 -32 14 -65 29 -33 15 -89 39 -125 53 -36 13 -80 31 -98 40
-18 8 -42 16 -53 18 -11 2 -46 13 -77 24 -70 24 -188 58 -222 64 -14 3 -45 10
-70 17 -25 7 -54 14 -65 16 -11 2 -33 6 -50 9 -16 3 -57 10 -90 15 -33 5 -69
11 -80 14 -11 2 -47 7 -80 10 -33 4 -80 10 -105 12 -50 6 -537 14 -542 9z
m497 -648 c17 -3 62 -8 100 -12 39 -4 86 -10 105 -15 19 -5 53 -11 75 -15 22
-3 58 -10 80 -16 38 -11 57 -15 100 -24 66 -14 278 -85 340 -114 22 -10 51
-22 65 -26 43 -13 305 -151 392 -207 224 -142 430 -317 618 -524 87 -95 236
-292 276 -364 10 -19 22 -37 25 -40 22 -19 160 -286 199 -385 13 -33 26 -64
30 -70 4 -5 13 -28 19 -50 7 -22 16 -49 21 -60 9 -22 43 -124 46 -140 1 -5 7
-30 14 -55 7 -25 14 -52 16 -60 1 -8 9 -42 17 -75 15 -61 20 -85 38 -210 19
-137 22 -192 23 -395 0 -188 -7 -327 -19 -383 -2 -12 -7 -42 -10 -67 -3 -25
-7 -56 -10 -70 -3 -14 -10 -47 -16 -75 -6 -27 -12 -59 -14 -70 -1 -11 -11 -46
-20 -79 -9 -32 -18 -64 -20 -70 -1 -6 -5 -18 -8 -26 -3 -8 -15 -44 -26 -80
-10 -36 -26 -81 -34 -100 -15 -37 -28 -72 -29 -80 -3 -17 -117 -248 -155 -315
-58 -103 -126 -209 -135 -213 -5 -2 -8 -8 -8 -13 0 -8 -24 -42 -99 -138 -100
-130 -292 -331 -392 -412 -23 -19 -52 -44 -65 -56 -13 -13 -26 -23 -29 -23 -3
0 -37 -25 -75 -55 -38 -30 -72 -55 -75 -55 -3 0 -11 -5 -18 -11 -10 -9 -45
-31 -182 -116 -90 -56 -441 -216 -499 -227 -6 -2 -50 -15 -98 -30 -48 -15 -95
-29 -105 -31 -78 -18 -162 -37 -183 -41 -14 -2 -45 -9 -70 -14 -25 -5 -74 -12
-110 -16 -36 -3 -74 -8 -85 -10 -16 -3 -264 -16 -300 -15 -52 1 -230 11 -265
15 -123 14 -149 17 -198 27 -29 6 -65 12 -80 14 -15 2 -47 9 -72 15 -25 6 -56
13 -70 16 -14 2 -40 9 -58 15 -18 6 -40 12 -47 13 -8 1 -18 5 -21 9 -4 4 -17
7 -29 7 -12 0 -25 3 -29 7 -3 4 -12 8 -19 9 -15 2 -123 42 -162 59 -16 7 -50
21 -75 31 -113 44 -386 195 -503 279 -53 38 -192 146 -241 188 -54 45 -232
222 -281 278 -31 35 -165 206 -200 256 -43 61 -144 223 -138 223 3 0 -1 8 -9
18 -15 16 -72 126 -117 226 -48 105 -133 342 -144 401 -2 11 -7 27 -10 35 -4
8 -9 26 -11 40 -3 14 -14 68 -25 120 -12 52 -23 115 -26 140 -3 25 -8 55 -10
67 -25 117 -25 605 0 753 2 14 8 52 14 85 6 33 13 76 16 95 3 19 8 43 11 52 3
9 6 25 8 35 2 10 12 47 21 83 9 36 18 72 20 80 23 101 124 348 212 518 53 103
187 322 224 365 5 7 29 37 53 69 23 31 49 62 57 70 8 8 23 27 34 43 27 38 238
249 305 305 29 25 62 53 72 63 10 9 22 17 28 17 5 0 10 4 10 9 0 5 15 18 33
29 45 29 121 83 127 92 3 3 12 9 20 13 16 7 38 21 85 52 84 56 378 204 440
221 6 2 62 22 125 44 63 23 122 43 130 45 8 2 44 11 80 20 142 36 222 52 295
61 28 3 56 7 63 10 7 2 52 7 100 10 48 3 88 7 90 9 5 4 425 -3 457 -8z m9285
0 c66 -8 155 -20 175 -23 11 -2 36 -7 55 -11 19 -3 42 -7 50 -8 34 -4 96 -18
105 -24 6 -3 18 -7 28 -8 37 -6 53 -10 97 -23 25 -8 47 -14 50 -15 22 -5 207
-69 215 -75 6 -4 33 -15 60 -25 151 -55 472 -242 640 -372 223 -173 429 -388
590 -613 22 -30 42 -57 45 -60 3 -3 10 -14 16 -25 27 -50 39 -70 45 -75 22
-21 138 -242 188 -360 18 -41 36 -84 41 -95 10 -23 70 -193 75 -215 2 -8 11
-40 20 -70 9 -30 18 -64 20 -75 2 -11 9 -40 15 -65 7 -25 13 -58 16 -75 2 -16
8 -52 14 -80 10 -48 13 -74 26 -195 15 -138 8 -551 -12 -665 -17 -105 -24
-144 -29 -175 -3 -19 -8 -43 -11 -52 -3 -9 -6 -25 -8 -35 -2 -10 -12 -47 -21
-83 -9 -36 -18 -72 -20 -80 -7 -32 -88 -258 -111 -310 -57 -128 -147 -302
-206 -395 -69 -111 -167 -248 -180 -253 -4 -2 -8 -8 -8 -13 0 -6 -10 -20 -22
-33 -13 -13 -39 -43 -58 -67 -46 -57 -232 -242 -300 -299 -29 -25 -62 -53 -72
-62 -10 -10 -23 -18 -28 -18 -5 0 -10 -4 -10 -9 0 -5 -15 -18 -32 -29 -59 -37
-123 -84 -126 -93 -2 -5 -8 -9 -13 -9 -5 0 -33 -15 -62 -34 -84 -54 -135 -82
-247 -140 -112 -57 -328 -146 -353 -146 -9 0 -18 -4 -22 -9 -3 -5 -20 -12 -38
-16 -17 -4 -68 -17 -112 -30 -85 -24 -177 -47 -210 -51 -11 -1 -59 -9 -106
-18 -131 -23 -244 -30 -464 -30 -188 0 -226 2 -365 19 -49 6 -264 48 -315 61
-11 3 -30 7 -41 10 -26 5 -153 43 -174 51 -8 4 -17 7 -20 8 -26 6 -117 39
-125 45 -5 4 -32 15 -60 25 -73 27 -321 156 -417 217 -261 166 -533 407 -698
618 -19 25 -45 56 -57 69 -29 32 -214 313 -214 326 0 6 -6 17 -13 25 -16 19
-84 153 -121 240 -15 36 -35 83 -45 105 -10 22 -21 51 -24 65 -4 14 -11 34
-16 45 -10 24 -43 125 -46 142 -1 6 -7 27 -13 45 -6 18 -13 44 -15 58 -3 14
-10 43 -16 65 -5 22 -12 60 -15 84 -4 25 -8 47 -10 51 -2 3 -6 26 -9 50 -4 25
-9 62 -12 82 -11 71 -14 124 -18 286 -3 89 -8 167 -11 172 -3 6 -3 10 2 10 4
0 8 19 9 43 1 78 14 211 31 307 8 52 17 104 18 116 1 11 4 24 7 30 3 5 8 25
12 44 12 69 59 241 75 275 9 20 55 146 56 155 1 3 9 22 18 43 9 20 16 38 16
40 -1 2 128 254 151 295 8 15 25 41 38 59 12 17 22 34 22 37 0 9 43 70 53 74
4 2 7 8 7 13 0 5 18 33 40 62 22 29 44 57 48 62 154 204 378 420 612 590 209
153 514 308 755 384 39 13 77 25 85 27 8 3 16 5 17 5 2 0 21 6 43 14 22 8 40
12 40 9 0 -3 6 -2 13 3 6 4 17 8 22 9 6 1 57 12 115 24 58 12 114 23 125 25
205 27 270 31 485 28 118 -1 231 -4 250 -6z"/>
<path d="M3325 9424 c-111 -18 -246 -58 -335 -100 -78 -37 -207 -114 -249
-149 -223 -185 -352 -368 -431 -610 -18 -55 -35 -107 -38 -115 -3 -8 -6 -22
-7 -30 -1 -8 -6 -37 -10 -65 -16 -100 -12 -332 7 -424 10 -47 21 -99 24 -116
3 -16 9 -34 13 -40 8 -11 32 -91 31 -101 -1 -4 2 -10 7 -13 4 -3 22 -35 40
-71 35 -70 75 -142 84 -150 3 -3 22 -27 43 -55 53 -72 172 -191 236 -238 30
-22 57 -43 60 -46 7 -8 77 -48 130 -74 25 -12 47 -25 50 -29 7 -8 203 -74 260
-87 143 -31 396 -35 520 -7 41 9 85 19 97 22 92 19 258 95 374 172 181 120
334 293 435 494 31 61 89 214 92 241 0 4 5 31 11 60 6 28 15 73 19 98 16 86 5
346 -19 444 -5 22 -12 54 -15 70 -3 17 -9 35 -14 40 -4 6 -10 24 -14 40 -16
69 -117 258 -181 340 -88 114 -245 265 -274 265 -6 0 -11 4 -11 9 0 8 -65 53
-80 56 -3 0 -16 8 -30 17 -37 24 -170 85 -205 94 -16 4 -34 10 -40 14 -5 5
-23 11 -40 14 -16 3 -61 13 -100 21 -92 21 -336 26 -440 9z"/>
<path d="M12678 9435 c-2 -2 -30 -6 -63 -10 -72 -8 -133 -23 -240 -60 -259
-89 -486 -266 -641 -500 -145 -220 -213 -456 -208 -721 2 -131 7 -187 25 -259
5 -22 12 -51 15 -65 2 -14 8 -34 13 -45 5 -11 19 -50 32 -87 12 -38 26 -68 30
-68 4 0 9 -10 13 -22 3 -13 16 -39 28 -58 12 -19 22 -37 23 -40 2 -12 54 -86
69 -99 9 -7 16 -18 16 -23 0 -26 232 -248 259 -248 6 0 11 -4 11 -9 0 -8 65
-53 80 -56 3 0 16 -8 30 -17 37 -24 170 -85 205 -94 17 -4 35 -10 40 -14 11
-9 15 -10 167 -39 123 -23 345 -22 463 3 105 23 239 68 317 107 59 30 187 106
198 119 3 3 25 22 50 42 74 61 131 118 205 209 29 35 98 145 130 209 54 107
103 262 121 385 10 68 11 322 2 365 -50 229 -81 320 -161 457 -88 153 -213
295 -339 385 -24 17 -45 34 -48 37 -8 9 -78 48 -150 84 -36 18 -68 37 -72 42
-4 6 -8 7 -8 3 0 -4 -23 1 -51 12 -53 21 -176 54 -244 66 -38 6 -311 14 -317
9z"/>
</g>
</svg>
