<?xml version="1.0" encoding="UTF-8" standalone="no"?>
<!DOCTYPE svg PUBLIC "-//W3C//DTD SVG 1.1//EN"
 "http://www.w3.org/Graphics/SVG/1.1/DTD/svg11.dtd">
<!-- Generated by graphviz version 2.40.1 (20161225.0304)
 -->
<!-- Title: dependencies Pages: 1 -->
<svg width="504pt" height="284pt"
 viewBox="0.00 0.00 504.00 284.00" xmlns="http://www.w3.org/2000/svg" xmlns:xlink="http://www.w3.org/1999/xlink">
<g id="graph0" class="graph" transform="scale(1 1) rotate(0) translate(4 280)">
<title>dependencies</title>
<polygon fill="#ffffff" stroke="transparent" points="-4,4 -4,-280 500,-280 500,4 -4,4"/>
<text text-anchor="start" x="227.0091" y="-42.4" font-family="sans-serif" font-weight="bold" font-size="14.00" fill="#000000">Legend</text>
<polygon fill="#ffffb3" stroke="transparent" points="14,-10 14,-30 34,-30 34,-10 14,-10"/>
<text text-anchor="start" x="37.629" y="-15.4" font-family="sans-serif" font-size="14.00" fill="#000000"> &#160;Declarations</text>
<polygon fill="#8dd3c7" stroke="transparent" points="127,-10 127,-30 147,-30 147,-10 127,-10"/>
<text text-anchor="start" x="150.7251" y="-15.4" font-family="sans-serif" font-size="14.00" fill="#000000"> &#160;Module</text>
<polygon fill="#80b1d3" stroke="transparent" points="213,-10 213,-30 233,-30 233,-10 213,-10"/>
<text text-anchor="start" x="236.7812" y="-15.4" font-family="sans-serif" font-size="14.00" fill="#000000"> &#160;Bootstrap</text>
<polygon fill="#fdb462" stroke="transparent" points="310,-10 310,-30 330,-30 330,-10 310,-10"/>
<text text-anchor="start" x="333.6732" y="-15.4" font-family="sans-serif" font-size="14.00" fill="#000000"> &#160;Providers</text>
<polygon fill="#fb8072" stroke="transparent" points="406,-10 406,-30 426,-30 426,-10 406,-10"/>
<text text-anchor="start" x="429.7258" y="-15.4" font-family="sans-serif" font-size="14.00" fill="#000000"> &#160;Exports</text>
<g id="clust1" class="cluster">
<title>cluster_PatternflyUIModule</title>
<polygon fill="none" stroke="#000000" stroke-dasharray="1,5" points="65.5,-70 65.5,-268 430.5,-268 430.5,-70 65.5,-70"/>
</g>
<g id="clust2" class="cluster">
<title>cluster_PatternflyUIModule_declarations</title>
<polygon fill="none" stroke="#000000" points="76.5,-78 76.5,-130 419.5,-130 419.5,-78 76.5,-78"/>
</g>
<g id="clust6" class="cluster">
<title>cluster_PatternflyUIModule_exports</title>
<polygon fill="none" stroke="#000000" points="73.5,-208 73.5,-260 422.5,-260 422.5,-208 73.5,-208"/>
</g>
<!-- SyndesisFormComponent -->
<g id="node1" class="node">
<title>SyndesisFormComponent</title>
<polygon fill="#ffffb3" stroke="#000000" points="411.4438,-122 249.5562,-122 249.5562,-86 411.4438,-86 411.4438,-122"/>
<text text-anchor="middle" x="330.5" y="-99.8" font-family="Times,serif" font-size="14.00" fill="#000000">SyndesisFormComponent</text>
</g>
<!-- PatternflyUIModule -->
<g id="node3" class="node">
<title>PatternflyUIModule</title>
<polygon fill="#8dd3c7" stroke="#000000" points="223.0227,-187 220.0227,-191 199.0227,-191 196.0227,-187 93.9773,-187 93.9773,-151 223.0227,-151 223.0227,-187"/>
<text text-anchor="middle" x="158.5" y="-164.8" font-family="Times,serif" font-size="14.00" fill="#000000">PatternflyUIModule</text>
</g>
<!-- SyndesisFormComponent&#45;&gt;PatternflyUIModule -->
<g id="edge1" class="edge">
<title>SyndesisFormComponent&#45;&gt;PatternflyUIModule</title>
<path fill="none" stroke="#000000" d="M357.4905,-122.0225C357.4905,-139.3734 357.4905,-163 357.4905,-163 357.4905,-163 233.1065,-163 233.1065,-163"/>
<polygon fill="#000000" stroke="#000000" points="233.1066,-159.5001 223.1065,-163 233.1065,-166.5001 233.1066,-159.5001"/>
</g>
<!-- ListToolbarComponent -->
<g id="node2" class="node">
<title>ListToolbarComponent</title>
<polygon fill="#ffffb3" stroke="#000000" points="232.4298,-122 84.5702,-122 84.5702,-86 232.4298,-86 232.4298,-122"/>
<text text-anchor="middle" x="158.5" y="-99.8" font-family="Times,serif" font-size="14.00" fill="#000000">ListToolbarComponent</text>
</g>
<!-- ListToolbarComponent&#45;&gt;PatternflyUIModule -->
<g id="edge2" class="edge">
<title>ListToolbarComponent&#45;&gt;PatternflyUIModule</title>
<path fill="none" stroke="#000000" d="M158.5,-122.1061C158.5,-122.1061 158.5,-140.991 158.5,-140.991"/>
<polygon fill="#000000" stroke="#000000" points="155.0001,-140.9909 158.5,-150.991 162.0001,-140.991 155.0001,-140.9909"/>
</g>
<!-- SyndesisFormComponent  -->
<g id="node4" class="node">
<title>SyndesisFormComponent </title>
<polygon fill="#fb8072" stroke="#000000" points="414.9432,-252 250.0568,-252 250.0568,-216 414.9432,-216 414.9432,-252"/>
<text text-anchor="middle" x="332.5" y="-229.8" font-family="Times,serif" font-size="14.00" fill="#000000">SyndesisFormComponent </text>
</g>
<!-- PatternflyUIModule&#45;&gt;SyndesisFormComponent  -->
<g id="edge3" class="edge">
<title>PatternflyUIModule&#45;&gt;SyndesisFormComponent </title>
<path fill="none" stroke="#000000" stroke-dasharray="5,2" d="M223.0588,-175C261.8541,-175 303.7595,-175 303.7595,-175 303.7595,-175 303.7595,-205.9775 303.7595,-205.9775"/>
<polygon fill="#000000" stroke="#000000" points="300.2596,-205.9774 303.7595,-215.9775 307.2596,-205.9775 300.2596,-205.9774"/>
</g>
<!-- ListToolbarComponent  -->
<g id="node5" class="node">
<title>ListToolbarComponent </title>
<polygon fill="#fb8072" stroke="#000000" points="231.9292,-252 81.0708,-252 81.0708,-216 231.9292,-216 231.9292,-252"/>
<text text-anchor="middle" x="156.5" y="-229.8" font-family="Times,serif" font-size="14.00" fill="#000000">ListToolbarComponent </text>
</g>
<!-- PatternflyUIModule&#45;&gt;ListToolbarComponent  -->
<g id="edge4" class="edge">
<title>PatternflyUIModule&#45;&gt;ListToolbarComponent </title>
<path fill="none" stroke="#000000" stroke-dasharray="5,2" d="M158.5,-187.1061C158.5,-187.1061 158.5,-205.991 158.5,-205.991"/>
<polygon fill="#000000" stroke="#000000" points="155.0001,-205.9909 158.5,-215.991 162.0001,-205.991 155.0001,-205.9909"/>
</g>
</g>
</svg>
