<svg xmlns="http://www.w3.org/2000/svg" height="240" width="240"><defs><clipPath id="a" clipPathUnits="userSpaceOnUse"><path d="M0 612h792V0H0z"/></clipPath></defs><g clip-path="url(#a)" transform="matrix(1.33333 0 0 -1.33333 -92.907 747.32)"><path d="M142.88 539.65l-55.512-26.734a3.6 3.6 0 0 1-1.948-2.442l-13.711-60.07a3.599 3.599 0 0 1 .695-3.046l38.417-48.173a3.6 3.6 0 0 1 2.814-1.355h61.616a3.6 3.6 0 0 1 2.814 1.355l38.417 48.173c.683.856.939 1.978.695 3.045l-13.711 60.071a3.597 3.597 0 0 1-1.948 2.442l-55.513 26.734a3.596 3.596 0 0 1-3.124 0" fill="#0366ad"/><path d="M211.829 539.694l-21.825-7.943a1.803 1.803 0 0 1-.943-.792l-11.612-20.113a1.802 1.802 0 0 1-.214-1.213l4.033-22.872c.073-.417.29-.795.615-1.067l17.792-14.928a1.8 1.8 0 0 1 1.157-.421h23.225a1.8 1.8 0 0 1 1.157.42l17.792 14.929c.323.272.542.65.615 1.067l4.033 22.872c.073.417-.002.846-.214 1.213l-11.612 20.113a1.803 1.803 0 0 1-.943.792l-21.825 7.943a1.796 1.796 0 0 1-1.231 0" fill="#6593c8"/><path d="M208.212 513.21c.435.42.886.806 1.354 1.156.47.35.967.65 1.492.904a8.12 8.12 0 0 0 1.701.587c.61.14 1.27.21 1.984.21 1.176 0 2.22-.203 3.13-.61a6.442 6.442 0 0 0 2.3-1.7c.622-.728 1.091-1.596 1.406-2.604.315-1.007.473-2.114.473-3.318V494.08h-5.776v13.755c0 1.204-.28 2.139-.839 2.804-.56.665-1.386.997-2.479.997a5.138 5.138 0 0 1-2.289-.525 7.846 7.846 0 0 1-2.036-1.47V494.08h-5.797v21.652h3.57c.728 0 1.211-.336 1.45-1.01zM124.76 489.576h12.229V465.44h.244c1.215 2.107 2.51 4.05 3.725 5.994l12.393 18.143h15.145l-18.061-23.245 19.033-31.345h-14.416l-13.364 23.57-4.7-5.75v-17.82H124.76z" fill="#fff"/></g></svg>