<svg xmlns="http://www.w3.org/2000/svg" viewBox="0 0 246 300"><style>.st10{fill:#231f20}.st62{fill:#d1d3d4}</style><g id="Layer_1"><path class="st10" d="M152.1 166.2H24.7c-2.1 0-3.7-1.7-3.7-3.7 0-2.1 1.7-3.7 3.7-3.7h127.4c2.1 0 3.7 1.7 3.7 3.7s-1.7 3.7-3.7 3.7zM152.7 194.1h-128c-2.1 0-3.7-1.7-3.7-3.7 0-2.1 1.7-3.7 3.7-3.7h128c2.1 0 3.7 1.7 3.7 3.7s-1.6 3.7-3.7 3.7z"/><path d="M31.1 16.2c.9 7.1 4.6 14 5.6 15.8.9 1.6 2.6 2.5 4.3 2.5.8 0 1.7-.2 2.4-.7 2.4-1.4 3.2-4.4 1.9-6.8-1.6-2.8-3.4-7.2-4.2-10.8h113c.9 7.1 4.6 14 5.6 15.8.9 1.6 2.6 2.5 4.3 2.5.8 0 1.7-.2 2.4-.7 2.4-1.4 3.2-4.4 1.9-6.8-1.6-2.8-3.4-7.2-4.2-10.8h33.5V44H7.4V16.2h23.7z" fill="#00aeef"/><path class="st10" d="M36.8 40.6c1.4.5 2.8.8 4.2.8 1.7 0 3.3-.4 4.9-1.1 2.9-1.3 5.1-3.7 6.2-6.7 1.1-3 1-6.2-.3-9.1-.8-1.7-2-3.2-3.6-4.5-1.1-.8-2.6-.7-3.5.4-.8 1.1-.7 2.6.4 3.5 1 .8 1.7 1.6 2.1 2.6.8 1.7.8 3.6.2 5.3-.7 1.7-2 3.1-3.6 3.9-1.7.8-3.6.8-5.3.2-1.7-.7-3.1-2-3.9-3.7-.5-1-.6-2.1-.6-3.3.1-1.4-1-2.5-2.3-2.6-1.4-.1-2.5 1-2.6 2.3-.1 2 .2 3.9 1 5.6 1.3 3.1 3.7 5.3 6.7 6.4zM159.8 40.6c1.4.5 2.8.8 4.2.8 1.7 0 3.3-.4 4.9-1.1 2.9-1.3 5.1-3.7 6.2-6.7 1.1-3 1-6.2-.3-9.1-.8-1.7-2-3.2-3.6-4.5-1.1-.8-2.6-.7-3.5.4-.8 1.1-.6 2.6.4 3.5 1 .7 1.7 1.6 2.1 2.6.8 1.7.8 3.6.2 5.3-.7 1.7-2 3.1-3.6 3.9-1.7.8-3.6.8-5.3.2-1.7-.7-3.1-2-3.9-3.7-.5-1-.6-2.1-.6-3.3.1-1.4-1-2.5-2.3-2.6-1.4-.1-2.5 1-2.6 2.3-.1 2 .2 3.9 1 5.7 1.4 3 3.8 5.2 6.7 6.3z"/><path class="st10" d="M244.5 18.1L218.3 6.8c-.6-.3-1.3-.3-1.9 0-.6.2-1.1.7-1.4 1.3l-3.9 9-7.1-7.3c-.3-.3-.8-.6-1.2-.8-.5-.2-.9-.3-1.4-.3h-26.9c-.6-2.2-2-5.8-5.1-7.6-2.1-1.2-4.5-1.4-6.9-.7-3.6 1.2-6.3 3.7-7.6 7.2-.1.4-.2.7-.3 1.1H51.4c-.6-2.2-2-5.8-5.1-7.6-2.1-1.2-4.5-1.4-6.9-.7-3.6 1.2-6.3 3.7-7.6 7.2-.1.4-.2.7-.3 1.1H3.7c-2 0-3.7 1.7-3.7 3.7v272.8c0 .5.1.9.3 1.4.2.5.5.9.8 1.2l11 11c.7.7 1.6 1.1 2.6 1.1h197.6c.5 0 1-.1 1.4-.3.4-.2.7-.4 1-.7.1 0 .1-.1.2-.1 0 0 .1-.1.1-.2.3-.3.5-.7.7-1.1.2-.5.3-.9.3-1.4V90.4l29.7-69.1c.6-1.2.1-2.7-1.2-3.2zm-72.4 89.8H24.7c-2.1 0-3.7 1.7-3.7 3.7 0 2.1 1.7 3.7 3.7 3.7h144.2l-7.6 17.6c-.3-.1-.7-.2-1-.2H24.7c-2.1 0-3.7 1.7-3.7 3.7 0 2.1 1.7 3.7 3.7 3.7h133.6l-8.8 20.5c-.2.3-.2.7-.2 1.1v.1l1.8 30c.1.9.6 1.7 1.4 2.1.3.2.7.2 1 .2.5 0 1.1-.2 1.5-.5l24.4-18.8s0-.1.1-.1c.3-.2.5-.5.7-.9l17.4-40.5V253c-.5.6-1 1.2-1.7 1.7-4.6 3.2-14.3 3.3-22.9.2-.8-.3-1.6-.2-2.3.3-.7.5-1.1 1.2-1.1 2 0 10-7.8 21.4-18.5 24.3H7.4v-230h189l-24.3 56.4zm-17.7 57.6l17.1 7.4 1.5.6-7 5.4-10.8.9-.8-14.3zm43.2 98.9v17.2H170l27.6-17.2zm-32 14.1c4.8-5 8-11.5 8.9-17.9 6 1.7 13 2.3 18.7.8l-27.6 17.1zm39.5-257.1l3 3-3 6.9v-9.9zm-174-5.2c.9 7.1 4.6 14 5.6 15.8.9 1.6 2.6 2.5 4.3 2.5.8 0 1.7-.2 2.4-.7 2.4-1.4 3.2-4.4 1.9-6.8-1.6-2.8-3.4-7.2-4.2-10.8h113c.9 7.1 4.6 14 5.6 15.8.9 1.6 2.6 2.5 4.3 2.5.8 0 1.7-.2 2.4-.7 2.4-1.4 3.2-4.4 1.9-6.8-1.6-2.8-3.4-7.2-4.2-10.8h33.5V44H7.4V16.2h23.7zM12.7 289h187.1l3.6 3.6H16.3l-3.6-3.6zm196-1.7l-3.6-3.6V116l3.6-8.3v179.6zm-32.1-117.7l-13.1-5.6-8.5-3.7 19.8-46c.6-.6 1-1.5 1.1-2.5L215 20.9l3.7-8.5 21.6 9.3-63.7 147.9z"/><path class="st10" d="M176.6 169.6l-13.1-5.6-8.5-3.7 19.8-46c.6-.6 1-1.5 1.1-2.5L215 20.9l3.7-8.5 21.6 9.3-63.7 147.9z"/><path class="st62" d="M12.7 289h187.1l3.6 3.6H16.3zM208.7 287.3l-3.6-3.6V116l3.6-8.3z"/></g></svg>