<svg version="1.1" id="Layer_1" xmlns="http://www.w3.org/2000/svg" x="0" y="0" viewBox="0 0 221.1 300" xml:space="preserve"><style></style><circle cx="111.6" cy="192" r="88.6" fill="#2b3990"/><path d="M110.6 100.2c-50.8 0-92.2 41.4-92.2 92.2 0 50.9 41.4 92.2 92.2 92.2 50.8 0 92.2-41.4 92.2-92.2 0-50.8-41.4-92.2-92.2-92.2zm72.6 44c-7 6.8-13.3 14.4-18.6 22.7-.5-.1-.9-.2-1.4-.2-1 0-1.9.3-2.8.7-4.6-6.5-8.4-13.1-11.3-19.6 1.7-1.1 2.8-3 2.8-5.2 0-.6-.1-1.1-.3-1.7 6.3-4.4 11.7-9.3 16-14.3 6 5.1 11.2 11 15.6 17.6zM68.8 169.4c4.8-.5 9.6-1.2 14.5-2 1 2 3.1 3.4 5.5 3.4.8 0 1.7-.2 2.4-.5 6.2 8.9 13.5 17.1 21.8 24.4 8.7 7.6 18.2 14 28.1 19.1-.1.5-.2 1-.2 1.5 0 2.4 1.4 4.5 3.4 5.5-1.1 7.2-1.6 14.5-1.5 21.6-1.2.3-2.3.8-3.2 1.6-9.3-6.6-19.4-12.2-30.1-16.5-12.9-5.2-26.2-8.4-39.5-9.7-.8-3.5-3.9-6.1-7.6-6.2-1-6.3-1.5-12.7-1.5-19.2 0-5.4.4-10.7 1.1-15.9 3.5-.5 6.3-3.4 6.8-7.1zm-4.1-7.9c2.3-8.7 5.5-17 9.7-24.7 2.6 7.9 6 15.7 10.2 23.1-1.1 1-1.8 2.3-2 3.8-4.8.8-9.5 1.5-14.3 1.9-.6-1.7-1.9-3.2-3.6-4.1zm81.8 47.7c-1.8.2-3.4 1.1-4.4 2.4-9.7-5-19-11.2-27.6-18.7-8.2-7.2-15.3-15.3-21.4-24 1-1 1.6-2.4 1.7-3.9 17.4-4.1 33.4-10.3 46.7-17.8 1.1 1 2.5 1.6 4.1 1.6.4 0 .8 0 1.2-.1 2.9 6.8 6.8 13.6 11.6 20.3-.9 1.1-1.5 2.5-1.5 4 0 1.6.6 3.1 1.7 4.2-3.7 7-6.9 14.4-9.3 22.2-1.1 3.2-2 6.5-2.8 9.8zm-2.1-97.2c7.4 3.1 14.2 7.2 20.4 12.1-4.1 4.7-9.2 9.3-15.3 13.5-1.1-.8-2.4-1.4-3.8-1.4-.2 0-.3 0-.5.1-2.3-8.7-2.7-17.1-.8-24.3zm-33.8-6.8c11.1 0 21.7 2.1 31.5 5.9-2.1 7.7-1.7 16.6.7 25.9-2 1-3.4 3.1-3.4 5.5 0 .5.1.9.2 1.4-13 7.4-28.7 13.5-45.6 17.5-1.1-1.8-3.1-3.1-5.3-3.1-.7 0-1.4.1-2 .4-4.5-7.9-8.1-16.3-10.7-24.8 6.4-11 14.6-20.5 24.4-28.1 3.4-.4 6.7-.6 10.2-.6zm-17.4 1.7c-7.1 6.3-13.4 13.7-18.5 22-1.2-4.9-2.1-9.8-2.7-14.7 6.6-3.3 13.8-5.8 21.2-7.3zm-23.6 8.5c.7 5.5 1.8 11 3.3 16.5-5.1 8.8-9.1 18.4-11.8 28.5h-.4c-3.8 0-6.9 2.6-7.8 6.2-8.8.1-17.2-.5-25.1-1.8 7.2-21.3 22.3-38.9 41.8-49.4zm-46.3 77c0-8.3 1.2-16.4 3.4-24 7.6 1.3 15.7 2 24.1 2 .7 0 1.3 0 2-.1.6 2.7 2.6 4.9 5.2 5.8-.7 5.3-1.1 10.8-1.1 16.3 0 6.8.5 13.5 1.6 20-2 .9-3.6 2.7-4.3 4.8-8.9.1-17.7 1.1-26.4 3-2.8-8.7-4.5-18.1-4.5-27.8zm5.9 31.3c8.2-1.7 16.5-2.6 24.9-2.8.6 3.9 3.9 6.8 8 6.8h.1c5.8 19.8 16.6 37.2 31.1 50.1-29.5-5.8-53.5-26.6-64.1-54.1zm81.4 56c-3.4 0-6.8-.2-10.2-.6C84 266.4 72 248 65.7 226.9c2-1.1 3.6-2.9 4.1-5.2 12.9 1.3 25.7 4.4 38.2 9.4 10.4 4.2 20.2 9.6 29.2 16-.5 1-.7 2.1-.7 3.3 0 4.2 3.3 7.7 7.5 8 .6 4.5 1.5 9 2.7 13.4-11.1 5-23.3 7.9-36.1 7.9zm39.4-9.5c-1-4.1-1.8-8.2-2.4-12.3.6-.3 1.2-.6 1.8-1 3.1 2.8 6 5.7 8.7 8.7-2.6 1.6-5.3 3.2-8.1 4.6zm11.3-6.9c-3-3.3-6.1-6.4-9.5-9.4.5-1.1.9-2.3.9-3.6 0-3.8-2.7-7-6.2-7.8-.1-7 .4-14 1.5-21 1.8-.2 3.3-1.2 4.3-2.6 12.4 4.9 25.3 7.8 38.3 8.5-6.5 14.4-16.6 26.8-29.3 35.9zm30.2-38.4c-13-.6-25.9-3.4-38.3-8.3.1-.4.1-.8.1-1.2 0-2.3-1.3-4.3-3.1-5.4.8-3.2 1.6-6.4 2.6-9.5 2.4-7.5 5.4-14.6 9-21.4.4.1.9.1 1.3.2 1 0 2-.3 2.9-.7 2.1 2.4 4.3 4.8 6.6 7.1 7.6 7.4 15.8 13.6 24.3 18.6-.9 7-2.7 14-5.4 20.6zm-17.1-41.2c-2.3-2.2-4.4-4.5-6.5-6.8.9-1.1 1.4-2.4 1.4-3.9 0-1.6-.6-3-1.6-4.1 5.1-7.8 10.9-15 17.5-21.4 8 13.1 12.5 28.6 12.5 45 0 3-.2 6-.5 8.9-7.9-4.8-15.6-10.7-22.8-17.7z" fill="#fff"/><path d="M168.1 2.3c-.8-.9-2-1.3-3.1-1.3H4.4C2 1 0 3 0 5.4v291.3c0 2.4 2 4.4 4.4 4.4h212.4c2.4 0 4.4-2 4.4-4.4V58.8c0-1.1-.4-2.2-1.2-3L168.1 2.3zm1.2 13.9l39.5 40.7h-39.5V16.2zM8.7 9.7h151.8v49.6c0 .3.1.6.2.9-.1.3-.2.6-.2.9 0 2.4 2 4.4 4.4 4.4h47.5v226.7H8.7V9.7z"/><path fill="none" d="M0 49.4h221.7v76H0z"/><text transform="translate(66.54 83.913)" font-size="45.411" font-family="OpenSans-Bold" fill="#231f20">sftp</text></svg>