<svg xmlns="http://www.w3.org/2000/svg" xmlns:xlink="http://www.w3.org/1999/xlink" height="118" width="118"><defs><linearGradient id="a"><stop offset="0" stop-color="#0a4124"/><stop offset="1" stop-color="#23a565"/></linearGradient><linearGradient xlink:href="#a" id="b" x1="168.913" y1="5.242" x2="175.624" y2="92.293" gradientUnits="userSpaceOnUse" gradientTransform="translate(-128.5 10.5)"/></defs><g fill-rule="evenodd"><path d="M21.846.003h47.538l32.76 32.643-.287 79.18c-.012 3.394-2.696 6.17-5.99 6.17H21.845c-3.295 0-5.99-2.776-5.99-6.17V6.174c0-3.394 2.695-6.17 5.99-6.17z" fill="#23a565" stroke-width=".807"/><path d="M102.145 32.646L69.385.003l.066 26.466c.008 3.351 2.661 6.082 5.914 6.092z" fill="#8bd1b5" stroke-width=".807"/><path d="M38.016 58.296h41.563v37.698H38.016zM42.3 85.13h14.71v6.516H42.3zm18.284-22.487h14.71v6.516h-14.71zm0 22.487h14.71v6.516h-14.71zm0-11.243h14.71v6.516h-14.71zM42.3 62.643h14.71v6.516H42.3zm0 11.244h14.71v6.516H42.3z" fill="#fff" stroke-width=".693"/><path d="M28.885 73.713c8.925 10.271 18.873 19.692 29.021 29.84l.395-.395.103-28.654-26.779-.084a5.746 5.746 0 0 1-2.74-.707z" fill="url(#b)" stroke-width=".807" transform="translate(43.74 -41.858)"/></g></svg>