<?xml version="1.0" encoding="utf-8"?>
<!-- Generator: Adobe Illustrator 19.1.0, SVG Export Plug-In . SVG Version: 6.00 Build 0)  -->
<svg version="1.1" id="Layer_1" xmlns="http://www.w3.org/2000/svg" xmlns:xlink="http://www.w3.org/1999/xlink" x="0px" y="0px"
	 viewBox="0 0 284.2 300" style="enable-background:new 0 0 284.2 300;" xml:space="preserve">
<style type="text/css">
	.st0{fill:#BABABA;}
	.st1{fill:none;}
	.st2{fill:#0F9BD7;}
	.st3{fill:#FFFFFF;}
	.st4{fill-rule:evenodd;clip-rule:evenodd;fill:#FFFFFF;}
	.st5{fill:#1DA1F2;}
	.st6{fill:#3D5A98;}
	.st7{fill:#231F20;}
	.st8{fill:#007BB5;}
	.st9{fill:#DC4E41;}
	.st10{fill-rule:evenodd;clip-rule:evenodd;fill:#181616;}
	.st11{fill:#181616;}
	.st12{fill:#F2F2F2;}
	.st13{fill:#E3E3E3;}
	.st14{fill:#D54B3D;}
	.st15{fill:#D72B27;}
	.st16{opacity:0.56;fill:url(#SVGID_1_);}
	.st17{fill:#92D400;}
	.st18{fill:#00B9E4;}
	.st19{fill:#3F9C35;}
	.st20{fill:#8FCED8;}
	.st21{fill-rule:evenodd;clip-rule:evenodd;fill:#5D5E5F;}
	.st22{fill:#D21F21;}
	.st23{fill:#D6D6D6;}
	.st24{fill:#F1F1F1;}
	.st25{fill:#C32265;}
</style>
<g>
	<g>
		<g>
			<path class="st7" d="M259.3,127.1c-10.8,0-20,6.9-23.5,16.5l-41.5-12c0.2-2.1,0.3-4.2,0.3-6.3c0-22.6-11.5-42.6-29-54.4
				l22.6-33.8c1.7,0.5,3.5,0.9,5.4,0.9c10.5,0,19-8.5,19-19c0-10.5-8.5-19-19-19c-10.5,0-19,8.5-19,19c0,7.1,3.9,13.2,9.7,16.5
				l-22.3,33.2c-9.7-5.7-20.9-9-32.9-9c-21.5,0-40.5,10.4-52.5,26.5L44.8,59.9c3-4.1,4.7-9.1,4.7-14.5c0-13.6-11.1-24.7-24.8-24.7
				C11.1,20.6,0,31.7,0,45.4c0,13.7,11.1,24.8,24.8,24.8c6.8,0,12.9-2.7,17.4-7.1l32.2,26.6c-6.7,10.3-10.6,22.5-10.6,35.6
				c0,17.2,6.7,32.8,17.6,44.5l-22.7,18.9c-3.7-3.5-8.6-5.7-14-5.7c-11.2,0-20.4,9.1-20.4,20.4c0,11.2,9.1,20.4,20.4,20.4
				c11.2,0,20.4-9.1,20.4-20.4c0-4.3-1.3-8.3-3.6-11.5l23-19.1c11.7,11.1,27.5,18,44.9,18c9.4,0,18.3-2,26.4-5.6l17.8,47.5
				c-12.9,5.2-22,17.7-22,32.4c0,19.3,15.7,34.9,34.9,34.9c19.3,0,34.9-15.7,34.9-34.9c0-19.3-15.7-35-34.9-35c-3.1,0-6.1,0.5-9,1.2
				l-18-48c18-9.4,31-26.9,34.4-47.6l41,11.9c-0.3,1.5-0.4,2.9-0.4,4.5c0,13.8,11.2,25,25,25c13.8,0,25-11.2,25-25
				C284.2,138.3,273,127.1,259.3,127.1z M193.7,6.2c7,0,12.8,5.7,12.8,12.8c0,7-5.7,12.8-12.8,12.8c-7,0-12.8-5.7-12.8-12.8
				C180.9,12,186.6,6.2,193.7,6.2z M24.8,63.9c-10.2,0-18.5-8.3-18.5-18.5c0-10.2,8.3-18.5,18.5-18.5c10.2,0,18.5,8.3,18.5,18.5
				C43.3,55.6,35,63.9,24.8,63.9z M215,265.1c0,15.8-12.9,28.7-28.7,28.7c-15.8,0-28.7-12.9-28.7-28.7c0-15.8,12.9-28.7,28.7-28.7
				C202.2,236.4,215,249.2,215,265.1z M44.5,217.5c-7.8,0-14.1-6.3-14.1-14.1c0-7.8,6.3-14.1,14.1-14.1c7.8,0,14.1,6.3,14.1,14.1
				C58.6,211.2,52.3,217.5,44.5,217.5z M129.2,182.4c-31.5,0-57.2-25.6-57.2-57.2s25.6-57.2,57.2-57.2c31.5,0,57.2,25.6,57.2,57.2
				S160.7,182.4,129.2,182.4z M259.3,170.8c-10.3,0-18.7-8.4-18.7-18.7c0-10.3,8.4-18.8,18.7-18.8c10.3,0,18.7,8.4,18.7,18.8
				C278,162.4,269.6,170.8,259.3,170.8z"/>
		</g>
	</g>
	<path class="st25" d="M129.2,182.4c-31.5,0-57.2-25.6-57.2-57.2s25.6-57.2,57.2-57.2c31.5,0,57.2,25.6,57.2,57.2
		S160.7,182.4,129.2,182.4z"/>
	<path class="st0" d="M193.7,6.2c7,0,12.8,5.7,12.8,12.8c0,7-5.7,12.8-12.8,12.8c-7,0-12.8-5.7-12.8-12.8
		C180.9,12,186.6,6.2,193.7,6.2z"/>
	<path class="st23" d="M24.8,63.9c-10.2,0-18.5-8.3-18.5-18.5c0-10.2,8.3-18.5,18.5-18.5c10.2,0,18.5,8.3,18.5,18.5
		C43.3,55.6,35,63.9,24.8,63.9z"/>
	<path class="st24" d="M215,265.1c0,15.8-12.9,28.7-28.7,28.7c-15.8,0-28.7-12.9-28.7-28.7c0-15.8,12.9-28.7,28.7-28.7
		C202.2,236.4,215,249.2,215,265.1z"/>
	<path class="st0" d="M44.5,217.5c-7.8,0-14.1-6.3-14.1-14.1c0-7.8,6.3-14.1,14.1-14.1c7.8,0,14.1,6.3,14.1,14.1
		C58.6,211.2,52.3,217.5,44.5,217.5z"/>
	<path class="st23" d="M259.3,170.8c-10.3,0-18.7-8.4-18.7-18.7c0-10.3,8.4-18.8,18.7-18.8c10.3,0,18.7,8.4,18.7,18.8
		C278,162.4,269.6,170.8,259.3,170.8z"/>
</g>
</svg>
