<?xml version="1.0" encoding="UTF-8" standalone="no"?>
<!DOCTYPE svg PUBLIC "-//W3C//DTD SVG 1.1//EN"
 "http://www.w3.org/Graphics/SVG/1.1/DTD/svg11.dtd">
<!-- Generated by graphviz version 2.40.1 (20161225.0304)
 -->
<!-- Title: dependencies Pages: 1 -->
<svg width="2918pt" height="284pt"
 viewBox="0.00 0.00 2918.00 284.00" xmlns="http://www.w3.org/2000/svg" xmlns:xlink="http://www.w3.org/1999/xlink">
<g id="graph0" class="graph" transform="scale(1 1) rotate(0) translate(4 280)">
<title>dependencies</title>
<polygon fill="#ffffff" stroke="transparent" points="-4,4 -4,-280 2914,-280 2914,4 -4,4"/>
<text text-anchor="start" x="1434.0091" y="-42.4" font-family="sans-serif" font-weight="bold" font-size="14.00" fill="#000000">Legend</text>
<polygon fill="#ffffb3" stroke="transparent" points="1221,-10 1221,-30 1241,-30 1241,-10 1221,-10"/>
<text text-anchor="start" x="1244.629" y="-15.4" font-family="sans-serif" font-size="14.00" fill="#000000"> &#160;Declarations</text>
<polygon fill="#8dd3c7" stroke="transparent" points="1334,-10 1334,-30 1354,-30 1354,-10 1334,-10"/>
<text text-anchor="start" x="1357.7251" y="-15.4" font-family="sans-serif" font-size="14.00" fill="#000000"> &#160;Module</text>
<polygon fill="#80b1d3" stroke="transparent" points="1420,-10 1420,-30 1440,-30 1440,-10 1420,-10"/>
<text text-anchor="start" x="1443.7812" y="-15.4" font-family="sans-serif" font-size="14.00" fill="#000000"> &#160;Bootstrap</text>
<polygon fill="#fdb462" stroke="transparent" points="1517,-10 1517,-30 1537,-30 1537,-10 1517,-10"/>
<text text-anchor="start" x="1540.6732" y="-15.4" font-family="sans-serif" font-size="14.00" fill="#000000"> &#160;Providers</text>
<polygon fill="#fb8072" stroke="transparent" points="1613,-10 1613,-30 1633,-30 1633,-10 1613,-10"/>
<text text-anchor="start" x="1636.7258" y="-15.4" font-family="sans-serif" font-size="14.00" fill="#000000"> &#160;Exports</text>
<g id="clust1" class="cluster">
<title>cluster_ConnectionsModule</title>
<polygon fill="none" stroke="#000000" stroke-dasharray="1,5" points="8,-70 8,-268 2902,-268 2902,-70 8,-70"/>
</g>
<g id="clust2" class="cluster">
<title>cluster_ConnectionsModule_declarations</title>
<polygon fill="none" stroke="#000000" points="601,-78 601,-130 2894,-130 2894,-78 601,-78"/>
</g>
<g id="clust14" class="cluster">
<title>cluster_ConnectionsModule_imports</title>
<polygon fill="none" stroke="#000000" points="268,-78 268,-130 593,-130 593,-78 268,-78"/>
</g>
<g id="clust15" class="cluster">
<title>cluster_ConnectionsModule_exports</title>
<polygon fill="none" stroke="#000000" points="1123,-208 1123,-260 1755,-260 1755,-208 1123,-208"/>
</g>
<g id="clust17" class="cluster">
<title>cluster_ConnectionsModule_providers</title>
<polygon fill="none" stroke="#000000" points="16,-78 16,-130 260,-130 260,-78 16,-78"/>
</g>
<!-- ConnectionsCreatePage -->
<g id="node1" class="node">
<title>ConnectionsCreatePage</title>
<polygon fill="#ffffb3" stroke="#000000" points="2885.7352,-122 2736.2648,-122 2736.2648,-86 2885.7352,-86 2885.7352,-122"/>
<text text-anchor="middle" x="2811" y="-99.8" font-family="Times,serif" font-size="14.00" fill="#000000">ConnectionsCreatePage</text>
</g>
<!-- ConnectionsModule -->
<g id="node12" class="node">
<title>ConnectionsModule</title>
<polygon fill="#8dd3c7" stroke="#000000" points="1505.5422,-187 1502.5422,-191 1481.5422,-191 1478.5422,-187 1376.4578,-187 1376.4578,-151 1505.5422,-151 1505.5422,-187"/>
<text text-anchor="middle" x="1441" y="-164.8" font-family="Times,serif" font-size="14.00" fill="#000000">ConnectionsModule</text>
</g>
<!-- ConnectionsCreatePage&#45;&gt;ConnectionsModule -->
<g id="edge1" class="edge">
<title>ConnectionsCreatePage&#45;&gt;ConnectionsModule</title>
<path fill="none" stroke="#000000" d="M2811,-122.2921C2811,-144.2057 2811,-178 2811,-178 2811,-178 1515.6976,-178 1515.6976,-178"/>
<polygon fill="#000000" stroke="#000000" points="1515.6977,-174.5001 1505.6976,-178 1515.6976,-181.5001 1515.6977,-174.5001"/>
</g>
<!-- ConnectionsConnectionBasicsComponent -->
<g id="node2" class="node">
<title>ConnectionsConnectionBasicsComponent</title>
<polygon fill="#ffffb3" stroke="#000000" points="2718.4169,-122 2465.5831,-122 2465.5831,-86 2718.4169,-86 2718.4169,-122"/>
<text text-anchor="middle" x="2592" y="-99.8" font-family="Times,serif" font-size="14.00" fill="#000000">ConnectionsConnectionBasicsComponent</text>
</g>
<!-- ConnectionsConnectionBasicsComponent&#45;&gt;ConnectionsModule -->
<g id="edge2" class="edge">
<title>ConnectionsConnectionBasicsComponent&#45;&gt;ConnectionsModule</title>
<path fill="none" stroke="#000000" d="M2592,-122.0267C2592,-142.7672 2592,-174 2592,-174 2592,-174 1515.7643,-174 1515.7643,-174"/>
<polygon fill="#000000" stroke="#000000" points="1515.7643,-170.5001 1505.7643,-174 1515.7642,-177.5001 1515.7643,-170.5001"/>
</g>
<!-- ConnectionsConfigureFieldsComponent -->
<g id="node3" class="node">
<title>ConnectionsConfigureFieldsComponent</title>
<polygon fill="#ffffb3" stroke="#000000" points="2448.3102,-122 2205.6898,-122 2205.6898,-86 2448.3102,-86 2448.3102,-122"/>
<text text-anchor="middle" x="2327" y="-99.8" font-family="Times,serif" font-size="14.00" fill="#000000">ConnectionsConfigureFieldsComponent</text>
</g>
<!-- ConnectionsConfigureFieldsComponent&#45;&gt;ConnectionsModule -->
<g id="edge3" class="edge">
<title>ConnectionsConfigureFieldsComponent&#45;&gt;ConnectionsModule</title>
<path fill="none" stroke="#000000" d="M2327,-122.1061C2327,-141.3391 2327,-169 2327,-169 2327,-169 1515.7907,-169 1515.7907,-169"/>
<polygon fill="#000000" stroke="#000000" points="1515.7908,-165.5001 1505.7907,-169 1515.7907,-172.5001 1515.7908,-165.5001"/>
</g>
<!-- ConnectionsReviewComponent -->
<g id="node4" class="node">
<title>ConnectionsReviewComponent</title>
<polygon fill="#ffffb3" stroke="#000000" points="2188.087,-122 1993.913,-122 1993.913,-86 2188.087,-86 2188.087,-122"/>
<text text-anchor="middle" x="2091" y="-99.8" font-family="Times,serif" font-size="14.00" fill="#000000">ConnectionsReviewComponent</text>
</g>
<!-- ConnectionsReviewComponent&#45;&gt;ConnectionsModule -->
<g id="edge4" class="edge">
<title>ConnectionsReviewComponent&#45;&gt;ConnectionsModule</title>
<path fill="none" stroke="#000000" d="M2091,-122.302C2091,-140.2699 2091,-165 2091,-165 2091,-165 1515.7008,-165 1515.7008,-165"/>
<polygon fill="#000000" stroke="#000000" points="1515.7009,-161.5001 1505.7008,-165 1515.7008,-168.5001 1515.7009,-161.5001"/>
</g>
<!-- ConnectionsCancelComponent -->
<g id="node5" class="node">
<title>ConnectionsCancelComponent</title>
<polygon fill="#ffffb3" stroke="#000000" points="1976.1951,-122 1785.8049,-122 1785.8049,-86 1976.1951,-86 1976.1951,-122"/>
<text text-anchor="middle" x="1881" y="-99.8" font-family="Times,serif" font-size="14.00" fill="#000000">ConnectionsCancelComponent</text>
</g>
<!-- ConnectionsCancelComponent&#45;&gt;ConnectionsModule -->
<g id="edge5" class="edge">
<title>ConnectionsCancelComponent&#45;&gt;ConnectionsModule</title>
<path fill="none" stroke="#000000" d="M1881,-122.027C1881,-138.3976 1881,-160 1881,-160 1881,-160 1515.9235,-160 1515.9235,-160"/>
<polygon fill="#000000" stroke="#000000" points="1515.9236,-156.5001 1505.9235,-160 1515.9235,-163.5001 1515.9236,-156.5001"/>
</g>
<!-- ConnectionsListPage -->
<g id="node6" class="node">
<title>ConnectionsListPage</title>
<polygon fill="#ffffb3" stroke="#000000" points="1767.4818,-122 1632.5182,-122 1632.5182,-86 1767.4818,-86 1767.4818,-122"/>
<text text-anchor="middle" x="1700" y="-99.8" font-family="Times,serif" font-size="14.00" fill="#000000">ConnectionsListPage</text>
</g>
<!-- ConnectionsListPage&#45;&gt;ConnectionsModule -->
<g id="edge6" class="edge">
<title>ConnectionsListPage&#45;&gt;ConnectionsModule</title>
<path fill="none" stroke="#000000" d="M1689.9052,-122.1871C1689.9052,-137.1824 1689.9052,-156 1689.9052,-156 1689.9052,-156 1515.7471,-156 1515.7471,-156"/>
<polygon fill="#000000" stroke="#000000" points="1515.7472,-152.5001 1505.7471,-156 1515.7471,-159.5001 1515.7472,-152.5001"/>
</g>
<!-- ConnectionsListComponent -->
<g id="node7" class="node">
<title>ConnectionsListComponent</title>
<polygon fill="#ffffb3" stroke="#000000" points="1614.6024,-122 1441.3976,-122 1441.3976,-86 1614.6024,-86 1614.6024,-122"/>
<text text-anchor="middle" x="1528" y="-99.8" font-family="Times,serif" font-size="14.00" fill="#000000">ConnectionsListComponent</text>
</g>
<!-- ConnectionsListComponent&#45;&gt;ConnectionsModule -->
<g id="edge7" class="edge">
<title>ConnectionsListComponent&#45;&gt;ConnectionsModule</title>
<path fill="none" stroke="#000000" d="M1473.6098,-122.1061C1473.6098,-122.1061 1473.6098,-140.991 1473.6098,-140.991"/>
<polygon fill="#000000" stroke="#000000" points="1470.1098,-140.9909 1473.6098,-150.991 1477.1098,-140.991 1470.1098,-140.9909"/>
</g>
<!-- ConnectionViewPage -->
<g id="node8" class="node">
<title>ConnectionViewPage</title>
<polygon fill="#ffffb3" stroke="#000000" points="1423.0772,-122 1284.9228,-122 1284.9228,-86 1423.0772,-86 1423.0772,-122"/>
<text text-anchor="middle" x="1354" y="-99.8" font-family="Times,serif" font-size="14.00" fill="#000000">ConnectionViewPage</text>
</g>
<!-- ConnectionViewPage&#45;&gt;ConnectionsModule -->
<g id="edge8" class="edge">
<title>ConnectionViewPage&#45;&gt;ConnectionsModule</title>
<path fill="none" stroke="#000000" d="M1399.634,-122.1061C1399.634,-122.1061 1399.634,-140.991 1399.634,-140.991"/>
<polygon fill="#000000" stroke="#000000" points="1396.134,-140.9909 1399.634,-150.991 1403.134,-140.991 1396.134,-140.9909"/>
</g>
<!-- ConnectionViewWrapperComponent -->
<g id="node9" class="node">
<title>ConnectionViewWrapperComponent</title>
<polygon fill="#ffffb3" stroke="#000000" points="1266.6629,-122 1041.3371,-122 1041.3371,-86 1266.6629,-86 1266.6629,-122"/>
<text text-anchor="middle" x="1154" y="-99.8" font-family="Times,serif" font-size="14.00" fill="#000000">ConnectionViewWrapperComponent</text>
</g>
<!-- ConnectionViewWrapperComponent&#45;&gt;ConnectionsModule -->
<g id="edge9" class="edge">
<title>ConnectionViewWrapperComponent&#45;&gt;ConnectionsModule</title>
<path fill="none" stroke="#000000" d="M1198.8663,-122.1871C1198.8663,-137.1824 1198.8663,-156 1198.8663,-156 1198.8663,-156 1366.4307,-156 1366.4307,-156"/>
<polygon fill="#000000" stroke="#000000" points="1366.4307,-159.5001 1376.4307,-156 1366.4306,-152.5001 1366.4307,-159.5001"/>
</g>
<!-- ConnectionViewToolbarComponent -->
<g id="node10" class="node">
<title>ConnectionViewToolbarComponent</title>
<polygon fill="#ffffb3" stroke="#000000" points="1023.0167,-122 802.9833,-122 802.9833,-86 1023.0167,-86 1023.0167,-122"/>
<text text-anchor="middle" x="913" y="-99.8" font-family="Times,serif" font-size="14.00" fill="#000000">ConnectionViewToolbarComponent</text>
</g>
<!-- ConnectionViewToolbarComponent&#45;&gt;ConnectionsModule -->
<g id="edge10" class="edge">
<title>ConnectionViewToolbarComponent&#45;&gt;ConnectionsModule</title>
<path fill="none" stroke="#000000" d="M913,-122.027C913,-138.3976 913,-160 913,-160 913,-160 1366.2568,-160 1366.2568,-160"/>
<polygon fill="#000000" stroke="#000000" points="1366.2569,-163.5001 1376.2568,-160 1366.2568,-156.5001 1366.2569,-163.5001"/>
</g>
<!-- ConnectionViewComponent -->
<g id="node11" class="node">
<title>ConnectionViewComponent</title>
<polygon fill="#ffffb3" stroke="#000000" points="785.1979,-122 608.8021,-122 608.8021,-86 785.1979,-86 785.1979,-122"/>
<text text-anchor="middle" x="697" y="-99.8" font-family="Times,serif" font-size="14.00" fill="#000000">ConnectionViewComponent</text>
</g>
<!-- ConnectionViewComponent&#45;&gt;ConnectionsModule -->
<g id="edge11" class="edge">
<title>ConnectionViewComponent&#45;&gt;ConnectionsModule</title>
<path fill="none" stroke="#000000" d="M697,-122.302C697,-140.2699 697,-165 697,-165 697,-165 1366.2764,-165 1366.2764,-165"/>
<polygon fill="#000000" stroke="#000000" points="1366.2764,-168.5001 1376.2764,-165 1366.2764,-161.5001 1366.2764,-168.5001"/>
</g>
<!-- ConnectionsListComponent  -->
<g id="node15" class="node">
<title>ConnectionsListComponent </title>
<polygon fill="#fb8072" stroke="#000000" points="1747.1028,-252 1570.8972,-252 1570.8972,-216 1747.1028,-216 1747.1028,-252"/>
<text text-anchor="middle" x="1659" y="-229.8" font-family="Times,serif" font-size="14.00" fill="#000000">ConnectionsListComponent </text>
</g>
<!-- ConnectionsModule&#45;&gt;ConnectionsListComponent  -->
<g id="edge14" class="edge">
<title>ConnectionsModule&#45;&gt;ConnectionsListComponent </title>
<path fill="none" stroke="#000000" stroke-dasharray="5,2" d="M1505.7425,-183C1546.9537,-183 1592.625,-183 1592.625,-183 1592.625,-183 1592.625,-205.8757 1592.625,-205.8757"/>
<polygon fill="#000000" stroke="#000000" points="1589.1251,-205.8757 1592.625,-215.8757 1596.1251,-205.8757 1589.1251,-205.8757"/>
</g>
<!-- ConnectionViewToolbarComponent  -->
<g id="node16" class="node">
<title>ConnectionViewToolbarComponent </title>
<polygon fill="#fb8072" stroke="#000000" points="1553.0162,-252 1328.9838,-252 1328.9838,-216 1553.0162,-216 1553.0162,-252"/>
<text text-anchor="middle" x="1441" y="-229.8" font-family="Times,serif" font-size="14.00" fill="#000000">ConnectionViewToolbarComponent </text>
</g>
<!-- ConnectionsModule&#45;&gt;ConnectionViewToolbarComponent  -->
<g id="edge15" class="edge">
<title>ConnectionsModule&#45;&gt;ConnectionViewToolbarComponent </title>
<path fill="none" stroke="#000000" stroke-dasharray="5,2" d="M1441,-187.1061C1441,-187.1061 1441,-205.991 1441,-205.991"/>
<polygon fill="#000000" stroke="#000000" points="1437.5001,-205.9909 1441,-215.991 1444.5001,-205.991 1437.5001,-205.9909"/>
</g>
<!-- ConnectionViewComponent  -->
<g id="node17" class="node">
<title>ConnectionViewComponent </title>
<polygon fill="#fb8072" stroke="#000000" points="1310.6981,-252 1131.3019,-252 1131.3019,-216 1310.6981,-216 1310.6981,-252"/>
<text text-anchor="middle" x="1221" y="-229.8" font-family="Times,serif" font-size="14.00" fill="#000000">ConnectionViewComponent </text>
</g>
<!-- ConnectionsModule&#45;&gt;ConnectionViewComponent  -->
<g id="edge16" class="edge">
<title>ConnectionsModule&#45;&gt;ConnectionViewComponent </title>
<path fill="none" stroke="#000000" stroke-dasharray="5,2" d="M1376.1514,-183C1338.2903,-183 1297.9052,-183 1297.9052,-183 1297.9052,-183 1297.9052,-205.8757 1297.9052,-205.8757"/>
<polygon fill="#000000" stroke="#000000" points="1294.4052,-205.8757 1297.9052,-215.8757 1301.4052,-205.8757 1294.4052,-205.8757"/>
</g>
<!-- PatternflyUIModule -->
<g id="node13" class="node">
<title>PatternflyUIModule</title>
<polygon fill="#8dd3c7" stroke="#000000" points="584.5227,-122 581.5227,-126 560.5227,-126 557.5227,-122 455.4773,-122 455.4773,-86 584.5227,-86 584.5227,-122"/>
<text text-anchor="middle" x="520" y="-99.8" font-family="Times,serif" font-size="14.00" fill="#000000">PatternflyUIModule</text>
</g>
<!-- PatternflyUIModule&#45;&gt;ConnectionsModule -->
<g id="edge12" class="edge">
<title>PatternflyUIModule&#45;&gt;ConnectionsModule</title>
<path fill="none" stroke="#000000" d="M520,-122.1061C520,-141.3391 520,-169 520,-169 520,-169 1366.2371,-169 1366.2371,-169"/>
<polygon fill="#000000" stroke="#000000" points="1366.2371,-172.5001 1376.2371,-169 1366.237,-165.5001 1366.2371,-172.5001"/>
</g>
<!-- SyndesisCommonModule -->
<g id="node14" class="node">
<title>SyndesisCommonModule</title>
<polygon fill="#8dd3c7" stroke="#000000" points="437.9452,-122 434.9452,-126 413.9452,-126 410.9452,-122 276.0548,-122 276.0548,-86 437.9452,-86 437.9452,-122"/>
<text text-anchor="middle" x="357" y="-99.8" font-family="Times,serif" font-size="14.00" fill="#000000">SyndesisCommonModule</text>
</g>
<!-- SyndesisCommonModule&#45;&gt;ConnectionsModule -->
<g id="edge13" class="edge">
<title>SyndesisCommonModule&#45;&gt;ConnectionsModule</title>
<path fill="none" stroke="#000000" d="M357,-122.0267C357,-142.7672 357,-174 357,-174 357,-174 1366.4372,-174 1366.4372,-174"/>
<polygon fill="#000000" stroke="#000000" points="1366.4372,-177.5001 1376.4372,-174 1366.4371,-170.5001 1366.4372,-177.5001"/>
</g>
<!-- CurrentConnectionService -->
<g id="node18" class="node">
<title>CurrentConnectionService</title>
<ellipse fill="#fdb462" stroke="#000000" cx="138" cy="-104" rx="114.0247" ry="18"/>
<text text-anchor="middle" x="138" y="-99.8" font-family="Times,serif" font-size="14.00" fill="#000000">CurrentConnectionService</text>
</g>
<!-- CurrentConnectionService&#45;&gt;ConnectionsModule -->
<g id="edge17" class="edge">
<title>CurrentConnectionService&#45;&gt;ConnectionsModule</title>
<path fill="none" stroke="#000000" d="M138,-122.2921C138,-144.2057 138,-178 138,-178 138,-178 1366.384,-178 1366.384,-178"/>
<polygon fill="#000000" stroke="#000000" points="1366.3841,-181.5001 1376.384,-178 1366.384,-174.5001 1366.3841,-181.5001"/>
</g>
</g>
</svg>
