<?xml version="1.0" encoding="UTF-8" standalone="no"?>
<!DOCTYPE svg PUBLIC "-//W3C//DTD SVG 1.1//EN"
 "http://www.w3.org/Graphics/SVG/1.1/DTD/svg11.dtd">
<!-- Generated by graphviz version 2.40.1 (20161225.0304)
 -->
<!-- Title: dependencies Pages: 1 -->
<svg width="4153pt" height="211pt"
 viewBox="0.00 0.00 4153.00 211.00" xmlns="http://www.w3.org/2000/svg" xmlns:xlink="http://www.w3.org/1999/xlink">
<g id="graph0" class="graph" transform="scale(1 1) rotate(0) translate(4 207)">
<title>dependencies</title>
<polygon fill="#ffffff" stroke="transparent" points="-4,4 -4,-207 4149,-207 4149,4 -4,4"/>
<text text-anchor="start" x="2051.5091" y="-42.4" font-family="sans-serif" font-weight="bold" font-size="14.00" fill="#000000">Legend</text>
<polygon fill="#ffffb3" stroke="transparent" points="1838.5,-10 1838.5,-30 1858.5,-30 1858.5,-10 1838.5,-10"/>
<text text-anchor="start" x="1862.129" y="-15.4" font-family="sans-serif" font-size="14.00" fill="#000000"> &#160;Declarations</text>
<polygon fill="#8dd3c7" stroke="transparent" points="1951.5,-10 1951.5,-30 1971.5,-30 1971.5,-10 1951.5,-10"/>
<text text-anchor="start" x="1975.2251" y="-15.4" font-family="sans-serif" font-size="14.00" fill="#000000"> &#160;Module</text>
<polygon fill="#80b1d3" stroke="transparent" points="2037.5,-10 2037.5,-30 2057.5,-30 2057.5,-10 2037.5,-10"/>
<text text-anchor="start" x="2061.2812" y="-15.4" font-family="sans-serif" font-size="14.00" fill="#000000"> &#160;Bootstrap</text>
<polygon fill="#fdb462" stroke="transparent" points="2134.5,-10 2134.5,-30 2154.5,-30 2154.5,-10 2134.5,-10"/>
<text text-anchor="start" x="2158.1732" y="-15.4" font-family="sans-serif" font-size="14.00" fill="#000000"> &#160;Providers</text>
<polygon fill="#fb8072" stroke="transparent" points="2230.5,-10 2230.5,-30 2250.5,-30 2250.5,-10 2230.5,-10"/>
<text text-anchor="start" x="2254.2258" y="-15.4" font-family="sans-serif" font-size="14.00" fill="#000000"> &#160;Exports</text>
<g id="clust1" class="cluster">
<title>cluster_IntegrationsModule</title>
<polygon fill="none" stroke="#000000" stroke-dasharray="1,5" points="8,-70 8,-195 4137,-195 4137,-70 8,-70"/>
</g>
<g id="clust2" class="cluster">
<title>cluster_IntegrationsModule_declarations</title>
<polygon fill="none" stroke="#000000" points="807,-78 807,-130 4129,-130 4129,-78 807,-78"/>
</g>
<g id="clust20" class="cluster">
<title>cluster_IntegrationsModule_imports</title>
<polygon fill="none" stroke="#000000" points="160,-78 160,-130 799,-130 799,-78 160,-78"/>
</g>
<g id="clust23" class="cluster">
<title>cluster_IntegrationsModule_providers</title>
<polygon fill="none" stroke="#000000" points="16,-78 16,-130 152,-130 152,-78 16,-78"/>
</g>
<!-- DataMapperHostComponent -->
<g id="node1" class="node">
<title>DataMapperHostComponent</title>
<polygon fill="#ffffb3" stroke="#000000" points="4120.7352,-122 3943.2648,-122 3943.2648,-86 4120.7352,-86 4120.7352,-122"/>
<text text-anchor="middle" x="4032" y="-99.8" font-family="Times,serif" font-size="14.00" fill="#000000">DataMapperHostComponent</text>
</g>
<!-- IntegrationsModule -->
<g id="node18" class="node">
<title>IntegrationsModule</title>
<polygon fill="#8dd3c7" stroke="#000000" points="2099.4173,-187 2096.4173,-191 2075.4173,-191 2072.4173,-187 1972.5827,-187 1972.5827,-151 2099.4173,-151 2099.4173,-187"/>
<text text-anchor="middle" x="2036" y="-164.8" font-family="Times,serif" font-size="14.00" fill="#000000">IntegrationsModule</text>
</g>
<!-- DataMapperHostComponent&#45;&gt;IntegrationsModule -->
<g id="edge1" class="edge">
<title>DataMapperHostComponent&#45;&gt;IntegrationsModule</title>
<path fill="none" stroke="#000000" d="M4032,-122.1532C4032,-145.7566 4032,-184 4032,-184 4032,-184 2109.3113,-184 2109.3113,-184"/>
<polygon fill="#000000" stroke="#000000" points="2109.3114,-180.5001 2099.3113,-184 2109.3113,-187.5001 2109.3114,-180.5001"/>
</g>
<!-- BasicFilterComponent -->
<g id="node2" class="node">
<title>BasicFilterComponent</title>
<polygon fill="#ffffb3" stroke="#000000" points="3925.2632,-122 3782.7368,-122 3782.7368,-86 3925.2632,-86 3925.2632,-122"/>
<text text-anchor="middle" x="3854" y="-99.8" font-family="Times,serif" font-size="14.00" fill="#000000">BasicFilterComponent</text>
</g>
<!-- BasicFilterComponent&#45;&gt;IntegrationsModule -->
<g id="edge2" class="edge">
<title>BasicFilterComponent&#45;&gt;IntegrationsModule</title>
<path fill="none" stroke="#000000" d="M3854,-122.0908C3854,-145.1328 3854,-182 3854,-182 3854,-182 2109.3724,-182 2109.3724,-182"/>
<polygon fill="#000000" stroke="#000000" points="2109.3724,-178.5001 2099.3724,-182 2109.3723,-185.5001 2109.3724,-178.5001"/>
</g>
<!-- IntegrationsConfigureActionComponent -->
<g id="node3" class="node">
<title>IntegrationsConfigureActionComponent</title>
<polygon fill="#ffffb3" stroke="#000000" points="3764.5646,-122 3521.4354,-122 3521.4354,-86 3764.5646,-86 3764.5646,-122"/>
<text text-anchor="middle" x="3643" y="-99.8" font-family="Times,serif" font-size="14.00" fill="#000000">IntegrationsConfigureActionComponent</text>
</g>
<!-- IntegrationsConfigureActionComponent&#45;&gt;IntegrationsModule -->
<g id="edge3" class="edge">
<title>IntegrationsConfigureActionComponent&#45;&gt;IntegrationsModule</title>
<path fill="none" stroke="#000000" d="M3643,-122.2921C3643,-144.2057 3643,-178 3643,-178 3643,-178 2109.4913,-178 2109.4913,-178"/>
<polygon fill="#000000" stroke="#000000" points="2109.4913,-174.5001 2099.4913,-178 2109.4912,-181.5001 2109.4913,-174.5001"/>
</g>
<!-- IntegrationsEditPage -->
<g id="node4" class="node">
<title>IntegrationsEditPage</title>
<polygon fill="#ffffb3" stroke="#000000" points="3503.913,-122 3370.087,-122 3370.087,-86 3503.913,-86 3503.913,-122"/>
<text text-anchor="middle" x="3437" y="-99.8" font-family="Times,serif" font-size="14.00" fill="#000000">IntegrationsEditPage</text>
</g>
<!-- IntegrationsEditPage&#45;&gt;IntegrationsModule -->
<g id="edge4" class="edge">
<title>IntegrationsEditPage&#45;&gt;IntegrationsModule</title>
<path fill="none" stroke="#000000" d="M3437,-122.2843C3437,-143.3211 3437,-175 3437,-175 3437,-175 2109.3784,-175 2109.3784,-175"/>
<polygon fill="#000000" stroke="#000000" points="2109.3785,-171.5001 2099.3784,-175 2109.3784,-178.5001 2109.3785,-171.5001"/>
</g>
<!-- IntegrationBasicsComponent -->
<g id="node5" class="node">
<title>IntegrationBasicsComponent</title>
<polygon fill="#ffffb3" stroke="#000000" points="3352.8005,-122 3173.1995,-122 3173.1995,-86 3352.8005,-86 3352.8005,-122"/>
<text text-anchor="middle" x="3263" y="-99.8" font-family="Times,serif" font-size="14.00" fill="#000000">IntegrationBasicsComponent</text>
</g>
<!-- IntegrationBasicsComponent&#45;&gt;IntegrationsModule -->
<g id="edge5" class="edge">
<title>IntegrationBasicsComponent&#45;&gt;IntegrationsModule</title>
<path fill="none" stroke="#000000" d="M3263,-122.2228C3263,-142.3652 3263,-172 3263,-172 3263,-172 2109.3851,-172 2109.3851,-172"/>
<polygon fill="#000000" stroke="#000000" points="2109.3851,-168.5001 2099.3851,-172 2109.3851,-175.5001 2109.3851,-168.5001"/>
</g>
<!-- IntegrationsFilterPipe -->
<g id="node6" class="node">
<title>IntegrationsFilterPipe</title>
<polygon fill="#ffffb3" stroke="#000000" points="3155.0842,-122 3016.9158,-122 3016.9158,-86 3155.0842,-86 3155.0842,-122"/>
<text text-anchor="middle" x="3086" y="-99.8" font-family="Times,serif" font-size="14.00" fill="#000000">IntegrationsFilterPipe</text>
</g>
<!-- IntegrationsFilterPipe&#45;&gt;IntegrationsModule -->
<g id="edge6" class="edge">
<title>IntegrationsFilterPipe&#45;&gt;IntegrationsModule</title>
<path fill="none" stroke="#000000" d="M3086,-122.1061C3086,-141.3391 3086,-169 3086,-169 3086,-169 2109.3176,-169 2109.3176,-169"/>
<polygon fill="#000000" stroke="#000000" points="2109.3176,-165.5001 2099.3176,-169 2109.3176,-172.5001 2109.3176,-165.5001"/>
</g>
<!-- IntegrationsSelectConnectionComponent -->
<g id="node7" class="node">
<title>IntegrationsSelectConnectionComponent</title>
<polygon fill="#ffffb3" stroke="#000000" points="2998.4538,-122 2751.5462,-122 2751.5462,-86 2998.4538,-86 2998.4538,-122"/>
<text text-anchor="middle" x="2875" y="-99.8" font-family="Times,serif" font-size="14.00" fill="#000000">IntegrationsSelectConnectionComponent</text>
</g>
<!-- IntegrationsSelectConnectionComponent&#45;&gt;IntegrationsModule -->
<g id="edge7" class="edge">
<title>IntegrationsSelectConnectionComponent&#45;&gt;IntegrationsModule</title>
<path fill="none" stroke="#000000" d="M2833.841,-122.0225C2833.841,-139.3734 2833.841,-163 2833.841,-163 2833.841,-163 2109.2721,-163 2109.2721,-163"/>
<polygon fill="#000000" stroke="#000000" points="2109.2722,-159.5001 2099.2721,-163 2109.2721,-166.5001 2109.2722,-159.5001"/>
</g>
<!-- IntegrationsSelectConnectionComponent&#45;&gt;IntegrationsModule -->
<g id="edge14" class="edge">
<title>IntegrationsSelectConnectionComponent&#45;&gt;IntegrationsModule</title>
<path fill="none" stroke="#000000" d="M2916.159,-122.2222C2916.159,-140.8285 2916.159,-167 2916.159,-167 2916.159,-167 2109.2989,-167 2109.2989,-167"/>
<polygon fill="#000000" stroke="#000000" points="2109.2989,-163.5001 2099.2989,-167 2109.2988,-170.5001 2109.2989,-163.5001"/>
</g>
<!-- IntegrationsSaveOrAddStepComponent -->
<g id="node8" class="node">
<title>IntegrationsSaveOrAddStepComponent</title>
<polygon fill="#ffffb3" stroke="#000000" points="2733.6727,-122 2494.3273,-122 2494.3273,-86 2733.6727,-86 2733.6727,-122"/>
<text text-anchor="middle" x="2614" y="-99.8" font-family="Times,serif" font-size="14.00" fill="#000000">IntegrationsSaveOrAddStepComponent</text>
</g>
<!-- IntegrationsSaveOrAddStepComponent&#45;&gt;IntegrationsModule -->
<g id="edge8" class="edge">
<title>IntegrationsSaveOrAddStepComponent&#45;&gt;IntegrationsModule</title>
<path fill="none" stroke="#000000" d="M2574.1379,-122.2396C2574.1379,-137.5706 2574.1379,-157 2574.1379,-157 2574.1379,-157 2109.3137,-157 2109.3137,-157"/>
<polygon fill="#000000" stroke="#000000" points="2109.3137,-153.5001 2099.3137,-157 2109.3137,-160.5001 2109.3137,-153.5001"/>
</g>
<!-- IntegrationsSaveOrAddStepComponent&#45;&gt;IntegrationsModule -->
<g id="edge12" class="edge">
<title>IntegrationsSaveOrAddStepComponent&#45;&gt;IntegrationsModule</title>
<path fill="none" stroke="#000000" d="M2653.8621,-122.027C2653.8621,-138.3976 2653.8621,-160 2653.8621,-160 2653.8621,-160 2109.2185,-160 2109.2185,-160"/>
<polygon fill="#000000" stroke="#000000" points="2109.2185,-156.5001 2099.2185,-160 2109.2184,-163.5001 2109.2185,-156.5001"/>
</g>
<!-- IntegrationsStepSelectComponent -->
<g id="node9" class="node">
<title>IntegrationsStepSelectComponent</title>
<polygon fill="#ffffb3" stroke="#000000" points="2476.7948,-122 2269.2052,-122 2269.2052,-86 2476.7948,-86 2476.7948,-122"/>
<text text-anchor="middle" x="2373" y="-99.8" font-family="Times,serif" font-size="14.00" fill="#000000">IntegrationsStepSelectComponent</text>
</g>
<!-- IntegrationsStepSelectComponent&#45;&gt;IntegrationsModule -->
<g id="edge9" class="edge">
<title>IntegrationsStepSelectComponent&#45;&gt;IntegrationsModule</title>
<path fill="none" stroke="#000000" d="M2373,-122.0511C2373,-136.373 2373,-154 2373,-154 2373,-154 2109.3871,-154 2109.3871,-154"/>
<polygon fill="#000000" stroke="#000000" points="2109.3872,-150.5001 2099.3871,-154 2109.3871,-157.5001 2109.3872,-150.5001"/>
</g>
<!-- IntegrationsStepConfigureComponent -->
<g id="node10" class="node">
<title>IntegrationsStepConfigureComponent</title>
<polygon fill="#ffffb3" stroke="#000000" points="2250.85,-122 2021.15,-122 2021.15,-86 2250.85,-86 2250.85,-122"/>
<text text-anchor="middle" x="2136" y="-99.8" font-family="Times,serif" font-size="14.00" fill="#000000">IntegrationsStepConfigureComponent</text>
</g>
<!-- IntegrationsStepConfigureComponent&#45;&gt;IntegrationsModule -->
<g id="edge10" class="edge">
<title>IntegrationsStepConfigureComponent&#45;&gt;IntegrationsModule</title>
<path fill="none" stroke="#000000" d="M2060.1417,-122.1061C2060.1417,-122.1061 2060.1417,-140.991 2060.1417,-140.991"/>
<polygon fill="#000000" stroke="#000000" points="2056.6417,-140.9909 2060.1417,-150.991 2063.6417,-140.991 2056.6417,-140.9909"/>
</g>
<!-- IntegrationsListPage -->
<g id="node11" class="node">
<title>IntegrationsListPage</title>
<polygon fill="#ffffb3" stroke="#000000" points="2002.8571,-122 1871.1429,-122 1871.1429,-86 2002.8571,-86 2002.8571,-122"/>
<text text-anchor="middle" x="1937" y="-99.8" font-family="Times,serif" font-size="14.00" fill="#000000">IntegrationsListPage</text>
</g>
<!-- IntegrationsListPage&#45;&gt;IntegrationsModule -->
<g id="edge11" class="edge">
<title>IntegrationsListPage&#45;&gt;IntegrationsModule</title>
<path fill="none" stroke="#000000" d="M1987.8601,-122.1061C1987.8601,-122.1061 1987.8601,-140.991 1987.8601,-140.991"/>
<polygon fill="#000000" stroke="#000000" points="1984.3602,-140.9909 1987.8601,-150.991 1991.3602,-140.991 1984.3602,-140.9909"/>
</g>
<!-- IntegrationsSelectActionComponent -->
<g id="node12" class="node">
<title>IntegrationsSelectActionComponent</title>
<polygon fill="#ffffb3" stroke="#000000" points="1853.0097,-122 1632.9903,-122 1632.9903,-86 1853.0097,-86 1853.0097,-122"/>
<text text-anchor="middle" x="1743" y="-99.8" font-family="Times,serif" font-size="14.00" fill="#000000">IntegrationsSelectActionComponent</text>
</g>
<!-- IntegrationsSelectActionComponent&#45;&gt;IntegrationsModule -->
<g id="edge13" class="edge">
<title>IntegrationsSelectActionComponent&#45;&gt;IntegrationsModule</title>
<path fill="none" stroke="#000000" d="M1743,-122.0511C1743,-136.373 1743,-154 1743,-154 1743,-154 1962.7841,-154 1962.7841,-154"/>
<polygon fill="#000000" stroke="#000000" points="1962.7841,-157.5001 1972.7841,-154 1962.7841,-150.5001 1962.7841,-157.5001"/>
</g>
<!-- FlowViewComponent -->
<g id="node13" class="node">
<title>FlowViewComponent</title>
<polygon fill="#ffffb3" stroke="#000000" points="1615.4313,-122 1474.5687,-122 1474.5687,-86 1615.4313,-86 1615.4313,-122"/>
<text text-anchor="middle" x="1545" y="-99.8" font-family="Times,serif" font-size="14.00" fill="#000000">FlowViewComponent</text>
</g>
<!-- FlowViewComponent&#45;&gt;IntegrationsModule -->
<g id="edge15" class="edge">
<title>FlowViewComponent&#45;&gt;IntegrationsModule</title>
<path fill="none" stroke="#000000" d="M1545,-122.2396C1545,-137.5706 1545,-157 1545,-157 1545,-157 1962.5648,-157 1962.5648,-157"/>
<polygon fill="#000000" stroke="#000000" points="1962.5648,-160.5001 1972.5648,-157 1962.5648,-153.5001 1962.5648,-160.5001"/>
</g>
<!-- FlowViewStepComponent -->
<g id="node14" class="node">
<title>FlowViewStepComponent</title>
<polygon fill="#ffffb3" stroke="#000000" points="1456.8187,-122 1291.1813,-122 1291.1813,-86 1456.8187,-86 1456.8187,-122"/>
<text text-anchor="middle" x="1374" y="-99.8" font-family="Times,serif" font-size="14.00" fill="#000000">FlowViewStepComponent</text>
</g>
<!-- FlowViewStepComponent&#45;&gt;IntegrationsModule -->
<g id="edge16" class="edge">
<title>FlowViewStepComponent&#45;&gt;IntegrationsModule</title>
<path fill="none" stroke="#000000" d="M1374,-122.027C1374,-138.3976 1374,-160 1374,-160 1374,-160 1962.5247,-160 1962.5247,-160"/>
<polygon fill="#000000" stroke="#000000" points="1962.5247,-163.5001 1972.5247,-160 1962.5246,-156.5001 1962.5247,-163.5001"/>
</g>
<!-- ListActionsComponent -->
<g id="node15" class="node">
<title>ListActionsComponent</title>
<polygon fill="#ffffb3" stroke="#000000" points="1273.1582,-122 1126.8418,-122 1126.8418,-86 1273.1582,-86 1273.1582,-122"/>
<text text-anchor="middle" x="1200" y="-99.8" font-family="Times,serif" font-size="14.00" fill="#000000">ListActionsComponent</text>
</g>
<!-- ListActionsComponent&#45;&gt;IntegrationsModule -->
<g id="edge17" class="edge">
<title>ListActionsComponent&#45;&gt;IntegrationsModule</title>
<path fill="none" stroke="#000000" d="M1200,-122.0225C1200,-139.3734 1200,-163 1200,-163 1200,-163 1962.478,-163 1962.478,-163"/>
<polygon fill="#000000" stroke="#000000" points="1962.478,-166.5001 1972.478,-163 1962.4779,-159.5001 1962.478,-166.5001"/>
</g>
<!-- StepVisiblePipe -->
<g id="node16" class="node">
<title>StepVisiblePipe</title>
<polygon fill="#ffffb3" stroke="#000000" points="1109.2134,-122 1002.7866,-122 1002.7866,-86 1109.2134,-86 1109.2134,-122"/>
<text text-anchor="middle" x="1056" y="-99.8" font-family="Times,serif" font-size="14.00" fill="#000000">StepVisiblePipe</text>
</g>
<!-- StepVisiblePipe&#45;&gt;IntegrationsModule -->
<g id="edge18" class="edge">
<title>StepVisiblePipe&#45;&gt;IntegrationsModule</title>
<path fill="none" stroke="#000000" d="M1056,-122.2222C1056,-140.8285 1056,-167 1056,-167 1056,-167 1962.4546,-167 1962.4546,-167"/>
<polygon fill="#000000" stroke="#000000" points="1962.4546,-170.5001 1972.4546,-167 1962.4545,-163.5001 1962.4546,-170.5001"/>
</g>
<!-- CancelAddStepComponent -->
<g id="node17" class="node">
<title>CancelAddStepComponent</title>
<polygon fill="#ffffb3" stroke="#000000" points="984.6979,-122 815.3021,-122 815.3021,-86 984.6979,-86 984.6979,-122"/>
<text text-anchor="middle" x="900" y="-99.8" font-family="Times,serif" font-size="14.00" fill="#000000">CancelAddStepComponent</text>
</g>
<!-- CancelAddStepComponent&#45;&gt;IntegrationsModule -->
<g id="edge19" class="edge">
<title>CancelAddStepComponent&#45;&gt;IntegrationsModule</title>
<path fill="none" stroke="#000000" d="M900,-122.1061C900,-141.3391 900,-169 900,-169 900,-169 1962.4895,-169 1962.4895,-169"/>
<polygon fill="#000000" stroke="#000000" points="1962.4896,-172.5001 1972.4895,-169 1962.4895,-165.5001 1962.4896,-172.5001"/>
</g>
<!-- IntegrationsListModule -->
<g id="node19" class="node">
<title>IntegrationsListModule</title>
<polygon fill="#8dd3c7" stroke="#000000" points="791.1951,-122 788.1951,-126 767.1951,-126 764.1951,-122 642.8049,-122 642.8049,-86 791.1951,-86 791.1951,-122"/>
<text text-anchor="middle" x="717" y="-99.8" font-family="Times,serif" font-size="14.00" fill="#000000">IntegrationsListModule</text>
</g>
<!-- IntegrationsListModule&#45;&gt;IntegrationsModule -->
<g id="edge20" class="edge">
<title>IntegrationsListModule&#45;&gt;IntegrationsModule</title>
<path fill="none" stroke="#000000" d="M717,-122.2228C717,-142.3652 717,-172 717,-172 717,-172 1962.3819,-172 1962.3819,-172"/>
<polygon fill="#000000" stroke="#000000" points="1962.3819,-175.5001 1972.3819,-172 1962.3819,-168.5001 1962.3819,-175.5001"/>
</g>
<!-- PatternflyUIModule -->
<g id="node20" class="node">
<title>PatternflyUIModule</title>
<polygon fill="#8dd3c7" stroke="#000000" points="624.5227,-122 621.5227,-126 600.5227,-126 597.5227,-122 495.4773,-122 495.4773,-86 624.5227,-86 624.5227,-122"/>
<text text-anchor="middle" x="560" y="-99.8" font-family="Times,serif" font-size="14.00" fill="#000000">PatternflyUIModule</text>
</g>
<!-- PatternflyUIModule&#45;&gt;IntegrationsModule -->
<g id="edge21" class="edge">
<title>PatternflyUIModule&#45;&gt;IntegrationsModule</title>
<path fill="none" stroke="#000000" d="M560,-122.2843C560,-143.3211 560,-175 560,-175 560,-175 1962.5781,-175 1962.5781,-175"/>
<polygon fill="#000000" stroke="#000000" points="1962.5782,-178.5001 1972.5781,-175 1962.5781,-171.5001 1962.5782,-178.5001"/>
</g>
<!-- ConnectionsModule -->
<g id="node21" class="node">
<title>ConnectionsModule</title>
<polygon fill="#8dd3c7" stroke="#000000" points="476.5422,-122 473.5422,-126 452.5422,-126 449.5422,-122 347.4578,-122 347.4578,-86 476.5422,-86 476.5422,-122"/>
<text text-anchor="middle" x="412" y="-99.8" font-family="Times,serif" font-size="14.00" fill="#000000">ConnectionsModule</text>
</g>
<!-- ConnectionsModule&#45;&gt;IntegrationsModule -->
<g id="edge22" class="edge">
<title>ConnectionsModule&#45;&gt;IntegrationsModule</title>
<path fill="none" stroke="#000000" d="M412,-122.2921C412,-144.2057 412,-178 412,-178 412,-178 1962.3373,-178 1962.3373,-178"/>
<polygon fill="#000000" stroke="#000000" points="1962.3373,-181.5001 1972.3373,-178 1962.3372,-174.5001 1962.3373,-181.5001"/>
</g>
<!-- SyndesisCommonModule -->
<g id="node22" class="node">
<title>SyndesisCommonModule</title>
<polygon fill="#8dd3c7" stroke="#000000" points="329.9452,-122 326.9452,-126 305.9452,-126 302.9452,-122 168.0548,-122 168.0548,-86 329.9452,-86 329.9452,-122"/>
<text text-anchor="middle" x="249" y="-99.8" font-family="Times,serif" font-size="14.00" fill="#000000">SyndesisCommonModule</text>
</g>
<!-- SyndesisCommonModule&#45;&gt;IntegrationsModule -->
<g id="edge23" class="edge">
<title>SyndesisCommonModule&#45;&gt;IntegrationsModule</title>
<path fill="none" stroke="#000000" d="M249,-122.0908C249,-145.1328 249,-182 249,-182 249,-182 1962.6624,-182 1962.6624,-182"/>
<polygon fill="#000000" stroke="#000000" points="1962.6625,-185.5001 1972.6624,-182 1962.6624,-178.5001 1962.6625,-185.5001"/>
</g>
<!-- CurrentFlow -->
<g id="node23" class="node">
<title>CurrentFlow</title>
<ellipse fill="#fdb462" stroke="#000000" cx="84" cy="-104" rx="60.2711" ry="18"/>
<text text-anchor="middle" x="84" y="-99.8" font-family="Times,serif" font-size="14.00" fill="#000000">CurrentFlow</text>
</g>
<!-- CurrentFlow&#45;&gt;IntegrationsModule -->
<g id="edge24" class="edge">
<title>CurrentFlow&#45;&gt;IntegrationsModule</title>
<path fill="none" stroke="#000000" d="M84,-122.1532C84,-145.7566 84,-184 84,-184 84,-184 1962.7149,-184 1962.7149,-184"/>
<polygon fill="#000000" stroke="#000000" points="1962.7149,-187.5001 1972.7149,-184 1962.7148,-180.5001 1962.7149,-187.5001"/>
</g>
</g>
</svg>
