<?xml version="1.0" encoding="UTF-8" standalone="no"?>
<svg
   xmlns:dc="http://purl.org/dc/elements/1.1/"
   xmlns:cc="http://creativecommons.org/ns#"
   xmlns:rdf="http://www.w3.org/1999/02/22-rdf-syntax-ns#"
   xmlns:svg="http://www.w3.org/2000/svg"
   xmlns="http://www.w3.org/2000/svg"
   xmlns:sodipodi="http://sodipodi.sourceforge.net/DTD/sodipodi-0.dtd"
   xmlns:inkscape="http://www.inkscape.org/namespaces/inkscape"
   width="114px"
   height="28px"
   viewBox="0 0 114 28"
   version="1.1"
   id="svg15"
   sodipodi:docname="syndesis-logo-svg-white.svg"
   inkscape:version="0.92.1 r15371">
  <metadata
     id="metadata19">
    <rdf:RDF>
      <cc:Work
         rdf:about="">
        <dc:format>image/svg+xml</dc:format>
        <dc:type
           rdf:resource="http://purl.org/dc/dcmitype/StillImage" />
        <dc:title>syndesis</dc:title>
      </cc:Work>
    </rdf:RDF>
  </metadata>
  <sodipodi:namedview
     pagecolor="#ffffff"
     bordercolor="#666666"
     borderopacity="1"
     objecttolerance="10"
     gridtolerance="10"
     guidetolerance="10"
     inkscape:pageopacity="0"
     inkscape:pageshadow="2"
     inkscape:window-width="1920"
     inkscape:window-height="1000"
     id="namedview17"
     showgrid="false"
     inkscape:pagecheckerboard="true"
     inkscape:zoom="3.4385965"
     inkscape:cx="17.303571"
     inkscape:cy="14"
     inkscape:window-x="1609"
     inkscape:window-y="592"
     inkscape:window-maximized="1"
     inkscape:current-layer="svg15" />
  <!-- Generator: Sketch 43.2 (39069) - http://www.bohemiancoding.com/sketch -->
  <title
     id="title2">syndesis</title>
  <desc
     id="desc4">Created with Sketch.</desc>
  <defs
     id="defs6" />
  <g
     id="Syndesis-Logo"
     stroke="none"
     stroke-width="1"
     fill="none"
     fill-rule="evenodd"
     font-size="28"
     font-family="Righteous-Regular, Righteous"
     font-weight="normal">
    <g
       id="Text"
       transform="translate(-187.000000, -119.000000)"
       fill="#FFFFFF">
      <g
         transform="translate(25.000000, 15.000000)"
         id="syndesis">
        <g
           aria-label="syndesis"
           style=""
           id="text10">
          <path
             d="m 171.46094,126 h -8.53125 v -3.71875 h 8.53125 q 0.38281,0 0.65625,-0.27344 0.27343,-0.27343 0.27343,-0.65625 0,-0.39648 -0.27343,-0.51953 -0.27344,-0.12305 -0.65625,-0.12305 h -3.88282 q -0.9707,0 -1.81835,-0.36914 -0.84766,-0.36914 -1.47657,-0.99804 -0.6289,-0.64258 -0.99804,-1.49024 -0.35547,-0.84765 -0.35547,-1.81836 0,-0.9707 0.35547,-1.81836 0.36914,-0.84765 0.99804,-1.47656 0.62891,-0.6289 1.47657,-0.98437 0.84765,-0.36914 1.81835,-0.36914 h 7.56055 v 3.71875 h -7.56055 q -0.38281,0 -0.65625,0.27343 -0.27343,0.27344 -0.27343,0.65625 0,0.39649 0.27343,0.6836 0.27344,0.27343 0.65625,0.27343 h 3.88282 q 0.95703,0 1.80468,0.32813 0.84766,0.31445 1.47657,0.88867 0.6289,0.57422 0.99804,1.38086 0.36914,0.80664 0.36914,1.76367 0,0.97071 -0.36914,1.81836 -0.36914,0.83399 -0.99804,1.47656 -0.62891,0.62891 -1.47657,0.99805 Q 172.41797,126 171.46094,126 Z"
             style=""
             id="path21" />
          <path
             d="m 181.60547,131.57812 v -3.75976 l 2.07812,0.0273 q 0.54688,0 1.05274,-0.17773 0.50586,-0.17774 0.92969,-0.49219 0.4375,-0.31445 0.76562,-0.75195 0.32813,-0.42383 0.5332,-0.92969 -0.61523,0.25977 -1.25781,0.51953 -0.62891,0.25977 -1.27148,0.25977 -1.35352,0 -2.54297,-0.47852 -1.18946,-0.47851 -2.0918,-1.35351 -0.88867,-0.88868 -1.4082,-2.14649 -0.50586,-1.27148 -0.50586,-2.84375 v -8.09375 h 3.71875 v 8.09375 q 0,0.7793 0.21875,1.36719 0.23242,0.57422 0.61523,0.9707 0.38282,0.38282 0.88867,0.57422 0.51954,0.19141 1.10743,0.19141 0.57422,0 1.08007,-0.25977 0.51954,-0.27344 0.90235,-0.71094 0.38281,-0.4375 0.60156,-0.98437 0.21875,-0.56055 0.21875,-1.14844 v -8.09375 h 3.75977 v 12.79688 q -0.0137,1.54492 -0.60157,2.89843 -0.58789,1.35352 -1.61328,2.36524 -1.01172,1.01172 -2.36523,1.59961 -1.35352,0.58789 -2.89844,0.58789 z"
             style=""
             id="path23" />
          <path
             d="m 197.56055,126 h -3.73243 v -14.64258 h 0.90235 l 1.23047,1.42188 q 0.90234,-0.82032 2.03711,-1.25782 1.14843,-0.45117 2.39257,-0.45117 1.33985,0 2.5293,0.51953 1.18945,0.50586 2.07813,1.40821 0.88867,0.88867 1.39453,2.09179 0.51953,1.18946 0.51953,2.54297 V 126 h -3.73242 v -8.36719 q 0,-0.57422 -0.21875,-1.08008 -0.21875,-0.51953 -0.60157,-0.90234 -0.38281,-0.38281 -0.88867,-0.60156 -0.50586,-0.21875 -1.08008,-0.21875 -0.58789,0 -1.10742,0.21875 -0.51953,0.21875 -0.90234,0.60156 -0.38281,0.38281 -0.60156,0.90234 -0.21875,0.50586 -0.21875,1.08008 z"
             style=""
             id="path25" />
          <path
             d="m 223.72852,126 h -0.90235 l -1.44922,-2.00977 q -0.5332,0.47852 -1.13476,0.90235 -0.58789,0.41015 -1.24414,0.72461 -0.65625,0.30078 -1.35352,0.47851 -0.68359,0.17774 -1.39453,0.17774 -1.54492,0 -2.91211,-0.57422 -1.35352,-0.58789 -2.37891,-1.61328 -1.01171,-1.03906 -1.59961,-2.44727 -0.58789,-1.42187 -0.58789,-3.08984 0,-1.6543 0.58789,-3.07617 0.5879,-1.42188 1.59961,-2.46094 1.02539,-1.03906 2.37891,-1.62695 1.36719,-0.58789 2.91211,-0.58789 0.49219,0 1.01172,0.082 0.5332,0.082 1.02539,0.27343 0.50586,0.17774 0.94336,0.47852 0.4375,0.30078 0.73828,0.73828 v -6.83594 h 3.75977 z m -3.75977,-7.45117 q 0,-0.76563 -0.30078,-1.47656 -0.28711,-0.72461 -0.79297,-1.27149 -0.50586,-0.56055 -1.18945,-0.88867 -0.66993,-0.3418 -1.43555,-0.3418 -0.76563,0 -1.44922,0.27344 -0.66992,0.27344 -1.17578,0.79297 -0.49219,0.50586 -0.7793,1.24414 -0.28711,0.73828 -0.28711,1.66797 0,0.80664 0.28711,1.53125 0.28711,0.72461 0.7793,1.27148 0.50586,0.54688 1.17578,0.86133 0.68359,0.31445 1.44922,0.31445 0.76562,0 1.43555,-0.32812 0.68359,-0.3418 1.18945,-0.88867 0.50586,-0.56055 0.79297,-1.27149 0.30078,-0.72461 0.30078,-1.49023 z"
             style=""
             id="path27" />
          <path
             d="m 232.41016,122.41797 q 0.21875,0.0684 0.4375,0.0957 0.21875,0.0137 0.4375,0.0137 0.54687,0 1.05273,-0.15039 0.50586,-0.15039 0.94336,-0.42382 0.45117,-0.28711 0.79297,-0.6836 0.35547,-0.41015 0.57422,-0.90234 l 2.73437,2.74804 q -0.51953,0.73829 -1.20312,1.32618 -0.66992,0.58789 -1.46289,0.99804 -0.7793,0.41016 -1.6543,0.61524 -0.86133,0.21875 -1.77734,0.21875 -1.54493,0 -2.91211,-0.57422 -1.35352,-0.57422 -2.37891,-1.59961 -1.01172,-1.02539 -1.59961,-2.43359 -0.58789,-1.42188 -0.58789,-3.11719 0,-1.73633 0.58789,-3.17188 0.58789,-1.43554 1.59961,-2.44726 1.02539,-1.01172 2.37891,-1.57227 1.36718,-0.56054 2.91211,-0.56054 0.91601,0 1.79101,0.21875 0.875,0.21875 1.6543,0.6289 0.79297,0.41016 1.47656,1.01172 0.68359,0.58789 1.20313,1.32617 z m 1.91406,-7.69727 q -0.25977,-0.0957 -0.51953,-0.12304 -0.2461,-0.0273 -0.51953,-0.0273 -0.76563,0 -1.44922,0.28711 -0.66992,0.27344 -1.17578,0.79297 -0.49219,0.51953 -0.7793,1.25781 -0.28711,0.72461 -0.28711,1.64063 0,0.20508 0.0137,0.46484 0.0274,0.25977 0.0684,0.53321 0.0547,0.25976 0.12305,0.50585 0.0684,0.2461 0.17773,0.4375 z"
             style=""
             id="path29" />
          <path
             d="m 249.33594,126 h -8.53125 v -3.71875 h 8.53125 q 0.38281,0 0.65625,-0.27344 0.27343,-0.27343 0.27343,-0.65625 0,-0.39648 -0.27343,-0.51953 -0.27344,-0.12305 -0.65625,-0.12305 h -3.88282 q -0.9707,0 -1.81835,-0.36914 -0.84766,-0.36914 -1.47657,-0.99804 -0.6289,-0.64258 -0.99804,-1.49024 -0.35547,-0.84765 -0.35547,-1.81836 0,-0.9707 0.35547,-1.81836 0.36914,-0.84765 0.99804,-1.47656 0.62891,-0.6289 1.47657,-0.98437 0.84765,-0.36914 1.81835,-0.36914 h 7.56055 v 3.71875 h -7.56055 q -0.38281,0 -0.65625,0.27343 -0.27343,0.27344 -0.27343,0.65625 0,0.39649 0.27343,0.6836 0.27344,0.27343 0.65625,0.27343 h 3.88282 q 0.95703,0 1.80468,0.32813 0.84766,0.31445 1.47657,0.88867 0.6289,0.57422 0.99804,1.38086 0.36914,0.80664 0.36914,1.76367 0,0.97071 -0.36914,1.81836 -0.36914,0.83399 -0.99804,1.47656 -0.62891,0.62891 -1.47657,0.99805 Q 250.29297,126 249.33594,126 Z"
             style=""
             id="path31" />
          <path
             d="m 260.35547,107.37891 q 0,0.51953 -0.20508,0.9707 -0.19141,0.45117 -0.5332,0.79297 -0.3418,0.32812 -0.80664,0.5332 -0.45118,0.19141 -0.97071,0.19141 -0.51953,0 -0.98437,-0.19141 -0.45117,-0.20508 -0.79297,-0.5332 -0.32813,-0.3418 -0.5332,-0.79297 -0.19141,-0.45117 -0.19141,-0.9707 0,-0.50586 0.19141,-0.95703 0.20507,-0.46485 0.5332,-0.79297 0.3418,-0.3418 0.79297,-0.53321 0.46484,-0.20507 0.98437,-0.20507 0.51953,0 0.97071,0.20507 0.46484,0.19141 0.80664,0.53321 0.34179,0.32812 0.5332,0.79297 0.20508,0.45117 0.20508,0.95703 z M 259.71289,126 h -3.75977 v -14.64258 h 3.75977 z"
             style=""
             id="path33" />
          <path
             d="m 270.60937,126 h -8.53125 v -3.71875 h 8.53125 q 0.38282,0 0.65625,-0.27344 0.27344,-0.27343 0.27344,-0.65625 0,-0.39648 -0.27344,-0.51953 -0.27343,-0.12305 -0.65625,-0.12305 h -3.88281 q -0.9707,0 -1.81836,-0.36914 -0.84765,-0.36914 -1.47656,-0.99804 -0.62891,-0.64258 -0.99805,-1.49024 -0.35547,-0.84765 -0.35547,-1.81836 0,-0.9707 0.35547,-1.81836 0.36914,-0.84765 0.99805,-1.47656 0.62891,-0.6289 1.47656,-0.98437 0.84766,-0.36914 1.81836,-0.36914 h 7.56055 v 3.71875 h -7.56055 q -0.38281,0 -0.65625,0.27343 -0.27344,0.27344 -0.27344,0.65625 0,0.39649 0.27344,0.6836 0.27344,0.27343 0.65625,0.27343 h 3.88281 q 0.95704,0 1.80469,0.32813 0.84766,0.31445 1.47656,0.88867 0.62891,0.57422 0.99805,1.38086 0.36914,0.80664 0.36914,1.76367 0,0.97071 -0.36914,1.81836 -0.36914,0.83399 -0.99805,1.47656 -0.6289,0.62891 -1.47656,0.99805 Q 271.56641,126 270.60937,126 Z"
             style=""
             id="path35" />
        </g>
      </g>
    </g>
  </g>
</svg>
