<svg id="artwork" xmlns="http://www.w3.org/2000/svg" viewBox="0 0 1280 265"><defs><style>.cls-1{fill:#9adde8;}.cls-2{fill:#49badc;}.cls-3{fill:#3177a9;}</style></defs><title>syndesis_logo_full_1280px_drkbkg</title><polygon class="cls-1" points="129.95 98.77 33.99 144.38 122.22 167.37 218.18 121.75 129.95 98.77"/><polygon class="cls-2" points="218.18 121.75 218.18 121.75 122.22 167.37 242.17 198.61 218.18 121.75"/><polygon class="cls-1" points="154.99 86.86 131 10 10 67.52 129.95 98.77 154.99 86.86"/><polygon class="cls-2" points="33.99 144.38 129.95 98.77 10 67.52 10 67.52 33.99 144.38"/><polygon class="cls-2" points="189.64 25.27 131 10 154.99 86.86 213.63 102.14 189.64 25.27"/><polygon class="cls-2" points="38.54 164 62.53 240.86 121.17 256.13 121.17 256.13 97.18 179.27 97.18 179.27 38.54 164"/><polygon class="cls-1" points="242.17 198.61 122.22 167.37 97.18 179.27 121.17 256.13 242.17 198.61"/><path class="cls-3" d="M358.91,210.23c-23.57,0-43.44-17.22-44.06-41.6H329.2c.41,22.74,17.21,29.3,37.09,29.3,16.6,0,35.65-9.63,35.65-28.48,0-14.76-10.65-21.73-23.15-25.82-24-8-60.45-15.58-60.45-47.55,0-25.82,23.77-40,47.13-40,19.47,0,44.88,6.77,48.15,35.25H399.28c-.41-18.24-17-23-32.17-23-15.37,0-34.43,7.79-34.43,25.82,0,42,83.61,23,83.61,74C416.29,200.39,388.62,210.23,358.91,210.23Z"/><path class="cls-3" d="M484.32,143.22l-54.51-84h17l45.29,71.52L537.4,59.2h14.34l-54.1,83.61v64.34H484.32Z"/><path class="cls-3" d="M572.24,59.2H587.4L669,189.32h.41V59.2h13.32v148h-16.8L586,79.28h-.41V207.15H572.24Z"/><path class="cls-3" d="M760,59.2c48.56,0,76.23,25,76.23,74s-27.67,74-76.23,74H720V59.2Zm3.27,135.66c41.6,0,58.61-24.39,58.61-61.69,0-43.64-25.61-62.91-67.62-61.68h-20.9V194.86Z"/><path class="cls-3" d="M870.19,207.15V59.2H958.1V71.49H883.51v53.08h71.73v12.29H883.51v58h77.67v12.29Z"/><path class="cls-3" d="M1030.44,210.23c-23.56,0-43.44-17.22-44.05-41.6h14.34c.41,22.74,17.21,29.3,37.09,29.3,16.6,0,35.66-9.63,35.66-28.48,0-14.76-10.66-21.73-23.16-25.82-24-8-60.45-15.58-60.45-47.55,0-25.82,23.77-40,47.13-40,19.47,0,44.88,6.77,48.16,35.25h-14.35c-.41-18.24-17-23-32.17-23-15.37,0-34.43,7.79-34.43,25.82,0,42,83.61,23,83.61,74C1087.82,200.39,1060.16,210.23,1030.44,210.23Z"/><path class="cls-3" d="M1121.63,207.15V58.58H1135V207.15Z"/><path class="cls-3" d="M1212.62,210.23c-23.56,0-43.44-17.22-44.06-41.6h14.35c.41,22.74,17.21,29.3,37.09,29.3,16.6,0,35.66-9.63,35.66-28.48,0-14.76-10.66-21.73-23.16-25.82-24-8-60.45-15.58-60.45-47.55,0-25.82,23.77-40,47.13-40,19.47,0,44.88,6.77,48.16,35.25H1253c-.41-18.24-17-23-32.17-23-15.37,0-34.43,7.79-34.43,25.82,0,42,83.61,23,83.61,74C1270,200.39,1242.34,210.23,1212.62,210.23Z"/></svg>