<?xml version="1.0" standalone="no"?>
<!DOCTYPE svg PUBLIC "-//W3C//DTD SVG 20010904//EN"
 "http://www.w3.org/TR/2001/REC-SVG-20010904/DTD/svg10.dtd">
<svg version="1.0" xmlns="http://www.w3.org/2000/svg"
 width="700.000000pt" height="700.000000pt" viewBox="0 0 700.000000 700.000000"
 preserveAspectRatio="xMidYMid meet">
<metadata>
Created by potrace 1.11, written by Peter Selinger 2001-2013
</metadata>
<g transform="translate(0.000000,700.000000) scale(0.100000,-0.100000)"
fill="#000000" stroke="none">
<path d="M3574 6941 c-28 -15 -69 -35 -90 -44 -21 -8 -113 -51 -204 -95 -91
-44 -187 -89 -213 -101 -26 -12 -136 -64 -244 -116 -107 -52 -197 -95 -198
-95 -2 0 -82 -38 -180 -85 -97 -47 -178 -85 -180 -85 -1 0 -85 -40 -186 -89
-101 -48 -209 -100 -239 -113 -30 -14 -116 -55 -190 -91 -74 -35 -169 -81
-210 -100 -41 -19 -133 -63 -205 -97 -71 -34 -166 -79 -210 -100 -44 -21 -138
-66 -210 -100 -71 -34 -164 -78 -205 -97 -41 -20 -139 -67 -218 -104 -79 -38
-148 -69 -153 -69 -19 0 -18 -4 121 -445 45 -143 90 -287 100 -320 10 -33 33
-105 50 -160 36 -114 68 -216 80 -260 5 -16 29 -95 55 -175 80 -251 246 -784
249 -800 3 -18 155 -61 646 -185 32 -9 407 -106 630 -165 129 -34 287 -75 350
-91 63 -17 194 -51 290 -76 96 -25 267 -69 380 -98 175 -45 201 -55 180 -63
-14 -6 -95 -44 -180 -85 -85 -41 -184 -88 -220 -105 -36 -17 -115 -54 -176
-84 l-110 -53 -84 23 c-47 12 -188 49 -315 82 -126 33 -315 83 -420 110 -104
27 -199 52 -210 54 -11 2 -65 16 -120 31 -55 15 -107 28 -115 30 -32 7 -298
77 -343 90 -45 13 -48 13 -43 -3 52 -166 339 -1086 372 -1192 25 -80 66 -210
91 -290 25 -80 53 -170 62 -200 10 -30 46 -147 81 -260 35 -113 65 -207 66
-208 1 -2 105 -30 231 -63 125 -32 270 -70 320 -85 51 -14 101 -27 110 -29 10
-1 72 -17 138 -34 66 -18 190 -50 275 -72 85 -22 197 -51 248 -65 51 -14 100
-27 110 -29 10 -2 65 -15 122 -31 l104 -27 40 21 c23 11 75 36 116 55 41 19
138 65 215 102 140 67 224 107 385 183 47 21 144 68 215 102 184 89 476 227
600 285 39 18 155 74 259 124 104 50 190 91 191 91 2 0 70 32 151 71 143 68
230 110 429 204 50 24 161 77 249 119 87 42 159 76 161 76 2 0 86 41 188 90
102 50 191 90 196 90 14 0 14 32 1 62 -5 13 -50 156 -100 318 -50 162 -113
365 -140 450 -27 85 -69 223 -95 305 -26 83 -58 184 -71 225 -50 158 -165 526
-168 540 -2 9 -23 75 -46 147 -44 138 -40 132 -105 149 -5 1 -73 19 -150 39
-77 20 -147 38 -155 40 -8 2 -42 11 -75 20 -33 9 -166 43 -295 76 -129 34
-284 75 -345 91 -60 16 -117 31 -126 33 -9 2 -88 22 -175 45 -88 23 -242 63
-344 90 -503 130 -659 171 -702 184 -25 8 -49 12 -52 9 -3 -4 -6 -3 -6 1 0 4
19 15 43 25 23 11 105 49 182 86 77 37 183 87 235 112 52 25 129 61 170 81 41
20 80 34 85 33 6 -2 44 -12 85 -22 92 -24 49 -13 395 -103 160 -41 317 -83
350 -91 33 -9 67 -18 75 -20 8 -2 114 -29 235 -60 562 -147 506 -134 499 -111
-12 38 -75 240 -104 331 -15 50 -47 151 -70 225 -22 74 -45 146 -50 160 -5 14
-25 77 -44 140 -19 63 -58 189 -87 280 -28 91 -64 206 -79 255 -86 279 -123
396 -140 445 -10 30 -35 111 -55 180 -21 69 -39 127 -41 128 -1 2 -17 8 -36
12 -18 5 -163 43 -323 85 -159 42 -297 78 -305 80 -14 3 -698 181 -887 231
-51 13 -99 24 -105 24 -7 0 -36 -13 -64 -29z"/>
</g>
</svg>
