<?xml version="1.0" encoding="UTF-8" standalone="no"?>
<!DOCTYPE svg PUBLIC "-//W3C//DTD SVG 1.1//EN"
 "http://www.w3.org/Graphics/SVG/1.1/DTD/svg11.dtd">
<!-- Generated by graphviz version 2.40.1 (20161225.0304)
 -->
<!-- Title: dependencies Pages: 1 -->
<svg width="1699pt" height="284pt"
 viewBox="0.00 0.00 1699.00 284.00" xmlns="http://www.w3.org/2000/svg" xmlns:xlink="http://www.w3.org/1999/xlink">
<g id="graph0" class="graph" transform="scale(1 1) rotate(0) translate(4 280)">
<title>dependencies</title>
<polygon fill="#ffffff" stroke="transparent" points="-4,4 -4,-280 1695,-280 1695,4 -4,4"/>
<text text-anchor="start" x="824.5091" y="-42.4" font-family="sans-serif" font-weight="bold" font-size="14.00" fill="#000000">Legend</text>
<polygon fill="#ffffb3" stroke="transparent" points="611.5,-10 611.5,-30 631.5,-30 631.5,-10 611.5,-10"/>
<text text-anchor="start" x="635.129" y="-15.4" font-family="sans-serif" font-size="14.00" fill="#000000"> &#160;Declarations</text>
<polygon fill="#8dd3c7" stroke="transparent" points="724.5,-10 724.5,-30 744.5,-30 744.5,-10 724.5,-10"/>
<text text-anchor="start" x="748.2251" y="-15.4" font-family="sans-serif" font-size="14.00" fill="#000000"> &#160;Module</text>
<polygon fill="#80b1d3" stroke="transparent" points="810.5,-10 810.5,-30 830.5,-30 830.5,-10 810.5,-10"/>
<text text-anchor="start" x="834.2812" y="-15.4" font-family="sans-serif" font-size="14.00" fill="#000000"> &#160;Bootstrap</text>
<polygon fill="#fdb462" stroke="transparent" points="907.5,-10 907.5,-30 927.5,-30 927.5,-10 907.5,-10"/>
<text text-anchor="start" x="931.1732" y="-15.4" font-family="sans-serif" font-size="14.00" fill="#000000"> &#160;Providers</text>
<polygon fill="#fb8072" stroke="transparent" points="1003.5,-10 1003.5,-30 1023.5,-30 1023.5,-10 1003.5,-10"/>
<text text-anchor="start" x="1027.2258" y="-15.4" font-family="sans-serif" font-size="14.00" fill="#000000"> &#160;Exports</text>
<g id="clust1" class="cluster">
<title>cluster_SyndesisCommonModule</title>
<polygon fill="none" stroke="#000000" stroke-dasharray="1,5" points="8,-70 8,-268 1683,-268 1683,-70 8,-70"/>
</g>
<g id="clust2" class="cluster">
<title>cluster_SyndesisCommonModule_declarations</title>
<polygon fill="none" stroke="#000000" points="521,-78 521,-130 1675,-130 1675,-78 521,-78"/>
</g>
<g id="clust12" class="cluster">
<title>cluster_SyndesisCommonModule_exports</title>
<polygon fill="none" stroke="#000000" points="305,-208 305,-260 1487,-260 1487,-208 305,-208"/>
</g>
<g id="clust14" class="cluster">
<title>cluster_SyndesisCommonModule_providers</title>
<polygon fill="none" stroke="#000000" points="16,-78 16,-130 513,-130 513,-78 16,-78"/>
</g>
<!-- ObjectPropertyFilterPipe -->
<g id="node1" class="node">
<title>ObjectPropertyFilterPipe</title>
<polygon fill="#ffffb3" stroke="#000000" points="1667.2436,-122 1510.7564,-122 1510.7564,-86 1667.2436,-86 1667.2436,-122"/>
<text text-anchor="middle" x="1589" y="-99.8" font-family="Times,serif" font-size="14.00" fill="#000000">ObjectPropertyFilterPipe</text>
</g>
<!-- SyndesisCommonModule -->
<g id="node9" class="node">
<title>SyndesisCommonModule</title>
<polygon fill="#8dd3c7" stroke="#000000" points="896.9452,-187 893.9452,-191 872.9452,-191 869.9452,-187 735.0548,-187 735.0548,-151 896.9452,-151 896.9452,-187"/>
<text text-anchor="middle" x="816" y="-164.8" font-family="Times,serif" font-size="14.00" fill="#000000">SyndesisCommonModule</text>
</g>
<!-- ObjectPropertyFilterPipe&#45;&gt;SyndesisCommonModule -->
<g id="edge1" class="edge">
<title>ObjectPropertyFilterPipe&#45;&gt;SyndesisCommonModule</title>
<path fill="none" stroke="#000000" d="M1589,-122.1061C1589,-141.3391 1589,-169 1589,-169 1589,-169 906.8999,-169 906.8999,-169"/>
<polygon fill="#000000" stroke="#000000" points="906.9,-165.5001 896.8999,-169 906.8999,-172.5001 906.9,-165.5001"/>
</g>
<!-- ObjectPropertySortPipe -->
<g id="node2" class="node">
<title>ObjectPropertySortPipe</title>
<polygon fill="#ffffb3" stroke="#000000" points="1492.7478,-122 1343.2522,-122 1343.2522,-86 1492.7478,-86 1492.7478,-122"/>
<text text-anchor="middle" x="1418" y="-99.8" font-family="Times,serif" font-size="14.00" fill="#000000">ObjectPropertySortPipe</text>
</g>
<!-- ObjectPropertySortPipe&#45;&gt;SyndesisCommonModule -->
<g id="edge2" class="edge">
<title>ObjectPropertySortPipe&#45;&gt;SyndesisCommonModule</title>
<path fill="none" stroke="#000000" d="M1411.124,-122.302C1411.124,-140.2699 1411.124,-165 1411.124,-165 1411.124,-165 906.8804,-165 906.8804,-165"/>
<polygon fill="#000000" stroke="#000000" points="906.8805,-161.5001 896.8804,-165 906.8804,-168.5001 906.8805,-161.5001"/>
</g>
<!-- TruncateCharactersPipe -->
<g id="node3" class="node">
<title>TruncateCharactersPipe</title>
<polygon fill="#ffffb3" stroke="#000000" points="1325.4876,-122 1174.5124,-122 1174.5124,-86 1325.4876,-86 1325.4876,-122"/>
<text text-anchor="middle" x="1250" y="-99.8" font-family="Times,serif" font-size="14.00" fill="#000000">TruncateCharactersPipe</text>
</g>
<!-- TruncateCharactersPipe&#45;&gt;SyndesisCommonModule -->
<g id="edge3" class="edge">
<title>TruncateCharactersPipe&#45;&gt;SyndesisCommonModule</title>
<path fill="none" stroke="#000000" d="M1237.6902,-122.027C1237.6902,-138.3976 1237.6902,-160 1237.6902,-160 1237.6902,-160 906.8072,-160 906.8072,-160"/>
<polygon fill="#000000" stroke="#000000" points="906.8072,-156.5001 896.8072,-160 906.8071,-163.5001 906.8072,-156.5001"/>
</g>
<!-- TruncateWordsPipe -->
<g id="node4" class="node">
<title>TruncateWordsPipe</title>
<polygon fill="#ffffb3" stroke="#000000" points="1156.9552,-122 1029.0448,-122 1029.0448,-86 1156.9552,-86 1156.9552,-122"/>
<text text-anchor="middle" x="1093" y="-99.8" font-family="Times,serif" font-size="14.00" fill="#000000">TruncateWordsPipe</text>
</g>
<!-- TruncateWordsPipe&#45;&gt;SyndesisCommonModule -->
<g id="edge4" class="edge">
<title>TruncateWordsPipe&#45;&gt;SyndesisCommonModule</title>
<path fill="none" stroke="#000000" d="M1079.0079,-122.1871C1079.0079,-137.1824 1079.0079,-156 1079.0079,-156 1079.0079,-156 907.0571,-156 907.0571,-156"/>
<polygon fill="#000000" stroke="#000000" points="907.0571,-152.5001 897.0571,-156 907.0571,-159.5001 907.0571,-152.5001"/>
</g>
<!-- LoadingComponent -->
<g id="node5" class="node">
<title>LoadingComponent</title>
<polygon fill="#ffffb3" stroke="#000000" points="1010.9902,-122 883.0098,-122 883.0098,-86 1010.9902,-86 1010.9902,-122"/>
<text text-anchor="middle" x="947" y="-99.8" font-family="Times,serif" font-size="14.00" fill="#000000">LoadingComponent</text>
</g>
<!-- LoadingComponent&#45;&gt;SyndesisCommonModule -->
<g id="edge5" class="edge">
<title>LoadingComponent&#45;&gt;SyndesisCommonModule</title>
<path fill="none" stroke="#000000" d="M889.8636,-122.1061C889.8636,-122.1061 889.8636,-140.991 889.8636,-140.991"/>
<polygon fill="#000000" stroke="#000000" points="886.3637,-140.9909 889.8636,-150.991 893.3637,-140.991 886.3637,-140.9909"/>
</g>
<!-- CapitalizePipe -->
<g id="node6" class="node">
<title>CapitalizePipe</title>
<polygon fill="#ffffb3" stroke="#000000" points="864.6458,-122 767.3542,-122 767.3542,-86 864.6458,-86 864.6458,-122"/>
<text text-anchor="middle" x="816" y="-99.8" font-family="Times,serif" font-size="14.00" fill="#000000">CapitalizePipe</text>
</g>
<!-- CapitalizePipe&#45;&gt;SyndesisCommonModule -->
<g id="edge6" class="edge">
<title>CapitalizePipe&#45;&gt;SyndesisCommonModule</title>
<path fill="none" stroke="#000000" d="M816,-122.1061C816,-122.1061 816,-140.991 816,-140.991"/>
<polygon fill="#000000" stroke="#000000" points="812.5001,-140.9909 816,-150.991 819.5001,-140.991 812.5001,-140.9909"/>
</g>
<!-- TitleizePipe -->
<g id="node7" class="node">
<title>TitleizePipe</title>
<polygon fill="#ffffb3" stroke="#000000" points="748.6473,-122 665.3527,-122 665.3527,-86 748.6473,-86 748.6473,-122"/>
<text text-anchor="middle" x="707" y="-99.8" font-family="Times,serif" font-size="14.00" fill="#000000">TitleizePipe</text>
</g>
<!-- TitleizePipe&#45;&gt;SyndesisCommonModule -->
<g id="edge7" class="edge">
<title>TitleizePipe&#45;&gt;SyndesisCommonModule</title>
<path fill="none" stroke="#000000" d="M742.0505,-122.1061C742.0505,-122.1061 742.0505,-140.991 742.0505,-140.991"/>
<polygon fill="#000000" stroke="#000000" points="738.5506,-140.9909 742.0505,-150.991 745.5506,-140.991 738.5506,-140.9909"/>
</g>
<!-- ModalComponent -->
<g id="node8" class="node">
<title>ModalComponent</title>
<polygon fill="#ffffb3" stroke="#000000" points="646.8823,-122 529.1177,-122 529.1177,-86 646.8823,-86 646.8823,-122"/>
<text text-anchor="middle" x="588" y="-99.8" font-family="Times,serif" font-size="14.00" fill="#000000">ModalComponent</text>
</g>
<!-- ModalComponent&#45;&gt;SyndesisCommonModule -->
<g id="edge8" class="edge">
<title>ModalComponent&#45;&gt;SyndesisCommonModule</title>
<path fill="none" stroke="#000000" d="M602.1843,-122.1871C602.1843,-137.1824 602.1843,-156 602.1843,-156 602.1843,-156 725.1654,-156 725.1654,-156"/>
<polygon fill="#000000" stroke="#000000" points="725.1655,-159.5001 735.1654,-156 725.1654,-152.5001 725.1655,-159.5001"/>
</g>
<!-- ObjectPropertyFilterPipe  -->
<g id="node10" class="node">
<title>ObjectPropertyFilterPipe </title>
<polygon fill="#fb8072" stroke="#000000" points="1479.2436,-252 1318.7564,-252 1318.7564,-216 1479.2436,-216 1479.2436,-252"/>
<text text-anchor="middle" x="1399" y="-229.8" font-family="Times,serif" font-size="14.00" fill="#000000">ObjectPropertyFilterPipe </text>
</g>
<!-- SyndesisCommonModule&#45;&gt;ObjectPropertyFilterPipe  -->
<g id="edge9" class="edge">
<title>SyndesisCommonModule&#45;&gt;ObjectPropertyFilterPipe </title>
<path fill="none" stroke="#000000" stroke-dasharray="5,2" d="M896.9664,-174C1042.7059,-174 1334.1848,-174 1334.1848,-174 1334.1848,-174 1334.1848,-205.998 1334.1848,-205.998"/>
<polygon fill="#000000" stroke="#000000" points="1330.6849,-205.998 1334.1848,-215.998 1337.6849,-205.9981 1330.6849,-205.998"/>
</g>
<!-- ObjectPropertySortPipe  -->
<g id="node11" class="node">
<title>ObjectPropertySortPipe </title>
<polygon fill="#fb8072" stroke="#000000" points="1300.7478,-252 1147.2522,-252 1147.2522,-216 1300.7478,-216 1300.7478,-252"/>
<text text-anchor="middle" x="1224" y="-229.8" font-family="Times,serif" font-size="14.00" fill="#000000">ObjectPropertySortPipe </text>
</g>
<!-- SyndesisCommonModule&#45;&gt;ObjectPropertySortPipe  -->
<g id="edge10" class="edge">
<title>SyndesisCommonModule&#45;&gt;ObjectPropertySortPipe </title>
<path fill="none" stroke="#000000" stroke-dasharray="5,2" d="M896.9505,-178C996.4249,-178 1152.1769,-178 1152.1769,-178 1152.1769,-178 1152.1769,-205.973 1152.1769,-205.973"/>
<polygon fill="#000000" stroke="#000000" points="1148.677,-205.973 1152.1769,-215.973 1155.677,-205.973 1148.677,-205.973"/>
</g>
<!-- TruncateCharactersPipe  -->
<g id="node12" class="node">
<title>TruncateCharactersPipe </title>
<polygon fill="#fb8072" stroke="#000000" points="1128.9868,-252 975.0132,-252 975.0132,-216 1128.9868,-216 1128.9868,-252"/>
<text text-anchor="middle" x="1052" y="-229.8" font-family="Times,serif" font-size="14.00" fill="#000000">TruncateCharactersPipe </text>
</g>
<!-- SyndesisCommonModule&#45;&gt;TruncateCharactersPipe  -->
<g id="edge11" class="edge">
<title>SyndesisCommonModule&#45;&gt;TruncateCharactersPipe </title>
<path fill="none" stroke="#000000" stroke-dasharray="5,2" d="M896.731,-183C943.4131,-183 993.0009,-183 993.0009,-183 993.0009,-183 993.0009,-205.8757 993.0009,-205.8757"/>
<polygon fill="#000000" stroke="#000000" points="989.5009,-205.8757 993.0009,-215.8757 996.5009,-205.8757 989.5009,-205.8757"/>
</g>
<!-- TruncateWordsPipe  -->
<g id="node13" class="node">
<title>TruncateWordsPipe </title>
<polygon fill="#fb8072" stroke="#000000" points="956.956,-252 825.044,-252 825.044,-216 956.956,-216 956.956,-252"/>
<text text-anchor="middle" x="891" y="-229.8" font-family="Times,serif" font-size="14.00" fill="#000000">TruncateWordsPipe </text>
</g>
<!-- SyndesisCommonModule&#45;&gt;TruncateWordsPipe  -->
<g id="edge12" class="edge">
<title>SyndesisCommonModule&#45;&gt;TruncateWordsPipe </title>
<path fill="none" stroke="#000000" stroke-dasharray="5,2" d="M860.9974,-187.1061C860.9974,-187.1061 860.9974,-205.991 860.9974,-205.991"/>
<polygon fill="#000000" stroke="#000000" points="857.4974,-205.9909 860.9974,-215.991 864.4974,-205.991 857.4974,-205.9909"/>
</g>
<!-- LoadingComponent  -->
<g id="node14" class="node">
<title>LoadingComponent </title>
<polygon fill="#fb8072" stroke="#000000" points="807.9911,-252 676.0089,-252 676.0089,-216 807.9911,-216 807.9911,-252"/>
<text text-anchor="middle" x="742" y="-229.8" font-family="Times,serif" font-size="14.00" fill="#000000">LoadingComponent </text>
</g>
<!-- SyndesisCommonModule&#45;&gt;LoadingComponent  -->
<g id="edge13" class="edge">
<title>SyndesisCommonModule&#45;&gt;LoadingComponent </title>
<path fill="none" stroke="#000000" stroke-dasharray="5,2" d="M771.5114,-187.1061C771.5114,-187.1061 771.5114,-205.991 771.5114,-205.991"/>
<polygon fill="#000000" stroke="#000000" points="768.0115,-205.9909 771.5114,-215.991 775.0115,-205.991 768.0115,-205.9909"/>
</g>
<!-- CapitalizePipe  -->
<g id="node15" class="node">
<title>CapitalizePipe </title>
<polygon fill="#fb8072" stroke="#000000" points="658.6453,-252 557.3547,-252 557.3547,-216 658.6453,-216 658.6453,-252"/>
<text text-anchor="middle" x="608" y="-229.8" font-family="Times,serif" font-size="14.00" fill="#000000">CapitalizePipe </text>
</g>
<!-- SyndesisCommonModule&#45;&gt;CapitalizePipe  -->
<g id="edge14" class="edge">
<title>SyndesisCommonModule&#45;&gt;CapitalizePipe </title>
<path fill="none" stroke="#000000" stroke-dasharray="5,2" d="M734.8567,-183C693.8871,-183 652.7569,-183 652.7569,-183 652.7569,-183 652.7569,-205.8757 652.7569,-205.8757"/>
<polygon fill="#000000" stroke="#000000" points="649.2569,-205.8757 652.7569,-215.8757 656.2569,-205.8757 649.2569,-205.8757"/>
</g>
<!-- TitleizePipe  -->
<g id="node16" class="node">
<title>TitleizePipe </title>
<polygon fill="#fb8072" stroke="#000000" points="539.6467,-252 452.3533,-252 452.3533,-216 539.6467,-216 539.6467,-252"/>
<text text-anchor="middle" x="496" y="-229.8" font-family="Times,serif" font-size="14.00" fill="#000000">TitleizePipe </text>
</g>
<!-- SyndesisCommonModule&#45;&gt;TitleizePipe  -->
<g id="edge15" class="edge">
<title>SyndesisCommonModule&#45;&gt;TitleizePipe </title>
<path fill="none" stroke="#000000" stroke-dasharray="5,2" d="M734.9033,-178C651.6882,-178 534.3161,-178 534.3161,-178 534.3161,-178 534.3161,-205.973 534.3161,-205.973"/>
<polygon fill="#000000" stroke="#000000" points="530.8162,-205.973 534.3161,-215.973 537.8162,-205.973 530.8162,-205.973"/>
</g>
<!-- ModalComponent  -->
<g id="node17" class="node">
<title>ModalComponent </title>
<polygon fill="#fb8072" stroke="#000000" points="434.8828,-252 313.1172,-252 313.1172,-216 434.8828,-216 434.8828,-252"/>
<text text-anchor="middle" x="374" y="-229.8" font-family="Times,serif" font-size="14.00" fill="#000000">ModalComponent </text>
</g>
<!-- SyndesisCommonModule&#45;&gt;ModalComponent  -->
<g id="edge16" class="edge">
<title>SyndesisCommonModule&#45;&gt;ModalComponent </title>
<path fill="none" stroke="#000000" stroke-dasharray="5,2" d="M734.885,-174C614.5902,-174 402.9376,-174 402.9376,-174 402.9376,-174 402.9376,-205.998 402.9376,-205.998"/>
<polygon fill="#000000" stroke="#000000" points="399.4377,-205.998 402.9376,-215.998 406.4377,-205.9981 399.4377,-205.998"/>
</g>
<!-- ConfigService -->
<g id="node18" class="node">
<title>ConfigService</title>
<ellipse fill="#fdb462" stroke="#000000" cx="438" cy="-104" rx="66.6325" ry="18"/>
<text text-anchor="middle" x="438" y="-99.8" font-family="Times,serif" font-size="14.00" fill="#000000">ConfigService</text>
</g>
<!-- ConfigService&#45;&gt;SyndesisCommonModule -->
<g id="edge17" class="edge">
<title>ConfigService&#45;&gt;SyndesisCommonModule</title>
<path fill="none" stroke="#000000" d="M478.6213,-118.4214C478.6213,-135.0138 478.6213,-160 478.6213,-160 478.6213,-160 725.1894,-160 725.1894,-160"/>
<polygon fill="#000000" stroke="#000000" points="725.1894,-163.5001 735.1894,-160 725.1894,-156.5001 725.1894,-163.5001"/>
</g>
<!-- FormFactoryService -->
<g id="node19" class="node">
<title>FormFactoryService</title>
<ellipse fill="#fdb462" stroke="#000000" cx="263" cy="-104" rx="90.3255" ry="18"/>
<text text-anchor="middle" x="263" y="-99.8" font-family="Times,serif" font-size="14.00" fill="#000000">FormFactoryService</text>
</g>
<!-- FormFactoryService&#45;&gt;SyndesisCommonModule -->
<g id="edge18" class="edge">
<title>FormFactoryService&#45;&gt;SyndesisCommonModule</title>
<path fill="none" stroke="#000000" d="M333.3608,-115.4736C333.3608,-133.1438 333.3608,-165 333.3608,-165 333.3608,-165 725.2171,-165 725.2171,-165"/>
<polygon fill="#000000" stroke="#000000" points="725.2171,-168.5001 735.2171,-165 725.217,-161.5001 725.2171,-168.5001"/>
</g>
<!-- ModalService -->
<g id="node20" class="node">
<title>ModalService</title>
<ellipse fill="#fdb462" stroke="#000000" cx="89" cy="-104" rx="65.4072" ry="18"/>
<text text-anchor="middle" x="89" y="-99.8" font-family="Times,serif" font-size="14.00" fill="#000000">ModalService</text>
</g>
<!-- ModalService&#45;&gt;SyndesisCommonModule -->
<g id="edge19" class="edge">
<title>ModalService&#45;&gt;SyndesisCommonModule</title>
<path fill="none" stroke="#000000" d="M89,-122.1061C89,-141.3391 89,-169 89,-169 89,-169 725.0706,-169 725.0706,-169"/>
<polygon fill="#000000" stroke="#000000" points="725.0706,-172.5001 735.0706,-169 725.0706,-165.5001 725.0706,-172.5001"/>
</g>
</g>
</svg>
