<?xml version="1.0" encoding="UTF-8" standalone="no"?>
<!DOCTYPE svg PUBLIC "-//W3C//DTD SVG 1.1//EN"
 "http://www.w3.org/Graphics/SVG/1.1/DTD/svg11.dtd">
<!-- Generated by graphviz version 2.40.1 (20161225.0304)
 -->
<!-- Title: dependencies Pages: 1 -->
<svg width="916pt" height="349pt"
 viewBox="0.00 0.00 916.00 349.00" xmlns="http://www.w3.org/2000/svg" xmlns:xlink="http://www.w3.org/1999/xlink">
<g id="graph0" class="graph" transform="scale(1 1) rotate(0) translate(4 345)">
<title>dependencies</title>
<polygon fill="#ffffff" stroke="transparent" points="-4,4 -4,-345 912,-345 912,4 -4,4"/>
<text text-anchor="start" x="433.0091" y="-42.4" font-family="sans-serif" font-weight="bold" font-size="14.00" fill="#000000">Legend</text>
<polygon fill="#ffffb3" stroke="transparent" points="220,-10 220,-30 240,-30 240,-10 220,-10"/>
<text text-anchor="start" x="243.629" y="-15.4" font-family="sans-serif" font-size="14.00" fill="#000000"> &#160;Declarations</text>
<polygon fill="#8dd3c7" stroke="transparent" points="333,-10 333,-30 353,-30 353,-10 333,-10"/>
<text text-anchor="start" x="356.7251" y="-15.4" font-family="sans-serif" font-size="14.00" fill="#000000"> &#160;Module</text>
<polygon fill="#80b1d3" stroke="transparent" points="419,-10 419,-30 439,-30 439,-10 419,-10"/>
<text text-anchor="start" x="442.7812" y="-15.4" font-family="sans-serif" font-size="14.00" fill="#000000"> &#160;Bootstrap</text>
<polygon fill="#fdb462" stroke="transparent" points="516,-10 516,-30 536,-30 536,-10 516,-10"/>
<text text-anchor="start" x="539.6732" y="-15.4" font-family="sans-serif" font-size="14.00" fill="#000000"> &#160;Providers</text>
<polygon fill="#fb8072" stroke="transparent" points="612,-10 612,-30 632,-30 632,-10 612,-10"/>
<text text-anchor="start" x="635.7258" y="-15.4" font-family="sans-serif" font-size="14.00" fill="#000000"> &#160;Exports</text>
<g id="clust1" class="cluster">
<title>cluster_AppModule</title>
<polygon fill="none" stroke="#000000" stroke-dasharray="1,5" points="8,-70 8,-333 900,-333 900,-70 8,-70"/>
</g>
<g id="clust2" class="cluster">
<title>cluster_AppModule_declarations</title>
<polygon fill="none" stroke="#000000" points="770,-143 770,-195 892,-195 892,-143 770,-143"/>
</g>
<g id="clust3" class="cluster">
<title>cluster_AppModule_AppComponent_providers</title>
<polygon fill="none" stroke="#000000" points="570,-78 570,-130 892,-130 892,-78 570,-78"/>
</g>
<g id="clust4" class="cluster">
<title>cluster_AppModule_imports</title>
<polygon fill="none" stroke="#000000" points="510,-143 510,-195 762,-195 762,-143 510,-143"/>
</g>
<g id="clust6" class="cluster">
<title>cluster_AppModule_bootstrap</title>
<polygon fill="none" stroke="#000000" points="433,-273 433,-325 557,-325 557,-273 433,-273"/>
</g>
<g id="clust7" class="cluster">
<title>cluster_AppModule_providers</title>
<polygon fill="none" stroke="#000000" points="16,-143 16,-195 502,-195 502,-143 16,-143"/>
</g>
<!-- AppComponent -->
<g id="node1" class="node">
<title>AppComponent</title>
<polygon fill="#ffffb3" stroke="#000000" points="883.9399,-187 778.0601,-187 778.0601,-151 883.9399,-151 883.9399,-187"/>
<text text-anchor="middle" x="831" y="-164.8" font-family="Times,serif" font-size="14.00" fill="#000000">AppComponent</text>
</g>
<!-- AppModule -->
<g id="node2" class="node">
<title>AppModule</title>
<polygon fill="#8dd3c7" stroke="#000000" points="536.6571,-252 533.6571,-256 512.6571,-256 509.6571,-252 453.3429,-252 453.3429,-216 536.6571,-216 536.6571,-252"/>
<text text-anchor="middle" x="495" y="-229.8" font-family="Times,serif" font-size="14.00" fill="#000000">AppModule</text>
</g>
<!-- AppComponent&#45;&gt;AppModule -->
<g id="edge1" class="edge">
<title>AppComponent&#45;&gt;AppModule</title>
<path fill="none" stroke="#000000" d="M831,-187.2843C831,-208.3211 831,-240 831,-240 831,-240 546.8753,-240 546.8753,-240"/>
<polygon fill="#000000" stroke="#000000" points="546.8753,-236.5001 536.8753,-240 546.8752,-243.5001 546.8753,-236.5001"/>
</g>
<!-- AppComponent  -->
<g id="node7" class="node">
<title>AppComponent </title>
<polygon fill="#80b1d3" stroke="#000000" points="549.439,-317 440.561,-317 440.561,-281 549.439,-281 549.439,-317"/>
<text text-anchor="middle" x="495" y="-294.8" font-family="Times,serif" font-size="14.00" fill="#000000">AppComponent </text>
</g>
<!-- AppModule&#45;&gt;AppComponent  -->
<g id="edge6" class="edge">
<title>AppModule&#45;&gt;AppComponent </title>
<path fill="none" stroke="#000000" stroke-dasharray="1,5" d="M495,-252.1061C495,-252.1061 495,-270.991 495,-270.991"/>
<polygon fill="#000000" stroke="#000000" points="491.5001,-270.9909 495,-280.991 498.5001,-270.991 491.5001,-270.9909"/>
</g>
<!-- Restangular -->
<g id="node3" class="node">
<title>Restangular</title>
<ellipse fill="#fdb462" stroke="#000000" cx="827" cy="-104" rx="57.3205" ry="18"/>
<text text-anchor="middle" x="827" y="-99.8" font-family="Times,serif" font-size="14.00" fill="#000000">Restangular</text>
</g>
<!-- Restangular&#45;&gt;AppComponent -->
<g id="edge2" class="edge">
<title>Restangular&#45;&gt;AppComponent</title>
<path fill="none" stroke="#000000" d="M831,-122.1061C831,-122.1061 831,-140.991 831,-140.991"/>
<polygon fill="#000000" stroke="#000000" points="827.5001,-140.9909 831,-150.991 834.5001,-140.991 827.5001,-140.9909"/>
</g>
<!-- TestSupportService -->
<g id="node4" class="node">
<title>TestSupportService</title>
<ellipse fill="#fdb462" stroke="#000000" cx="665" cy="-104" rx="87.3963" ry="18"/>
<text text-anchor="middle" x="665" y="-99.8" font-family="Times,serif" font-size="14.00" fill="#000000">TestSupportService</text>
</g>
<!-- TestSupportService&#45;&gt;AppComponent -->
<g id="edge3" class="edge">
<title>TestSupportService&#45;&gt;AppComponent</title>
<path fill="none" stroke="#000000" d="M752.4469,-104C758.409,-104 762.1135,-104 762.1135,-104 762.1135,-104 762.1135,-169 762.1135,-169 762.1135,-169 768.0906,-169 768.0906,-169"/>
<polygon fill="#000000" stroke="#000000" points="768.0907,-172.5001 778.0906,-169 768.0906,-165.5001 768.0907,-172.5001"/>
</g>
<!-- AppRoutingModule -->
<g id="node5" class="node">
<title>AppRoutingModule</title>
<polygon fill="#8dd3c7" stroke="#000000" points="754.2744,-187 751.2744,-191 730.2744,-191 727.2744,-187 625.7256,-187 625.7256,-151 754.2744,-151 754.2744,-187"/>
<text text-anchor="middle" x="690" y="-164.8" font-family="Times,serif" font-size="14.00" fill="#000000">AppRoutingModule</text>
</g>
<!-- AppRoutingModule&#45;&gt;AppModule -->
<g id="edge4" class="edge">
<title>AppRoutingModule&#45;&gt;AppModule</title>
<path fill="none" stroke="#000000" d="M690,-187.0225C690,-204.3734 690,-228 690,-228 690,-228 546.8324,-228 546.8324,-228"/>
<polygon fill="#000000" stroke="#000000" points="546.8324,-224.5001 536.8324,-228 546.8324,-231.5001 546.8324,-224.5001"/>
</g>
<!-- StoreModule -->
<g id="node6" class="node">
<title>StoreModule</title>
<polygon fill="#8dd3c7" stroke="#000000" points="607.5983,-187 604.5983,-191 583.5983,-191 580.5983,-187 518.4017,-187 518.4017,-151 607.5983,-151 607.5983,-187"/>
<text text-anchor="middle" x="563" y="-164.8" font-family="Times,serif" font-size="14.00" fill="#000000">StoreModule</text>
</g>
<!-- StoreModule&#45;&gt;AppModule -->
<g id="edge5" class="edge">
<title>StoreModule&#45;&gt;AppModule</title>
<path fill="none" stroke="#000000" d="M527.6396,-187.1061C527.6396,-187.1061 527.6396,-205.991 527.6396,-205.991"/>
<polygon fill="#000000" stroke="#000000" points="524.1396,-205.9909 527.6396,-215.991 531.1396,-205.991 524.1396,-205.9909"/>
</g>
<!-- ConfigService -->
<g id="node8" class="node">
<title>ConfigService</title>
<ellipse fill="#fdb462" stroke="#000000" cx="427" cy="-169" rx="66.6325" ry="18"/>
<text text-anchor="middle" x="427" y="-164.8" font-family="Times,serif" font-size="14.00" fill="#000000">ConfigService</text>
</g>
<!-- ConfigService&#45;&gt;AppModule -->
<g id="edge7" class="edge">
<title>ConfigService&#45;&gt;AppModule</title>
<path fill="none" stroke="#000000" d="M473.4939,-182.1537C473.4939,-182.1537 473.4939,-205.6938 473.4939,-205.6938"/>
<polygon fill="#000000" stroke="#000000" points="469.994,-205.6938 473.4939,-215.6938 476.994,-205.6939 469.994,-205.6938"/>
</g>
<!-- UserService -->
<g id="node9" class="node">
<title>UserService</title>
<ellipse fill="#fdb462" stroke="#000000" cx="284" cy="-169" rx="58.4415" ry="18"/>
<text text-anchor="middle" x="284" y="-164.8" font-family="Times,serif" font-size="14.00" fill="#000000">UserService</text>
</g>
<!-- UserService&#45;&gt;AppModule -->
<g id="edge8" class="edge">
<title>UserService&#45;&gt;AppModule</title>
<path fill="none" stroke="#000000" d="M284,-187.0225C284,-204.3734 284,-228 284,-228 284,-228 443.3132,-228 443.3132,-228"/>
<polygon fill="#000000" stroke="#000000" points="443.3132,-231.5001 453.3132,-228 443.3132,-224.5001 443.3132,-231.5001"/>
</g>
<!-- CanDeactivateGuard -->
<g id="node10" class="node">
<title>CanDeactivateGuard</title>
<ellipse fill="#fdb462" stroke="#000000" cx="116" cy="-169" rx="92.0123" ry="18"/>
<text text-anchor="middle" x="116" y="-164.8" font-family="Times,serif" font-size="14.00" fill="#000000">CanDeactivateGuard</text>
</g>
<!-- CanDeactivateGuard&#45;&gt;AppModule -->
<g id="edge9" class="edge">
<title>CanDeactivateGuard&#45;&gt;AppModule</title>
<path fill="none" stroke="#000000" d="M116,-187.2843C116,-208.3211 116,-240 116,-240 116,-240 442.9923,-240 442.9923,-240"/>
<polygon fill="#000000" stroke="#000000" points="442.9923,-243.5001 452.9923,-240 442.9923,-236.5001 442.9923,-243.5001"/>
</g>
</g>
</svg>
