<svg height="100" width="100" xmlns="http://www.w3.org/2000/svg"><path fill="#2D72B8" d="M74.174 31.807l7.437 5.367v-7.602l-7.48-8.765v10.957l.043.015z"/><path fill="#5294CF" d="M59.838 85.666l14.293-7.146V20.791l-14.303-7.124z"/><path fill="#205B98" d="M39.496 85.666L25.203 78.52V20.791l14.303-7.124z"/><path fill="#2D72B8" d="M39.506 13.667h20.321v71.999H39.506zM74.131 67.564V78.52l7.48-8.764v-7.602l-7.437 5.397zM74.131 62.936l.043-.01 7.437-4v-7.649l-7.48.688zM74.174 36.429l-.043-.01V47.35l7.48.699v-7.645z"/><path fill="#1A476F" d="M81.611 48.049l-7.48-.699-14.303-.572H39.506l-14.303.572V36.443l-.015.008.015-.032 14.303-3.314H59.828l14.303 3.314 5.258 2.795v-1.797l2.222-.243-7.48-5.41-14.303-4.432H39.506l-14.303 4.432V20.807l-7.48 8.763v7.653l.058-.042 2.164.236v1.834l-2.222 1.189v7.615l.058-.006 2.164.032v3.196l-1.867.028-.355-.034v7.618l2.222 1.195v1.855l-2.129.235-.093-.07v7.652l7.48 8.764V67.564l14.303 4.432H59.828l14.345-4.445 7.438-5.367-2.222-.245v-1.818l-5.216 2.805-14.345 3.295v.004H39.506v-.004l-14.348-3.295-.025-.051.07.037V51.965l14.303.57v.014H59.828v-.014l14.303-.57 7.48-.656-2.222-.032v-3.196z"/></svg>