<svg version="1.1" id="Layer_1" xmlns="http://www.w3.org/2000/svg" x="0" y="0" viewBox="0 0 248.2 300" xml:space="preserve"><style>.st28{fill:#8c3123}.st29{fill:#e05243}</style><path class="st28" d="M20 52.1L0 62v175.5l20 9.9.1-.1V52.2l-.1-.1"/><path class="st29" d="M127 222L20 247.5V52.1L127 77v145"/><path class="st28" d="M78.7 182.1l45.4 5.8.3-.7.3-74.4-.5-.6-45.4 5.7-.1 64.2"/><path class="st28" d="M124.1 222.3l104.1 25.2.2-.3V52.1l-.2-.2-104.1 25.4v145"/><path class="st29" d="M169.5 182.1l-45.4 5.8v-75.7l45.4 5.7v64.2"/><path d="M169.5 86.9l-45.4 8.3-45.4-8.3L124 75l45.5 11.9" fill="#5e1f18"/><path d="M169.5 213.1l-45.4-8.3-45.4 8.3 45.3 12.7 45.5-12.7" fill="#f2b0a9"/><path class="st28" d="M78.7 86.9l45.4-11.2.4-.1V.3l-.4-.3-45.4 22.7v64.2"/><path class="st29" d="M169.5 86.9l-45.4-11.2V0l45.4 22.7v64.2"/><path class="st28" d="M124.1 300l-45.4-22.7v-64.2l45.4 11.2.7.8-.2 73.6-.5 1.3"/><path class="st29" d="M124.1 300l45.4-22.7v-64.2l-45.4 11.2V300M228.2 52.1l20 10v175.5l-20 10V52.1"/></svg>