<svg height="100" width="100" xmlns="http://www.w3.org/2000/svg"><path fill="#D9A741" d="M54.46 59.506l-30.475 4.287.002-27.592 30.475 4.293z"/><path fill="#876929" d="M20.179 37.344l29.824-8.945V14L20.179 28.908zM20.19 62.654L49.999 71.6 49.997 86 20.19 71.094z"/><path fill="#D9A741" d="M79.823 37.35l-29.82-8.951V14l29.822 14.914zM79.806 62.66L49.999 71.6 49.997 86l29.809-14.901z"/><path fill="#876929" d="M23.985 72.99l-3.81-1.904.004-42.178 3.81-1.904zM39.017 57.762l10.982 1.398.002-18.328-10.982 1.397zM27.954 56.354l7.127.906.002-14.531-7.129.908z"/><path fill="#624A1E" d="M23.987 36.201l26.016-7.802 29.82 8.951-25.342 3.146z"/><path fill="#FAD791" d="M23.985 63.793L49.999 71.6l29.807-8.94-25.346-3.154z"/><path fill="#D9A741" d="M79.808 55.33l-29.809 3.762.002-18.26 29.807 3.797z"/></svg>