<svg xmlns="http://www.w3.org/2000/svg" width="400" height="441.026"><g fill-rule="evenodd"><path d="M76.4 53c-.274.33-.746.6-1.049.6-1.046 0-.797 173.442.249 173.716.44.115.8.493.8.839s.434.739.965.872a1.71 1.71 0 0 1 1.208 1.208c.159.632.528.965 1.072.965.493 0 .915.324 1.039.8.115.44.37.8.566.8.197 0 .895.495 1.553 1.1.658.605 2.024 1.73 3.037 2.5s2.685 2.221 3.716 3.225c1.031 1.003 2.183 1.943 2.559 2.087.377.145.685.51.685.811 0 .302.455.756 1.011 1.009.556.254 1.121.746 1.255 1.095.134.349.669.796 1.189.994.52.197.945.634.945.969 0 .336.173.61.384.61.211 0 .886.45 1.5.999.614.55 2.466 2.108 4.116 3.463 1.65 1.356 3.412 2.886 3.916 3.401.504.516 1.094.937 1.31.937.217 0 .565.45.774 1 .209.55.651 1 .981 1 .33 0 .895.45 1.256 1 .36.55.892 1 1.182 1 .29 0 .633.333.762.739.129.407.681.943 1.227 1.192.545.248.992.726.992 1.06 0 .335.27.609.6.609.33 0 .995.405 1.478.9.484.495 1.274 1.17 1.756 1.5 1.335.913 4.679 3.877 8.001 7.092 1.644 1.591 3.344 3.082 3.777 3.314.433.232.788.666.788.965 0 .298.438.652.973.787.536.134 1.088.603 1.227 1.043.14.439.398.799.575.799.495 0 5.335 3.895 7.425 5.976 1.566 1.559 3.083 2.824 3.387 2.824.197 0 .465.333.594.739.129.407.681.943 1.227 1.192.545.248.992.706.992 1.017 0 .311.438.675.973.81.536.134 1.088.603 1.227 1.043.14.439.44.799.668.799.228 0 1.666 1.08 3.196 2.4 1.53 1.32 2.939 2.4 3.132 2.4.192 0 .464.36.604.8.14.44.508.8.818.8.31 0 .854.443 1.209.984.354.542.979 1.091 1.388 1.221.409.13.849.567.978.972.128.405.601.833 1.05.95.449.118.914.587 1.033 1.043.12.457.453.83.742.83.288 0 .878.45 1.311 1 .432.55.981 1 1.219 1 .239 0 .728.45 1.089 1 .36.55.822 1 1.026 1 .342 0 5.34 4.203 7.151 6.014.432.432.954.786 1.159.786.205 0 .487.36.627.8.14.44.508.8.818.8.31 0 .854.443 1.209.984.354.542.979 1.091 1.388 1.221.409.13.855.587.991 1.015.137.429.502.78.812.78.31 0 .858.45 1.219 1 .36.55.854 1 1.096 1 .243 0 .807.407 1.254.904.447.498 1.468 1.392 2.269 1.987a29.281 29.281 0 0 1 2.669 2.296c.668.667 1.411 1.213 1.653 1.213.241 0 .636.433.877.962.855 1.876 6.63 1.886 7.484.012.244-.536.666-.974.937-.974.272 0 .861-.427 1.309-.949.979-1.14 8.424-7.451 8.789-7.451.142 0 1.143-.9 2.226-2s2.144-2 2.357-2c.214 0 .498-.342.63-.76.133-.418.673-.869 1.201-1.001.527-.133 1.073-.6 1.212-1.04.14-.439.422-.799.627-.799.205 0 .699-.315 1.098-.7 1.685-1.626 4.851-4.1 5.247-4.1.235 0 .428-.286.428-.635 0-.349.54-.838 1.2-1.087.66-.25 1.2-.688 1.2-.974 0-.287.447-.725.992-.973.546-.249 1.098-.785 1.227-1.192.129-.406.397-.739.594-.739.198 0 .884-.495 1.526-1.1 2.183-2.058 5.338-4.698 6.501-5.439.638-.407 1.16-.906 1.16-1.109 0-.203.447-.573.992-.821.546-.249 1.098-.785 1.227-1.191s.666-.846 1.193-.979c.528-.132 1.068-.583 1.201-1.001.132-.418.41-.76.617-.76.206 0 .767-.45 1.245-1 .478-.55 1.111-1 1.407-1 .296 0 .709-.45.918-1 .209-.55.595-1 .857-1s.941-.441 1.51-.98c2.294-2.176 3.851-3.435 4.504-3.643.378-.12.799-.569.935-.997.137-.429.502-.78.812-.78.31 0 .858-.45 1.219-1 .36-.55.908-1 1.218-1 .309 0 .767-.45 1.018-1 .25-.55.692-1 .982-1 .29 0 .821-.45 1.182-1 .36-.55.921-1 1.246-1 .326 0 .686-.36.801-.8.115-.44.369-.8.564-.8.195 0 1.194-.792 2.219-1.761 1.025-.969 2.551-2.184 3.391-2.7.839-.516 1.632-1.254 1.761-1.639s.587-.7 1.018-.7c.467 0 .936-.403 1.163-1 .209-.55.581-1 .826-1 .246 0 1.314-.9 2.374-2s2.038-2 2.172-2c.135 0 1.116-.855 2.181-1.9s2.615-2.44 3.444-3.1c.83-.66 2.094-1.695 2.809-2.3.715-.605 1.505-1.1 1.757-1.1.251 0 .628-.45.837-1 .209-.55.584-1 .833-1s1.297-.9 2.33-2c1.033-1.1 2.097-2 2.366-2 .268 0 .693-.45.944-1 .25-.55.688-1 .971-1 .284 0 .671-.276.859-.613.189-.337 1.233-1.333 2.32-2.212 3.007-2.431 4.49-3.686 5.526-4.675.519-.495 1.152-.9 1.407-.9.255 0 .635-.45.844-1 .222-.584.697-1 1.143-1 .436 0 .857-.356.981-.83.119-.456.584-.925 1.033-1.043.449-.117.925-.554 1.057-.97.132-.416.392-.757.577-.757.567 0 5.64-5.038 6.243-6.2.597-1.152.819-168.08.226-170.074-.143-.481-.664-1.336-1.157-1.9l-.898-1.026H199.652c-108.627 0-122.811.069-123.252.6m214.117 58.64c.816.793 1.483 1.71 1.483 2.038 0 .329.36.924.8 1.322.983.89 1.091 3.461.177 4.219-.343.285-.868 1.103-1.167 1.818-1.269 3.037 7.93 2.763-92.592 2.763-99.768 0-91.746.242-93.179-2.806-.447-.952-.999-1.846-1.226-1.986-.682-.421-.472-3.224.319-4.254.402-.525.853-1.286 1.002-1.692.148-.406.629-.832 1.068-.947.439-.114.798-.448.798-.742 0-1.335 1.201-1.352 91.217-1.262l89.817.089 1.483 1.44m-.962 36.16c.376.44 1.035.998 1.465 1.241.429.242.835.809.902 1.258.068.45.473 1.134.9 1.521 1.06.959 1.047 3.413-.022 4.38-.44.398-.8 1.022-.8 1.387 0 .86-1.408 2.36-2.664 2.838-.605.229-35.651.375-90.402.375-99.526 0-91.36.24-92.765-2.721-.38-.803-.934-1.701-1.231-1.998-.647-.647-.719-3.522-.097-3.906.242-.15.698-.889 1.012-1.641.315-.753.882-1.484 1.26-1.625.378-.141.914-.571 1.191-.957.775-1.075-2.543-1.039 91.631-.994 88.415.042 88.94.047 89.62.842m.282 37.2c.36.55.901 1 1.201 1 .301 0 .656.437.79.971.134.533.588 1.281 1.008 1.662.831.752 1.076 3.527.351 3.975-.227.14-.79 1.058-1.252 2.04-1.635 3.48 8.003 3.152-92.735 3.152-100.693 0-91.123.348-93.401-3.401-1.625-2.676-1.833-4.682-.599-5.799.44-.398.8-1.05.8-1.448 0-.398.405-.939.9-1.201.495-.263 1.135-.809 1.423-1.214.505-.712 3.569-.737 90.69-.737h90.169l.655 1m.063 36.9c.329.495.842.9 1.141.9.299 0 .663.476.809 1.058.146.582.6 1.392 1.008 1.8.948.948.961 3.142.026 4.388a12.068 12.068 0 0 0-1.182 2.033c-.256.593-.961 1.403-1.566 1.8-1.655 1.084-180.547 1.13-182.201.046-2.608-1.709-4.219-6.542-2.79-8.371.41-.525.872-1.359 1.027-1.854.155-.495.423-.9.597-.9.173 0 .801-.451 1.396-1.003l1.082-1.002 90.028.102 90.027.103.598.9" fill="#fafafa"/><path d="M196.8.6c0 .479-.594.6-2.95.6-3.876 0-5.335.318-5.569 1.212-.116.442-.638.777-1.335.857-.824.094-1.181.378-1.271 1.009-.102.721-.426.9-1.8 1-1.271.093-1.768.333-2.059.996-.211.481-.796 1.062-1.3 1.291-.504.23-.916.672-.916.983 0 .311-.45.678-1 .816-.731.184-1 .519-1 1.244 0 .791-.202.992-1 .992-.8 0-1 .2-1 1s-.2 1-1 1-1 .2-1 1-.2 1-1 1-1 .2-1 1c0 .839-.189 1-1.171 1-1.101 0-2.429.863-2.429 1.579 0 .176-.526.426-1.168.555-.677.135-1.273.565-1.419 1.024-.138.435-.647.848-1.132.917-.551.078-.928.453-1.006 1a1.13 1.13 0 0 1-1 1 1.133 1.133 0 0 0-1 1 1.13 1.13 0 0 1-1 1c-.618.088-.912.448-1.002 1.225-.099.864-.335 1.1-1.1 1.1-.771 0-.973.207-.973 1 0 .8-.2 1-1 1s-1 .2-1 1c0 .814-.196 1-1.054 1-.606 0-1.442.418-1.966.984-.502.541-1.371 1.099-1.932 1.24-.56.14-1.122.578-1.247.973-.125.394-.595.813-1.044.93-.449.118-.911.577-1.027 1.021-.117.444-.598.862-1.071.93-.529.075-.907.458-.984.997a1.13 1.13 0 0 1-1 1 1.133 1.133 0 0 0-1 1 1.13 1.13 0 0 1-1 1c-.618.088-.912.448-1.002 1.225l-.126 1.1h-35.145c-36.977 0-36.402-.026-36.402 1.629 0 .204-.354.371-.786.371-.954 0-1.614 1.127-1.614 2.756 0 .755-.375 1.582-1 2.208l-1 1V110h-1c-.8 0-1 .2-1 1s-.2 1-1 1c-.793 0-1 .202-1 .973 0 .765-.236 1.001-1.1 1.1-.777.09-1.137.384-1.225 1.002a1.13 1.13 0 0 1-1 1 1.133 1.133 0 0 0-1 1 1.13 1.13 0 0 1-1 1c-.554.079-.922.455-1.003 1.025-.092.651-.396.9-1.1.9-.535 0-.972.193-.972.429 0 .675-1.005 1.507-2.175 1.8-.589.148-1.339.678-1.667 1.178-.327.5-.947 1.001-1.377 1.114-.461.12-.781.547-.781 1.042 0 .626-.252.837-1 .837-.793 0-1 .202-1 .973 0 .765-.236 1.001-1.1 1.1-.777.09-1.137.384-1.225 1.002a1.13 1.13 0 0 1-1 1 1.133 1.133 0 0 0-1 1 1.13 1.13 0 0 1-1 1c-.554.079-.922.455-1.003 1.025-.092.651-.396.9-1.1.9-.535 0-.972.193-.972.429 0 .675-1.005 1.507-2.175 1.8-.589.148-1.351.697-1.694 1.22-.343.523-.889.951-1.214.951-.326 0-.682.345-.792.766-.11.421-.634.875-1.163 1.008-.684.171-.962.521-.962 1.207 0 .756-.239.993-1.1 1.092-.777.09-1.137.384-1.225 1.002a1.13 1.13 0 0 1-1 1c-.554.079-.922.455-1.003 1.025-.092.651-.396.9-1.1.9-.77 0-.972.208-.972 1 0 .8-.2 1-1 1-.786 0-1 .203-1 .949 0 .801-.255.989-1.64 1.211-1.145.183-1.701.494-1.841 1.029-.11.421-.587.821-1.06.889-.472.067-1.032.517-1.244 1-.212.483-.797.981-1.3 1.108-.568.142-.915.53-.915 1.022 0 .496-.269.792-.72.792-.912 0-1.68.756-1.68 1.652 0 .413-.363.744-.9.82-.578.082-.946.45-1.028 1.028-.092.651-.396.9-1.1.9-.77 0-.972.208-.972 1 0 .8-.2 1-1 1s-1 .2-1 1-.2 1-1 1-1 .2-1 1c0 .622-.227 1-.6 1-.532 0-.6 15.067-.6 133.2 0 112.437.085 133.2.547 133.2.34 0 .632.63.77 1.658.253 1.887.74 2.327 2.583 2.336 1.118.005 1.3.146 1.3 1.006 0 .945.12 1 2.2 1 1.689 0 2.2.139 2.2.6 0 .532 21.333.6 189.6.6s189.6-.068 189.6-.6c0-.48.6-.6 3-.6 2.933 0 3-.022 3-1 0-.8.2-1 1-1s1-.2 1-1 .2-1 1-1c.983 0 1-.053 1-3.2 0-2.578.117-3.2.6-3.2.532 0 .6-14.689.6-129.8 0-115.111-.068-129.8-.6-129.8-.461 0-.6-.511-.6-2.2 0-2.08-.055-2.2-1-2.2-.8 0-1-.2-1-1 0-.792-.202-1-.972-1-.704 0-1.008-.249-1.1-.9-.079-.558-.449-.946-.973-1.021-.465-.066-1.046-.561-1.292-1.1-.245-.538-.701-.979-1.012-.979-.312 0-1.144-.54-1.851-1.2-.707-.66-1.613-1.2-2.014-1.2-.453 0-.779-.342-.858-.9-.081-.57-.449-.946-1.003-1.025a1.13 1.13 0 0 1-1-1c-.088-.618-.448-.912-1.225-1.002-.864-.099-1.1-.335-1.1-1.1 0-.771-.207-.973-1-.973-.8 0-1-.2-1-1 0-.792-.202-1-.972-1-.704 0-1.008-.249-1.1-.9-.079-.558-.449-.946-.973-1.021-.465-.066-1.046-.561-1.292-1.1-.251-.552-.786-.979-1.227-.979-.431 0-.896-.36-1.036-.8-.174-.549-.739-.877-1.805-1.047-1.3-.208-1.571-.418-1.673-1.301-.085-.729-.39-1.09-.997-1.177a1.13 1.13 0 0 1-1-1c-.088-.618-.448-.912-1.225-1.002-.864-.099-1.1-.335-1.1-1.1 0-.771-.207-.973-1-.973-.8 0-1-.2-1-1 0-.792-.202-1-.972-1-.704 0-1.008-.249-1.1-.9-.077-.544-.449-.946-.94-1.016-.447-.064-.987-.514-1.2-1-.213-.486-.775-.939-1.247-1.006-.473-.068-.95-.468-1.06-.889-.14-.535-.696-.846-1.841-1.029-1.385-.222-1.64-.41-1.64-1.211 0-.788-.204-.949-1.2-.949-1.067 0-1.2-.133-1.2-1.2 0-1.004-.159-1.2-.972-1.2-.704 0-1.008-.249-1.1-.9-.082-.578-.45-.946-1.028-1.028-.651-.092-.9-.396-.9-1.1 0-.763-.209-.972-.972-.972-.704 0-1.008-.249-1.1-.9-.077-.544-.449-.946-.94-1.016-.447-.064-.987-.514-1.2-1-.213-.486-.753-.936-1.2-1-.447-.064-.987-.514-1.2-1-.213-.486-.822-.945-1.353-1.02-1.042-.148-2.035-.946-2.035-1.635 0-.236-.54-.429-1.2-.429-1.013 0-1.2-.156-1.2-1 0-.8-.2-1-1-1h-1V48.4h-1c-.8 0-1-.2-1-1s-.2-1-1-1c-.799 0-1-.2-1-.998v-.998l-34.9-.102-34.9-.102-.128-.9c-.079-.556-.405-.9-.854-.9-.399 0-1.02-.448-1.379-.996-.442-.675-1.167-1.079-2.246-1.251-1.338-.214-1.593-.407-1.593-1.204 0-.746-.214-.949-1-.949-.8 0-1-.2-1-1s-.2-1-1-1-1-.2-1-1-.2-1-1-1-1-.2-1-1c0-.792-.202-1-.972-1-.704 0-1.008-.249-1.1-.9-.082-.578-.45-.946-1.027-1.028-.561-.079-.991-.493-1.144-1.1-.169-.673-.524-.972-1.154-.972-.548 0-.986-.294-1.103-.738-.106-.407-1.027-1.143-2.046-1.636-1.02-.494-1.854-1.151-1.854-1.462 0-.335-.406-.564-1-.564-.8 0-1-.2-1-1s-.2-1-1-1-1-.2-1-1c0-.792-.202-1-.972-1-.704 0-1.008-.249-1.1-.9-.08-.565-.449-.946-.99-1.023-.525-.075-.959-.505-1.108-1.1-.156-.621-.531-.977-1.03-.977-.503 0-.875-.358-1.036-1-.177-.708-.522-1-1.18-1-.658 0-.966-.262-1.056-.9-.087-.61-.45-.945-1.128-1.041-.55-.077-1.466-.662-2.036-1.3-.569-.637-1.424-1.159-1.9-1.159-.655 0-.864-.242-.864-1 0-.8-.2-1-1-1s-1-.2-1-1c0-.792-.202-1-.972-1-.704 0-1.008-.249-1.1-.9-.109-.766-.407-.918-2.003-1.021-1.581-.102-1.894-.258-2-1-.118-.831-.347-.885-4.225-.993-3.282-.091-4.1-.231-4.1-.7 0-.455-.583-.586-2.6-.586-2.044 0-2.6.128-2.6.6m7.762 14.4c.81.55 1.601 1 1.756 1 .156 0 1.298.945 2.538 2.1 1.241 1.155 3.932 3.54 5.982 5.3 2.049 1.76 4.138 3.56 4.64 4l3.198 2.8c1.256 1.1 2.77 2.495 3.364 3.1.595.605 1.284 1.1 1.533 1.1.249 0 .542.234.651.519.11.286 2.444 2.396 5.188 4.691 5.137 4.296 5.452 4.707 4.327 5.641-1.041.864-75.601.814-76.147-.051-.548-.866-.479-1.497.23-2.084 1.67-1.385 3.355-2.883 4.438-3.945 1.099-1.078 2.659-2.446 7.739-6.789 6.013-5.141 8.469-7.301 9.982-8.777 2.565-2.505 9.33-8.005 9.845-8.005.316 0 .574-.152.574-.339 0-1.561 7.945-1.765 10.162-.261m120.863 37.026l1.175 1.227v173.518l-2.2 2.076c-1.21 1.142-2.834 2.543-3.609 3.115-1.573 1.159-2.084 1.607-5.082 4.453-1.151 1.092-2.205 1.985-2.343 1.985-.138 0-1.096.9-2.129 2s-2.094 2-2.357 2c-.264 0-.48.157-.48.348 0 .192-1.795 1.849-3.989 3.682-2.194 1.834-4.078 3.567-4.187 3.852-.109.285-.454.518-.765.518-.312 0-.862.45-1.222 1-.361.55-.926 1-1.256 1-.33 0-.772.45-.981 1-.209.55-.634 1-.944 1-.31 0-.85.436-1.199.97-.35.533-1 1.085-1.446 1.227-.446.141-.811.515-.811.83 0 .315-.189.573-.419.573-.231 0-.816.418-1.3.93-.753.794-1.796 1.674-6.142 5.178-1.01.815-3.429 3.003-5.339 4.83-.99.948-2.115 1.838-2.5 1.98-.385.141-.7.533-.7.869 0 .337-.174.613-.386.613-.213 0-.906.495-1.541 1.1-1.312 1.251-4.563 4.004-5.785 4.9-.45.33-1.279 1.095-1.842 1.7-.563.605-1.183 1.1-1.378 1.1-.194 0-1.198.9-2.231 2s-2.007 2-2.166 2c-.158 0-1.159.855-2.224 1.9-1.065 1.045-2.615 2.44-3.446 3.1-2.628 2.088-3.889 3.168-5.022 4.3-.605.605-1.215 1.1-1.355 1.1-.14 0-1.141.855-2.223 1.9-4.375 4.225-11.745 10.5-12.333 10.5-.228 0-.528.36-.668.8-.14.44-.416.8-.613.8-.198 0-.912.54-1.587 1.2-.675.66-1.389 1.2-1.587 1.2-.197 0-.473.36-.613.8-.14.44-.502.8-.804.8-.303 0-.786.332-1.073.738-.288.406-1.963 1.932-3.723 3.39l-4.2 3.483a83.363 83.363 0 0 0-2.296 2.01c-.713.648-1.478 1.179-1.7 1.179-.222 0-.404.264-.404.586 0 .322-.405.8-.9 1.061-.495.261-1.295.852-1.778 1.314-3.043 2.907-7.979 7.039-8.408 7.039-.218 0-.883.45-1.476 1-1.939 1.796-3.949 1.08-9.265-3.3-1.402-1.155-2.722-2.1-2.934-2.1-.212 0-.499-.36-.639-.8-.14-.44-.415-.8-.612-.8-.333 0-1.866-1.362-6.865-6.1-1.102-1.045-2.087-1.9-2.188-1.9-.33 0-6.726-5.651-7.055-6.233-.176-.312-.511-.567-.744-.567-.233 0-1.223-.81-2.199-1.8-.976-.99-1.878-1.8-2.005-1.8-.128 0-1.104-.9-2.17-2-1.065-1.1-2.119-2-2.34-2-.222 0-.698-.45-1.059-1-.36-.55-.822-1-1.026-1-.448 0-6.324-5.056-7.06-6.076-.287-.398-.77-.724-1.073-.724-.302 0-.664-.36-.804-.8-.14-.44-.418-.8-.618-.8s-1.367-.945-2.592-2.1c-1.226-1.155-2.715-2.507-3.309-3.004-5.581-4.667-7.163-6.02-7.941-6.796-.497-.495-1.092-.9-1.322-.9-.23 0-.418-.264-.418-.586 0-.322-.405-.798-.9-1.058s-1.62-1.222-2.5-2.139c-.88-.917-1.932-1.791-2.338-1.944-.406-.152-.832-.636-.947-1.075-.114-.439-.412-.801-.662-.804-.249-.004-1.083-.545-1.853-1.202-4.52-3.86-7.888-6.833-10.745-9.483-3.002-2.784-3.215-2.971-7.848-6.854-2.204-1.847-4.457-3.786-5.007-4.309-4.487-4.266-5.699-5.346-6-5.346-.19 0-.46-.36-.6-.8-.14-.44-.46-.8-.713-.8-.252 0-.825-.36-1.273-.8-.448-.441-2.274-2.036-4.058-3.545-3.993-3.376-4.253-3.607-6.847-6.07-1.151-1.092-2.28-1.985-2.509-1.985-.229 0-.621-.447-.869-.992-.249-.546-.785-1.098-1.192-1.227-.407-.13-.926-.583-1.153-1.008-.228-.425-.606-.773-.84-.773-.709 0-2.835-2.521-3.202-3.797-.489-1.701-.446-171.252.044-172.961.213-.744.691-1.687 1.062-2.097.655-.724 4.257-.745 125.337-.745H324.25l1.175 1.226M110.011 112.62c-.764.539-1.598.98-1.853.98-1.636 0-1.288 5.538.461 7.339l1.42 1.461h177.849l1.456-1.373c1.832-1.727 2.22-7.427.506-7.427-.255 0-1.127-.45-1.936-1l-1.472-1-87.521.02-87.521.019-1.389.981m-42.36 14.841c.89 1.072 1.04 39.036.159 40.38l-.633.966-22.84-.104c-27.29-.123-26.101.13-20.749-4.419 1.742-1.48 3.441-2.797 3.774-2.925.334-.128.717-.576.85-.996.133-.42.423-.763.644-.763.221 0 1.313-.855 2.427-1.9 3.743-3.511 4.607-4.296 5.564-5.061.524-.419 2.24-1.904 3.813-3.3 1.573-1.397 2.959-2.539 3.081-2.539.122 0 1.02-.81 1.996-1.8s1.902-1.8 2.058-1.8c.156 0 .772-.495 1.369-1.1 1.715-1.739 4.781-4.488 8.035-7.206 1.651-1.378 3.843-3.313 4.872-4.3 1.03-.987 1.999-1.794 2.155-1.794.155 0 .699-.45 1.209-1 1.088-1.174 1.473-1.233 2.216-.339m269.303 2.922c.415.339 1.21 1.112 1.767 1.717.556.605 1.143 1.1 1.305 1.1.161 0 1.212.9 2.335 2 1.124 1.1 2.21 2 2.414 2 .204 0 .485.36.625.8.14.44.436.8.659.8.222 0 1.785 1.207 3.473 2.683a335.71 335.71 0 0 0 3.815 3.3 70.954 70.954 0 0 1 2.059 1.817c.722.66 2.229 2.01 3.349 3 1.12.99 2.92 2.61 3.999 3.6 1.08.99 2.654 2.34 3.499 3 .845.66 2.115 1.74 2.823 2.4.708.66 2.229 2.01 3.38 3 1.151.99 2.695 2.385 3.432 3.1.736.715 1.501 1.3 1.698 1.3.617 0 .905 1.609.398 2.219-.651.784-45.123.882-45.904.101-.36-.36-.48-5.391-.48-20.177v-19.698l.866-.606c.806-.565.963-.52 2.3.66.789.696 1.774 1.544 2.188 1.884m-227.205 19.153c-2.22 1.151-2.549 1.808-2.549 5.086 0 1.427.246 1.982 1.442 3.25l1.441 1.528H287.8l1.5-1.428c1.432-1.364 1.5-1.546 1.494-4-.007-3.051-.016-3.065-2.698-4.472L286 148.4l-87.1.036-87.1.036-2.051 1.064m-42.098 25.126c.883 1.064.807 45.852-.08 46.738-.735.735-1.812.444-2.396-.647-.222-.414-.658-.753-.969-.753-.312 0-.71-.246-.886-.547-.176-.301-2.39-2.333-4.92-4.515-6.181-5.331-7.983-6.935-9.25-8.238-.589-.605-1.183-1.1-1.319-1.1-.213 0-1.526-1.185-5.231-4.722-.44-.42-2.24-1.982-4-3.471-3.432-2.904-3.707-3.151-6.884-6.204-1.147-1.102-2.2-2.003-2.34-2.003-.14 0-.736-.495-1.325-1.1-.951-.978-2.921-2.723-7.184-6.362-5.529-4.72-6.99-6.358-6.291-7.056 1.032-1.033 52.219-1.052 53.075-.02m315.616-.001c.842.762.651.965-8.219 8.739-1.255 1.1-3.17 2.855-4.256 3.9-1.086 1.045-2.073 1.9-2.192 1.9-.119 0-1.158.893-2.309 1.985-2.711 2.574-3.072 2.898-6.881 6.181-3.046 2.624-3.693 3.209-5.902 5.334-.515.495-1.134.9-1.375.9-.242 0-.534.359-.648.798-.115.439-.538.924-.94 1.078-.402.155-1.56 1.101-2.574 2.102-1.014 1.002-2.973 2.812-4.354 4.022-1.38 1.21-2.915 2.56-3.411 3-.495.44-1.689 1.486-2.653 2.325-.964.839-2.246 1.959-2.848 2.489-.84.74-1.306.886-2 .629l-.905-.335-.103-22.309c-.075-16.143.021-22.46.349-22.854.754-.909 50.212-.797 51.221.116m8.51 10.228c1.049 1.497.94 235.831-.109 237.127l-.733.904-62.205-62.191c-40.946-40.939-62.35-62.612-62.632-63.421-.47-1.346.227-2.908 1.298-2.908.302 0 .664-.36.804-.8.14-.44.402-.8.582-.8.181 0 1.338-.945 2.572-2.1 1.234-1.155 3.249-3 4.478-4.1 1.229-1.1 2.535-2.293 2.901-2.65.367-.358 2.109-1.888 3.871-3.4 1.763-1.513 3.589-3.11 4.06-3.55.47-.44 1.458-1.302 2.196-1.916.737-.614 1.52-1.294 1.74-1.511 1.445-1.428 5.305-4.992 6.902-6.373 3.835-3.317 6.366-5.523 7.342-6.4a950.115 950.115 0 0 0 7.725-7c2.291-2.106 2.917-2.659 7.008-6.2 1.397-1.21 3.039-2.65 3.648-3.2.609-.55 1.708-1.502 2.441-2.116.734-.614 1.514-1.294 1.734-1.511 1.499-1.481 5.07-4.775 7.994-7.373 1.237-1.1 2.748-2.45 3.356-3 .608-.55 2.158-1.9 3.444-3s2.925-2.54 3.641-3.2a604.02 604.02 0 0 1 3.434-3.124 2540.94 2540.94 0 0 0 4.199-3.8 389.07 389.07 0 0 1 4.59-4.076c1.387-1.21 3.139-2.785 3.893-3.5.754-.715 1.585-1.3 1.846-1.3.261 0 .68-.45.93-1 .251-.55.634-1 .853-1 .218 0 1.273-.9 2.345-2 1.071-1.1 2.044-2 2.161-2 .118 0 1.091-.818 2.164-1.819 3.065-2.858 3.744-3.465 7.15-6.387 1.76-1.51 3.435-3.072 3.723-3.47.287-.398.687-.724.888-.724.201 0 1.242-.9 2.314-2 1.071-1.1 2.086-2 2.254-2 .168 0 .66-.45 1.092-1 .967-1.229 1.31-1.247 2.106-.111M7.8 185.6c.136.22.589.4 1.008.4.418 0 1.669.895 2.78 1.988 1.11 1.093 2.377 2.179 2.816 2.414.438.234.796.69.796 1.012 0 .322.17.586.378.586.451 0 6.067 4.759 10.267 8.7.997.935 1.913 1.7 2.036 1.7s1.197.945 2.388 2.1c2.591 2.512 2.542 2.468 8.131 7.3 2.435 2.105 4.781 4.181 5.214 4.614.432.432.954.786 1.159.786.205 0 .487.36.627.8.14.44.482.8.761.8s.962.495 1.518 1.1c.556.605 2.04 2 3.298 3.1s2.627 2.309 3.041 2.686c.415.378 2.156 1.891 3.868 3.363 3.27 2.81 3.339 2.872 7.036 6.237 3.702 3.37 6.298 5.691 8.928 7.981a1938.75 1938.75 0 0 1 4.956 4.333l3.648 3.2c.628.55 2.509 2.305 4.18 3.9 1.671 1.595 3.133 2.9 3.248 2.9.218 0 5.287 4.363 6.733 5.794.448.443 1.865 1.706 3.149 2.806 1.283 1.1 3.23 2.855 4.325 3.9 1.096 1.045 2.144 1.9 2.329 1.9.185 0 .572.329.859.731.288.403 1.873 1.869 3.523 3.26 3.169 2.671 3.73 3.173 7.141 6.39 1.177 1.11 2.262 2.019 2.41 2.019.149 0 .727.495 1.284 1.1.557.605 2.052 2 3.323 3.1s2.815 2.45 3.431 3c.617.55 2.041 1.793 3.166 2.761 3.63 3.126 9.659-3.516-60.153 66.267C37.193 394.823 8.969 422.8 8.682 422.8c-.287 0-.745.223-1.019.497-.395.395-.573.375-.874-.1-.415-.657-.56-236.285-.146-237.364.276-.72.792-.823 1.157-.233m101.805 1.018c-2.102 1.152-2.339 1.617-2.377 4.666-.02 1.6.157 2.439.591 2.8.341.284.981.876 1.423 1.316.799.795 1.338.8 89.804.8h89l.677-.842c.372-.463.992-.952 1.377-1.087.569-.2.7-.729.7-2.826 0-3.376-.12-3.615-2.426-4.821l-1.959-1.024-87.508.018-87.507.017-1.795.983m-.082 36.885c-2.052 1.181-2.312 1.71-2.311 4.697 0 2.249.067 2.385 1.919 3.906l1.33 1.094h176.994l1.672-1.286c2.917-2.241 2.529-6.538-.762-8.449l-1.835-1.065-87.565.011-87.565.012-1.877 1.08m36.772 83.964c1.488 1.247 2.995 2.552 3.349 2.9.354.348 1.776 1.623 3.161 2.833 2.902 2.537 4.823 4.255 5.395 4.824.425.423.955.917 2.275 2.122.45.411 2.732 2.38 5.071 4.377 2.34 1.996 4.625 4 5.078 4.453.453.453 1.872 1.724 3.153 2.824 1.281 1.1 3.215 2.81 4.298 3.8 1.721 1.574 3.334 3 5.882 5.2 1.861 1.607 4.034 3.2 4.366 3.2.203 0 .862.387 1.464.861 3.274 2.575 16.644 2.765 19.138.271.334-.334 1.207-.851 1.941-1.149.734-.299 1.569-.867 1.857-1.263.287-.396.742-.72 1.011-.72.268 0 .943-.495 1.5-1.1 1.295-1.408 3.488-3.393 8.962-8.111 2.417-2.084 4.725-4.194 5.129-4.689.403-.495.978-.9 1.277-.9.299 0 .658-.36.798-.8.14-.44.423-.8.63-.8.206 0 .767-.45 1.245-1 .478-.55 1.078-1 1.333-1 .255 0 .669-.45.919-1 .251-.55.69-1 .975-1 .286 0 .977-.495 1.536-1.1 1.268-1.373 7.482-6.992 8.189-7.406.288-.168 1.037-.798 1.666-1.4.628-.602 2.124-1.956 3.324-3.009 1.201-1.053 2.549-2.268 2.997-2.7 1.257-1.212 3.921-1.086 4.513.215.251.55.6 1 .776 1 .504 0 5.697 5.068 5.697 5.559 0 .243.174.441.387.441.493 0 3.048 2.545 3.612 3.598.236.441.697.802 1.024.802.327 0 .799.45 1.05 1 .25.55.613 1 .805 1 .483 0 3.122 2.682 3.122 3.173 0 .219.315.57.7.779 1.105.6 5.7 5.122 5.7 5.609 0 .241.174.439.387.439.493 0 3.048 2.545 3.612 3.598.236.441.603.802.815.802.503 0 5.186 4.683 5.186 5.186 0 .212.366.582.813.821 1.01.54 9.069 8.626 9.615 9.646.22.411.579.747.798.747.218 0 1.565 1.215 2.992 2.7s2.727 2.837 2.889 3.004c.161.167 1.058 1.022 1.993 1.9.935.877 1.7 1.775 1.7 1.996 0 .22.188.4.418.4.517 0 5.582 5.123 5.582 5.646 0 .208.299.494.665.634.813.312 9.735 9.258 9.735 9.761 0 .197.191.359.425.359.5 0 5.975 5.547 5.975 6.053 0 .191.172.347.383.347.506 0 9.617 9.103 9.617 9.608 0 .216.191.392.425.392.5 0 5.975 5.547 5.975 6.053 0 .191.172.347.383.347.506 0 9.617 9.103 9.617 9.608 0 .216.176.392.392.392.505 0 9.608 9.111 9.608 9.617a.39.39 0 0 0 .393.383c.584 0 12.007 11.543 12.007 12.133 0 .279-.216.723-.48.987-.7.7-366.34.7-367.04 0-.264-.264-.48-.703-.48-.976 0-.554 11.501-12.144 12.051-12.144.192 0 .349-.178.349-.396 0-.482 9.171-9.604 9.656-9.604a.344.344 0 0 0 .344-.342c0-.474 9.148-9.658 9.619-9.658.21 0 .381-.156.381-.347 0-.477 5.567-6.053 6.043-6.053.21 0 .484-.266.609-.591.307-.8 8.892-9.409 9.383-9.409.215 0 .495-.274.624-.609.304-.793 5.139-5.628 5.932-5.932.335-.129.613-.465.618-.746.004-.282.655-1.053 1.445-1.713.789-.66 1.641-1.426 1.891-1.703 2.193-2.424 5.578-5.697 5.892-5.697.213 0 .493-.274.622-.609.295-.769 5.294-5.791 5.764-5.791.192 0 .546-.369.788-.82.241-.452 1.013-1.347 1.714-1.991 1.467-1.346 1.122-1.002 4.504-4.489 1.441-1.485 2.782-2.7 2.981-2.7.199 0 .532-.315.741-.7.336-.62 4.793-5.211 6.137-6.323.282-.232.976-.975 1.543-1.649.568-.675 1.423-1.436 1.9-1.691.478-.256.869-.624.869-.819 0-.341 4.697-5.218 5.026-5.218.089 0 1.289-1.194 2.668-2.653 2.71-2.868 3.558-3.715 4.377-4.37.291-.232.993-.975 1.56-1.649.568-.675 1.411-1.429 1.873-1.677.463-.248.951-.765 1.085-1.151.134-.385.941-1.24 1.794-1.9.852-.66 1.741-1.605 1.975-2.1.234-.495.592-.9.796-.9.471 0 5.646-5.154 5.646-5.623 0-.192.391-.558.869-.814.477-.255 1.332-1.016 1.9-1.691.567-.674 1.277-1.417 1.577-1.649.301-.233 1.016-.918 1.589-1.523 1.466-1.546 2.092-1.404 5.16 1.167" fill="#070909"/><path d="M197.512 15.978c-.366.427-1.297.896-2.07 1.04-.84.158-1.656.649-2.032 1.223-.346.527-.865.959-1.155.959-.29 0-.732.45-.982 1-.251.55-.657 1-.904 1-.246 0-.946.495-1.554 1.1-2.013 2.002-5.71 5.096-6.413 5.367-.38.146-.801.554-.936.906-.135.351-.7.812-1.256 1.023-.555.211-1.01.655-1.01.986 0 .332-.433.711-.962.844-.529.133-1.056.6-1.171 1.038-.114.437-.575.891-1.024 1.009-.449.117-.925.554-1.057.97-.132.416-.402.757-.599.757-.198 0-.884.495-1.525 1.1-2.439 2.303-5.799 5.119-6.665 5.588-.496.268-1.009.768-1.141 1.11-.131.341-.647.785-1.147.986-.559.225 13.094.375 35.415.391 24.12.016 36.24-.109 36.076-.375-.136-.22-.433-.4-.66-.4-.227 0-1.251-.866-2.276-1.924-1.025-1.058-2.179-2.043-2.564-2.188-.385-.144-.7-.535-.7-.868 0-.333-.427-.712-.95-.843-.522-.131-1.148-.675-1.391-1.208-.243-.533-.65-.969-.905-.969-.254 0-.873-.405-1.374-.9-.502-.495-1.575-1.44-2.384-2.1-.809-.66-2.02-1.65-2.691-2.2a28.437 28.437 0 0 1-2.251-2.1c-.568-.605-1.233-1.1-1.479-1.1s-.652-.45-.902-1c-.251-.55-.656-1-.901-1-.244 0-1.312-.9-2.372-2-1.06-1.1-2.058-2-2.218-2-.16 0-.689-.405-1.177-.9-1.504-1.528-3.458-2.861-4.935-3.369-.777-.267-1.57-.766-1.761-1.108-.515-.92-3.165-.817-3.997.155M75.6 52.8c-.747.584-.835.784-.349.791.358.005.875-.261 1.149-.591.441-.531 14.625-.6 123.252-.6h122.753l.898 1.026c.493.564 1.014 1.419 1.157 1.9.593 1.994.371 168.922-.226 170.074-.469.904-3.909 4.394-6.423 6.516-.336.283-.611.668-.611.854 0 .186.675-.287 1.5-1.051.825-.765 2.372-2.139 3.437-3.054 1.066-.916 2.191-2.151 2.5-2.745.479-.919.563-13.813.563-86.122V54.757l-1.1-1.378L323 52l-123.2.009c-121.652.009-123.213.019-124.2.791m-1.004 87.6c0 47.63.047 67.115.104 43.3.057-23.815.057-62.785 0-86.6-.057-23.815-.104-4.33-.104 43.3m34.104-29.969c-.385.225-.7.67-.7.989 0 .433.202.378.8-.22 1.237-1.237 179.133-1.267 180.37-.03.423.423 1.143.969 1.6 1.214.456.244.844.753.862 1.13.02.45.103.507.24.165.115-.286-.477-1.186-1.315-2l-1.523-1.479-89.817-.089c-60.658-.061-90.044.043-90.517.32m-2.308 2.179c-.278.335-.426.69-.328.788.098.098.482-.177.853-.61.372-.433.519-.788.328-.788s-.575.274-.853.61m-1.351 2.253c-.716 1.022-.866 3.751-.228 4.145.227.14.779 1.034 1.226 1.986.774 1.647 2.803 3.098 3.44 2.46.14-.14-.012-.254-.337-.254-2.222 0-4.735-5.771-3.51-8.061.619-1.155.171-1.364-.591-.276M292 114.714c0 .242.197.56.438.709.463.286.321 2.624-.241 3.977-.328.789-.321.79.535.038 1.149-1.009 1.186-3.426.068-4.438-.44-.398-.8-.527-.8-.286m-1.159 6.943c-.528.667-1.338 1.366-1.8 1.552-.726.294-.741.344-.11.366.778.027 3.069-2.022 3.069-2.744 0-.599-.074-.546-1.159.826M154.468 123.9c24.347.057 64.307.057 88.8 0 24.493-.057 4.572-.104-44.268-.104s-68.879.047-44.532.104M333.2 148.6v18.6h42.428l-1.514-1.273a96.078 96.078 0 0 1-4.848-4.352c-.586-.563-1.381-1.142-1.766-1.287-.385-.145-.7-.539-.7-.875a.603.603 0 0 0-.588-.613c-.323 0-.976-.525-1.451-1.167-.474-.641-1.199-1.254-1.611-1.362-.413-.108-.75-.454-.75-.769 0-.316-.455-.781-1.011-1.034-.556-.254-1.116-.733-1.243-1.065-.127-.331-.413-.603-.635-.603-.39 0-5.471-4.236-6.728-5.609-.339-.37-1.014-.886-1.5-1.146-.485-.26-.883-.733-.883-1.051 0-.319-.444-.69-.986-.826s-1.085-.562-1.207-.947c-.122-.385-.669-.903-1.215-1.152-.545-.248-.992-.722-.992-1.053 0-.33-.444-.712-.986-.848s-1.094-.59-1.227-1.008c-.132-.418-.495-.76-.805-.76-.31 0-.858-.45-1.219-1-.36-.55-.822-1-1.026-1-.542 0-6.514-5.267-6.666-5.879-.658-2.648-.871 1.772-.871 18.079M63.6 131.916c-.55.371-1.235.992-1.523 1.379-.287.388-.761.705-1.053.705-.292 0-.628.373-.748.83-.119.456-.568.921-.998 1.034-.429.112-.979.639-1.221 1.17-.242.531-.641.966-.888.966-.246 0-.939.495-1.539 1.1-1.914 1.929-5.699 5.096-6.243 5.223-.289.068-.814.563-1.166 1.1-.351.538-.974.977-1.384.977-.416 0-.839.365-.961.83-.119.456-.573.923-1.009 1.037-.436.114-.882.548-.991.965-.109.417-.666.936-1.237 1.153-.572.217-1.039.675-1.039 1.018 0 .342-.308.74-.685.885-.376.144-1.543 1.084-2.592 2.087a62.824 62.824 0 0 1-3.959 3.425c-1.129.88-2.342 1.915-2.697 2.3-.355.385-.952.7-1.328.7-.404 0-.736.368-.811.9-.08.563-.449.946-.987 1.022-.473.068-.95.471-1.062.896-.111.425-.669.95-1.24 1.167-.572.217-1.039.642-1.039.944 0 .302-.405.744-.9.983-.66.318 4.726.441 20.2.461l21.1.027v-17.367c0-19.834.059-19.305-2-17.917m91.332 15.184c24.383.057 64.163.057 88.4 0 24.237-.057 4.288-.104-44.332-.104-48.62 0-68.451.047-44.068.104m-46.609.826c-.288.4-.832.842-1.21.983-.378.141-.945.872-1.26 1.625-.314.752-.77 1.491-1.012 1.641-.783.483-.512 3.224.421 4.264.725.808.811.834.539.161-1.275-3.155.706-7.884 3.817-9.108.458-.18.438-.236-.095-.26-.373-.018-.913.295-1.2.694m181.077.474c.831.66 1.652 1.2 1.826 1.2.173 0 .4.274.504.608.147.472.175.459.129-.057-.032-.366-.416-.865-.853-1.108-.437-.244-1.032-.758-1.323-1.143-.29-.385-.813-.7-1.161-.7-.381 0-.033.476.878 1.2m2.812 3.4c.192.44.348 1.43.348 2.2 0 .77-.156 1.76-.348 2.2-.343.789-.336.79.52.038.596-.523.868-1.224.868-2.238s-.272-1.715-.868-2.238c-.856-.752-.863-.751-.52.038m-.612 5.858c0 .836-2.314 2.445-3.988 2.773-1.294.254-1.317.281-.272.323 2.189.088 5.52-2.428 4.527-3.42-.147-.147-.267-.001-.267.324m-185.587.187c-.04 1.406 3.743 3.437 5.266 2.827.286-.115-.04-.223-.725-.24-1.189-.031-2.994-1.113-4.041-2.423-.268-.335-.493-.409-.5-.164M19.084 176.8c-.115.44-.044.8.157.8s.931.54 1.622 1.2c.691.66 1.413 1.2 1.606 1.2.193 0 .522.45.731 1 .209.55.648 1 .976 1 .328 0 .793.369 1.034.819.241.451.878.986 1.414 1.19.537.204.976.646.976.981 0 .336.174.61.386.61.213 0 .913.495 1.557 1.1a36.82 36.82 0 0 0 2.492 2.1c.728.55 1.911 1.585 2.631 2.3.719.715 1.427 1.3 1.574 1.3.147 0 1.153.9 2.236 2 1.082 1.1 2.143 2 2.356 2 .213 0 .559.45.768 1 .209.55.644 1 .967 1 .323 0 .823.331 1.11.737.288.405.928.951 1.423 1.214.495.262.9.729.9 1.036 0 .308.357.673.794.811.437.139 1.295.736 1.906 1.327s2.175 1.975 3.475 3.075c1.3 1.1 2.827 2.461 3.394 3.025.567.563 1.346 1.142 1.731 1.287.385.145.7.539.7.875 0 .337.168.613.373.613.323 0 3.119 2.465 5.876 5.179l.848.835.252-1.257c.441-2.207.291-39.536-.163-40.383-.661-1.236-45.779-1.21-46.102.026m314.141 20.5c.016 13.122.165 20.954.387 20.4.199-.495.617-.9.929-.9.312 0 .862-.45 1.222-1 .361-.55.926-1 1.256-1 .33 0 .772-.45.981-1 .209-.55.555-1 .768-1 .213 0 1.274-.9 2.356-2 1.083-1.1 2.101-2 2.262-2 .161 0 .77-.495 1.354-1.1 1.439-1.493 4.59-4.097 4.96-4.099.165 0 .3-.251.3-.558 0-.306.45-.669 1-.807s1-.511 1-.83c0-.318.356-.768.791-1.001.435-.233 1.237-.869 1.782-1.414.545-.545 1.179-.991 1.409-.991.23 0 .418-.274.418-.609 0-.334.447-.812.992-1.06.546-.249 1.098-.785 1.227-1.192.129-.406.453-.739.719-.739.266 0 .944-.495 1.507-1.1.563-.605 2.085-2 3.383-3.1s2.861-2.484 3.472-3.075c.611-.591 1.469-1.188 1.906-1.327.437-.138.794-.503.794-.811 0-.307.356-.749.791-.982.435-.233 1.237-.869 1.782-1.414.545-.545 1.179-.991 1.409-.991.23 0 .418-.264.418-.586 0-.322.331-.763.736-.98 1.305-.698 3.264-2.736 3.264-3.394 0-.579-2.174-.64-22.8-.64h-22.8l.025 21.3m-224.902-12.563c-.288.405-.928.951-1.423 1.214-.495.262-.9.72-.9 1.017 0 .297.755-.151 1.679-.995.964-.881 2.198-1.6 2.9-1.689 1.125-.144 1.105-.161-.256-.22-1.031-.045-1.636.159-2 .673m179.077-.46c.66.103 1.642.578 2.182 1.055l.981.868-.627-1c-.48-.765-.992-1.013-2.182-1.055-1.175-.042-1.261-.009-.354.132m4.056 3.023c.328.715.764 1.613.97 1.995.481.892.484 2.99.005 3.286-.203.125-.481.738-.618 1.362-.269 1.225-2.202 2.903-3.813 3.31-.971.245-.973.254-.08.3 1.593.082 3.136-1.035 4.015-2.905.462-.982 1.025-1.9 1.252-2.04.725-.448.48-3.223-.351-3.975-.42-.381-.874-1.129-1.008-1.662-.134-.534-.406-.971-.605-.971-.199 0-.094.585.233 1.3m97.481 1.1c-.588.66-1.297 1.2-1.576 1.2-.279 0-.621.36-.761.799-.139.44-.674.905-1.189 1.034-.514.129-1.029.593-1.144 1.031-.114.437-.559.887-.989 1-.429.112-.979.639-1.221 1.17-.242.531-.631.966-.864.966-.233 0-1.362.901-2.509 2.003-4.189 4.025-9.291 8.397-9.798 8.397-.197 0-.563.45-.813 1-.254.557-.793 1-1.218 1-.434 0-.855.356-.979.83-.119.456-.568.921-.998 1.034-.429.112-.979.639-1.221 1.17-.254.558-.782.966-1.248.966-.542 0-.809.264-.809.8 0 .44-.174.8-.386.8-.213 0-.919.495-1.57 1.1-4.118 3.827-5.77 5.28-7.62 6.7-1.146.88-2.256 1.915-2.468 2.3-.211.385-.717.7-1.123.7-.412 0-.836.368-.957.83-.119.456-.568.921-.998 1.034-.429.112-.979.639-1.221 1.17-.242.531-.631.966-.864.966-.233 0-1.309.855-2.39 1.9-3.643 3.521-6.253 5.893-7.808 7.1-.851.66-2.036 1.695-2.632 2.3-.596.605-1.351 1.1-1.677 1.1-.326 0-.69.373-.81.83-.119.456-.584.925-1.033 1.043-.449.117-.928.564-1.064.993-.136.429-.682.945-1.213 1.147-.531.202-.966.638-.966.969 0 .332-.45.716-1 .854s-1 .505-1 .816c0 .311-.447.769-.992 1.017-.546.249-1.098.785-1.227 1.192-.129.406-.397.739-.594.739-.198 0-.881.495-1.519 1.1-2.749 2.608-6.196 5.509-6.681 5.623-.289.068-.814.563-1.166 1.1-.351.538-.91.977-1.24.977-.33 0-.772.45-.981 1-.209.55-.634 1-.944 1-.31 0-.859.45-1.219 1-.361.55-.921 1-1.246 1a.592.592 0 0 0-.591.59c0 .324-.527.862-1.172 1.195-.644.334-1.286.968-1.427 1.411-.14.442-.504.804-.808.804-.304 0-.697.246-.873.547-.474.809-8.774 7.853-9.254 7.853-.227 0-.53.37-.673.823-.144.453-.696.988-1.227 1.19-.531.202-.966.638-.966.969 0 .332-.444.714-.986.85s-1.097.6-1.234 1.031c-.137.43-.683.948-1.214 1.15-.531.202-.966.642-.966.977 0 .336-.19.61-.423.61-.232 0-.907.511-1.5 1.135-1.788 1.883-8.762 7.665-9.245 7.665-.249 0-.623.45-.832 1-.209.55-.634 1-.944 1-.31 0-.859.45-1.219 1-.361.55-.921 1-1.246 1-.325 0-.591.098-.591.217 0 .274 123.123 123.383 123.397 123.383.112 0 .203-52.29.203-116.2 0-127.267.187-117.75-2.263-115m-283.873.329c-2.174 2.403 2.081 9.56 5.204 8.753.544-.141.475-.205-.268-.252-2.931-.183-6.194-6.476-4.327-8.343.261-.261.38-.568.265-.683-.115-.115-.508.121-.874.525M8.8 304.4c0 63.36.09 115.2.199 115.2.11 0 27.56-27.358 61-60.797 61.412-61.407 62.75-62.803 60.21-62.803-.325 0-.881-.443-1.236-.984-.354-.542-.979-1.091-1.388-1.221-.409-.13-.847-.559-.972-.955-.126-.395-.675-.922-1.221-1.171-.545-.248-.992-.706-.992-1.017 0-.311-.438-.675-.973-.81-.536-.134-1.088-.603-1.227-1.043-.14-.439-.499-.799-.798-.799-.299 0-.872-.411-1.273-.914-.401-.503-1.153-1.209-1.672-1.568-1.279-.887-4.506-3.711-6.875-6.018-1.073-1.045-2.142-1.9-2.375-1.9-.233 0-.622-.435-.864-.966-.242-.531-.792-1.058-1.221-1.17-.43-.113-.875-.563-.989-1-.115-.438-.63-.902-1.144-1.031-.515-.129-1.05-.594-1.189-1.034-.14-.439-.485-.799-.768-.799-.282 0-1.045-.495-1.696-1.1-.65-.605-2.319-2.09-3.708-3.3-1.39-1.21-3.051-2.695-3.691-3.3-.641-.605-1.326-1.1-1.524-1.1-.197 0-.467-.341-.599-.757-.132-.416-.608-.853-1.057-.97-.449-.118-.914-.587-1.033-1.043-.12-.457-.462-.83-.761-.83-.3 0-.827-.431-1.172-.958-.346-.527-.993-1.054-1.439-1.171-.446-.116-.909-.585-1.028-1.041-.12-.457-.447-.83-.728-.83-.281 0-1.055-.508-1.719-1.128a50.957 50.957 0 0 0-2.698-2.3c-1.989-1.564-2.579-2.157-2.579-2.593 0-.2-.444-.475-.986-.611s-1.091-.58-1.22-.987c-.129-.407-.577-.848-.994-.981-.417-.133-.864-.572-.993-.977-.128-.405-.601-.833-1.05-.95-.449-.118-.91-.572-1.024-1.009-.115-.438-.63-.902-1.144-1.031-.515-.129-1.05-.594-1.189-1.034-.14-.439-.472-.799-.738-.799s-.948-.495-1.515-1.1c-.567-.605-1.705-1.64-2.528-2.3-2.735-2.193-3.913-3.189-5.085-4.3-.639-.605-1.323-1.1-1.521-1.1-.197 0-.473-.36-.613-.8-.14-.44-.516-.8-.836-.8-.319 0-.78-.436-1.023-.969-.243-.533-.869-1.077-1.391-1.208-.523-.131-.95-.509-.95-.839 0-.331-.447-.805-.992-1.053-.546-.249-1.093-.767-1.215-1.152-.122-.385-.665-.811-1.207-.947-.542-.136-.986-.519-.986-.852 0-.333-.315-.723-.7-.867-.731-.274-4.715-3.562-6.479-5.346-.561-.569-1.426-1.25-1.921-1.515-.495-.264-.9-.723-.9-1.019 0-.297-.373-.637-.83-.757-.456-.119-.923-.575-1.037-1.012-.115-.438-.642-.905-1.171-1.038s-.962-.512-.962-.844c0-.331-.467-.78-1.039-.997-.571-.217-1.132-.752-1.246-1.19-.115-.437-.475-.795-.801-.795-.326 0-1.079-.495-1.673-1.1-1.665-1.696-5.661-5.058-6.485-5.457-.406-.197-.844-.692-.974-1.1-.13-.409-.389-.743-.575-.743-.524 0-3.607-2.988-3.607-3.495 0-.247-.405-.507-.9-.577-.495-.07-1.073-.522-1.284-1.003-.212-.482-.72-.963-1.13-1.071-.41-.107-.843-.568-.962-1.024-.12-.457-.484-.83-.81-.83-.326 0-1.097-.54-1.714-1.2-2.618-2.803-2.4-13.165-2.4 114m146.532-106.5c24.163.057 63.583.057 87.6 0 24.017-.057 4.248-.104-43.932-.104s-67.831.047-43.668.104m-47.209 23.891c-.617.548-1.348 1.186-1.623 1.419-.275.232-.5.629-.5.882 0 .254.225.16.5-.207.275-.368 1.12-1.122 1.878-1.677l1.377-1.008H288.29l1.555 1.233c.855.678 1.677 1.533 1.827 1.9.338.829.419-.03.085-.9-.133-.348-.471-.633-.751-.633s-.777-.405-1.106-.9l-.598-.9-90.027-.103-90.028-.102-1.124.996m-3.082 3.872c-1.638 2.339 1.916 9.542 4.246 8.606.354-.142.319-.216-.112-.237-2.318-.118-5.1-6.747-3.502-8.345.261-.261.369-.578.241-.706s-.521.179-.873.682M292 225.576c0 .207.18.488.4.624.22.136.4.856.4 1.6 0 .744-.18 1.464-.4 1.6-.22.136-.394.552-.387.924.011.548.163.497.8-.268.858-1.03 1.026-2.863.373-4.082-.43-.803-1.186-1.056-1.186-.398m-216.319 2.406c.552.884.941.773.581-.165-.13-.339-.424-.617-.653-.617-.263 0-.237.287.072.782m4.142 3.785c.838.613 1.217.546.793-.14-.145-.235-.557-.427-.916-.427-.546 0-.526.093.123.567m211.018.69c-.528.667-1.338 1.366-1.8 1.552-.726.294-.741.344-.11.366.778.027 3.069-2.022 3.069-2.744 0-.599-.074-.546-1.159.826m-209.537.777c.387.226 1.135.805 1.662 1.288a84.524 84.524 0 0 0 2.662 2.278c.936.77 2.579 2.195 3.65 3.167 1.072.972 1.848 1.505 1.725 1.185-.222-.579-1.945-2.151-5.403-4.931a95.366 95.366 0 0 1-2.907-2.434c-.609-.543-1.329-.982-1.6-.975-.271.007-.176.197.211.422m73.164 1.466c24.347.057 64.307.057 88.8 0 24.493-.057 4.572-.104-44.268-.104s-68.879.047-44.532.104m158.858 1.2c-.137.385-.325.88-.417 1.1-.093.22.115.051.461-.376.347-.427.855-.92 1.13-1.094.355-.226.293-.32-.213-.324-.391-.003-.824.309-.961.694m-2.417 2.207c-.928.931-2.158 1.978-5.486 4.668-1.087.879-2.131 1.875-2.32 2.212-.188.337-.575.613-.859.613-.283 0-.721.45-.971 1-.251.55-.671 1-.933 1-.446 0-3.94 3.38-3.94 3.811 0 .198 2.879-2.348 4.776-4.224.563-.557 2.374-2.145 4.024-3.528 4.298-3.603 7.381-6.46 6.961-6.452-.198.004-.762.409-1.252.9M92.237 242.6c.36.55.823 1 1.028 1 .205 0 .84.495 1.41 1.1.903.958.975.982.556.18-.264-.506-.904-1.113-1.422-1.349-.518-.235-1.03-.767-1.138-1.18-.108-.413-.397-.751-.643-.751-.273 0-.192.388.209 1m4.256 3.768c.296.423 1.566 1.615 2.822 2.649 1.257 1.035 2.285 2.039 2.285 2.232 0 .193.205.351.456.351.516 0 5.282 3.991 6.63 5.552.852.987.877.991.65.124-.13-.496-.611-1.102-1.069-1.347a6.382 6.382 0 0 1-1.45-1.134c-.34-.378-1.967-1.792-3.617-3.142-1.65-1.35-3.502-2.904-4.116-3.454-.614-.549-1.268-.999-1.454-.999-.185 0-.431-.36-.546-.8-.115-.44-.416-.8-.669-.8-.32 0-.296.234.078.768m195.663 8.344A98.338 98.338 0 0 1 289.41 257c-2.082 1.663-5.01 4.486-5.01 4.831 0 .157.42-.145.933-.673.513-.527 1.548-1.458 2.3-2.068 4.459-3.621 6.54-5.495 6.081-5.478-.173.006-.874.501-1.558 1.1M112.154 260.1c2.937 2.818 3.446 3.218 3.446 2.707 0-.233-.447-.628-.992-.876-.546-.249-1.098-.785-1.227-1.192-.129-.406-.472-.739-.762-.739-.29 0-.822-.45-1.182-1-.361-.55-.839-1-1.064-1-.224 0 .577.945 1.781 2.1M281.6 264c-.99 1.081-2.014 1.973-2.276 1.983-.53.019-1.108.766-.818 1.056.102.102 1.425-.987 2.94-2.421 1.515-1.434 2.574-2.602 2.354-2.595-.22.006-1.21.896-2.2 1.977m-165.6-.119c.33.119.96.548 1.4.953.44.405 1.34 1.182 2 1.726.66.545 2.19 1.849 3.4 2.898 1.21 1.05 2.528 2.186 2.928 2.525.4.34 1.709 1.562 2.909 2.717 1.2 1.155 2.344 2.1 2.543 2.1.199 0 .444.315.544.7.169.646.187.647.23.014.025-.377-.309-.876-.742-1.108-.433-.232-2.133-1.723-3.777-3.314-3.322-3.215-6.666-6.179-8.001-7.092-.482-.33-1.272-1.005-1.756-1.5-.483-.495-1.193-.886-1.578-.868-.553.025-.574.077-.1.249m160.219 4.819c-.129.385-.922 1.123-1.761 1.639-.84.516-2.366 1.731-3.391 2.7-1.025.969-2.024 1.761-2.219 1.761-.195 0-.449.36-.564.8-.115.44-.475.8-.801.8-.325 0-.908.495-1.295 1.1l-.703 1.1 1.157-.998a60.158 60.158 0 0 0 2.192-2c.568-.551 1.72-1.542 2.559-2.202 4.696-3.695 6.476-5.4 5.634-5.4-.315 0-.679.315-.808.7m-142.435 10.657a33.768 33.768 0 0 0 2.863 2.5c.828.629 1.897 1.503 2.376 1.943.479.44 1.92 1.7 3.203 2.8 1.283 1.1 2.917 2.54 3.631 3.2 2.142 1.979 2.543 2.263 2.543 1.807 0-.233-.447-.628-.992-.876-.546-.249-1.098-.785-1.227-1.192-.129-.406-.397-.739-.594-.739-.338 0-1.958-1.384-4.247-3.629-.925-.907-2.002-1.807-4.147-3.467-2.377-1.84-2.728-2.148-3.509-3.085-.283-.34-.682-.619-.886-.619-.204 0 .239.611.986 1.357m130.289.043c-.251.55-.39 1-.31 1 .08 0 .44-.45.8-1 .361-.55.5-1 .31-1-.189 0-.55.45-.8 1m-2.236 2c-.361.55-.909 1-1.219 1-.31 0-.678.36-.818.8-.14.44-.452.8-.694.8-.241 0-.331.108-.199.24s1.197-.677 2.367-1.799c1.169-1.122 1.922-2.04 1.672-2.041-.25 0-.749.45-1.109 1m-5.048 4.22c-.764.671-1.839 1.632-2.389 2.136-.55.504-1.29 1.02-1.644 1.146-.355.127-.753.651-.885 1.164l-.239.934.684-.833c.376-.458 1.796-1.689 3.155-2.736 1.359-1.047 2.569-2.157 2.688-2.467.297-.774.213-.734-1.37.656m-7.114 6.18c-.478.55-1.039 1-1.245 1-.207 0-.485.342-.617.76-.133.418-.673.869-1.201 1.001-.527.133-1.064.573-1.193.979s-.681.942-1.227 1.191c-.545.248-.992.618-.992.821 0 .203-.522.702-1.16 1.109-1.163.741-4.318 3.381-6.501 5.439-.642.605-1.328 1.1-1.526 1.1-.197 0-.465.333-.594.739-.129.407-.681.943-1.227 1.192-.545.248-.992.643-.992.876 0 .429.435.145 2.084-1.363.826-.754 5.545-4.794 9.306-7.966 1.094-.923 2.439-2.173 2.989-2.778.549-.605 1.143-1.1 1.319-1.1.175 0 1.229-.9 2.34-2 1.112-1.1 1.861-2 1.664-2-.197 0-.749.45-1.227 1m-100.875.883c.33.12 1.085.691 1.677 1.268 3.119 3.039 7.923 6.982 7.923 6.504 0-.233-.225-.606-.5-.829a596.193 596.193 0 0 1-3.359-2.816c-1.572-1.326-3.057-2.41-3.3-2.41-.242 0-.441-.167-.441-.371 0-.624-1.216-1.631-1.929-1.597-.548.025-.561.071-.071.251m12.292 10.42c3.764 3.468 3.854 3.539 3.638 2.865-.1-.312-.577-.746-1.06-.964-.482-.218-.975-.704-1.094-1.08-.119-.376-.552-.789-.961-.919-.409-.13-1.034-.679-1.388-1.221-.355-.541-.866-.983-1.136-.981-.27.002.631 1.037 2.001 2.3m6.157 5.676c1.183 1.089 4.041 3.555 6.351 5.48 3.894 3.246 6 5.124 9.468 8.441.747.715 1.533 1.3 1.745 1.3.213 0 .387.27.387.6 0 .33.177.6.393.6.216 0 .891.443 1.5.984.609.542 2.361 2.027 3.893 3.3 1.533 1.274 3.282 2.824 3.888 3.445.756.775 1.388 1.075 2.014.955.844-.162.835-.179-.124-.23-.685-.036-1.19-.392-1.491-1.054-.251-.55-.654-1-.895-1-.242 0-.985-.546-1.653-1.213a29.281 29.281 0 0 0-2.669-2.296c-.801-.595-1.822-1.489-2.269-1.987-.447-.497-1.011-.904-1.254-.904-.242 0-.736-.45-1.096-1-.361-.55-.909-1-1.219-1-.31 0-.675-.351-.812-.78-.136-.428-.582-.885-.991-1.015-.409-.13-1.034-.679-1.388-1.221-.355-.541-.899-.984-1.209-.984-.31 0-.678-.36-.818-.8-.14-.44-.422-.8-.627-.8-.205 0-.727-.354-1.159-.786-1.811-1.811-6.809-6.014-7.151-6.014-.204 0-.666-.45-1.026-1-.361-.55-.85-1-1.089-1-.238 0-.787-.45-1.219-1-.433-.55-.977-1-1.209-1-.232 0 .546.891 1.729 1.979M80.72 369.654c-34.034 34.019-61.769 61.964-61.633 62.1.317.316 361.501.325 361.818.008.499-.499-123.731-124.162-124.731-124.162-.549 0-1.535.588-2.347 1.4-.77.77-1.566 1.4-1.768 1.4-.202 0-.662.45-1.022 1-.361.55-.892 1-1.182 1-.29 0-.732.45-.982 1-.251.55-.734 1-1.074 1-.34 0-.79.45-.999 1-.209.55-.648 1-.976 1-.328 0-.793.369-1.034.819-.241.451-.878.986-1.414 1.19-.537.204-.976.646-.976.981 0 .336-.135.61-.3.61-.165 0-1.02.649-1.9 1.441-.88.793-2.23 1.909-3 2.481-1.297.962-1.986 1.573-4.491 3.978-.515.495-1.127.9-1.359.9-.232 0-.627.45-.877 1-.251.55-.734 1-1.074 1-.34 0-.79.45-.999 1-.209.55-.581 1-.826 1-.246 0-1.314.9-2.374 2s-2.052 2-2.203 2c-.152 0-.755.495-1.341 1.1-1.344 1.387-5.554 4.98-6.41 5.469-.355.203-.881.698-1.169 1.1-.287.402-.851.731-1.254.731-.402 0-1.026.45-1.386 1-.479.731-1.009 1-1.969 1-.772 0-1.871.412-2.668 1-1.3.959-1.594 1-7.2 1s-5.9-.041-7.2-1c-.808-.596-1.895-1-2.69-1-.854 0-1.423-.23-1.58-.639-.135-.351-1.03-.975-1.988-1.386-.958-.411-1.742-.937-1.742-1.171 0-.233-.467-.602-1.039-.819-.571-.217-1.13-.747-1.243-1.177-.112-.43-.545-.89-.962-1.022-.416-.132-.943-.588-1.17-1.013-.228-.425-.682-.773-1.009-.773-.327 0-.793-.436-1.036-.969-.243-.533-.869-1.077-1.391-1.208-.523-.131-.95-.511-.95-.844 0-.332-.337-.734-.748-.892-.673-.258-4.03-3.035-6.875-5.687a89.25 89.25 0 0 0-2.725-2.391c-.909-.765-1.652-1.6-1.652-1.857 0-.256-.45-.578-1-.716s-1-.522-1-.854c0-.331-.467-.78-1.039-.997-.571-.217-1.132-.752-1.246-1.19-.115-.437-.463-.795-.775-.795s-1.208-.642-1.993-1.426a30.562 30.562 0 0 0-3.051-2.603c-.894-.648-1.877-1.536-2.183-1.974-.307-.439-.806-.797-1.109-.797-.302 0-.664-.36-.804-.8-.14-.44-.416-.8-.613-.8-.198 0-.912-.54-1.587-1.2-.675-.66-1.401-1.2-1.614-1.2-.212 0-.386-.316-.386-.702 0-.444-.478-.849-1.3-1.1l-1.3-.398-61.88 61.854m148.701-60.319c-.402.294-.661.699-.576.9.085.201.554-.04 1.041-.535.973-.989.691-1.21-.465-.365m-2.853 2.577c-3.194 2.821-4.271 3.688-4.58 3.688-.184 0-.448.36-.588.799-.139.44-.685.907-1.212 1.04-.528.132-1.068.583-1.201 1.001-.132.418-.416.76-.63.76-.213 0-1.274.9-2.357 2-1.083 1.1-2.084 2-2.226 2-.365 0-7.81 6.311-8.789 7.451-.448.522-1.027.949-1.286.949-.41 0-1.299 1.192-1.299 1.741 0 .107.765-.509 1.7-1.367 1.539-1.413 7.72-6.716 9.036-7.752.294-.232 1.119-.962 1.832-1.622.713-.66 2.252-2.01 3.418-3 1.167-.99 2.488-2.146 2.936-2.568.448-.423 1.819-1.58 3.046-2.571 2.413-1.948 4.163-3.668 3.713-3.649-.155.006-.835.501-1.513 1.1M198.5 334.276c.385.1 1.015.1 1.4 0 .385-.101.07-.183-.7-.183s-1.085.082-.7.183" fill="#04ace4"/><path d="M196.402 15.098c-1.577.618-4.705 3.095-11.24 8.902-.619.55-2.072 1.81-3.23 2.8-1.157.99-2.561 2.255-3.118 2.811-.558.557-2.904 2.611-5.214 4.566-2.31 1.954-4.588 3.929-5.062 4.388-1.583 1.535-5.419 4.831-6.03 5.182-.503.289-.513.404-.056.694.601.38 73.106.503 74.091.126.451-.174.073-.697-1.467-2.027a522.66 522.66 0 0 1-3.291-2.867c-6.05-5.345-7.659-6.794-8.409-7.573-.477-.495-1.072-.9-1.322-.9s-.454-.149-.454-.331c0-.183-1.935-1.967-4.3-3.966-2.365-1.999-4.942-4.235-5.726-4.968-6.204-5.808-8.482-7.149-12.068-7.103-1.378.017-2.775.137-3.104.266m5.107.725c.191.342.984.841 1.761 1.108 1.477.508 3.431 1.841 4.935 3.369.488.495 1.017.9 1.177.9.16 0 1.158.9 2.218 2s2.128 2 2.372 2c.245 0 .65.45.901 1 .25.55.656 1 .902 1s.911.495 1.479 1.1c.567.605 1.58 1.55 2.251 2.1.671.55 1.882 1.54 2.691 2.2.809.66 1.882 1.605 2.384 2.1.501.495 1.12.9 1.374.9.255 0 .662.436.905.969.243.533.869 1.077 1.391 1.208.523.131.95.51.95.843 0 .333.315.724.7.868.385.145 1.539 1.13 2.564 2.188 1.025 1.058 2.049 1.924 2.276 1.924.227 0 .524.18.66.4.164.266-11.956.391-36.076.375-22.321-.016-35.974-.166-35.415-.391.5-.201 1.016-.645 1.147-.986.132-.342.645-.842 1.141-1.11.866-.469 4.226-3.285 6.665-5.588.641-.605 1.327-1.1 1.525-1.1.197 0 .467-.341.599-.757.132-.416.608-.853 1.057-.97.449-.118.91-.572 1.024-1.009.115-.438.642-.905 1.171-1.038s.962-.512.962-.844c0-.331.455-.775 1.01-.986.556-.211 1.121-.672 1.256-1.023.135-.352.556-.76.936-.906.703-.271 4.4-3.365 6.413-5.367.608-.605 1.308-1.1 1.554-1.1.247 0 .653-.45.904-1 .25-.55.692-1 .982-1 .29 0 .809-.432 1.155-.959.376-.574 1.192-1.065 2.032-1.223.773-.144 1.704-.613 2.07-1.04.832-.972 3.482-1.075 3.997-.155M75.344 52.184c-1.81 1.268-1.759-1.503-1.649 88.741l.105 85.925 3.2 3.04A244.485 244.485 0 0 0 88.4 240a143.04 143.04 0 0 1 7.252 6.4c1.052.99 2.945 2.7 4.208 3.8a169.94 169.94 0 0 1 2.934 2.6c.351.33 1.524 1.318 2.606 2.196 1.083.877 2.447 2.047 3.032 2.6.585.552 2.101 1.904 3.37 3.004 1.269 1.1 2.778 2.468 3.353 3.041.575.573 2.665 2.427 4.645 4.121 7.115 6.087 10.278 8.888 13.591 12.038.695.66 3.403 3 6.019 5.2s5.329 4.54 6.031 5.2c3.016 2.839 7.373 6.708 10.159 9.02 3.173 2.633 8.689 7.506 10.387 9.175.557.548 2.815 2.528 5.017 4.4 4.256 3.619 4.901 4.178 7.099 6.152 4.366 3.92 5.929 5.315 6.557 5.853.385.33 1.802 1.59 3.149 2.8 1.347 1.21 3.135 2.74 3.973 3.4.838.66 2.085 1.673 2.771 2.252 3.413 2.877 6.268 2.581 10.199-1.056.897-.83 2.002-1.768 2.455-2.086a18.766 18.766 0 0 0 1.738-1.443c.502-.477 1.891-1.677 3.084-2.667 1.194-.99 2.621-2.253 3.171-2.807.55-.554 3.34-2.972 6.2-5.374 2.86-2.402 6.105-5.189 7.212-6.193 2.904-2.637 7.366-6.554 8.977-7.881a64.363 64.363 0 0 0 2.04-1.745c.357-.33 1.621-1.41 2.808-2.4 1.188-.99 2.7-2.328 3.361-2.974.661-.646 3.632-3.235 6.602-5.753 2.97-2.519 5.701-4.87 6.068-5.226.368-.356 1.693-1.547 2.945-2.647 1.251-1.1 2.85-2.54 3.553-3.2.703-.66 3.418-3 6.034-5.2 2.616-2.2 5.232-4.45 5.812-5 2.585-2.449 7.726-6.981 11.588-10.213 2.31-1.934 4.494-3.802 4.853-4.151.36-.35 2.145-1.986 3.967-3.636a343.255 343.255 0 0 0 4.347-3.989c.568-.543 1.989-1.769 3.158-2.724 1.168-.955 2.455-2.04 2.858-2.412.404-.371 1.763-1.575 3.02-2.675a224.714 224.714 0 0 0 6.447-5.816 268.946 268.946 0 0 1 4.907-4.4c1.626-1.421 3.201-3.163 3.5-3.871.452-1.071.543-15.596.543-86.286V54.428l-1.241-1.414-1.242-1.414H199.848c-107.782 0-123.777.075-124.504.584M324.1 53.379l1.1 1.378v85.041c0 73.001-.081 85.195-.572 86.122-.315.594-1.705 2.07-3.089 3.28l-3.659 3.2c-.629.55-2.103 1.9-3.276 3-2.586 2.426-5.416 4.91-9.404 8.256-1.65 1.385-3.457 2.974-4.016 3.531-.559.557-1.999 1.868-3.2 2.914-2.342 2.039-2.711 2.376-3.481 3.18-.274.285-1.041.969-1.705 1.519-.664.55-1.723 1.45-2.353 2-.631.55-1.828 1.54-2.66 2.2-.833.66-2 1.65-2.594 2.2-.593.55-2.561 2.35-4.372 4-1.81 1.65-3.677 3.36-4.147 3.8-.946.884-2.954 2.563-5.262 4.4-.829.66-2.089 1.74-2.8 2.4-.71.66-2.704 2.46-4.431 4-1.727 1.54-3.529 3.205-4.005 3.7-.476.495-1.076.9-1.332.9-.257 0-.564.254-.683.564-.119.31-1.329 1.426-2.688 2.48-2.58 2-2.765 2.162-6.162 5.377-1.151 1.088-2.236 1.979-2.411 1.979-.176 0-.77.495-1.319 1.1-.55.605-1.895 1.855-2.989 2.778-4.001 3.375-8.499 7.23-9.295 7.966-.449.416-1.756 1.566-2.904 2.556s-2.47 2.173-2.939 2.63c-.469.456-1.856 1.64-3.084 2.631-1.227.991-2.598 2.148-3.046 2.571-.448.422-1.769 1.578-2.936 2.568-1.166.99-2.705 2.34-3.418 3-.713.66-1.538 1.39-1.832 1.622-1.369 1.078-7.523 6.364-9.128 7.839-2.924 2.689-7.006 3.039-9.207.79-.566-.578-2.282-2.093-3.815-3.367-1.532-1.273-3.284-2.758-3.893-3.3-.609-.541-1.284-.984-1.5-.984-.216 0-.393-.27-.393-.6 0-.33-.174-.6-.387-.6-.212 0-.998-.585-1.745-1.3-3.475-3.324-5.576-5.196-9.468-8.437-4.043-3.367-8.952-7.727-11.149-9.904-.578-.572-2.941-2.622-5.251-4.554-5.103-4.27-5.388-4.521-6.72-5.905-.582-.605-1.276-1.1-1.542-1.1s-.598-.36-.738-.8c-.14-.44-.416-.8-.614-.8-.197 0-.96-.585-1.693-1.3-.734-.715-2.384-2.2-3.667-3.3a180.77 180.77 0 0 1-3.203-2.8c-.479-.44-1.548-1.314-2.376-1.943a33.768 33.768 0 0 1-2.863-2.5c-.747-.746-1.543-1.357-1.771-1.357-.227 0-.413-.27-.413-.6 0-.33-.176-.6-.391-.6-.215 0-1.372-.945-2.572-2.1-1.2-1.155-2.509-2.377-2.909-2.717-.4-.339-1.718-1.475-2.928-2.525-1.21-1.05-2.698-2.302-3.306-2.783a23.936 23.936 0 0 1-1.972-1.775c-.476-.495-1.092-.9-1.367-.9-.276 0-.615-.36-.755-.8-.14-.44-.422-.8-.627-.8-.205 0-1.408-.983-2.673-2.185-3.881-3.686-4.217-3.993-6.944-6.34-1.455-1.251-2.746-2.275-2.87-2.275-.123 0-.749-.495-1.39-1.1-.64-.605-2.499-2.32-4.13-3.811a2470.597 2470.597 0 0 1-5.166-4.736 103.923 103.923 0 0 0-4-3.484c-.99-.802-2.198-1.821-2.685-2.264a60.718 60.718 0 0 0-2.119-1.805c-1.249-1.012-4.715-4.186-7.096-6.499l-1.3-1.262V53.962l1.058-.981L76.517 52H323l1.1 1.379M108.562 111.4c-.593.55-1.213 1-1.376 1-.504 0-1.986 3.524-1.986 4.721 0 1.476 1.251 4.021 2.596 5.279l1.068 1h180.272l1.08-1c1.888-1.748 3.33-6.292 2.215-6.981-.203-.125-.488-.768-.633-1.427-.145-.659-.622-1.391-1.061-1.626-.439-.234-1.144-.773-1.567-1.196-.755-.755-2.475-.77-90.149-.77h-89.38l-1.079 1m181.128 1.088a6.1 6.1 0 0 1 .009 9.491l-1.481 1.221H109.569l-1.555-1.539c-3.306-3.274-2.187-8.711 2.155-10.476.457-.185 40.628-.303 89.268-.261l88.437.076 1.816 1.488M65.529 129.371c-.588.245-1.848 1.152-2.8 2.017-1.819 1.653-8.356 7.408-11.703 10.304a350.035 350.035 0 0 0-5.797 5.108c-2.897 2.623-6.379 5.649-7.801 6.778-.864.687-1.819 1.602-2.122 2.035-.303.433-.708.787-.9.787-.192 0-1.178.765-2.192 1.7-1.013.935-2.853 2.6-4.087 3.7-1.235 1.1-2.96 2.675-3.834 3.5-.874.825-1.793 1.506-2.041 1.513-.249.007-.103.277.324.6.965.729 42.505.893 43.85.173.748-.4.774-1.032.768-19.1-.007-19.895.001-19.808-1.665-19.115m267.294.187c-.636 1.188-.582 37.323.057 37.962.362.362 5.766.478 21.9.474 21.416-.006 23.676-.142 21.89-1.315-.402-.263-1.598-1.289-2.659-2.279a102.21 102.21 0 0 0-3.615-3.2c-3.469-2.883-7.589-6.485-9.376-8.2-2.102-2.016-7.064-6.364-7.99-7-.48-.33-1.249-.96-1.708-1.4-.459-.44-1.874-1.7-3.143-2.8-1.27-1.1-2.873-2.54-3.563-3.2-.689-.66-2.295-2.1-3.567-3.2a346.838 346.838 0 0 1-3.581-3.136c-3.583-3.209-4.188-3.562-4.645-2.706m1.248.963c.152.612 6.124 5.879 6.666 5.879.204 0 .666.45 1.026 1 .361.55.909 1 1.219 1 .31 0 .673.342.805.76.133.418.685.872 1.227 1.008s.986.518.986.848c0 .331.447.805.992 1.053.546.249 1.093.767 1.215 1.152.122.385.665.811 1.207.947.542.136.986.507.986.826 0 .318.398.791.883 1.051.486.26 1.161.776 1.5 1.146 1.257 1.373 6.338 5.609 6.728 5.609.222 0 .508.272.635.603.127.332.687.811 1.243 1.065.556.253 1.011.718 1.011 1.034 0 .315.337.661.75.769.412.108 1.137.721 1.611 1.362.475.642 1.128 1.167 1.451 1.167.323 0 .588.276.588.613 0 .336.315.73.7.875.385.145 1.18.724 1.766 1.287a96.078 96.078 0 0 0 4.848 4.352l1.514 1.273H333.2v-18.6c0-16.307.213-20.727.871-18.079m-268.714 1.312c.134.348.243 8.448.243 18V167.2l-21.1-.027c-15.474-.02-20.86-.143-20.2-.461.495-.239.9-.681.9-.983 0-.302.467-.727 1.039-.944.571-.217 1.129-.742 1.24-1.167.112-.425.589-.828 1.062-.896.538-.076.907-.459.987-1.022.075-.532.407-.9.811-.9.376 0 .973-.315 1.328-.7.355-.385 1.568-1.42 2.697-2.3a62.824 62.824 0 0 0 3.959-3.425c1.049-1.003 2.216-1.943 2.592-2.087.377-.145.685-.543.685-.885 0-.343.467-.801 1.039-1.018.571-.217 1.128-.736 1.237-1.153.109-.417.555-.851.991-.965.436-.114.89-.581 1.009-1.037.122-.465.545-.83.961-.83.41 0 1.033-.439 1.384-.977.352-.537.877-1.032 1.166-1.1.544-.127 4.329-3.294 6.243-5.223.6-.605 1.293-1.1 1.539-1.1.247 0 .646-.435.888-.966.242-.531.792-1.058 1.221-1.17.43-.113.879-.578.998-1.034.12-.457.456-.83.748-.83s.766-.317 1.053-.705c1.215-1.637 2.921-2.398 3.28-1.462m44.261 15.659c-4.814 1.895-5.626 9.196-1.346 12.108l1.469 1h178.527l1.582-1.096c2.451-1.699 3.357-4.69 2.332-7.704-.411-1.21-.866-2.2-1.01-2.2-.144 0-.941-.54-1.772-1.2l-1.51-1.2-88.845.032c-48.865.017-89.107.134-89.427.26m179.885 1.678c3.087 2.482 3.296 6.853.451 9.424L288.398 160H109.506l-1.52-1.52c-2.709-2.709-2.658-6.393.125-8.937 2.197-2.008-6.799-1.833 91.689-1.785l88 .042 1.703 1.37M15.8 175.195c-.44.192-.582.361-.315.377.266.015 1.176.703 2.023 1.528.846.825 2.561 2.4 3.811 3.5s3.162 2.81 4.25 3.8c1.087.99 3.084 2.79 4.437 4 1.353 1.21 2.76 2.491 3.127 2.846s2.648 2.335 5.07 4.4c2.422 2.065 5.184 4.474 6.137 5.354.954.88 2.329 2.14 3.056 2.8.727.66 2.228 2.055 3.335 3.1 1.106 1.045 2.194 1.9 2.418 1.9.223 0 .641.315.928.7.288.385 1.693 1.716 3.123 2.958 1.43 1.242 3.59 3.191 4.8 4.332s2.695 2.257 3.3 2.481c.605.224 1.103.615 1.106.868.004.255.179.193.394-.139.516-.799.525-43.583.009-44.4-.434-.687-49.468-1.076-51.009-.405m317.014.379c-.682 1.275-.561 42.606.127 43.177.529.439 1.314-.162 5.859-4.481.55-.523 2.35-2.083 4-3.467s3.298-2.806 3.663-3.16c.365-.354 2.157-1.993 3.982-3.643 1.826-1.65 3.745-3.409 4.265-3.909.52-.501 2.328-2.104 4.018-3.564 1.689-1.459 3.372-2.94 3.739-3.29.366-.35 1.7-1.537 2.965-2.637 1.264-1.1 2.879-2.54 3.589-3.2.71-.66 2.696-2.46 4.414-4 6.783-6.082 8.593-7.935 8.072-8.266-1.271-.807-48.253-.382-48.693.44m-267.628 1.2c.454.847.604 38.176.163 40.383l-.252 1.257-.848-.835c-2.757-2.714-5.553-5.179-5.876-5.179-.205 0-.373-.276-.373-.613 0-.336-.315-.73-.7-.875-.385-.145-1.164-.724-1.731-1.287-.567-.564-2.094-1.925-3.394-3.025-1.3-1.1-2.864-2.484-3.475-3.075-.611-.591-1.469-1.188-1.906-1.327-.437-.138-.794-.503-.794-.811 0-.307-.405-.774-.9-1.036-.495-.263-1.135-.809-1.423-1.214-.287-.406-.787-.737-1.11-.737-.323 0-.758-.45-.967-1-.209-.55-.555-1-.768-1-.213 0-1.274-.9-2.356-2-1.083-1.1-2.089-2-2.236-2-.147 0-.855-.585-1.574-1.3-.72-.715-1.903-1.75-2.631-2.3a36.82 36.82 0 0 1-2.492-2.1c-.644-.605-1.344-1.1-1.557-1.1-.212 0-.386-.274-.386-.61 0-.335-.439-.777-.976-.981-.536-.204-1.173-.739-1.414-1.19-.241-.45-.706-.819-1.034-.819-.328 0-.767-.45-.976-1-.209-.55-.538-1-.731-1-.193 0-.915-.54-1.606-1.2-.691-.66-1.421-1.2-1.622-1.2-.201 0-.272-.36-.157-.8.323-1.236 45.441-1.262 46.102-.026m313.614-.134c0 .658-1.959 2.696-3.264 3.394-.405.217-.736.658-.736.98 0 .322-.188.586-.418.586-.23 0-.864.446-1.409.991-.545.545-1.347 1.181-1.782 1.414-.435.233-.791.675-.791.982 0 .308-.357.673-.794.811-.437.139-1.295.736-1.906 1.327s-2.174 1.975-3.472 3.075-2.82 2.495-3.383 3.1c-.563.605-1.241 1.1-1.507 1.1-.266 0-.59.333-.719.739-.129.407-.681.943-1.227 1.192-.545.248-.992.726-.992 1.06 0 .335-.188.609-.418.609-.23 0-.864.446-1.409.991-.545.545-1.347 1.181-1.782 1.414-.435.233-.791.683-.791 1.001 0 .319-.45.692-1 .83s-1 .501-1 .807c0 .307-.135.558-.3.558-.37.002-3.521 2.606-4.96 4.099-.584.605-1.193 1.1-1.354 1.1-.161 0-1.179.9-2.262 2-1.082 1.1-2.143 2-2.356 2-.213 0-.559.45-.768 1-.209.55-.651 1-.981 1-.33 0-.895.45-1.256 1-.36.55-.91 1-1.222 1-.312 0-.73.405-.929.9-.222.554-.371-7.278-.387-20.4L333.2 176H356c20.626 0 22.8.061 22.8.64m-268.2 7.71c-5.492 1.144-7.053 8.228-2.623 11.907l1.376 1.143H288.6l1.488-1.191c.819-.654 1.597-1.687 1.731-2.295.133-.608.409-1.208.612-1.333.203-.126.369-.837.369-1.581s-.166-1.455-.369-1.581c-.203-.125-.483-.743-.621-1.373-.148-.674-.944-1.702-1.931-2.496l-1.679-1.35-88.2-.05c-48.51-.027-88.74.063-89.4.2m178.91 1.676c3.342 2.458 3.352 7.513.02 9.823L287.868 197h-178.1l-1.257-1c-3.333-2.651-3.256-7.688.154-10.115l1.525-1.085h177.652l1.668 1.226m99.269 1.164a481.965 481.965 0 0 1-4.121 3.695 101.01 101.01 0 0 0-3 2.749c-.582.569-2.459 2.24-4.172 3.714-1.712 1.474-3.445 2.988-3.85 3.366a190.05 190.05 0 0 1-3.04 2.686 137.717 137.717 0 0 0-4.047 3.67c-1.543 1.478-5.372 4.896-8.684 7.751-.625.539-1.635 1.429-2.246 1.979s-2.137 1.9-3.391 3-3.151 2.81-4.215 3.8a423.619 423.619 0 0 1-11.613 10.387c-1.87 1.604-3.67 3.168-4 3.476-4.377 4.089-11.656 10.648-14.526 13.089-1.583 1.346-3.26 2.808-3.727 3.248-.466.44-2.346 2.15-4.176 3.8-1.831 1.65-4.328 3.913-5.55 5.029a225.261 225.261 0 0 1-5.221 4.568c-1.65 1.397-3.235 2.869-3.523 3.272-.287.402-.674.731-.859.731-.185 0-1.224.855-2.308 1.9-1.992 1.921-4.867 4.512-12.51 11.276-14.188 12.556-13.377 11.74-12.789 12.872 1.028 1.975 123.655 124.091 124.025 123.507.438-.691.475-234.361.037-235.05-.223-.351-.947.08-2.494 1.485m-380.299.49c-.788.788-.689 232.449.1 233.103.785.652 123.192-121.53 123.51-123.282.171-.944-.116-1.367-2.027-3-1.224-1.046-2.606-2.261-3.071-2.701-.465-.44-2.268-2.06-4.007-3.6-1.739-1.54-3.707-3.313-4.374-3.94-.666-.628-3.236-2.864-5.711-4.969-2.475-2.106-4.5-3.978-4.5-4.16 0-.182-.184-.331-.409-.331-.224 0-1.297-.855-2.383-1.9-1.82-1.751-4.81-4.438-7.68-6.9-.641-.55-1.578-1.36-2.081-1.8-5.467-4.776-6.992-6.134-7.858-6.994-1.017-1.013-3.717-3.404-9.989-8.844-4.452-3.863-11.639-10.306-12.402-11.12-.331-.353-3.07-2.759-6.087-5.347-3.016-2.588-5.906-5.108-6.42-5.6-.515-.492-2.327-2.141-4.026-3.664a533.29 533.29 0 0 1-4.206-3.8A124.129 124.129 0 0 0 41.606 216c-2.638-2.223-5.464-4.696-6.865-6.008a173.144 173.144 0 0 0-3.104-2.792c-1.125-.99-2.64-2.34-3.367-3-.727-.66-2.27-2.01-3.43-3-1.16-.99-3.311-2.88-4.782-4.2-1.47-1.32-4.096-3.66-5.835-5.2-1.738-1.54-3.555-3.205-4.038-3.7-1.017-1.044-1.068-1.057-1.705-.42M391.2 303.4c0 63.91-.091 116.2-.203 116.2-.274 0-123.397-123.109-123.397-123.383 0-.119.266-.217.591-.217.325 0 .885-.45 1.246-1 .36-.55.909-1 1.219-1 .31 0 .735-.45.944-1 .209-.55.583-1 .832-1 .483 0 7.457-5.782 9.245-7.665.593-.624 1.268-1.135 1.5-1.135.233 0 .423-.274.423-.61 0-.335.435-.775.966-.977.531-.202 1.077-.72 1.214-1.15.137-.431.692-.895 1.234-1.031.542-.136.986-.518.986-.85 0-.331.435-.767.966-.969.531-.202 1.083-.737 1.227-1.19.143-.453.446-.823.673-.823.48 0 8.78-7.044 9.254-7.853.176-.301.569-.547.873-.547.304 0 .668-.362.808-.804.141-.443.783-1.077 1.427-1.411.645-.333 1.172-.871 1.172-1.195 0-.325.266-.59.591-.59.325 0 .885-.45 1.246-1 .36-.55.909-1 1.219-1 .31 0 .735-.45.944-1 .209-.55.651-1 .981-1 .33 0 .889-.439 1.24-.977.352-.537.877-1.032 1.166-1.1.485-.114 3.932-3.015 6.681-5.623.638-.605 1.321-1.1 1.519-1.1.197 0 .465-.333.594-.739.129-.407.681-.943 1.227-1.192.545-.248.992-.706.992-1.017 0-.311.45-.678 1-.816.55-.138 1-.522 1-.854 0-.331.435-.767.966-.969.531-.202 1.077-.718 1.213-1.147.136-.429.615-.876 1.064-.993.449-.118.914-.587 1.033-1.043.12-.457.484-.83.81-.83.326 0 1.081-.495 1.677-1.1.596-.605 1.781-1.64 2.632-2.3 1.555-1.207 4.165-3.579 7.808-7.1 1.081-1.045 2.157-1.9 2.39-1.9.233 0 .622-.435.864-.966.242-.531.792-1.058 1.221-1.17.43-.113.879-.578.998-1.034.121-.462.545-.83.957-.83.406 0 .912-.315 1.123-.7.212-.385 1.322-1.42 2.468-2.3 1.85-1.42 3.502-2.873 7.62-6.7.651-.605 1.357-1.1 1.57-1.1.212 0 .386-.36.386-.8 0-.536.267-.8.809-.8.466 0 .994-.408 1.248-.966.242-.531.792-1.058 1.221-1.17.43-.113.879-.578.998-1.034.124-.474.545-.83.979-.83.425 0 .964-.443 1.218-1 .25-.55.616-1 .813-1 .507 0 5.609-4.372 9.798-8.397 1.147-1.102 2.276-2.003 2.509-2.003.233 0 .622-.435.864-.966.242-.531.792-1.058 1.221-1.17.43-.113.875-.563.989-1 .115-.438.63-.902 1.144-1.031.515-.129 1.05-.594 1.189-1.034.14-.439.482-.799.761-.799s.988-.54 1.576-1.2c2.45-2.75 2.263-12.267 2.263 115m-380-113c.617.66 1.388 1.2 1.714 1.2.326 0 .69.373.81.83.119.456.552.917.962 1.024.41.108.918.589 1.13 1.071.211.481.789.933 1.284 1.003.495.07.9.33.9.577 0 .507 3.083 3.495 3.607 3.495.186 0 .445.334.575.743.13.408.568.903.974 1.1.824.399 4.82 3.761 6.485 5.457.594.605 1.347 1.1 1.673 1.1.326 0 .686.358.801.795.114.438.675.973 1.246 1.19.572.217 1.039.666 1.039.997 0 .332.433.711.962.844.529.133 1.056.6 1.171 1.038.114.437.581.893 1.037 1.012.457.12.83.46.83.757 0 .296.405.755.9 1.019.495.265 1.36.946 1.921 1.515 1.764 1.784 5.748 5.072 6.479 5.346.385.144.7.534.7.867 0 .333.444.716.986.852s1.085.562 1.207.947c.122.385.669.903 1.215 1.152.545.248.992.722.992 1.053 0 .33.427.708.95.839.522.131 1.148.675 1.391 1.208.243.533.704.969 1.023.969.32 0 .696.36.836.8.14.44.416.8.613.8.198 0 .882.495 1.521 1.1 1.172 1.111 2.35 2.107 5.085 4.3.823.66 1.961 1.695 2.528 2.3.567.605 1.249 1.1 1.515 1.1.266 0 .598.36.738.799.139.44.674.905 1.189 1.034.514.129 1.029.593 1.144 1.031.114.437.575.891 1.024 1.009.449.117.922.545 1.05.95.129.405.576.844.993.977.417.133.865.574.994.981.129.407.678.851 1.22.987.542.136.986.411.986.611 0 .436.59 1.029 2.579 2.593.82.645 2.034 1.68 2.698 2.3.664.62 1.438 1.128 1.719 1.128.281 0 .608.373.728.83.119.456.582.925 1.028 1.041.446.117 1.093.644 1.439 1.171.345.527.872.958 1.172.958.299 0 .641.373.761.83.119.456.584.925 1.033 1.043.449.117.925.554 1.057.97.132.416.402.757.599.757.198 0 .883.495 1.524 1.1.64.605 2.301 2.09 3.691 3.3a204.351 204.351 0 0 1 3.708 3.3c.651.605 1.414 1.1 1.696 1.1.283 0 .628.36.768.799.139.44.674.905 1.189 1.034.514.129 1.029.593 1.144 1.031.114.437.559.887.989 1 .429.112.979.639 1.221 1.17.242.531.631.966.864.966.233 0 1.302.855 2.375 1.9 2.369 2.307 5.596 5.131 6.875 6.018.519.359 1.271 1.065 1.672 1.568.401.503.974.914 1.273.914.299 0 .658.36.798.799.139.44.691.909 1.227 1.043.535.135.973.499.973.81 0 .311.447.769.992 1.017.546.249 1.095.776 1.221 1.171.125.396.563.825.972.955.409.13 1.034.679 1.388 1.221.355.541.911.984 1.236.984 2.54 0 1.202 1.396-60.21 62.803-33.44 33.439-60.89 60.797-61 60.797-.109 0-.199-51.84-.199-115.2 0-127.165-.218-116.803 2.4-114m97.062 31.887c-3.739 2.661-3.952 7.651-.466 10.913l1.068 1h180.397l1.37-1.494c.753-.822 1.369-1.846 1.369-2.277 0-.43.18-.893.4-1.029.503-.311.528-2.874.031-3.181-.203-.125-.48-.733-.616-1.35-.146-.663-.923-1.642-1.903-2.395l-1.657-1.274H109.79l-1.528 1.087m179.222-.45c4.61.922 6.019 7.743 2.224 10.763l-1.508 1.2-87.8.117c-48.29.064-88.56.009-89.489-.123-5.879-.834-6.491-10.144-.78-11.854 1.088-.326 175.733-.427 177.353-.103M79.891 368.912c-34.49 34.505-62.604 62.905-62.476 63.112.323.522 364.855.51 365.178-.013C382.975 431.392 257.334 306 256.332 306c-.462 0-1.23.405-1.706.9-.932.969-4.729 4.393-11.426 10.305-8.813 7.78-13.299 11.806-15.362 13.789-.455.437-2.359 2.12-4.232 3.74a548.775 548.775 0 0 0-4.806 4.196c-5.84 5.218-8.823 7.27-11.531 7.93-1.028.25-2.117.651-2.421.89-.921.724-8.521.837-9.885.146-.639-.324-1.883-.716-2.763-.87-1.519-.267-2.316-.699-6.64-3.596-1.629-1.091-5.592-4.498-9.342-8.03-1.726-1.625-6.098-5.477-10.218-9.003-1.87-1.6-4.186-3.649-5.147-4.553-2.805-2.64-4.226-3.928-6.446-5.844a184.819 184.819 0 0 1-2.833-2.486c-2.015-1.852-6.734-5.806-7.787-6.525l-1.187-.811-62.709 62.734m65.309-59.614c0 .386.174.702.386.702.213 0 .939.54 1.614 1.2.675.66 1.389 1.2 1.587 1.2.197 0 .473.36.613.8.14.44.502.8.804.8.303 0 .802.358 1.109.797.306.438 1.289 1.326 2.183 1.974a30.562 30.562 0 0 1 3.051 2.603c.785.784 1.681 1.426 1.993 1.426.312 0 .66.358.775.795.114.438.675.973 1.246 1.19.572.217 1.039.666 1.039.997 0 .332.45.716 1 .854s1 .46 1 .716c0 .257.743 1.092 1.652 1.857a89.25 89.25 0 0 1 2.725 2.391c2.845 2.652 6.202 5.429 6.875 5.687.411.158.748.56.748.892 0 .333.427.713.95.844.522.131 1.148.675 1.391 1.208.243.533.709.969 1.036.969.327 0 .781.348 1.009.773.227.425.754.881 1.17 1.013.417.132.85.592.962 1.022.113.43.672.96 1.243 1.177.572.217 1.039.586 1.039.819 0 .234.784.76 1.742 1.171.958.411 1.853 1.035 1.988 1.386.157.409.726.639 1.58.639.795 0 1.882.404 2.69 1 1.3.959 1.594 1 7.2 1s5.9-.041 7.2-1c.797-.588 1.896-1 2.668-1 .96 0 1.49-.269 1.969-1 .36-.55.984-1 1.386-1 .403 0 .967-.329 1.254-.731.288-.402.814-.897 1.169-1.1.856-.489 5.066-4.082 6.41-5.469.586-.605 1.189-1.1 1.341-1.1.151 0 1.143-.9 2.203-2 1.06-1.1 2.128-2 2.374-2 .245 0 .617-.45.826-1 .209-.55.659-1 .999-1 .34 0 .823-.45 1.074-1 .25-.55.645-1 .877-1 .232 0 .844-.405 1.359-.9 2.505-2.405 3.194-3.016 4.491-3.978.77-.572 2.12-1.688 3-2.481.88-.792 1.735-1.441 1.9-1.441.165 0 .3-.274.3-.61 0-.335.439-.777.976-.981.536-.204 1.173-.739 1.414-1.19.241-.45.706-.819 1.034-.819.328 0 .767-.45.976-1 .209-.55.659-1 .999-1 .34 0 .823-.45 1.074-1 .25-.55.692-1 .982-1 .29 0 .821-.45 1.182-1 .36-.55.82-1 1.022-1 .202 0 .998-.63 1.768-1.4.812-.812 1.798-1.4 2.347-1.4 1 0 125.23 123.663 124.731 124.162-.317.317-361.501.308-361.818-.008-.136-.136 27.599-28.081 61.633-62.1L142.6 307.8l1.3.398c.822.251 1.3.656 1.3 1.1" fill="#048aba"/><path d="M195.3 14.488c-.495.239-.9.587-.9.773 0 .187-.258.339-.574.339-.515 0-7.28 5.5-9.845 8.005-1.513 1.476-3.969 3.636-9.982 8.777-5.08 4.343-6.64 5.711-7.739 6.789-1.083 1.062-2.768 2.56-4.438 3.945-.709.587-.778 1.218-.23 2.084.546.865 75.106.915 76.147.051 1.125-.934.81-1.345-4.327-5.641-2.744-2.295-5.078-4.405-5.188-4.691-.109-.285-.402-.519-.651-.519s-.938-.495-1.533-1.1c-.594-.605-2.108-2-3.364-3.1l-3.198-2.8c-.502-.44-2.591-2.24-4.64-4-2.05-1.76-4.741-4.145-5.982-5.3-1.24-1.155-2.382-2.1-2.538-2.1-.155 0-.946-.45-1.756-1-1.628-1.105-7.374-1.422-9.262-.512m8.949 1.574c2.072 1.17 3.667 2.448 7.325 5.873.784.733 3.361 2.969 5.726 4.968 2.365 1.999 4.3 3.783 4.3 3.966 0 .182.204.331.454.331s.845.405 1.322.9c.75.779 2.359 2.228 8.409 7.573.668.59 2.149 1.88 3.291 2.867 1.54 1.33 1.918 1.853 1.467 2.027-.985.377-73.49.254-74.091-.126-.457-.29-.447-.405.056-.694.611-.351 4.447-3.647 6.03-5.182.474-.459 2.752-2.434 5.062-4.388 2.31-1.955 4.656-4.009 5.214-4.566.557-.556 1.961-1.821 3.118-2.811 1.158-.99 2.611-2.25 3.23-2.8 9.763-8.675 10.458-9.119 14.344-9.168 2.107-.027 2.862.169 4.743 1.23M74.25 51.545c-.371.41-.849 1.353-1.062 2.097-.49 1.709-.533 171.26-.044 172.961.367 1.276 2.493 3.797 3.202 3.797.234 0 .612.348.84.773.227.425.746.878 1.153 1.008.407.129.943.681 1.192 1.227.248.545.64.992.869.992.229 0 1.358.893 2.509 1.985 2.594 2.463 2.854 2.694 6.847 6.07 1.784 1.509 3.61 3.104 4.058 3.545.448.44 1.021.8 1.273.8.253 0 .573.36.713.8.14.44.41.8.6.8.301 0 1.513 1.08 6 5.346.55.523 2.803 2.462 5.007 4.309 4.633 3.883 4.846 4.07 7.848 6.854 2.857 2.65 6.225 5.623 10.745 9.483.77.657 1.604 1.198 1.853 1.202.25.003.548.365.662.804.115.439.541.923.947 1.075.406.153 1.458 1.027 2.338 1.944.88.917 2.005 1.879 2.5 2.139.495.26.9.736.9 1.058 0 .322.188.586.418.586.23 0 .825.405 1.322.9.778.776 2.36 2.129 7.941 6.796.594.497 2.083 1.849 3.309 3.004 1.225 1.155 2.392 2.1 2.592 2.1.2 0 .478.36.618.8.14.44.502.8.804.8.303 0 .786.326 1.073.724.736 1.02 6.612 6.076 7.06 6.076.204 0 .666.45 1.026 1 .361.55.837 1 1.059 1 .221 0 1.275.9 2.34 2 1.066 1.1 2.042 2 2.17 2 .127 0 1.029.81 2.005 1.8s1.966 1.8 2.199 1.8c.233 0 .568.255.744.567.329.582 6.725 6.233 7.055 6.233.101 0 1.086.855 2.188 1.9 4.999 4.738 6.532 6.1 6.865 6.1.197 0 .472.36.612.8.14.44.427.8.639.8.212 0 1.532.945 2.934 2.1 5.316 4.38 7.326 5.096 9.265 3.3.593-.55 1.258-1 1.476-1 .429 0 5.365-4.132 8.408-7.039.483-.462 1.283-1.053 1.778-1.314.495-.261.9-.739.9-1.061 0-.322.182-.586.404-.586.222 0 .987-.531 1.7-1.179a83.363 83.363 0 0 1 2.296-2.01l4.2-3.483c1.76-1.458 3.435-2.984 3.723-3.39.287-.406.77-.738 1.073-.738.302 0 .664-.36.804-.8.14-.44.416-.8.613-.8.198 0 .912-.54 1.587-1.2.675-.66 1.389-1.2 1.587-1.2.197 0 .473-.36.613-.8.14-.44.44-.8.668-.8.588 0 7.958-6.275 12.333-10.5 1.082-1.045 2.083-1.9 2.223-1.9.14 0 .75-.495 1.355-1.1 1.133-1.132 2.394-2.212 5.022-4.3.831-.66 2.381-2.055 3.446-3.1 1.065-1.045 2.066-1.9 2.224-1.9.159 0 1.133-.9 2.166-2s2.037-2 2.231-2c.195 0 .815-.495 1.378-1.1.563-.605 1.392-1.37 1.842-1.7 1.222-.896 4.473-3.649 5.785-4.9.635-.605 1.328-1.1 1.541-1.1.212 0 .386-.276.386-.613 0-.336.315-.728.7-.869.385-.142 1.51-1.032 2.5-1.98 1.91-1.827 4.329-4.015 5.339-4.83 4.346-3.504 5.389-4.384 6.142-5.178.484-.512 1.069-.93 1.3-.93.23 0 .419-.258.419-.573 0-.315.365-.689.811-.83.446-.142 1.096-.694 1.446-1.227.349-.534.889-.97 1.199-.97.31 0 .735-.45.944-1 .209-.55.651-1 .981-1 .33 0 .895-.45 1.256-1 .36-.55.91-1 1.222-1 .311 0 .656-.233.765-.518.109-.285 1.993-2.018 4.187-3.852 2.194-1.833 3.989-3.49 3.989-3.682 0-.191.216-.348.48-.348.263 0 1.324-.9 2.357-2 1.033-1.1 1.991-2 2.129-2 .138 0 1.192-.893 2.343-1.985 2.998-2.846 3.509-3.294 5.082-4.453.775-.572 2.399-1.973 3.609-3.115l2.2-2.076V53.253l-1.175-1.227-1.175-1.226H199.587c-121.08 0-124.682.021-125.337.745m250.509 1.469L326 54.428v84.999c0 70.69-.091 85.215-.543 86.286-.299.708-1.874 2.45-3.5 3.871a268.946 268.946 0 0 0-4.907 4.4 224.714 224.714 0 0 1-6.447 5.816 261.063 261.063 0 0 0-3.02 2.675c-.403.372-1.69 1.457-2.858 2.412-1.169.955-2.59 2.181-3.158 2.724-.569.544-2.525 2.339-4.347 3.989-1.822 1.65-3.607 3.286-3.967 3.636-.359.349-2.543 2.217-4.853 4.151-3.862 3.232-9.003 7.764-11.588 10.213-.58.55-3.196 2.8-5.812 5s-5.331 4.54-6.034 5.2c-.703.66-2.302 2.1-3.553 3.2-1.252 1.1-2.577 2.291-2.945 2.647-.367.356-3.098 2.707-6.068 5.226-2.97 2.518-5.941 5.107-6.602 5.753-.661.646-2.173 1.984-3.361 2.974-1.187.99-2.451 2.07-2.808 2.4a64.363 64.363 0 0 1-2.04 1.745c-1.611 1.327-6.073 5.244-8.977 7.881-1.107 1.004-4.352 3.791-7.212 6.193-2.86 2.402-5.65 4.82-6.2 5.374-.55.554-1.977 1.817-3.171 2.807-1.193.99-2.582 2.19-3.084 2.667a18.766 18.766 0 0 1-1.738 1.443c-.453.318-1.558 1.256-2.455 2.086-3.931 3.637-6.786 3.933-10.199 1.056a128.61 128.61 0 0 0-2.771-2.252c-.838-.66-2.626-2.19-3.973-3.4a304.411 304.411 0 0 0-3.149-2.8c-.628-.538-2.191-1.933-6.557-5.853-2.198-1.974-2.843-2.533-7.099-6.152-2.202-1.872-4.46-3.852-5.017-4.4-1.698-1.669-7.214-6.542-10.387-9.175-2.786-2.312-7.143-6.181-10.159-9.02-.702-.66-3.415-3-6.031-5.2-2.616-2.2-5.324-4.54-6.019-5.2-3.313-3.15-6.476-5.951-13.591-12.038-1.98-1.694-4.07-3.548-4.645-4.121-.575-.573-2.084-1.941-3.353-3.041-1.269-1.1-2.785-2.452-3.37-3.004-.585-.553-1.949-1.723-3.032-2.6-1.082-.878-2.255-1.866-2.606-2.196-.351-.33-1.671-1.5-2.934-2.6a179.11 179.11 0 0 1-4.208-3.8A143.04 143.04 0 0 0 88.4 240 244.485 244.485 0 0 1 77 229.89l-3.2-3.04-.105-85.925c-.11-90.244-.161-87.473 1.649-88.741.727-.509 16.722-.584 124.504-.584h123.669l1.242 1.414m-214.59 58.171c-4.342 1.765-5.461 7.202-2.155 10.476l1.555 1.539h178.649l1.481-1.221a6.1 6.1 0 0 0-.009-9.491L287.874 111l-88.437-.076c-48.64-.042-88.811.076-89.268.261m177.745 1.415c.809.55 1.681 1 1.936 1 1.714 0 1.326 5.7-.506 7.427l-1.456 1.373H110.039l-1.42-1.461c-1.749-1.801-2.097-7.339-.461-7.339.255 0 1.089-.441 1.853-.98l1.389-.981 87.521-.019 87.521-.02 1.472 1M65.435 127.8c-.51.55-1.054 1-1.209 1-.156 0-1.125.807-2.155 1.794-1.029.987-3.221 2.922-4.872 4.3-3.254 2.718-6.32 5.467-8.035 7.206-.597.605-1.213 1.1-1.369 1.1-.156 0-1.082.81-2.058 1.8-.976.99-1.874 1.8-1.996 1.8-.122 0-1.508 1.142-3.081 2.539-1.573 1.396-3.289 2.881-3.813 3.3-.957.765-1.821 1.55-5.564 5.061-1.114 1.045-2.206 1.9-2.427 1.9-.221 0-.511.343-.644.763s-.516.868-.85.996c-.333.128-2.032 1.445-3.774 2.925-5.352 4.549-6.541 4.296 20.749 4.419l22.84.104.633-.966c.881-1.344.731-39.308-.159-40.38-.743-.894-1.128-.835-2.216.339m267.031.039l-.866.606v19.698c0 14.786.12 19.817.48 20.177.781.781 45.253.683 45.904-.101.507-.61.219-2.219-.398-2.219-.197 0-.962-.585-1.698-1.3-.737-.715-2.281-2.11-3.432-3.1-1.151-.99-2.672-2.34-3.38-3a51.566 51.566 0 0 0-2.823-2.4c-.845-.66-2.419-2.01-3.499-3a351.81 351.81 0 0 0-3.999-3.6 338.55 338.55 0 0 1-3.349-3 70.954 70.954 0 0 0-2.059-1.817 335.71 335.71 0 0 1-3.815-3.3c-1.688-1.476-3.251-2.683-3.473-2.683-.223 0-.519-.36-.659-.8-.14-.44-.421-.8-.625-.8-.204 0-1.29-.9-2.414-2-1.123-1.1-2.174-2-2.335-2-.162 0-.749-.495-1.305-1.1-.557-.605-1.352-1.378-1.767-1.717-.414-.34-1.399-1.188-2.188-1.884-1.337-1.18-1.494-1.225-2.3-.66M67.194 148.486c.006 18.068-.02 18.7-.768 19.1-1.345.72-42.885.556-43.85-.173-.427-.323-.573-.593-.324-.6.248-.007 1.167-.688 2.041-1.513.874-.825 2.599-2.4 3.834-3.5 1.234-1.1 3.074-2.765 4.087-3.7 1.014-.935 2-1.7 2.192-1.7.192 0 .597-.354.9-.787.303-.433 1.258-1.348 2.122-2.035 1.422-1.129 4.904-4.155 7.801-6.778a350.035 350.035 0 0 1 5.797-5.108c3.347-2.896 9.884-8.651 11.703-10.304 2.046-1.859 3.727-2.677 4.165-2.025.162.24.297 8.846.3 19.123m270.274-16.222c.697.625 2.309 2.036 3.581 3.136 1.272 1.1 2.878 2.54 3.567 3.2.69.66 2.293 2.1 3.563 3.2 1.269 1.1 2.684 2.36 3.143 2.8.459.44 1.228 1.07 1.708 1.4.926.636 5.888 4.984 7.99 7 1.787 1.715 5.907 5.317 9.376 8.2.927.77 2.554 2.21 3.615 3.2 1.061.99 2.257 2.016 2.659 2.279 1.786 1.173-.474 1.309-21.89 1.315-16.134.004-21.538-.112-21.9-.474-.639-.639-.693-36.774-.057-37.962.457-.856 1.062-.503 4.645 2.706m-226.689 15.613c-4.495.709-6.203 7.194-2.793 10.603l1.52 1.52h178.892l1.556-1.406c2.845-2.571 2.636-6.942-.451-9.424l-1.703-1.37-88-.042c-48.4-.024-88.459.03-89.021.119m177.317 1.623c2.682 1.407 2.691 1.421 2.698 4.472.006 2.454-.062 2.636-1.494 4l-1.5 1.428H110.083l-1.441-1.528c-1.196-1.268-1.442-1.823-1.442-3.25 0-3.278.329-3.935 2.549-5.086l2.051-1.064 87.1-.036 87.1-.036 2.096 1.1m-273.52 25.182c-.699.698.762 2.336 6.291 7.056 4.263 3.639 6.233 5.384 7.184 6.362.589.605 1.185 1.1 1.325 1.1.14 0 1.193.901 2.34 2.003 3.177 3.053 3.452 3.3 6.884 6.204 1.76 1.489 3.56 3.051 4 3.471 3.705 3.537 5.018 4.722 5.231 4.722.136 0 .73.495 1.319 1.1 1.267 1.303 3.069 2.907 9.25 8.238 2.53 2.182 4.744 4.214 4.92 4.515.176.301.574.547.886.547.311 0 .747.339.969.753.584 1.091 1.661 1.382 2.396.647.887-.886.963-45.674.08-46.738-.856-1.032-52.043-1.013-53.075.02m317.47-.137c-.328.394-.424 6.711-.349 22.854l.103 22.309.905.335c.694.257 1.16.111 2-.629.602-.53 1.884-1.65 2.848-2.489s2.158-1.885 2.653-2.325c.496-.44 2.031-1.79 3.411-3 1.381-1.21 3.34-3.02 4.354-4.022 1.014-1.001 2.172-1.947 2.574-2.102.402-.154.825-.639.94-1.078.114-.439.406-.798.648-.798.241 0 .86-.405 1.375-.9 2.209-2.125 2.856-2.71 5.902-5.334 3.809-3.283 4.17-3.607 6.881-6.181 1.151-1.092 2.19-1.985 2.309-1.985.119 0 1.106-.855 2.192-1.9s3.001-2.8 4.256-3.9c8.87-7.774 9.061-7.977 8.219-8.739-1.009-.913-50.467-1.025-51.221-.116M66.809 175.6c.516.817.507 43.601-.009 44.4-.215.332-.39.394-.394.139-.003-.253-.501-.644-1.106-.868-.605-.224-2.09-1.34-3.3-2.481-1.21-1.141-3.37-3.09-4.8-4.332-1.43-1.242-2.835-2.573-3.123-2.958-.287-.385-.705-.7-.928-.7-.224 0-1.312-.855-2.418-1.9a294.575 294.575 0 0 0-3.335-3.1c-.727-.66-2.102-1.92-3.056-2.8-.953-.88-3.715-3.289-6.137-5.354-2.422-2.065-4.703-4.045-5.07-4.4-.367-.355-1.774-1.636-3.127-2.846-1.353-1.21-3.35-3.01-4.437-4-1.088-.99-3-2.7-4.25-3.8-1.25-1.1-2.965-2.675-3.811-3.5-.847-.825-1.757-1.513-2.023-1.528-.267-.016-.125-.185.315-.377 1.541-.671 50.575-.282 51.009.405m314.698-.466c.521.331-1.289 2.184-8.072 8.266a463.552 463.552 0 0 0-4.414 4c-.71.66-2.325 2.1-3.589 3.2-1.265 1.1-2.599 2.287-2.965 2.637-.367.35-2.05 1.831-3.739 3.29-1.69 1.46-3.498 3.063-4.018 3.564-.52.5-2.439 2.259-4.265 3.909-1.825 1.65-3.617 3.289-3.982 3.643-.365.354-2.013 1.776-3.663 3.16-1.65 1.384-3.45 2.944-4 3.467-4.545 4.319-5.33 4.92-5.859 4.481-.688-.571-.809-41.902-.127-43.177.44-.822 47.422-1.247 48.693-.44m8.164 9.866c-.432.55-.924 1-1.092 1-.168 0-1.183.9-2.254 2-1.072 1.1-2.113 2-2.314 2-.201 0-.601.326-.888.724-.288.398-1.963 1.96-3.723 3.47-3.406 2.922-4.085 3.529-7.15 6.387-1.073 1.001-2.046 1.819-2.164 1.819-.117 0-1.09.9-2.161 2-1.072 1.1-2.127 2-2.345 2-.219 0-.602.45-.853 1-.25.55-.669 1-.93 1s-1.092.585-1.846 1.3c-.754.715-2.506 2.29-3.893 3.5a389.07 389.07 0 0 0-4.59 4.076 2540.94 2540.94 0 0 1-4.199 3.8 604.02 604.02 0 0 0-3.434 3.124c-.716.66-2.355 2.1-3.641 3.2s-2.836 2.45-3.444 3c-.608.55-2.119 1.9-3.356 3-2.924 2.598-6.495 5.892-7.994 7.373-.22.217-1 .897-1.734 1.511-.733.614-1.832 1.566-2.441 2.116-.609.55-2.251 1.99-3.648 3.2-4.091 3.541-4.717 4.094-7.008 6.2a950.115 950.115 0 0 1-7.725 7c-.976.877-3.507 3.083-7.342 6.4-1.597 1.381-5.457 4.945-6.902 6.373-.22.217-1.003.897-1.74 1.511a62.393 62.393 0 0 0-2.196 1.916c-.471.44-2.297 2.037-4.06 3.55-1.762 1.512-3.504 3.042-3.871 3.4-.366.357-1.672 1.55-2.901 2.65a330.407 330.407 0 0 0-4.478 4.1c-1.234 1.155-2.391 2.1-2.572 2.1-.18 0-.442.36-.582.8-.14.44-.502.8-.804.8-1.071 0-1.768 1.562-1.298 2.908.282.809 21.686 22.482 62.632 63.421l62.205 62.191.733-.904c1.049-1.296 1.158-235.63.109-237.127-.796-1.136-1.139-1.118-2.106.111m-281.006.885c-3.41 2.427-3.487 7.464-.154 10.115l1.257 1h178.1l1.662-1.151c3.332-2.31 3.322-7.365-.02-9.823l-1.668-1.226H110.19l-1.525 1.085m-102.022-.052c-.414 1.079-.269 236.707.146 237.364.301.475.479.495.874.1.274-.274.732-.497 1.019-.497.287 0 28.511-27.977 62.72-62.172 69.812-69.783 63.783-63.141 60.153-66.267a307.698 307.698 0 0 1-3.166-2.761c-.616-.55-2.16-1.9-3.431-3s-2.766-2.495-3.323-3.1c-.557-.605-1.135-1.1-1.284-1.1-.148 0-1.233-.909-2.41-2.019-3.411-3.217-3.972-3.719-7.141-6.39-1.65-1.391-3.235-2.857-3.523-3.26-.287-.402-.674-.731-.859-.731-.185 0-1.233-.855-2.329-1.9a132.867 132.867 0 0 0-4.325-3.9c-1.284-1.1-2.701-2.363-3.149-2.806-1.446-1.431-6.515-5.794-6.733-5.794-.115 0-1.577-1.305-3.248-2.9-1.671-1.595-3.552-3.35-4.18-3.9l-3.648-3.2a1938.75 1938.75 0 0 0-4.956-4.333c-2.63-2.29-5.226-4.611-8.928-7.981-3.697-3.365-3.766-3.427-7.036-6.237a323.449 323.449 0 0 1-3.868-3.363A312.044 312.044 0 0 0 50.977 223c-1.258-1.1-2.742-2.495-3.298-3.1s-1.239-1.1-1.518-1.1c-.279 0-.621-.36-.761-.8-.14-.44-.422-.8-.627-.8-.205 0-.727-.354-1.159-.786-.433-.433-2.779-2.509-5.214-4.614-5.589-4.832-5.54-4.788-8.131-7.3-1.191-1.155-2.265-2.1-2.388-2.1-.123 0-1.039-.765-2.036-1.7-4.2-3.941-9.816-8.7-10.267-8.7-.208 0-.378-.264-.378-.586 0-.322-.358-.778-.796-1.012-.439-.235-1.706-1.321-2.816-2.414-1.111-1.093-2.362-1.988-2.78-1.988-.419 0-.872-.18-1.008-.4-.365-.59-.881-.487-1.157.233M391.588 303.2c0 66.573-.152 117.239-.352 117.555-.37.584-122.997-121.532-124.025-123.507-.588-1.132-1.399-.316 12.789-12.872 7.643-6.764 10.518-9.355 12.51-11.276 1.084-1.045 2.123-1.9 2.308-1.9.185 0 .572-.329.859-.731.288-.403 1.873-1.875 3.523-3.272 1.65-1.397 4-3.452 5.221-4.568 1.222-1.116 3.719-3.379 5.55-5.029 1.83-1.65 3.71-3.36 4.176-3.8.467-.44 2.144-1.902 3.727-3.248 2.87-2.441 10.149-9 14.526-13.089.33-.308 2.13-1.872 4-3.476a423.619 423.619 0 0 0 11.613-10.387c1.064-.99 2.961-2.7 4.215-3.8 1.254-1.1 2.78-2.45 3.391-3 .611-.55 1.621-1.44 2.246-1.979 3.312-2.855 7.141-6.273 8.684-7.751.959-.918 2.78-2.57 4.047-3.67a190.05 190.05 0 0 0 3.04-2.686c.405-.378 2.138-1.892 3.85-3.366 1.713-1.474 3.59-3.145 4.172-3.714a101.01 101.01 0 0 1 3-2.749 481.965 481.965 0 0 0 4.121-3.695c1.547-1.405 2.271-1.836 2.494-1.485.173.272.315 53.145.315 117.495M288.374 186.624c2.306 1.206 2.426 1.445 2.426 4.821 0 2.097-.131 2.626-.7 2.826-.385.135-1.005.624-1.377 1.087l-.677.842h-89c-88.466 0-89.005-.005-89.804-.8a27.126 27.126 0 0 0-1.423-1.316c-.434-.361-.611-1.2-.591-2.8.038-3.049.275-3.514 2.377-4.666l1.795-.983 87.507-.017 87.508-.018 1.959 1.024M10.185 188.1c.483.495 2.3 2.16 4.038 3.7 1.739 1.54 4.365 3.88 5.835 5.2 1.471 1.32 3.622 3.21 4.782 4.2 1.16.99 2.703 2.34 3.43 3 .727.66 2.242 2.01 3.367 3 1.125.99 2.522 2.246 3.104 2.792 1.401 1.312 4.227 3.785 6.865 6.008 1.175.99 2.639 2.264 3.253 2.831a533.29 533.29 0 0 0 4.206 3.8c1.699 1.523 3.511 3.172 4.026 3.664.514.492 3.404 3.012 6.42 5.6 3.017 2.588 5.756 4.994 6.087 5.347.763.814 7.95 7.257 12.402 11.12 6.272 5.44 8.972 7.831 9.989 8.844.866.86 2.391 2.218 7.858 6.994.503.44 1.44 1.25 2.081 1.8 2.87 2.462 5.86 5.149 7.68 6.9 1.086 1.045 2.159 1.9 2.383 1.9.225 0 .409.149.409.331 0 .182 2.025 2.054 4.5 4.16 2.475 2.105 5.045 4.341 5.711 4.969.667.627 2.635 2.4 4.374 3.94 1.739 1.54 3.542 3.16 4.007 3.6.465.44 1.847 1.655 3.071 2.701 1.911 1.633 2.198 2.056 2.027 3-.318 1.752-122.725 123.934-123.51 123.282-.789-.654-.888-232.315-.1-233.103.637-.637.688-.624 1.705.42m99.946 33.84c-5.711 1.71-5.099 11.02.78 11.854.929.132 41.199.187 89.489.123l87.8-.117 1.508-1.2c3.795-3.02 2.386-9.841-2.224-10.763-1.62-.324-176.265-.223-177.353.103m178.234 1.525c3.291 1.911 3.679 6.208.762 8.449l-1.672 1.286H110.461l-1.33-1.094c-1.852-1.521-1.919-1.657-1.919-3.906-.001-2.987.259-3.516 2.311-4.697l1.877-1.08 87.565-.012 87.565-.011 1.835 1.065M141.135 306.3c-.573.605-1.288 1.29-1.589 1.523-.3.232-1.01.975-1.577 1.649-.568.675-1.423 1.436-1.9 1.691-.478.256-.869.622-.869.814 0 .469-5.175 5.623-5.646 5.623-.204 0-.562.405-.796.9-.234.495-1.123 1.44-1.975 2.1-.853.66-1.66 1.515-1.794 1.9-.134.386-.622.903-1.085 1.151-.462.248-1.305 1.002-1.873 1.677-.567.674-1.269 1.417-1.56 1.649-.819.655-1.667 1.502-4.377 4.37-1.379 1.459-2.579 2.653-2.668 2.653-.329 0-5.026 4.877-5.026 5.218 0 .195-.391.563-.869.819-.477.255-1.332 1.016-1.9 1.691-.567.674-1.261 1.417-1.543 1.649-1.344 1.112-5.801 5.703-6.137 6.323-.209.385-.542.7-.741.7-.199 0-1.54 1.215-2.981 2.7-3.382 3.487-3.037 3.143-4.504 4.489-.701.644-1.473 1.539-1.714 1.991-.242.451-.596.82-.788.82-.47 0-5.469 5.022-5.764 5.791-.129.335-.409.609-.622.609-.314 0-3.699 3.273-5.892 5.697-.25.277-1.102 1.043-1.891 1.703-.79.66-1.441 1.431-1.445 1.713-.005.281-.283.617-.618.746-.793.304-5.628 5.139-5.932 5.932-.129.335-.409.609-.624.609-.491 0-9.076 8.609-9.383 9.409-.125.325-.399.591-.609.591-.476 0-6.043 5.576-6.043 6.053 0 .191-.171.347-.381.347-.471 0-9.619 9.184-9.619 9.658a.344.344 0 0 1-.344.342c-.485 0-9.656 9.122-9.656 9.604 0 .218-.157.396-.349.396-.55 0-12.051 11.59-12.051 12.144 0 .273.216.712.48.976.7.7 366.34.7 367.04 0 .264-.264.48-.708.48-.987 0-.59-11.423-12.133-12.007-12.133a.39.39 0 0 1-.393-.383c0-.506-9.103-9.617-9.608-9.617a.393.393 0 0 1-.392-.392c0-.505-9.111-9.608-9.617-9.608-.211 0-.383-.156-.383-.347 0-.506-5.475-6.053-5.975-6.053-.234 0-.425-.176-.425-.392 0-.505-9.111-9.608-9.617-9.608-.211 0-.383-.156-.383-.347 0-.506-5.475-6.053-5.975-6.053-.234 0-.425-.162-.425-.359 0-.503-8.922-9.449-9.735-9.761-.366-.14-.665-.426-.665-.634 0-.523-5.065-5.646-5.582-5.646a.41.41 0 0 1-.418-.4c0-.221-.765-1.119-1.7-1.996a119.255 119.255 0 0 1-1.993-1.9c-.162-.167-1.462-1.519-2.889-3.004-1.427-1.485-2.774-2.7-2.992-2.7-.219 0-.578-.336-.798-.747-.546-1.02-8.605-9.106-9.615-9.646-.447-.239-.813-.609-.813-.821 0-.503-4.683-5.186-5.186-5.186-.212 0-.579-.361-.815-.802-.564-1.053-3.119-3.598-3.612-3.598-.213 0-.387-.198-.387-.439 0-.487-4.595-5.009-5.7-5.609-.385-.209-.7-.56-.7-.779 0-.491-2.639-3.173-3.122-3.173-.192 0-.555-.45-.805-1-.251-.55-.723-1-1.05-1-.327 0-.788-.361-1.024-.802-.564-1.053-3.119-3.598-3.612-3.598-.213 0-.387-.198-.387-.441 0-.491-5.193-5.559-5.697-5.559-.176 0-.525-.45-.776-1-.592-1.301-3.256-1.427-4.513-.215-.448.432-1.796 1.647-2.997 2.7a133.333 133.333 0 0 0-3.324 3.009c-.629.602-1.378 1.232-1.666 1.4-.707.414-6.921 6.033-8.189 7.406-.559.605-1.25 1.1-1.536 1.1-.285 0-.724.45-.975 1-.25.55-.664 1-.919 1s-.855.45-1.333 1-1.039 1-1.245 1c-.207 0-.49.36-.63.8-.14.44-.499.8-.798.8-.299 0-.874.405-1.277.9-.404.495-2.712 2.605-5.129 4.689-5.474 4.718-7.667 6.703-8.962 8.111-.557.605-1.232 1.1-1.5 1.1-.269 0-.724.324-1.011.72-.288.396-1.123.964-1.857 1.263-.734.298-1.607.815-1.941 1.149-2.494 2.494-15.864 2.304-19.138-.271-.602-.474-1.261-.861-1.464-.861-.332 0-2.505-1.593-4.366-3.2-2.548-2.2-4.161-3.626-5.882-5.2-1.083-.99-3.017-2.7-4.298-3.8-1.281-1.1-2.7-2.371-3.153-2.824-.453-.453-2.738-2.457-5.078-4.453-2.339-1.997-4.621-3.966-5.071-4.377-1.32-1.205-1.85-1.699-2.275-2.122-.572-.569-2.493-2.287-5.395-4.824-1.385-1.21-2.807-2.485-3.161-2.833-4.849-4.766-6.911-5.752-8.509-4.067m6.766 4.014c1.609 1.382 3.262 2.822 3.673 3.2.411.377 1.686 1.496 2.833 2.486 2.22 1.916 3.641 3.204 6.446 5.844.961.904 3.277 2.953 5.147 4.553 4.12 3.526 8.492 7.378 10.218 9.003 7.615 7.173 13.021 11.105 15.982 11.626.88.154 2.124.546 2.763.87 1.364.691 8.964.578 9.885-.146.304-.239 1.393-.64 2.421-.89 2.708-.66 5.691-2.712 11.531-7.93.77-.688 2.932-2.576 4.806-4.196 1.873-1.62 3.777-3.303 4.232-3.74 2.063-1.983 6.549-6.009 15.362-13.789 6.697-5.912 10.494-9.336 11.426-10.305.476-.495 1.244-.9 1.706-.9 1.002 0 126.643 125.392 126.261 126.011-.323.523-364.855.535-365.178.013-.128-.207 27.986-28.607 62.476-63.112l62.709-62.734 1.187.811c.653.446 2.505 1.942 4.114 3.325" fill="#4a585c"/></g></svg>