<svg version="1.1" id="Layer_1" xmlns="http://www.w3.org/2000/svg" x="0" y="0" viewBox="0 0 300 284.9" xml:space="preserve"><style>.st37{fill:#1976d2}.st39{fill:#fafafa}.st40{fill:#e0e0e0}</style><g id="Layer_3"><path d="M255 0H45.1c-8.3 0-15 6.7-15 15v22.5H270V15c0-8.3-6.7-15-15-15zM75 22.5c-4.1 0-7.5-3.4-7.5-7.5s3.4-7.5 7.5-7.5 7.5 3.4 7.5 7.5-3.3 7.5-7.5 7.5zm150 0c-4.1 0-7.5-3.4-7.5-7.5s3.4-7.5 7.5-7.5 7.5 3.4 7.5 7.5-3.4 7.5-7.5 7.5z" fill="#c7c7c7"/><path class="st37" d="M300 45c.8-4.4-10.6-15-15-15H15.1C7.6 30-.7 40.6.1 45c6.2 35 22.5 112.5 22.5 112.5h254.9c0-.1 16.3-77.6 22.5-112.5z"/><path d="M277.5 157.4H22.6S6.3 234.9.1 269.9c0 8.6 5.9 15 15 15H285c4.4 0 15-3.7 15-15-6.2-35-22.5-112.5-22.5-112.5z" fill="#1e88e5"/><path class="st39" d="M124 157.4c7.4 2.4 12.6 6.4 15.8 11.7 3.2 5.5 4.9 11.6 4.9 18.4 0 11.9-3.9 21.2-11.7 28-7.8 6.8-17.7 10.2-29.8 10.2-11.9 0-21.7-3.2-29.5-9.6C66 209.7 62.2 201 62.5 190l.3-.5h16.8c0 6.9 2.1 12.3 6.3 16.4 4.2 4.1 10 6.1 17.3 6.1 7.5 0 13.3-2 17.5-6.1 4.2-4.1 6.4-10 6.4-18s-1.9-14-5.6-17.8c-3.8-3.8-9.7-5.7-17.8-5.7H88.3v-6.9H124zM207.3 157.4h17.6v66.4h-17.6z"/><path class="st40" d="M80.5 127.7H63.6l-.2-.5c-.3-9.8 3.3-18.2 10.7-25.1 7.4-6.9 17.1-10.3 29.1-10.3s21.6 3.2 28.8 9.6c7.2 6.4 10.7 15.5 10.7 27.4 0 5.4-1.6 10.7-4.9 16.1-3.2 5.3-8.1 9.4-14.6 12.2l.8.4H88.3v-6.8h15.4c7.8 0 13.3-1.9 16.6-5.9 3.2-3.9 4.9-9.3 4.9-16.3 0-7.5-1.8-13.1-5.5-17-3.7-3.9-9.1-5.8-16.4-5.8-6.9 0-12.4 2-16.5 6-4.1 3.9-6.2 9-6.3 16zM224.9 157.4h-17.6v-46.6l-26.7.4V98.5l44.3-4.8z"/><path class="st37" d="M15.1 30C4.3 30-.7 40.6.1 45c6.2 35 22.5 112.5 22.5 112.5M277.5 157.4S293.8 79.9 300 44.9c0-12.2-10.6-15-15-15"/></g></svg>