<?xml version="1.0" encoding="UTF-8" standalone="no"?>
<svg
   xmlns:dc="http://purl.org/dc/elements/1.1/"
   xmlns:cc="http://creativecommons.org/ns#"
   xmlns:rdf="http://www.w3.org/1999/02/22-rdf-syntax-ns#"
   xmlns:svg="http://www.w3.org/2000/svg"
   xmlns="http://www.w3.org/2000/svg"
   xmlns:sodipodi="http://sodipodi.sourceforge.net/DTD/sodipodi-0.dtd"
   xmlns:inkscape="http://www.inkscape.org/namespaces/inkscape"
   viewBox="0 0 240 240"
   height="240"
   width="240"
   xml:space="preserve"
   id="svg2"
   version="1.1"
   sodipodi:docname="knative-logo-rgb.svg"
   inkscape:version="0.92.3 (2405546, 2018-03-11)"><sodipodi:namedview
     pagecolor="#ffffff"
     bordercolor="#666666"
     borderopacity="1"
     objecttolerance="10"
     gridtolerance="10"
     guidetolerance="10"
     inkscape:pageopacity="0"
     inkscape:pageshadow="2"
     inkscape:window-width="1920"
     inkscape:window-height="1016"
     id="namedview18"
     showgrid="false"
     inkscape:zoom="0.81802549"
     inkscape:cx="157.80656"
     inkscape:cy="48.662735"
     inkscape:window-x="1920"
     inkscape:window-y="27"
     inkscape:window-maximized="1"
     inkscape:current-layer="svg2" /><metadata
     id="metadata8"><rdf:RDF><cc:Work
         rdf:about=""><dc:format>image/svg+xml</dc:format><dc:type
           rdf:resource="http://purl.org/dc/dcmitype/StillImage" /><dc:title></dc:title></cc:Work></rdf:RDF></metadata><defs
     id="defs6"><clipPath
       id="clipPath18"
       clipPathUnits="userSpaceOnUse"><path
         id="path16"
         d="M 0,612 H 792 V 0 H 0 Z"
         inkscape:connector-curvature="0" /></clipPath><clipPath
       clipPathUnits="userSpaceOnUse"
       id="clipPath854"><g
         inkscape:label="Clip"
         id="use856"><rect
           y="70.301971"
           x="79.459625"
           height="234.7115"
           width="264.05045"
           id="rect860"
           style="opacity:1;fill:#eefcaa;fill-opacity:0.58677685;stroke:none;stroke-width:5.99648571;stroke-linejoin:round;stroke-miterlimit:4;stroke-dasharray:none;stroke-opacity:1;paint-order:stroke fill markers" /></g></clipPath></defs><g
     transform="matrix(1.3333333,0,0,-1.3333333,-92.90664,747.31915)"
     id="g10"><g
       id="g12"><g
         clip-path="url(#clipPath18)"
         id="g14"><g
           transform="translate(142.8809,539.6504)"
           id="g20"><path
             id="path22"
             style="fill:#0366ad;fill-opacity:1;fill-rule:nonzero;stroke:none"
             d="m 0,0 -55.513,-26.734 c -0.987,-0.475 -1.704,-1.374 -1.948,-2.442 l -13.711,-60.071 c -0.244,-1.067 0.012,-2.189 0.695,-3.045 l 38.417,-48.173 c 0.683,-0.856 1.719,-1.355 2.814,-1.355 H 32.37 c 1.095,0 2.131,0.499 2.814,1.355 l 38.417,48.173 c 0.683,0.856 0.939,1.978 0.695,3.045 l -13.711,60.071 c -0.244,1.068 -0.96,1.967 -1.948,2.442 L 3.124,0 C 2.137,0.476 0.987,0.476 0,0"
             inkscape:connector-curvature="0" /></g><g
           transform="translate(211.8286,539.6938)"
           id="g24"><path
             id="path26"
             style="fill:#6593c8;fill-opacity:1;fill-rule:nonzero;stroke:none"
             d="m 0,0 -21.825,-7.943 c -0.397,-0.145 -0.731,-0.425 -0.943,-0.792 L -34.38,-28.848 c -0.212,-0.367 -0.287,-0.796 -0.214,-1.213 l 4.033,-22.872 c 0.073,-0.417 0.291,-0.795 0.615,-1.067 l 17.792,-14.928 c 0.324,-0.272 0.734,-0.421 1.157,-0.421 h 23.225 c 0.423,0 0.833,0.149 1.157,0.421 L 31.177,-54 c 0.323,0.272 0.542,0.65 0.615,1.067 l 4.033,22.872 c 0.073,0.417 -0.002,0.846 -0.214,1.213 L 23.999,-8.735 c -0.212,0.367 -0.546,0.647 -0.943,0.792 L 1.231,0 C 0.833,0.145 0.397,0.145 0,0"
             inkscape:connector-curvature="0" /></g><g
           transform="translate(208.2124,513.2109)"
           id="g28"><path
             id="path30"
             style="fill:#ffffff;fill-opacity:1;fill-rule:nonzero;stroke:none"
             d="m 0,0 c 0.435,0.42 0.886,0.805 1.354,1.155 0.47,0.35 0.967,0.651 1.492,0.904 0.525,0.252 1.092,0.447 1.701,0.587 0.609,0.14 1.27,0.21 1.984,0.21 1.176,0 2.219,-0.203 3.129,-0.609 0.91,-0.406 1.677,-0.974 2.3,-1.701 0.623,-0.728 1.092,-1.596 1.407,-2.604 0.315,-1.007 0.473,-2.114 0.473,-3.318 V -19.131 H 8.064 v 13.755 c 0,1.204 -0.28,2.139 -0.839,2.804 C 6.664,-1.907 5.839,-1.575 4.746,-1.575 3.935,-1.575 3.172,-1.75 2.457,-2.1 1.743,-2.45 1.064,-2.939 0.421,-3.57 V -19.131 H -5.376 V 2.521 h 3.57 c 0.728,0 1.211,-0.336 1.45,-1.009 z"
             inkscape:connector-curvature="0" /></g><g
           transform="translate(124.7598,489.5762)"
           id="g32"><path
             id="path34"
             style="fill:#ffffff;fill-opacity:1;fill-rule:nonzero;stroke:none"
             d="m 0,0 h 12.229 v -24.137 h 0.244 c 1.215,2.107 2.51,4.05 3.725,5.994 L 28.591,0 H 43.736 L 25.675,-23.245 44.708,-54.59 H 30.292 l -13.364,23.569 -4.699,-5.75 V -54.59 H 0 Z"
             inkscape:connector-curvature="0" /></g></g></g></g></svg>