<svg version="1.1" id="Layer_1" xmlns="http://www.w3.org/2000/svg" x="0" y="0" viewBox="0 0 300 210" xml:space="preserve"><style>.st5,.st6{fill:#fff}.st6{fill-rule:evenodd;clip-rule:evenodd}</style><path d="M124.8 22.9c9.7-10.1 23.1-16.3 38-16.3 19.8 0 37.1 11 46.3 27.4 8-3.6 16.8-5.6 26.2-5.6 35.7 0 64.7 29.2 64.7 65.2s-29 65.2-64.7 65.2c-4.4 0-8.6-.4-12.7-1.3-8.1 14.4-23.5 24.2-41.3 24.2-7.4 0-14.4-1.7-20.7-4.8-8.2 19.3-27.3 32.9-49.7 32.9-23.2 0-43-14.7-50.6-35.3-3.3.7-6.8 1.1-10.3 1.1-27.6.1-50-22.5-50-50.4 0-18.7 10.1-35.1 25-43.8-3.1-7.1-4.8-14.9-4.8-23.1C20.2 26.1 46.3 0 78.5 0c18.9 0 35.7 9 46.3 22.9" fill="#0f9bd7"/><path class="st5" d="M43.4 108.9c-.2.5.1.6.1.7.6.4 1.1.7 1.7 1 3.1 1.6 6 2.1 9 2.1 6.2 0 10-3.3 10-8.5v-.1c0-4.9-4.3-6.6-8.4-7.9l-.5-.2c-3.1-1-5.7-1.8-5.7-3.9V92c0-1.7 1.5-3 3.9-3 2.6 0 5.8.9 7.8 2 0 0 .6.4.8-.2.1-.3 1.1-3.1 1.3-3.4.1-.3-.1-.6-.3-.7-2.3-1.4-5.5-2.4-8.8-2.4h-.6c-5.6 0-9.6 3.4-9.6 8.3v.1c0 5.1 4.3 6.8 8.4 8l.7.2c3 .9 5.5 1.7 5.5 3.8v.1c0 1.9-1.7 3.3-4.3 3.3-1 0-4.4 0-7.9-2.3-.4-.3-.7-.4-1-.6-.2-.1-.6-.3-.8.3l-1.3 3.4zM133.5 108.9c-.2.5.1.6.1.7.6.4 1.1.7 1.7 1 3.1 1.6 6 2.1 9 2.1 6.2 0 10-3.3 10-8.5v-.1c0-4.9-4.3-6.6-8.4-7.9l-.5-.2c-3.1-1-5.7-1.8-5.7-3.9V92c0-1.7 1.5-3 3.9-3 2.6 0 5.8.9 7.8 2 0 0 .6.4.8-.2.1-.3 1.1-3.1 1.3-3.4.1-.3-.1-.6-.3-.7-2.3-1.4-5.5-2.4-8.8-2.4h-.6c-5.6 0-9.6 3.4-9.6 8.3v.1c0 5.1 4.3 6.8 8.4 8l.7.2c3 .9 5.5 1.7 5.5 3.8v.1c0 1.9-1.7 3.3-4.3 3.3-1 0-4.3 0-7.9-2.3-.4-.3-.7-.4-1-.6-.1-.1-.6-.3-.8.3l-1.3 3.4zM200.2 93c-.5-1.7-1.3-3.2-2.3-4.5-1-1.3-2.4-2.3-3.9-3-1.6-.7-3.4-1.1-5.5-1.1s-3.9.4-5.5 1.1c-1.6.7-2.9 1.7-3.9 3s-1.8 2.8-2.3 4.5c-.5 1.7-.8 3.6-.8 5.5 0 2 .3 3.8.8 5.5.5 1.7 1.3 3.2 2.3 4.5 1 1.3 2.4 2.3 3.9 3s3.4 1.1 5.5 1.1 3.9-.4 5.5-1.1c1.6-.7 2.9-1.7 3.9-3s1.8-2.8 2.3-4.5c.5-1.7.8-3.6.8-5.5-.1-1.9-.3-3.8-.8-5.5m-5.2 5.6c0 3-.6 5.3-1.6 7-1.1 1.6-2.7 2.4-5 2.4s-3.9-.8-5-2.4c-1.1-1.7-1.6-4-1.6-7s.5-5.3 1.6-7c1.1-1.6 2.7-2.4 5-2.4s3.9.8 5 2.4c1.1 1.7 1.6 4 1.6 7"/><path class="st6" d="M242.4 107.2c-.2-.5-.7-.3-.7-.3-.7.3-1.5.5-2.4.7-.9.1-1.8.2-2.8.2-2.5 0-4.5-.7-5.9-2.2-1.4-1.5-2.2-3.8-2.2-7 0-2.9.7-5.1 2-6.8 1.3-1.7 3.2-2.5 5.7-2.5 2.1 0 3.7.2 5.4.8 0 0 .4.2.6-.4.5-1.3.8-2.1 1.3-3.5.1-.4-.2-.6-.3-.6-.7-.3-2.2-.7-3.4-.9-1.1-.2-2.4-.3-3.9-.3-2.2 0-4.1.4-5.7 1.1-1.6.7-3 1.7-4.1 3-1.1 1.3-1.9 2.8-2.5 4.5-.6 1.7-.8 3.6-.8 5.5 0 4.3 1.1 7.7 3.4 10.2 2.3 2.5 5.7 3.8 10.1 3.8 2.6 0 5.3-.5 7.3-1.3 0 0 .4-.2.2-.6l-1.3-3.4zM268.6 92.1c-.4-1.6-1.5-3.3-2.2-4.1-1.1-1.2-2.2-2.1-3.3-2.5-1.4-.6-3.1-1-5-1-2.2 0-4.1.4-5.7 1.1-1.6.7-2.9 1.8-4 3.1s-1.8 2.8-2.4 4.5c-.5 1.7-.8 3.6-.8 5.5 0 2 .3 3.9.8 5.6.5 1.7 1.4 3.2 2.5 4.4 1.1 1.2 2.6 2.2 4.4 2.9 1.8.7 3.9 1 6.3 1 5 0 7.7-1.1 8.8-1.7.2-.1.4-.3.1-.8l-1.1-3.2c-.2-.5-.7-.3-.7-.3-1.2.5-3 1.3-7.1 1.3-2.7 0-4.7-.8-5.9-2-1.3-1.3-1.9-3.1-2-5.8h17.4s.5 0 .5-.5c0-.2.6-3.6-.6-7.5m-17.3 3.6c.2-1.7.7-3 1.4-4.1 1.1-1.6 2.7-2.5 5-2.5s3.8.9 4.9 2.5c.7 1.1 1 2.5 1.2 4.1h-12.5zM129.4 92.1c-.4-1.6-1.5-3.3-2.2-4.1-1.1-1.2-2.2-2.1-3.3-2.5-1.4-.6-3.1-1-5-1-2.2 0-4.1.4-5.7 1.1-1.6.7-2.9 1.8-4 3.1s-1.8 2.8-2.4 4.5c-.5 1.7-.8 3.6-.8 5.5 0 2 .3 3.9.8 5.6.5 1.7 1.4 3.2 2.5 4.4 1.1 1.2 2.6 2.2 4.4 2.9 1.8.7 3.9 1 6.3 1 5 0 7.7-1.1 8.8-1.7.2-.1.4-.3.1-.8l-1.1-3.2c-.2-.5-.7-.3-.7-.3-1.2.5-3 1.3-7.1 1.3-2.7 0-4.7-.8-5.9-2-1.3-1.3-1.9-3.1-2-5.8h17.4s.5 0 .5-.5c-.1-.2.5-3.6-.6-7.5m-17.3 3.6c.2-1.7.7-3 1.4-4.1 1.1-1.6 2.7-2.5 5-2.5s3.8.9 4.9 2.5c.7 1.1 1 2.5 1.2 4.1h-12.5z"/><path class="st5" d="M81.4 94.9c-.7-.1-1.6-.1-2.7-.1-1.5 0-2.9.2-4.3.6-1.4.4-2.6.9-3.6 1.7-1.1.8-1.9 1.7-2.5 2.9-.6 1.1-.9 2.5-.9 4s.3 2.9.8 4 1.3 2 2.3 2.7c1 .7 2.2 1.2 3.5 1.5 1.4.3 2.9.5 4.6.5 1.8 0 3.6-.1 5.3-.4 1.7-.3 3.8-.7 4.4-.9.6-.1 1.2-.3 1.2-.3.4-.1.4-.6.4-.6V94.6c0-3.5-.9-6.1-2.8-7.7-1.8-1.6-4.5-2.4-8-2.4-1.3 0-3.4.2-4.7.4 0 0-3.8.7-5.4 2 0 0-.3.2-.2.7l1.2 3.3c.2.4.6.3.6.3s.1-.1.3-.1c3.3-1.8 7.6-1.8 7.6-1.8 1.9 0 3.3.4 4.3 1.1.9.7 1.4 1.8 1.4 4.1v.7c-1.4-.2-2.8-.3-2.8-.3m-6.9 12.2c-.7-.5-.8-.7-1-1-.3-.5-.5-1.3-.5-2.3 0-1.5.5-2.6 1.6-3.4 0 0 1.5-1.3 5-1.3 2.5 0 4.7.4 4.7.4v7.9s-2.2.5-4.7.6c-3.5.3-5.1-.9-5.1-.9"/><path class="st6" d="M221.7 85.9c.1-.4-.1-.6-.3-.6-.3-.1-1.8-.4-2.9-.5-2.2-.1-3.4.2-4.5.7-1.1.5-2.3 1.3-2.9 2.2v-2.1c0-.3-.2-.5-.5-.5h-4.5c-.3 0-.5.2-.5.5v25.9c0 .3.2.5.5.5h4.6c.3 0 .5-.2.5-.5v-13c0-1.7.2-3.5.6-4.6.4-1.1.9-1.9 1.5-2.6.6-.6 1.4-1 2.2-1.3.8-.2 1.7-.3 2.3-.3.9 0 1.9.2 1.9.2.3 0 .5-.2.6-.5.4-.6 1.2-3 1.4-3.5M178.8 73.9c-.6-.2-1.1-.3-1.7-.4-.7-.1-1.5-.2-2.4-.2-3.1 0-5.6.9-7.4 2.6-1.7 1.7-2.9 4.4-3.5 7.9l-.2 1.2h-3.9s-.5 0-.6.5l-.6 3.6c0 .3.1.6.6.6h3.8l-3.9 21.8c-.3 1.8-.7 3.2-1 4.3-.4 1.1-.8 1.9-1.2 2.5-.4.6-.9 1-1.6 1.2-.6.2-1.3.3-2 .3-.4 0-1-.1-1.4-.2-.4-.1-.6-.2-.9-.3 0 0-.4-.2-.6.3-.1.4-1.2 3.2-1.3 3.5-.1.3 0 .6.3.7.5.2.9.3 1.6.5 1 .2 1.8.2 2.5.2 1.6 0 3.1-.2 4.3-.7 1.2-.4 2.3-1.2 3.2-2.2 1-1.1 1.6-2.3 2.3-3.9.6-1.6 1.1-3.5 1.5-5.8l3.9-22.2h5.7s.5 0 .6-.5l.6-3.6c0-.3-.1-.6-.6-.6h-5.6c0-.1.3-2.1.9-3.9.3-.8.8-1.4 1.2-1.9.4-.4.9-.7 1.5-.9.6-.2 1.2-.3 1.9-.3.5 0 1 .1 1.4.1.5.1.7.2.9.2.6.2.6 0 .8-.3l1.3-3.7c0-.2-.3-.3-.4-.4M101.1 111.5c0 .3-.2.5-.5.5H96c-.3 0-.5-.2-.5-.5V74.4c0-.3.2-.5.5-.5h4.6c.3 0 .5.2.5.5v37.1z"/></svg>