<?xml version="1.0" encoding="UTF-8"?>
<svg width="124px" height="112px" viewBox="0 0 124 112" version="1.1" xmlns="http://www.w3.org/2000/svg" xmlns:xlink="http://www.w3.org/1999/xlink">
    <!-- Generator: Sketch 54.1 (76490) - https://sketchapp.com -->
    <title>Group 32@3x</title>
    <desc>Created with Sketch.</desc>
    <g id="FINAL-EXPORT" stroke="none" stroke-width="1" fill="none" fill-rule="evenodd">
        <g id="Group-32" transform="translate(0.000000, -0.000000)">
            <g id="Group-31" transform="translate(62.000000, 56.000000) rotate(-270.000000) translate(-62.000000, -56.000000) translate(6.000000, -6.000000)">
                <path d="M56.0175114,25.8570126 C56.0116844,25.8636856 56.0058473,25.8703728 56,25.8770741 C56.074082,25.9597309 56.5673301,26.5687823 56.7854626,26.8263915 C57.1573987,27.2656388 57.5680845,27.7677524 58.0039496,28.3224957 C59.2474251,29.9051178 60.16152,31.5905821 61.1829807,33.2709784 C61.4292948,33.6761876 61.6631222,34.0772974 61.883484,34.4733831 C61.951877,34.5963148 62.0200582,34.7234731 62.0879736,34.8547419 C62.7223434,36.080869 63.3117991,37.6208185 63.8403384,39.374573 C64.269377,40.7981725 64.5215808,42.491793 64.8171642,43.9401613 C64.8129954,43.9600917 64.8088684,43.9800379 64.8047832,44 L47.9937291,44 C47.9939709,43.9973533 47.9942131,43.9947066 47.9944556,43.9920601 C48.0600161,43.276485 48.1497938,42.5678762 48.262953,41.8670751 L47.2308993,44 C48.2236889,39.4608656 49.705735,35.4348167 51.6770374,31.9218533 C52.8725056,29.7396963 54.3211897,27.7172243 55.9828906,25.8949169 C55.9944206,25.8822725 56.0059609,25.8696377 56.0175114,25.8570126 Z M60.283951,21.9829271 C65.3032323,18.2110536 71.4972778,15.9421001 78.203419,15.8433578 L82.9374837,15.7622238 L82.9374837,6.00015615 C82.9374837,1.46847091 88.3755407,-0.800916399 91.555819,2.40348054 L109.65831,20.6428638 C110.643743,21.6361638 111.136655,22.9378516 111.136655,24.2399333 C111.136655,25.541621 110.643743,26.8433088 109.65831,27.8366089 L91.555819,46.0759921 C88.3755407,49.2803891 82.9374837,47.0106079 82.9374837,42.4793165 L82.9374837,32.7172488 L78.203419,32.7322153 C74.7385021,32.8435407 71.5839611,34.1943693 69.1788256,36.3629671 C68.6531815,34.7908503 68.0693218,33.3584895 67.416985,32.0976351 C67.321622,31.913315 67.224867,31.7328665 67.1266607,31.5563472 C66.8680255,31.0914679 66.5955083,30.6239891 66.3100536,30.15439 C65.1517607,28.2488923 63.8300107,26.3834093 62.4486295,24.625269 C61.673178,23.6383202 60.7382598,22.5016679 60.283951,21.9829271 Z M61.1730949,51 C57.1251424,51.8695329 52.4573833,52.3415157 48.7410171,51.894614 C48.6689011,51.8730549 48.5974271,51.8508803 48.5266178,51.828084 C48.4409919,51.5662136 48.3628504,51.2903378 48.2926723,51 L61.1730949,51 Z" id="Combined-Shape" fill="#000000"></path>
                <g id="Group-15" transform="translate(32.500000, 26.500000) rotate(-90.000000) translate(-32.500000, -26.500000) translate(6.000000, -6.000000)" fill="#000000">
                    <path d="M2,50.8269051 L2,63.7073277 C1.70966224,63.6371496 1.43378638,63.5590081 1.17191604,63.4733822 C1.14911967,63.4025729 1.12694507,63.3310989 1.105386,63.2589829 C0.658484311,59.5426167 1.13046705,54.8748576 2,50.8269051 Z M9,47.1952168 C15.3191998,45.9020082 20.0551197,40.4156137 20.2677847,33.796581 L20.2827512,29.0625163 L10.5206835,29.0625163 C5.98939211,29.0625163 3.71961094,23.6244593 6.92400788,20.444181 L25.1633911,2.34168969 C26.1566912,1.35625684 27.458379,0.863344973 28.7600667,0.863344973 C30.0621484,0.863344973 31.3638362,1.35625684 32.3571362,2.34168969 L50.5965195,20.444181 C53.8009164,23.6244593 51.5315291,29.0625163 46.9998438,29.0625163 L37.2377762,29.0625163 L37.1566422,33.796581 C36.9237745,49.6119283 24.6207173,62.5791235 9,64.0062709 L9,47.1952168 Z" id="Combined-Shape"></path>
                </g>
                <path d="M42,56.6000798 C42,53.5076414 44.5076057,51 47.5996008,51 L64.4,51 C67.4919952,51 70,53.5076414 70,56.6000798 L70,73.3999202 C70,76.4923586 67.4919952,79 64.4,79 L47.5996008,79 C44.5076057,79 42,76.4923586 42,73.3999202 L42,56.6000798 Z" id="Combined-Shape" fill="#00AEEF"></path>
                <path d="M47,86 L65,86 L65,119 C65,121.761424 62.7614237,124 60,124 L52,124 C49.2385763,124 47,121.761424 47,119 L47,86 Z" id="Path-4" fill="#000000"></path>
            </g>
        </g>
    </g>
</svg>