<?xml version="1.0" encoding="utf-8"?>
<!-- Generator: Adobe Illustrator 23.0.1, SVG Export Plug-In . SVG Version: 6.00 Build 0)  -->
<svg version="1.1" id="Layer_1" xmlns="http://www.w3.org/2000/svg" xmlns:xlink="http://www.w3.org/1999/xlink" x="0px" y="0px"
	 viewBox="0 0 324 324" style="enable-background:new 0 0 324 324;" xml:space="preserve">
<style type="text/css">
	.st0{fill:#00AEEF;}
</style>
<g>
	<path d="M254.5,269.3h3.2c3.4,0,6.7-1.4,9.2-3.7l52.9-52.9c2.5-2.5,3.7-5.7,3.7-9.1v-3.3h-69.2v69.1H254.5z"/>
	<path d="M310.8,27.3H94.6c-7.2,0-13,5.8-13,13v105.2l56.8-55.6c2.6-2.6,6-4.2,9.6-4.5l44.3-4.4c0.9-0.1,1.7-0.1,2.6-0.1
		c7.3,0,14.1,3.1,19,8.6c4.8,5.5,7.1,12.7,6.2,19.9l-5.5,44.3c-0.4,3.6-2.1,7-4.7,9.5L104.5,266.5c-1.2,1.2-2.6,2.1-4,3h136.7V196
		c0-7.2,5.8-13,13-13h73.5V40.2C323.7,33.1,317.9,27.3,310.8,27.3z"/>
	<path class="st0" d="M204.3,107.3c0.6-5.6-3.7-10.4-9.2-10.4c-0.3,0-0.6,0-1,0l-44.5,4.4l-68,66.5l-37.5,36.6
		c-1.8,1.8-1.8,4.7-0.1,6.6l37.6,38.3l5,5.1c1,1,2.1,1.4,3.3,1.4c1.2,0,2.4-0.4,3.2-1.3l105.5-103.3L204.3,107.3z"/>
	<path class="st0" d="M29.9,223.9c-1-1-2.1-1.4-3.3-1.4s-2.4,0.4-3.2,1.3L6.3,240.5c-7.4,7.3-7.5,19.1-0.3,26.3l23.1,23.7
		c3.6,3.7,8.5,5.6,13.3,5.6c4.7,0,9.4-1.7,13.1-5.4l17.1-16.7c1.8-1.8,1.8-4.7,0.1-6.6L29.9,223.9z"/>
</g>
</svg>
