<?xml version="1.0" encoding="utf-8"?>
<!-- Generator: Adobe Illustrator 23.0.1, SVG Export Plug-In . SVG Version: 6.00 Build 0)  -->
<svg version="1.1" id="Layer_1" xmlns="http://www.w3.org/2000/svg" xmlns:xlink="http://www.w3.org/1999/xlink" x="0px" y="0px"
	 viewBox="0 0 324 324" style="enable-background:new 0 0 324 324;" xml:space="preserve">
<style type="text/css">
	.st0{fill-rule:evenodd;clip-rule:evenodd;fill:#00AEEF;}
	.st1{filter:url(#Adobe_OpacityMaskFilter);}
	.st2{fill-rule:evenodd;clip-rule:evenodd;fill:#FFFFFF;}
	.st3{mask:url(#mask-2_1_);fill-rule:evenodd;clip-rule:evenodd;}
	.st4{fill-rule:evenodd;clip-rule:evenodd;}
</style>
<title>Group 8</title>
<desc>Created with Sketch.</desc>
<g id="As-of-12-18">
	<g id="One-Color" transform="translate(-1239.000000, -162.000000)">
		<g id="Group-8" transform="translate(1239.000000, 162.000000)">
			<path id="Fill-1" class="st0" d="M220.8,154l10.7,18c2.2,3.7,5.8,5.4,9.4,5.4c4.7,0,9.3-2.9,10.6-8.2l13.9-53.5
				c1.5-5.8-2-11.8-7.9-13.3l-53.8-13.9c-1-0.3-1.9-0.4-2.8-0.4c-8,0-13.8,8.9-9.3,16.5l10.7,18L179.7,136l-24,14.1l-90.1,52.9
				c-6,3.5-8,11.3-4.5,17.3l5.5,9.4c2.4,4,6.6,6.2,11,6.2c2.2,0,4.4-0.6,6.4-1.7l61.4-35.9l19-11.1L220.8,154z"/>
			<g id="Group-5">
				<g id="Clip-4">
				</g>
				<defs>
					<filter id="Adobe_OpacityMaskFilter" filterUnits="userSpaceOnUse" x="0.5" y="26.2" width="143.9" height="271.7">
						<feColorMatrix  type="matrix" values="1 0 0 0 0  0 1 0 0 0  0 0 1 0 0  0 0 0 1 0"/>
					</filter>
				</defs>
				<mask maskUnits="userSpaceOnUse" x="0.5" y="26.2" width="143.9" height="271.7" id="mask-2_1_">
					<g class="st1">
						<polygon id="path-1_1_" class="st2" points="0.5,26.2 144.4,26.2 144.4,297.8 0.5,297.8 						"/>
					</g>
				</mask>
				<path id="Fill-3" class="st3" d="M77,250.9c-9.9,0-19.2-5.3-24.2-13.8l-5.5-9.4c-7.8-13.3-3.4-30.6,9.9-38.4l87.2-51.5V42
					c0-8.7-7.1-15.9-15.8-15.9H16.3C7.6,26.2,0.5,33.3,0.5,42V282c0,8.7,7.1,15.9,15.8,15.9h112.2c8.7,0,15.8-7.1,15.8-15.9v-66.3
					L91.1,247C86.8,249.6,81.9,250.9,77,250.9"/>
			</g>
			<path id="Fill-6" class="st4" d="M307.6,26.2H195c-8.7,0-15.9,7.1-15.9,15.9v41.2c4.9-6.8,12.8-10.9,21.2-10.9
				c2.2,0,4.5,0.3,6.7,0.9L260.7,87c6.8,1.8,12.5,6.1,16.1,12.1c3.6,6.1,4.6,13.2,2.8,20l-13.9,53.6c-3,11.6-13.5,19.7-25.6,19.7
				c-9.4,0-17.9-4.9-22.7-13l-2.8-4.8l-35.6,20.9V282c0,8.7,7.1,15.9,15.9,15.9h112.6c8.7,0,15.9-7.1,15.9-15.9V42
				C323.5,33.3,316.3,26.2,307.6,26.2"/>
		</g>
	</g>
</g>
</svg>
