<?xml version="1.0" encoding="utf-8"?>
<!-- Generator: Adobe Illustrator 23.0.1, SVG Export Plug-In . SVG Version: 6.00 Build 0)  -->
<svg version="1.1" id="Layer_1" xmlns="http://www.w3.org/2000/svg" xmlns:xlink="http://www.w3.org/1999/xlink" x="0px" y="0px"
	 viewBox="0 0 324 324" style="enable-background:new 0 0 324 324;" xml:space="preserve">
<style type="text/css">
	.st0{fill:#00AEEF;}
</style>
<g>
	<path d="M254.6,37.8c-4.3,18.8-21.2,32.8-41.3,32.8s-36.9-14-41.3-32.8H31.5c0,10.7,0.7,21.2,2.1,31.4c0.8,5.7,1.7,11.3,3,16.8
		c12.6,59.1,47.8,105.4,92.3,120.8V311c0,7.2,5.9,12.1,12.2,12.1c2.3,0,4.7-0.7,6.9-2.2l40.5-28.3c3.3-2.3,5.2-6,5.2-9.9v-75.9
		c44.4-15.4,79.6-61.6,92.3-120.8c1.2-5.5,2.1-11.1,2.9-16.9c1.3-10.1,1.9-20.6,1.9-31.3H254.6z M109.6,112.2
		c-15.4,0-27.9-12.4-27.9-27.9s12.4-27.9,27.9-27.9s27.9,12.4,27.9,27.9S124.9,112.2,109.6,112.2z M220.1,143.6
		c-3.4,21.9-23.7,36.8-45.6,33.6c-21.9-3.4-36.8-23.7-33.6-45.6c3.4-21.9,23.7-36.8,45.6-33.6C208.4,101.4,223.3,121.8,220.1,143.6z
		"/>
	<path class="st0" d="M187.1,37.8c4,10.7,14.2,18.3,26.2,18.3s22.3-7.6,26.2-18.3c0.9-2.3,1.3-4.7,1.6-7.2c0.1-0.8,0.1-1.5,0.1-2.4
		c0-1.6-0.2-3.3-0.4-4.8c-2.3-13.1-13.7-23.1-27.5-23.1c-13.8,0-25.4,10-27.7,23.1c-0.3,1.5-0.4,3.2-0.4,4.8c0,0.8,0,1.6,0.1,2.4
		C185.6,33,186.2,35.5,187.1,37.8z"/>
</g>
</svg>
