<?xml version="1.0" encoding="utf-8"?>
<!-- Generator: Adobe Illustrator 23.0.1, SVG Export Plug-In . SVG Version: 6.00 Build 0)  -->
<svg version="1.1" id="Layer_1" xmlns="http://www.w3.org/2000/svg" xmlns:xlink="http://www.w3.org/1999/xlink" x="0px" y="0px"
	 viewBox="0 0 324 324" style="enable-background:new 0 0 324 324;" xml:space="preserve">
<style type="text/css">
	.st0{fill-rule:evenodd;clip-rule:evenodd;}
	.st1{filter:url(#Adobe_OpacityMaskFilter);}
	.st2{fill-rule:evenodd;clip-rule:evenodd;fill:#FFFFFF;}
	.st3{mask:url(#mask-2_1_);fill-rule:evenodd;clip-rule:evenodd;fill:#00AEEF;}
	.st4{fill-rule:evenodd;clip-rule:evenodd;fill:#00AEEF;}
</style>
<title>Group 14</title>
<desc>Created with Sketch.</desc>
<g id="As-of-12-18">
	<g id="One-Color" transform="translate(-708.000000, -869.000000)">
		<g id="Group-14" transform="translate(708.000000, 869.000000)">
			<path id="Fill-1" class="st0" d="M109.4,181.6c3.5,3,6.2,6.8,7.8,11l2.3-15.9h-15.9L109.4,181.6z"/>
			<path id="Fill-3" class="st0" d="M270,242.6L270,242.6l-0.1,0.1c-5.2,4.8-11.9,7.4-18.9,7.4c-7.7,0-15.1-3.2-20.3-8.9l-15.3-16.4
				l-2.9-3.2c-5.2-5.5-7.9-12.7-7.5-20.2c0.3-7.5,3.7-14.7,9.4-19.8l5.6-4.9h-21.2l-5.6,39.4l-5.3,37.5l0,0.1l0,0.1
				c-0.2,1.5-0.6,2.6-0.7,3.3c-2.8,9.8-11.2,17.2-21.5,19c-1.5,0.3-3.1,0.4-4.7,0.4c-0.9,0-1.7,0-2.6-0.1l-24.5-2.2
				c-9.3-0.8-17.3-6.1-21.4-14.3c-2.3-4.5-3.1-9.6-2.5-14.6l0-0.1l0-0.1l3.7-25.8c-0.6,0.8-1.3,1.6-2,2.4l-3,3.2l-15.4,16.5
				c-5.2,5.6-12.6,8.9-20.3,8.9c-7.1,0-13.8-2.7-19-7.6l-18.1-17l-25.2-23.7v84.8c0,7.5,6.1,13.6,13.5,13.6h275.5
				c7.5,0,13.5-6.1,13.5-13.6v-84.8l-25.1,23.7L270,242.6z"/>
			<path id="Fill-5" class="st0" d="M203.4,147.3h10.2c-4.4-4.3-7.1-9.8-8-15.9L203.4,147.3z"/>
			<path id="Fill-7" class="st0" d="M54,87.4c5.2-4.9,11.9-7.6,19-7.6c7.6,0,15,3.2,20.2,8.8l9.9,10.6l8.5,9.1
				c5.2,5.5,7.9,12.7,7.6,20.3c-0.3,7.1-3.3,13.8-8.3,18.8h13l5.6-39.4l5.3-37.4c0.2-1.5,0.6-2.7,0.7-3.4
				c2.7-9.8,11.2-17.3,21.6-19.1c1.6-0.3,3.1-0.4,4.7-0.4c0.8,0,1.5,0,2.3,0.1l0.1,0l0.1,0l24.7,2.2c7.1,0.6,13.4,3.8,18,9.1
				c1.3,1.6,2.5,3.3,3.4,5.2c2.3,4.5,3.1,9.6,2.5,14.6l0,0.1l0,0.1l-4.7,33.3l-0.5,3.6c1.2-2.8,2.9-5.4,5.1-7.7l8.4-9l9.9-10.6
				l0.1-0.1l0.1-0.1c5.3-5.5,12.6-8.7,20.1-8.7c7.1,0,13.8,2.7,19,7.5l11.9,11.2l31.4,29.6V37.3c0-7.5-6.1-13.6-13.5-13.6H24.3
				c-7.5,0-13.5,6.1-13.5,13.6v90.7l31.5-29.6L54,87.4z"/>
			<g id="Group-11" transform="translate(0.000000, 63.000000)">
				<g id="Clip-10">
				</g>
				<defs>
					<filter id="Adobe_OpacityMaskFilter" filterUnits="userSpaceOnUse" x="0.5" y="33" width="103.2" height="137.9">
						<feColorMatrix  type="matrix" values="1 0 0 0 0  0 1 0 0 0  0 0 1 0 0  0 0 0 1 0"/>
					</filter>
				</defs>
				<mask maskUnits="userSpaceOnUse" x="0.5" y="33" width="103.2" height="137.9" id="mask-2_1_">
					<g class="st1">
						<polygon id="path-1_1_" class="st2" points="0.5,33 103.7,33 103.7,170.8 0.5,170.8 						"/>
					</g>
				</mask>
				<path id="Fill-9" class="st3" d="M47.1,150.6l18.1,17c2.2,2.1,5.1,3.3,8.2,3.3h0c3.3,0,6.5-1.4,8.7-3.8l15.4-16.4l3-3.2
					c2.2-2.3,3.4-5.5,3.2-8.7c-0.2-3.2-1.6-6.2-4-8.4l-19.1-16.8l-13.3-11.7l20.1-17.6l12.4-10.9c2.4-2.1,3.9-5.2,4-8.4
					c0.1-3.2-1-6.3-3.2-8.6l-8.5-9.1L82,36.7c-2.2-2.4-5.4-3.8-8.7-3.8c-3,0-5.9,1.2-8.2,3.2l-11.8,11L16.6,81.6L4.3,93.2
					c-2.4,2.2-3.8,5.4-3.8,8.7c0,3.3,1.4,6.5,3.8,8.7l9.3,8.7L47.1,150.6z"/>
			</g>
			<path id="Fill-12" class="st4" d="M188.1,65.6l-24.7-2.2c-0.3,0-0.7,0-1,0c-0.7,0-1.4,0.1-2.1,0.2c-4.4,0.7-7.9,3.8-9,7.6
				c-0.1,0.4-0.2,0.8-0.3,1.3l-5.3,37.3l-5.3,37l-4.2,29.3l-5.3,37l-4.7,33.2c-0.3,1.9,0.1,3.8,0.9,5.4c1.5,3,4.7,5.3,8.6,5.6
				l24.6,2.2c0.4,0,0.8,0.1,1.1,0.1c0.7,0,1.4-0.1,2-0.2c4.4-0.7,7.8-3.7,8.9-7.7c0.1-0.4,0.2-0.8,0.3-1.3l5.3-37.3l5.3-37l4.2-29.3
				l5.3-37l4.7-33.2c0.2-1.9-0.1-3.7-0.9-5.4c-0.3-0.7-0.8-1.3-1.3-2C193.6,67.2,191,65.9,188.1,65.6"/>
			<path id="Fill-14" class="st4" d="M319.7,155.6L307.4,144l-36.7-34.5l-11.9-11.2c-2.2-2.1-5.1-3.2-8.2-3.2
				c-3.2,0-6.4,1.3-8.7,3.7l-9.9,10.6l-8.4,9c-2.2,2.3-3.4,5.5-3.2,8.7c0.2,3.2,1.6,6.2,4,8.4l12.5,11l20,17.6L243.5,176l-19.1,16.8
				c-2.4,2.1-3.9,5.2-4,8.5c-0.1,3.3,1,6.3,3.2,8.6l3,3.2l15.3,16.4c2.2,2.4,5.4,3.8,8.7,3.8c3,0,5.9-1.1,8.2-3.2l18.1-17l33.5-31.4
				l9.3-8.7c2.4-2.2,3.8-5.4,3.8-8.7C323.5,161,322.1,157.8,319.7,155.6"/>
		</g>
	</g>
</g>
</svg>
