<svg xmlns="http://www.w3.org/2000/svg" viewBox="0 0 300 300"><style>.st10{fill:#231f20}</style><g id="Layer_1"><path class="st10" d="M269.3 43.4c-.9-1-1.7-2-2.6-3.1H32.3c-.5.9-1 1.8-1.6 2.7 2.4 1.7 5.1 3 7.2 5 28.7 27.1 57.1 54.4 86 81.3 6.6 6.2 9.2 12.7 9.1 21.7-.4 33.3-.2 66.6-.2 100v8.6c10.3-9.7 19-18.2 28-26.3 3.9-3.5 5.5-7.1 5.4-12.4-.3-24.3 0-48.5-.2-72.8-.1-6.9 2.2-12.1 7.2-16.9 29.3-27.6 58.4-55.4 87.7-83.1 2.3-2 5.6-3.1 8.4-4.7z"/><path d="M132.9 264.6c-.7 0-1.3-.1-2-.4-1.8-.8-3-2.6-3-4.6V251v-27.3c-.1-23.8-.1-48.5.2-72.7.1-7.7-2.1-12.9-7.5-18-18.8-17.4-37.6-35.3-55.8-52.6-10.1-9.6-20.2-19.2-30.3-28.7-.9-.9-1.6-1.6-2.2-2.3-.9-1-1.4-1.5-2.4-2.2-1.3-.9-2.1-2.4-2.2-3.9-.8-1.9-.7-3.8.3-5.5.9-1.5 2.5-2.5 4.3-2.5h234.4c1.5 0 2.9.7 3.8 1.8 2.9 3.5 1.1 7.9-6.2 14.7-14 13.2-28.1 26.6-41.8 39.6-15 14.3-30.5 29-45.9 43.4-4.1 3.8-5.7 7.6-5.6 13.2.1 11.7.1 23.7.1 35.2 0 12.3 0 25.1.1 37.6.1 6.7-2.1 11.7-7.1 16.2-6.3 5.7-12.6 11.6-19.2 17.9-2.8 2.7-5.7 5.5-8.8 8.3-.8 1-2 1.4-3.2 1.4z" fill="#00aeef"/><path class="st10" d="M266.7 40.4c.9 1-3.5 5.7-5.8 7.9-29.3 27.6-58.4 55.5-87.7 83.1-5 4.7-7.3 9.9-7.2 16.9.3 24.3-.1 48.5.2 72.8.1 5.3-1.5 8.9-5.4 12.4-9.1 8.1-17.8 16.6-28 26.3v-8.6c0-33.3-.3-66.7.2-100 .1-9-2.5-15.6-9.1-21.7-28.9-27-57.3-54.4-86-81.5-2.1-2-2.8-3.3-5.2-5 .5-.9-1-1.8-.4-2.7 78.1.1 156.3.1 234.4.1m0-10H32.3c-3.5 0-6.8 1.9-8.6 4.9-1 1.7-2.3 5-.9 9.2.4 2.7 1.9 5.2 4.2 6.8.5.4.7.6 1.5 1.4.6.7 1.4 1.6 2.5 2.6C41.1 64.8 51.4 74.6 61.3 84c18.2 17.3 37 35.2 55.8 52.7 4.4 4.1 6 8 5.9 14.3-.3 24.3-.3 49-.2 72.8v35.8c0 4 2.4 7.6 6 9.2 1.3.6 2.6.8 4 .8 2.5 0 5-.9 6.9-2.7 3.1-2.9 6-5.7 8.8-8.4 6.6-6.3 12.8-12.2 19-17.8 6.1-5.4 8.8-11.8 8.7-20-.2-12.5-.1-25.2-.1-37.5 0-11.6 0-23.5-.1-35.3 0-4.1 1-6.6 4.1-9.5 15.4-14.5 30.9-29.2 45.9-43.5 13.7-13 27.8-26.4 41.8-39.6 1.3-1.3 3.4-3.3 5-5.4 1.1-1.4 2-2.6 2.6-3.8 3.4-6.4.1-11.1-.9-12.4-2-2-4.8-3.3-7.8-3.3z"/></g></svg>
