<svg version="1.1" id="Layer_1" xmlns="http://www.w3.org/2000/svg" x="0" y="0" viewBox="0 0 300 300" xml:space="preserve"><style>.st5,.st6{fill:#fff}.st6{fill-rule:evenodd;clip-rule:evenodd}</style><path d="M193.6 161.2c-.4 0-.8.1-1.1.1-.5-1.9-1-3.8-1.4-5.6-2.2-9.3-4.3-18.6-6.7-27.8-1.2-4.9-4.5-6.5-9.4-5.1-5.1 1.4-4.6 5-3.6 8.9 3.9 14.1 7.9 28.1 11.6 42.3 1.2 4.5 3.5 7 8.5 7.1 5.2.1 7.7-2.3 9.1-7.1 2.4-8 5.3-15.8 8-23.7 4.1 8.4 7 16.6 9.6 24.9 1.4 4.5 4.4 5.9 8.9 5.8 4.4 0 7-1.9 8.1-6.1 4-14.8 8.1-29.7 12.2-44.5 1-3.5.5-6.1-3.3-7.5-3.8-1.4-7.1-.8-8.9 3-1.1 2.2-1.7 4.8-2.2 7.2-2.1 9.2-4.1 18.3-6.2 27.5-3.5-7.1-5.8-14.3-7.9-21.5-1.4-4.6-3.3-8.5-8.9-8.6-5.8-.1-8.1 3.6-9.6 8.5-2.1 7.4-4.5 14.8-6.8 22.2zM67.9 127.7c-1.9-1.1-3.9-2.7-6.1-3.4-5.4-1.7-7.4-.3-7.5 5.2-.2 14.6-.1 29.2-.1 43.9 0 4.8 1.8 7.7 7.3 7.5 5.5-.2 6.3-3.7 6.3-7.9.1-8.8-.3-17.6.4-26.3.3-3.4 2.4-7.7 5-9.8 8.3-6.6 18.6-2 19.5 8.6.8 9.3.5 18.7.5 28 0 4.6 1.5 7.4 6.7 7.3 5.3 0 6.7-3.1 6.6-7.6-.2-10.5-.2-21.1-.8-31.6-.8-14.2-12.6-22.7-26.5-19.1-3.7 1.2-7.3 3.4-11.3 5.2zm74 53.2c.3 0 1.3 0 2.3-.1 11.3-1.1 19.4-6.8 23.9-17.2 4.6-10.8 2.9-21-3.9-30.4-2.4-3.3-5.5-3.3-8.8-1.3-3.5 2.1-3.1 4.7-1.3 8 1.6 2.8 2.9 6 3.4 9.2 1.7 10.7-5.5 19.8-15.9 20.5-9.5.7-17.9-8-17.2-18.7.3-3.9 2.5-7.7 3.3-11.6.4-2.1.4-6.1-.5-6.5-2.5-1-6-1.5-8.4-.5-2.1.9-3.9 3.9-4.8 6.3-8.4 22.4 4.9 42.5 27.9 42.3zm4.8-41.1c0-4.3.5-8.7-.2-12.8-.4-2-3.1-5.1-4.7-5-2.2 0-6 2.5-6.1 4.1-.6 9.1-.7 18.2-.1 27.3.1 1.8 3.9 4.6 5.9 4.5 1.8-.1 4.7-3.2 5.1-5.4.6-4 .1-8.4.1-12.7z"/><path class="st5" d="M73.8 1.2c-7.2 1.1-14.6 1.9-21.7 3.5C26.3 10.2 7.6 30.4 3.6 56.6 2.8 62.3 2 68.1 1.2 73.8V1.1c24.2.1 48.4.1 72.6.1zM193.6 161.2c2.3-7.4 4.7-14.8 6.9-22.2 1.5-4.9 3.8-8.6 9.6-8.5 5.6.1 7.5 4 8.9 8.6 2.1 7.2 4.4 14.4 7.9 21.5 2.1-9.2 4.1-18.4 6.2-27.5.6-2.5 1.1-5 2.2-7.2 1.9-3.8 5.1-4.4 8.9-3 3.8 1.4 4.3 3.9 3.3 7.5-4.1 14.8-8.1 29.7-12.2 44.5-1.1 4.2-3.7 6-8.1 6.1-4.5 0-7.4-1.4-8.9-5.8-2.7-8.3-5.6-16.6-9.6-24.9-2.7 7.9-5.6 15.7-8 23.7-1.4 4.8-3.9 7.2-9.1 7.1-5.1-.1-7.3-2.6-8.5-7.1-3.8-14.1-7.8-28.2-11.6-42.3-1.1-3.9-1.5-7.4 3.6-8.9 4.9-1.4 8.1.3 9.4 5.1 2.3 9.3 4.4 18.6 6.7 27.8.4 1.9.9 3.8 1.4 5.6.3 0 .6-.1 1-.1zM67.9 127.7c4-1.8 7.6-4 11.4-5 13.9-3.6 25.7 4.9 26.5 19.1.6 10.5.6 21 .8 31.6.1 4.4-1.3 7.5-6.6 7.6-5.3 0-6.7-2.7-6.7-7.3 0-9.4.3-18.7-.5-28-.9-10.6-11.2-15.2-19.5-8.6-2.7 2.1-4.7 6.3-5 9.8-.8 8.7-.3 17.5-.4 26.3-.1 4.2-.8 7.7-6.3 7.9-5.5.2-7.3-2.8-7.3-7.5 0-14.6-.1-29.2.1-43.9.1-5.5 2.1-6.9 7.5-5.2 2.1.4 4.1 2 6 3.2zM141.9 180.9c-23 .3-36.3-19.9-27.9-42.3.9-2.4 2.7-5.4 4.8-6.3 2.4-1 5.9-.6 8.4.5.9.4.9 4.3.5 6.5-.8 3.9-3.1 7.7-3.3 11.6-.7 10.7 7.6 19.4 17.2 18.7 10.4-.7 17.6-9.8 15.9-20.5-.5-3.2-1.8-6.4-3.4-9.2-1.8-3.3-2.2-5.8 1.3-8 3.3-2 6.4-2 8.8 1.3 6.7 9.4 8.5 19.6 3.9 30.4-4.4 10.4-12.6 16.1-23.9 17.2-1 0-2 0-2.3.1z"/><path class="st5" d="M146.7 139.8c0 4.3.6 8.7-.2 12.8-.4 2.2-3.2 5.3-5.1 5.4-2 .1-5.8-2.8-5.9-4.5-.6-9.1-.5-18.2.1-27.3.1-1.6 4-4.1 6.1-4.1 1.6 0 4.4 3 4.7 5 .8 4.1.3 8.5.3 12.7z"/><path d="M0 227.4V72.7C.9 67 1.7 61.2 2.5 55.5 6.5 29.3 25.1 9.1 51 3.6 58.1 2 65.5 1.2 72.7.1h154.7c5.6.8 11.1 1.6 16.7 2.4 26.8 4 47.2 22.3 52.4 48.9 2.4 12.5 3.1 25.6 3.2 38.4.4 40.2.3 80.4 0 120.6-.1 11.3-.7 22.6-2.2 33.8-3.6 26.9-22.3 47.1-48.8 52.4-10.8 2.2-22 3-33.1 3.1-41.8.4-83.5.3-125.3.1-11.7-.1-23.4-.7-35-2.3-26.1-3.6-46.2-22.6-51.8-48.2C2 242 1.2 234.7 0 227.4z" fill="#d21f21"/><path class="st6" d="M83.2 121c-6.9 0-13 2.7-17.2 7.8-1.1-5.7-4.7-7-7.7-7-1.7 0-5.1.7-5.1 2.3v49.4c0 4.2 2.1 6.3 6 6.3h1.2c3.9 0 6-2.2 6-6.3v-31.9c2.7-5.5 7.8-8.6 14.1-8.6 7.1 0 11.4 5.1 11.4 13.6v26.9c0 4.2 2.1 6.3 6 6.3h1.2c3.9 0 6-2.2 6-6.3v-28.3c0-15.2-8.2-24.2-21.9-24.2zM246.4 124.3c-.9-1.1-3.9-3.2-7-3.2-1.3 0-5.7.5-6.8 6.8l-7.8 35-8.8-28.5c-.9-3.2-3.3-4.7-7.8-4.7s-6.9 1.4-7.9 4.7l-9.1 28.8-7.9-35.2c-1.2-6.2-5.2-6.8-6.9-6.8-3 0-6.4 1.9-7.3 3.3-.4.6-.4 1.1-.3 1.3l13.8 49.7c1.1 3.8 4.4 4.4 7.9 4.4 4.6 0 6.5-1.1 7.8-4.7l9.7-29.5 9.4 29.5c1.2 3.6 3 4.7 7.9 4.7 3.5 0 6.8-.5 7.8-4.4l13.7-49.8c.1-.7-.3-1.3-.4-1.4zM166 136.9c-.5-1.2-2.7-5.2-5.2-6.5-4-2.4-8.2.9-9.6 3.2-.5.9-.6 1.6-.1 2.3 1.2 1.6 2.8 4.3 3.3 5.3 1.2 2.7 2.1 5.8 2.1 9.2 0 10.5-7.1 18.1-16.9 18.1-9.7 0-17-7.9-17-18.3 0-3.3.7-6.4 2-9 .8-1.6 1.8-3.2 3.4-5.2.4-.7.4-1.4-.1-2.3-1.4-2.3-5.5-5.6-9.6-3.2-2.4 1.4-4.4 4.5-5.3 6.4-1.8 3.9-2.8 8.4-2.8 13.3 0 17.4 12.1 29.6 29.4 29.6 17 0 29.4-12.3 29.4-29.4-.1-5-1.1-9.5-3-13.5z"/><path class="st6" d="M140 120.5h-.9c-3.5 0-5.5 2.5-5.5 6.9v23.1c0 4.3 2 6.8 5.5 6.8h.9c3.5 0 5.4-2.4 5.4-6.8v-23.1c0-4.5-1.9-6.9-5.4-6.9z"/></svg>
