<svg xmlns="http://www.w3.org/2000/svg" viewBox="0 0 300 120.1"><style>.st45{fill:#0a6dae}</style><g id="Layer_1"><path d="M153.5.1c10.7-.4 21.5 1.2 31.6 4.8 15.2 5.3 28.8 15.1 38.8 27.8 4.4 5.6 8 11.7 10.9 18.2.5 1.1.9 2.3.6 3.5-.3 2-2.1 3.7-4.1 3.9-2.1.3-4.3-1-5-3-5.7-13.5-15.5-25.1-27.6-33.2-7.5-5-16-8.7-24.8-10.7-11.4-2.7-23.3-2.7-34.7 0-16.2 3.7-31.1 13.1-41.6 26-4.4 5.5-8.1 11.5-10.9 18-.6 1.5-2 2.7-3.6 2.9-1.5.3-3.2-.2-4.3-1.4-1.3-1.3-1.7-3.3-1-5 7.6-18 21.7-33.1 39.1-42.1 11.2-6 23.9-9.3 36.6-9.7z" fill="#f6a11f"/><path class="st45" d="M139.3 55.5c-.1-.9.8-1.6 1.7-1.7h3.4c.8 0 1.7.6 1.7 1.4v31.4c4.2-4.7 8.5-9.4 12.8-14.1.8-.8 1.5-2.1 2.8-2.2 1.8-.1 3.5 0 5.3 0 .7-.1 1.4.6 1.2 1.3-.3.6-.8.9-1.2 1.4l-13.8 13.8c4.4 5 8.8 10.1 13.2 15.2.6.7 1.3 1.3 1.7 2.1.3.6-.2 1.4-.9 1.4-1.5.1-2.9 0-4.4 0-.8 0-1.6.1-2.3-.3-.7-.4-1.2-1.2-1.7-1.8-4.2-5.3-8.5-10.7-12.7-16v15.8c0 .6.1 1.3-.4 1.8-.8.8-2.1.5-3.1.6-.9 0-2 .2-2.8-.5-.4-.3-.5-.9-.5-1.4V55.5zM120 70.3c2.1-.7 4.5-.8 6.6.1.7.3 1.6 1.1 1.3 2-.3 1.1-.6 2.3-1 3.4-.3.8-1.2 1.1-2 .9-1.8-.3-3.5-.9-5.3-.8-1.3 0-2.4.6-3.3 1.5-1.4 1.4-2.1 3.3-2.4 5.1-.3 1.4-.2 2.7-.2 4.1v17.3c.1.9-.9 1.6-1.8 1.6h-3.5c-.8 0-1.8-.7-1.7-1.6V71.8c-.1-1.1 1.1-1.6 2-1.5 1.2.1 2.7-.4 3.5.8.6 1.4.8 2.8 1.4 4.2 1.6-2.2 3.7-4.2 6.4-5zM0 71.1c.3-.4.7-.8 1.3-.7h4.8c.8 0 1.4.7 1.5 1.5 1.6 6.4 3.1 12.8 4.7 19.2.5 2 1 3.9 1.3 5.9.3 1.8.4 3.6.7 5.4.4-2.6.8-5.2 1.5-7.7 2-7.6 4.1-15.2 6.1-22.9.2-.9 1-1.5 1.8-1.5H29c1 0 2 .5 2.2 1.5 1.5 5.6 3 11.1 4.6 16.7.9 3.6 2.1 7.1 2.7 10.8.1 1 .3 2 .5 3 .6-5.8 2.1-11.4 3.3-17.1 1-4.5 2-9 3-13.6.2-.9 1.1-1.4 2-1.3h4.3c.9 0 1.3 1 1 1.7-2.9 10.6-5.8 21.3-8.6 31.9-.2.9-.9 1.5-1.8 1.5-2.2.1-4.5 0-6.7 0-.8 0-1.6-.4-1.8-1.2-2-7.3-3.9-14.6-5.9-22-.7-2.5-1-5.2-1.3-7.8-.4 2.3-.5 4.7-1.2 7-2 7.5-4.1 15.1-6.1 22.6-.2 1.2-1.6 1.5-2.7 1.4h-6.2c-.7 0-1.3-.6-1.4-1.3-3-10.4-5.9-21-8.8-31.6-.1-.5-.1-1-.1-1.4zM261.1 70.4h4.5c.9 0 1.8.6 2.1 1.5 2.6 6.8 5.2 13.7 7.8 20.5.5 1.4.9 2.8 1.2 4.3 1.1-4 2.5-8 3.8-12 1.4-4.3 2.8-8.6 4.2-13 .2-.8.9-1.3 1.7-1.3 1.2-.1 2.5 0 3.7 0 .7 0 1.6-.1 2.1.5.4.3.3.8.1 1.2-4.2 11.9-8.3 23.8-12.5 35.7-.7 2-1.3 4.1-2.4 5.8-1.7 2.7-4.4 4.7-7.4 5.7-1 .3-2.1 1-3.2.6-.8-.2-1.1-1-1.5-1.6-.3-.6-.9-1.1-.8-1.7.1-.7.6-1.2 1.2-1.4 1.3-.4 2.5-.9 3.6-1.8 2.5-2.1 4-5.2 4.6-8.3-.4-1.4-1.1-2.7-1.7-4-4-9.2-8-18.5-11.9-27.7-.2-.6-.6-1.2-.7-1.8.1-.9.9-1.2 1.5-1.2zM76.6 69.8c3.9-.2 8 .6 11.3 2.9 2.9 2.1 4.9 5.2 5.8 8.6 1.1 4.1 1.1 8.4.1 12.5-.9 3.8-3.1 7.3-6.4 9.5-3.5 2.3-7.9 2.9-12.1 2.4-3.5-.4-7-2-9.4-4.6-2.9-3-4.3-7.2-4.6-11.3-.4-4.6.3-9.4 2.9-13.3 1.9-2.9 4.9-5.1 8.2-6.1 1.3-.3 2.7-.5 4.2-.6zm-1 5c-2.2.4-4.1 1.8-5.3 3.7-1.8 3.1-2.1 6.9-2 10.4.1 3.2.6 6.6 2.7 9.2 1.5 1.9 4 2.9 6.5 2.9 2.3.1 4.8-.7 6.4-2.5 2-2.2 2.7-5.3 3-8.2.1-2.9.2-5.8-.6-8.5-.6-2.4-1.8-4.7-4-6-1.9-1.2-4.4-1.3-6.7-1zM201.7 55c0-.8.8-1.3 1.5-1.4 1.2-.1 2.3 0 3.5 0 .9 0 1.9.7 1.8 1.6v48.4c.1.8-.8 1.5-1.5 1.5h-2.8c-.7 0-1.3-.5-1.5-1.1-.3-1-.5-2.1-.8-3.2-1.3 1.7-3 3.3-5 4.1-2.9 1.1-6.2 1.1-9.2.4-3-.7-5.7-2.8-7.2-5.6-2.3-4.2-2.6-9.1-2.4-13.8.1-4 .8-8.2 3.5-11.4 2-2.7 5.2-4.2 8.4-4.6 3-.4 6.3.1 8.8 1.9 1.2.8 2.1 2 3 3.1-.2-6.6-.2-13.2-.1-19.9zm-9.3 19.6c-2.2.1-4.2 1.4-5.2 3.3-1.9 3.6-1.9 7.9-1.8 11.9.1 2.6.4 5.3 1.6 7.7.8 1.6 2.3 2.8 4.1 3.2 2.7.7 5.9.1 7.8-2 1.9-2.1 2.5-5 2.7-7.7.2-3.1.2-6.2-.6-9.3-.5-2-1.4-4-3-5.5-1.5-1.3-3.6-1.8-5.6-1.6zM231.2 70.4c3.1-.9 6.4-.9 9.6-.2 2.9.7 5.7 2.3 7.4 4.7 1.9 2.5 2.9 5.6 3.3 8.6.3 2.4.2 4.8.2 7.2v12.9c0 .5-.3 1-.7 1.3-.7.4-1.6.2-2.4.3-.9 0-2.1.1-2.6-.9-.5-1.1-.6-2.3-.9-3.5-1.2 1.5-2.5 3-4.2 3.8-2.7 1.3-5.8 1.2-8.7.7-3.5-.7-6.7-2.8-8.7-5.7-2.4-3.5-3.2-7.8-3.2-11.9 0-4 .8-8.2 3-11.6 1.9-2.8 4.8-4.8 7.9-5.7zm3 4.4c-1.1.2-2.1.7-3 1.3-1.7 1.4-2.6 3.5-3.1 5.6-.7 3.3-.7 6.8-.3 10.1.3 2.5.9 5.1 2.8 6.9 1.5 1.5 3.7 2.1 5.8 2 2.2.1 4.6-.8 6-2.5 1.8-2.2 2.3-5.1 2.6-7.8.2-3.2.2-6.5-.7-9.6-.6-1.9-1.6-3.9-3.4-5-2-1.2-4.4-1.3-6.7-1zM294.1 96c1.1-.2 2.2-.2 3.2.3 1.7.8 2.9 2.5 2.7 4.4.1 2.2-1.7 4.2-3.9 4.6-2.4.5-5-1.2-5.5-3.6-.6-2.5 1.1-5.2 3.5-5.7zm-.2.9c-1.8.7-2.9 2.7-2.4 4.6.5 2.2 3 3.7 5.1 2.9 1.9-.6 3.2-2.8 2.6-4.8-.6-2.3-3.2-3.6-5.3-2.7z"/><path class="st45" d="M293.3 97.8c1.3.1 2.7-.3 3.9.4.9.7.5 2.2-.6 2.5.3.8.7 1.5 1.1 2.3h-1.4c-.3-.7-.7-1.4-1-2.1h-.6v2.1h-1.3c-.1-1.7-.1-3.4-.1-5.2zm1.3.9v1.5c.4 0 .9 0 1.3-.1.4-.2.4-.7.3-1-.4-.5-1-.4-1.6-.4z"/></g></svg>
