<svg version="1.1" id="Layer_1" xmlns="http://www.w3.org/2000/svg" x="0" y="0" viewBox="0 0 300 300" xml:space="preserve"><style>.st35{fill:#6c4199}</style><path class="st35" d="M155.2 1.1c-173-7.5-232.9 216.7-4.3 238.7l-21 59.2s121.4-65 151.7-112C318.2 130.4 303.8 7.6 155.2 1.1zM219 140.8c5.6 0 10.2 4.5 10.2 10.2s-4.5 10.2-10.2 10.2h-30.3v31.2c0 5.6-4.5 10.2-10.2 10.2-5.6 0-10.2-4.5-10.2-10.2v-31.2h-36.7v31.2c0 5.6-4.5 10.2-10.2 10.2-5.6 0-10.2-4.5-10.2-10.2v-31.2H81c-5.6 0-10.2-4.5-10.2-10.2s4.5-10.2 10.2-10.2h30.3v-35H81c-5.6 0-10.2-4.5-10.2-10.2 0-5.6 4.5-10.2 10.2-10.2h30.3v-31c0-5.6 4.5-10.2 10.2-10.2 5.6 0 10.2 4.5 10.2 10.2v31.2h36.7V54.4c0-5.6 4.5-10.2 10.2-10.2 5.6 0 10.2 4.5 10.2 10.2v31.2H219c5.6 0 10.2 4.5 10.2 10.2 0 5.6-4.5 10.2-10.2 10.2h-30.3v35H219z"/><path class="st35" d="M131.7 105.9h36.7v35h-36.7z"/></svg>
