<svg version="1.1" id="Layer_1" xmlns="http://www.w3.org/2000/svg" x="0" y="0" viewBox="0 0 300 243.8" xml:space="preserve"><style></style><path d="M94.3 243.8c113.2 0 175.1-93.8 175.1-175.1 0-2.7-.1-5.3-.2-8 12-8.7 22.5-19.5 30.7-31.9-11 4.9-22.9 8.2-35.3 9.7 12.7-7.6 22.5-19.7 27.1-34-11.9 7.1-25.1 12.2-39.1 14.9C241.4 7.5 225.4 0 207.7 0c-34 0-61.6 27.6-61.6 61.5 0 4.8.5 9.5 1.6 14-51.1-2.5-96.5-27-126.8-64.2-5.3 9.1-8.3 19.7-8.3 30.9 0 21.4 10.9 40.2 27.4 51.2-10.1-.3-19.6-3.1-27.9-7.7v.8c0 29.8 21.2 54.7 49.4 60.3-5.2 1.4-10.6 2.2-16.2 2.2-4 0-7.8-.4-11.6-1.1 7.8 24.5 30.6 42.2 57.5 42.7C70.1 207.2 43.5 217 14.7 217c-5 0-9.9-.3-14.7-.9 27.2 17.5 59.6 27.7 94.3 27.7" fill="#1da1f2"/></svg>
