<svg xmlns="http://www.w3.org/2000/svg" viewBox="0 0 195.2 300"><style></style><g id="Layer_2"><linearGradient id="SVGID_1_" gradientUnits="userSpaceOnUse" x1="62.644" y1="268.201" x2="30.721" y2="87.155"><stop offset=".154" stop-color="#ffe40e"/><stop offset=".91" stop-color="#e10e19"/></linearGradient><path d="M79.6 78.5l-44 38.5S-8 151.7 1.3 205.9c0 0 2.9 29.2 43.3 65.5 0 0-33-41.1-26.6-90.2S79.3 83.7 79.6 78.5z" fill="url(#SVGID_1_)"/><linearGradient id="SVGID_2_" gradientUnits="userSpaceOnUse" x1="84.272" y1="298.167" x2="84.272" y2="0"><stop offset=".154" stop-color="#ffe40e"/><stop offset=".197" stop-color="#fedb0e"/><stop offset=".267" stop-color="#fac310"/><stop offset=".355" stop-color="#f59b12"/><stop offset=".459" stop-color="#ed6415"/><stop offset=".574" stop-color="#e31f18"/><stop offset=".6" stop-color="#e10e19"/></linearGradient><path d="M113 0s12.5 43.8-18.3 79.9-130.4 139.3-4.6 218.3c0 0-38-44.8 7.2-111.7C138.5 125.8 161.7 84 113 0z" fill="url(#SVGID_2_)"/><linearGradient id="SVGID_3_" gradientUnits="userSpaceOnUse" x1="140.535" y1="300" x2="140.535" y2="85.276"><stop offset=".154" stop-color="#ffe40e"/><stop offset=".21" stop-color="#fedb0e"/><stop offset=".3" stop-color="#fac310"/><stop offset=".415" stop-color="#f59b12"/><stop offset=".549" stop-color="#ed6415"/><stop offset=".697" stop-color="#e31f18"/><stop offset=".731" stop-color="#e10e19"/></linearGradient><path d="M149.7 85.3s6.1 32.7-25.3 84.1-54.9 61.9-24.1 130.6c0 0 83.1 5.8 95-93.4 0 0-9.3 21.5-31.1 34.7-.1-.1 40.7-69.4-14.5-156z" fill="url(#SVGID_3_)"/><linearGradient id="SVGID_4_" gradientUnits="userSpaceOnUse" x1="123.516" y1="293.841" x2="123.516" y2="171.269"><stop offset=".073" stop-color="#fff8da"/><stop offset=".536" stop-color="#ffee6f"/><stop offset="1" stop-color="#ffe400"/></linearGradient><path d="M103.3 293.8s-18.9-35.3 6.1-67.7 27.3-25.7 39.8-54.9c0 0 10.3 50.7-23.1 100.1 0 0 11.3-1.6 24.6-9.9-.1 0-13.4 29.6-47.4 32.4z" fill="url(#SVGID_4_)"/><linearGradient id="SVGID_5_" gradientUnits="userSpaceOnUse" x1="85.827" y1="284.214" x2="85.827" y2="60.569"><stop offset=".125" stop-color="#fff8da"/><stop offset=".511" stop-color="#ffe400"/><stop offset=".593" stop-color="#fbce03"/><stop offset=".764" stop-color="#f2950c"/><stop offset="1" stop-color="#e33e19"/></linearGradient><path d="M79.3 284.2s-21.8-22.1-9.3-73.8 56.6-46.2 53.3-149.8c0 0-9 46.2-37.6 68.3-28.5 22.2-64.8 95-6.4 155.3z" fill="url(#SVGID_5_)"/><linearGradient id="SVGID_6_" gradientUnits="userSpaceOnUse" x1="93.693" y1="269.229" x2="93.693" y2="2.948"><stop offset=".073" stop-color="#fff8da"/><stop offset=".248" stop-color="#fff3a0"/><stop offset=".44" stop-color="#ffed67"/><stop offset=".619" stop-color="#ffe93b"/><stop offset=".777" stop-color="#ffe61b"/><stop offset=".909" stop-color="#ffe507"/><stop offset="1" stop-color="#ffe400"/></linearGradient><path d="M137.7 2.9s13.8 38.2-21.8 93.1-84 92-48.1 173.2c0 0-35.4-45.5-13.9-97.5 26.7-64.1 96.2-97.5 83.8-168.8z" fill="url(#SVGID_6_)"/></g></svg>
