<svg version="1.1" id="Layer_1" xmlns="http://www.w3.org/2000/svg" x="0" y="0" viewBox="0 0 300 284.3" xml:space="preserve"><style>.st3{fill:#8dc63f}</style><path class="st3" d="M115.7 25.1s-21.7 21-28.9 32-10.3 9.4-14.2 7c-3.9-2.4-10.1-6.6-10.1-6.6s-6.9-3.7 3.2-11.1c10.4-7.6 46.2-27.4 50-21.3zM136.3 23.9v52.3s.7 6.8-6.4 5.7c-7.1-1-28.3-5.1-34.6-7.7-6.3-2.7-3.4-5.7-2.1-7.7s20.3-30.7 43.1-42.6zM46.3 67.1s2.8-4.5 7.3-2.2 16.7 9.2 16.7 9.2 5.4 2.3 2.5 8c-2.8 5.7-10.6 31.3-11 41.2s-6.7 11.2-10.4 11.2H30.1s-9.7 1.2-7.7-7.9 5.8-35.4 23.9-59.5zM82.2 86.7s1.3-5.8 7.4-3.6 24.6 8.2 38 8.9c10.9.6 8.7 10 8.7 10v24.4s1.6 8-6.6 7.9c-8.2-.1-47.5 0-47.5 0s-12.2 2.2-9.8-9.1 6-29.8 9.8-38.5zM165.5 25.1s21.7 21 28.9 32c7.1 11 10.3 9.4 14.2 7 3.9-2.4 10.1-6.6 10.1-6.6s6.9-3.7-3.2-11.1c-10.4-7.6-46.1-27.4-50-21.3zM144.9 23.9v52.3s-.7 6.8 6.4 5.7 28.3-5.1 34.6-7.7 3.4-5.7 2.1-7.7c-1.2-2-20.3-30.7-43.1-42.6zM234.9 67.1s-2.8-4.5-7.3-2.2-16.7 9.2-16.7 9.2-5.4 2.3-2.5 8c2.8 5.7 10.6 31.3 11 41.2.4 9.8 6.7 11.2 10.4 11.2h21.3s9.7 1.2 7.7-7.9c-1.8-9.2-5.7-35.4-23.9-59.5zM199 86.7s-1.3-5.8-7.4-3.6c-6 2.2-24.6 8.2-38 8.9-10.9.6-8.7 10-8.7 10v24.4s-1.6 8 6.6 7.9c8.2-.1 47.5 0 47.5 0s12.2 2.2 9.8-9.1-5.9-29.8-9.8-38.5zM115.8 255.8s-21.7-21-28.9-32c-7.1-11-10.3-9.4-14.2-7-3.9 2.4-10.1 6.6-10.1 6.6s-6.9 3.7 3.2 11.1c10.4 7.6 46.1 27.5 50 21.3zM136.3 257v-52.3s.7-6.8-6.4-5.7c-7.1 1-28.3 5.1-34.6 7.7-6.3 2.7-3.4 5.7-2.1 7.7s20.3 30.7 43.1 42.6zM46.4 213.8s2.8 4.5 7.3 2.2 16.7-9.2 16.7-9.2 5.4-2.3 2.5-8c-2.8-5.7-10.6-31.3-11-41.2-.4-9.8-6.7-11.2-10.4-11.2H30.2s-9.7-1.2-7.7 7.9 5.7 35.4 23.9 59.5zM82.3 194.2s1.3 5.8 7.4 3.6 24.6-8.2 38-8.9c10.9-.6 8.7-10 8.7-10v-24.4s1.6-8-6.6-7.9c-8.2.1-47.5 0-47.5 0s-12.2-2.2-9.8 9.1 5.9 29.8 9.8 38.5z"/><path d="M296.7 216.3l-122.2-47.6 60.7 115.6 15-35.8 38.2 33.1 11.6-13.1-37.8-33.7z"/><path d="M165.5 255.8s20.6-19.9 28.3-31.1l-5.5-10.6c-.1.1-.1.2-.2.3-1.3 2-20.3 30.7-43.1 42.6v-52.3s-.7-6.8 6.4-5.7c6.5 1 24.7 4.4 32.6 7l-6.7-12.7c-7.5-2.1-16.3-4-23.6-4.4-10.9-.6-8.7-10-8.7-10v-24.4s-1.6-8 6.6-7.9c8.2.1 47.5 0 47.5 0s12.2-2.2 9.8 9.1c-.9 4.4-2 10-3.3 15.6l10.5 4.1c1.8-6.9 3.2-13.6 3.4-17.6.4-9.8 6.7-11.2 10.4-11.2h21.3s9.7-1.2 7.7 7.9c-1.3 5.9-3.3 18.9-9.5 33.9l12.1 4.7c7-16.1 10.9-33.8 10.9-52.3C272.4 68 213.3 8.9 140.7 8.9 68 8.9 8.9 68 8.9 140.7c0 72.6 59.1 131.7 131.7 131.7 24.9 0 48.3-7 68.2-19.1l-5.8-11c-14.5 8.4-34.6 18-37.5 13.5z" fill="none"/><path d="M140.7 272.4C68 272.4 8.9 213.3 8.9 140.7 8.9 68 68 8.9 140.7 8.9c72.6 0 131.7 59.1 131.7 131.7 0 18.6-3.9 36.3-10.9 52.3l8.3 3.3c7.4-17.1 11.5-35.9 11.5-55.6C281.3 63.1 218.2 0 140.7 0 63.1 0 0 63.1 0 140.7s63.1 140.7 140.7 140.7c26.4 0 51.2-7.3 72.3-20.1l-4.2-7.9c-19.9 12-43.2 19-68.1 19z"/><path class="st3" d="M165.5 255.8c2.9 4.5 23-5.1 37.5-13.5l-9.2-17.6c-7.6 11.2-28.3 31.1-28.3 31.1zM151.4 198.9c-7.1-1-6.4 5.7-6.4 5.7V257c22.8-11.9 41.9-40.5 43.1-42.6.1-.1.1-.2.2-.3l-4.3-8.2c-8-2.6-26.1-6-32.6-7zM258.9 154.4c1.9-9.1-7.7-7.9-7.7-7.9h-21.3c-3.7 0-10 1.3-10.4 11.2-.2 4-1.6 10.7-3.4 17.6l33.3 13c6.2-15 8.3-28 9.5-33.9zM167.9 162.7c1.7-1.9 4.2-3 6.7-3 1.1 0 2.2.2 3.2.6l27.8 10.9c1.2-5.6 2.4-11.2 3.3-15.6 2.4-11.3-9.8-9.1-9.8-9.1s-39.3.1-47.5 0c-8.2-.1-6.6 7.9-6.6 7.9v24.4s-2.2 9.4 8.7 10c7.3.4 16.1 2.4 23.6 4.4l-10.7-20.4c-1.7-3.3-1.2-7.3 1.3-10.1z"/></svg>
