<svg xmlns="http://www.w3.org/2000/svg" viewBox="0 0 300 300"><style></style><g id="Layer_2"><path d="M84.8 239.4c-2.6 0-5.2-.7-7.5-2L18 203.1c-4.7-2.7-7.5-7.6-7.5-13s2.8-10.3 7.5-13l59.3-34.2c2.3-1.3 4.9-2 7.5-2 8.3 0 15.1 6.8 15.1 15.1v21.5h123.4c21 0 40.7 0 40.7-45.5 0-17.5-4.2-30.1-12.6-37.6-8-7.1-18.4-8.2-23.8-8.2-1.7 0-2.7.1-2.8.1h-.2l-1.2.1H103c-7 0-12.7-5.7-12.7-12.7 0-7 5.7-12.7 12.7-12.7h119.6c1.1-.1 2.8-.2 5-.2 9 0 26.2 1.9 40.5 14.4 14.2 12.5 21.4 31.6 21.4 56.8 0 71-44.7 71-66.2 71H99.9v21.5c0 8.1-6.8 14.9-15.1 14.9z" fill="#00aeef"/><path d="M227.6 65.1c8.2 0 24.3 1.7 37.5 13.3C278.3 90 285 107.9 285 131.8c0 66.5-40.1 66.5-61.7 66.5H95.4v26c0 6.2-5.1 10.6-10.6 10.6-1.8 0-3.6-.4-5.3-1.4l-59.3-34.2c-7-4.1-7-14.2 0-18.3l59.3-34.2c1.7-1 3.5-1.4 5.3-1.4 5.5 0 10.6 4.4 10.6 10.6v26h127.9c21.2 0 45.2 0 45.2-50 0-18.8-4.8-32.6-14.1-40.9-9.3-8.2-21.2-9.3-26.8-9.3-2 0-3.2.1-3.3.1l-1 .1H103c-4.5 0-8.2-3.7-8.2-8.2s3.7-8.2 8.2-8.2h119.9c.8-.4 2.5-.5 4.7-.5m0-9c-2.2 0-4 .1-5.2.2H103c-9.5 0-17.2 7.7-17.2 17.2s7.7 17.2 17.2 17.2H223.9l1-.1h.4s.9-.1 2.3-.1c3.9 0 13.7.7 20.8 7 7.4 6.5 11.1 18 11.1 34.2 0 19-3.7 31.2-10.9 36.5-6.3 4.6-15.5 4.6-25.3 4.6H104.4v-17c0-10.8-8.8-19.6-19.6-19.6-3.4 0-6.8.9-9.8 2.6L15.7 173c-6 3.7-9.7 10-9.7 17.1 0 7.1 3.7 13.4 9.8 16.9l59.3 34.2c3 1.7 6.4 2.6 9.8 2.6 10.8 0 19.6-8.8 19.6-19.6v-17h118.9c11.5 0 28.9 0 43.9-9.8 17.8-11.6 26.8-33.7 26.8-65.7 0-26.6-7.7-46.8-22.9-60.2-15.5-13.4-33.9-15.4-43.6-15.4z" fill="#231f20"/></g></svg>
