<svg xmlns="http://www.w3.org/2000/svg" viewBox="0 0 300 260"><style>.st46{fill:#0ba25e}.st48{fill:#10985b}.st49{fill:#f9c941}.st50{fill:#e8b835}.st51{fill:#296ad9}.st53{fill:#286ee6}</style><g id="Layer_1"><g id="XMLID_1_"><g id="_x23_0ba25eff"><path id="XMLID_170_" class="st46" d="M97.6 0h.3v.3h-.3V0z"/><path id="XMLID_169_" class="st46" d="M96.6 2c.2-.3.7-1 .9-1.3l.4-.1c.3 3.7 1.4 7.3 2.2 10.9 3.5 15.7 7.1 31.5 10.8 47.1 2.4 10.8 5.2 21.5 7.4 32.3 1.9 6.7 3 13.6 4.8 20.3 1.2 6.2 3.1 12.3 4.1 18.6l-1.2 2.1c-.1.2-.3.5-.4.7l-.2.3s-.1.1-.1.2c-.2.4-.7 1.3-.9 1.7 0 .1-.1.2-.2.3l-.4.7c-.1.1-.2.3-.2.3l-.5.9s-.1.1-.1.2l-.6 1.1c-.1.1-.2.3-.2.4-.1.1-.2.3-.2.4l-.6 1c0 .1-.1.2-.2.3l-.4.6c-.1.1-.2.3-.2.4-.2.4-.7 1.2-.9 1.6 0 .1-.1.2-.2.3l-.4.6c-.1.1-.2.3-.3.4-.2.4-.7 1.1-.9 1.5-.1.1-.2.3-.2.4l-.4.8c0 .1-.1.2-.2.3l-.5.8c0 .1-.1.2-.2.3-.2.4-.7 1.2-.9 1.6-.1.1-.2.3-.2.4l-.3.6c0 .1-.1.2-.2.3l-.5.8c0 .1-.1.2-.2.3-.2.4-.7 1.3-1 1.7 0 .1-.1.2-.2.3l-.4.6c-.1.1-.2.3-.2.4-.2.4-.7 1.2-.9 1.5 0 .1-.1.2-.2.3l-.5.9c0 .1-.1.2-.1.3l-.5.9c0 .1-.1.2-.2.3-.2.4-.7 1.2-.9 1.5-.1.1-.2.3-.2.4l-.3.6c0 .1-.1.2-.2.3l-.6 1c0 .1-.2.3-.2.4-.1.1-.1.3-.2.3-1 1.7-1.9 3.4-3 5-6.3 10.2-12 20.7-18.1 31-9.8 17-19.6 34-29.5 51-1.5 2.6-3.2 5.2-4.4 7.9-.1.1-.2.3-.3.4-2.4-3.4-4.2-7.1-6.3-10.7-9.8-17-19.7-34-29.5-51-5.5-9.6-11.1-19-16.5-28.7 21-36.3 42-72.7 63-109l.1-.1.6-1s.1-.1.1-.2l.6-1c.1-.1.2-.3.2-.4.1-.1.2-.3.2-.4l.6-1c0-.1.1-.2.2-.3l.4-.7c.1-.1.2-.3.3-.5.2-.3.6-1 .9-1.3 0-.1.1-.3.1-.4l.5-1s.1-.1.1-.2l.6-1c.1-.1.2-.3.2-.4.1-.1.2-.3.3-.5l.5-.9c.1-.1.2-.3.2-.4l.6-.3c0-.1.1-.2.2-.3.2-.4.7-1.2.9-1.6 0-.1.1-.2.2-.3l.4-.8c0-.1.1-.2.1-.2l.6-1c.1-.1.2-.4.3-.5l.4-.6c.1-.1.2-.3.3-.5.1-.1.2-.4.3-.5l.3-.6c.1-.2.3-.7.4-.9l.3-.5c.1-.1.2-.2.2-.3.2-.2.7-.6.9-.7V38c0-.1.1-.2.2-.3l.5-1c0-.1.1-.2.2-.3l.4-.7c.1-.1.2-.4.3-.5.2-.3.6-1 .8-1.3.1-.1.2-.3.2-.5l.3-.7c.1-.2.3-.5.4-.7l.4-.6c.1-.1.2-.3.3-.4.1-.1.2-.4.3-.5l.3-.6c.1-.1.2-.4.3-.5l.5-1c.1-.1.2-.4.3-.5l.4-.6c.1-.1.2-.3.3-.5.1-.1.2-.4.3-.5l.3-.6c.1-.2.3-.5.3-.7l.4-.7c.1-.1.2-.3.3-.4.2-.3.6-1 .9-1.3 0-.1.1-.3.1-.4l.5-1s.1-.1.1-.2l.6-1c.1-.1.2-.3.2-.4.1-.1.2-.3.2-.4l.6-1s.1-.1.1-.2l.6-1s.1-.1.1-.2l.6-1c.1-.1.2-.3.2-.4.1-.1.2-.3.2-.4l.6-1c0-.1.1-.2.1-.2l.5-.8c.1-.1.2-.3.3-.5.2-.3.6-1 .9-1.3 0-.1.1-.3.1-.4l.5-1c0-.1.1-.2.2-.3l.4-.7c.1-.1.2-.3.3-.5.2-.3.6-1 .8-1.3 0-.1.1-.3.1-.4l.5-1s.1-.1.1-.2l.6-1c0-.1.2-.3.2-.4.1-.1.2-.3.2-.4l.6-1s.1-.1.1-.2l.6-.9c0 .6 0 .5.1.5z"/></g><g id="_x23_089156ff"><path id="XMLID_166_" d="M97.9.6c1.3 1.6 2.2 3.5 3.2 5.2C117.4 34 133.7 62.3 150 90.5c-7.5 13.1-15.1 26.2-22.7 39.3-1-6.3-2.9-12.4-4.1-18.6-1.9-6.7-2.9-13.6-4.8-20.3-2.2-10.8-4.9-21.5-7.4-32.3-3.7-15.7-7.3-31.4-10.8-47.1-.9-3.6-2-7.2-2.3-10.9z" fill="#089156"/></g><g id="_x23_10985bff"><path id="XMLID_82_" class="st48" d="M203.3 1.9c0 .1.1.2.2.3 0-.1-.1-.3-.2-.3z"/><path id="XMLID_81_" class="st48" d="M208.1 10.2s.1.1.1.2c0-.1-.1-.2-.1-.2z"/><path id="XMLID_80_" class="st48" d="M216.9 25.4s.1.1.1.2c0 0-.1-.1-.1-.2z"/><path id="XMLID_79_" class="st48" d="M218.6 28.3c0 .1.1.2.2.3-.1-.1-.2-.2-.2-.3z"/><path id="XMLID_78_" class="st48" d="M221 32.5s.1.1.1.2c0-.1-.1-.2-.1-.2z"/><path id="XMLID_77_" class="st48" d="M223.3 36.5c0 .1.1.2.2.3 0-.1-.1-.2-.2-.3z"/><path id="XMLID_76_" class="st48" d="M225.7 40.6c0 .1.1.2.2.3-.1-.1-.2-.2-.2-.3z"/></g><g id="XMLID_171_"><path id="XMLID_172_" class="st49" d="M298.7 167s-.1-.1-.1-.2l-.6-1c-.1-.1-.2-.3-.2-.4-.1-.1-.2-.3-.2-.4l-.6-1s-.1-.1-.1-.2l-.6-1s-.1-.1-.1-.2l-.6-1c-.1-.1-.2-.3-.2-.4s-.2-.3-.2-.4l-.6-1c-.1-.1-.2-.3-.3-.5l-.4-.6c-.1-.1-.3-.3-.3-.5-.1-.1-.2-.4-.3-.5l-.3-.6c-.1-.1-.2-.4-.2-.5-.4-.8-.8-1.5-1.2-2.2-.1-.1-.2-.3-.2-.4-.1-.1-.2-.3-.3-.4l-.5-.9c0-.1-.1-.2-.1-.2l-.5-.9s-.1-.1-.1-.2l-.6-1c-.1-.1-.2-.3-.2-.4s-.2-.3-.2-.4l-.6-1c-.1-.1-.2-.3-.2-.4l-.4-.6c-.1-.1-.2-.3-.3-.4-.3-.4-.8-1.2-1-1.5l-.1-.1-.1-.1-.2-.3c-.1-.3-.4-.8-.5-1.1l-.4-.6c-.1-.1-.2-.4-.3-.5-.1-.2-.4-.6-.5-.8l-.3-.5-.1-.2-.1-.2-.2-.3c-.1-.2-.2-.6-.3-.8l-.6-1c-.1-.1-.2-.3-.2-.4-.1-.1-.2-.3-.2-.4l-.6-1s-.1-.1-.1-.2l-.6-1s-.1-.1-.1-.2l-.6-1c-.1-.1-.2-.3-.2-.4-.1-.1-.2-.3-.2-.4l-.6-1c0-.1-.1-.2-.1-.2l-.5-.8c0-.1-.1-.2-.2-.3-.2-.4-.7-1.2-.9-1.5 0-.1-.1-.2-.2-.3-10.1-17.7-20.4-35.4-30.6-53.1l-21-36.3c0-.1-.1-.2-.2-.3-.7-1.3-1.4-2.5-2.2-3.8 0-.1-.1-.2-.2-.3-.7-1.3-1.5-2.6-2.2-3.9 0 0-.1-.1-.1-.2-.7-1.3-1.5-2.6-2.2-3.9 0-.1-.1-.2-.2-.3-.5-.9-1.1-1.8-1.6-2.7 0 0-.1-.1-.1-.2-2.9-5-5.8-10.1-8.7-15.1 0 0-.1-.1-.1-.2-1.5-2.7-3.1-5.3-4.6-8 0-.1-.1-.2-.2-.3-.3-.6-.7-1.2-1-1.8-15.8-.2-31.6 0-47.3-.1-18.9.4-38 .4-57.1.4v.6c1.3 1.6 2.2 3.5 3.2 5.2 16.4 28.2 32.7 56.5 49 84.7.4.6.7 1.2 1.1 1.8 0 .1.1.2.2.3.2.4.7 1.2.9 1.6 0 .1.1.2.2.3l.5.9s.1.1.1.2l.6 1c.1.1.2.3.2.4.1.1.2.3.2.4l.6 1c0 .1.1.2.1.2.4.7.8 1.3 1.2 2 .1.1.2.3.2.4.2.4.7 1.2.9 1.6.1.1.2.3.2.3l.5.9c.1.2.3.6.5.8l.2.3c0 .1.1.2.1.2.3.5.8 1.4 1 1.9.1.2.3.5.4.6l.2.3s.1.1.1.2c.5 1 1.1 2 1.6 3 .1.2.3.5.4.7l.2.3s.1.1.1.2c.2.4.7 1.3.9 1.7.1.1.2.3.2.4l.4.7c.1.1.2.3.2.4l.5.9c.1.1.2.3.2.4.1.1.2.3.2.4l.6 1s.1.1.1.2l.6 1c0 .1.1.2.2.3l.4.6c.1.1.2.3.3.4.3.4.8 1.3 1 1.7.1.2.3.5.4.7l.2.3c0 .1.1.1.1.2.3.4.8 1.2 1 1.6v.2c.3.8.7 1.5 1.1 2.3.1.1.1.3.2.3.1.1.2.3.2.4l.6.9c0 .1.1.2.1.2l.4.7c6.8 2.5 13.8 4.3 20.6 6.5 7.3 2.2 14.6 4.5 22 6.6 13.4 4.3 26.9 8.2 40.2 12.5 14.7 4.1 29.2 9.1 43.9 13.3v-.5l-.6-1.6z"/><path id="XMLID_173_" class="st49" d="M299.6 168.7h-.3l.1.5.4-.1z"/></g><g id="XMLID_74_"><path id="XMLID_175_" class="st50" d="M255.4 155.4c-13.4-4.3-26.9-8.2-40.2-12.5-7.4-2.1-14.7-4.5-22-6.6-6.8-2.3-13.8-4-20.6-6.5 7.6 13.2 15.3 26.3 22.8 39.6h.4c18.1.1 36.1 0 54.2 0 16.5-.1 33 .2 49.5-.2l-.1-.5c-14.8-4.2-29.2-9.3-44-13.3z"/><path id="XMLID_176_" class="st50" d="M299.3 168.1v.5h.3c-.1 0-.2-.3-.3-.5z"/></g><g id="_x23_296ad9ff"><path id="XMLID_9_" class="st51" d="M86.4 200.2c6.1-10.3 11.8-20.8 18.1-31 30.3.1 60.6-.2 90.9.1h.4c-15.3.5-30.7-.1-46 .3-2.9 1.9-4.9 4.9-7.7 7-2.6 1.9-4.5 4.5-7 6.6-3.5 2.6-6.1 6.1-9.6 8.6-4.1 4.3-8.8 8-12.9 12.3-3.1 2.4-5.7 5.3-8.5 7.9-3.2 2.3-5.6 5.4-8.5 7.9l-.3.3c-.2.1-.5.4-.6.5-.1.1-.2.2-.3.2-2.3 1.8-4.1 4.2-6.4 6-.1.1-.2.2-.3.2-.1.1-.2.2-.3.2-3.3 2.7-6 6.2-9.5 8.8-3.5 3.5-7.5 6.5-10.9 10.2-5 4.1-9.2 8.9-14.3 12.8 1.3-2.8 2.9-5.3 4.4-7.9 9.7-17 19.5-34 29.3-51z"/><path id="XMLID_8_" class="st51" d="M52.3 259.5c.1-.1.2-.3.3-.4v.4h-.3z"/></g><g id="_x23_2a71e9ff"><path id="XMLID_7_" d="M195.8 169.3c18.1.1 36.1 0 54.2 0 16.5-.1 33 .2 49.5-.2h.3l.2.1-52.2 90.3c-65.1 0-130.2.1-195.3 0v-.4c5.1-3.9 9.4-8.7 14.3-12.8 3.4-3.7 7.3-6.7 10.9-10.2 3.5-2.6 6.2-6 9.5-8.8.1-.1.2-.2.3-.2.1-.1.2-.2.3-.2 2.3-1.8 4.1-4.2 6.4-6 .1-.1.2-.2.3-.2.2-.1.5-.4.6-.5l.3-.3c3-2.5 5.4-5.6 8.5-7.9 2.9-2.6 5.5-5.5 8.5-7.9 4.1-4.3 8.8-7.9 12.9-12.3 3.5-2.5 6.1-6.1 9.6-8.6 2.5-2 4.4-4.7 7-6.6 2.8-2.1 4.7-5.1 7.7-7 15.5-.4 30.8.2 46.2-.3z" fill="#2a71e9"/></g><g id="_x23_286ee6ff"><path id="XMLID_6_" class="st53" d="M95.2 220.1l.3-.3-.3.3z"/><path id="XMLID_5_" class="st53" d="M94.5 220.6c.2-.1.5-.4.6-.5-.1.2-.4.4-.6.5z"/><path id="XMLID_4_" class="st53" d="M94.2 220.9c.1-.1.2-.2.3-.2 0 0-.2.1-.3.2z"/><path id="XMLID_3_" class="st53" d="M87.5 227.2c.1-.1.2-.2.3-.2 0 0-.2.1-.3.2z"/><path id="XMLID_2_" class="st53" d="M87.2 227.4c.1-.1.2-.2.3-.2 0 0-.2.1-.3.2z"/></g></g></g></svg>
