<svg xmlns="http://www.w3.org/2000/svg" viewBox="0 0 300 299.4"><style></style><g id="Layer_1"><path d="M212.4 222.7c-15.9 16-37.8 26-61.9 26s-46.2-10-61.9-26c-15.9-16.1-25.7-38.2-25.7-62.7 0-24.6 9.7-46.8 25.7-62.8.5-.6.9-1.1 1.5-1.5 8.5-7.3 5.7-4.9 8.5-7.3 14-10.5 31.2-16.8 49.8-17.3h4.3c23.3.5 44.4 10.4 59.8 26 15.7 16.1 25.6 38.3 25.6 62.8-.1 24.5-9.9 46.6-25.7 62.8z" fill="#c32265"/><path d="M161.4 64.7v-6.8h10.8c1 0 1.8-.4 2.3-1.1.6-.7.9-1.6.9-2.6V40.1c0-1-.3-1.8-.9-2.5-.6-.7-1.4-1.1-2.3-1.1h-43.7c-1 0-1.6.4-2.3 1.1-.7.7-.9 1.5-.9 2.5v14.1c0 1 .2 1.9.9 2.6.7.7 1.4 1.1 2.3 1.1h10.8v6.8c-15.1 1.8-28.6 7.1-40.4 14.9-4.5-5.2-3-3.4-4.5-5.2 2.7-2.3 1.8-1.6 2.7-2.3.7-.6 1.2-1.5 1.2-2.4.2-.9-.1-1.9-.8-2.6-11.9-14.4-7.9-9.5-11.9-14.4-1.2-1.5-3.3-1.6-4.8-.4-24.4 20.9-16.3 14-24.4 20.9-.7.6-1.1 1.4-1.2 2.3-.1 1 .3 1.8.8 2.6 11.8 14.4 7.9 9.5 11.8 14.4 1.2 1.3 3.4 1.6 4.9.4 4.6-4 3.1-2.6 4.6-4 4.4 5.3 2.9 3.6 4.4 5.3-15.9 17.1-25.6 40.2-25.6 65.6 0 52.7 42.2 95.7 94.4 95.7s94.4-43 94.4-95.7c0-48.9-36.5-89.4-83.5-95.1zm-29.6-21H169v7.1h-37.3c.1-2.4.1-4.7.1-7.1zm14.5 20.2v-6h8.6v6H146.3zm-57.2 15c4.1 4.9 2.7 3.3 4.1 4.9-2.3 1.8-4.5 3.7-6.6 5.6-4-4.9-2.7-3.3-4-4.9 2.2-1.9 4.4-3.8 6.5-5.6zm123.3 143.8c-15.9 16-37.8 26-61.9 26s-46.2-10-61.9-26c-15.9-16.1-25.7-38.2-25.7-62.7 0-24.6 9.7-46.8 25.7-62.8.5-.6.9-1.1 1.5-1.5 8.5-7.3 5.7-4.9 8.5-7.3 14-10.5 31.2-16.8 49.8-17.3h4.3c23.3.5 44.4 10.4 59.8 26 15.7 16.1 25.6 38.3 25.6 62.8-.1 24.5-9.9 46.6-25.7 62.8z"/><path d="M150.4 87.2c1 0 1.9-.9 1.9-1.8v-7.2c0-1-1-1.7-1.9-1.7-1 0-1.9.7-1.9 1.7v7.2c0 .9.9 1.8 1.9 1.8zM111.6 88.3c-.5-.8-1.5-1.1-2.3-.7-.8.6-1.1 1.7-.7 2.5 3.6 6.1 2.4 4.1 3.6 6.1.5.9 1.5 1.1 2.3.7.8-.5 1.1-1.5.7-2.5-1.3-2-2.5-4-3.6-6.1zM87.5 121.1c-6.1-3.6-4-2.4-6.1-3.6-.8-.4-1.9-.1-2.4.7-.4.9-.1 1.9.7 2.4 6.1 3.7 4.1 2.5 6.1 3.7 1 .4 1.9.1 2.4-.7.4-.8.2-1.9-.7-2.5zM76.9 158.3h-7.1c-1 0-1.6.7-1.6 1.7 0 .9.7 1.7 1.6 1.7h7.1c.9 0 1.6-.8 1.6-1.7 0-1-.7-1.7-1.6-1.7zM85.8 195.7c-6.1 3.6-4 2.4-6.1 3.6-.8.6-1.1 1.7-.7 2.5.6.8 1.6 1.1 2.4.6 6.1-3.6 4-2.4 6.1-3.6.9-.4 1.1-1.6.7-2.4-.5-.8-1.6-1.1-2.4-.7zM114.5 223.1c-.8-.6-1.9-.3-2.4.7-3.5 6.1-2.3 4.1-3.5 6.1-.4.8-.1 1.9.7 2.3.9.6 1.9.3 2.3-.5 3.5-6.3 2.3-4.2 3.5-6.3.5-.8.2-1.9-.6-2.3zM150.5 232.9c-1 0-1.8.8-1.8 1.8v7.1c0 .9.8 1.8 1.8 1.8s1.8-.9 1.8-1.8v-7.1c0-1-.8-1.8-1.8-1.8zM188.6 223.8c-.5-.8-1.5-1.1-2.3-.7-1 .6-1.2 1.6-.7 2.4 3.5 6.3 2.3 4.2 3.5 6.3.5.9 1.5 1.1 2.4.6.8-.4 1.1-1.5.5-2.4-1-2.1-2.2-4.2-3.4-6.2zM221 199.5c-6.1-3.7-4.1-2.5-6.1-3.7-.8-.4-1.9-.1-2.3.7-.6.8-.3 2 .5 2.4 6.2 3.7 4.2 2.5 6.2 3.7.8.4 1.9.1 2.3-.7.6-.9.4-2-.6-2.4zM231 158h-7c-1 0-1.8 1-1.8 1.9 0 1 .8 1.8 1.8 1.8h7c.9 0 1.8-.8 1.8-1.8 0-.9-.9-1.9-1.8-1.9zM219.4 117.7c-6.1 3.6-4 2.4-6.1 3.6-1 .4-1.2 1.5-.7 2.3.4.9 1.5 1.1 2.3.7 6.2-3.6 4.1-2.4 6.2-3.6.8-.5 1.1-1.6.5-2.5-.3-.8-1.4-1.1-2.2-.5zM191.6 87.7c-.8-.6-1.9-.3-2.4.5-3.5 6.3-2.3 4.2-3.5 6.3-.4.8-.1 1.8.7 2.3.8.6 1.9.2 2.3-.7 3.5-6.1 2.3-4.1 3.5-6.1.5-.8.2-1.9-.6-2.3zM154.9 138.6c-1-43.8-.6-29.2-1-43.8 0-1.9-1.6-3.4-3.3-3.4h-.7c-1.8 0-3.3 1.5-3.3 3.4-1 43.9-.6 29.3-1 43.9-9.5 2.2-16.6 10.8-16.6 21.2 0 12 9.6 21.7 21.5 21.7 11.8 0 21.4-9.7 21.4-21.7 0-10.5-7.2-19.2-17-21.3zm5.9 31.8c-2.6 2.7-6.2 4.4-10.3 4.4-4.1 0-7.7-1.7-10.4-4.4-2.6-2.6-4.1-6.3-4.1-10.4 0-4.1 1.6-7.8 4.1-10.6 2.7-2.6 6.3-4.2 10.4-4.4 4 .2 7.6 1.8 10.3 4.4 2.7 2.8 4.3 6.4 4.3 10.6 0 4-1.7 7.7-4.3 10.4z"/><path d="M206.2 156.1c-34.8-.8-23.2-.6-34.8-.8-2-9.9-10.6-17.1-20.9-17.1-11.9 0-21.5 9.7-21.5 21.8 0 12 9.6 21.7 21.5 21.7 10.3 0 18.9-7.4 20.9-17.1 34.8-1 23.2-.6 34.8-1 1.9 0 3.2-1.7 3.2-3.4v-.7c0-1.7-1.3-3.3-3.2-3.4z"/><g><path d="M167 291.2c-4.4.6-8.9 1-13.4 1.3-1.9.1-3.4 1.7-3.3 3.6.1 1.8 1.6 3.3 3.4 3.3h.2c4.7-.2 9.4-.7 14-1.3 1.9-.3 3.2-2 2.9-3.9-.1-1.9-1.8-3.2-3.8-3zM217.8 274.1c-1.8 1-3.6 1.9-5.4 2.9-2.2 1.1-4.4 2.2-6.7 3.2-1.7.8-2.5 2.8-1.8 4.6.6 1.3 1.8 2.1 3.2 2.1.5 0 .9-.1 1.4-.3 2.3-1 4.7-2.1 7-3.3l5.7-3c1.7-.9 2.3-3 1.3-4.7-.9-1.8-3-2.4-4.7-1.5zM193.2 285c-4.3 1.4-8.6 2.7-13 3.7-1.9.4-3 2.3-2.6 4.2.4 1.6 1.8 2.7 3.4 2.7.3 0 .5 0 .8-.1 4.5-1.1 9.1-2.4 13.6-3.9 1.8-.6 2.8-2.6 2.2-4.4-.6-1.8-2.6-2.8-4.4-2.2zM140.1 292.5c-4.5-.2-9-.6-13.4-1.2-1.9-.3-3.6 1.1-3.9 2.9-.3 1.9 1.1 3.6 2.9 3.9 4.6.6 9.4 1.1 14.1 1.3h.2c1.8 0 3.4-1.4 3.4-3.3.1-1.9-1.4-3.5-3.3-3.6zM87.9 280.4c-4.1-1.8-8.2-3.8-12.1-6-1.7-.9-3.8-.3-4.7 1.4-.9 1.7-.3 3.8 1.4 4.7 4.1 2.3 8.4 4.4 12.7 6.2.4.2.9.3 1.4.3 1.3 0 2.6-.8 3.2-2.1.7-1.7-.1-3.7-1.9-4.5zM34.4 240.4c-1.2-1.5-3.4-1.6-4.9-.4-1.5 1.2-1.6 3.4-.4 4.9 3 3.6 6.2 7.1 9.6 10.4.7.7 1.5 1 2.4 1 .9 0 1.8-.3 2.5-1 1.3-1.4 1.3-3.5 0-4.9-3.3-3.2-6.4-6.6-9.2-10zM53.5 259.4c-1.5-1.2-3.6-1-4.9.5-1.2 1.5-1 3.6.5 4.9 3.6 3 7.4 5.8 11.3 8.4.6.4 1.3.6 1.9.6 1.1 0 2.2-.5 2.9-1.5 1.1-1.6.7-3.7-.9-4.8-3.7-2.6-7.3-5.3-10.8-8.1zM113.5 288.9c-4.4-1-8.7-2.2-13-3.6-1.8-.6-3.8.4-4.4 2.2-.6 1.8.4 3.8 2.2 4.4 4.5 1.5 9 2.8 13.6 3.8.3.1.5.1.8.1 1.6 0 3-1.1 3.4-2.7.4-2-.8-3.8-2.6-4.2zM295.5 164c-1.9-.3-3.6 1-3.9 2.9-.6 4.4-1.5 8.9-2.5 13.2-.4 1.9.7 3.7 2.6 4.2.3.1.5.1.8.1 1.6 0 3-1.1 3.4-2.6 1.1-4.5 2-9.2 2.7-13.9.1-1.8-1.2-3.6-3.1-3.9zM259.2 239.9c-2.9 3.4-5.9 6.8-9.1 9.9-1.3 1.3-1.4 3.5 0 4.9.7.7 1.6 1 2.4 1 .9 0 1.8-.3 2.4-1 3.3-3.3 6.5-6.8 9.5-10.4 1.2-1.5 1-3.6-.4-4.9-1.4-1.1-3.6-.9-4.8.5zM289.7 191c-1.8-.6-3.8.4-4.4 2.2-1.4 4.3-3.1 8.5-4.9 12.6-.8 1.7 0 3.8 1.8 4.6.5.2.9.3 1.4.3 1.3 0 2.6-.8 3.2-2 1.9-4.3 3.6-8.7 5.1-13.1.6-2.1-.4-4-2.2-4.6zM296.6 144.6c-1.9 0-3.5 1.5-3.5 3.4s-.1 3.7-.2 5.6c-.1 1.9 1.4 3.5 3.3 3.6h.2c1.8 0 3.3-1.4 3.4-3.3.1-1.9.2-3.9.2-5.8s-1.5-3.5-3.4-3.5zM279.1 216.4c-1.7-.9-3.8-.3-4.7 1.3-2.2 3.9-4.6 7.7-7.1 11.4-1.1 1.6-.7 3.7.9 4.8.6.4 1.3.6 2 .6 1.1 0 2.2-.5 2.8-1.5 2.7-3.9 5.2-7.9 7.4-12 1-1.6.4-3.7-1.3-4.6zM240.1 258.9c-3.4 2.8-7.1 5.6-10.8 8.1-1.6 1.1-2 3.2-.9 4.8.7 1 1.8 1.5 2.9 1.5.7 0 1.3-.2 1.9-.6 3.9-2.7 7.7-5.5 11.3-8.5 1.5-1.2 1.7-3.4.5-4.9-1.3-1.4-3.5-1.6-4.9-.4zM46.4 53.2C90.7 6 160.3-6.4 217.8 21.9l-8.2 11.3c-.4.6-.5 1.4-.3 2.1.3.7.9 1.2 1.6 1.4l42.5 8.8c.8.2 1.7-.2 2.2-.9.5-.7.6-1.6.1-2.4L234.6 4.1c-.4-.7-1-1.1-1.8-1.1s-1.5.3-1.9.9l-9 12.4C161.5-14 88.1-1.2 41.4 48.5-4.9 97.8-13.3 172.9 20.9 231.2c.6 1.1 1.8 1.7 3 1.7.6 0 1.2-.2 1.7-.5 1.6-1 2.2-3.1 1.2-4.7C-5.8 172.1 2.2 100.3 46.4 53.2z"/></g></g></svg>
