<svg version="1.1" id="Layer_1" xmlns="http://www.w3.org/2000/svg" x="0" y="0" viewBox="0 0 284.2 300" xml:space="preserve"><style>.st1{fill:#bababa}.st25{fill:#d6d6d6}</style><path d="M259.3 127.1c-10.8 0-20 6.9-23.5 16.5l-41.5-12c.2-2.1.3-4.2.3-6.3 0-22.6-11.5-42.6-29-54.4l22.6-33.8c1.7.5 3.5.9 5.4.9 10.5 0 19-8.5 19-19s-8.5-19-19-19-19 8.5-19 19c0 7.1 3.9 13.2 9.7 16.5L162 68.7c-9.7-5.7-20.9-9-32.9-9-21.5 0-40.5 10.4-52.5 26.5L44.8 59.9c3-4.1 4.7-9.1 4.7-14.5 0-13.6-11.1-24.7-24.8-24.7C11.1 20.6 0 31.7 0 45.4s11.1 24.8 24.8 24.8c6.8 0 12.9-2.7 17.4-7.1l32.2 26.6c-6.7 10.3-10.6 22.5-10.6 35.6 0 17.2 6.7 32.8 17.6 44.5l-22.7 18.9c-3.7-3.5-8.6-5.7-14-5.7-11.2 0-20.4 9.1-20.4 20.4 0 11.2 9.1 20.4 20.4 20.4 11.2 0 20.4-9.1 20.4-20.4 0-4.3-1.3-8.3-3.6-11.5l23-19.1c11.7 11.1 27.5 18 44.9 18 9.4 0 18.3-2 26.4-5.6l17.8 47.5c-12.9 5.2-22 17.7-22 32.4 0 19.3 15.7 34.9 34.9 34.9 19.3 0 34.9-15.7 34.9-34.9 0-19.3-15.7-35-34.9-35-3.1 0-6.1.5-9 1.2l-18-48c18-9.4 31-26.9 34.4-47.6l41 11.9c-.3 1.5-.4 2.9-.4 4.5 0 13.8 11.2 25 25 25s25-11.2 25-25c-.3-13.8-11.5-25-25.2-25zM193.7 6.2c7 0 12.8 5.7 12.8 12.8 0 7-5.7 12.8-12.8 12.8-7 0-12.8-5.7-12.8-12.8 0-7 5.7-12.8 12.8-12.8zM24.8 63.9c-10.2 0-18.5-8.3-18.5-18.5s8.3-18.5 18.5-18.5 18.5 8.3 18.5 18.5S35 63.9 24.8 63.9zM215 265.1c0 15.8-12.9 28.7-28.7 28.7-15.8 0-28.7-12.9-28.7-28.7 0-15.8 12.9-28.7 28.7-28.7 15.9 0 28.7 12.8 28.7 28.7zM44.5 217.5c-7.8 0-14.1-6.3-14.1-14.1s6.3-14.1 14.1-14.1 14.1 6.3 14.1 14.1-6.3 14.1-14.1 14.1zm84.7-35.1c-31.5 0-57.2-25.6-57.2-57.2S97.6 68 129.2 68c31.5 0 57.2 25.6 57.2 57.2s-25.7 57.2-57.2 57.2zm130.1-11.6c-10.3 0-18.7-8.4-18.7-18.7 0-10.3 8.4-18.8 18.7-18.8 10.3 0 18.7 8.4 18.7 18.8 0 10.3-8.4 18.7-18.7 18.7z" fill="#231f20"/><path d="M129.2 182.4c-31.5 0-57.2-25.6-57.2-57.2S97.6 68 129.2 68c31.5 0 57.2 25.6 57.2 57.2s-25.7 57.2-57.2 57.2z" fill="#c32265"/><path class="st1" d="M193.7 6.2c7 0 12.8 5.7 12.8 12.8 0 7-5.7 12.8-12.8 12.8-7 0-12.8-5.7-12.8-12.8 0-7 5.7-12.8 12.8-12.8z"/><path class="st25" d="M24.8 63.9c-10.2 0-18.5-8.3-18.5-18.5s8.3-18.5 18.5-18.5 18.5 8.3 18.5 18.5S35 63.9 24.8 63.9z"/><path d="M215 265.1c0 15.8-12.9 28.7-28.7 28.7-15.8 0-28.7-12.9-28.7-28.7 0-15.8 12.9-28.7 28.7-28.7 15.9 0 28.7 12.8 28.7 28.7z" fill="#f1f1f1"/><path class="st1" d="M44.5 217.5c-7.8 0-14.1-6.3-14.1-14.1s6.3-14.1 14.1-14.1 14.1 6.3 14.1 14.1-6.3 14.1-14.1 14.1z"/><path class="st25" d="M259.3 170.8c-10.3 0-18.7-8.4-18.7-18.7 0-10.3 8.4-18.8 18.7-18.8 10.3 0 18.7 8.4 18.7 18.8 0 10.3-8.4 18.7-18.7 18.7z"/></svg>
