<svg xmlns="http://www.w3.org/2000/svg" viewBox="0 0 300 300"><style>.st10{fill:#231f20}.st69{fill:#00a79d}</style><g id="Layer_2"><path class="st10" d="M82.8 238.3H50.2c-4.5 0-8.6-.7-12.3-2.1-3.7-1.4-6.9-3.5-9.5-6.1-2.7-2.6-4.7-5.9-6.1-9.7-1.3-3.7-2-7.8-2-12.3V179c0-3.3-.4-6-1.2-8.2-.7-2-1.8-3.6-3.1-4.8-1.4-1.2-3-2.1-5-2.6-2.2-.6-4.7-1-7.5-1l-3.5-.1v-24.4l3.5-.1c2.8-.1 5.4-.5 7.6-1.1 2-.6 3.6-1.5 4.9-2.7 1.3-1.2 2.3-2.8 3.1-4.8.8-2.2 1.2-4.9 1.2-8.2V91.9c0-9.6 2.7-17.2 8.1-22.4 5.3-5.2 12.7-7.8 21.8-7.8h32.7v24.2H62.5c-4.2 0-7.1 1-8.8 3.2-1.9 2.4-2.8 6.3-2.8 11.7v26.7c0 3.5-.6 6.7-1.7 9.6-1.1 2.9-2.7 5.5-4.6 7.7-1.8 2.1-3.9 3.8-6.3 5.2 2.4 1.4 4.6 3.2 6.4 5.3 1.9 2.2 3.5 4.8 4.5 7.6 1.1 2.9 1.7 6.1 1.7 9.5v26.7c0 5.4.9 9.3 2.8 11.7 1.7 2.1 4.5 3.2 8.8 3.2h20.4v24.3z"/><path class="st10" d="M82.8 238.3H50.2c-4.5 0-8.6-.7-12.3-2.1-3.7-1.4-6.9-3.5-9.5-6.1-2.7-2.6-4.7-5.9-6.1-9.7-1.3-3.7-2-7.8-2-12.3V179c0-3.3-.4-6-1.2-8.2-.7-2-1.8-3.6-3.1-4.8-1.4-1.2-3-2.1-5-2.6-2.2-.6-4.7-1-7.5-1l-3.5-.1v-24.4l3.5-.1c2.8-.1 5.4-.5 7.6-1.1 2-.6 3.6-1.5 4.9-2.7 1.3-1.2 2.3-2.8 3.1-4.8.8-2.2 1.2-4.9 1.2-8.2V91.9c0-9.6 2.7-17.2 8.1-22.4 5.3-5.2 12.7-7.8 21.8-7.8h32.7v24.2H62.5c-4.2 0-7.1 1-8.8 3.2-1.9 2.4-2.8 6.3-2.8 11.7v26.7c0 3.5-.6 6.7-1.7 9.6-1.1 2.9-2.7 5.5-4.6 7.7-1.8 2.1-3.9 3.8-6.3 5.2 2.4 1.4 4.6 3.2 6.4 5.3 1.9 2.2 3.5 4.8 4.5 7.6 1.1 2.9 1.7 6.1 1.7 9.5v26.7c0 5.4.9 9.3 2.8 11.7 1.7 2.1 4.5 3.2 8.8 3.2h20.4v24.3z"/><path class="st69" d="M7.4 155.3c2 .2 3.9.6 5.7 1.1 3 .9 5.7 2.3 7.9 4.3s3.9 4.6 5.1 7.7c1.1 3 1.6 6.6 1.6 10.7v29.1c0 3.6.5 6.9 1.6 9.8 1 2.8 2.4 5.1 4.3 7 1.9 1.9 4.3 3.4 7 4.4 2.8 1.1 6 1.6 9.6 1.6h25.3v-9.6h-13c-6.5 0-11.4-2-14.6-6-2.9-3.7-4.4-9.1-4.4-16.2v-26.7c0-2.5-.4-4.9-1.2-6.9-.8-2-1.9-3.9-3.3-5.5s-3-2.9-4.9-4c-1.9-1.1-4-1.9-6.2-2.4l-2.8-.7v-5.9l2.9-1c2.1-.5 4.1-1.2 6.1-2.3 1.9-1.1 3.5-2.4 4.9-4 1.4-1.6 2.5-3.4 3.3-5.5.8-2.1 1.2-4.4 1.2-7v-26.7c0-7.1 1.4-12.4 4.4-16.2 3.1-4 8-6 14.6-6h13V69H50.2c-7.2 0-12.7 1.9-16.6 5.7-3.9 3.8-5.9 9.4-5.9 17.1v29.1c0 4.1-.6 7.7-1.6 10.7-1.1 3.1-2.8 5.7-5 7.7s-4.8 3.4-7.8 4.3c-1.8.5-3.8.9-5.8 1.2v10.5z"/><g><path d="M249.8 238.3h-32.7V214h20.4c4.2 0 7.1-1 8.8-3.2 1.9-2.4 2.8-6.3 2.8-11.7v-26.7c0-3.5.6-6.7 1.7-9.5s2.6-5.4 4.5-7.6c1.8-2.1 4-3.9 6.4-5.3-2.4-1.4-4.5-3.2-6.3-5.2-1.9-2.2-3.5-4.8-4.6-7.7-1.1-2.9-1.7-6.2-1.7-9.6v-26.7c0-5.3-.9-9.3-2.8-11.7-1.7-2.2-4.5-3.2-8.8-3.2h-20.4V61.7h32.7c9.1 0 16.4 2.6 21.8 7.8 5.4 5.2 8.1 12.7 8.1 22.4V121c0 3.3.4 6 1.2 8.2.7 2 1.8 3.6 3.1 4.8 1.3 1.2 3 2.1 4.9 2.7 2.2.7 4.8 1 7.6 1.1l3.5.1v24.4l-3.6.1c-2.8.1-5.3.4-7.5 1-2 .6-3.6 1.4-5 2.7-1.3 1.2-2.3 2.8-3.1 4.8-.8 2.2-1.2 4.9-1.2 8.2v29.1c0 4.5-.7 8.6-2 12.3-1.4 3.8-3.4 7-6 9.7-2.6 2.6-5.8 4.7-9.5 6.1-3.6 1.3-7.7 2-12.3 2z" fill="#4e376b"/><path d="M249.8 238.3h-32.7V214h20.4c4.2 0 7.1-1 8.8-3.2 1.9-2.4 2.8-6.3 2.8-11.7v-26.7c0-3.5.6-6.7 1.7-9.5s2.6-5.4 4.5-7.6c1.8-2.1 4-3.9 6.4-5.3-2.4-1.4-4.5-3.2-6.3-5.2-1.9-2.2-3.5-4.8-4.6-7.7-1.1-2.9-1.7-6.2-1.7-9.6v-26.7c0-5.3-.9-9.3-2.8-11.7-1.7-2.2-4.5-3.2-8.8-3.2h-20.4V61.7h32.7c9.1 0 16.4 2.6 21.8 7.8 5.4 5.2 8.1 12.7 8.1 22.4V121c0 3.3.4 6 1.2 8.2.7 2 1.8 3.6 3.1 4.8 1.3 1.2 3 2.1 4.9 2.7 2.2.7 4.8 1 7.6 1.1l3.5.1v24.4l-3.6.1c-2.8.1-5.3.4-7.5 1-2 .6-3.6 1.4-5 2.7-1.3 1.2-2.3 2.8-3.1 4.8-.8 2.2-1.2 4.9-1.2 8.2v29.1c0 4.5-.7 8.6-2 12.3-1.4 3.8-3.4 7-6 9.7-2.6 2.6-5.8 4.7-9.5 6.1-3.6 1.3-7.7 2-12.3 2z"/><path class="st69" d="M224.5 231h25.3c3.6 0 6.8-.5 9.6-1.6 2.7-1 5.1-2.5 7-4.4 1.9-1.9 3.3-4.2 4.3-7 1-2.9 1.6-6.2 1.6-9.8v-29.1c0-4.1.6-7.8 1.6-10.7 1.1-3.1 2.9-5.7 5.1-7.7 2.2-2 4.8-3.4 7.9-4.3 1.8-.5 3.7-.9 5.7-1.1v-10.4c-2.1-.2-4-.6-5.8-1.2-3-.9-5.7-2.3-7.8-4.3-2.2-2-3.9-4.6-5-7.7-1.1-3-1.6-6.6-1.6-10.7V91.9c0-7.6-2-13.3-5.9-17.1-4-3.9-9.4-5.7-16.6-5.7h-25.3v9.5h13c6.5 0 11.4 2 14.6 6 2.9 3.8 4.4 9.1 4.4 16.2v26.7c0 2.5.4 4.9 1.2 7 .8 2.1 1.9 4 3.3 5.5 1.4 1.6 3 2.9 4.9 4 1.9 1.1 3.9 1.9 6.1 2.3l2.9.6v5.9l-2.8 1c-2.2.5-4.3 1.3-6.2 2.4-1.9 1.1-3.5 2.4-4.9 4-1.4 1.6-2.5 3.4-3.3 5.5-.8 2-1.2 4.3-1.2 6.9v26.7c0 7.2-1.4 12.5-4.4 16.2-3.1 4-8 6-14.6 6h-13v9.5z"/></g><g><path class="st10" d="M131 170.6l-1.6-4.1h-.2c-1.4 1.7-2.8 2.9-4.3 3.6-1.5.7-3.4 1-5.7 1-2.9 0-5.2-.8-6.8-2.5-1.7-1.6-2.5-4-2.5-7 0-3.2 1.1-5.5 3.3-7 2.2-1.5 5.6-2.3 10.1-2.5l5.2-.2v-1.3c0-3-1.6-4.6-4.7-4.6-2.4 0-5.2.7-8.5 2.2l-2.7-5.5c3.5-1.8 7.3-2.7 11.5-2.7 4 0 7.1.9 9.3 2.6 2.1 1.8 3.2 4.4 3.2 8v20H131zm-2.5-13.9l-3.2.1c-2.4.1-4.2.5-5.3 1.3-1.2.8-1.7 2-1.7 3.6 0 2.3 1.3 3.5 4 3.5 1.9 0 3.4-.5 4.6-1.6 1.1-1.1 1.7-2.5 1.7-4.4v-2.5zM161.6 171.1c-3.5 0-6.3-1.3-8.3-3.8h-.4c.3 2.5.4 4 .4 4.3v12.2h-8.2v-43.2h6.7l1.2 3.9h.4c1.9-3 4.8-4.5 8.5-4.5 3.5 0 6.3 1.4 8.3 4.1 2 2.7 3 6.5 3 11.4 0 3.2-.5 6-1.4 8.4-.9 2.4-2.3 4.2-4 5.4-1.8 1.2-3.9 1.8-6.2 1.8zm-2.4-24.5c-2 0-3.5.6-4.4 1.9-.9 1.2-1.4 3.3-1.5 6.2v.9c0 3.2.5 5.5 1.4 6.9 1 1.4 2.5 2.1 4.6 2.1 3.7 0 5.5-3 5.5-9.1 0-3-.5-5.2-1.4-6.6-.9-1.6-2.3-2.3-4.2-2.3zM179.6 132.8c0-2.7 1.5-4 4.5-4s4.5 1.3 4.5 4c0 1.3-.4 2.3-1.1 3-.7.7-1.9 1.1-3.3 1.1-3.1-.1-4.6-1.4-4.6-4.1zm8.5 37.8h-8.2v-30h8.2v30z"/></g></g></svg>
