<svg version="1.1" id="Layer_1" xmlns="http://www.w3.org/2000/svg" x="0" y="0" viewBox="0 0 300 300" xml:space="preserve"><style>.st5{fill:#fff}</style><path d="M8.8 1.4C12.4 0 16.3.2 20.1 0 107.6.1 195 0 282.5 0c9.7-1.2 18.5 7.6 17.3 17.3.2 88.3.1 176.6.1 264.9 1.1 9.8-7.6 18.5-17.4 17.6H17.6c-9.8.9-18.5-7.8-17.4-17.6C.1 194 0 105.7.2 17.4c-.5-6.5 2.9-12.7 8.6-16zm59.1 148.5c-.4 21.8 14.6 42.6 35.2 49.4 19.5 6.5 43.4 1.6 56.4-15 9.5-11.7 11.6-27.3 10.6-41.8-16.7-.1-33.3-.1-50-.1v17.8c10 .3 20 .1 30 .3-2.5 8.6-8.3 16.7-17 19.8-16.8 7.4-38.3-2.3-43.6-19.9-6.4-16.9 4.1-37.3 21.3-42.2 10.7-3.8 21.7.5 30.9 6 4.6-4.3 9-9 13.3-13.7-10.4-8.7-23.8-14.1-37.5-12.9-27.1.4-50.7 25.3-49.6 52.3zm134.6-22.5c0 5-.1 10-.1 14.9-5 0-10 .1-14.9.1v14.9c5 0 10 0 14.9.1 0 5 0 9.9.1 14.9h14.9c0-5 0-10 .1-15 5 0 10 0 14.9-.1v-14.9c-5 0-10 0-14.9-.1 0-5-.1-10-.1-14.9-5 .1-10 .1-14.9.1z" fill="#dc4e41"/><path class="st5" d="M67.9 149.9c-1-27 22.6-51.9 49.6-52.2 13.8-1.2 27.1 4.2 37.5 12.9-4.3 4.7-8.6 9.3-13.3 13.7-9.2-5.6-20.2-9.8-30.9-6-17.3 4.9-27.7 25.3-21.3 42.2 5.3 17.6 26.8 27.3 43.6 19.9 8.7-3.1 14.5-11.2 17-19.8-10-.2-20-.1-30-.3v-17.8c16.6 0 33.3-.1 50 .1 1 14.6-1.1 30.1-10.6 41.8-13 16.7-36.9 21.6-56.4 15-20.7-6.9-35.7-27.7-35.2-49.5zM202.5 127.4h14.9c0 5 .1 10 .1 14.9 5 0 10 .1 14.9.1v14.9c-5 0-10 0-14.9.1 0 5-.1 10-.1 15h-14.9c0-5 0-10-.1-14.9-5 0-10-.1-14.9-.1v-14.9c5 0 9.9 0 14.9-.1 0-5 0-10 .1-15z"/></svg>
