<svg version="1.1" id="Layer_1" xmlns="http://www.w3.org/2000/svg" x="0" y="0" viewBox="0 0 300 228.7" xml:space="preserve"><style>.st16{fill:#d54b3d}.st17{fill:#d72b27}</style><path d="M280.9 228.4H18.8C8.6 228.4 0 220.1 0 209.7V20.3C0 10.2 8.3 1.6 18.8 1.6h262.1c10.2 0 18.7 8.3 18.7 18.7v189.4c0 10.4-8.3 18.7-18.7 18.7z" fill="#f2f2f2"/><path d="M37.5 228.4l112.1-90.1.8-4.8L34.8 50.3l-.3 174.1 3 4z" fill="#e3e3e3"/><path class="st16" d="M18.8 228.4C8.3 228.4 0 220.1 0 209.7V20.1C0 9.6 8.3 7.8 18.8 7.8s18.7 2.1 18.7 12.3v208.4H18.8v-.1z"/><path class="st17" d="M18.8 10.4c13.4 0 16 4 16 9.6v205.7h-16c-8.8 0-16-7.2-16-16V20.1c-.1-5.9 2.6-9.7 16-9.7zm0-2.6C8.3 7.8 0 9.9 0 20.1v189.6c0 10.4 8.3 18.7 18.7 18.7h18.7V20.1c.1-10.5-8.2-12.3-18.6-12.3z"/><path class="st16" d="M280.9 228.4h-18.7V19.5c0-10.4 8.3-11.8 18.7-11.8 10.4 0 18.7 1.3 18.7 11.8V210c0 10.1-8.3 18.4-18.7 18.4z"/><path class="st17" d="M280.9 10.4c12 0 16 2.4 16 9.1V210c0 8.8-7.2 16-16 16h-16V19.5c-.1-6.9 3.9-9.1 16-9.1zm0-2.6c-10.4 0-18.7 1.3-18.7 11.8v209.2h18.7c10.4 0 18.7-8.3 18.7-18.7V19.5c0-10.4-8.3-11.7-18.7-11.7z"/><linearGradient id="SVGID_1_" gradientUnits="userSpaceOnUse" x1="-2509.283" y1="719.126" x2="-2508.106" y2="719.126" gradientTransform="matrix(253.1598 0 0 -174.8345 635251.375 125853.555)"><stop offset="0" stop-opacity=".1"/><stop offset="1" stop-opacity=".2"/></linearGradient><path d="M200.6 228.4L1.6 27.9l10.5 4.3L150.6 132l149-109.2v187.3c0 10.2-8.3 18.5-18.7 18.5h-80.3z" opacity=".56" fill="url(#SVGID_1_)"/><path class="st16" d="M149.5 138.3L8.1 35.6C-.2 29.4-2.6 17.7 3.5 9.4s18.2-10.2 26.7-4l119.6 86.9 120.4-88c8.3-6.2 20.1-4.3 26.2 4.3 6.2 8.3 4.3 20.1-4.3 26.2L149.5 138.3z"/><path class="st17" d="M280.9 3.2c5.1 0 9.9 2.4 13.1 6.7 5.1 7.2 3.5 17.1-3.5 22.5l-141 102.7L9.7 33.5C2.5 28.2.6 18 5.7 11c2.9-4 8-6.7 13.4-6.7 3.5 0 7 1.1 9.6 3.2L148 94.2l1.6 1.1 1.6-1.1 120.1-88c2.9-1.9 6.1-3 9.6-3zm0-2.6c-3.7 0-7.8 1.1-11 3.5L149.5 92 30 5.1c-3.2-2.4-7.2-3.5-11.2-3.5C12.9 1.6 7 4.3 3.2 9.4-2.7 17.7-.3 29.5 8 35.6l141.5 103L291.8 34.8c8.3-6.2 10.2-17.7 4.3-26.2-3.7-5.4-9.3-8-15.2-8z"/></svg>
