<svg xmlns="http://www.w3.org/2000/svg" viewBox="0 0 300 294.3"><style>.st2{fill:#00aeef}.st6{fill:#fff}.st10{fill:#231f20}.st60{fill:none;stroke:#231f20;stroke-width:9.5201;stroke-linecap:round;stroke-linejoin:round;stroke-miterlimit:10}</style><g id="Layer_1"><path class="st10" d="M288.3 10c.9 0 1.7.7 1.7 1.7v271c0 .9-.7 1.7-1.7 1.7H11.7c-.9 0-1.7-.7-1.7-1.7v-271c0-.9.7-1.7 1.7-1.7h276.6m0-10H11.7C5.2 0 0 5.2 0 11.7v271c0 6.4 5.2 11.7 11.7 11.7h276.7c6.4 0 11.7-5.2 11.7-11.7v-271C300 5.2 294.8 0 288.3 0z"/><path class="st10" d="M289.9 0H10.1C4.5 0 0 4.5 0 10.1v34.5c0 5.6 4.5 10.1 10.1 10.1h279.8c5.6 0 10.1-4.5 10.1-10.1V10.1C300 4.5 295.5 0 289.9 0z"/><path class="st2" d="M30.6 71.5h48.8v197.3H30.6zM95.4 71.5h171.8v61.7H95.4z"/><circle class="st6" cx="39.9" cy="26.2" r="15.1"/><circle class="st6" cx="80.3" cy="26.2" r="15.1"/><circle class="st6" cx="120.9" cy="26.2" r="15.1"/><path class="st60" d="M102.4 159H258M102.4 185.5H258M102.4 211.4H258M102.4 237.4H258"/><path fill="none" stroke="#231f20" stroke-width="7.808" stroke-linecap="round" stroke-linejoin="round" stroke-miterlimit="10" d="M102.4 262.6h104.7"/></g></svg>
