<svg xmlns="http://www.w3.org/2000/svg" width="64" height="64" viewBox="0 0 32 32" preserveAspectRatio="xMidYMid"><path d="M21.537 17.724a4.158 4.158 0 0 0-3.128 1.421l-1.96-1.388a5.352 5.352 0 0 0 .327-1.832c0-.632-.115-1.237-.316-1.802l1.956-1.373a4.159 4.159 0 0 0 3.121 1.414c2.3 0 4.172-1.871 4.172-4.171 0-2.3-1.872-4.172-4.172-4.172a4.176 4.176 0 0 0-4.171 4.172c0 .411.062.808.174 1.184l-1.957 1.374a5.385 5.385 0 0 0-3.337-1.939V8.253a4.178 4.178 0 0 0 3.314-4.081c0-2.3-1.872-4.172-4.172-4.172a4.176 4.176 0 0 0-4.171 4.172 4.176 4.176 0 0 0 3.238 4.062v2.39C7.928 11.067 6 13.273 6 15.925c0 2.666 1.947 4.88 4.493 5.308v2.523a4.177 4.177 0 0 0-3.276 4.072c0 2.3 1.871 4.172 4.171 4.172 2.3 0 4.172-1.871 4.172-4.172a4.177 4.177 0 0 0-3.276-4.072v-2.523a5.386 5.386 0 0 0 3.28-1.908l1.973 1.397c-.11.373-.171.766-.171 1.174 0 2.3 1.871 4.171 4.171 4.171 2.3 0 4.172-1.871 4.172-4.171 0-2.3-1.872-4.172-4.172-4.172zm0-9.754c1.116 0 2.023.907 2.023 2.023a2.025 2.025 0 0 1-2.023 2.022 2.025 2.025 0 0 1-2.022-2.022c0-1.116.907-2.023 2.022-2.023zM9.366 4.172c0-1.115.907-2.023 2.022-2.023 1.116 0 2.023.908 2.023 2.023a2.025 2.025 0 0 1-2.023 2.022 2.025 2.025 0 0 1-2.022-2.022zm4.045 23.656a2.025 2.025 0 0 1-2.023 2.023 2.025 2.025 0 0 1-2.022-2.023c0-1.115.907-2.022 2.022-2.022 1.116 0 2.023.907 2.023 2.022zm-2.023-9.082a2.824 2.824 0 0 1-2.821-2.82 2.824 2.824 0 0 1 2.821-2.822 2.824 2.824 0 0 1 2.821 2.821 2.824 2.824 0 0 1-2.821 2.821zm10.15 5.172a2.025 2.025 0 0 1-2.023-2.022c0-1.115.907-2.023 2.022-2.023 1.116 0 2.023.908 2.023 2.023a2.025 2.025 0 0 1-2.023 2.022z"/></svg>
