<svg xmlns="http://www.w3.org/2000/svg" xmlns:xlink="http://www.w3.org/1999/xlink" width="86.289" height="117.993"><defs><linearGradient id="a"><stop offset="0" stop-color="#0a4124"/><stop offset="1" stop-color="#23a565"/></linearGradient><linearGradient gradientTransform="translate(-128.5 10.5)" gradientUnits="userSpaceOnUse" y2="92.293" x2="175.624" y1="5.242" x1="168.913" id="b" xlink:href="#a"/></defs><g fill-rule="evenodd"><path d="M5.99 0H53.53l32.76 32.642-.288 79.18c-.012 3.394-2.695 6.171-5.99 6.171H5.991c-3.295 0-5.991-2.777-5.991-6.17V6.17C0 2.777 2.696 0 5.99 0z" fill="#23a565" stroke-width=".807"/><path d="M86.29 32.642L53.528 0l.066 26.466c.008 3.35 2.662 6.082 5.915 6.092z" fill="#8bd1b5" stroke-width=".807"/><path d="M22.16 58.293h41.563V95.99H22.16zm4.284 26.834h14.71v6.516h-14.71zM44.73 62.64h14.71v6.516H44.73zm0 22.487h14.71v6.516H44.73zm0-11.244h14.71V80.4H44.73zM26.444 62.64h14.71v6.516h-14.71zm0 11.243h14.71V80.4h-14.71z" fill="#fff" stroke-width=".693"/><path d="M28.885 73.713c8.925 10.271 18.873 19.692 29.021 29.84l.395-.395.103-28.654-26.779-.084a5.746 5.746 0 0 1-2.74-.707z" fill="url(#b)" stroke-width=".807" transform="translate(27.884 -41.862)"/></g></svg>
