<svg version="1.1" id="Layer_1" xmlns="http://www.w3.org/2000/svg" x="0" y="0" viewBox="0 0 300 300" xml:space="preserve"><style>.st13{fill:#181616}</style><path d="M150 3.7C67.2 3.7 0 70.9 0 153.7 0 220 43 276.2 102.6 296c7.5 1.4 10.2-3.3 10.2-7.2 0-3.6-.1-15.4-.2-27.9-41.7 9.1-50.5-17.7-50.5-17.7-6.8-17.3-16.7-21.9-16.7-21.9-13.6-9.3 1-9.1 1-9.1 15.1 1.1 23 15.5 23 15.5 13.4 22.9 35.1 16.3 43.7 12.5 1.3-9.7 5.2-16.3 9.5-20.1-33.3-3.8-68.3-16.7-68.3-74.1 0-16.4 5.9-29.8 15.5-40.3-1.6-3.8-6.7-19 1.5-39.7 0 0 12.6-4 41.3 15.4 12-3.3 24.8-5 37.5-5 12.7.1 25.6 1.7 37.6 5C216.3 62 228.9 66 228.9 66c8.2 20.7 3 35.9 1.5 39.7 9.6 10.5 15.4 23.9 15.4 40.3 0 57.6-35.1 70.3-68.5 74 5.4 4.7 10.2 13.8 10.2 27.8 0 20.1-.2 36.2-.2 41.2 0 4 2.7 8.7 10.3 7.2C257.1 276.2 300 220 300 153.7c0-82.8-67.2-150-150-150z" fill-rule="evenodd" clip-rule="evenodd" fill="#181616"/><path class="st13" d="M56.8 219.1c-.3.7-1.5 1-2.6.5s-1.7-1.5-1.3-2.3c.3-.8 1.5-1 2.6-.5s1.7 1.5 1.3 2.3zm-1.8-1.4M62.9 225.8c-.7.7-2.1.4-3.1-.7-1-1-1.2-2.4-.4-3.1.7-.7 2.1-.4 3.1.7.9 1.1 1.1 2.5.4 3.1zm-1.4-1.5M68.8 234.5c-.9.6-2.4 0-3.4-1.3-.9-1.3-.9-2.9 0-3.6.9-.6 2.4-.1 3.4 1.3.9 1.3.9 2.9 0 3.6zm0 0M76.9 242.8c-.8.9-2.6.7-3.9-.6-1.3-1.2-1.7-2.9-.9-3.8.8-.9 2.6-.7 3.9.6 1.4 1.2 1.8 2.9.9 3.8zm0 0M88.1 247.7c-.4 1.2-2 1.7-3.7 1.2-1.7-.5-2.8-1.9-2.5-3.1.4-1.2 2-1.7 3.8-1.2 1.6.5 2.7 1.9 2.4 3.1zm0 0M100.4 248.6c0 1.2-1.4 2.3-3.2 2.3-1.8 0-3.2-1-3.3-2.2 0-1.2 1.4-2.3 3.2-2.3 1.8 0 3.3.9 3.3 2.2zm0 0M111.8 246.6c.2 1.2-1 2.4-2.8 2.8-1.7.3-3.4-.4-3.6-1.6-.2-1.2 1-2.5 2.8-2.8 1.8-.3 3.4.4 3.6 1.6zm0 0"/></svg>
