<svg version="1.1" id="Layer_1" xmlns="http://www.w3.org/2000/svg" x="0" y="0" viewBox="0 0 300 265.2" xml:space="preserve"><style>.st5{fill:#fff}.st9{fill:#231f20}</style><path class="st9" d="M289.2 217.2c2.3-.3 3.5-1.5 3.5-3.7 0-2.6-1.6-3.8-4.8-3.8h-5.2v13.6h1.9v-5.9h2.4l.1.1 3.7 5.8h2.1l-4-6 .3-.1zm-2.3-1.4h-2.3v-4.6h2.9c1.5 0 3.2.2 3.2 2.2 0 2.2-1.7 2.4-3.8 2.4z"/><path class="st9" d="M287.2 203.6c-7.2 0-12.8 5.6-12.8 12.8 0 7.2 5.6 12.8 12.8 12.8 7.2 0 12.8-5.6 12.8-12.8 0-7.1-5.6-12.8-12.8-12.8zm0 24c-6.1 0-11-4.8-11-11.2 0-6.3 4.8-11.2 11-11.2s11 4.9 11 11.2c-.1 6.4-4.9 11.2-11 11.2z"/><g><path d="M245.6 0h-226C8.8 0 0 8.6 0 19.1V246c0 10.6 8.8 19.1 19.6 19.1h226c10.8 0 19.6-8.6 19.6-19.1V19.1c0-10.5-8.8-19.1-19.6-19.1z" fill="#007bb5"/><path class="st5" d="M39.3 99.4h39.3V226H39.3V99.4zM59 36.5c12.6 0 22.8 10.2 22.8 22.8 0 12.6-10.2 22.8-22.8 22.8-12.6 0-22.8-10.2-22.8-22.8 0-12.6 10.2-22.8 22.8-22.8M103.3 99.4H141v17.3h.5c5.3-10 18.1-20.4 37.2-20.4 39.8 0 47.2 26.2 47.2 60.3V226h-39.3v-61.5c0-14.7-.3-33.6-20.4-33.6-20.5 0-23.6 16-23.6 32.5V226h-39.3V99.4z"/></g></svg>
