<svg version="1.1" id="Layer_1" xmlns="http://www.w3.org/2000/svg" x="0" y="0" viewBox="0 0 300 231" xml:space="preserve"><style></style><path d="M238.2 3.1H53.8c-12.6 0-22.9 7.5-22.9 16.6v191.5c0 9.2 10.3 16.6 22.9 16.6h184.5c12.6 0 22.9-7.5 22.9-16.6V19.7c-.1-9.1-10.3-16.6-23-16.6z" fill="#8fced8"/><path d="M299.6 10.4c-.4-.4-.9-.5-1.5-.4h-.1l-28.3 10.4c-.5.2-.9.6-1 1.1-.1.5 0 1 .4 1.4l4.6 4.6L260.3 41V7.1c0-3.9-3.2-7.1-7.1-7.1H36.4c-3.9 0-7.1 3.2-7.1 7.1v159.1L1.7 193.8c-2.3 2.3-2.3 6 0 8.3 1.2 1.2 2.7 1.7 4.2 1.7s3-.6 4.2-1.7l19.2-19.2v41c0 3.9 3.2 7.1 7.1 7.1h216.7c3.9 0 7.1-3.2 7.1-7.1V57.6L282 35.9l4.8 4.8c.4.4.9.5 1.4.4.6 0 .9-.5 1.1-.9L299.9 12c.2-.6.1-1.2-.3-1.6zm-96.1 50.8H240l-36.6 36.6V61.2zM37.1 116.9h41.5l-41.5 41.5v-41.5zM87 223.1H37.1V175l2.5-2.5H87v50.6zm0-55.5H44.5L87 125.2v42.4zm0-59.1l-3.4 3.4H37.1V61.2H87v47.3zm0-52.2H37.1V7.9H87v48.4zm55.8 166.8H91.9v-50.6h50.9v50.6zm0-55.5H91.9v-47.4l3.4-3.4h42.1l5.3 5.3v45.5zM100.2 112l16.2-16.2 16.2 16.2h-32.4zm42.6-6.5l-22.2-22.2c-2.3-2.3-6-2.3-8.3 0L92 103.6V61.2h50.9v44.3zm0-49.2H91.9V7.9h50.9v48.4zm55.8 166.8h-50.9v-50.6h50.9v50.6zm0-55.5h-50.9v-40.5l17.4 17.4c2.3 2.3 6 2.3 8.3 0l25.2-25.2v48.3zm-44.5-50.7h30.3L169.2 132l-15.1-15.1zm44.5-14.2l-9.3 9.3h-40.1l-1.5-1.5V61.2h50.9v41.5zm0-46.4h-50.9V7.9h50.9v48.4zm53.8 166.8h-49v-50.6h49v50.6zm0-55.5h-49v-50.8h49v50.8zm0-55.6h-46.5l46.5-46.5V112zm0-63.2l-7.5 7.5h-41.5V7.9h49v40.9z" fill="#231f20"/></svg>
