<svg xmlns="http://www.w3.org/2000/svg" width="103.936" height="155.624" viewBox="0 0 27.5 41.176"><g transform="matrix(.0776 0 0 .0776 -119.01 -88.47)"><path d="M1838.446 1490.899l-98.982-.307-49.226-85.875 49.757-85.567 98.982.307 49.226 85.874z" fill="#c12766" stroke-width="3"/><path d="M1681.999 1580.652l-98.982-.307-49.226-85.874 49.757-85.568 98.982.307 49.225 85.875z" fill="#3e489f" stroke-width="15"/><path d="M1837.474 1670.845l-98.983-.307-49.225-85.874 49.757-85.568 98.982.307 49.225 85.875z" fill="#714099" stroke-width="3"/><path d="M1682.822 1401.808l-98.982-.307-49.225-85.875 49.757-85.567 98.982.307 49.225 85.874z" fill="#78932c" stroke-width="3"/><path d="M1838.371 1311.93l-98.982-.307-49.225-85.874 49.757-85.568 98.982.307 49.225 85.875z" fill="#cf242a" stroke-width="3"/><circle r="15" cy="1226.056" cx="1789.146" fill="#fff" stroke-width="3"/><circle r="15" cy="1315.933" cx="1633.597" fill="#fff" stroke-width="3"/><circle r="15" cy="1494.778" cx="1632.773" fill="#fff" stroke-width="3"/><circle r="15" cy="1584.971" cx="1788.248" fill="#fff" stroke-width="3"/><path d="M1779.67 1230.244l-136.198 78.031M1633.029 1327.652l.46 156.967M1643.818 1501.315l134.953 80.166" fill="none" fill-rule="evenodd" stroke="#fff" stroke-width="5"/><circle r="15" cy="1405.024" cx="1789.22" fill="#fff" stroke-width="3"/><path d="M1788.668 1236.61l.459 156.967M1789.534 1416.526l.46 156.968M1779.901 1410.641l-136.198 78.032M1644.325 1322.513l134.954 80.166" fill="none" fill-rule="evenodd" stroke="#fff" stroke-width="5"/></g></svg>
