<svg version="1.1" id="Layer_1" xmlns="http://www.w3.org/2000/svg" x="0" y="0" viewBox="0 0 144.9 300" xml:space="preserve"><style>.st9{fill:#231f20}.st22{fill:#3f9c35}</style><path class="st22" d="M63.2 195.3c-1.3-.4-2.5-.8-3.7-1.2v99.3h20.7v-92.6c-4.7-1.7-10.3-3.5-17-5.5z"/><path class="st9" d="M86.7 171.6c-2.1-.7-4.3-1.4-6.6-2.1-2-.6-4-1.2-6.1-1.9-5.3-1.6-10.2-3.2-14.6-4.8-2.3-.8-4.5-1.7-6.6-2.6-16-6.7-24.1-14.4-24.1-27.4 0-15.4 8.1-25.2 24.1-29.1V82.2c-30.3 5.4-46.3 23.5-46.3 52.6 0 27.3 15.6 39.5 46.3 50.2 2.1.7 4.3 1.5 6.6 2.2 1.8.6 3.7 1.2 5.6 1.8 5.6 1.7 10.6 3.3 15 4.8 2.4.8 4.5 1.7 6.6 2.5 15.2 6.3 22.3 13.3 22.3 25.4 0 12.8-8.3 22.2-22.3 25.6v21.4c27.1-5.1 44.5-23.7 44.5-48.3.1-27.1-11.9-37.9-44.4-48.8zM86.7 81.4v22.4c12.8 3.2 25.2 10.2 34.7 19.7l15.6-15.4c-13.1-14.4-30.7-23.8-50.3-26.7zM52.9 245.6c-8.5-2.7-16.2-7.3-23.3-13.9l-15.4 15.7C26 258.2 38.8 265 52.9 268.1v-22.5z"/><path class="st22" d="M35.9 49.4l18.9-8.3c1-.5 2.2-.4 3.1.3.9.6 1.5 1.6 1.5 2.8v111.7c4.7 1.8 10.1 3.6 16.5 5.5 1.4.4 2.8.8 4.2 1.3V44.1c0-1.1.6-2.1 1.5-2.8.9-.6 2.1-.7 3.1-.3l18.9 8.3-33.9-41-33.8 41.1z"/></svg>
