<svg version="1.1" id="Layer_1" xmlns="http://www.w3.org/2000/svg" x="0" y="0" viewBox="0 0 300 189.7" xml:space="preserve"><style>.st2{fill:none}</style><path class="st2" d="M288.5 69.8h-92v24.7c0 6.3-5.2 11.5-11.5 11.5h-74.9v51.7c0 2.7 2.2 5 5 5h111.5l.4 2.9c.1.6 2.4 15.1 22.7 17.3-1.1-3-2-6.9-1.1-10.8.9-3.8 3.4-6.9 7.3-9l.7-.4h31.9c2.7 0 5-2.2 5-5v-83c-.1-2.7-2.3-4.9-5-4.9z"/><path class="st2" d="M110.1 74.8v24.7H185c2.7 0 5-2.2 5-5V69.8h-75c-2.7 0-4.9 2.2-4.9 5z"/><path class="st2" d="M190 63.2V11.5c0-2.7-2.2-5-5-5H11.5c-2.7 0-5 2.2-5 5v83c0 2.7 2.2 5 5 5h31.9l.7.4c3.9 2.1 6.3 5.2 7.3 9 .9 3.8.1 7.8-1.1 10.8 20.3-2.2 22.6-16.7 22.7-17.3l.4-2.8h30V74.8c0-6.4 5.2-11.5 11.5-11.5H190z"/><path d="M103.5 106v51.7c0 6.3 5.2 11.5 11.5 11.5h106.1c2 6.2 9.4 20.5 33.9 20.5h6.2l-3.5-5.1c0-.1-4-6.1-2.8-11 .4-1.8 1.5-3.2 3.4-4.4h30.2c6.3 0 11.5-5.2 11.5-11.5v-83c0-6.4-5.2-11.5-11.5-11.5h-92V11.5C196.5 5.2 191.3 0 185 0H11.5C5.2 0 0 5.2 0 11.5v83c0 6.3 5.2 11.5 11.5 11.5h30.2c1.8 1.2 2.9 2.6 3.4 4.4 1.2 4.9-2.8 10.9-2.8 10.9l-3.5 5.1H45c24.5 0 31.9-14.2 33.9-20.4h24.6"/><path d="M110.1 106H185c6.4 0 11.5-5.2 11.5-11.5V69.8h92c2.7 0 5 2.2 5 5v83c0 2.7-2.2 5-5 5h-31.9l-.7.4c-3.9 2.1-6.3 5.1-7.3 9-.9 3.8-.1 7.8 1.1 10.8-20.3-2.2-22.6-16.7-22.7-17.3l-.4-2.9H115c-2.7 0-5-2.2-5-5V106" fill="#bababa"/><path d="M185 6.5H11.5c-2.7 0-5 2.2-5 5v83c0 2.7 2.2 5 5 5h31.9l.7.4c3.9 2.1 6.3 5.2 7.3 9 .9 3.8.1 7.8-1.1 10.8 20.3-2.2 22.6-16.7 22.7-17.3l.4-2.8h110.7c3.1 0 5.7-3.1 5.7-6.9V11.5c.2-2.7-2.1-5-4.8-5z" fill="#92d400"/></svg>
