<svg xmlns="http://www.w3.org/2000/svg" viewBox="0 0 300 300"><style>.st2{fill:#00aeef}</style><g id="Layer_1"><path class="st2" d="M117.8 69.9c0-17.4.2-34.8 0-52.3C117.6 5.3 123.5 0 135.7 0c51 .3 46.6-5.1 46.5 44.6 0 26.1-.4 52.3.1 78.4.3 14.8-6 20.3-20.5 20.2-48-.5-44.2 4.1-44.1-43.9.1-9.8.1-19.6.1-29.4z"/><path d="M148.3 195.4h-121c-9.7 0-20.3-.3-20.1-13 .2-11.5 10.1-12.2 19.3-12.2 82.3.1 164.6.1 246.8 0 9.3 0 19.2.8 19.3 12.2.2 12.7-10.4 13-20.2 13-41.2-.1-82.6 0-124.1 0z" fill="#231f20"/><path class="st2" d="M273.8 97.8c0 9.2-.2 18.5 0 27.7.3 12.4-5.8 17.6-18 17.6-50.9-.3-46.6 5.1-46.5-44.6v-1.6c-.1-50.1-4.7-44.2 48.2-44.4 10.6 0 16.2 5.2 16.2 15.9.1 9.8.1 19.6.1 29.4z"/><path d="M151.2 222.6c12 0 24-.6 36 .2 13.5.9 18.3 10.4 10.6 21.4-11.5 16.5-23.8 32.5-36.1 48.5-8 10.4-16.4 9.4-24-.6-11.9-15.6-23.9-31.1-35.1-47.2-8.3-11.8-3.4-21.3 11.1-22.1 12.4-.8 25-.2 37.5-.2z" fill="#bcbec0"/><path class="st2" d="M90.6 110.8v16.3c-.1 10.7-5.7 15.9-16.3 15.9h-1.6c-52.4-.1-50 5.8-47-48.8C25.9 74 48.8 78.5 69.5 79c11.3.3 20.9 1.1 21.1 15.5v16.3z"/></g></svg>
