<svg version="1.1" id="Layer_1" xmlns="http://www.w3.org/2000/svg" xmlns:xlink="http://www.w3.org/1999/xlink" x="0" y="0" viewBox="0 0 300 300" xml:space="preserve"><style>.st5{fill:#fff}</style><path d="M275.1 300H24.9C11.1 300 0 288.9 0 275.1V24.9C0 11.1 11.1 0 24.9 0h250.2C288.9 0 300 11.1 300 24.9v250.2c0 13.8-11.1 24.9-24.9 24.9z" fill="#832eab"/><image width="953" height="953" xlink:href="AB94EA5020717A1A.png" transform="matrix(.24 0 0 .24 42.715 42.715)" overflow="visible" opacity=".75"/><path class="st5" d="M139.4 185.5c12.9 18.7 20.9 42.2 23.8 69.7h32.9c-2.4-34.6-11.8-64.4-27.8-88.7-13-19.7-30.5-35.9-52-48-31.9-18-63.4-21.8-71.6-22.5v39.3c6.7.1 29.5 1.5 53.7 14.1 16.7 8.7 30.4 20.8 41 36.1zM255.3 91.5v-29c0-9.8-8-17.8-17.8-17.8H207c14.4 9.7 34.3 25.6 48.3 46.8zM186.5 44.7h-75.7c11.9 4.6 25.5 11 39.7 19.8 25.4 15.8 47.6 36.1 66 60.5 15.9 21.2 28.9 45.4 38.9 72.4v-83.3c-15.7-38-58.2-63.5-68.9-69.4z"/><path class="st5" d="M130.7 191.9c-9.5-13.9-21.9-24.9-36.8-32.7-22-11.5-43.2-12.9-49.2-13.1v91.4c0 9.8 8 17.8 17.8 17.8h89.9c-2.8-25.2-10.1-46.5-21.7-63.4zM208.1 131.8c-17.5-23.3-38.6-42.8-62.8-57.9C113 53.8 83.6 46.8 72.1 44.7h-9.6c-9.8 0-17.8 8-17.8 17.8v22.8c7.6.5 41.3 4 76.4 23.7 23.1 13 41.9 30.3 55.9 51.4 17.3 26 27.3 57.9 29.7 94.8h30.7c9.8 0 17.8-8 17.8-17.8v-4c-10-39-25.9-73.3-47.1-101.6z"/></svg>
