<svg xmlns="http://www.w3.org/2000/svg" viewBox="0 0 227.2 300"><style></style><g id="Layer_1"><path d="M217.7 194.5c5.9 3.6 9.5 7.7 9.5 12.7v63.4c0 21.6-67.9 29.5-113.6 29.5C67.9 300 0 292.1 0 270.5v-63.4c0-4.9 3.5-9.1 9.5-12.7-5.9-3.6-9.5-7.7-9.5-12.7v-63.4c0-5 3.6-9.2 9.7-12.8-6.1-3.6-9.8-7.9-9.8-12.9V29.5C-.1 7.9 67.8 0 113.5 0c45.7 0 113.6 7.9 113.6 29.5v63.4c0 5-3.6 9.2-9.7 12.8 6.1 3.6 9.8 7.9 9.8 12.9V182c0 4.7-3.5 8.9-9.5 12.5z" fill="#009444"/><path d="M217.6 194.7c5.9 3.6-86.1 27.2-208.3 0C3.4 191.1-.2 187-.2 182v-63.4c0-5 9.7-12.8 9.7-12.8s109.6 20 207.7-.1c9.7 1.8 9.8 7.9 9.8 12.9V182c.1 4.9-3.4 9.1-9.4 12.7z" fill="#4fe89c"/><path d="M9.5 105.5c-6-3.6-9.5-7.7-9.5-12.7V29.5C0 7.9 67.9 0 113.6 0c45.7 0 113.6 7.9 113.6 29.5v63.4c0 4.9-3.5 9.1-9.5 12.7-103.3 24.5-214.2 3.5-208.2-.1z" fill="#fff"/><path d="M78.1 222.6c12.1 1 24.7 1.5 37.6 1.5 35.5 0 68.7-4 88.9-10.7 1.6-.5 3.4.3 3.9 2 .5 1.6-.3 3.4-2 3.9-20.8 6.9-54.8 11-90.9 11-13 0-25.9-.5-38.1-1.6-1.7-.1-3-1.7-2.8-3.4.2-1.5 1.7-2.8 3.4-2.7zm-25.2-2c-12.3-2-22.9-4.7-30.5-7.6-1.1-.4-2.3.1-2.7 1.2-.4 1.1.1 2.3 1.2 2.7 8 3.1 18.6 5.8 31.4 7.9h.3c1 0 1.9-.7 2-1.7.2-1.2-.6-2.3-1.7-2.5zm164.8-26.1c5.9 3.6 9.5 7.7 9.5 12.7v63.4c0 21.6-67.9 29.5-113.6 29.5C67.9 300 0 292.1 0 270.5v-63.4c0-4.9 3.5-9.1 9.5-12.7-5.9-3.6-9.5-7.7-9.5-12.7v-63.4c0-5 3.6-9.2 9.7-12.8-6.1-3.6-9.8-7.9-9.8-12.9V29.5C-.1 7.9 67.8 0 113.5 0c45.7 0 113.6 7.9 113.6 29.5v63.4c0 5-3.6 9.2-9.7 12.8 6.1 3.6 9.8 7.9 9.8 12.9V182c0 4.7-3.5 8.9-9.5 12.5zM19.3 101.3c3.7 1.5 8.2 3 13.7 4.4 17.7 4.6 44.6 8.3 80.5 8.3 36 0 63-3.7 80.6-8.4 5.4-1.4 10-2.9 13.7-4.4 7.2-3 11-6 11-8.4V29.5c0-7.4-36.2-21.2-105.3-21.2S8.2 22.1 8.2 29.5v63.4c0 2.3 3.8 5.3 11.1 8.4zm189 97.6c-23.5 8.9-64.1 12.4-94.7 12.4-30.6 0-71.3-3.5-94.7-12.4-7 3-10.6 5.9-10.6 8.2v63.4c0 7.4 36.2 21.2 105.3 21.2s105.3-13.8 105.3-21.2v-63.4c0-2.3-3.6-5.2-10.6-8.2zm10.6-80.4c0-2.4-3.8-5.4-11.1-8.4-23.5 8.8-63.9 12.3-94.3 12.3s-70.7-3.5-94.2-12.2c-7.2 3-11 6-11 8.4V182c0 2.3 3.6 5.3 10.6 8.2 3.6 1.5 8.1 3 13.5 4.4 17.7 4.7 44.8 8.5 81.2 8.5s63.5-3.8 81.2-8.5c5.4-1.4 9.9-2.9 13.5-4.4 7-3 10.6-5.9 10.6-8.2v-63.5zm-14.3 6.3c-20.2 6.7-53.4 10.7-88.9 10.7-12.9 0-25.6-.5-37.6-1.5-1.7-.1-3.2 1.1-3.4 2.8-.1 1.7 1.1 3.2 2.8 3.4 12.2 1 25 1.6 38.1 1.6 36.1 0 70.1-4.1 90.9-11 1.6-.5 2.5-2.3 2-3.9-.5-1.8-2.2-2.7-3.9-2.1zm-151.7 7.1c-12.3-2-22.9-4.7-30.5-7.6-1.1-.4-2.3.1-2.7 1.2-.4 1.1.1 2.3 1.2 2.7 8 3.1 18.6 5.8 31.4 7.9h.3c1 0 1.9-.7 2-1.7.2-1.2-.6-2.3-1.7-2.5zm24.6-80.7c12.2 1 25 1.6 38.1 1.6 36.1 0 70.1-4.1 90.9-11 1.6-.5 2.5-2.3 2-3.9s-2.3-2.5-3.9-2c-20.2 6.7-53.4 10.7-88.9 10.7-13-.1-25.6-.6-37.7-1.6-1.7-.1-3.2 1.1-3.4 2.8-.1 1.7 1.2 3.2 2.9 3.4zm-25-4.1c1 0 1.9-.7 2-1.7.2-1.1-.6-2.2-1.7-2.4-12.3-2-22.9-4.7-30.5-7.6-1.1-.4-2.3.1-2.7 1.2-.4 1.1.1 2.3 1.2 2.7 8 3.1 18.6 5.8 31.4 7.9 0-.1.1-.1.3-.1z"/></g></svg>
