<svg width="46" height="39" xmlns="http://www.w3.org/2000/svg" xmlns:xlink="http://www.w3.org/1999/xlink"><defs><path id="a" d="M.119.088h13.21v20.164H.119z"/></defs><g fill="none" fill-rule="evenodd"><path d="M19.52 24.026l2.78-2.78 1.182-1.182c.45-.45.45-1.178 0-1.627L22.3 17.255l-2.779-2.78a1.15 1.15 0 0 0-1.627 0l-2.78 2.78-1.182 1.182a1.15 1.15 0 0 0 0 1.627l1.182 1.183 2.78 2.78c.45.449 1.178.449 1.627 0" fill="#000"/><path d="M46 25.077V13.425a2.393 2.393 0 0 0-2.393-2.393H31.955a2.393 2.393 0 0 0-2.392 2.393v11.652a2.393 2.393 0 0 0 2.392 2.392h11.652A2.393 2.393 0 0 0 46 25.077" fill="#00AEEF"/><path d="M24.789 20.445l-.842.841h4.03v-4.071h-4.03l.842.841c.658.659.658 1.73 0 2.389M11.846 36.421v-2.233h8.411l-.001-9.21-.477.477a1.69 1.69 0 0 1-2.389 0l-.547-.547-.005 5.853H11.846v-2.65c0-.943-.765-1.707-1.707-1.707h-8.31c-.943 0-1.707.764-1.707 1.707v8.31c0 .943.764 1.707 1.707 1.707h8.31c.942 0 1.707-.764 1.707-1.707" fill="#000"/><g transform="rotate(-90 6.868 6.834)"><mask id="b" fill="#fff"><use xlink:href="#a"/></mask><path d="M1.15 18.55c0 .452-.175.876-.494 1.195l-.477.477h.104l-.007.03 9.054-.029v-8.411h2.292c.943 0 1.707-.764 1.707-1.707v-8.31c0-.943-.764-1.707-1.707-1.707h-8.31c-.943 0-1.707.764-1.707 1.707v8.31c0 .943.764 1.707 1.707 1.707h2.591V16.824L.12 16.82l.537.538c.32.319.495.743.495 1.194" fill="#000" mask="url(#b)"/></g><path fill-rule="nonzero" d="M0 42V-4h46v46z"/></g></svg>
