<?xml version="1.0" encoding="UTF-8" standalone="no"?>
<!DOCTYPE svg PUBLIC "-//W3C//DTD SVG 1.1//EN"
 "http://www.w3.org/Graphics/SVG/1.1/DTD/svg11.dtd">
<!-- Generated by graphviz version 2.40.1 (20161225.0304)
 -->
<!-- Title: dependencies Pages: 1 -->
<svg width="2744pt" height="211pt"
 viewBox="0.00 0.00 2744.00 211.00" xmlns="http://www.w3.org/2000/svg" xmlns:xlink="http://www.w3.org/1999/xlink">
<g id="graph0" class="graph" transform="scale(1 1) rotate(0) translate(4 207)">
<title>dependencies</title>
<polygon fill="#ffffff" stroke="transparent" points="-4,4 -4,-207 2740,-207 2740,4 -4,4"/>
<text text-anchor="start" x="1347.0091" y="-42.4" font-family="sans-serif" font-weight="bold" font-size="14.00" fill="#000000">Legend</text>
<polygon fill="#ffffb3" stroke="transparent" points="1134,-10 1134,-30 1154,-30 1154,-10 1134,-10"/>
<text text-anchor="start" x="1157.629" y="-15.4" font-family="sans-serif" font-size="14.00" fill="#000000"> &#160;Declarations</text>
<polygon fill="#8dd3c7" stroke="transparent" points="1247,-10 1247,-30 1267,-30 1267,-10 1247,-10"/>
<text text-anchor="start" x="1270.7251" y="-15.4" font-family="sans-serif" font-size="14.00" fill="#000000"> &#160;Module</text>
<polygon fill="#80b1d3" stroke="transparent" points="1333,-10 1333,-30 1353,-30 1353,-10 1333,-10"/>
<text text-anchor="start" x="1356.7812" y="-15.4" font-family="sans-serif" font-size="14.00" fill="#000000"> &#160;Bootstrap</text>
<polygon fill="#fdb462" stroke="transparent" points="1430,-10 1430,-30 1450,-30 1450,-10 1430,-10"/>
<text text-anchor="start" x="1453.6732" y="-15.4" font-family="sans-serif" font-size="14.00" fill="#000000"> &#160;Providers</text>
<polygon fill="#fb8072" stroke="transparent" points="1526,-10 1526,-30 1546,-30 1546,-10 1526,-10"/>
<text text-anchor="start" x="1549.7258" y="-15.4" font-family="sans-serif" font-size="14.00" fill="#000000"> &#160;Exports</text>
<g id="clust1" class="cluster">
<title>cluster_StoreModule</title>
<polygon fill="none" stroke="#000000" stroke-dasharray="1,5" points="8,-70 8,-195 2728,-195 2728,-70 8,-70"/>
</g>
<g id="clust6" class="cluster">
<title>cluster_StoreModule_providers</title>
<polygon fill="none" stroke="#000000" points="16,-78 16,-130 2720,-130 2720,-78 16,-78"/>
</g>
<!-- ActionService -->
<g id="node1" class="node">
<title>ActionService</title>
<ellipse fill="#fdb462" stroke="#000000" cx="2646" cy="-104" rx="66.0492" ry="18"/>
<text text-anchor="middle" x="2646" y="-99.8" font-family="Times,serif" font-size="14.00" fill="#000000">ActionService</text>
</g>
<!-- StoreModule -->
<g id="node17" class="node">
<title>StoreModule</title>
<polygon fill="#8dd3c7" stroke="#000000" points="1358.5983,-187 1355.5983,-191 1334.5983,-191 1331.5983,-187 1269.4017,-187 1269.4017,-151 1358.5983,-151 1358.5983,-187"/>
<text text-anchor="middle" x="1314" y="-164.8" font-family="Times,serif" font-size="14.00" fill="#000000">StoreModule</text>
</g>
<!-- ActionService&#45;&gt;StoreModule -->
<g id="edge1" class="edge">
<title>ActionService&#45;&gt;StoreModule</title>
<path fill="none" stroke="#000000" d="M2646,-122.3228C2646,-145.6602 2646,-183 2646,-183 2646,-183 1368.6989,-183 1368.6989,-183"/>
<polygon fill="#000000" stroke="#000000" points="1368.6989,-179.5001 1358.6989,-183 1368.6989,-186.5001 1368.6989,-179.5001"/>
</g>
<!-- ConnectionService -->
<g id="node2" class="node">
<title>ConnectionService</title>
<ellipse fill="#fdb462" stroke="#000000" cx="2477" cy="-104" rx="84.5305" ry="18"/>
<text text-anchor="middle" x="2477" y="-99.8" font-family="Times,serif" font-size="14.00" fill="#000000">ConnectionService</text>
</g>
<!-- ConnectionService&#45;&gt;StoreModule -->
<g id="edge2" class="edge">
<title>ConnectionService&#45;&gt;StoreModule</title>
<path fill="none" stroke="#000000" d="M2477,-122.2921C2477,-144.2057 2477,-178 2477,-178 2477,-178 1368.8784,-178 1368.8784,-178"/>
<polygon fill="#000000" stroke="#000000" points="1368.8784,-174.5001 1358.8784,-178 1368.8783,-181.5001 1368.8784,-174.5001"/>
</g>
<!-- ConnectorService -->
<g id="node3" class="node">
<title>ConnectorService</title>
<ellipse fill="#fdb462" stroke="#000000" cx="2294" cy="-104" rx="80.4364" ry="18"/>
<text text-anchor="middle" x="2294" y="-99.8" font-family="Times,serif" font-size="14.00" fill="#000000">ConnectorService</text>
</g>
<!-- ConnectorService&#45;&gt;StoreModule -->
<g id="edge3" class="edge">
<title>ConnectorService&#45;&gt;StoreModule</title>
<path fill="none" stroke="#000000" d="M2294,-122.0267C2294,-142.7672 2294,-174 2294,-174 2294,-174 1368.6551,-174 1368.6551,-174"/>
<polygon fill="#000000" stroke="#000000" points="1368.6551,-170.5001 1358.6551,-174 1368.6551,-177.5001 1368.6551,-170.5001"/>
</g>
<!-- IntegrationService -->
<g id="node4" class="node">
<title>IntegrationService</title>
<ellipse fill="#fdb462" stroke="#000000" cx="2113" cy="-104" rx="82.2198" ry="18"/>
<text text-anchor="middle" x="2113" y="-99.8" font-family="Times,serif" font-size="14.00" fill="#000000">IntegrationService</text>
</g>
<!-- IntegrationService&#45;&gt;StoreModule -->
<g id="edge4" class="edge">
<title>IntegrationService&#45;&gt;StoreModule</title>
<path fill="none" stroke="#000000" d="M2113,-122.1061C2113,-141.3391 2113,-169 2113,-169 2113,-169 1368.6698,-169 1368.6698,-169"/>
<polygon fill="#000000" stroke="#000000" points="1368.6698,-165.5001 1358.6698,-169 1368.6697,-172.5001 1368.6698,-165.5001"/>
</g>
<!-- IntegrationSupportService -->
<g id="node5" class="node">
<title>IntegrationSupportService</title>
<ellipse fill="#fdb462" stroke="#000000" cx="1900" cy="-104" rx="112.8809" ry="18"/>
<text text-anchor="middle" x="1900" y="-99.8" font-family="Times,serif" font-size="14.00" fill="#000000">IntegrationSupportService</text>
</g>
<!-- IntegrationSupportService&#45;&gt;StoreModule -->
<g id="edge5" class="edge">
<title>IntegrationSupportService&#45;&gt;StoreModule</title>
<path fill="none" stroke="#000000" d="M1900,-122.302C1900,-140.2699 1900,-165 1900,-165 1900,-165 1369.0094,-165 1369.0094,-165"/>
<polygon fill="#000000" stroke="#000000" points="1369.0094,-161.5001 1359.0094,-165 1369.0094,-168.5001 1369.0094,-161.5001"/>
</g>
<!-- TemplateService -->
<g id="node6" class="node">
<title>TemplateService</title>
<ellipse fill="#fdb462" stroke="#000000" cx="1693" cy="-104" rx="76.4188" ry="18"/>
<text text-anchor="middle" x="1693" y="-99.8" font-family="Times,serif" font-size="14.00" fill="#000000">TemplateService</text>
</g>
<!-- TemplateService&#45;&gt;StoreModule -->
<g id="edge6" class="edge">
<title>TemplateService&#45;&gt;StoreModule</title>
<path fill="none" stroke="#000000" d="M1693,-122.027C1693,-138.3976 1693,-160 1693,-160 1693,-160 1368.5906,-160 1368.5906,-160"/>
<polygon fill="#000000" stroke="#000000" points="1368.5906,-156.5001 1358.5906,-160 1368.5906,-163.5001 1368.5906,-156.5001"/>
</g>
<!-- EventsService -->
<g id="node7" class="node">
<title>EventsService</title>
<ellipse fill="#fdb462" stroke="#000000" cx="1532" cy="-104" rx="66.0492" ry="18"/>
<text text-anchor="middle" x="1532" y="-99.8" font-family="Times,serif" font-size="14.00" fill="#000000">EventsService</text>
</g>
<!-- EventsService&#45;&gt;StoreModule -->
<g id="edge7" class="edge">
<title>EventsService&#45;&gt;StoreModule</title>
<path fill="none" stroke="#000000" d="M1532,-122.1871C1532,-137.1824 1532,-156 1532,-156 1532,-156 1368.6416,-156 1368.6416,-156"/>
<polygon fill="#000000" stroke="#000000" points="1368.6416,-152.5001 1358.6416,-156 1368.6416,-159.5001 1368.6416,-152.5001"/>
</g>
<!-- ActionStore -->
<g id="node8" class="node">
<title>ActionStore</title>
<ellipse fill="#fdb462" stroke="#000000" cx="1390" cy="-104" rx="57.9023" ry="18"/>
<text text-anchor="middle" x="1390" y="-99.8" font-family="Times,serif" font-size="14.00" fill="#000000">ActionStore</text>
</g>
<!-- ActionStore&#45;&gt;StoreModule -->
<g id="edge8" class="edge">
<title>ActionStore&#45;&gt;StoreModule</title>
<path fill="none" stroke="#000000" d="M1345.4242,-115.6207C1345.4242,-115.6207 1345.4242,-140.8534 1345.4242,-140.8534"/>
<polygon fill="#000000" stroke="#000000" points="1341.9243,-140.8533 1345.4242,-150.8534 1348.9243,-140.8534 1341.9243,-140.8533"/>
</g>
<!-- ConnectionStore -->
<g id="node9" class="node">
<title>ConnectionStore</title>
<ellipse fill="#fdb462" stroke="#000000" cx="1238" cy="-104" rx="75.8836" ry="18"/>
<text text-anchor="middle" x="1238" y="-99.8" font-family="Times,serif" font-size="14.00" fill="#000000">ConnectionStore</text>
</g>
<!-- ConnectionStore&#45;&gt;StoreModule -->
<g id="edge9" class="edge">
<title>ConnectionStore&#45;&gt;StoreModule</title>
<path fill="none" stroke="#000000" d="M1291.6963,-116.8419C1291.6963,-116.8419 1291.6963,-140.5231 1291.6963,-140.5231"/>
<polygon fill="#000000" stroke="#000000" points="1288.1964,-140.523 1291.6963,-150.5231 1295.1964,-140.5231 1288.1964,-140.523"/>
</g>
<!-- ConnectorStore -->
<g id="node10" class="node">
<title>ConnectorStore</title>
<ellipse fill="#fdb462" stroke="#000000" cx="1072" cy="-104" rx="71.7892" ry="18"/>
<text text-anchor="middle" x="1072" y="-99.8" font-family="Times,serif" font-size="14.00" fill="#000000">ConnectorStore</text>
</g>
<!-- ConnectorStore&#45;&gt;StoreModule -->
<g id="edge10" class="edge">
<title>ConnectorStore&#45;&gt;StoreModule</title>
<path fill="none" stroke="#000000" d="M1072,-122.1871C1072,-137.1824 1072,-156 1072,-156 1072,-156 1259.3314,-156 1259.3314,-156"/>
<polygon fill="#000000" stroke="#000000" points="1259.3315,-159.5001 1269.3314,-156 1259.3314,-152.5001 1259.3315,-159.5001"/>
</g>
<!-- IntegrationStore -->
<g id="node11" class="node">
<title>IntegrationStore</title>
<ellipse fill="#fdb462" stroke="#000000" cx="909" cy="-104" rx="73.5734" ry="18"/>
<text text-anchor="middle" x="909" y="-99.8" font-family="Times,serif" font-size="14.00" fill="#000000">IntegrationStore</text>
</g>
<!-- IntegrationStore&#45;&gt;StoreModule -->
<g id="edge11" class="edge">
<title>IntegrationStore&#45;&gt;StoreModule</title>
<path fill="none" stroke="#000000" d="M909,-122.027C909,-138.3976 909,-160 909,-160 909,-160 1259.1105,-160 1259.1105,-160"/>
<polygon fill="#000000" stroke="#000000" points="1259.1105,-163.5001 1269.1105,-160 1259.1105,-156.5001 1259.1105,-163.5001"/>
</g>
<!-- TemplateStore -->
<g id="node12" class="node">
<title>TemplateStore</title>
<ellipse fill="#fdb462" stroke="#000000" cx="749" cy="-104" rx="67.7721" ry="18"/>
<text text-anchor="middle" x="749" y="-99.8" font-family="Times,serif" font-size="14.00" fill="#000000">TemplateStore</text>
</g>
<!-- TemplateStore&#45;&gt;StoreModule -->
<g id="edge12" class="edge">
<title>TemplateStore&#45;&gt;StoreModule</title>
<path fill="none" stroke="#000000" d="M749,-122.302C749,-140.2699 749,-165 749,-165 749,-165 1259.1931,-165 1259.1931,-165"/>
<polygon fill="#000000" stroke="#000000" points="1259.1932,-168.5001 1269.1931,-165 1259.1931,-161.5001 1259.1932,-168.5001"/>
</g>
<!-- TestSupportService -->
<g id="node13" class="node">
<title>TestSupportService</title>
<ellipse fill="#fdb462" stroke="#000000" cx="576" cy="-104" rx="87.3963" ry="18"/>
<text text-anchor="middle" x="576" y="-99.8" font-family="Times,serif" font-size="14.00" fill="#000000">TestSupportService</text>
</g>
<!-- TestSupportService&#45;&gt;StoreModule -->
<g id="edge13" class="edge">
<title>TestSupportService&#45;&gt;StoreModule</title>
<path fill="none" stroke="#000000" d="M576,-122.1061C576,-141.3391 576,-169 576,-169 576,-169 1259.2216,-169 1259.2216,-169"/>
<polygon fill="#000000" stroke="#000000" points="1259.2217,-172.5001 1269.2216,-169 1259.2216,-165.5001 1259.2217,-172.5001"/>
</g>
<!-- StepStore -->
<g id="node14" class="node">
<title>StepStore</title>
<ellipse fill="#fdb462" stroke="#000000" cx="422" cy="-104" rx="48.6714" ry="18"/>
<text text-anchor="middle" x="422" y="-99.8" font-family="Times,serif" font-size="14.00" fill="#000000">StepStore</text>
</g>
<!-- StepStore&#45;&gt;StoreModule -->
<g id="edge14" class="edge">
<title>StepStore&#45;&gt;StoreModule</title>
<path fill="none" stroke="#000000" d="M422,-122.0267C422,-142.7672 422,-174 422,-174 422,-174 1259.1543,-174 1259.1543,-174"/>
<polygon fill="#000000" stroke="#000000" points="1259.1543,-177.5001 1269.1543,-174 1259.1542,-170.5001 1259.1543,-177.5001"/>
</g>
<!-- OAuthAppService -->
<g id="node15" class="node">
<title>OAuthAppService</title>
<ellipse fill="#fdb462" stroke="#000000" cx="273" cy="-104" rx="82.8071" ry="18"/>
<text text-anchor="middle" x="273" y="-99.8" font-family="Times,serif" font-size="14.00" fill="#000000">OAuthAppService</text>
</g>
<!-- OAuthAppService&#45;&gt;StoreModule -->
<g id="edge15" class="edge">
<title>OAuthAppService&#45;&gt;StoreModule</title>
<path fill="none" stroke="#000000" d="M273,-122.2921C273,-144.2057 273,-178 273,-178 273,-178 1259.2695,-178 1259.2695,-178"/>
<polygon fill="#000000" stroke="#000000" points="1259.2696,-181.5001 1269.2695,-178 1259.2695,-174.5001 1259.2696,-181.5001"/>
</g>
<!-- OAuthAppStore -->
<g id="node16" class="node">
<title>OAuthAppStore</title>
<ellipse fill="#fdb462" stroke="#000000" cx="98" cy="-104" rx="74.1605" ry="18"/>
<text text-anchor="middle" x="98" y="-99.8" font-family="Times,serif" font-size="14.00" fill="#000000">OAuthAppStore</text>
</g>
<!-- OAuthAppStore&#45;&gt;StoreModule -->
<g id="edge16" class="edge">
<title>OAuthAppStore&#45;&gt;StoreModule</title>
<path fill="none" stroke="#000000" d="M98,-122.3228C98,-145.6602 98,-183 98,-183 98,-183 1259.2798,-183 1259.2798,-183"/>
<polygon fill="#000000" stroke="#000000" points="1259.2798,-186.5001 1269.2798,-183 1259.2797,-179.5001 1259.2798,-186.5001"/>
</g>
</g>
</svg>
